<?xml version="1.0" encoding="UTF-8" standalone="no"?>
<!DOCTYPE svg PUBLIC "-//W3C//DTD SVG 1.1//EN"
 "http://www.w3.org/Graphics/SVG/1.1/DTD/svg11.dtd">
<!-- Generated by graphviz version 2.38.0 (20140413.2041)
 -->
<!-- Title: t10_foo_graph Pages: 1 -->
<svg width="380pt" height="591pt"
 viewBox="0.00 0.00 379.50 591.00" xmlns="http://www.w3.org/2000/svg" xmlns:xlink="http://www.w3.org/1999/xlink">
<g id="graph0" class="graph" transform="scale(1 1) rotate(0) translate(4 587)">
<title>t10_foo_graph</title>
<polygon fill="white" stroke="none" points="-4,4 -4,-587 375.5,-587 375.5,4 -4,4"/>
<!-- Node_0 -->
<g id="node1" class="node"><title>Node_0</title>
<path fill="mintcream" stroke="orange" d="M86.5,-546.5C86.5,-546.5 116.5,-546.5 116.5,-546.5 122.5,-546.5 128.5,-552.5 128.5,-558.5 128.5,-558.5 128.5,-570.5 128.5,-570.5 128.5,-576.5 122.5,-582.5 116.5,-582.5 116.5,-582.5 86.5,-582.5 86.5,-582.5 80.5,-582.5 74.5,-576.5 74.5,-570.5 74.5,-570.5 74.5,-558.5 74.5,-558.5 74.5,-552.5 80.5,-546.5 86.5,-546.5"/>
<text text-anchor="middle" x="101.5" y="-562.3" font-family="Arial" font-size="9.00">&lt;Entry&gt;</text>
</g>
<!-- Node_1 -->
<g id="node2" class="node"><title>Node_1</title>
<path fill="mintcream" stroke="black" d="M81,-437.5C81,-437.5 122,-437.5 122,-437.5 128,-437.5 134,-443.5 134,-449.5 134,-449.5 134,-497.5 134,-497.5 134,-503.5 128,-509.5 122,-509.5 122,-509.5 81,-509.5 81,-509.5 75,-509.5 69,-503.5 69,-497.5 69,-497.5 69,-449.5 69,-449.5 69,-443.5 75,-437.5 81,-437.5"/>
<text text-anchor="middle" x="101.5" y="-498.3" font-family="Arial" font-size="9.00">&lt;bb 2&gt;</text>
<polyline fill="none" stroke="black" points="69,-491.5 134,-491.5 "/>
<text text-anchor="middle" x="101.5" y="-480.3" font-family="Arial" font-size="9.00">i_3 = 0</text>
<polyline fill="none" stroke="black" points="69,-473.5 134,-473.5 "/>
<text text-anchor="middle" x="101.5" y="-462.3" font-family="Arial" font-size="9.00">j_4 = 0</text>
<polyline fill="none" stroke="black" points="69,-455.5 134,-455.5 "/>
<text text-anchor="middle" x="101.5" y="-444.3" font-family="Arial" font-size="9.00">goto &lt;bb 4&gt;</text>
</g>
<!-- Node_0&#45;&gt;Node_1 -->
<g id="edge1" class="edge"><title>Node_0&#45;&gt;Node_1</title>
<path fill="none" stroke="black" d="M101.5,-546.34C101.5,-538.698 101.5,-529.301 101.5,-519.852"/>
<polygon fill="black" stroke="black" points="105,-519.659 101.5,-509.659 98.0001,-519.659 105,-519.659"/>
</g>
<!-- Node_2 -->
<g id="node3" class="node"><title>Node_2</title>
<path fill="mintcream" stroke="black" d="M12,-346.5C12,-346.5 191,-346.5 191,-346.5 197,-346.5 203,-352.5 203,-358.5 203,-358.5 203,-388.5 203,-388.5 203,-394.5 197,-400.5 191,-400.5 191,-400.5 12,-400.5 12,-400.5 6,-400.5 0,-394.5 0,-388.5 0,-388.5 0,-358.5 0,-358.5 0,-352.5 6,-346.5 12,-346.5"/>
<text text-anchor="middle" x="101.5" y="-389.3" font-family="Arial" font-size="9.00">&lt;bb 4&gt;</text>
<polyline fill="none" stroke="black" points="0,-382.5 203,-382.5 "/>
<text text-anchor="middle" x="101.5" y="-371.3" font-family="Arial" font-size="9.00"># i_1 = PHI &lt;i_3(2), i_6(3)&gt;</text>
<polyline fill="none" stroke="black" points="0,-364.5 203,-364.5 "/>
<text text-anchor="middle" x="101.5" y="-353.3" font-family="Arial" font-size="9.00">if (i_1 &lt; a_5(D)) goto &lt;bb 3&gt; else goto &lt;bb 5&gt;</text>
</g>
<!-- Node_1&#45;&gt;Node_2 -->
<g id="edge2" class="edge"><title>Node_1&#45;&gt;Node_2</title>
<path fill="none" stroke="black" d="M101.5,-437.397C101.5,-428.806 101.5,-419.595 101.5,-410.944"/>
<polygon fill="black" stroke="black" points="105,-410.748 101.5,-400.748 98.0001,-410.748 105,-410.748"/>
</g>
<!-- Node_3 -->
<g id="node4" class="node"><title>Node_3</title>
<path fill="mintcream" stroke="black" d="M80,-246.5C80,-246.5 123,-246.5 123,-246.5 129,-246.5 135,-252.5 135,-258.5 135,-258.5 135,-270.5 135,-270.5 135,-276.5 129,-282.5 123,-282.5 123,-282.5 80,-282.5 80,-282.5 74,-282.5 68,-276.5 68,-270.5 68,-270.5 68,-258.5 68,-258.5 68,-252.5 74,-246.5 80,-246.5"/>
<text text-anchor="middle" x="101.5" y="-271.3" font-family="Arial" font-size="9.00">&lt;bb 3&gt;</text>
<polyline fill="none" stroke="black" points="68,-264.5 135,-264.5 "/>
<text text-anchor="middle" x="101.5" y="-253.3" font-family="Arial" font-size="9.00">i_6 = i_1 + 1</text>
</g>
<!-- Node_2&#45;&gt;Node_3 -->
<g id="edge3" class="edge"><title>Node_2&#45;&gt;Node_3</title>
<path fill="none" stroke="crimson" d="M95.6029,-346.325C94.4913,-330.084 94.4663,-309.251 95.5279,-292.804"/>
<polygon fill="crimson" stroke="crimson" points="99.0253,-292.981 96.3819,-282.721 92.0503,-292.39 99.0253,-292.981"/>
</g>
<!-- Node_4 -->
<g id="node5" class="node"><title>Node_4</title>
<path fill="mintcream" stroke="black" d="M165.5,-219.5C165.5,-219.5 341.5,-219.5 341.5,-219.5 347.5,-219.5 353.5,-225.5 353.5,-231.5 353.5,-231.5 353.5,-297.5 353.5,-297.5 353.5,-303.5 347.5,-309.5 341.5,-309.5 341.5,-309.5 165.5,-309.5 165.5,-309.5 159.5,-309.5 153.5,-303.5 153.5,-297.5 153.5,-297.5 153.5,-231.5 153.5,-231.5 153.5,-225.5 159.5,-219.5 165.5,-219.5"/>
<text text-anchor="middle" x="253.5" y="-298.3" font-family="Arial" font-size="9.00">&lt;bb 5&gt;</text>
<polyline fill="none" stroke="black" points="153.5,-291.5 353.5,-291.5 "/>
<text text-anchor="middle" x="253.5" y="-280.3" font-family="Arial" font-size="9.00"># j_2 = PHI &lt;j_4(4), j_7(5)&gt;</text>
<polyline fill="none" stroke="black" points="153.5,-273.5 353.5,-273.5 "/>
<text text-anchor="middle" x="253.5" y="-262.3" font-family="Arial" font-size="9.00">j_7 = j_2 + 1</text>
<polyline fill="none" stroke="black" points="153.5,-255.5 353.5,-255.5 "/>
<text text-anchor="middle" x="253.5" y="-244.3" font-family="Arial" font-size="9.00">_8 = i_1 + j_7</text>
<polyline fill="none" stroke="black" points="153.5,-237.5 353.5,-237.5 "/>
<text text-anchor="middle" x="253.5" y="-226.3" font-family="Arial" font-size="9.00">if (_8 &lt; b_9(D)) goto &lt;bb 5&gt; else goto &lt;bb 6&gt;</text>
</g>
<!-- Node_2&#45;&gt;Node_4 -->
<g id="edge5" class="edge"><title>Node_2&#45;&gt;Node_4</title>
<path fill="none" stroke="teal" d="M138.683,-346.325C151.957,-336.981 167.391,-326.116 182.555,-315.442"/>
<polygon fill="teal" stroke="teal" points="184.774,-318.16 190.936,-309.542 180.744,-312.436 184.774,-318.16"/>
</g>
<!-- Node_3&#45;&gt;Node_2 -->
<g id="edge4" class="edge"><title>Node_3&#45;&gt;Node_2</title>
<path fill="none" stroke="black" d="M106.618,-282.721C108.185,-297.085 108.624,-318.045 107.934,-336.101"/>
<polygon fill="black" stroke="black" points="104.426,-336.155 107.397,-346.325 111.416,-336.522 104.426,-336.155"/>
</g>
<!-- Node_4&#45;&gt;Node_4 -->
<g id="edge6" class="edge"><title>Node_4&#45;&gt;Node_4</title>
<path fill="none" stroke="crimson" d="M353.788,-280.156C364.567,-277.14 371.5,-271.922 371.5,-264.5 371.5,-259.629 368.514,-255.708 363.415,-252.735"/>
<polygon fill="crimson" stroke="crimson" points="364.371,-249.346 353.788,-248.844 361.748,-255.836 364.371,-249.346"/>
</g>
<!-- Node_5 -->
<g id="node6" class="node"><title>Node_5</title>
<path fill="mintcream" stroke="black" d="M228,-146.5C228,-146.5 279,-146.5 279,-146.5 285,-146.5 291,-152.5 291,-158.5 291,-158.5 291,-170.5 291,-170.5 291,-176.5 285,-182.5 279,-182.5 279,-182.5 228,-182.5 228,-182.5 222,-182.5 216,-176.5 216,-170.5 216,-170.5 216,-158.5 216,-158.5 216,-152.5 222,-146.5 228,-146.5"/>
<text text-anchor="middle" x="253.5" y="-171.3" font-family="Arial" font-size="9.00">&lt;bb 6&gt;</text>
<polyline fill="none" stroke="black" points="216,-164.5 291,-164.5 "/>
<text text-anchor="middle" x="253.5" y="-153.3" font-family="Arial" font-size="9.00">_10 = j_7 &#45; i_1</text>
</g>
<!-- Node_4&#45;&gt;Node_5 -->
<g id="edge7" class="edge"><title>Node_4&#45;&gt;Node_5</title>
<path fill="none" stroke="teal" d="M253.5,-219.374C253.5,-210.331 253.5,-201.064 253.5,-192.822"/>
<polygon fill="teal" stroke="teal" points="257,-192.682 253.5,-182.682 250,-192.682 257,-192.682"/>
</g>
<!-- Node_6 -->
<g id="node7" class="node"><title>Node_6</title>
<path fill="mintcream" stroke="black" d="M236,-73.5C236,-73.5 271,-73.5 271,-73.5 277,-73.5 283,-79.5 283,-85.5 283,-85.5 283,-97.5 283,-97.5 283,-103.5 277,-109.5 271,-109.5 271,-109.5 236,-109.5 236,-109.5 230,-109.5 224,-103.5 224,-97.5 224,-97.5 224,-85.5 224,-85.5 224,-79.5 230,-73.5 236,-73.5"/>
<text text-anchor="middle" x="253.5" y="-98.3" font-family="Arial" font-size="9.00">&lt;L5&gt;</text>
<polyline fill="none" stroke="black" points="224,-91.5 283,-91.5 "/>
<text text-anchor="middle" x="253.5" y="-80.3" font-family="Arial" font-size="9.00">return _10</text>
</g>
<!-- Node_5&#45;&gt;Node_6 -->
<g id="edge8" class="edge"><title>Node_5&#45;&gt;Node_6</title>
<path fill="none" stroke="black" d="M253.5,-146.313C253.5,-138.289 253.5,-128.547 253.5,-119.569"/>
<polygon fill="black" stroke="black" points="257,-119.529 253.5,-109.529 250,-119.529 257,-119.529"/>
</g>
<!-- Node_7 -->
<g id="node8" class="node"><title>Node_7</title>
<path fill="mintcream" stroke="#1874cd" d="M238.5,-0.5C238.5,-0.5 268.5,-0.5 268.5,-0.5 274.5,-0.5 280.5,-6.5 280.5,-12.5 280.5,-12.5 280.5,-24.5 280.5,-24.5 280.5,-30.5 274.5,-36.5 268.5,-36.5 268.5,-36.5 238.5,-36.5 238.5,-36.5 232.5,-36.5 226.5,-30.5 226.5,-24.5 226.5,-24.5 226.5,-12.5 226.5,-12.5 226.5,-6.5 232.5,-0.5 238.5,-0.5"/>
<text text-anchor="middle" x="253.5" y="-16.3" font-family="Arial" font-size="9.00">&lt;Exit&gt;</text>
</g>
<!-- Node_6&#45;&gt;Node_7 -->
<g id="edge9" class="edge"><title>Node_6&#45;&gt;Node_7</title>
<path fill="none" stroke="black" d="M253.5,-73.3129C253.5,-65.2895 253.5,-55.5475 253.5,-46.5691"/>
<polygon fill="black" stroke="black" points="257,-46.5288 253.5,-36.5288 250,-46.5289 257,-46.5288"/>
</g>
</g>
</svg>
