<?xml version="1.0" encoding="UTF-8" standalone="no"?>
<!DOCTYPE svg PUBLIC "-//W3C//DTD SVG 1.1//EN"
 "http://www.w3.org/Graphics/SVG/1.1/DTD/svg11.dtd">
<!-- Generated by graphviz version 2.38.0 (20140413.2041)
 -->
<!-- Title: t10_foo_ConstraintGraph Pages: 1 -->
<svg width="619pt" height="702pt"
     viewBox="0.00 0.00 618.50 702.00" xmlns="http://www.w3.org/2000/svg">
<g id="graph0" class="graph" transform="scale(1 1) rotate(0) translate(4 698)">
<title>t10_foo_ConstraintGraph</title>
<polygon fill="white" stroke="none" points="-4,4 -4,-698 614.5,-698 614.5,4 -4,4"/>
<!-- Node_0 -->
<g id="node1" class="node"><title>Node_0</title>
<path fill="lightblue" stroke="lightblue" d="M401,-511.5C401,-511.5 504,-511.5 504,-511.5 510,-511.5 516,-517.5 516,-523.5 516,-523.5 516,-535.5 516,-535.5 516,-541.5 510,-547.5 504,-547.5 504,-547.5 401,-547.5 401,-547.5 395,-547.5 389,-541.5 389,-535.5 389,-535.5 389,-523.5 389,-523.5 389,-517.5 395,-511.5 401,-511.5"/>
<text text-anchor="middle" x="452.5" y="-527.3" font-family="Arial" font-size="9.00"># i_1 = PHI &lt;i_3(2), i_6(3)&gt;</text>
</g>
<!-- Node_1 -->
<g id="node2" class="node"><title>Node_1</title>
<path fill="moccasin" stroke="moccasin" d="M400,-438.5C400,-438.5 441,-438.5 441,-438.5 447,-438.5 453,-444.5 453,-450.5 453,-450.5 453,-462.5 453,-462.5 453,-468.5 447,-474.5 441,-474.5 441,-474.5 400,-474.5 400,-474.5 394,-474.5 388,-468.5 388,-462.5 388,-462.5 388,-450.5 388,-450.5 388,-444.5 394,-438.5 400,-438.5"/>
<text text-anchor="middle" x="420.5" y="-454.3" font-family="Arial" font-size="9.00">i_1: [&#45;inf, inf]</text>
</g>
<!-- Node_0&#45;&gt;Node_1 -->
<g id="edge1" class="edge"><title>Node_0&#45;&gt;Node_1</title>
<path fill="none" stroke="steelblue" d="M444.754,-511.313C441.02,-503.028 436.46,-492.91 432.305,-483.693"/>
<polygon fill="steelblue" stroke="steelblue" points="435.475,-482.207 428.175,-474.529 429.093,-485.084 435.475,-482.207"/>
</g>
<!-- Node_12 -->
<g id="node13" class="node"><title>Node_12</title>
<path fill="lightblue" stroke="lightblue" d="M304,-365.5C304,-365.5 353,-365.5 353,-365.5 359,-365.5 365,-371.5 365,-377.5 365,-377.5 365,-389.5 365,-389.5 365,-395.5 359,-401.5 353,-401.5 353,-401.5 304,-401.5 304,-401.5 298,-401.5 292,-395.5 292,-389.5 292,-389.5 292,-377.5 292,-377.5 292,-371.5 298,-365.5 304,-365.5"/>
<text text-anchor="middle" x="328.5" y="-381.3" font-family="Arial" font-size="9.00">if (i_1 &gt;= a_5)</text>
</g>
<!-- Node_1&#45;&gt;Node_12 -->
<g id="edge13" class="edge"><title>Node_1&#45;&gt;Node_12</title>
<path fill="none" stroke="tan" d="M398.229,-438.313C386.364,-429.156 371.597,-417.76 358.712,-407.816"/>
<polygon fill="tan" stroke="tan" points="360.621,-404.868 350.566,-401.529 356.344,-410.409 360.621,-404.868"/>
</g>
<!-- Node_14 -->
<g id="node15" class="node"><title>Node_14</title>
<path fill="lightblue" stroke="lightblue" d="M398.5,-365.5C398.5,-365.5 442.5,-365.5 442.5,-365.5 448.5,-365.5 454.5,-371.5 454.5,-377.5 454.5,-377.5 454.5,-389.5 454.5,-389.5 454.5,-395.5 448.5,-401.5 442.5,-401.5 442.5,-401.5 398.5,-401.5 398.5,-401.5 392.5,-401.5 386.5,-395.5 386.5,-389.5 386.5,-389.5 386.5,-377.5 386.5,-377.5 386.5,-371.5 392.5,-365.5 398.5,-365.5"/>
<text text-anchor="middle" x="420.5" y="-381.3" font-family="Arial" font-size="9.00">if (i_1 &lt; a_5)</text>
</g>
<!-- Node_1&#45;&gt;Node_14 -->
<g id="edge14" class="edge"><title>Node_1&#45;&gt;Node_14</title>
<path fill="none" stroke="tan" d="M420.5,-438.313C420.5,-430.289 420.5,-420.547 420.5,-411.569"/>
<polygon fill="tan" stroke="tan" points="424,-411.529 420.5,-401.529 417,-411.529 424,-411.529"/>
</g>
<!-- Node_2 -->
<g id="node3" class="node"><title>Node_2</title>
<path fill="lightblue" stroke="lightblue" d="M297.5,-219.5C297.5,-219.5 353.5,-219.5 353.5,-219.5 359.5,-219.5 365.5,-225.5 365.5,-231.5 365.5,-231.5 365.5,-243.5 365.5,-243.5 365.5,-249.5 359.5,-255.5 353.5,-255.5 353.5,-255.5 297.5,-255.5 297.5,-255.5 291.5,-255.5 285.5,-249.5 285.5,-243.5 285.5,-243.5 285.5,-231.5 285.5,-231.5 285.5,-225.5 291.5,-219.5 297.5,-219.5"/>
<text text-anchor="middle" x="325.5" y="-235.3" font-family="Arial" font-size="9.00">_8 = i_1_f + j_7</text>
</g>
<!-- Node_3 -->
<g id="node4" class="node"><title>Node_3</title>
<path fill="moccasin" stroke="moccasin" d="M306,-146.5C306,-146.5 345,-146.5 345,-146.5 351,-146.5 357,-152.5 357,-158.5 357,-158.5 357,-170.5 357,-170.5 357,-176.5 351,-182.5 345,-182.5 345,-182.5 306,-182.5 306,-182.5 300,-182.5 294,-176.5 294,-170.5 294,-170.5 294,-158.5 294,-158.5 294,-152.5 300,-146.5 306,-146.5"/>
<text text-anchor="middle" x="325.5" y="-162.3" font-family="Arial" font-size="9.00">_8: [&#45;inf, inf]</text>
</g>
<!-- Node_2&#45;&gt;Node_3 -->
<g id="edge2" class="edge"><title>Node_2&#45;&gt;Node_3</title>
<path fill="none" stroke="steelblue" d="M325.5,-219.313C325.5,-211.289 325.5,-201.547 325.5,-192.569"/>
<polygon fill="steelblue" stroke="steelblue" points="329,-192.529 325.5,-182.529 322,-192.529 329,-192.529"/>
</g>
<!-- Node_4 -->
<g id="node5" class="node"><title>Node_4</title>
<path fill="lightblue" stroke="lightblue" d="M305,-73.5C305,-73.5 346,-73.5 346,-73.5 352,-73.5 358,-79.5 358,-85.5 358,-85.5 358,-97.5 358,-97.5 358,-103.5 352,-109.5 346,-109.5 346,-109.5 305,-109.5 305,-109.5 299,-109.5 293,-103.5 293,-97.5 293,-97.5 293,-85.5 293,-85.5 293,-79.5 299,-73.5 305,-73.5"/>
<text text-anchor="middle" x="325.5" y="-89.3" font-family="Arial" font-size="9.00">if (_8 &lt; b_9)</text>
</g>
<!-- Node_3&#45;&gt;Node_4 -->
<g id="edge21" class="edge"><title>Node_3&#45;&gt;Node_4</title>
<path fill="none" stroke="tan" d="M325.5,-146.313C325.5,-138.289 325.5,-128.547 325.5,-119.569"/>
<polygon fill="tan" stroke="tan" points="329,-119.529 325.5,-109.529 322,-119.529 329,-119.529"/>
</g>
<!-- Node_5 -->
<g id="node6" class="node"><title>Node_5</title>
<path fill="moccasin" stroke="moccasin" d="M302,-0.5C302,-0.5 349,-0.5 349,-0.5 355,-0.5 361,-6.5 361,-12.5 361,-12.5 361,-24.5 361,-24.5 361,-30.5 355,-36.5 349,-36.5 349,-36.5 302,-36.5 302,-36.5 296,-36.5 290,-30.5 290,-24.5 290,-24.5 290,-12.5 290,-12.5 290,-6.5 296,-0.5 302,-0.5"/>
<text text-anchor="middle" x="325.5" y="-16.3" font-family="Arial" font-size="9.00">_8_t: [&#45;inf, inf]</text>
</g>
<!-- Node_4&#45;&gt;Node_5 -->
<g id="edge3" class="edge"><title>Node_4&#45;&gt;Node_5</title>
<path fill="none" stroke="steelblue" d="M325.5,-73.3129C325.5,-65.2895 325.5,-55.5475 325.5,-46.5691"/>
<polygon fill="steelblue" stroke="steelblue" points="329,-46.5288 325.5,-36.5288 322,-46.5289 329,-46.5288"/>
</g>
<!-- Node_6 -->
<g id="node7" class="node"><title>Node_6</title>
<path fill="lightblue" stroke="lightblue" d="M395.5,-219.5C395.5,-219.5 445.5,-219.5 445.5,-219.5 451.5,-219.5 457.5,-225.5 457.5,-231.5 457.5,-231.5 457.5,-243.5 457.5,-243.5 457.5,-249.5 451.5,-255.5 445.5,-255.5 445.5,-255.5 395.5,-255.5 395.5,-255.5 389.5,-255.5 383.5,-249.5 383.5,-243.5 383.5,-243.5 383.5,-231.5 383.5,-231.5 383.5,-225.5 389.5,-219.5 395.5,-219.5"/>
<text text-anchor="middle" x="420.5" y="-235.3" font-family="Arial" font-size="9.00">i_6 = i_1_t + 1</text>
</g>
<!-- Node_7 -->
<g id="node8" class="node"><title>Node_7</title>
<path fill="moccasin" stroke="moccasin" d="M432,-146.5C432,-146.5 473,-146.5 473,-146.5 479,-146.5 485,-152.5 485,-158.5 485,-158.5 485,-170.5 485,-170.5 485,-176.5 479,-182.5 473,-182.5 473,-182.5 432,-182.5 432,-182.5 426,-182.5 420,-176.5 420,-170.5 420,-170.5 420,-158.5 420,-158.5 420,-152.5 426,-146.5 432,-146.5"/>
<text text-anchor="middle" x="452.5" y="-162.3" font-family="Arial" font-size="9.00">i_6: [&#45;inf, inf]</text>
</g>
<!-- Node_6&#45;&gt;Node_7 -->
<g id="edge4" class="edge"><title>Node_6&#45;&gt;Node_7</title>
<path fill="none" stroke="steelblue" d="M428.246,-219.313C431.98,-211.028 436.54,-200.91 440.695,-191.693"/>
<polygon fill="steelblue" stroke="steelblue" points="443.907,-193.084 444.825,-182.529 437.525,-190.207 443.907,-193.084"/>
</g>
<!-- Node_7&#45;&gt;Node_0 -->
<g id="edge25" class="edge"><title>Node_7&#45;&gt;Node_0</title>
<path fill="none" stroke="tan" d="M459.02,-182.5C468.637,-209.148 485.5,-262.564 485.5,-309.5 485.5,-384.5 485.5,-384.5 485.5,-384.5 485.5,-426.302 472.124,-473.245 462.404,-501.839"/>
<polygon fill="tan" stroke="tan" points="459.023,-500.905 459.02,-511.5 465.629,-503.219 459.023,-500.905"/>
</g>
<!-- Node_8 -->
<g id="node9" class="node"><title>Node_8</title>
<path fill="lightblue" stroke="lightblue" d="M96,-73.5C96,-73.5 139,-73.5 139,-73.5 145,-73.5 151,-79.5 151,-85.5 151,-85.5 151,-97.5 151,-97.5 151,-103.5 145,-109.5 139,-109.5 139,-109.5 96,-109.5 96,-109.5 90,-109.5 84,-103.5 84,-97.5 84,-97.5 84,-85.5 84,-85.5 84,-79.5 90,-73.5 96,-73.5"/>
<text text-anchor="middle" x="117.5" y="-89.3" font-family="Arial" font-size="9.00">j_7 = j_2 + 1</text>
</g>
<!-- Node_9 -->
<g id="node10" class="node"><title>Node_9</title>
<path fill="moccasin" stroke="moccasin" d="M170,-292.5C170,-292.5 211,-292.5 211,-292.5 217,-292.5 223,-298.5 223,-304.5 223,-304.5 223,-316.5 223,-316.5 223,-322.5 217,-328.5 211,-328.5 211,-328.5 170,-328.5 170,-328.5 164,-328.5 158,-322.5 158,-316.5 158,-316.5 158,-304.5 158,-304.5 158,-298.5 164,-292.5 170,-292.5"/>
<text text-anchor="middle" x="190.5" y="-308.3" font-family="Arial" font-size="9.00">j_7: [&#45;inf, inf]</text>
</g>
<!-- Node_8&#45;&gt;Node_9 -->
<g id="edge5" class="edge"><title>Node_8&#45;&gt;Node_9</title>
<path fill="none" stroke="steelblue" d="M123.303,-109.749C136.001,-147.495 166.328,-237.645 181.514,-282.788"/>
<polygon fill="steelblue" stroke="steelblue" points="178.266,-284.11 184.772,-292.472 184.901,-281.878 178.266,-284.11"/>
</g>
<!-- Node_9&#45;&gt;Node_2 -->
<g id="edge16" class="edge"><title>Node_9&#45;&gt;Node_2</title>
<path fill="none" stroke="tan" d="M222.836,-292.494C241.152,-282.861 264.262,-270.707 283.915,-260.37"/>
<polygon fill="tan" stroke="tan" points="285.739,-263.366 292.96,-255.614 282.48,-257.171 285.739,-263.366"/>
</g>
<!-- Node_10 -->
<g id="node11" class="node"><title>Node_10</title>
<path fill="lightblue" stroke="lightblue" d="M196,-219.5C196,-219.5 255,-219.5 255,-219.5 261,-219.5 267,-225.5 267,-231.5 267,-231.5 267,-243.5 267,-243.5 267,-249.5 261,-255.5 255,-255.5 255,-255.5 196,-255.5 196,-255.5 190,-255.5 184,-249.5 184,-243.5 184,-243.5 184,-231.5 184,-231.5 184,-225.5 190,-219.5 196,-219.5"/>
<text text-anchor="middle" x="225.5" y="-235.3" font-family="Arial" font-size="9.00">_10 = j_7 &#45; i_1_f</text>
</g>
<!-- Node_9&#45;&gt;Node_10 -->
<g id="edge17" class="edge"><title>Node_9&#45;&gt;Node_10</title>
<path fill="none" stroke="tan" d="M198.973,-292.313C203.057,-284.028 208.044,-273.91 212.588,-264.693"/>
<polygon fill="tan" stroke="tan" points="215.823,-266.046 217.105,-255.529 209.545,-262.951 215.823,-266.046"/>
</g>
<!-- Node_18 -->
<g id="node19" class="node"><title>Node_18</title>
<path fill="lightblue" stroke="lightblue" d="M12,-219.5C12,-219.5 115,-219.5 115,-219.5 121,-219.5 127,-225.5 127,-231.5 127,-231.5 127,-243.5 127,-243.5 127,-249.5 121,-255.5 115,-255.5 115,-255.5 12,-255.5 12,-255.5 6,-255.5 0,-249.5 0,-243.5 0,-243.5 0,-231.5 0,-231.5 0,-225.5 6,-219.5 12,-219.5"/>
<text text-anchor="middle" x="63.5" y="-235.3" font-family="Arial" font-size="9.00"># j_2 = PHI &lt;j_4(4), j_7(5)&gt;</text>
</g>
<!-- Node_9&#45;&gt;Node_18 -->
<g id="edge18" class="edge"><title>Node_9&#45;&gt;Node_18</title>
<path fill="none" stroke="tan" d="M160.08,-292.494C142.927,-282.904 121.306,-270.817 102.872,-260.511"/>
<polygon fill="tan" stroke="tan" points="104.548,-257.438 94.1116,-255.614 101.132,-263.548 104.548,-257.438"/>
</g>
<!-- Node_11 -->
<g id="node12" class="node"><title>Node_11</title>
<path fill="moccasin" stroke="moccasin" d="M203.5,-146.5C203.5,-146.5 247.5,-146.5 247.5,-146.5 253.5,-146.5 259.5,-152.5 259.5,-158.5 259.5,-158.5 259.5,-170.5 259.5,-170.5 259.5,-176.5 253.5,-182.5 247.5,-182.5 247.5,-182.5 203.5,-182.5 203.5,-182.5 197.5,-182.5 191.5,-176.5 191.5,-170.5 191.5,-170.5 191.5,-158.5 191.5,-158.5 191.5,-152.5 197.5,-146.5 203.5,-146.5"/>
<text text-anchor="middle" x="225.5" y="-162.3" font-family="Arial" font-size="9.00">_10: [&#45;inf, inf]</text>
</g>
<!-- Node_10&#45;&gt;Node_11 -->
<g id="edge6" class="edge"><title>Node_10&#45;&gt;Node_11</title>
<path fill="none" stroke="steelblue" d="M225.5,-219.313C225.5,-211.289 225.5,-201.547 225.5,-192.569"/>
<polygon fill="steelblue" stroke="steelblue" points="229,-192.529 225.5,-182.529 222,-192.529 229,-192.529"/>
</g>
<!-- Node_13 -->
<g id="node14" class="node"><title>Node_13</title>
<path fill="moccasin" stroke="moccasin" d="M301,-292.5C301,-292.5 350,-292.5 350,-292.5 356,-292.5 362,-298.5 362,-304.5 362,-304.5 362,-316.5 362,-316.5 362,-322.5 356,-328.5 350,-328.5 350,-328.5 301,-328.5 301,-328.5 295,-328.5 289,-322.5 289,-316.5 289,-316.5 289,-304.5 289,-304.5 289,-298.5 295,-292.5 301,-292.5"/>
<text text-anchor="middle" x="325.5" y="-308.3" font-family="Arial" font-size="9.00">i_1_f: [&#45;inf, inf]</text>
</g>
<!-- Node_12&#45;&gt;Node_13 -->
<g id="edge7" class="edge"><title>Node_12&#45;&gt;Node_13</title>
<path fill="none" stroke="steelblue" d="M327.774,-365.313C327.435,-357.289 327.023,-347.547 326.644,-338.569"/>
<polygon fill="steelblue" stroke="steelblue" points="330.139,-338.372 326.22,-328.529 323.145,-338.668 330.139,-338.372"/>
</g>
<!-- Node_13&#45;&gt;Node_2 -->
<g id="edge23" class="edge"><title>Node_13&#45;&gt;Node_2</title>
<path fill="none" stroke="tan" d="M325.5,-292.313C325.5,-284.289 325.5,-274.547 325.5,-265.569"/>
<polygon fill="tan" stroke="tan" points="329,-265.529 325.5,-255.529 322,-265.529 329,-265.529"/>
</g>
<!-- Node_13&#45;&gt;Node_10 -->
<g id="edge24" class="edge"><title>Node_13&#45;&gt;Node_10</title>
<path fill="none" stroke="tan" d="M301.548,-292.494C288.532,-283.253 272.25,-271.692 258.094,-261.642"/>
<polygon fill="tan" stroke="tan" points="259.784,-258.549 249.604,-255.614 255.731,-264.257 259.784,-258.549"/>
</g>
<!-- Node_15 -->
<g id="node16" class="node"><title>Node_15</title>
<path fill="moccasin" stroke="moccasin" d="M396,-292.5C396,-292.5 445,-292.5 445,-292.5 451,-292.5 457,-298.5 457,-304.5 457,-304.5 457,-316.5 457,-316.5 457,-322.5 451,-328.5 445,-328.5 445,-328.5 396,-328.5 396,-328.5 390,-328.5 384,-322.5 384,-316.5 384,-316.5 384,-304.5 384,-304.5 384,-298.5 390,-292.5 396,-292.5"/>
<text text-anchor="middle" x="420.5" y="-308.3" font-family="Arial" font-size="9.00">i_1_t: [&#45;inf, inf]</text>
</g>
<!-- Node_14&#45;&gt;Node_15 -->
<g id="edge8" class="edge"><title>Node_14&#45;&gt;Node_15</title>
<path fill="none" stroke="steelblue" d="M420.5,-365.313C420.5,-357.289 420.5,-347.547 420.5,-338.569"/>
<polygon fill="steelblue" stroke="steelblue" points="424,-338.529 420.5,-328.529 417,-338.529 424,-338.529"/>
</g>
<!-- Node_15&#45;&gt;Node_6 -->
<g id="edge19" class="edge"><title>Node_15&#45;&gt;Node_6</title>
<path fill="none" stroke="tan" d="M420.5,-292.313C420.5,-284.289 420.5,-274.547 420.5,-265.569"/>
<polygon fill="tan" stroke="tan" points="424,-265.529 420.5,-255.529 417,-265.529 424,-265.529"/>
</g>
<!-- Node_16 -->
<g id="node17" class="node"><title>Node_16</title>
<path fill="lightblue" stroke="lightblue" d="M48.5,-365.5C48.5,-365.5 78.5,-365.5 78.5,-365.5 84.5,-365.5 90.5,-371.5 90.5,-377.5 90.5,-377.5 90.5,-389.5 90.5,-389.5 90.5,-395.5 84.5,-401.5 78.5,-401.5 78.5,-401.5 48.5,-401.5 48.5,-401.5 42.5,-401.5 36.5,-395.5 36.5,-389.5 36.5,-389.5 36.5,-377.5 36.5,-377.5 36.5,-371.5 42.5,-365.5 48.5,-365.5"/>
<text text-anchor="middle" x="63.5" y="-381.3" font-family="Arial" font-size="9.00">j_4 = 0</text>
</g>
<!-- Node_17 -->
<g id="node18" class="node"><title>Node_17</title>
<path fill="moccasin" stroke="moccasin" d="M43,-292.5C43,-292.5 84,-292.5 84,-292.5 90,-292.5 96,-298.5 96,-304.5 96,-304.5 96,-316.5 96,-316.5 96,-322.5 90,-328.5 84,-328.5 84,-328.5 43,-328.5 43,-328.5 37,-328.5 31,-322.5 31,-316.5 31,-316.5 31,-304.5 31,-304.5 31,-298.5 37,-292.5 43,-292.5"/>
<text text-anchor="middle" x="63.5" y="-308.3" font-family="Arial" font-size="9.00">j_4: [&#45;inf, inf]</text>
</g>
<!-- Node_16&#45;&gt;Node_17 -->
<g id="edge9" class="edge"><title>Node_16&#45;&gt;Node_17</title>
<path fill="none" stroke="steelblue" d="M63.5,-365.313C63.5,-357.289 63.5,-347.547 63.5,-338.569"/>
<polygon fill="steelblue" stroke="steelblue" points="67.0001,-338.529 63.5,-328.529 60.0001,-338.529 67.0001,-338.529"/>
</g>
<!-- Node_17&#45;&gt;Node_18 -->
<g id="edge22" class="edge"><title>Node_17&#45;&gt;Node_18</title>
<path fill="none" stroke="tan" d="M63.5,-292.313C63.5,-284.289 63.5,-274.547 63.5,-265.569"/>
<polygon fill="tan" stroke="tan" points="67.0001,-265.529 63.5,-255.529 60.0001,-265.529 67.0001,-265.529"/>
</g>
<!-- Node_19 -->
<g id="node20" class="node"><title>Node_19</title>
<path fill="moccasin" stroke="moccasin" d="M59,-146.5C59,-146.5 100,-146.5 100,-146.5 106,-146.5 112,-152.5 112,-158.5 112,-158.5 112,-170.5 112,-170.5 112,-176.5 106,-182.5 100,-182.5 100,-182.5 59,-182.5 59,-182.5 53,-182.5 47,-176.5 47,-170.5 47,-170.5 47,-158.5 47,-158.5 47,-152.5 53,-146.5 59,-146.5"/>
<text text-anchor="middle" x="79.5" y="-162.3" font-family="Arial" font-size="9.00">j_2: [&#45;inf, inf]</text>
</g>
<!-- Node_18&#45;&gt;Node_19 -->
<g id="edge10" class="edge"><title>Node_18&#45;&gt;Node_19</title>
<path fill="none" stroke="steelblue" d="M67.3732,-219.313C69.1812,-211.289 71.3766,-201.547 73.3999,-192.569"/>
<polygon fill="steelblue" stroke="steelblue" points="76.8784,-193.054 75.6625,-182.529 70.0497,-191.515 76.8784,-193.054"/>
</g>
<!-- Node_19&#45;&gt;Node_8 -->
<g id="edge20" class="edge"><title>Node_19&#45;&gt;Node_8</title>
<path fill="none" stroke="tan" d="M88.6987,-146.313C93.1797,-137.941 98.6621,-127.697 103.637,-118.403"/>
<polygon fill="tan" stroke="tan" points="106.753,-119.997 108.386,-109.529 100.581,-116.694 106.753,-119.997"/>
</g>
<!-- Node_20 -->
<g id="node21" class="node"><title>Node_20</title>
<path fill="lightblue" stroke="lightblue" d="M437.5,-657.5C437.5,-657.5 467.5,-657.5 467.5,-657.5 473.5,-657.5 479.5,-663.5 479.5,-669.5 479.5,-669.5 479.5,-681.5 479.5,-681.5 479.5,-687.5 473.5,-693.5 467.5,-693.5 467.5,-693.5 437.5,-693.5 437.5,-693.5 431.5,-693.5 425.5,-687.5 425.5,-681.5 425.5,-681.5 425.5,-669.5 425.5,-669.5 425.5,-663.5 431.5,-657.5 437.5,-657.5"/>
<text text-anchor="middle" x="452.5" y="-673.3" font-family="Arial" font-size="9.00">i_3 = 0</text>
</g>
<!-- Node_21 -->
<g id="node22" class="node"><title>Node_21</title>
<path fill="moccasin" stroke="moccasin" d="M432,-584.5C432,-584.5 473,-584.5 473,-584.5 479,-584.5 485,-590.5 485,-596.5 485,-596.5 485,-608.5 485,-608.5 485,-614.5 479,-620.5 473,-620.5 473,-620.5 432,-620.5 432,-620.5 426,-620.5 420,-614.5 420,-608.5 420,-608.5 420,-596.5 420,-596.5 420,-590.5 426,-584.5 432,-584.5"/>
<text text-anchor="middle" x="452.5" y="-600.3" font-family="Arial" font-size="9.00">i_3: [&#45;inf, inf]</text>
</g>
<!-- Node_20&#45;&gt;Node_21 -->
<g id="edge11" class="edge"><title>Node_20&#45;&gt;Node_21</title>
<path fill="none" stroke="steelblue" d="M452.5,-657.313C452.5,-649.289 452.5,-639.547 452.5,-630.569"/>
<polygon fill="steelblue" stroke="steelblue" points="456,-630.529 452.5,-620.529 449,-630.529 456,-630.529"/>
</g>
<!-- Node_21&#45;&gt;Node_0 -->
<g id="edge15" class="edge"><title>Node_21&#45;&gt;Node_0</title>
<path fill="none" stroke="tan" d="M452.5,-584.313C452.5,-576.289 452.5,-566.547 452.5,-557.569"/>
<polygon fill="tan" stroke="tan" points="456,-557.529 452.5,-547.529 449,-557.529 456,-557.529"/>
</g>
<!-- Node_22 -->
<g id="node23" class="node"><title>Node_22</title>
<path fill="lightblue" stroke="lightblue" d="M552,-584.5C552,-584.5 593,-584.5 593,-584.5 599,-584.5 605,-590.5 605,-596.5 605,-596.5 605,-608.5 605,-608.5 605,-614.5 599,-620.5 593,-620.5 593,-620.5 552,-620.5 552,-620.5 546,-620.5 540,-614.5 540,-608.5 540,-608.5 540,-596.5 540,-596.5 540,-590.5 546,-584.5 552,-584.5"/>
<text text-anchor="middle" x="572.5" y="-600.3" font-family="Arial" font-size="9.00">if (b_9 &gt; _8)</text>
</g>
<!-- Node_23 -->
<g id="node24" class="node"><title>Node_23</title>
<path fill="moccasin" stroke="moccasin" d="M546.5,-511.5C546.5,-511.5 598.5,-511.5 598.5,-511.5 604.5,-511.5 610.5,-517.5 610.5,-523.5 610.5,-523.5 610.5,-535.5 610.5,-535.5 610.5,-541.5 604.5,-547.5 598.5,-547.5 598.5,-547.5 546.5,-547.5 546.5,-547.5 540.5,-547.5 534.5,-541.5 534.5,-535.5 534.5,-535.5 534.5,-523.5 534.5,-523.5 534.5,-517.5 540.5,-511.5 546.5,-511.5"/>
<text text-anchor="middle" x="572.5" y="-527.3" font-family="Arial" font-size="9.00">b_9_t: [&#45;inf, inf]</text>
</g>
<!-- Node_22&#45;&gt;Node_23 -->
<g id="edge12" class="edge"><title>Node_22&#45;&gt;Node_23</title>
<path fill="none" stroke="steelblue" d="M572.5,-584.313C572.5,-576.289 572.5,-566.547 572.5,-557.569"/>
<polygon fill="steelblue" stroke="steelblue" points="576,-557.529 572.5,-547.529 569,-557.529 576,-557.529"/>
</g>
<!-- Node_24 -->
<g id="node25" class="node"><title>Node_24</title>
<path fill="moccasin" stroke="moccasin" d="M550.5,-657.5C550.5,-657.5 594.5,-657.5 594.5,-657.5 600.5,-657.5 606.5,-663.5 606.5,-669.5 606.5,-669.5 606.5,-681.5 606.5,-681.5 606.5,-687.5 600.5,-693.5 594.5,-693.5 594.5,-693.5 550.5,-693.5 550.5,-693.5 544.5,-693.5 538.5,-687.5 538.5,-681.5 538.5,-681.5 538.5,-669.5 538.5,-669.5 538.5,-663.5 544.5,-657.5 550.5,-657.5"/>
<text text-anchor="middle" x="572.5" y="-673.3" font-family="Arial" font-size="9.00">b_9: [&#45;inf, inf]</text>
</g>
<!-- Node_24&#45;&gt;Node_22 -->
<g id="edge26" class="edge"><title>Node_24&#45;&gt;Node_22</title>
<path fill="none" stroke="tan" d="M572.5,-657.313C572.5,-649.289 572.5,-639.547 572.5,-630.569"/>
<polygon fill="tan" stroke="tan" points="576,-630.529 572.5,-620.529 569,-630.529 576,-630.529"/>
</g>
</g>
</svg>
