<?xml version="1.0" encoding="UTF-8" standalone="no"?>
<!DOCTYPE svg PUBLIC "-//W3C//DTD SVG 1.1//EN"
 "http://www.w3.org/Graphics/SVG/1.1/DTD/svg11.dtd">
<!-- Generated by graphviz version 2.38.0 (20140413.2041)
 -->
<!-- Title: t1_foo_ConstraintGraph Pages: 1 -->
<svg width="619pt" height="629pt"
     viewBox="0.00 0.00 619.00 629.00" xmlns="http://www.w3.org/2000/svg">
<g id="graph0" class="graph" transform="scale(1 1) rotate(0) translate(4 625)">
<title>t1_foo_ConstraintGraph</title>
<polygon fill="white" stroke="none" points="-4,4 -4,-625 615,-625 615,4 -4,4"/>
<!-- Node_0 -->
<g id="node1" class="node"><title>Node_0</title>
<path fill="lightblue" stroke="lightblue" d="M118,-511.5C118,-511.5 171,-511.5 171,-511.5 177,-511.5 183,-517.5 183,-523.5 183,-523.5 183,-535.5 183,-535.5 183,-541.5 177,-547.5 171,-547.5 171,-547.5 118,-547.5 118,-547.5 112,-547.5 106,-541.5 106,-535.5 106,-535.5 106,-523.5 106,-523.5 106,-517.5 112,-511.5 118,-511.5"/>
<text text-anchor="middle" x="144.5" y="-527.3" font-family="Arial" font-size="9.00">j_8 = j_3_t + &#45;1</text>
</g>
<!-- Node_1 -->
<g id="node2" class="node"><title>Node_1</title>
<path fill="moccasin" stroke="moccasin" d="M95,-438.5C95,-438.5 136,-438.5 136,-438.5 142,-438.5 148,-444.5 148,-450.5 148,-450.5 148,-462.5 148,-462.5 148,-468.5 142,-474.5 136,-474.5 136,-474.5 95,-474.5 95,-474.5 89,-474.5 83,-468.5 83,-462.5 83,-462.5 83,-450.5 83,-450.5 83,-444.5 89,-438.5 95,-438.5"/>
<text text-anchor="middle" x="115.5" y="-454.3" font-family="Arial" font-size="9.00">j_8: [&#45;inf, inf]</text>
</g>
<!-- Node_0&#45;&gt;Node_1 -->
<g id="edge1" class="edge"><title>Node_0&#45;&gt;Node_1</title>
<path fill="none" stroke="steelblue" d="M137.48,-511.313C134.132,-503.115 130.05,-493.123 126.318,-483.985"/>
<polygon fill="steelblue" stroke="steelblue" points="129.477,-482.463 122.455,-474.529 122.997,-485.11 129.477,-482.463"/>
</g>
<!-- Node_10 -->
<g id="node11" class="node"><title>Node_10</title>
<path fill="lightblue" stroke="lightblue" d="M33,-365.5C33,-365.5 136,-365.5 136,-365.5 142,-365.5 148,-371.5 148,-377.5 148,-377.5 148,-389.5 148,-389.5 148,-395.5 142,-401.5 136,-401.5 136,-401.5 33,-401.5 33,-401.5 27,-401.5 21,-395.5 21,-389.5 21,-389.5 21,-377.5 21,-377.5 21,-371.5 27,-365.5 33,-365.5"/>
<text text-anchor="middle" x="84.5" y="-381.3" font-family="Arial" font-size="9.00"># j_3 = PHI &lt;j_6(3), j_8(4)&gt;</text>
</g>
<!-- Node_1&#45;&gt;Node_10 -->
<g id="edge21" class="edge"><title>Node_1&#45;&gt;Node_10</title>
<path fill="none" stroke="tan" d="M107.996,-438.313C104.416,-430.115 100.054,-420.123 96.0637,-410.985"/>
<polygon fill="tan" stroke="tan" points="99.1442,-409.293 91.9351,-401.529 92.729,-412.094 99.1442,-409.293"/>
</g>
<!-- Node_2 -->
<g id="node3" class="node"><title>Node_2</title>
<path fill="lightblue" stroke="lightblue" d="M357.5,-511.5C357.5,-511.5 387.5,-511.5 387.5,-511.5 393.5,-511.5 399.5,-517.5 399.5,-523.5 399.5,-523.5 399.5,-535.5 399.5,-535.5 399.5,-541.5 393.5,-547.5 387.5,-547.5 387.5,-547.5 357.5,-547.5 357.5,-547.5 351.5,-547.5 345.5,-541.5 345.5,-535.5 345.5,-535.5 345.5,-523.5 345.5,-523.5 345.5,-517.5 351.5,-511.5 357.5,-511.5"/>
<text text-anchor="middle" x="372.5" y="-527.3" font-family="Arial" font-size="9.00">k_4 = 0</text>
</g>
<!-- Node_3 -->
<g id="node4" class="node"><title>Node_3</title>
<path fill="moccasin" stroke="moccasin" d="M350.5,-438.5C350.5,-438.5 394.5,-438.5 394.5,-438.5 400.5,-438.5 406.5,-444.5 406.5,-450.5 406.5,-450.5 406.5,-462.5 406.5,-462.5 406.5,-468.5 400.5,-474.5 394.5,-474.5 394.5,-474.5 350.5,-474.5 350.5,-474.5 344.5,-474.5 338.5,-468.5 338.5,-462.5 338.5,-462.5 338.5,-450.5 338.5,-450.5 338.5,-444.5 344.5,-438.5 350.5,-438.5"/>
<text text-anchor="middle" x="372.5" y="-454.3" font-family="Arial" font-size="9.00">k_4: [&#45;inf, inf]</text>
</g>
<!-- Node_2&#45;&gt;Node_3 -->
<g id="edge2" class="edge"><title>Node_2&#45;&gt;Node_3</title>
<path fill="none" stroke="steelblue" d="M372.5,-511.313C372.5,-503.289 372.5,-493.547 372.5,-484.569"/>
<polygon fill="steelblue" stroke="steelblue" points="376,-484.529 372.5,-474.529 369,-484.529 376,-484.529"/>
</g>
<!-- Node_26 -->
<g id="node27" class="node"><title>Node_26</title>
<path fill="lightblue" stroke="lightblue" d="M262.5,-365.5C262.5,-365.5 372.5,-365.5 372.5,-365.5 378.5,-365.5 384.5,-371.5 384.5,-377.5 384.5,-377.5 384.5,-389.5 384.5,-389.5 384.5,-395.5 378.5,-401.5 372.5,-401.5 372.5,-401.5 262.5,-401.5 262.5,-401.5 256.5,-401.5 250.5,-395.5 250.5,-389.5 250.5,-389.5 250.5,-377.5 250.5,-377.5 250.5,-371.5 256.5,-365.5 262.5,-365.5"/>
<text text-anchor="middle" x="317.5" y="-381.3" font-family="Arial" font-size="9.00"># k_1 = PHI &lt;k_4(2), k_9(6)&gt;</text>
</g>
<!-- Node_3&#45;&gt;Node_26 -->
<g id="edge26" class="edge"><title>Node_3&#45;&gt;Node_26</title>
<path fill="none" stroke="tan" d="M359.186,-438.313C352.498,-429.679 344.268,-419.055 336.893,-409.534"/>
<polygon fill="tan" stroke="tan" points="339.582,-407.291 330.691,-401.529 334.048,-411.578 339.582,-407.291"/>
</g>
<!-- Node_4 -->
<g id="node5" class="node"><title>Node_4</title>
<path fill="lightblue" stroke="lightblue" d="M439.5,-584.5C439.5,-584.5 489.5,-584.5 489.5,-584.5 495.5,-584.5 501.5,-590.5 501.5,-596.5 501.5,-596.5 501.5,-608.5 501.5,-608.5 501.5,-614.5 495.5,-620.5 489.5,-620.5 489.5,-620.5 439.5,-620.5 439.5,-620.5 433.5,-620.5 427.5,-614.5 427.5,-608.5 427.5,-608.5 427.5,-596.5 427.5,-596.5 427.5,-590.5 433.5,-584.5 439.5,-584.5"/>
<text text-anchor="middle" x="464.5" y="-600.3" font-family="Arial" font-size="9.00">i_7 = i_2_t + 1</text>
</g>
<!-- Node_5 -->
<g id="node6" class="node"><title>Node_5</title>
<path fill="moccasin" stroke="moccasin" d="M475,-511.5C475,-511.5 516,-511.5 516,-511.5 522,-511.5 528,-517.5 528,-523.5 528,-523.5 528,-535.5 528,-535.5 528,-541.5 522,-547.5 516,-547.5 516,-547.5 475,-547.5 475,-547.5 469,-547.5 463,-541.5 463,-535.5 463,-535.5 463,-523.5 463,-523.5 463,-517.5 469,-511.5 475,-511.5"/>
<text text-anchor="middle" x="495.5" y="-527.3" font-family="Arial" font-size="9.00">i_7: [&#45;inf, inf]</text>
</g>
<!-- Node_4&#45;&gt;Node_5 -->
<g id="edge3" class="edge"><title>Node_4&#45;&gt;Node_5</title>
<path fill="none" stroke="steelblue" d="M472.004,-584.313C475.584,-576.115 479.946,-566.123 483.936,-556.985"/>
<polygon fill="steelblue" stroke="steelblue" points="487.271,-558.094 488.065,-547.529 480.856,-555.293 487.271,-558.094"/>
</g>
<!-- Node_16 -->
<g id="node17" class="node"><title>Node_16</title>
<path fill="lightblue" stroke="lightblue" d="M475,-438.5C475,-438.5 578,-438.5 578,-438.5 584,-438.5 590,-444.5 590,-450.5 590,-450.5 590,-462.5 590,-462.5 590,-468.5 584,-474.5 578,-474.5 578,-474.5 475,-474.5 475,-474.5 469,-474.5 463,-468.5 463,-462.5 463,-462.5 463,-450.5 463,-450.5 463,-444.5 469,-438.5 475,-438.5"/>
<text text-anchor="middle" x="526.5" y="-454.3" font-family="Arial" font-size="9.00"># i_2 = PHI &lt;i_5(3), i_7(4)&gt;</text>
</g>
<!-- Node_5&#45;&gt;Node_16 -->
<g id="edge17" class="edge"><title>Node_5&#45;&gt;Node_16</title>
<path fill="none" stroke="tan" d="M503.004,-511.313C506.584,-503.115 510.946,-493.123 514.936,-483.985"/>
<polygon fill="tan" stroke="tan" points="518.271,-485.094 519.065,-474.529 511.856,-482.293 518.271,-485.094"/>
</g>
<!-- Node_6 -->
<g id="node7" class="node"><title>Node_6</title>
<path fill="lightblue" stroke="lightblue" d="M490,-292.5C490,-292.5 531,-292.5 531,-292.5 537,-292.5 543,-298.5 543,-304.5 543,-304.5 543,-316.5 543,-316.5 543,-322.5 537,-328.5 531,-328.5 531,-328.5 490,-328.5 490,-328.5 484,-328.5 478,-322.5 478,-316.5 478,-316.5 478,-304.5 478,-304.5 478,-298.5 484,-292.5 490,-292.5"/>
<text text-anchor="middle" x="510.5" y="-308.3" font-family="Arial" font-size="9.00">if (i_2 &lt; j_3)</text>
</g>
<!-- Node_7 -->
<g id="node8" class="node"><title>Node_7</title>
<path fill="moccasin" stroke="moccasin" d="M440,-219.5C440,-219.5 489,-219.5 489,-219.5 495,-219.5 501,-225.5 501,-231.5 501,-231.5 501,-243.5 501,-243.5 501,-249.5 495,-255.5 489,-255.5 489,-255.5 440,-255.5 440,-255.5 434,-255.5 428,-249.5 428,-243.5 428,-243.5 428,-231.5 428,-231.5 428,-225.5 434,-219.5 440,-219.5"/>
<text text-anchor="middle" x="464.5" y="-235.3" font-family="Arial" font-size="9.00">i_2_t: [&#45;inf, inf]</text>
</g>
<!-- Node_6&#45;&gt;Node_7 -->
<g id="edge4" class="edge"><title>Node_6&#45;&gt;Node_7</title>
<path fill="none" stroke="steelblue" d="M499.365,-292.313C493.884,-283.853 487.165,-273.484 481.094,-264.112"/>
<polygon fill="steelblue" stroke="steelblue" points="483.908,-262.018 475.533,-255.529 478.033,-265.824 483.908,-262.018"/>
</g>
<!-- Node_7&#45;&gt;Node_4 -->
<g id="edge16" class="edge"><title>Node_7&#45;&gt;Node_4</title>
<path fill="none" stroke="tan" d="M458.573,-255.55C449.83,-282.264 434.5,-335.768 434.5,-382.5 434.5,-457.5 434.5,-457.5 434.5,-457.5 434.5,-499.121 446.66,-546.113 455.496,-574.767"/>
<polygon fill="tan" stroke="tan" points="452.209,-575.98 458.573,-584.45 458.881,-573.86 452.209,-575.98"/>
</g>
<!-- Node_8 -->
<g id="node9" class="node"><title>Node_8</title>
<path fill="lightblue" stroke="lightblue" d="M216.5,-219.5C216.5,-219.5 262.5,-219.5 262.5,-219.5 268.5,-219.5 274.5,-225.5 274.5,-231.5 274.5,-231.5 274.5,-243.5 274.5,-243.5 274.5,-249.5 268.5,-255.5 262.5,-255.5 262.5,-255.5 216.5,-255.5 216.5,-255.5 210.5,-255.5 204.5,-249.5 204.5,-243.5 204.5,-243.5 204.5,-231.5 204.5,-231.5 204.5,-225.5 210.5,-219.5 216.5,-219.5"/>
<text text-anchor="middle" x="239.5" y="-235.3" font-family="Arial" font-size="9.00">if (k_1 &lt;= 99)</text>
</g>
<!-- Node_9 -->
<g id="node10" class="node"><title>Node_9</title>
<path fill="moccasin" stroke="moccasin" d="M193,-584.5C193,-584.5 244,-584.5 244,-584.5 250,-584.5 256,-590.5 256,-596.5 256,-596.5 256,-608.5 256,-608.5 256,-614.5 250,-620.5 244,-620.5 244,-620.5 193,-620.5 193,-620.5 187,-620.5 181,-614.5 181,-608.5 181,-608.5 181,-596.5 181,-596.5 181,-590.5 187,-584.5 193,-584.5"/>
<text text-anchor="middle" x="218.5" y="-600.3" font-family="Arial" font-size="9.00">k_1_t: [&#45;inf, inf]</text>
</g>
<!-- Node_8&#45;&gt;Node_9 -->
<g id="edge5" class="edge"><title>Node_8&#45;&gt;Node_9</title>
<path fill="none" stroke="steelblue" d="M235.351,-255.671C229.231,-282.548 218.5,-336.266 218.5,-382.5 218.5,-457.5 218.5,-457.5 218.5,-457.5 218.5,-498.067 218.5,-545.063 218.5,-574.039"/>
<polygon fill="steelblue" stroke="steelblue" points="215,-574.211 218.5,-584.211 222,-574.211 215,-574.211"/>
</g>
<!-- Node_20 -->
<g id="node21" class="node"><title>Node_20</title>
<path fill="lightblue" stroke="lightblue" d="M259,-511.5C259,-511.5 314,-511.5 314,-511.5 320,-511.5 326,-517.5 326,-523.5 326,-523.5 326,-535.5 326,-535.5 326,-541.5 320,-547.5 314,-547.5 314,-547.5 259,-547.5 259,-547.5 253,-547.5 247,-541.5 247,-535.5 247,-535.5 247,-523.5 247,-523.5 247,-517.5 253,-511.5 259,-511.5"/>
<text text-anchor="middle" x="286.5" y="-527.3" font-family="Arial" font-size="9.00">k_9 = k_1_t + 1</text>
</g>
<!-- Node_9&#45;&gt;Node_20 -->
<g id="edge18" class="edge"><title>Node_9&#45;&gt;Node_20</title>
<path fill="none" stroke="tan" d="M234.961,-584.313C243.397,-575.505 253.817,-564.625 263.075,-554.958"/>
<polygon fill="tan" stroke="tan" points="265.802,-557.172 270.191,-547.529 260.746,-552.33 265.802,-557.172"/>
</g>
<!-- Node_22 -->
<g id="node23" class="node"><title>Node_22</title>
<path fill="lightblue" stroke="lightblue" d="M24.5,-511.5C24.5,-511.5 62.5,-511.5 62.5,-511.5 68.5,-511.5 74.5,-517.5 74.5,-523.5 74.5,-523.5 74.5,-535.5 74.5,-535.5 74.5,-541.5 68.5,-547.5 62.5,-547.5 62.5,-547.5 24.5,-547.5 24.5,-547.5 18.5,-547.5 12.5,-541.5 12.5,-535.5 12.5,-535.5 12.5,-523.5 12.5,-523.5 12.5,-517.5 18.5,-511.5 24.5,-511.5"/>
<text text-anchor="middle" x="43.5" y="-527.3" font-family="Arial" font-size="9.00">j_6 = k_1_t</text>
</g>
<!-- Node_9&#45;&gt;Node_22 -->
<g id="edge19" class="edge"><title>Node_9&#45;&gt;Node_22</title>
<path fill="none" stroke="tan" d="M180.958,-586.269C152.445,-574.701 113.288,-558.814 84.0588,-546.955"/>
<polygon fill="tan" stroke="tan" points="85.1388,-543.616 74.5565,-543.1 82.5071,-550.103 85.1388,-543.616"/>
</g>
<!-- Node_11 -->
<g id="node12" class="node"><title>Node_11</title>
<path fill="moccasin" stroke="moccasin" d="M72,-292.5C72,-292.5 113,-292.5 113,-292.5 119,-292.5 125,-298.5 125,-304.5 125,-304.5 125,-316.5 125,-316.5 125,-322.5 119,-328.5 113,-328.5 113,-328.5 72,-328.5 72,-328.5 66,-328.5 60,-322.5 60,-316.5 60,-316.5 60,-304.5 60,-304.5 60,-298.5 66,-292.5 72,-292.5"/>
<text text-anchor="middle" x="92.5" y="-308.3" font-family="Arial" font-size="9.00">j_3: [&#45;inf, inf]</text>
</g>
<!-- Node_10&#45;&gt;Node_11 -->
<g id="edge6" class="edge"><title>Node_10&#45;&gt;Node_11</title>
<path fill="none" stroke="steelblue" d="M86.4366,-365.313C87.3406,-357.289 88.4383,-347.547 89.45,-338.569"/>
<polygon fill="steelblue" stroke="steelblue" points="92.9395,-338.858 90.5813,-328.529 85.9835,-338.074 92.9395,-338.858"/>
</g>
<!-- Node_14 -->
<g id="node15" class="node"><title>Node_14</title>
<path fill="lightblue" stroke="lightblue" d="M80,-219.5C80,-219.5 121,-219.5 121,-219.5 127,-219.5 133,-225.5 133,-231.5 133,-231.5 133,-243.5 133,-243.5 133,-249.5 127,-255.5 121,-255.5 121,-255.5 80,-255.5 80,-255.5 74,-255.5 68,-249.5 68,-243.5 68,-243.5 68,-231.5 68,-231.5 68,-225.5 74,-219.5 80,-219.5"/>
<text text-anchor="middle" x="100.5" y="-235.3" font-family="Arial" font-size="9.00">if (j_3 &gt; i_2)</text>
</g>
<!-- Node_11&#45;&gt;Node_14 -->
<g id="edge24" class="edge"><title>Node_11&#45;&gt;Node_14</title>
<path fill="none" stroke="tan" d="M94.4366,-292.313C95.3406,-284.289 96.4383,-274.547 97.45,-265.569"/>
<polygon fill="tan" stroke="tan" points="100.939,-265.858 98.5813,-255.529 93.9835,-265.074 100.939,-265.858"/>
</g>
<!-- Node_12 -->
<g id="node13" class="node"><title>Node_12</title>
<path fill="lightblue" stroke="lightblue" d="M305,-219.5C305,-219.5 346,-219.5 346,-219.5 352,-219.5 358,-225.5 358,-231.5 358,-231.5 358,-243.5 358,-243.5 358,-249.5 352,-255.5 346,-255.5 346,-255.5 305,-255.5 305,-255.5 299,-255.5 293,-249.5 293,-243.5 293,-243.5 293,-231.5 293,-231.5 293,-225.5 299,-219.5 305,-219.5"/>
<text text-anchor="middle" x="325.5" y="-235.3" font-family="Arial" font-size="9.00">if (k_1 &gt; 99)</text>
</g>
<!-- Node_13 -->
<g id="node14" class="node"><title>Node_13</title>
<path fill="moccasin" stroke="moccasin" d="M300,-146.5C300,-146.5 351,-146.5 351,-146.5 357,-146.5 363,-152.5 363,-158.5 363,-158.5 363,-170.5 363,-170.5 363,-176.5 357,-182.5 351,-182.5 351,-182.5 300,-182.5 300,-182.5 294,-182.5 288,-176.5 288,-170.5 288,-170.5 288,-158.5 288,-158.5 288,-152.5 294,-146.5 300,-146.5"/>
<text text-anchor="middle" x="325.5" y="-162.3" font-family="Arial" font-size="9.00">k_1_f: [&#45;inf, inf]</text>
</g>
<!-- Node_12&#45;&gt;Node_13 -->
<g id="edge7" class="edge"><title>Node_12&#45;&gt;Node_13</title>
<path fill="none" stroke="steelblue" d="M325.5,-219.313C325.5,-211.289 325.5,-201.547 325.5,-192.569"/>
<polygon fill="steelblue" stroke="steelblue" points="329,-192.529 325.5,-182.529 322,-192.529 329,-192.529"/>
</g>
<!-- Node_18 -->
<g id="node19" class="node"><title>Node_18</title>
<path fill="lightblue" stroke="lightblue" d="M305,-73.5C305,-73.5 346,-73.5 346,-73.5 352,-73.5 358,-79.5 358,-85.5 358,-85.5 358,-97.5 358,-97.5 358,-103.5 352,-109.5 346,-109.5 346,-109.5 305,-109.5 305,-109.5 299,-109.5 293,-103.5 293,-97.5 293,-97.5 293,-85.5 293,-85.5 293,-79.5 299,-73.5 305,-73.5"/>
<text text-anchor="middle" x="325.5" y="-89.3" font-family="Arial" font-size="9.00">_10 = k_1_f</text>
</g>
<!-- Node_13&#45;&gt;Node_18 -->
<g id="edge20" class="edge"><title>Node_13&#45;&gt;Node_18</title>
<path fill="none" stroke="tan" d="M325.5,-146.313C325.5,-138.289 325.5,-128.547 325.5,-119.569"/>
<polygon fill="tan" stroke="tan" points="329,-119.529 325.5,-109.529 322,-119.529 329,-119.529"/>
</g>
<!-- Node_15 -->
<g id="node16" class="node"><title>Node_15</title>
<path fill="moccasin" stroke="moccasin" d="M114,-146.5C114,-146.5 163,-146.5 163,-146.5 169,-146.5 175,-152.5 175,-158.5 175,-158.5 175,-170.5 175,-170.5 175,-176.5 169,-182.5 163,-182.5 163,-182.5 114,-182.5 114,-182.5 108,-182.5 102,-176.5 102,-170.5 102,-170.5 102,-158.5 102,-158.5 102,-152.5 108,-146.5 114,-146.5"/>
<text text-anchor="middle" x="138.5" y="-162.3" font-family="Arial" font-size="9.00">j_3_t: [&#45;inf, inf]</text>
</g>
<!-- Node_14&#45;&gt;Node_15 -->
<g id="edge8" class="edge"><title>Node_14&#45;&gt;Node_15</title>
<path fill="none" stroke="steelblue" d="M109.699,-219.313C114.18,-210.941 119.662,-200.697 124.637,-191.403"/>
<polygon fill="steelblue" stroke="steelblue" points="127.753,-192.997 129.386,-182.529 121.581,-189.694 127.753,-192.997"/>
</g>
<!-- Node_15&#45;&gt;Node_0 -->
<g id="edge27" class="edge"><title>Node_15&#45;&gt;Node_0</title>
<path fill="none" stroke="tan" d="M146.19,-182.845C157.294,-209.513 176.5,-262.442 176.5,-309.5 176.5,-384.5 176.5,-384.5 176.5,-384.5 176.5,-426.24 163.529,-473.2 154.104,-501.814"/>
<polygon fill="tan" stroke="tan" points="150.722,-500.888 150.822,-511.483 157.351,-503.138 150.722,-500.888"/>
</g>
<!-- Node_17 -->
<g id="node18" class="node"><title>Node_17</title>
<path fill="moccasin" stroke="moccasin" d="M498,-365.5C498,-365.5 539,-365.5 539,-365.5 545,-365.5 551,-371.5 551,-377.5 551,-377.5 551,-389.5 551,-389.5 551,-395.5 545,-401.5 539,-401.5 539,-401.5 498,-401.5 498,-401.5 492,-401.5 486,-395.5 486,-389.5 486,-389.5 486,-377.5 486,-377.5 486,-371.5 492,-365.5 498,-365.5"/>
<text text-anchor="middle" x="518.5" y="-381.3" font-family="Arial" font-size="9.00">i_2: [&#45;inf, inf]</text>
</g>
<!-- Node_16&#45;&gt;Node_17 -->
<g id="edge9" class="edge"><title>Node_16&#45;&gt;Node_17</title>
<path fill="none" stroke="steelblue" d="M524.563,-438.313C523.659,-430.289 522.562,-420.547 521.55,-411.569"/>
<polygon fill="steelblue" stroke="steelblue" points="525.016,-411.074 520.419,-401.529 518.061,-411.858 525.016,-411.074"/>
</g>
<!-- Node_17&#45;&gt;Node_6 -->
<g id="edge15" class="edge"><title>Node_17&#45;&gt;Node_6</title>
<path fill="none" stroke="tan" d="M516.563,-365.313C515.659,-357.289 514.562,-347.547 513.55,-338.569"/>
<polygon fill="tan" stroke="tan" points="517.016,-338.074 512.419,-328.529 510.061,-338.858 517.016,-338.074"/>
</g>
<!-- Node_19 -->
<g id="node20" class="node"><title>Node_19</title>
<path fill="moccasin" stroke="moccasin" d="M303.5,-0.5C303.5,-0.5 347.5,-0.5 347.5,-0.5 353.5,-0.5 359.5,-6.5 359.5,-12.5 359.5,-12.5 359.5,-24.5 359.5,-24.5 359.5,-30.5 353.5,-36.5 347.5,-36.5 347.5,-36.5 303.5,-36.5 303.5,-36.5 297.5,-36.5 291.5,-30.5 291.5,-24.5 291.5,-24.5 291.5,-12.5 291.5,-12.5 291.5,-6.5 297.5,-0.5 303.5,-0.5"/>
<text text-anchor="middle" x="325.5" y="-16.3" font-family="Arial" font-size="9.00">_10: [&#45;inf, inf]</text>
</g>
<!-- Node_18&#45;&gt;Node_19 -->
<g id="edge10" class="edge"><title>Node_18&#45;&gt;Node_19</title>
<path fill="none" stroke="steelblue" d="M325.5,-73.3129C325.5,-65.2895 325.5,-55.5475 325.5,-46.5691"/>
<polygon fill="steelblue" stroke="steelblue" points="329,-46.5288 325.5,-36.5288 322,-46.5289 329,-46.5288"/>
</g>
<!-- Node_21 -->
<g id="node22" class="node"><title>Node_21</title>
<path fill="moccasin" stroke="moccasin" d="M264.5,-438.5C264.5,-438.5 308.5,-438.5 308.5,-438.5 314.5,-438.5 320.5,-444.5 320.5,-450.5 320.5,-450.5 320.5,-462.5 320.5,-462.5 320.5,-468.5 314.5,-474.5 308.5,-474.5 308.5,-474.5 264.5,-474.5 264.5,-474.5 258.5,-474.5 252.5,-468.5 252.5,-462.5 252.5,-462.5 252.5,-450.5 252.5,-450.5 252.5,-444.5 258.5,-438.5 264.5,-438.5"/>
<text text-anchor="middle" x="286.5" y="-454.3" font-family="Arial" font-size="9.00">k_9: [&#45;inf, inf]</text>
</g>
<!-- Node_20&#45;&gt;Node_21 -->
<g id="edge11" class="edge"><title>Node_20&#45;&gt;Node_21</title>
<path fill="none" stroke="steelblue" d="M286.5,-511.313C286.5,-503.289 286.5,-493.547 286.5,-484.569"/>
<polygon fill="steelblue" stroke="steelblue" points="290,-484.529 286.5,-474.529 283,-484.529 290,-484.529"/>
</g>
<!-- Node_21&#45;&gt;Node_26 -->
<g id="edge25" class="edge"><title>Node_21&#45;&gt;Node_26</title>
<path fill="none" stroke="tan" d="M294.004,-438.313C297.584,-430.115 301.946,-420.123 305.936,-410.985"/>
<polygon fill="tan" stroke="tan" points="309.271,-412.094 310.065,-401.529 302.856,-409.293 309.271,-412.094"/>
</g>
<!-- Node_23 -->
<g id="node24" class="node"><title>Node_23</title>
<path fill="moccasin" stroke="moccasin" d="M12,-438.5C12,-438.5 53,-438.5 53,-438.5 59,-438.5 65,-444.5 65,-450.5 65,-450.5 65,-462.5 65,-462.5 65,-468.5 59,-474.5 53,-474.5 53,-474.5 12,-474.5 12,-474.5 6,-474.5 0,-468.5 0,-462.5 0,-462.5 0,-450.5 0,-450.5 0,-444.5 6,-438.5 12,-438.5"/>
<text text-anchor="middle" x="32.5" y="-454.3" font-family="Arial" font-size="9.00">j_6: [&#45;inf, inf]</text>
</g>
<!-- Node_22&#45;&gt;Node_23 -->
<g id="edge12" class="edge"><title>Node_22&#45;&gt;Node_23</title>
<path fill="none" stroke="steelblue" d="M40.8372,-511.313C39.5941,-503.289 38.0848,-493.547 36.6938,-484.569"/>
<polygon fill="steelblue" stroke="steelblue" points="40.1281,-483.875 35.1383,-474.529 33.2106,-484.947 40.1281,-483.875"/>
</g>
<!-- Node_23&#45;&gt;Node_10 -->
<g id="edge29" class="edge"><title>Node_23&#45;&gt;Node_10</title>
<path fill="none" stroke="tan" d="M45.0877,-438.313C51.3473,-429.766 59.035,-419.269 65.9536,-409.823"/>
<polygon fill="tan" stroke="tan" points="68.9431,-411.665 72.0282,-401.529 63.2957,-407.528 68.9431,-411.665"/>
</g>
<!-- Node_24 -->
<g id="node25" class="node"><title>Node_24</title>
<path fill="lightblue" stroke="lightblue" d="M563.5,-584.5C563.5,-584.5 593.5,-584.5 593.5,-584.5 599.5,-584.5 605.5,-590.5 605.5,-596.5 605.5,-596.5 605.5,-608.5 605.5,-608.5 605.5,-614.5 599.5,-620.5 593.5,-620.5 593.5,-620.5 563.5,-620.5 563.5,-620.5 557.5,-620.5 551.5,-614.5 551.5,-608.5 551.5,-608.5 551.5,-596.5 551.5,-596.5 551.5,-590.5 557.5,-584.5 563.5,-584.5"/>
<text text-anchor="middle" x="578.5" y="-600.3" font-family="Arial" font-size="9.00">i_5 = 0</text>
</g>
<!-- Node_25 -->
<g id="node26" class="node"><title>Node_25</title>
<path fill="moccasin" stroke="moccasin" d="M558,-511.5C558,-511.5 599,-511.5 599,-511.5 605,-511.5 611,-517.5 611,-523.5 611,-523.5 611,-535.5 611,-535.5 611,-541.5 605,-547.5 599,-547.5 599,-547.5 558,-547.5 558,-547.5 552,-547.5 546,-541.5 546,-535.5 546,-535.5 546,-523.5 546,-523.5 546,-517.5 552,-511.5 558,-511.5"/>
<text text-anchor="middle" x="578.5" y="-527.3" font-family="Arial" font-size="9.00">i_5: [&#45;inf, inf]</text>
</g>
<!-- Node_24&#45;&gt;Node_25 -->
<g id="edge13" class="edge"><title>Node_24&#45;&gt;Node_25</title>
<path fill="none" stroke="steelblue" d="M578.5,-584.313C578.5,-576.289 578.5,-566.547 578.5,-557.569"/>
<polygon fill="steelblue" stroke="steelblue" points="582,-557.529 578.5,-547.529 575,-557.529 582,-557.529"/>
</g>
<!-- Node_25&#45;&gt;Node_16 -->
<g id="edge28" class="edge"><title>Node_25&#45;&gt;Node_16</title>
<path fill="none" stroke="tan" d="M565.912,-511.313C559.653,-502.766 551.965,-492.269 545.046,-482.823"/>
<polygon fill="tan" stroke="tan" points="547.704,-480.528 538.972,-474.529 542.057,-484.665 547.704,-480.528"/>
</g>
<!-- Node_27 -->
<g id="node28" class="node"><title>Node_27</title>
<path fill="moccasin" stroke="moccasin" d="M295.5,-292.5C295.5,-292.5 339.5,-292.5 339.5,-292.5 345.5,-292.5 351.5,-298.5 351.5,-304.5 351.5,-304.5 351.5,-316.5 351.5,-316.5 351.5,-322.5 345.5,-328.5 339.5,-328.5 339.5,-328.5 295.5,-328.5 295.5,-328.5 289.5,-328.5 283.5,-322.5 283.5,-316.5 283.5,-316.5 283.5,-304.5 283.5,-304.5 283.5,-298.5 289.5,-292.5 295.5,-292.5"/>
<text text-anchor="middle" x="317.5" y="-308.3" font-family="Arial" font-size="9.00">k_1: [&#45;inf, inf]</text>
</g>
<!-- Node_26&#45;&gt;Node_27 -->
<g id="edge14" class="edge"><title>Node_26&#45;&gt;Node_27</title>
<path fill="none" stroke="steelblue" d="M317.5,-365.313C317.5,-357.289 317.5,-347.547 317.5,-338.569"/>
<polygon fill="steelblue" stroke="steelblue" points="321,-338.529 317.5,-328.529 314,-338.529 321,-338.529"/>
</g>
<!-- Node_27&#45;&gt;Node_8 -->
<g id="edge23" class="edge"><title>Node_27&#45;&gt;Node_8</title>
<path fill="none" stroke="tan" d="M298.618,-292.313C288.75,-283.33 276.515,-272.193 265.741,-262.386"/>
<polygon fill="tan" stroke="tan" points="267.959,-259.672 258.208,-255.529 263.247,-264.849 267.959,-259.672"/>
</g>
<!-- Node_27&#45;&gt;Node_12 -->
<g id="edge22" class="edge"><title>Node_27&#45;&gt;Node_12</title>
<path fill="none" stroke="tan" d="M319.437,-292.313C320.341,-284.289 321.438,-274.547 322.45,-265.569"/>
<polygon fill="tan" stroke="tan" points="325.939,-265.858 323.581,-255.529 318.984,-265.074 325.939,-265.858"/>
</g>
</g>
</svg>
