<?xml version="1.0" encoding="UTF-8" standalone="no"?>
<!DOCTYPE svg PUBLIC "-//W3C//DTD SVG 1.1//EN"
 "http://www.w3.org/Graphics/SVG/1.1/DTD/svg11.dtd">
<!-- Generated by graphviz version 2.38.0 (20140413.2041)
 -->
<!-- Title: t1_foo_graph Pages: 1 -->
<svg width="319pt" height="536pt"
 viewBox="0.00 0.00 319.00 536.00" xmlns="http://www.w3.org/2000/svg" xmlns:xlink="http://www.w3.org/1999/xlink">
<g id="graph0" class="graph" transform="scale(1 1) rotate(0) translate(4 532)">
<title>t1_foo_graph</title>
<polygon fill="white" stroke="none" points="-4,4 -4,-532 315,-532 315,4 -4,4"/>
<!-- Node_0 -->
<g id="node1" class="node"><title>Node_0</title>
<path fill="mintcream" stroke="orange" d="M155.5,-491.5C155.5,-491.5 185.5,-491.5 185.5,-491.5 191.5,-491.5 197.5,-497.5 197.5,-503.5 197.5,-503.5 197.5,-515.5 197.5,-515.5 197.5,-521.5 191.5,-527.5 185.5,-527.5 185.5,-527.5 155.5,-527.5 155.5,-527.5 149.5,-527.5 143.5,-521.5 143.5,-515.5 143.5,-515.5 143.5,-503.5 143.5,-503.5 143.5,-497.5 149.5,-491.5 155.5,-491.5"/>
<text text-anchor="middle" x="170.5" y="-507.3" font-family="Arial" font-size="9.00">&lt;Entry&gt;</text>
</g>
<!-- Node_1 -->
<g id="node2" class="node"><title>Node_1</title>
<path fill="mintcream" stroke="black" d="M150,-400.5C150,-400.5 191,-400.5 191,-400.5 197,-400.5 203,-406.5 203,-412.5 203,-412.5 203,-442.5 203,-442.5 203,-448.5 197,-454.5 191,-454.5 191,-454.5 150,-454.5 150,-454.5 144,-454.5 138,-448.5 138,-442.5 138,-442.5 138,-412.5 138,-412.5 138,-406.5 144,-400.5 150,-400.5"/>
<text text-anchor="middle" x="170.5" y="-443.3" font-family="Arial" font-size="9.00">&lt;bb 2&gt;</text>
<polyline fill="none" stroke="black" points="138,-436.5 203,-436.5 "/>
<text text-anchor="middle" x="170.5" y="-425.3" font-family="Arial" font-size="9.00">k_4 = 0</text>
<polyline fill="none" stroke="black" points="138,-418.5 203,-418.5 "/>
<text text-anchor="middle" x="170.5" y="-407.3" font-family="Arial" font-size="9.00">goto &lt;bb 7&gt;</text>
</g>
<!-- Node_0&#45;&gt;Node_1 -->
<g id="edge1" class="edge"><title>Node_0&#45;&gt;Node_1</title>
<path fill="none" stroke="black" d="M170.5,-491.141C170.5,-483.395 170.5,-473.96 170.5,-464.787"/>
<polygon fill="black" stroke="black" points="174,-464.647 170.5,-454.647 167,-464.647 174,-464.647"/>
</g>
<!-- Node_2 -->
<g id="node3" class="node"><title>Node_2</title>
<path fill="mintcream" stroke="black" d="M86.5,-309.5C86.5,-309.5 254.5,-309.5 254.5,-309.5 260.5,-309.5 266.5,-315.5 266.5,-321.5 266.5,-321.5 266.5,-351.5 266.5,-351.5 266.5,-357.5 260.5,-363.5 254.5,-363.5 254.5,-363.5 86.5,-363.5 86.5,-363.5 80.5,-363.5 74.5,-357.5 74.5,-351.5 74.5,-351.5 74.5,-321.5 74.5,-321.5 74.5,-315.5 80.5,-309.5 86.5,-309.5"/>
<text text-anchor="middle" x="170.5" y="-352.3" font-family="Arial" font-size="9.00">&lt;bb 7&gt;</text>
<polyline fill="none" stroke="black" points="74.5,-345.5 266.5,-345.5 "/>
<text text-anchor="middle" x="170.5" y="-334.3" font-family="Arial" font-size="9.00"># k_1 = PHI &lt;k_4(2), k_9(6)&gt;</text>
<polyline fill="none" stroke="black" points="74.5,-327.5 266.5,-327.5 "/>
<text text-anchor="middle" x="170.5" y="-316.3" font-family="Arial" font-size="9.00">if (k_1 &lt;= 99) goto &lt;bb 3&gt; else goto &lt;bb 8&gt;</text>
</g>
<!-- Node_1&#45;&gt;Node_2 -->
<g id="edge2" class="edge"><title>Node_1&#45;&gt;Node_2</title>
<path fill="none" stroke="black" d="M170.5,-400.278C170.5,-391.949 170.5,-382.586 170.5,-373.684"/>
<polygon fill="black" stroke="black" points="174,-373.534 170.5,-363.534 167,-373.534 174,-373.534"/>
</g>
<!-- Node_3 -->
<g id="node4" class="node"><title>Node_3</title>
<path fill="mintcream" stroke="black" d="M150,-200.5C150,-200.5 191,-200.5 191,-200.5 197,-200.5 203,-206.5 203,-212.5 203,-212.5 203,-260.5 203,-260.5 203,-266.5 197,-272.5 191,-272.5 191,-272.5 150,-272.5 150,-272.5 144,-272.5 138,-266.5 138,-260.5 138,-260.5 138,-212.5 138,-212.5 138,-206.5 144,-200.5 150,-200.5"/>
<text text-anchor="middle" x="170.5" y="-261.3" font-family="Arial" font-size="9.00">&lt;bb 3&gt;</text>
<polyline fill="none" stroke="black" points="138,-254.5 203,-254.5 "/>
<text text-anchor="middle" x="170.5" y="-243.3" font-family="Arial" font-size="9.00">i_5 = 0</text>
<polyline fill="none" stroke="black" points="138,-236.5 203,-236.5 "/>
<text text-anchor="middle" x="170.5" y="-225.3" font-family="Arial" font-size="9.00">j_6 = k_1</text>
<polyline fill="none" stroke="black" points="138,-218.5 203,-218.5 "/>
<text text-anchor="middle" x="170.5" y="-207.3" font-family="Arial" font-size="9.00">goto &lt;bb 5&gt;</text>
</g>
<!-- Node_2&#45;&gt;Node_3 -->
<g id="edge3" class="edge"><title>Node_2&#45;&gt;Node_3</title>
<path fill="none" stroke="crimson" d="M170.5,-309.495C170.5,-301.338 170.5,-292.08 170.5,-282.985"/>
<polygon fill="crimson" stroke="crimson" points="174,-282.853 170.5,-272.853 167,-282.853 174,-282.853"/>
</g>
<!-- Node_7 -->
<g id="node8" class="node"><title>Node_7</title>
<path fill="mintcream" stroke="black" d="M44,-218.5C44,-218.5 77,-218.5 77,-218.5 83,-218.5 89,-224.5 89,-230.5 89,-230.5 89,-242.5 89,-242.5 89,-248.5 83,-254.5 77,-254.5 77,-254.5 44,-254.5 44,-254.5 38,-254.5 32,-248.5 32,-242.5 32,-242.5 32,-230.5 32,-230.5 32,-224.5 38,-218.5 44,-218.5"/>
<text text-anchor="middle" x="60.5" y="-243.3" font-family="Arial" font-size="9.00">&lt;bb 8&gt;</text>
<polyline fill="none" stroke="black" points="32,-236.5 89,-236.5 "/>
<text text-anchor="middle" x="60.5" y="-225.3" font-family="Arial" font-size="9.00">_10 = k_1</text>
</g>
<!-- Node_2&#45;&gt;Node_7 -->
<g id="edge9" class="edge"><title>Node_2&#45;&gt;Node_7</title>
<path fill="none" stroke="teal" d="M141.311,-309.495C124.573,-294.583 103.711,-275.997 87.3769,-261.445"/>
<polygon fill="teal" stroke="teal" points="89.5547,-258.698 79.7598,-254.659 84.8982,-263.924 89.5547,-258.698"/>
</g>
<!-- Node_4 -->
<g id="node5" class="node"><title>Node_4</title>
<path fill="mintcream" stroke="black" d="M89,-91.5C89,-91.5 252,-91.5 252,-91.5 258,-91.5 264,-97.5 264,-103.5 264,-103.5 264,-151.5 264,-151.5 264,-157.5 258,-163.5 252,-163.5 252,-163.5 89,-163.5 89,-163.5 83,-163.5 77,-157.5 77,-151.5 77,-151.5 77,-103.5 77,-103.5 77,-97.5 83,-91.5 89,-91.5"/>
<text text-anchor="middle" x="170.5" y="-152.3" font-family="Arial" font-size="9.00">&lt;bb 5&gt;</text>
<polyline fill="none" stroke="black" points="77,-145.5 264,-145.5 "/>
<text text-anchor="middle" x="170.5" y="-134.3" font-family="Arial" font-size="9.00"># i_2 = PHI &lt;i_5(3), i_7(4)&gt;</text>
<polyline fill="none" stroke="black" points="77,-127.5 264,-127.5 "/>
<text text-anchor="middle" x="170.5" y="-116.3" font-family="Arial" font-size="9.00"># j_3 = PHI &lt;j_6(3), j_8(4)&gt;</text>
<polyline fill="none" stroke="black" points="77,-109.5 264,-109.5 "/>
<text text-anchor="middle" x="170.5" y="-98.3" font-family="Arial" font-size="9.00">if (i_2 &lt; j_3) goto &lt;bb 4&gt; else goto &lt;bb 6&gt;</text>
</g>
<!-- Node_3&#45;&gt;Node_4 -->
<g id="edge4" class="edge"><title>Node_3&#45;&gt;Node_4</title>
<path fill="none" stroke="black" d="M170.5,-200.464C170.5,-191.966 170.5,-182.759 170.5,-173.859"/>
<polygon fill="black" stroke="black" points="174,-173.614 170.5,-163.615 167,-173.615 174,-173.614"/>
</g>
<!-- Node_5 -->
<g id="node6" class="node"><title>Node_5</title>
<path fill="mintcream" stroke="black" d="M147.5,-0.5C147.5,-0.5 193.5,-0.5 193.5,-0.5 199.5,-0.5 205.5,-6.5 205.5,-12.5 205.5,-12.5 205.5,-42.5 205.5,-42.5 205.5,-48.5 199.5,-54.5 193.5,-54.5 193.5,-54.5 147.5,-54.5 147.5,-54.5 141.5,-54.5 135.5,-48.5 135.5,-42.5 135.5,-42.5 135.5,-12.5 135.5,-12.5 135.5,-6.5 141.5,-0.5 147.5,-0.5"/>
<text text-anchor="middle" x="170.5" y="-43.3" font-family="Arial" font-size="9.00">&lt;bb 4&gt;</text>
<polyline fill="none" stroke="black" points="135.5,-36.5 205.5,-36.5 "/>
<text text-anchor="middle" x="170.5" y="-25.3" font-family="Arial" font-size="9.00">i_7 = i_2 + 1</text>
<polyline fill="none" stroke="black" points="135.5,-18.5 205.5,-18.5 "/>
<text text-anchor="middle" x="170.5" y="-7.3" font-family="Arial" font-size="9.00">j_8 = j_3 + &#45;1</text>
</g>
<!-- Node_4&#45;&gt;Node_5 -->
<g id="edge5" class="edge"><title>Node_4&#45;&gt;Node_5</title>
<path fill="none" stroke="crimson" d="M163.997,-91.3966C163.684,-82.8064 163.668,-73.5951 163.951,-64.9438"/>
<polygon fill="crimson" stroke="crimson" points="167.457,-64.9054 164.443,-54.7481 160.465,-64.5676 167.457,-64.9054"/>
</g>
<!-- Node_6 -->
<g id="node7" class="node"><title>Node_6</title>
<path fill="mintcream" stroke="black" d="M252,-9.5C252,-9.5 299,-9.5 299,-9.5 305,-9.5 311,-15.5 311,-21.5 311,-21.5 311,-33.5 311,-33.5 311,-39.5 305,-45.5 299,-45.5 299,-45.5 252,-45.5 252,-45.5 246,-45.5 240,-39.5 240,-33.5 240,-33.5 240,-21.5 240,-21.5 240,-15.5 246,-9.5 252,-9.5"/>
<text text-anchor="middle" x="275.5" y="-34.3" font-family="Arial" font-size="9.00">&lt;bb 6&gt;</text>
<polyline fill="none" stroke="black" points="240,-27.5 311,-27.5 "/>
<text text-anchor="middle" x="275.5" y="-16.3" font-family="Arial" font-size="9.00">k_9 = k_1 + 1</text>
</g>
<!-- Node_4&#45;&gt;Node_6 -->
<g id="edge7" class="edge"><title>Node_4&#45;&gt;Node_6</title>
<path fill="none" stroke="teal" d="M208.111,-91.3966C221.95,-78.4796 237.295,-64.1581 249.841,-52.4479"/>
<polygon fill="teal" stroke="teal" points="252.331,-54.912 257.254,-45.5301 247.555,-49.7946 252.331,-54.912"/>
</g>
<!-- Node_5&#45;&gt;Node_4 -->
<g id="edge6" class="edge"><title>Node_5&#45;&gt;Node_4</title>
<path fill="none" stroke="black" d="M176.557,-54.7481C177.093,-62.9247 177.318,-72.1877 177.232,-81.2764"/>
<polygon fill="black" stroke="black" points="173.73,-81.3198 177.003,-91.3966 180.729,-81.4785 173.73,-81.3198"/>
</g>
<!-- Node_6&#45;&gt;Node_2 -->
<g id="edge8" class="edge"><title>Node_6&#45;&gt;Node_2</title>
<path fill="none" stroke="black" d="M277.88,-45.5546C280.934,-71.6072 284.611,-122.648 273.5,-164 259.418,-216.412 224.152,-268.736 198.81,-301.553"/>
<polygon fill="black" stroke="black" points="196.021,-299.437 192.6,-309.464 201.528,-303.76 196.021,-299.437"/>
</g>
<!-- Node_8 -->
<g id="node9" class="node"><title>Node_8</title>
<path fill="mintcream" stroke="black" d="M12,-109.5C12,-109.5 47,-109.5 47,-109.5 53,-109.5 59,-115.5 59,-121.5 59,-121.5 59,-133.5 59,-133.5 59,-139.5 53,-145.5 47,-145.5 47,-145.5 12,-145.5 12,-145.5 6,-145.5 0,-139.5 0,-133.5 0,-133.5 0,-121.5 0,-121.5 0,-115.5 6,-109.5 12,-109.5"/>
<text text-anchor="middle" x="29.5" y="-134.3" font-family="Arial" font-size="9.00">&lt;L6&gt;</text>
<polyline fill="none" stroke="black" points="0,-127.5 59,-127.5 "/>
<text text-anchor="middle" x="29.5" y="-116.3" font-family="Arial" font-size="9.00">return _10</text>
</g>
<!-- Node_7&#45;&gt;Node_8 -->
<g id="edge10" class="edge"><title>Node_7&#45;&gt;Node_8</title>
<path fill="none" stroke="black" d="M55.5193,-218.309C50.5931,-201.305 42.9827,-175.037 37.2629,-155.294"/>
<polygon fill="black" stroke="black" points="40.6129,-154.28 34.4683,-145.649 33.8894,-156.228 40.6129,-154.28"/>
</g>
<!-- Node_9 -->
<g id="node10" class="node"><title>Node_9</title>
<path fill="mintcream" stroke="#1874cd" d="M14.5,-9.5C14.5,-9.5 44.5,-9.5 44.5,-9.5 50.5,-9.5 56.5,-15.5 56.5,-21.5 56.5,-21.5 56.5,-33.5 56.5,-33.5 56.5,-39.5 50.5,-45.5 44.5,-45.5 44.5,-45.5 14.5,-45.5 14.5,-45.5 8.5,-45.5 2.5,-39.5 2.5,-33.5 2.5,-33.5 2.5,-21.5 2.5,-21.5 2.5,-15.5 8.5,-9.5 14.5,-9.5"/>
<text text-anchor="middle" x="29.5" y="-25.3" font-family="Arial" font-size="9.00">&lt;Exit&gt;</text>
</g>
<!-- Node_8&#45;&gt;Node_9 -->
<g id="edge11" class="edge"><title>Node_8&#45;&gt;Node_9</title>
<path fill="none" stroke="black" d="M29.5,-109.43C29.5,-94.6248 29.5,-72.932 29.5,-55.7312"/>
<polygon fill="black" stroke="black" points="33.0001,-55.7035 29.5,-45.7035 26.0001,-55.7035 33.0001,-55.7035"/>
</g>
</g>
</svg>
