<?xml version="1.0" encoding="UTF-8" standalone="no"?>
<!DOCTYPE svg PUBLIC "-//W3C//DTD SVG 1.1//EN"
 "http://www.w3.org/Graphics/SVG/1.1/DTD/svg11.dtd">
<!-- Generated by graphviz version 2.38.0 (20140413.2041)
 -->
<!-- Title: t4_foo_graph Pages: 1 -->
<svg width="226pt" height="446pt"
 viewBox="0.00 0.00 226.00 446.00" xmlns="http://www.w3.org/2000/svg" xmlns:xlink="http://www.w3.org/1999/xlink">
<g id="graph0" class="graph" transform="scale(1 1) rotate(0) translate(4 442)">
<title>t4_foo_graph</title>
<polygon fill="white" stroke="none" points="-4,4 -4,-442 222,-442 222,4 -4,4"/>
<!-- Node_0 -->
<g id="node1" class="node"><title>Node_0</title>
<path fill="mintcream" stroke="orange" d="M94,-401.5C94,-401.5 124,-401.5 124,-401.5 130,-401.5 136,-407.5 136,-413.5 136,-413.5 136,-425.5 136,-425.5 136,-431.5 130,-437.5 124,-437.5 124,-437.5 94,-437.5 94,-437.5 88,-437.5 82,-431.5 82,-425.5 82,-425.5 82,-413.5 82,-413.5 82,-407.5 88,-401.5 94,-401.5"/>
<text text-anchor="middle" x="109" y="-417.3" font-family="Arial" font-size="9.00">&lt;Entry&gt;</text>
</g>
<!-- Node_1 -->
<g id="node2" class="node"><title>Node_1</title>
<path fill="mintcream" stroke="black" d="M88.5,-310.5C88.5,-310.5 129.5,-310.5 129.5,-310.5 135.5,-310.5 141.5,-316.5 141.5,-322.5 141.5,-322.5 141.5,-352.5 141.5,-352.5 141.5,-358.5 135.5,-364.5 129.5,-364.5 129.5,-364.5 88.5,-364.5 88.5,-364.5 82.5,-364.5 76.5,-358.5 76.5,-352.5 76.5,-352.5 76.5,-322.5 76.5,-322.5 76.5,-316.5 82.5,-310.5 88.5,-310.5"/>
<text text-anchor="middle" x="109" y="-353.3" font-family="Arial" font-size="9.00">&lt;bb 2&gt;</text>
<polyline fill="none" stroke="black" points="76.5,-346.5 141.5,-346.5 "/>
<text text-anchor="middle" x="109" y="-335.3" font-family="Arial" font-size="9.00">k_2 = 0</text>
<polyline fill="none" stroke="black" points="76.5,-328.5 141.5,-328.5 "/>
<text text-anchor="middle" x="109" y="-317.3" font-family="Arial" font-size="9.00">goto &lt;bb 4&gt;</text>
</g>
<!-- Node_0&#45;&gt;Node_1 -->
<g id="edge1" class="edge"><title>Node_0&#45;&gt;Node_1</title>
<path fill="none" stroke="black" d="M109,-401.141C109,-393.395 109,-383.96 109,-374.787"/>
<polygon fill="black" stroke="black" points="112.5,-374.647 109,-364.647 105.5,-374.647 112.5,-374.647"/>
</g>
<!-- Node_2 -->
<g id="node3" class="node"><title>Node_2</title>
<path fill="mintcream" stroke="black" d="M12,-219.5C12,-219.5 206,-219.5 206,-219.5 212,-219.5 218,-225.5 218,-231.5 218,-231.5 218,-261.5 218,-261.5 218,-267.5 212,-273.5 206,-273.5 206,-273.5 12,-273.5 12,-273.5 6,-273.5 0,-267.5 0,-261.5 0,-261.5 0,-231.5 0,-231.5 0,-225.5 6,-219.5 12,-219.5"/>
<text text-anchor="middle" x="109" y="-262.3" font-family="Arial" font-size="9.00">&lt;bb 4&gt;</text>
<polyline fill="none" stroke="black" points="0,-255.5 218,-255.5 "/>
<text text-anchor="middle" x="109" y="-244.3" font-family="Arial" font-size="9.00"># k_1 = PHI &lt;k_2(2), k_4(3)&gt;</text>
<polyline fill="none" stroke="black" points="0,-237.5 218,-237.5 "/>
<text text-anchor="middle" x="109" y="-226.3" font-family="Arial" font-size="9.00">if (k_1 &lt; argc_3(D)) goto &lt;bb 3&gt; else goto &lt;bb 5&gt;</text>
</g>
<!-- Node_1&#45;&gt;Node_2 -->
<g id="edge2" class="edge"><title>Node_1&#45;&gt;Node_2</title>
<path fill="none" stroke="black" d="M109,-310.278C109,-301.949 109,-292.586 109,-283.684"/>
<polygon fill="black" stroke="black" points="112.5,-283.534 109,-273.534 105.5,-283.534 112.5,-283.534"/>
</g>
<!-- Node_3 -->
<g id="node4" class="node"><title>Node_3</title>
<path fill="mintcream" stroke="black" d="M85.5,-146.5C85.5,-146.5 132.5,-146.5 132.5,-146.5 138.5,-146.5 144.5,-152.5 144.5,-158.5 144.5,-158.5 144.5,-170.5 144.5,-170.5 144.5,-176.5 138.5,-182.5 132.5,-182.5 132.5,-182.5 85.5,-182.5 85.5,-182.5 79.5,-182.5 73.5,-176.5 73.5,-170.5 73.5,-170.5 73.5,-158.5 73.5,-158.5 73.5,-152.5 79.5,-146.5 85.5,-146.5"/>
<text text-anchor="middle" x="109" y="-171.3" font-family="Arial" font-size="9.00">&lt;bb 3&gt;</text>
<polyline fill="none" stroke="black" points="73.5,-164.5 144.5,-164.5 "/>
<text text-anchor="middle" x="109" y="-153.3" font-family="Arial" font-size="9.00">k_4 = k_1 + 1</text>
</g>
<!-- Node_2&#45;&gt;Node_3 -->
<g id="edge3" class="edge"><title>Node_2&#45;&gt;Node_3</title>
<path fill="none" stroke="crimson" d="M102.621,-219.305C102.149,-210.846 102.127,-201.449 102.557,-192.905"/>
<polygon fill="crimson" stroke="crimson" points="106.066,-192.913 103.341,-182.674 99.0868,-192.377 106.066,-192.913"/>
</g>
<!-- Node_4 -->
<g id="node5" class="node"><title>Node_4</title>
<path fill="mintcream" stroke="black" d="M175,-146.5C175,-146.5 205,-146.5 205,-146.5 211,-146.5 217,-152.5 217,-158.5 217,-158.5 217,-170.5 217,-170.5 217,-176.5 211,-182.5 205,-182.5 205,-182.5 175,-182.5 175,-182.5 169,-182.5 163,-176.5 163,-170.5 163,-170.5 163,-158.5 163,-158.5 163,-152.5 169,-146.5 175,-146.5"/>
<text text-anchor="middle" x="190" y="-171.3" font-family="Arial" font-size="9.00">&lt;bb 5&gt;</text>
<polyline fill="none" stroke="black" points="163,-164.5 217,-164.5 "/>
<text text-anchor="middle" x="190" y="-153.3" font-family="Arial" font-size="9.00">_5 = k_1</text>
</g>
<!-- Node_2&#45;&gt;Node_4 -->
<g id="edge5" class="edge"><title>Node_2&#45;&gt;Node_4</title>
<path fill="none" stroke="teal" d="M135.522,-219.305C145.134,-209.812 155.942,-199.137 165.382,-189.814"/>
<polygon fill="teal" stroke="teal" points="167.956,-192.192 172.611,-182.674 163.037,-187.211 167.956,-192.192"/>
</g>
<!-- Node_3&#45;&gt;Node_2 -->
<g id="edge4" class="edge"><title>Node_3&#45;&gt;Node_2</title>
<path fill="none" stroke="black" d="M114.659,-182.674C115.495,-190.428 115.851,-199.901 115.725,-209.116"/>
<polygon fill="black" stroke="black" points="112.221,-209.192 115.379,-219.305 119.217,-209.43 112.221,-209.192"/>
</g>
<!-- Node_5 -->
<g id="node6" class="node"><title>Node_5</title>
<path fill="mintcream" stroke="black" d="M175,-73.5C175,-73.5 205,-73.5 205,-73.5 211,-73.5 217,-79.5 217,-85.5 217,-85.5 217,-97.5 217,-97.5 217,-103.5 211,-109.5 205,-109.5 205,-109.5 175,-109.5 175,-109.5 169,-109.5 163,-103.5 163,-97.5 163,-97.5 163,-85.5 163,-85.5 163,-79.5 169,-73.5 175,-73.5"/>
<text text-anchor="middle" x="190" y="-98.3" font-family="Arial" font-size="9.00">&lt;L3&gt;</text>
<polyline fill="none" stroke="black" points="163,-91.5 217,-91.5 "/>
<text text-anchor="middle" x="190" y="-80.3" font-family="Arial" font-size="9.00">return _5</text>
</g>
<!-- Node_4&#45;&gt;Node_5 -->
<g id="edge6" class="edge"><title>Node_4&#45;&gt;Node_5</title>
<path fill="none" stroke="black" d="M190,-146.313C190,-138.289 190,-128.547 190,-119.569"/>
<polygon fill="black" stroke="black" points="193.5,-119.529 190,-109.529 186.5,-119.529 193.5,-119.529"/>
</g>
<!-- Node_6 -->
<g id="node7" class="node"><title>Node_6</title>
<path fill="mintcream" stroke="#1874cd" d="M175,-0.5C175,-0.5 205,-0.5 205,-0.5 211,-0.5 217,-6.5 217,-12.5 217,-12.5 217,-24.5 217,-24.5 217,-30.5 211,-36.5 205,-36.5 205,-36.5 175,-36.5 175,-36.5 169,-36.5 163,-30.5 163,-24.5 163,-24.5 163,-12.5 163,-12.5 163,-6.5 169,-0.5 175,-0.5"/>
<text text-anchor="middle" x="190" y="-16.3" font-family="Arial" font-size="9.00">&lt;Exit&gt;</text>
</g>
<!-- Node_5&#45;&gt;Node_6 -->
<g id="edge7" class="edge"><title>Node_5&#45;&gt;Node_6</title>
<path fill="none" stroke="black" d="M190,-73.3129C190,-65.2895 190,-55.5475 190,-46.5691"/>
<polygon fill="black" stroke="black" points="193.5,-46.5288 190,-36.5288 186.5,-46.5289 193.5,-46.5288"/>
</g>
</g>
</svg>
