<?xml version="1.0" encoding="UTF-8" standalone="no"?>
<!DOCTYPE svg PUBLIC "-//W3C//DTD SVG 1.1//EN"
 "http://www.w3.org/Graphics/SVG/1.1/DTD/svg11.dtd">
<!-- Generated by graphviz version 2.38.0 (20140413.2041)
 -->
<!-- Title: t4_foo_ConstraintGraph Pages: 1 -->
<svg width="235pt" height="556pt"
     viewBox="0.00 0.00 234.50 556.00" xmlns="http://www.w3.org/2000/svg">
<g id="graph0" class="graph" transform="scale(1 1) rotate(0) translate(4 552)">
<title>t4_foo_ConstraintGraph</title>
<polygon fill="white" stroke="none" points="-4,4 -4,-552 230.5,-552 230.5,4 -4,4"/>
<!-- Node_0 -->
<g id="node1" class="node"><title>Node_0</title>
<path fill="lightblue" stroke="lightblue" d="M12,-511.5C12,-511.5 67,-511.5 67,-511.5 73,-511.5 79,-517.5 79,-523.5 79,-523.5 79,-535.5 79,-535.5 79,-541.5 73,-547.5 67,-547.5 67,-547.5 12,-547.5 12,-547.5 6,-547.5 0,-541.5 0,-535.5 0,-535.5 0,-523.5 0,-523.5 0,-517.5 6,-511.5 12,-511.5"/>
<text text-anchor="middle" x="39.5" y="-527.3" font-family="Arial" font-size="9.00">k_4 = k_1_t + 1</text>
</g>
<!-- Node_1 -->
<g id="node2" class="node"><title>Node_1</title>
<path fill="moccasin" stroke="moccasin" d="M48.5,-438.5C48.5,-438.5 92.5,-438.5 92.5,-438.5 98.5,-438.5 104.5,-444.5 104.5,-450.5 104.5,-450.5 104.5,-462.5 104.5,-462.5 104.5,-468.5 98.5,-474.5 92.5,-474.5 92.5,-474.5 48.5,-474.5 48.5,-474.5 42.5,-474.5 36.5,-468.5 36.5,-462.5 36.5,-462.5 36.5,-450.5 36.5,-450.5 36.5,-444.5 42.5,-438.5 48.5,-438.5"/>
<text text-anchor="middle" x="70.5" y="-454.3" font-family="Arial" font-size="9.00">k_4: [&#45;inf, inf]</text>
</g>
<!-- Node_0&#45;&gt;Node_1 -->
<g id="edge1" class="edge"><title>Node_0&#45;&gt;Node_1</title>
<path fill="none" stroke="steelblue" d="M47.0042,-511.313C50.5836,-503.115 54.9462,-493.123 58.9363,-483.985"/>
<polygon fill="steelblue" stroke="steelblue" points="62.271,-485.094 63.0649,-474.529 55.8558,-482.293 62.271,-485.094"/>
</g>
<!-- Node_4 -->
<g id="node5" class="node"><title>Node_4</title>
<path fill="lightblue" stroke="lightblue" d="M74.5,-365.5C74.5,-365.5 184.5,-365.5 184.5,-365.5 190.5,-365.5 196.5,-371.5 196.5,-377.5 196.5,-377.5 196.5,-389.5 196.5,-389.5 196.5,-395.5 190.5,-401.5 184.5,-401.5 184.5,-401.5 74.5,-401.5 74.5,-401.5 68.5,-401.5 62.5,-395.5 62.5,-389.5 62.5,-389.5 62.5,-377.5 62.5,-377.5 62.5,-371.5 68.5,-365.5 74.5,-365.5"/>
<text text-anchor="middle" x="129.5" y="-381.3" font-family="Arial" font-size="9.00"># k_1 = PHI &lt;k_2(2), k_4(3)&gt;</text>
</g>
<!-- Node_1&#45;&gt;Node_4 -->
<g id="edge12" class="edge"><title>Node_1&#45;&gt;Node_4</title>
<path fill="none" stroke="tan" d="M84.7823,-438.313C92.0293,-429.592 100.964,-418.84 108.936,-409.246"/>
<polygon fill="tan" stroke="tan" points="111.65,-411.457 115.349,-401.529 106.266,-406.983 111.65,-411.457"/>
</g>
<!-- Node_2 -->
<g id="node3" class="node"><title>Node_2</title>
<path fill="lightblue" stroke="lightblue" d="M165,-73.5C165,-73.5 200,-73.5 200,-73.5 206,-73.5 212,-79.5 212,-85.5 212,-85.5 212,-97.5 212,-97.5 212,-103.5 206,-109.5 200,-109.5 200,-109.5 165,-109.5 165,-109.5 159,-109.5 153,-103.5 153,-97.5 153,-97.5 153,-85.5 153,-85.5 153,-79.5 159,-73.5 165,-73.5"/>
<text text-anchor="middle" x="182.5" y="-89.3" font-family="Arial" font-size="9.00">_5 = k_1_f</text>
</g>
<!-- Node_3 -->
<g id="node4" class="node"><title>Node_3</title>
<path fill="moccasin" stroke="moccasin" d="M163,-0.5C163,-0.5 202,-0.5 202,-0.5 208,-0.5 214,-6.5 214,-12.5 214,-12.5 214,-24.5 214,-24.5 214,-30.5 208,-36.5 202,-36.5 202,-36.5 163,-36.5 163,-36.5 157,-36.5 151,-30.5 151,-24.5 151,-24.5 151,-12.5 151,-12.5 151,-6.5 157,-0.5 163,-0.5"/>
<text text-anchor="middle" x="182.5" y="-16.3" font-family="Arial" font-size="9.00">_5: [&#45;inf, inf]</text>
</g>
<!-- Node_2&#45;&gt;Node_3 -->
<g id="edge2" class="edge"><title>Node_2&#45;&gt;Node_3</title>
<path fill="none" stroke="steelblue" d="M182.5,-73.3129C182.5,-65.2895 182.5,-55.5475 182.5,-46.5691"/>
<polygon fill="steelblue" stroke="steelblue" points="186,-46.5288 182.5,-36.5288 179,-46.5289 186,-46.5288"/>
</g>
<!-- Node_5 -->
<g id="node6" class="node"><title>Node_5</title>
<path fill="moccasin" stroke="moccasin" d="M107.5,-292.5C107.5,-292.5 151.5,-292.5 151.5,-292.5 157.5,-292.5 163.5,-298.5 163.5,-304.5 163.5,-304.5 163.5,-316.5 163.5,-316.5 163.5,-322.5 157.5,-328.5 151.5,-328.5 151.5,-328.5 107.5,-328.5 107.5,-328.5 101.5,-328.5 95.5,-322.5 95.5,-316.5 95.5,-316.5 95.5,-304.5 95.5,-304.5 95.5,-298.5 101.5,-292.5 107.5,-292.5"/>
<text text-anchor="middle" x="129.5" y="-308.3" font-family="Arial" font-size="9.00">k_1: [&#45;inf, inf]</text>
</g>
<!-- Node_4&#45;&gt;Node_5 -->
<g id="edge3" class="edge"><title>Node_4&#45;&gt;Node_5</title>
<path fill="none" stroke="steelblue" d="M129.5,-365.313C129.5,-357.289 129.5,-347.547 129.5,-338.569"/>
<polygon fill="steelblue" stroke="steelblue" points="133,-338.529 129.5,-328.529 126,-338.529 133,-338.529"/>
</g>
<!-- Node_6 -->
<g id="node7" class="node"><title>Node_6</title>
<path fill="lightblue" stroke="lightblue" d="M49,-219.5C49,-219.5 108,-219.5 108,-219.5 114,-219.5 120,-225.5 120,-231.5 120,-231.5 120,-243.5 120,-243.5 120,-249.5 114,-255.5 108,-255.5 108,-255.5 49,-255.5 49,-255.5 43,-255.5 37,-249.5 37,-243.5 37,-243.5 37,-231.5 37,-231.5 37,-225.5 43,-219.5 49,-219.5"/>
<text text-anchor="middle" x="78.5" y="-235.3" font-family="Arial" font-size="9.00">if (k_1 &lt; argc_3)</text>
</g>
<!-- Node_5&#45;&gt;Node_6 -->
<g id="edge10" class="edge"><title>Node_5&#45;&gt;Node_6</title>
<path fill="none" stroke="tan" d="M117.154,-292.313C111.015,-283.766 103.475,-273.269 96.6897,-263.823"/>
<polygon fill="tan" stroke="tan" points="99.4087,-261.609 90.732,-255.529 93.7234,-265.693 99.4087,-261.609"/>
</g>
<!-- Node_8 -->
<g id="node9" class="node"><title>Node_8</title>
<path fill="lightblue" stroke="lightblue" d="M150.5,-219.5C150.5,-219.5 214.5,-219.5 214.5,-219.5 220.5,-219.5 226.5,-225.5 226.5,-231.5 226.5,-231.5 226.5,-243.5 226.5,-243.5 226.5,-249.5 220.5,-255.5 214.5,-255.5 214.5,-255.5 150.5,-255.5 150.5,-255.5 144.5,-255.5 138.5,-249.5 138.5,-243.5 138.5,-243.5 138.5,-231.5 138.5,-231.5 138.5,-225.5 144.5,-219.5 150.5,-219.5"/>
<text text-anchor="middle" x="182.5" y="-235.3" font-family="Arial" font-size="9.00">if (k_1 &gt;= argc_3)</text>
</g>
<!-- Node_5&#45;&gt;Node_8 -->
<g id="edge11" class="edge"><title>Node_5&#45;&gt;Node_8</title>
<path fill="none" stroke="tan" d="M142.33,-292.313C148.71,-283.766 156.545,-273.269 163.597,-263.823"/>
<polygon fill="tan" stroke="tan" points="166.611,-265.636 169.788,-255.529 161.002,-261.449 166.611,-265.636"/>
</g>
<!-- Node_7 -->
<g id="node8" class="node"><title>Node_7</title>
<path fill="moccasin" stroke="moccasin" d="M18,-146.5C18,-146.5 69,-146.5 69,-146.5 75,-146.5 81,-152.5 81,-158.5 81,-158.5 81,-170.5 81,-170.5 81,-176.5 75,-182.5 69,-182.5 69,-182.5 18,-182.5 18,-182.5 12,-182.5 6,-176.5 6,-170.5 6,-170.5 6,-158.5 6,-158.5 6,-152.5 12,-146.5 18,-146.5"/>
<text text-anchor="middle" x="43.5" y="-162.3" font-family="Arial" font-size="9.00">k_1_t: [&#45;inf, inf]</text>
</g>
<!-- Node_6&#45;&gt;Node_7 -->
<g id="edge4" class="edge"><title>Node_6&#45;&gt;Node_7</title>
<path fill="none" stroke="steelblue" d="M70.0275,-219.313C65.9433,-211.028 60.9558,-200.91 56.4122,-191.693"/>
<polygon fill="steelblue" stroke="steelblue" points="59.4554,-189.951 51.8945,-182.529 53.1768,-193.046 59.4554,-189.951"/>
</g>
<!-- Node_7&#45;&gt;Node_0 -->
<g id="edge8" class="edge"><title>Node_7&#45;&gt;Node_0</title>
<path fill="none" stroke="tan" d="M36.4172,-182.903C26.1901,-209.647 8.5,-262.675 8.5,-309.5 8.5,-384.5 8.5,-384.5 8.5,-384.5 8.5,-426.18 21.0653,-473.156 30.1964,-501.79"/>
<polygon fill="tan" stroke="tan" points="26.9288,-503.058 33.3754,-511.466 33.5791,-500.873 26.9288,-503.058"/>
</g>
<!-- Node_9 -->
<g id="node10" class="node"><title>Node_9</title>
<path fill="moccasin" stroke="moccasin" d="M157,-146.5C157,-146.5 208,-146.5 208,-146.5 214,-146.5 220,-152.5 220,-158.5 220,-158.5 220,-170.5 220,-170.5 220,-176.5 214,-182.5 208,-182.5 208,-182.5 157,-182.5 157,-182.5 151,-182.5 145,-176.5 145,-170.5 145,-170.5 145,-158.5 145,-158.5 145,-152.5 151,-146.5 157,-146.5"/>
<text text-anchor="middle" x="182.5" y="-162.3" font-family="Arial" font-size="9.00">k_1_f: [&#45;inf, inf]</text>
</g>
<!-- Node_8&#45;&gt;Node_9 -->
<g id="edge5" class="edge"><title>Node_8&#45;&gt;Node_9</title>
<path fill="none" stroke="steelblue" d="M182.5,-219.313C182.5,-211.289 182.5,-201.547 182.5,-192.569"/>
<polygon fill="steelblue" stroke="steelblue" points="186,-192.529 182.5,-182.529 179,-192.529 186,-192.529"/>
</g>
<!-- Node_9&#45;&gt;Node_2 -->
<g id="edge7" class="edge"><title>Node_9&#45;&gt;Node_2</title>
<path fill="none" stroke="tan" d="M182.5,-146.313C182.5,-138.289 182.5,-128.547 182.5,-119.569"/>
<polygon fill="tan" stroke="tan" points="186,-119.529 182.5,-109.529 179,-119.529 186,-119.529"/>
</g>
<!-- Node_10 -->
<g id="node11" class="node"><title>Node_10</title>
<path fill="lightblue" stroke="lightblue" d="M141.5,-511.5C141.5,-511.5 171.5,-511.5 171.5,-511.5 177.5,-511.5 183.5,-517.5 183.5,-523.5 183.5,-523.5 183.5,-535.5 183.5,-535.5 183.5,-541.5 177.5,-547.5 171.5,-547.5 171.5,-547.5 141.5,-547.5 141.5,-547.5 135.5,-547.5 129.5,-541.5 129.5,-535.5 129.5,-535.5 129.5,-523.5 129.5,-523.5 129.5,-517.5 135.5,-511.5 141.5,-511.5"/>
<text text-anchor="middle" x="156.5" y="-527.3" font-family="Arial" font-size="9.00">k_2 = 0</text>
</g>
<!-- Node_11 -->
<g id="node12" class="node"><title>Node_11</title>
<path fill="moccasin" stroke="moccasin" d="M134.5,-438.5C134.5,-438.5 178.5,-438.5 178.5,-438.5 184.5,-438.5 190.5,-444.5 190.5,-450.5 190.5,-450.5 190.5,-462.5 190.5,-462.5 190.5,-468.5 184.5,-474.5 178.5,-474.5 178.5,-474.5 134.5,-474.5 134.5,-474.5 128.5,-474.5 122.5,-468.5 122.5,-462.5 122.5,-462.5 122.5,-450.5 122.5,-450.5 122.5,-444.5 128.5,-438.5 134.5,-438.5"/>
<text text-anchor="middle" x="156.5" y="-454.3" font-family="Arial" font-size="9.00">k_2: [&#45;inf, inf]</text>
</g>
<!-- Node_10&#45;&gt;Node_11 -->
<g id="edge6" class="edge"><title>Node_10&#45;&gt;Node_11</title>
<path fill="none" stroke="steelblue" d="M156.5,-511.313C156.5,-503.289 156.5,-493.547 156.5,-484.569"/>
<polygon fill="steelblue" stroke="steelblue" points="160,-484.529 156.5,-474.529 153,-484.529 160,-484.529"/>
</g>
<!-- Node_11&#45;&gt;Node_4 -->
<g id="edge9" class="edge"><title>Node_11&#45;&gt;Node_4</title>
<path fill="none" stroke="tan" d="M149.964,-438.313C146.847,-430.115 143.047,-420.123 139.572,-410.985"/>
<polygon fill="tan" stroke="tan" points="142.802,-409.632 135.976,-401.529 136.259,-412.12 142.802,-409.632"/>
</g>
</g>
</svg>
