<?xml version="1.0" encoding="UTF-8" standalone="no"?>
<!DOCTYPE svg PUBLIC "-//W3C//DTD SVG 1.1//EN"
 "http://www.w3.org/Graphics/SVG/1.1/DTD/svg11.dtd">
<!-- Generated by graphviz version 2.38.0 (20140413.2041)
 -->
<!-- Title: t6_foo_ConstraintGraph Pages: 1 -->
<svg width="856pt" height="556pt"
     viewBox="0.00 0.00 855.50 556.00" xmlns="http://www.w3.org/2000/svg">
<g id="graph0" class="graph" transform="scale(1 1) rotate(0) translate(4 552)">
<title>t6_foo_ConstraintGraph</title>
<polygon fill="white" stroke="none" points="-4,4 -4,-552 851.5,-552 851.5,4 -4,4"/>
<!-- Node_0 -->
<g id="node1" class="node"><title>Node_0</title>
<path fill="lightblue" stroke="lightblue" d="M441,-365.5C441,-365.5 506,-365.5 506,-365.5 512,-365.5 518,-371.5 518,-377.5 518,-377.5 518,-389.5 518,-389.5 518,-395.5 512,-401.5 506,-401.5 506,-401.5 441,-401.5 441,-401.5 435,-401.5 429,-395.5 429,-389.5 429,-389.5 429,-377.5 429,-377.5 429,-371.5 435,-365.5 441,-365.5"/>
<text text-anchor="middle" x="473.5" y="-381.3" font-family="Arial" font-size="9.00">sum_9 = i_8 &#45; j_3</text>
</g>
<!-- Node_1 -->
<g id="node2" class="node"><title>Node_1</title>
<path fill="moccasin" stroke="moccasin" d="M419.5,-292.5C419.5,-292.5 477.5,-292.5 477.5,-292.5 483.5,-292.5 489.5,-298.5 489.5,-304.5 489.5,-304.5 489.5,-316.5 489.5,-316.5 489.5,-322.5 483.5,-328.5 477.5,-328.5 477.5,-328.5 419.5,-328.5 419.5,-328.5 413.5,-328.5 407.5,-322.5 407.5,-316.5 407.5,-316.5 407.5,-304.5 407.5,-304.5 407.5,-298.5 413.5,-292.5 419.5,-292.5"/>
<text text-anchor="middle" x="448.5" y="-308.3" font-family="Arial" font-size="9.00">sum_9: [&#45;inf, inf]</text>
</g>
<!-- Node_0&#45;&gt;Node_1 -->
<g id="edge1" class="edge"><title>Node_0&#45;&gt;Node_1</title>
<path fill="none" stroke="steelblue" d="M467.448,-365.313C464.562,-357.115 461.043,-347.123 457.826,-337.985"/>
<polygon fill="steelblue" stroke="steelblue" points="461.119,-336.799 454.496,-328.529 454.516,-339.124 461.119,-336.799"/>
</g>
<!-- Node_8 -->
<g id="node9" class="node"><title>Node_8</title>
<path fill="lightblue" stroke="lightblue" d="M310.5,-219.5C310.5,-219.5 462.5,-219.5 462.5,-219.5 468.5,-219.5 474.5,-225.5 474.5,-231.5 474.5,-231.5 474.5,-243.5 474.5,-243.5 474.5,-249.5 468.5,-255.5 462.5,-255.5 462.5,-255.5 310.5,-255.5 310.5,-255.5 304.5,-255.5 298.5,-249.5 298.5,-243.5 298.5,-243.5 298.5,-231.5 298.5,-231.5 298.5,-225.5 304.5,-219.5 310.5,-219.5"/>
<text text-anchor="middle" x="386.5" y="-235.3" font-family="Arial" font-size="9.00"># sum_1 = PHI &lt;sum_7(3), sum_9(4)&gt;</text>
</g>
<!-- Node_1&#45;&gt;Node_8 -->
<g id="edge11" class="edge"><title>Node_1&#45;&gt;Node_8</title>
<path fill="none" stroke="tan" d="M433.492,-292.313C425.876,-283.592 416.487,-272.84 408.109,-263.246"/>
<polygon fill="tan" stroke="tan" points="410.584,-260.759 401.37,-255.529 405.311,-265.363 410.584,-260.759"/>
</g>
<!-- Node_2 -->
<g id="node3" class="node"><title>Node_2</title>
<path fill="lightblue" stroke="lightblue" d="M354,-73.5C354,-73.5 419,-73.5 419,-73.5 425,-73.5 431,-79.5 431,-85.5 431,-85.5 431,-97.5 431,-97.5 431,-103.5 425,-109.5 419,-109.5 419,-109.5 354,-109.5 354,-109.5 348,-109.5 342,-103.5 342,-97.5 342,-97.5 342,-85.5 342,-85.5 342,-79.5 348,-73.5 354,-73.5"/>
<text text-anchor="middle" x="386.5" y="-89.3" font-family="Arial" font-size="9.00">_10 = (int) sum_1</text>
</g>
<!-- Node_3 -->
<g id="node4" class="node"><title>Node_3</title>
<path fill="moccasin" stroke="moccasin" d="M364.5,-0.5C364.5,-0.5 408.5,-0.5 408.5,-0.5 414.5,-0.5 420.5,-6.5 420.5,-12.5 420.5,-12.5 420.5,-24.5 420.5,-24.5 420.5,-30.5 414.5,-36.5 408.5,-36.5 408.5,-36.5 364.5,-36.5 364.5,-36.5 358.5,-36.5 352.5,-30.5 352.5,-24.5 352.5,-24.5 352.5,-12.5 352.5,-12.5 352.5,-6.5 358.5,-0.5 364.5,-0.5"/>
<text text-anchor="middle" x="386.5" y="-16.3" font-family="Arial" font-size="9.00">_10: [&#45;inf, inf]</text>
</g>
<!-- Node_2&#45;&gt;Node_3 -->
<g id="edge2" class="edge"><title>Node_2&#45;&gt;Node_3</title>
<path fill="none" stroke="steelblue" d="M386.5,-73.3129C386.5,-65.2895 386.5,-55.5475 386.5,-46.5691"/>
<polygon fill="steelblue" stroke="steelblue" points="390,-46.5288 386.5,-36.5288 383,-46.5289 390,-46.5288"/>
</g>
<!-- Node_4 -->
<g id="node5" class="node"><title>Node_4</title>
<path fill="lightblue" stroke="lightblue" d="M784.5,-511.5C784.5,-511.5 828.5,-511.5 828.5,-511.5 834.5,-511.5 840.5,-517.5 840.5,-523.5 840.5,-523.5 840.5,-535.5 840.5,-535.5 840.5,-541.5 834.5,-547.5 828.5,-547.5 828.5,-547.5 784.5,-547.5 784.5,-547.5 778.5,-547.5 772.5,-541.5 772.5,-535.5 772.5,-535.5 772.5,-523.5 772.5,-523.5 772.5,-517.5 778.5,-511.5 784.5,-511.5"/>
<text text-anchor="middle" x="806.5" y="-527.3" font-family="Arial" font-size="9.00">sum_4 = 0.0</text>
</g>
<!-- Node_5 -->
<g id="node6" class="node"><title>Node_5</title>
<path fill="moccasin" stroke="moccasin" d="M777.5,-438.5C777.5,-438.5 835.5,-438.5 835.5,-438.5 841.5,-438.5 847.5,-444.5 847.5,-450.5 847.5,-450.5 847.5,-462.5 847.5,-462.5 847.5,-468.5 841.5,-474.5 835.5,-474.5 835.5,-474.5 777.5,-474.5 777.5,-474.5 771.5,-474.5 765.5,-468.5 765.5,-462.5 765.5,-462.5 765.5,-450.5 765.5,-450.5 765.5,-444.5 771.5,-438.5 777.5,-438.5"/>
<text text-anchor="middle" x="806.5" y="-454.3" font-family="Arial" font-size="9.00">sum_4: [&#45;inf, inf]</text>
</g>
<!-- Node_4&#45;&gt;Node_5 -->
<g id="edge3" class="edge"><title>Node_4&#45;&gt;Node_5</title>
<path fill="none" stroke="steelblue" d="M806.5,-511.313C806.5,-503.289 806.5,-493.547 806.5,-484.569"/>
<polygon fill="steelblue" stroke="steelblue" points="810,-484.529 806.5,-474.529 803,-484.529 810,-484.529"/>
</g>
<!-- Node_6 -->
<g id="node7" class="node"><title>Node_6</title>
<path fill="lightblue" stroke="lightblue" d="M396.5,-511.5C396.5,-511.5 550.5,-511.5 550.5,-511.5 556.5,-511.5 562.5,-517.5 562.5,-523.5 562.5,-523.5 562.5,-535.5 562.5,-535.5 562.5,-541.5 556.5,-547.5 550.5,-547.5 550.5,-547.5 396.5,-547.5 396.5,-547.5 390.5,-547.5 384.5,-541.5 384.5,-535.5 384.5,-535.5 384.5,-523.5 384.5,-523.5 384.5,-517.5 390.5,-511.5 396.5,-511.5"/>
<text text-anchor="middle" x="473.5" y="-527.3" font-family="Arial" font-size="9.00">i_8 = 1.2000000476837158203125e+0</text>
</g>
<!-- Node_7 -->
<g id="node8" class="node"><title>Node_7</title>
<path fill="moccasin" stroke="moccasin" d="M453,-438.5C453,-438.5 494,-438.5 494,-438.5 500,-438.5 506,-444.5 506,-450.5 506,-450.5 506,-462.5 506,-462.5 506,-468.5 500,-474.5 494,-474.5 494,-474.5 453,-474.5 453,-474.5 447,-474.5 441,-468.5 441,-462.5 441,-462.5 441,-450.5 441,-450.5 441,-444.5 447,-438.5 453,-438.5"/>
<text text-anchor="middle" x="473.5" y="-454.3" font-family="Arial" font-size="9.00">i_8: [&#45;inf, inf]</text>
</g>
<!-- Node_6&#45;&gt;Node_7 -->
<g id="edge4" class="edge"><title>Node_6&#45;&gt;Node_7</title>
<path fill="none" stroke="steelblue" d="M473.5,-511.313C473.5,-503.289 473.5,-493.547 473.5,-484.569"/>
<polygon fill="steelblue" stroke="steelblue" points="477,-484.529 473.5,-474.529 470,-484.529 477,-484.529"/>
</g>
<!-- Node_7&#45;&gt;Node_0 -->
<g id="edge15" class="edge"><title>Node_7&#45;&gt;Node_0</title>
<path fill="none" stroke="tan" d="M473.5,-438.313C473.5,-430.289 473.5,-420.547 473.5,-411.569"/>
<polygon fill="tan" stroke="tan" points="477,-411.529 473.5,-401.529 470,-411.529 477,-411.529"/>
</g>
<!-- Node_9 -->
<g id="node10" class="node"><title>Node_9</title>
<path fill="moccasin" stroke="moccasin" d="M357.5,-146.5C357.5,-146.5 415.5,-146.5 415.5,-146.5 421.5,-146.5 427.5,-152.5 427.5,-158.5 427.5,-158.5 427.5,-170.5 427.5,-170.5 427.5,-176.5 421.5,-182.5 415.5,-182.5 415.5,-182.5 357.5,-182.5 357.5,-182.5 351.5,-182.5 345.5,-176.5 345.5,-170.5 345.5,-170.5 345.5,-158.5 345.5,-158.5 345.5,-152.5 351.5,-146.5 357.5,-146.5"/>
<text text-anchor="middle" x="386.5" y="-162.3" font-family="Arial" font-size="9.00">sum_1: [&#45;inf, inf]</text>
</g>
<!-- Node_8&#45;&gt;Node_9 -->
<g id="edge5" class="edge"><title>Node_8&#45;&gt;Node_9</title>
<path fill="none" stroke="steelblue" d="M386.5,-219.313C386.5,-211.289 386.5,-201.547 386.5,-192.569"/>
<polygon fill="steelblue" stroke="steelblue" points="390,-192.529 386.5,-182.529 383,-192.529 390,-192.529"/>
</g>
<!-- Node_9&#45;&gt;Node_2 -->
<g id="edge14" class="edge"><title>Node_9&#45;&gt;Node_2</title>
<path fill="none" stroke="tan" d="M386.5,-146.313C386.5,-138.289 386.5,-128.547 386.5,-119.569"/>
<polygon fill="tan" stroke="tan" points="390,-119.529 386.5,-109.529 383,-119.529 390,-119.529"/>
</g>
<!-- Node_10 -->
<g id="node11" class="node"><title>Node_10</title>
<path fill="lightblue" stroke="lightblue" d="M593,-511.5C593,-511.5 742,-511.5 742,-511.5 748,-511.5 754,-517.5 754,-523.5 754,-523.5 754,-535.5 754,-535.5 754,-541.5 748,-547.5 742,-547.5 742,-547.5 593,-547.5 593,-547.5 587,-547.5 581,-541.5 581,-535.5 581,-535.5 581,-523.5 581,-523.5 581,-517.5 587,-511.5 593,-511.5"/>
<text text-anchor="middle" x="667.5" y="-527.3" font-family="Arial" font-size="9.00">j_3 = 1.019999980926513671875e+1</text>
</g>
<!-- Node_11 -->
<g id="node12" class="node"><title>Node_11</title>
<path fill="moccasin" stroke="moccasin" d="M591,-438.5C591,-438.5 632,-438.5 632,-438.5 638,-438.5 644,-444.5 644,-450.5 644,-450.5 644,-462.5 644,-462.5 644,-468.5 638,-474.5 632,-474.5 632,-474.5 591,-474.5 591,-474.5 585,-474.5 579,-468.5 579,-462.5 579,-462.5 579,-450.5 579,-450.5 579,-444.5 585,-438.5 591,-438.5"/>
<text text-anchor="middle" x="611.5" y="-454.3" font-family="Arial" font-size="9.00">j_3: [&#45;inf, inf]</text>
</g>
<!-- Node_10&#45;&gt;Node_11 -->
<g id="edge6" class="edge"><title>Node_10&#45;&gt;Node_11</title>
<path fill="none" stroke="steelblue" d="M653.944,-511.313C647.134,-502.679 638.755,-492.055 631.245,-482.534"/>
<polygon fill="steelblue" stroke="steelblue" points="633.872,-480.213 624.931,-474.529 628.376,-484.548 633.872,-480.213"/>
</g>
<!-- Node_11&#45;&gt;Node_0 -->
<g id="edge12" class="edge"><title>Node_11&#45;&gt;Node_0</title>
<path fill="none" stroke="tan" d="M578.796,-438.674C559.996,-429.001 536.17,-416.743 515.939,-406.335"/>
<polygon fill="tan" stroke="tan" points="517.421,-403.161 506.928,-401.698 514.219,-409.386 517.421,-403.161"/>
</g>
<!-- Node_12 -->
<g id="node13" class="node"><title>Node_12</title>
<path fill="lightblue" stroke="lightblue" d="M242,-365.5C242,-365.5 309,-365.5 309,-365.5 315,-365.5 321,-371.5 321,-377.5 321,-377.5 321,-389.5 321,-389.5 321,-395.5 315,-401.5 309,-401.5 309,-401.5 242,-401.5 242,-401.5 236,-401.5 230,-395.5 230,-389.5 230,-389.5 230,-377.5 230,-377.5 230,-371.5 236,-365.5 242,-365.5"/>
<text text-anchor="middle" x="275.5" y="-381.3" font-family="Arial" font-size="9.00">sum_7 = i_2 + j_6</text>
</g>
<!-- Node_13 -->
<g id="node14" class="node"><title>Node_13</title>
<path fill="moccasin" stroke="moccasin" d="M295.5,-292.5C295.5,-292.5 353.5,-292.5 353.5,-292.5 359.5,-292.5 365.5,-298.5 365.5,-304.5 365.5,-304.5 365.5,-316.5 365.5,-316.5 365.5,-322.5 359.5,-328.5 353.5,-328.5 353.5,-328.5 295.5,-328.5 295.5,-328.5 289.5,-328.5 283.5,-322.5 283.5,-316.5 283.5,-316.5 283.5,-304.5 283.5,-304.5 283.5,-298.5 289.5,-292.5 295.5,-292.5"/>
<text text-anchor="middle" x="324.5" y="-308.3" font-family="Arial" font-size="9.00">sum_7: [&#45;inf, inf]</text>
</g>
<!-- Node_12&#45;&gt;Node_13 -->
<g id="edge7" class="edge"><title>Node_12&#45;&gt;Node_13</title>
<path fill="none" stroke="steelblue" d="M287.362,-365.313C293.26,-356.766 300.504,-346.269 307.024,-336.823"/>
<polygon fill="steelblue" stroke="steelblue" points="309.948,-338.747 312.748,-328.529 304.187,-334.771 309.948,-338.747"/>
</g>
<!-- Node_13&#45;&gt;Node_8 -->
<g id="edge16" class="edge"><title>Node_13&#45;&gt;Node_8</title>
<path fill="none" stroke="tan" d="M339.508,-292.313C347.124,-283.592 356.513,-272.84 364.891,-263.246"/>
<polygon fill="tan" stroke="tan" points="367.689,-265.363 371.63,-255.529 362.416,-260.759 367.689,-265.363"/>
</g>
<!-- Node_14 -->
<g id="node15" class="node"><title>Node_14</title>
<path fill="lightblue" stroke="lightblue" d="M12,-511.5C12,-511.5 155,-511.5 155,-511.5 161,-511.5 167,-517.5 167,-523.5 167,-523.5 167,-535.5 167,-535.5 167,-541.5 161,-547.5 155,-547.5 155,-547.5 12,-547.5 12,-547.5 6,-547.5 0,-541.5 0,-535.5 0,-535.5 0,-523.5 0,-523.5 0,-517.5 6,-511.5 12,-511.5"/>
<text text-anchor="middle" x="83.5" y="-527.3" font-family="Arial" font-size="9.00">j_6 = 9.19999980926513671875e+0</text>
</g>
<!-- Node_15 -->
<g id="node16" class="node"><title>Node_15</title>
<path fill="moccasin" stroke="moccasin" d="M118,-438.5C118,-438.5 159,-438.5 159,-438.5 165,-438.5 171,-444.5 171,-450.5 171,-450.5 171,-462.5 171,-462.5 171,-468.5 165,-474.5 159,-474.5 159,-474.5 118,-474.5 118,-474.5 112,-474.5 106,-468.5 106,-462.5 106,-462.5 106,-450.5 106,-450.5 106,-444.5 112,-438.5 118,-438.5"/>
<text text-anchor="middle" x="138.5" y="-454.3" font-family="Arial" font-size="9.00">j_6: [&#45;inf, inf]</text>
</g>
<!-- Node_14&#45;&gt;Node_15 -->
<g id="edge8" class="edge"><title>Node_14&#45;&gt;Node_15</title>
<path fill="none" stroke="steelblue" d="M96.814,-511.313C103.502,-502.679 111.732,-492.055 119.107,-482.534"/>
<polygon fill="steelblue" stroke="steelblue" points="121.952,-484.578 125.309,-474.529 116.418,-480.291 121.952,-484.578"/>
</g>
<!-- Node_15&#45;&gt;Node_12 -->
<g id="edge13" class="edge"><title>Node_15&#45;&gt;Node_12</title>
<path fill="none" stroke="tan" d="M171.315,-438.494C189.987,-428.817 213.567,-416.597 233.57,-406.23"/>
<polygon fill="tan" stroke="tan" points="235.21,-409.322 242.478,-401.614 231.989,-403.107 235.21,-409.322"/>
</g>
<!-- Node_16 -->
<g id="node17" class="node"><title>Node_16</title>
<path fill="lightblue" stroke="lightblue" d="M197,-511.5C197,-511.5 354,-511.5 354,-511.5 360,-511.5 366,-517.5 366,-523.5 366,-523.5 366,-535.5 366,-535.5 366,-541.5 360,-547.5 354,-547.5 354,-547.5 197,-547.5 197,-547.5 191,-547.5 185,-541.5 185,-535.5 185,-535.5 185,-523.5 185,-523.5 185,-517.5 191,-511.5 197,-511.5"/>
<text text-anchor="middle" x="275.5" y="-527.3" font-family="Arial" font-size="9.00">i_2 = 8.00000011920928955078125e&#45;1</text>
</g>
<!-- Node_17 -->
<g id="node18" class="node"><title>Node_17</title>
<path fill="moccasin" stroke="moccasin" d="M255,-438.5C255,-438.5 296,-438.5 296,-438.5 302,-438.5 308,-444.5 308,-450.5 308,-450.5 308,-462.5 308,-462.5 308,-468.5 302,-474.5 296,-474.5 296,-474.5 255,-474.5 255,-474.5 249,-474.5 243,-468.5 243,-462.5 243,-462.5 243,-450.5 243,-450.5 243,-444.5 249,-438.5 255,-438.5"/>
<text text-anchor="middle" x="275.5" y="-454.3" font-family="Arial" font-size="9.00">i_2: [&#45;inf, inf]</text>
</g>
<!-- Node_16&#45;&gt;Node_17 -->
<g id="edge9" class="edge"><title>Node_16&#45;&gt;Node_17</title>
<path fill="none" stroke="steelblue" d="M275.5,-511.313C275.5,-503.289 275.5,-493.547 275.5,-484.569"/>
<polygon fill="steelblue" stroke="steelblue" points="279,-484.529 275.5,-474.529 272,-484.529 279,-484.529"/>
</g>
<!-- Node_17&#45;&gt;Node_12 -->
<g id="edge10" class="edge"><title>Node_17&#45;&gt;Node_12</title>
<path fill="none" stroke="tan" d="M275.5,-438.313C275.5,-430.289 275.5,-420.547 275.5,-411.569"/>
<polygon fill="tan" stroke="tan" points="279,-411.529 275.5,-401.529 272,-411.529 279,-411.529"/>
</g>
</g>
</svg>
