<?xml version="1.0" encoding="UTF-8" standalone="no"?>
<!DOCTYPE svg PUBLIC "-//W3C//DTD SVG 1.1//EN"
 "http://www.w3.org/Graphics/SVG/1.1/DTD/svg11.dtd">
<!-- Generated by graphviz version 2.38.0 (20140413.2041)
 -->
<!-- Title: t6_foo_graph Pages: 1 -->
<svg width="372pt" height="518pt"
 viewBox="0.00 0.00 371.50 518.00" xmlns="http://www.w3.org/2000/svg" xmlns:xlink="http://www.w3.org/1999/xlink">
<g id="graph0" class="graph" transform="scale(1 1) rotate(0) translate(4 514)">
<title>t6_foo_graph</title>
<polygon fill="white" stroke="none" points="-4,4 -4,-514 367.5,-514 367.5,4 -4,4"/>
<!-- Node_0 -->
<g id="node1" class="node"><title>Node_0</title>
<path fill="mintcream" stroke="orange" d="M163.5,-473.5C163.5,-473.5 193.5,-473.5 193.5,-473.5 199.5,-473.5 205.5,-479.5 205.5,-485.5 205.5,-485.5 205.5,-497.5 205.5,-497.5 205.5,-503.5 199.5,-509.5 193.5,-509.5 193.5,-509.5 163.5,-509.5 163.5,-509.5 157.5,-509.5 151.5,-503.5 151.5,-497.5 151.5,-497.5 151.5,-485.5 151.5,-485.5 151.5,-479.5 157.5,-473.5 163.5,-473.5"/>
<text text-anchor="middle" x="178.5" y="-489.3" font-family="Arial" font-size="9.00">&lt;Entry&gt;</text>
</g>
<!-- Node_1 -->
<g id="node2" class="node"><title>Node_1</title>
<path fill="mintcream" stroke="black" d="M85.5,-346.5C85.5,-346.5 271.5,-346.5 271.5,-346.5 277.5,-346.5 283.5,-352.5 283.5,-358.5 283.5,-358.5 283.5,-424.5 283.5,-424.5 283.5,-430.5 277.5,-436.5 271.5,-436.5 271.5,-436.5 85.5,-436.5 85.5,-436.5 79.5,-436.5 73.5,-430.5 73.5,-424.5 73.5,-424.5 73.5,-358.5 73.5,-358.5 73.5,-352.5 79.5,-346.5 85.5,-346.5"/>
<text text-anchor="middle" x="178.5" y="-425.3" font-family="Arial" font-size="9.00">&lt;bb 2&gt;</text>
<polyline fill="none" stroke="black" points="73.5,-418.5 283.5,-418.5 "/>
<text text-anchor="middle" x="178.5" y="-407.3" font-family="Arial" font-size="9.00">i_2 = 8.00000011920928955078125e&#45;1</text>
<polyline fill="none" stroke="black" points="73.5,-400.5 283.5,-400.5 "/>
<text text-anchor="middle" x="178.5" y="-389.3" font-family="Arial" font-size="9.00">j_3 = 1.019999980926513671875e+1</text>
<polyline fill="none" stroke="black" points="73.5,-382.5 283.5,-382.5 "/>
<text text-anchor="middle" x="178.5" y="-371.3" font-family="Arial" font-size="9.00">sum_4 = 0.0</text>
<polyline fill="none" stroke="black" points="73.5,-364.5 283.5,-364.5 "/>
<text text-anchor="middle" x="178.5" y="-353.3" font-family="Arial" font-size="9.00">if (argc_5(D) != 0) goto &lt;bb 3&gt; else goto &lt;bb 4&gt;</text>
</g>
<!-- Node_0&#45;&gt;Node_1 -->
<g id="edge1" class="edge"><title>Node_0&#45;&gt;Node_1</title>
<path fill="none" stroke="black" d="M178.5,-473.43C178.5,-465.859 178.5,-456.488 178.5,-446.837"/>
<polygon fill="black" stroke="black" points="182,-446.742 178.5,-436.742 175,-446.742 182,-446.742"/>
</g>
<!-- Node_2 -->
<g id="node3" class="node"><title>Node_2</title>
<path fill="mintcream" stroke="black" d="M12,-237.5C12,-237.5 155,-237.5 155,-237.5 161,-237.5 167,-243.5 167,-249.5 167,-249.5 167,-297.5 167,-297.5 167,-303.5 161,-309.5 155,-309.5 155,-309.5 12,-309.5 12,-309.5 6,-309.5 0,-303.5 0,-297.5 0,-297.5 0,-249.5 0,-249.5 0,-243.5 6,-237.5 12,-237.5"/>
<text text-anchor="middle" x="83.5" y="-298.3" font-family="Arial" font-size="9.00">&lt;bb 3&gt;</text>
<polyline fill="none" stroke="black" points="0,-291.5 167,-291.5 "/>
<text text-anchor="middle" x="83.5" y="-280.3" font-family="Arial" font-size="9.00">j_6 = 9.19999980926513671875e+0</text>
<polyline fill="none" stroke="black" points="0,-273.5 167,-273.5 "/>
<text text-anchor="middle" x="83.5" y="-262.3" font-family="Arial" font-size="9.00">sum_7 = i_2 + j_6</text>
<polyline fill="none" stroke="black" points="0,-255.5 167,-255.5 "/>
<text text-anchor="middle" x="83.5" y="-244.3" font-family="Arial" font-size="9.00">goto &lt;bb 5&gt;</text>
</g>
<!-- Node_1&#45;&gt;Node_2 -->
<g id="edge2" class="edge"><title>Node_1&#45;&gt;Node_2</title>
<path fill="none" stroke="crimson" d="M142.314,-346.314C134.53,-336.811 126.316,-326.781 118.576,-317.33"/>
<polygon fill="crimson" stroke="crimson" points="121.249,-315.07 112.206,-309.551 115.834,-319.505 121.249,-315.07"/>
</g>
<!-- Node_6 -->
<g id="node7" class="node"><title>Node_6</title>
<path fill="mintcream" stroke="black" d="M197.5,-246.5C197.5,-246.5 351.5,-246.5 351.5,-246.5 357.5,-246.5 363.5,-252.5 363.5,-258.5 363.5,-258.5 363.5,-288.5 363.5,-288.5 363.5,-294.5 357.5,-300.5 351.5,-300.5 351.5,-300.5 197.5,-300.5 197.5,-300.5 191.5,-300.5 185.5,-294.5 185.5,-288.5 185.5,-288.5 185.5,-258.5 185.5,-258.5 185.5,-252.5 191.5,-246.5 197.5,-246.5"/>
<text text-anchor="middle" x="274.5" y="-289.3" font-family="Arial" font-size="9.00">&lt;bb 4&gt;</text>
<polyline fill="none" stroke="black" points="185.5,-282.5 363.5,-282.5 "/>
<text text-anchor="middle" x="274.5" y="-271.3" font-family="Arial" font-size="9.00">i_8 = 1.2000000476837158203125e+0</text>
<polyline fill="none" stroke="black" points="185.5,-264.5 363.5,-264.5 "/>
<text text-anchor="middle" x="274.5" y="-253.3" font-family="Arial" font-size="9.00">sum_9 = i_8 &#45; j_3</text>
</g>
<!-- Node_1&#45;&gt;Node_6 -->
<g id="edge6" class="edge"><title>Node_1&#45;&gt;Node_6</title>
<path fill="none" stroke="teal" d="M215.067,-346.314C225.4,-333.829 236.483,-320.437 246.246,-308.64"/>
<polygon fill="teal" stroke="teal" points="249.089,-310.694 252.769,-300.759 243.697,-306.231 249.089,-310.694"/>
</g>
<!-- Node_3 -->
<g id="node4" class="node"><title>Node_3</title>
<path fill="mintcream" stroke="black" d="M102.5,-146.5C102.5,-146.5 254.5,-146.5 254.5,-146.5 260.5,-146.5 266.5,-152.5 266.5,-158.5 266.5,-158.5 266.5,-188.5 266.5,-188.5 266.5,-194.5 260.5,-200.5 254.5,-200.5 254.5,-200.5 102.5,-200.5 102.5,-200.5 96.5,-200.5 90.5,-194.5 90.5,-188.5 90.5,-188.5 90.5,-158.5 90.5,-158.5 90.5,-152.5 96.5,-146.5 102.5,-146.5"/>
<text text-anchor="middle" x="178.5" y="-189.3" font-family="Arial" font-size="9.00">&lt;bb 5&gt;</text>
<polyline fill="none" stroke="black" points="90.5,-182.5 266.5,-182.5 "/>
<text text-anchor="middle" x="178.5" y="-171.3" font-family="Arial" font-size="9.00"># sum_1 = PHI &lt;sum_7(3), sum_9(4)&gt;</text>
<polyline fill="none" stroke="black" points="90.5,-164.5 266.5,-164.5 "/>
<text text-anchor="middle" x="178.5" y="-153.3" font-family="Arial" font-size="9.00">_10 = (int) sum_1</text>
</g>
<!-- Node_2&#45;&gt;Node_3 -->
<g id="edge3" class="edge"><title>Node_2&#45;&gt;Node_3</title>
<path fill="none" stroke="black" d="M117.529,-237.397C126.771,-227.862 136.755,-217.563 145.915,-208.114"/>
<polygon fill="black" stroke="black" points="148.608,-210.364 153.055,-200.748 143.582,-205.492 148.608,-210.364"/>
</g>
<!-- Node_4 -->
<g id="node5" class="node"><title>Node_4</title>
<path fill="mintcream" stroke="black" d="M161,-73.5C161,-73.5 196,-73.5 196,-73.5 202,-73.5 208,-79.5 208,-85.5 208,-85.5 208,-97.5 208,-97.5 208,-103.5 202,-109.5 196,-109.5 196,-109.5 161,-109.5 161,-109.5 155,-109.5 149,-103.5 149,-97.5 149,-97.5 149,-85.5 149,-85.5 149,-79.5 155,-73.5 161,-73.5"/>
<text text-anchor="middle" x="178.5" y="-98.3" font-family="Arial" font-size="9.00">&lt;L3&gt;</text>
<polyline fill="none" stroke="black" points="149,-91.5 208,-91.5 "/>
<text text-anchor="middle" x="178.5" y="-80.3" font-family="Arial" font-size="9.00">return _10</text>
</g>
<!-- Node_3&#45;&gt;Node_4 -->
<g id="edge4" class="edge"><title>Node_3&#45;&gt;Node_4</title>
<path fill="none" stroke="black" d="M178.5,-146.305C178.5,-137.846 178.5,-128.449 178.5,-119.905"/>
<polygon fill="black" stroke="black" points="182,-119.674 178.5,-109.674 175,-119.674 182,-119.674"/>
</g>
<!-- Node_5 -->
<g id="node6" class="node"><title>Node_5</title>
<path fill="mintcream" stroke="#1874cd" d="M163.5,-0.5C163.5,-0.5 193.5,-0.5 193.5,-0.5 199.5,-0.5 205.5,-6.5 205.5,-12.5 205.5,-12.5 205.5,-24.5 205.5,-24.5 205.5,-30.5 199.5,-36.5 193.5,-36.5 193.5,-36.5 163.5,-36.5 163.5,-36.5 157.5,-36.5 151.5,-30.5 151.5,-24.5 151.5,-24.5 151.5,-12.5 151.5,-12.5 151.5,-6.5 157.5,-0.5 163.5,-0.5"/>
<text text-anchor="middle" x="178.5" y="-16.3" font-family="Arial" font-size="9.00">&lt;Exit&gt;</text>
</g>
<!-- Node_4&#45;&gt;Node_5 -->
<g id="edge5" class="edge"><title>Node_4&#45;&gt;Node_5</title>
<path fill="none" stroke="black" d="M178.5,-73.3129C178.5,-65.2895 178.5,-55.5475 178.5,-46.5691"/>
<polygon fill="black" stroke="black" points="182,-46.5288 178.5,-36.5288 175,-46.5289 182,-46.5288"/>
</g>
<!-- Node_6&#45;&gt;Node_3 -->
<g id="edge7" class="edge"><title>Node_6&#45;&gt;Node_3</title>
<path fill="none" stroke="black" d="M249.026,-246.495C237.417,-234.645 223.535,-220.473 211.17,-207.851"/>
<polygon fill="black" stroke="black" points="213.591,-205.321 204.093,-200.626 208.591,-210.219 213.591,-205.321"/>
</g>
</g>
</svg>
