<?xml version="1.0" encoding="UTF-8" standalone="no"?>
<!DOCTYPE svg PUBLIC "-//W3C//DTD SVG 1.1//EN"
 "http://www.w3.org/Graphics/SVG/1.1/DTD/svg11.dtd">
<!-- Generated by graphviz version 2.38.0 (20140413.2041)
 -->
<!-- Title: t7_foo_ConstraintGraph Pages: 1 -->
<svg width="94pt" height="483pt"
     viewBox="0.00 0.00 94.00 483.00" xmlns="http://www.w3.org/2000/svg">
<g id="graph0" class="graph" transform="scale(1 1) rotate(0) translate(4 479)">
<title>t7_foo_ConstraintGraph</title>
<polygon fill="white" stroke="none" points="-4,4 -4,-479 90,-479 90,4 -4,4"/>
<!-- Node_0 -->
<g id="node1" class="node"><title>Node_0</title>
<path fill="lightblue" stroke="lightblue" d="M28,-73.5C28,-73.5 58,-73.5 58,-73.5 64,-73.5 70,-79.5 70,-85.5 70,-85.5 70,-97.5 70,-97.5 70,-103.5 64,-109.5 58,-109.5 58,-109.5 28,-109.5 28,-109.5 22,-109.5 16,-103.5 16,-97.5 16,-97.5 16,-85.5 16,-85.5 16,-79.5 22,-73.5 28,-73.5"/>
<text text-anchor="middle" x="43" y="-89.3" font-family="Arial" font-size="9.00">_7 = k_6</text>
</g>
<!-- Node_1 -->
<g id="node2" class="node"><title>Node_1</title>
<path fill="moccasin" stroke="moccasin" d="M23.5,-0.5C23.5,-0.5 62.5,-0.5 62.5,-0.5 68.5,-0.5 74.5,-6.5 74.5,-12.5 74.5,-12.5 74.5,-24.5 74.5,-24.5 74.5,-30.5 68.5,-36.5 62.5,-36.5 62.5,-36.5 23.5,-36.5 23.5,-36.5 17.5,-36.5 11.5,-30.5 11.5,-24.5 11.5,-24.5 11.5,-12.5 11.5,-12.5 11.5,-6.5 17.5,-0.5 23.5,-0.5"/>
<text text-anchor="middle" x="43" y="-16.3" font-family="Arial" font-size="9.00">_7: [&#45;inf, inf]</text>
</g>
<!-- Node_0&#45;&gt;Node_1 -->
<g id="edge1" class="edge"><title>Node_0&#45;&gt;Node_1</title>
<path fill="none" stroke="steelblue" d="M43,-73.3129C43,-65.2895 43,-55.5475 43,-46.5691"/>
<polygon fill="steelblue" stroke="steelblue" points="46.5001,-46.5288 43,-36.5288 39.5001,-46.5289 46.5001,-46.5288"/>
</g>
<!-- Node_2 -->
<g id="node3" class="node"><title>Node_2</title>
<path fill="lightblue" stroke="lightblue" d="M17,-219.5C17,-219.5 69,-219.5 69,-219.5 75,-219.5 81,-225.5 81,-231.5 81,-231.5 81,-243.5 81,-243.5 81,-249.5 75,-255.5 69,-255.5 69,-255.5 17,-255.5 17,-255.5 11,-255.5 5,-249.5 5,-243.5 5,-243.5 5,-231.5 5,-231.5 5,-225.5 11,-219.5 17,-219.5"/>
<text text-anchor="middle" x="43" y="-235.3" font-family="Arial" font-size="9.00">k_6 = bar (j_4)</text>
</g>
<!-- Node_3 -->
<g id="node4" class="node"><title>Node_3</title>
<path fill="moccasin" stroke="moccasin" d="M21,-146.5C21,-146.5 65,-146.5 65,-146.5 71,-146.5 77,-152.5 77,-158.5 77,-158.5 77,-170.5 77,-170.5 77,-176.5 71,-182.5 65,-182.5 65,-182.5 21,-182.5 21,-182.5 15,-182.5 9,-176.5 9,-170.5 9,-170.5 9,-158.5 9,-158.5 9,-152.5 15,-146.5 21,-146.5"/>
<text text-anchor="middle" x="43" y="-162.3" font-family="Arial" font-size="9.00">k_6: [&#45;inf, inf]</text>
</g>
<!-- Node_2&#45;&gt;Node_3 -->
<g id="edge2" class="edge"><title>Node_2&#45;&gt;Node_3</title>
<path fill="none" stroke="steelblue" d="M43,-219.313C43,-211.289 43,-201.547 43,-192.569"/>
<polygon fill="steelblue" stroke="steelblue" points="46.5001,-192.529 43,-182.529 39.5001,-192.529 46.5001,-192.529"/>
</g>
<!-- Node_3&#45;&gt;Node_0 -->
<g id="edge6" class="edge"><title>Node_3&#45;&gt;Node_0</title>
<path fill="none" stroke="tan" d="M43,-146.313C43,-138.289 43,-128.547 43,-119.569"/>
<polygon fill="tan" stroke="tan" points="46.5001,-119.529 43,-109.529 39.5001,-119.529 46.5001,-119.529"/>
</g>
<!-- Node_4 -->
<g id="node5" class="node"><title>Node_4</title>
<path fill="lightblue" stroke="lightblue" d="M12,-365.5C12,-365.5 74,-365.5 74,-365.5 80,-365.5 86,-371.5 86,-377.5 86,-377.5 86,-389.5 86,-389.5 86,-395.5 80,-401.5 74,-401.5 74,-401.5 12,-401.5 12,-401.5 6,-401.5 0,-395.5 0,-389.5 0,-389.5 0,-377.5 0,-377.5 0,-371.5 6,-365.5 12,-365.5"/>
<text text-anchor="middle" x="43" y="-381.3" font-family="Arial" font-size="9.00">j_4 = bar (i_2(D))</text>
</g>
<!-- Node_5 -->
<g id="node6" class="node"><title>Node_5</title>
<path fill="moccasin" stroke="moccasin" d="M22.5,-292.5C22.5,-292.5 63.5,-292.5 63.5,-292.5 69.5,-292.5 75.5,-298.5 75.5,-304.5 75.5,-304.5 75.5,-316.5 75.5,-316.5 75.5,-322.5 69.5,-328.5 63.5,-328.5 63.5,-328.5 22.5,-328.5 22.5,-328.5 16.5,-328.5 10.5,-322.5 10.5,-316.5 10.5,-316.5 10.5,-304.5 10.5,-304.5 10.5,-298.5 16.5,-292.5 22.5,-292.5"/>
<text text-anchor="middle" x="43" y="-308.3" font-family="Arial" font-size="9.00">j_4: [&#45;inf, inf]</text>
</g>
<!-- Node_4&#45;&gt;Node_5 -->
<g id="edge3" class="edge"><title>Node_4&#45;&gt;Node_5</title>
<path fill="none" stroke="steelblue" d="M43,-365.313C43,-357.289 43,-347.547 43,-338.569"/>
<polygon fill="steelblue" stroke="steelblue" points="46.5001,-338.529 43,-328.529 39.5001,-338.529 46.5001,-338.529"/>
</g>
<!-- Node_5&#45;&gt;Node_2 -->
<g id="edge4" class="edge"><title>Node_5&#45;&gt;Node_2</title>
<path fill="none" stroke="tan" d="M43,-292.313C43,-284.289 43,-274.547 43,-265.569"/>
<polygon fill="tan" stroke="tan" points="46.5001,-265.529 43,-255.529 39.5001,-265.529 46.5001,-265.529"/>
</g>
<!-- Node_6 -->
<g id="node7" class="node"><title>Node_6</title>
<path fill="moccasin" stroke="moccasin" d="M22.5,-438.5C22.5,-438.5 63.5,-438.5 63.5,-438.5 69.5,-438.5 75.5,-444.5 75.5,-450.5 75.5,-450.5 75.5,-462.5 75.5,-462.5 75.5,-468.5 69.5,-474.5 63.5,-474.5 63.5,-474.5 22.5,-474.5 22.5,-474.5 16.5,-474.5 10.5,-468.5 10.5,-462.5 10.5,-462.5 10.5,-450.5 10.5,-450.5 10.5,-444.5 16.5,-438.5 22.5,-438.5"/>
<text text-anchor="middle" x="43" y="-454.3" font-family="Arial" font-size="9.00">i_2: [&#45;inf, inf]</text>
</g>
<!-- Node_6&#45;&gt;Node_4 -->
<g id="edge5" class="edge"><title>Node_6&#45;&gt;Node_4</title>
<path fill="none" stroke="tan" d="M43,-438.313C43,-430.289 43,-420.547 43,-411.569"/>
<polygon fill="tan" stroke="tan" points="46.5001,-411.529 43,-401.529 39.5001,-411.529 46.5001,-411.529"/>
</g>
</g>
</svg>
