<?xml version="1.0" encoding="UTF-8" standalone="no"?>
<!DOCTYPE svg PUBLIC "-//W3C//DTD SVG 1.1//EN"
 "http://www.w3.org/Graphics/SVG/1.1/DTD/svg11.dtd">
<!-- Generated by graphviz version 2.38.0 (20140413.2041)
 -->
<!-- Title: t9_foo_ConstraintGraph Pages: 1 -->
<svg width="586pt" height="994pt"
     viewBox="0.00 0.00 585.50 994.00" xmlns="http://www.w3.org/2000/svg">
<g id="graph0" class="graph" transform="scale(1 1) rotate(0) translate(4 990)">
<title>t9_foo_ConstraintGraph</title>
<polygon fill="white" stroke="none" points="-4,4 -4,-990 581.5,-990 581.5,4 -4,4"/>
<!-- Node_0 -->
<g id="node1" class="node"><title>Node_0</title>
<path fill="lightblue" stroke="lightblue" d="M29,-657.5C29,-657.5 137,-657.5 137,-657.5 143,-657.5 149,-663.5 149,-669.5 149,-669.5 149,-681.5 149,-681.5 149,-687.5 143,-693.5 137,-693.5 137,-693.5 29,-693.5 29,-693.5 23,-693.5 17,-687.5 17,-681.5 17,-681.5 17,-669.5 17,-669.5 17,-663.5 23,-657.5 29,-657.5"/>
<text text-anchor="middle" x="83" y="-673.3" font-family="Arial" font-size="9.00"># i_4 = PHI &lt;i_7(2), i_12(8)&gt;</text>
</g>
<!-- Node_1 -->
<g id="node2" class="node"><title>Node_1</title>
<path fill="moccasin" stroke="moccasin" d="M62.5,-584.5C62.5,-584.5 103.5,-584.5 103.5,-584.5 109.5,-584.5 115.5,-590.5 115.5,-596.5 115.5,-596.5 115.5,-608.5 115.5,-608.5 115.5,-614.5 109.5,-620.5 103.5,-620.5 103.5,-620.5 62.5,-620.5 62.5,-620.5 56.5,-620.5 50.5,-614.5 50.5,-608.5 50.5,-608.5 50.5,-596.5 50.5,-596.5 50.5,-590.5 56.5,-584.5 62.5,-584.5"/>
<text text-anchor="middle" x="83" y="-600.3" font-family="Arial" font-size="9.00">i_4: [&#45;inf, inf]</text>
</g>
<!-- Node_0&#45;&gt;Node_1 -->
<g id="edge1" class="edge"><title>Node_0&#45;&gt;Node_1</title>
<path fill="none" stroke="steelblue" d="M83,-657.313C83,-649.289 83,-639.547 83,-630.569"/>
<polygon fill="steelblue" stroke="steelblue" points="86.5001,-630.529 83,-620.529 79.5001,-630.529 86.5001,-630.529"/>
</g>
<!-- Node_2 -->
<g id="node3" class="node"><title>Node_2</title>
<path fill="lightblue" stroke="lightblue" d="M61,-511.5C61,-511.5 105,-511.5 105,-511.5 111,-511.5 117,-517.5 117,-523.5 117,-523.5 117,-535.5 117,-535.5 117,-541.5 111,-547.5 105,-547.5 105,-547.5 61,-547.5 61,-547.5 55,-547.5 49,-541.5 49,-535.5 49,-535.5 49,-523.5 49,-523.5 49,-517.5 55,-511.5 61,-511.5"/>
<text text-anchor="middle" x="83" y="-527.3" font-family="Arial" font-size="9.00">if (i_4 &lt;= 99)</text>
</g>
<!-- Node_1&#45;&gt;Node_2 -->
<g id="edge30" class="edge"><title>Node_1&#45;&gt;Node_2</title>
<path fill="none" stroke="tan" d="M83,-584.313C83,-576.289 83,-566.547 83,-557.569"/>
<polygon fill="tan" stroke="tan" points="86.5001,-557.529 83,-547.529 79.5001,-557.529 86.5001,-557.529"/>
</g>
<!-- Node_3 -->
<g id="node4" class="node"><title>Node_3</title>
<path fill="moccasin" stroke="moccasin" d="M58.5,-438.5C58.5,-438.5 107.5,-438.5 107.5,-438.5 113.5,-438.5 119.5,-444.5 119.5,-450.5 119.5,-450.5 119.5,-462.5 119.5,-462.5 119.5,-468.5 113.5,-474.5 107.5,-474.5 107.5,-474.5 58.5,-474.5 58.5,-474.5 52.5,-474.5 46.5,-468.5 46.5,-462.5 46.5,-462.5 46.5,-450.5 46.5,-450.5 46.5,-444.5 52.5,-438.5 58.5,-438.5"/>
<text text-anchor="middle" x="83" y="-454.3" font-family="Arial" font-size="9.00">i_4_t: [&#45;inf, inf]</text>
</g>
<!-- Node_2&#45;&gt;Node_3 -->
<g id="edge2" class="edge"><title>Node_2&#45;&gt;Node_3</title>
<path fill="none" stroke="steelblue" d="M83,-511.313C83,-503.289 83,-493.547 83,-484.569"/>
<polygon fill="steelblue" stroke="steelblue" points="86.5001,-484.529 83,-474.529 79.5001,-484.529 86.5001,-484.529"/>
</g>
<!-- Node_4 -->
<g id="node5" class="node"><title>Node_4</title>
<path fill="lightblue" stroke="lightblue" d="M201,-657.5C201,-657.5 287,-657.5 287,-657.5 293,-657.5 299,-663.5 299,-669.5 299,-669.5 299,-681.5 299,-681.5 299,-687.5 293,-693.5 287,-693.5 287,-693.5 201,-693.5 201,-693.5 195,-693.5 189,-687.5 189,-681.5 189,-681.5 189,-669.5 189,-669.5 189,-663.5 195,-657.5 201,-657.5"/>
<text text-anchor="middle" x="244" y="-673.3" font-family="Arial" font-size="9.00">sum_10 = _9 + sum_2</text>
</g>
<!-- Node_5 -->
<g id="node6" class="node"><title>Node_5</title>
<path fill="moccasin" stroke="moccasin" d="M234.5,-584.5C234.5,-584.5 297.5,-584.5 297.5,-584.5 303.5,-584.5 309.5,-590.5 309.5,-596.5 309.5,-596.5 309.5,-608.5 309.5,-608.5 309.5,-614.5 303.5,-620.5 297.5,-620.5 297.5,-620.5 234.5,-620.5 234.5,-620.5 228.5,-620.5 222.5,-614.5 222.5,-608.5 222.5,-608.5 222.5,-596.5 222.5,-596.5 222.5,-590.5 228.5,-584.5 234.5,-584.5"/>
<text text-anchor="middle" x="266" y="-600.3" font-family="Arial" font-size="9.00">sum_10: [&#45;inf, inf]</text>
</g>
<!-- Node_4&#45;&gt;Node_5 -->
<g id="edge3" class="edge"><title>Node_4&#45;&gt;Node_5</title>
<path fill="none" stroke="steelblue" d="M249.326,-657.313C251.839,-649.202 254.896,-639.336 257.703,-630.277"/>
<polygon fill="steelblue" stroke="steelblue" points="261.107,-631.117 260.723,-620.529 254.42,-629.045 261.107,-631.117"/>
</g>
<!-- Node_32 -->
<g id="node33" class="node"><title>Node_32</title>
<path fill="lightblue" stroke="lightblue" d="M188,-511.5C188,-511.5 346,-511.5 346,-511.5 352,-511.5 358,-517.5 358,-523.5 358,-523.5 358,-535.5 358,-535.5 358,-541.5 352,-547.5 346,-547.5 346,-547.5 188,-547.5 188,-547.5 182,-547.5 176,-541.5 176,-535.5 176,-535.5 176,-523.5 176,-523.5 176,-517.5 182,-511.5 188,-511.5"/>
<text text-anchor="middle" x="267" y="-527.3" font-family="Arial" font-size="9.00"># sum_1 = PHI &lt;sum_2(4), sum_10(5)&gt;</text>
</g>
<!-- Node_5&#45;&gt;Node_32 -->
<g id="edge27" class="edge"><title>Node_5&#45;&gt;Node_32</title>
<path fill="none" stroke="tan" d="M266.242,-584.313C266.355,-576.289 266.492,-566.547 266.619,-557.569"/>
<polygon fill="tan" stroke="tan" points="270.119,-557.577 266.76,-547.529 263.12,-557.479 270.119,-557.577"/>
</g>
<!-- Node_6 -->
<g id="node7" class="node"><title>Node_6</title>
<path fill="lightblue" stroke="lightblue" d="M110,-219.5C110,-219.5 262,-219.5 262,-219.5 268,-219.5 274,-225.5 274,-231.5 274,-231.5 274,-243.5 274,-243.5 274,-249.5 268,-255.5 262,-255.5 262,-255.5 110,-255.5 110,-255.5 104,-255.5 98,-249.5 98,-243.5 98,-243.5 98,-231.5 98,-231.5 98,-225.5 104,-219.5 110,-219.5"/>
<text text-anchor="middle" x="186" y="-235.3" font-family="Arial" font-size="9.00"># sum_3 = PHI &lt;sum_6(2), sum_2(8)&gt;</text>
</g>
<!-- Node_7 -->
<g id="node8" class="node"><title>Node_7</title>
<path fill="moccasin" stroke="moccasin" d="M215,-146.5C215,-146.5 273,-146.5 273,-146.5 279,-146.5 285,-152.5 285,-158.5 285,-158.5 285,-170.5 285,-170.5 285,-176.5 279,-182.5 273,-182.5 273,-182.5 215,-182.5 215,-182.5 209,-182.5 203,-176.5 203,-170.5 203,-170.5 203,-158.5 203,-158.5 203,-152.5 209,-146.5 215,-146.5"/>
<text text-anchor="middle" x="244" y="-162.3" font-family="Arial" font-size="9.00">sum_3: [&#45;inf, inf]</text>
</g>
<!-- Node_6&#45;&gt;Node_7 -->
<g id="edge4" class="edge"><title>Node_6&#45;&gt;Node_7</title>
<path fill="none" stroke="steelblue" d="M200.04,-219.313C207.093,-210.679 215.772,-200.055 223.55,-190.534"/>
<polygon fill="steelblue" stroke="steelblue" points="226.473,-192.488 230.089,-182.529 221.052,-188.059 226.473,-192.488"/>
</g>
<!-- Node_14 -->
<g id="node15" class="node"><title>Node_14</title>
<path fill="lightblue" stroke="lightblue" d="M226,-365.5C226,-365.5 378,-365.5 378,-365.5 384,-365.5 390,-371.5 390,-377.5 390,-377.5 390,-389.5 390,-389.5 390,-395.5 384,-401.5 378,-401.5 378,-401.5 226,-401.5 226,-401.5 220,-401.5 214,-395.5 214,-389.5 214,-389.5 214,-377.5 214,-377.5 214,-371.5 220,-365.5 226,-365.5"/>
<text text-anchor="middle" x="302" y="-381.3" font-family="Arial" font-size="9.00"># sum_2 = PHI &lt;sum_3(3), sum_1(6)&gt;</text>
</g>
<!-- Node_7&#45;&gt;Node_14 -->
<g id="edge24" class="edge"><title>Node_7&#45;&gt;Node_14</title>
<path fill="none" stroke="tan" d="M260.273,-182.916C268.496,-192.759 277.809,-205.726 283,-219 300.674,-264.191 303.261,-321.366 302.999,-354.745"/>
<polygon fill="tan" stroke="tan" points="299.494,-355.041 302.819,-365.101 306.493,-355.163 299.494,-355.041"/>
</g>
<!-- Node_18 -->
<g id="node19" class="node"><title>Node_18</title>
<path fill="lightblue" stroke="lightblue" d="M220.5,-73.5C220.5,-73.5 267.5,-73.5 267.5,-73.5 273.5,-73.5 279.5,-79.5 279.5,-85.5 279.5,-85.5 279.5,-97.5 279.5,-97.5 279.5,-103.5 273.5,-109.5 267.5,-109.5 267.5,-109.5 220.5,-109.5 220.5,-109.5 214.5,-109.5 208.5,-103.5 208.5,-97.5 208.5,-97.5 208.5,-85.5 208.5,-85.5 208.5,-79.5 214.5,-73.5 220.5,-73.5"/>
<text text-anchor="middle" x="244" y="-89.3" font-family="Arial" font-size="9.00">_13 = sum_3</text>
</g>
<!-- Node_7&#45;&gt;Node_18 -->
<g id="edge25" class="edge"><title>Node_7&#45;&gt;Node_18</title>
<path fill="none" stroke="tan" d="M244,-146.313C244,-138.289 244,-128.547 244,-119.569"/>
<polygon fill="tan" stroke="tan" points="247.5,-119.529 244,-109.529 240.5,-119.529 247.5,-119.529"/>
</g>
<!-- Node_8 -->
<g id="node9" class="node"><title>Node_8</title>
<path fill="lightblue" stroke="lightblue" d="M62.5,-365.5C62.5,-365.5 107.5,-365.5 107.5,-365.5 113.5,-365.5 119.5,-371.5 119.5,-377.5 119.5,-377.5 119.5,-389.5 119.5,-389.5 119.5,-395.5 113.5,-401.5 107.5,-401.5 107.5,-401.5 62.5,-401.5 62.5,-401.5 56.5,-401.5 50.5,-395.5 50.5,-389.5 50.5,-389.5 50.5,-377.5 50.5,-377.5 50.5,-371.5 56.5,-365.5 62.5,-365.5"/>
<text text-anchor="middle" x="85" y="-381.3" font-family="Arial" font-size="9.00">sum_6 = &#45;10</text>
</g>
<!-- Node_9 -->
<g id="node10" class="node"><title>Node_9</title>
<path fill="moccasin" stroke="moccasin" d="M57,-292.5C57,-292.5 115,-292.5 115,-292.5 121,-292.5 127,-298.5 127,-304.5 127,-304.5 127,-316.5 127,-316.5 127,-322.5 121,-328.5 115,-328.5 115,-328.5 57,-328.5 57,-328.5 51,-328.5 45,-322.5 45,-316.5 45,-316.5 45,-304.5 45,-304.5 45,-298.5 51,-292.5 57,-292.5"/>
<text text-anchor="middle" x="86" y="-308.3" font-family="Arial" font-size="9.00">sum_6: [&#45;inf, inf]</text>
</g>
<!-- Node_8&#45;&gt;Node_9 -->
<g id="edge5" class="edge"><title>Node_8&#45;&gt;Node_9</title>
<path fill="none" stroke="steelblue" d="M85.2421,-365.313C85.3551,-357.289 85.4923,-347.547 85.6187,-338.569"/>
<polygon fill="steelblue" stroke="steelblue" points="89.1189,-338.577 85.7602,-328.529 82.1196,-338.479 89.1189,-338.577"/>
</g>
<!-- Node_9&#45;&gt;Node_6 -->
<g id="edge28" class="edge"><title>Node_9&#45;&gt;Node_6</title>
<path fill="none" stroke="tan" d="M109.952,-292.494C122.968,-283.253 139.25,-271.692 153.406,-261.642"/>
<polygon fill="tan" stroke="tan" points="155.769,-264.257 161.896,-255.614 151.716,-258.549 155.769,-264.257"/>
</g>
<!-- Node_10 -->
<g id="node11" class="node"><title>Node_10</title>
<path fill="lightblue" stroke="lightblue" d="M349,-803.5C349,-803.5 379,-803.5 379,-803.5 385,-803.5 391,-809.5 391,-815.5 391,-815.5 391,-827.5 391,-827.5 391,-833.5 385,-839.5 379,-839.5 379,-839.5 349,-839.5 349,-839.5 343,-839.5 337,-833.5 337,-827.5 337,-827.5 337,-815.5 337,-815.5 337,-809.5 343,-803.5 349,-803.5"/>
<text text-anchor="middle" x="364" y="-819.3" font-family="Arial" font-size="9.00">j_8 = 0</text>
</g>
<!-- Node_11 -->
<g id="node12" class="node"><title>Node_11</title>
<path fill="moccasin" stroke="moccasin" d="M343.5,-730.5C343.5,-730.5 384.5,-730.5 384.5,-730.5 390.5,-730.5 396.5,-736.5 396.5,-742.5 396.5,-742.5 396.5,-754.5 396.5,-754.5 396.5,-760.5 390.5,-766.5 384.5,-766.5 384.5,-766.5 343.5,-766.5 343.5,-766.5 337.5,-766.5 331.5,-760.5 331.5,-754.5 331.5,-754.5 331.5,-742.5 331.5,-742.5 331.5,-736.5 337.5,-730.5 343.5,-730.5"/>
<text text-anchor="middle" x="364" y="-746.3" font-family="Arial" font-size="9.00">j_8: [&#45;inf, inf]</text>
</g>
<!-- Node_10&#45;&gt;Node_11 -->
<g id="edge6" class="edge"><title>Node_10&#45;&gt;Node_11</title>
<path fill="none" stroke="steelblue" d="M364,-803.313C364,-795.289 364,-785.547 364,-776.569"/>
<polygon fill="steelblue" stroke="steelblue" points="367.5,-776.529 364,-766.529 360.5,-776.529 367.5,-776.529"/>
</g>
<!-- Node_34 -->
<g id="node35" class="node"><title>Node_34</title>
<path fill="lightblue" stroke="lightblue" d="M376,-657.5C376,-657.5 484,-657.5 484,-657.5 490,-657.5 496,-663.5 496,-669.5 496,-669.5 496,-681.5 496,-681.5 496,-687.5 490,-693.5 484,-693.5 484,-693.5 376,-693.5 376,-693.5 370,-693.5 364,-687.5 364,-681.5 364,-681.5 364,-669.5 364,-669.5 364,-663.5 370,-657.5 376,-657.5"/>
<text text-anchor="middle" x="430" y="-673.3" font-family="Arial" font-size="9.00"># j_5 = PHI &lt;j_8(3), j_11(6)&gt;</text>
</g>
<!-- Node_11&#45;&gt;Node_34 -->
<g id="edge29" class="edge"><title>Node_11&#45;&gt;Node_34</title>
<path fill="none" stroke="tan" d="M379.977,-730.313C388.165,-721.505 398.278,-710.625 407.264,-700.958"/>
<polygon fill="tan" stroke="tan" points="409.925,-703.236 414.17,-693.529 404.798,-698.47 409.925,-703.236"/>
</g>
<!-- Node_12 -->
<g id="node13" class="node"><title>Node_12</title>
<path fill="lightblue" stroke="lightblue" d="M429.5,-949.5C429.5,-949.5 470.5,-949.5 470.5,-949.5 476.5,-949.5 482.5,-955.5 482.5,-961.5 482.5,-961.5 482.5,-973.5 482.5,-973.5 482.5,-979.5 476.5,-985.5 470.5,-985.5 470.5,-985.5 429.5,-985.5 429.5,-985.5 423.5,-985.5 417.5,-979.5 417.5,-973.5 417.5,-973.5 417.5,-961.5 417.5,-961.5 417.5,-955.5 423.5,-949.5 429.5,-949.5"/>
<text text-anchor="middle" x="450" y="-965.3" font-family="Arial" font-size="9.00">if (j_5 != 99)</text>
</g>
<!-- Node_13 -->
<g id="node14" class="node"><title>Node_13</title>
<path fill="moccasin" stroke="moccasin" d="M425.5,-876.5C425.5,-876.5 474.5,-876.5 474.5,-876.5 480.5,-876.5 486.5,-882.5 486.5,-888.5 486.5,-888.5 486.5,-900.5 486.5,-900.5 486.5,-906.5 480.5,-912.5 474.5,-912.5 474.5,-912.5 425.5,-912.5 425.5,-912.5 419.5,-912.5 413.5,-906.5 413.5,-900.5 413.5,-900.5 413.5,-888.5 413.5,-888.5 413.5,-882.5 419.5,-876.5 425.5,-876.5"/>
<text text-anchor="middle" x="450" y="-892.3" font-family="Arial" font-size="9.00">j_5_f: [&#45;inf, inf]</text>
</g>
<!-- Node_12&#45;&gt;Node_13 -->
<g id="edge7" class="edge"><title>Node_12&#45;&gt;Node_13</title>
<path fill="none" stroke="steelblue" d="M450,-949.313C450,-941.289 450,-931.547 450,-922.569"/>
<polygon fill="steelblue" stroke="steelblue" points="453.5,-922.529 450,-912.529 446.5,-922.529 453.5,-922.529"/>
</g>
<!-- Node_26 -->
<g id="node27" class="node"><title>Node_26</title>
<path fill="lightblue" stroke="lightblue" d="M422,-803.5C422,-803.5 478,-803.5 478,-803.5 484,-803.5 490,-809.5 490,-815.5 490,-815.5 490,-827.5 490,-827.5 490,-833.5 484,-839.5 478,-839.5 478,-839.5 422,-839.5 422,-839.5 416,-839.5 410,-833.5 410,-827.5 410,-827.5 410,-815.5 410,-815.5 410,-809.5 416,-803.5 422,-803.5"/>
<text text-anchor="middle" x="450" y="-819.3" font-family="Arial" font-size="9.00">j_11 = j_5_f + 1</text>
</g>
<!-- Node_13&#45;&gt;Node_26 -->
<g id="edge26" class="edge"><title>Node_13&#45;&gt;Node_26</title>
<path fill="none" stroke="tan" d="M450,-876.313C450,-868.289 450,-858.547 450,-849.569"/>
<polygon fill="tan" stroke="tan" points="453.5,-849.529 450,-839.529 446.5,-849.529 453.5,-849.529"/>
</g>
<!-- Node_15 -->
<g id="node16" class="node"><title>Node_15</title>
<path fill="moccasin" stroke="moccasin" d="M157,-292.5C157,-292.5 215,-292.5 215,-292.5 221,-292.5 227,-298.5 227,-304.5 227,-304.5 227,-316.5 227,-316.5 227,-322.5 221,-328.5 215,-328.5 215,-328.5 157,-328.5 157,-328.5 151,-328.5 145,-322.5 145,-316.5 145,-316.5 145,-304.5 145,-304.5 145,-298.5 151,-292.5 157,-292.5"/>
<text text-anchor="middle" x="186" y="-308.3" font-family="Arial" font-size="9.00">sum_2: [&#45;inf, inf]</text>
</g>
<!-- Node_14&#45;&gt;Node_15 -->
<g id="edge8" class="edge"><title>Node_14&#45;&gt;Node_15</title>
<path fill="none" stroke="steelblue" d="M274.215,-365.494C258.833,-356.079 239.516,-344.255 222.883,-334.075"/>
<polygon fill="steelblue" stroke="steelblue" points="224.317,-330.849 213.96,-328.614 220.662,-336.819 224.317,-330.849"/>
</g>
<!-- Node_15&#45;&gt;Node_4 -->
<g id="edge31" class="edge"><title>Node_15&#45;&gt;Node_4</title>
<path fill="none" stroke="tan" d="M178.31,-328.845C167.206,-355.513 148,-408.442 148,-455.5 148,-530.5 148,-530.5 148,-530.5 148,-579.386 186.778,-624.299 215.042,-650.542"/>
<polygon fill="tan" stroke="tan" points="212.922,-653.343 222.694,-657.437 217.608,-648.143 212.922,-653.343"/>
</g>
<!-- Node_15&#45;&gt;Node_6 -->
<g id="edge32" class="edge"><title>Node_15&#45;&gt;Node_6</title>
<path fill="none" stroke="tan" d="M186,-292.313C186,-284.289 186,-274.547 186,-265.569"/>
<polygon fill="tan" stroke="tan" points="189.5,-265.529 186,-255.529 182.5,-265.529 189.5,-265.529"/>
</g>
<!-- Node_15&#45;&gt;Node_32 -->
<g id="edge33" class="edge"><title>Node_15&#45;&gt;Node_32</title>
<path fill="none" stroke="tan" d="M188.654,-328.75C191.707,-347.138 197.306,-376.988 205,-402 215.313,-435.527 219.287,-443.639 235,-475 239.557,-484.096 245.082,-493.725 250.25,-502.27"/>
<polygon fill="tan" stroke="tan" points="247.428,-504.362 255.654,-511.039 253.387,-500.69 247.428,-504.362"/>
</g>
<!-- Node_16 -->
<g id="node17" class="node"><title>Node_16</title>
<path fill="lightblue" stroke="lightblue" d="M19.5,-949.5C19.5,-949.5 60.5,-949.5 60.5,-949.5 66.5,-949.5 72.5,-955.5 72.5,-961.5 72.5,-961.5 72.5,-973.5 72.5,-973.5 72.5,-979.5 66.5,-985.5 60.5,-985.5 60.5,-985.5 19.5,-985.5 19.5,-985.5 13.5,-985.5 7.5,-979.5 7.5,-973.5 7.5,-973.5 7.5,-961.5 7.5,-961.5 7.5,-955.5 13.5,-949.5 19.5,-949.5"/>
<text text-anchor="middle" x="40" y="-965.3" font-family="Arial" font-size="9.00">if (i_4 &lt; j_5)</text>
</g>
<!-- Node_17 -->
<g id="node18" class="node"><title>Node_17</title>
<path fill="moccasin" stroke="moccasin" d="M15.5,-876.5C15.5,-876.5 64.5,-876.5 64.5,-876.5 70.5,-876.5 76.5,-882.5 76.5,-888.5 76.5,-888.5 76.5,-900.5 76.5,-900.5 76.5,-906.5 70.5,-912.5 64.5,-912.5 64.5,-912.5 15.5,-912.5 15.5,-912.5 9.5,-912.5 3.5,-906.5 3.5,-900.5 3.5,-900.5 3.5,-888.5 3.5,-888.5 3.5,-882.5 9.5,-876.5 15.5,-876.5"/>
<text text-anchor="middle" x="40" y="-892.3" font-family="Arial" font-size="9.00">i_4_f: [&#45;inf, inf]</text>
</g>
<!-- Node_16&#45;&gt;Node_17 -->
<g id="edge9" class="edge"><title>Node_16&#45;&gt;Node_17</title>
<path fill="none" stroke="steelblue" d="M40,-949.313C40,-941.289 40,-931.547 40,-922.569"/>
<polygon fill="steelblue" stroke="steelblue" points="43.5001,-922.529 40,-912.529 36.5001,-922.529 43.5001,-922.529"/>
</g>
<!-- Node_20 -->
<g id="node21" class="node"><title>Node_20</title>
<path fill="lightblue" stroke="lightblue" d="M12,-803.5C12,-803.5 68,-803.5 68,-803.5 74,-803.5 80,-809.5 80,-815.5 80,-815.5 80,-827.5 80,-827.5 80,-833.5 74,-839.5 68,-839.5 68,-839.5 12,-839.5 12,-839.5 6,-839.5 0,-833.5 0,-827.5 0,-827.5 0,-815.5 0,-815.5 0,-809.5 6,-803.5 12,-803.5"/>
<text text-anchor="middle" x="40" y="-819.3" font-family="Arial" font-size="9.00">i_12 = i_4_f + 1</text>
</g>
<!-- Node_17&#45;&gt;Node_20 -->
<g id="edge36" class="edge"><title>Node_17&#45;&gt;Node_20</title>
<path fill="none" stroke="tan" d="M40,-876.313C40,-868.289 40,-858.547 40,-849.569"/>
<polygon fill="tan" stroke="tan" points="43.5001,-849.529 40,-839.529 36.5001,-849.529 43.5001,-849.529"/>
</g>
<!-- Node_19 -->
<g id="node20" class="node"><title>Node_19</title>
<path fill="moccasin" stroke="moccasin" d="M222,-0.5C222,-0.5 266,-0.5 266,-0.5 272,-0.5 278,-6.5 278,-12.5 278,-12.5 278,-24.5 278,-24.5 278,-30.5 272,-36.5 266,-36.5 266,-36.5 222,-36.5 222,-36.5 216,-36.5 210,-30.5 210,-24.5 210,-24.5 210,-12.5 210,-12.5 210,-6.5 216,-0.5 222,-0.5"/>
<text text-anchor="middle" x="244" y="-16.3" font-family="Arial" font-size="9.00">_13: [&#45;inf, inf]</text>
</g>
<!-- Node_18&#45;&gt;Node_19 -->
<g id="edge10" class="edge"><title>Node_18&#45;&gt;Node_19</title>
<path fill="none" stroke="steelblue" d="M244,-73.3129C244,-65.2895 244,-55.5475 244,-46.5691"/>
<polygon fill="steelblue" stroke="steelblue" points="247.5,-46.5288 244,-36.5288 240.5,-46.5289 247.5,-46.5288"/>
</g>
<!-- Node_21 -->
<g id="node22" class="node"><title>Node_21</title>
<path fill="moccasin" stroke="moccasin" d="M16.5,-730.5C16.5,-730.5 63.5,-730.5 63.5,-730.5 69.5,-730.5 75.5,-736.5 75.5,-742.5 75.5,-742.5 75.5,-754.5 75.5,-754.5 75.5,-760.5 69.5,-766.5 63.5,-766.5 63.5,-766.5 16.5,-766.5 16.5,-766.5 10.5,-766.5 4.5,-760.5 4.5,-754.5 4.5,-754.5 4.5,-742.5 4.5,-742.5 4.5,-736.5 10.5,-730.5 16.5,-730.5"/>
<text text-anchor="middle" x="40" y="-746.3" font-family="Arial" font-size="9.00">i_12: [&#45;inf, inf]</text>
</g>
<!-- Node_20&#45;&gt;Node_21 -->
<g id="edge11" class="edge"><title>Node_20&#45;&gt;Node_21</title>
<path fill="none" stroke="steelblue" d="M40,-803.313C40,-795.289 40,-785.547 40,-776.569"/>
<polygon fill="steelblue" stroke="steelblue" points="43.5001,-776.529 40,-766.529 36.5001,-776.529 43.5001,-776.529"/>
</g>
<!-- Node_21&#45;&gt;Node_0 -->
<g id="edge23" class="edge"><title>Node_21&#45;&gt;Node_0</title>
<path fill="none" stroke="tan" d="M50.4091,-730.313C55.5324,-721.853 61.8128,-711.484 67.4882,-702.112"/>
<polygon fill="tan" stroke="tan" points="70.5001,-703.896 72.6868,-693.529 64.5126,-700.269 70.5001,-703.896"/>
</g>
<!-- Node_22 -->
<g id="node23" class="node"><title>Node_22</title>
<path fill="lightblue" stroke="lightblue" d="M407,-511.5C407,-511.5 453,-511.5 453,-511.5 459,-511.5 465,-517.5 465,-523.5 465,-523.5 465,-535.5 465,-535.5 465,-541.5 459,-547.5 453,-547.5 453,-547.5 407,-547.5 407,-547.5 401,-547.5 395,-541.5 395,-535.5 395,-535.5 395,-523.5 395,-523.5 395,-517.5 401,-511.5 407,-511.5"/>
<text text-anchor="middle" x="430" y="-527.3" font-family="Arial" font-size="9.00">if (j_5 &lt;= i_4)</text>
</g>
<!-- Node_23 -->
<g id="node24" class="node"><title>Node_23</title>
<path fill="moccasin" stroke="moccasin" d="M405.5,-438.5C405.5,-438.5 454.5,-438.5 454.5,-438.5 460.5,-438.5 466.5,-444.5 466.5,-450.5 466.5,-450.5 466.5,-462.5 466.5,-462.5 466.5,-468.5 460.5,-474.5 454.5,-474.5 454.5,-474.5 405.5,-474.5 405.5,-474.5 399.5,-474.5 393.5,-468.5 393.5,-462.5 393.5,-462.5 393.5,-450.5 393.5,-450.5 393.5,-444.5 399.5,-438.5 405.5,-438.5"/>
<text text-anchor="middle" x="430" y="-454.3" font-family="Arial" font-size="9.00">j_5_t: [&#45;inf, inf]</text>
</g>
<!-- Node_22&#45;&gt;Node_23 -->
<g id="edge12" class="edge"><title>Node_22&#45;&gt;Node_23</title>
<path fill="none" stroke="steelblue" d="M430,-511.313C430,-503.289 430,-493.547 430,-484.569"/>
<polygon fill="steelblue" stroke="steelblue" points="433.5,-484.529 430,-474.529 426.5,-484.529 433.5,-484.529"/>
</g>
<!-- Node_24 -->
<g id="node25" class="node"><title>Node_24</title>
<path fill="lightblue" stroke="lightblue" d="M111,-803.5C111,-803.5 141,-803.5 141,-803.5 147,-803.5 153,-809.5 153,-815.5 153,-815.5 153,-827.5 153,-827.5 153,-833.5 147,-839.5 141,-839.5 141,-839.5 111,-839.5 111,-839.5 105,-839.5 99,-833.5 99,-827.5 99,-827.5 99,-815.5 99,-815.5 99,-809.5 105,-803.5 111,-803.5"/>
<text text-anchor="middle" x="126" y="-819.3" font-family="Arial" font-size="9.00">i_7 = 0</text>
</g>
<!-- Node_25 -->
<g id="node26" class="node"><title>Node_25</title>
<path fill="moccasin" stroke="moccasin" d="M105.5,-730.5C105.5,-730.5 146.5,-730.5 146.5,-730.5 152.5,-730.5 158.5,-736.5 158.5,-742.5 158.5,-742.5 158.5,-754.5 158.5,-754.5 158.5,-760.5 152.5,-766.5 146.5,-766.5 146.5,-766.5 105.5,-766.5 105.5,-766.5 99.5,-766.5 93.5,-760.5 93.5,-754.5 93.5,-754.5 93.5,-742.5 93.5,-742.5 93.5,-736.5 99.5,-730.5 105.5,-730.5"/>
<text text-anchor="middle" x="126" y="-746.3" font-family="Arial" font-size="9.00">i_7: [&#45;inf, inf]</text>
</g>
<!-- Node_24&#45;&gt;Node_25 -->
<g id="edge13" class="edge"><title>Node_24&#45;&gt;Node_25</title>
<path fill="none" stroke="steelblue" d="M126,-803.313C126,-795.289 126,-785.547 126,-776.569"/>
<polygon fill="steelblue" stroke="steelblue" points="129.5,-776.529 126,-766.529 122.5,-776.529 129.5,-776.529"/>
</g>
<!-- Node_25&#45;&gt;Node_0 -->
<g id="edge20" class="edge"><title>Node_25&#45;&gt;Node_0</title>
<path fill="none" stroke="tan" d="M115.591,-730.313C110.468,-721.853 104.187,-711.484 98.5118,-702.112"/>
<polygon fill="tan" stroke="tan" points="101.487,-700.269 93.3132,-693.529 95.4999,-703.896 101.487,-700.269"/>
</g>
<!-- Node_27 -->
<g id="node28" class="node"><title>Node_27</title>
<path fill="moccasin" stroke="moccasin" d="M426.5,-730.5C426.5,-730.5 473.5,-730.5 473.5,-730.5 479.5,-730.5 485.5,-736.5 485.5,-742.5 485.5,-742.5 485.5,-754.5 485.5,-754.5 485.5,-760.5 479.5,-766.5 473.5,-766.5 473.5,-766.5 426.5,-766.5 426.5,-766.5 420.5,-766.5 414.5,-760.5 414.5,-754.5 414.5,-754.5 414.5,-742.5 414.5,-742.5 414.5,-736.5 420.5,-730.5 426.5,-730.5"/>
<text text-anchor="middle" x="450" y="-746.3" font-family="Arial" font-size="9.00">j_11: [&#45;inf, inf]</text>
</g>
<!-- Node_26&#45;&gt;Node_27 -->
<g id="edge14" class="edge"><title>Node_26&#45;&gt;Node_27</title>
<path fill="none" stroke="steelblue" d="M450,-803.313C450,-795.289 450,-785.547 450,-776.569"/>
<polygon fill="steelblue" stroke="steelblue" points="453.5,-776.529 450,-766.529 446.5,-776.529 453.5,-776.529"/>
</g>
<!-- Node_27&#45;&gt;Node_34 -->
<g id="edge21" class="edge"><title>Node_27&#45;&gt;Node_34</title>
<path fill="none" stroke="tan" d="M445.159,-730.313C442.874,-722.202 440.095,-712.336 437.543,-703.277"/>
<polygon fill="tan" stroke="tan" points="440.877,-702.205 434.797,-693.529 434.139,-704.103 440.877,-702.205"/>
</g>
<!-- Node_28 -->
<g id="node29" class="node"><title>Node_28</title>
<path fill="lightblue" stroke="lightblue" d="M518,-949.5C518,-949.5 564,-949.5 564,-949.5 570,-949.5 576,-955.5 576,-961.5 576,-961.5 576,-973.5 576,-973.5 576,-979.5 570,-985.5 564,-985.5 564,-985.5 518,-985.5 518,-985.5 512,-985.5 506,-979.5 506,-973.5 506,-973.5 506,-961.5 506,-961.5 506,-955.5 512,-949.5 518,-949.5"/>
<text text-anchor="middle" x="541" y="-965.3" font-family="Arial" font-size="9.00">if (i_4 &gt;= j_5)</text>
</g>
<!-- Node_29 -->
<g id="node30" class="node"><title>Node_29</title>
<path fill="moccasin" stroke="moccasin" d="M516.5,-876.5C516.5,-876.5 565.5,-876.5 565.5,-876.5 571.5,-876.5 577.5,-882.5 577.5,-888.5 577.5,-888.5 577.5,-900.5 577.5,-900.5 577.5,-906.5 571.5,-912.5 565.5,-912.5 565.5,-912.5 516.5,-912.5 516.5,-912.5 510.5,-912.5 504.5,-906.5 504.5,-900.5 504.5,-900.5 504.5,-888.5 504.5,-888.5 504.5,-882.5 510.5,-876.5 516.5,-876.5"/>
<text text-anchor="middle" x="541" y="-892.3" font-family="Arial" font-size="9.00">i_4_t: [&#45;inf, inf]</text>
</g>
<!-- Node_28&#45;&gt;Node_29 -->
<g id="edge15" class="edge"><title>Node_28&#45;&gt;Node_29</title>
<path fill="none" stroke="steelblue" d="M541,-949.313C541,-941.289 541,-931.547 541,-922.569"/>
<polygon fill="steelblue" stroke="steelblue" points="544.5,-922.529 541,-912.529 537.5,-922.529 544.5,-922.529"/>
</g>
<!-- Node_30 -->
<g id="node31" class="node"><title>Node_30</title>
<path fill="lightblue" stroke="lightblue" d="M205.5,-803.5C205.5,-803.5 282.5,-803.5 282.5,-803.5 288.5,-803.5 294.5,-809.5 294.5,-815.5 294.5,-815.5 294.5,-827.5 294.5,-827.5 294.5,-833.5 288.5,-839.5 282.5,-839.5 282.5,-839.5 205.5,-839.5 205.5,-839.5 199.5,-839.5 193.5,-833.5 193.5,-827.5 193.5,-827.5 193.5,-815.5 193.5,-815.5 193.5,-809.5 199.5,-803.5 205.5,-803.5"/>
<text text-anchor="middle" x="244" y="-819.3" font-family="Arial" font-size="9.00">_9 = j_5_t_t * j_5_t_t</text>
</g>
<!-- Node_31 -->
<g id="node32" class="node"><title>Node_31</title>
<path fill="moccasin" stroke="moccasin" d="M224.5,-730.5C224.5,-730.5 263.5,-730.5 263.5,-730.5 269.5,-730.5 275.5,-736.5 275.5,-742.5 275.5,-742.5 275.5,-754.5 275.5,-754.5 275.5,-760.5 269.5,-766.5 263.5,-766.5 263.5,-766.5 224.5,-766.5 224.5,-766.5 218.5,-766.5 212.5,-760.5 212.5,-754.5 212.5,-754.5 212.5,-742.5 212.5,-742.5 212.5,-736.5 218.5,-730.5 224.5,-730.5"/>
<text text-anchor="middle" x="244" y="-746.3" font-family="Arial" font-size="9.00">_9: [&#45;inf, inf]</text>
</g>
<!-- Node_30&#45;&gt;Node_31 -->
<g id="edge16" class="edge"><title>Node_30&#45;&gt;Node_31</title>
<path fill="none" stroke="steelblue" d="M244,-803.313C244,-795.289 244,-785.547 244,-776.569"/>
<polygon fill="steelblue" stroke="steelblue" points="247.5,-776.529 244,-766.529 240.5,-776.529 247.5,-776.529"/>
</g>
<!-- Node_31&#45;&gt;Node_4 -->
<g id="edge35" class="edge"><title>Node_31&#45;&gt;Node_4</title>
<path fill="none" stroke="tan" d="M244,-730.313C244,-722.289 244,-712.547 244,-703.569"/>
<polygon fill="tan" stroke="tan" points="247.5,-703.529 244,-693.529 240.5,-703.529 247.5,-703.529"/>
</g>
<!-- Node_33 -->
<g id="node34" class="node"><title>Node_33</title>
<path fill="moccasin" stroke="moccasin" d="M256,-438.5C256,-438.5 314,-438.5 314,-438.5 320,-438.5 326,-444.5 326,-450.5 326,-450.5 326,-462.5 326,-462.5 326,-468.5 320,-474.5 314,-474.5 314,-474.5 256,-474.5 256,-474.5 250,-474.5 244,-468.5 244,-462.5 244,-462.5 244,-450.5 244,-450.5 244,-444.5 250,-438.5 256,-438.5"/>
<text text-anchor="middle" x="285" y="-454.3" font-family="Arial" font-size="9.00">sum_1: [&#45;inf, inf]</text>
</g>
<!-- Node_32&#45;&gt;Node_33 -->
<g id="edge17" class="edge"><title>Node_32&#45;&gt;Node_33</title>
<path fill="none" stroke="steelblue" d="M271.357,-511.313C273.414,-503.202 275.915,-493.336 278.212,-484.277"/>
<polygon fill="steelblue" stroke="steelblue" points="281.618,-485.082 280.683,-474.529 274.833,-483.362 281.618,-485.082"/>
</g>
<!-- Node_33&#45;&gt;Node_14 -->
<g id="edge22" class="edge"><title>Node_33&#45;&gt;Node_14</title>
<path fill="none" stroke="tan" d="M289.115,-438.313C291.057,-430.202 293.42,-420.336 295.589,-411.277"/>
<polygon fill="tan" stroke="tan" points="298.998,-412.069 297.923,-401.529 292.19,-410.439 298.998,-412.069"/>
</g>
<!-- Node_35 -->
<g id="node36" class="node"><title>Node_35</title>
<path fill="moccasin" stroke="moccasin" d="M409.5,-584.5C409.5,-584.5 450.5,-584.5 450.5,-584.5 456.5,-584.5 462.5,-590.5 462.5,-596.5 462.5,-596.5 462.5,-608.5 462.5,-608.5 462.5,-614.5 456.5,-620.5 450.5,-620.5 450.5,-620.5 409.5,-620.5 409.5,-620.5 403.5,-620.5 397.5,-614.5 397.5,-608.5 397.5,-608.5 397.5,-596.5 397.5,-596.5 397.5,-590.5 403.5,-584.5 409.5,-584.5"/>
<text text-anchor="middle" x="430" y="-600.3" font-family="Arial" font-size="9.00">j_5: [&#45;inf, inf]</text>
</g>
<!-- Node_34&#45;&gt;Node_35 -->
<g id="edge18" class="edge"><title>Node_34&#45;&gt;Node_35</title>
<path fill="none" stroke="steelblue" d="M430,-657.313C430,-649.289 430,-639.547 430,-630.569"/>
<polygon fill="steelblue" stroke="steelblue" points="433.5,-630.529 430,-620.529 426.5,-630.529 433.5,-630.529"/>
</g>
<!-- Node_35&#45;&gt;Node_22 -->
<g id="edge37" class="edge"><title>Node_35&#45;&gt;Node_22</title>
<path fill="none" stroke="tan" d="M430,-584.313C430,-576.289 430,-566.547 430,-557.569"/>
<polygon fill="tan" stroke="tan" points="433.5,-557.529 430,-547.529 426.5,-557.529 433.5,-557.529"/>
</g>
<!-- Node_36 -->
<g id="node37" class="node"><title>Node_36</title>
<path fill="lightblue" stroke="lightblue" d="M222,-949.5C222,-949.5 266,-949.5 266,-949.5 272,-949.5 278,-955.5 278,-961.5 278,-961.5 278,-973.5 278,-973.5 278,-979.5 272,-985.5 266,-985.5 266,-985.5 222,-985.5 222,-985.5 216,-985.5 210,-979.5 210,-973.5 210,-973.5 210,-961.5 210,-961.5 210,-955.5 216,-949.5 222,-949.5"/>
<text text-anchor="middle" x="244" y="-965.3" font-family="Arial" font-size="9.00">if (j_5 == 99)</text>
</g>
<!-- Node_37 -->
<g id="node38" class="node"><title>Node_37</title>
<path fill="moccasin" stroke="moccasin" d="M219.5,-876.5C219.5,-876.5 268.5,-876.5 268.5,-876.5 274.5,-876.5 280.5,-882.5 280.5,-888.5 280.5,-888.5 280.5,-900.5 280.5,-900.5 280.5,-906.5 274.5,-912.5 268.5,-912.5 268.5,-912.5 219.5,-912.5 219.5,-912.5 213.5,-912.5 207.5,-906.5 207.5,-900.5 207.5,-900.5 207.5,-888.5 207.5,-888.5 207.5,-882.5 213.5,-876.5 219.5,-876.5"/>
<text text-anchor="middle" x="244" y="-892.3" font-family="Arial" font-size="9.00">j_5_t: [&#45;inf, inf]</text>
</g>
<!-- Node_36&#45;&gt;Node_37 -->
<g id="edge19" class="edge"><title>Node_36&#45;&gt;Node_37</title>
<path fill="none" stroke="steelblue" d="M244,-949.313C244,-941.289 244,-931.547 244,-922.569"/>
<polygon fill="steelblue" stroke="steelblue" points="247.5,-922.529 244,-912.529 240.5,-922.529 247.5,-922.529"/>
</g>
<!-- Node_37&#45;&gt;Node_30 -->
<g id="edge34" class="edge"><title>Node_37&#45;&gt;Node_30</title>
<path fill="none" stroke="tan" d="M244,-876.313C244,-868.289 244,-858.547 244,-849.569"/>
<polygon fill="tan" stroke="tan" points="247.5,-849.529 244,-839.529 240.5,-849.529 247.5,-849.529"/>
</g>
</g>
</svg>
