<?xml version="1.0" encoding="UTF-8" standalone="no"?>
<!DOCTYPE svg PUBLIC "-//W3C//DTD SVG 1.1//EN"
 "http://www.w3.org/Graphics/SVG/1.1/DTD/svg11.dtd">
<!-- Generated by graphviz version 2.38.0 (20140413.2041)
 -->
<!-- Title: t10_foo_final_ConstraintGraph Pages: 1 -->
<svg width="823pt" height="504pt"
     viewBox="0.00 0.00 823.00 504.00" xmlns="http://www.w3.org/2000/svg">
<g id="graph0" class="graph" transform="scale(1 1) rotate(0) translate(4 500)">
<title>t10_foo_final_ConstraintGraph</title>
<polygon fill="white" stroke="none" points="-4,4 -4,-500 819,-500 819,4 -4,4"/>
<text text-anchor="middle" x="407.5" y="-482.4" font-family="Arial" font-size="12.00">t10_foo_final_ConstraintGraph</text>
<!-- Node_0 -->
<g id="node1" class="node"><title>Node_0</title>
<path fill="lightblue" stroke="lightblue" d="M305.5,-365.5C305.5,-365.5 348.5,-365.5 348.5,-365.5 354.5,-365.5 360.5,-371.5 360.5,-377.5 360.5,-377.5 360.5,-389.5 360.5,-389.5 360.5,-395.5 354.5,-401.5 348.5,-401.5 348.5,-401.5 305.5,-401.5 305.5,-401.5 299.5,-401.5 293.5,-395.5 293.5,-389.5 293.5,-389.5 293.5,-377.5 293.5,-377.5 293.5,-371.5 299.5,-365.5 305.5,-365.5"/>
<text text-anchor="middle" x="327" y="-381.3" font-family="Arial" font-size="9.00">j_7 = j_2 + 1</text>
</g>
<!-- Node_1 -->
<g id="node2" class="node"><title>Node_1</title>
<path fill="moccasin" stroke="moccasin" d="M240.5,-292.5C240.5,-292.5 297.5,-292.5 297.5,-292.5 303.5,-292.5 309.5,-298.5 309.5,-304.5 309.5,-304.5 309.5,-316.5 309.5,-316.5 309.5,-322.5 303.5,-328.5 297.5,-328.5 297.5,-328.5 240.5,-328.5 240.5,-328.5 234.5,-328.5 228.5,-322.5 228.5,-316.5 228.5,-316.5 228.5,-304.5 228.5,-304.5 228.5,-298.5 234.5,-292.5 240.5,-292.5"/>
<text text-anchor="middle" x="269" y="-308.3" font-family="Arial" font-size="9.00">j_7: [1.0, Infinity]</text>
</g>
<!-- Node_0&#45;&gt;Node_1 -->
<g id="edge1" class="edge"><title>Node_0&#45;&gt;Node_1</title>
<path fill="none" stroke="steelblue" d="M312.96,-365.313C305.907,-356.679 297.228,-346.055 289.45,-336.534"/>
<polygon fill="steelblue" stroke="steelblue" points="291.948,-334.059 282.911,-328.529 286.527,-338.488 291.948,-334.059"/>
</g>
<!-- Node_6 -->
<g id="node7" class="node"><title>Node_6</title>
<path fill="lightblue" stroke="lightblue" d="M28,-219.5C28,-219.5 84,-219.5 84,-219.5 90,-219.5 96,-225.5 96,-231.5 96,-231.5 96,-243.5 96,-243.5 96,-249.5 90,-255.5 84,-255.5 84,-255.5 28,-255.5 28,-255.5 22,-255.5 16,-249.5 16,-243.5 16,-243.5 16,-231.5 16,-231.5 16,-225.5 22,-219.5 28,-219.5"/>
<text text-anchor="middle" x="56" y="-235.3" font-family="Arial" font-size="9.00">_8 = i_1_f + j_7</text>
</g>
<!-- Node_1&#45;&gt;Node_6 -->
<g id="edge15" class="edge"><title>Node_1&#45;&gt;Node_6</title>
<path fill="none" stroke="tan" d="M228.458,-296.619C197.283,-286.636 152.918,-272.264 105.583,-256.159"/>
<polygon fill="tan" stroke="tan" points="106.674,-252.834 96.0797,-252.916 104.413,-259.458 106.674,-252.834"/>
</g>
<!-- Node_8 -->
<g id="node9" class="node"><title>Node_8</title>
<path fill="lightblue" stroke="lightblue" d="M227.5,-219.5C227.5,-219.5 330.5,-219.5 330.5,-219.5 336.5,-219.5 342.5,-225.5 342.5,-231.5 342.5,-231.5 342.5,-243.5 342.5,-243.5 342.5,-249.5 336.5,-255.5 330.5,-255.5 330.5,-255.5 227.5,-255.5 227.5,-255.5 221.5,-255.5 215.5,-249.5 215.5,-243.5 215.5,-243.5 215.5,-231.5 215.5,-231.5 215.5,-225.5 221.5,-219.5 227.5,-219.5"/>
<text text-anchor="middle" x="279" y="-235.3" font-family="Arial" font-size="9.00"># j_2 = PHI &lt;j_4(4), j_7(5)&gt;</text>
</g>
<!-- Node_1&#45;&gt;Node_8 -->
<g id="edge16" class="edge"><title>Node_1&#45;&gt;Node_8</title>
<path fill="none" stroke="tan" d="M271.421,-292.313C272.551,-284.289 273.923,-274.547 275.187,-265.569"/>
<polygon fill="tan" stroke="tan" points="278.673,-265.919 276.602,-255.529 271.741,-264.943 278.673,-265.919"/>
</g>
<!-- Node_22 -->
<g id="node23" class="node"><title>Node_22</title>
<path fill="lightblue" stroke="lightblue" d="M126.5,-219.5C126.5,-219.5 185.5,-219.5 185.5,-219.5 191.5,-219.5 197.5,-225.5 197.5,-231.5 197.5,-231.5 197.5,-243.5 197.5,-243.5 197.5,-249.5 191.5,-255.5 185.5,-255.5 185.5,-255.5 126.5,-255.5 126.5,-255.5 120.5,-255.5 114.5,-249.5 114.5,-243.5 114.5,-243.5 114.5,-231.5 114.5,-231.5 114.5,-225.5 120.5,-219.5 126.5,-219.5"/>
<text text-anchor="middle" x="156" y="-235.3" font-family="Arial" font-size="9.00">_10 = j_7 &#45; i_1_f</text>
</g>
<!-- Node_1&#45;&gt;Node_22 -->
<g id="edge17" class="edge"><title>Node_1&#45;&gt;Node_22</title>
<path fill="none" stroke="tan" d="M241.934,-292.494C226.949,-283.079 208.132,-271.255 191.929,-261.075"/>
<polygon fill="tan" stroke="tan" points="193.567,-257.97 183.237,-255.614 189.842,-263.897 193.567,-257.97"/>
</g>
<!-- Node_2 -->
<g id="node3" class="node"><title>Node_2</title>
<path fill="lightblue" stroke="lightblue" d="M642,-219.5C642,-219.5 672,-219.5 672,-219.5 678,-219.5 684,-225.5 684,-231.5 684,-231.5 684,-243.5 684,-243.5 684,-249.5 678,-255.5 672,-255.5 672,-255.5 642,-255.5 642,-255.5 636,-255.5 630,-249.5 630,-243.5 630,-243.5 630,-231.5 630,-231.5 630,-225.5 636,-219.5 642,-219.5"/>
<text text-anchor="middle" x="657" y="-235.3" font-family="Arial" font-size="9.00">i_3 = 0</text>
</g>
<!-- Node_3 -->
<g id="node4" class="node"><title>Node_3</title>
<path fill="moccasin" stroke="moccasin" d="M635,-146.5C635,-146.5 679,-146.5 679,-146.5 685,-146.5 691,-152.5 691,-158.5 691,-158.5 691,-170.5 691,-170.5 691,-176.5 685,-182.5 679,-182.5 679,-182.5 635,-182.5 635,-182.5 629,-182.5 623,-176.5 623,-170.5 623,-170.5 623,-158.5 623,-158.5 623,-152.5 629,-146.5 635,-146.5"/>
<text text-anchor="middle" x="657" y="-162.3" font-family="Arial" font-size="9.00">i_3: [0.0, 0.0]</text>
</g>
<!-- Node_2&#45;&gt;Node_3 -->
<g id="edge2" class="edge"><title>Node_2&#45;&gt;Node_3</title>
<path fill="none" stroke="steelblue" d="M657,-219.313C657,-211.289 657,-201.547 657,-192.569"/>
<polygon fill="steelblue" stroke="steelblue" points="660.5,-192.529 657,-182.529 653.5,-192.529 660.5,-192.529"/>
</g>
<!-- Node_20 -->
<g id="node21" class="node"><title>Node_20</title>
<path fill="lightblue" stroke="lightblue" d="M543.5,-73.5C543.5,-73.5 646.5,-73.5 646.5,-73.5 652.5,-73.5 658.5,-79.5 658.5,-85.5 658.5,-85.5 658.5,-97.5 658.5,-97.5 658.5,-103.5 652.5,-109.5 646.5,-109.5 646.5,-109.5 543.5,-109.5 543.5,-109.5 537.5,-109.5 531.5,-103.5 531.5,-97.5 531.5,-97.5 531.5,-85.5 531.5,-85.5 531.5,-79.5 537.5,-73.5 543.5,-73.5"/>
<text text-anchor="middle" x="595" y="-89.3" font-family="Arial" font-size="9.00"># i_1 = PHI &lt;i_3(2), i_6(3)&gt;</text>
</g>
<!-- Node_3&#45;&gt;Node_20 -->
<g id="edge22" class="edge"><title>Node_3&#45;&gt;Node_20</title>
<path fill="none" stroke="tan" d="M641.992,-146.313C634.376,-137.592 624.987,-126.84 616.609,-117.246"/>
<polygon fill="tan" stroke="tan" points="619.084,-114.759 609.87,-109.529 613.811,-119.363 619.084,-114.759"/>
</g>
<!-- Node_4 -->
<g id="node5" class="node"><title>Node_4</title>
<path fill="lightblue" stroke="lightblue" d="M30.5,-73.5C30.5,-73.5 71.5,-73.5 71.5,-73.5 77.5,-73.5 83.5,-79.5 83.5,-85.5 83.5,-85.5 83.5,-97.5 83.5,-97.5 83.5,-103.5 77.5,-109.5 71.5,-109.5 71.5,-109.5 30.5,-109.5 30.5,-109.5 24.5,-109.5 18.5,-103.5 18.5,-97.5 18.5,-97.5 18.5,-85.5 18.5,-85.5 18.5,-79.5 24.5,-73.5 30.5,-73.5"/>
<text text-anchor="middle" x="51" y="-89.3" font-family="Arial" font-size="9.00">if (_8 &lt; b_9)</text>
</g>
<!-- Node_5 -->
<g id="node6" class="node"><title>Node_5</title>
<path fill="moccasin" stroke="moccasin" d="M12,-0.5C12,-0.5 90,-0.5 90,-0.5 96,-0.5 102,-6.5 102,-12.5 102,-12.5 102,-24.5 102,-24.5 102,-30.5 96,-36.5 90,-36.5 90,-36.5 12,-36.5 12,-36.5 6,-36.5 0,-30.5 0,-24.5 0,-24.5 0,-12.5 0,-12.5 0,-6.5 6,-0.5 12,-0.5"/>
<text text-anchor="middle" x="51" y="-16.3" font-family="Arial" font-size="9.00">_8_t: [&#45;Infinity, Infinity]</text>
</g>
<!-- Node_4&#45;&gt;Node_5 -->
<g id="edge3" class="edge"><title>Node_4&#45;&gt;Node_5</title>
<path fill="none" stroke="steelblue" d="M51,-73.3129C51,-65.2895 51,-55.5475 51,-46.5691"/>
<polygon fill="steelblue" stroke="steelblue" points="54.5001,-46.5288 51,-36.5288 47.5001,-46.5289 54.5001,-46.5288"/>
</g>
<!-- Node_7 -->
<g id="node8" class="node"><title>Node_7</title>
<path fill="moccasin" stroke="moccasin" d="M21,-146.5C21,-146.5 81,-146.5 81,-146.5 87,-146.5 93,-152.5 93,-158.5 93,-158.5 93,-170.5 93,-170.5 93,-176.5 87,-182.5 81,-182.5 81,-182.5 21,-182.5 21,-182.5 15,-182.5 9,-176.5 9,-170.5 9,-170.5 9,-158.5 9,-158.5 9,-152.5 15,-146.5 21,-146.5"/>
<text text-anchor="middle" x="51" y="-162.3" font-family="Arial" font-size="9.00">_8: [31.0, Infinity]</text>
</g>
<!-- Node_6&#45;&gt;Node_7 -->
<g id="edge4" class="edge"><title>Node_6&#45;&gt;Node_7</title>
<path fill="none" stroke="steelblue" d="M54.7896,-219.313C54.2246,-211.289 53.5386,-201.547 52.9063,-192.569"/>
<polygon fill="steelblue" stroke="steelblue" points="56.3931,-192.258 52.1992,-182.529 49.4104,-192.75 56.3931,-192.258"/>
</g>
<!-- Node_7&#45;&gt;Node_4 -->
<g id="edge24" class="edge"><title>Node_7&#45;&gt;Node_4</title>
<path fill="none" stroke="tan" d="M51,-146.313C51,-138.289 51,-128.547 51,-119.569"/>
<polygon fill="tan" stroke="tan" points="54.5001,-119.529 51,-109.529 47.5001,-119.529 54.5001,-119.529"/>
</g>
<!-- Node_9 -->
<g id="node10" class="node"><title>Node_9</title>
<path fill="moccasin" stroke="moccasin" d="M296.5,-146.5C296.5,-146.5 353.5,-146.5 353.5,-146.5 359.5,-146.5 365.5,-152.5 365.5,-158.5 365.5,-158.5 365.5,-170.5 365.5,-170.5 365.5,-176.5 359.5,-182.5 353.5,-182.5 353.5,-182.5 296.5,-182.5 296.5,-182.5 290.5,-182.5 284.5,-176.5 284.5,-170.5 284.5,-170.5 284.5,-158.5 284.5,-158.5 284.5,-152.5 290.5,-146.5 296.5,-146.5"/>
<text text-anchor="middle" x="325" y="-162.3" font-family="Arial" font-size="9.00">j_2: [0.0, Infinity]</text>
</g>
<!-- Node_8&#45;&gt;Node_9 -->
<g id="edge5" class="edge"><title>Node_8&#45;&gt;Node_9</title>
<path fill="none" stroke="steelblue" d="M290.135,-219.313C295.616,-210.853 302.335,-200.484 308.406,-191.112"/>
<polygon fill="steelblue" stroke="steelblue" points="311.467,-192.824 313.967,-182.529 305.592,-189.018 311.467,-192.824"/>
</g>
<!-- Node_9&#45;&gt;Node_0 -->
<g id="edge19" class="edge"><title>Node_9&#45;&gt;Node_0</title>
<path fill="none" stroke="tan" d="M335.777,-182.589C341.536,-192.743 348.036,-206.118 351,-219 361.915,-266.43 347.825,-322.795 337.077,-355.427"/>
<polygon fill="tan" stroke="tan" points="333.677,-354.552 333.741,-365.146 340.298,-356.824 333.677,-354.552"/>
</g>
<!-- Node_10 -->
<g id="node11" class="node"><title>Node_10</title>
<path fill="lightblue" stroke="lightblue" d="M159.5,-365.5C159.5,-365.5 208.5,-365.5 208.5,-365.5 214.5,-365.5 220.5,-371.5 220.5,-377.5 220.5,-377.5 220.5,-389.5 220.5,-389.5 220.5,-395.5 214.5,-401.5 208.5,-401.5 208.5,-401.5 159.5,-401.5 159.5,-401.5 153.5,-401.5 147.5,-395.5 147.5,-389.5 147.5,-389.5 147.5,-377.5 147.5,-377.5 147.5,-371.5 153.5,-365.5 159.5,-365.5"/>
<text text-anchor="middle" x="184" y="-381.3" font-family="Arial" font-size="9.00">if (i_1 &gt;= a_5)</text>
</g>
<!-- Node_11 -->
<g id="node12" class="node"><title>Node_11</title>
<path fill="moccasin" stroke="moccasin" d="M125,-292.5C125,-292.5 187,-292.5 187,-292.5 193,-292.5 199,-298.5 199,-304.5 199,-304.5 199,-316.5 199,-316.5 199,-322.5 193,-328.5 187,-328.5 187,-328.5 125,-328.5 125,-328.5 119,-328.5 113,-322.5 113,-316.5 113,-316.5 113,-304.5 113,-304.5 113,-298.5 119,-292.5 125,-292.5"/>
<text text-anchor="middle" x="156" y="-308.3" font-family="Arial" font-size="9.00">i_1_f: [30.0, 50.0]</text>
</g>
<!-- Node_10&#45;&gt;Node_11 -->
<g id="edge6" class="edge"><title>Node_10&#45;&gt;Node_11</title>
<path fill="none" stroke="steelblue" d="M177.222,-365.313C173.989,-357.115 170.049,-347.123 166.445,-337.985"/>
<polygon fill="steelblue" stroke="steelblue" points="169.64,-336.548 162.716,-328.529 163.128,-339.116 169.64,-336.548"/>
</g>
<!-- Node_11&#45;&gt;Node_6 -->
<g id="edge13" class="edge"><title>Node_11&#45;&gt;Node_6</title>
<path fill="none" stroke="tan" d="M132.048,-292.494C119.032,-283.253 102.75,-271.692 88.5944,-261.642"/>
<polygon fill="tan" stroke="tan" points="90.2837,-258.549 80.1036,-255.614 86.2312,-264.257 90.2837,-258.549"/>
</g>
<!-- Node_11&#45;&gt;Node_22 -->
<g id="edge14" class="edge"><title>Node_11&#45;&gt;Node_22</title>
<path fill="none" stroke="tan" d="M156,-292.313C156,-284.289 156,-274.547 156,-265.569"/>
<polygon fill="tan" stroke="tan" points="159.5,-265.529 156,-255.529 152.5,-265.529 159.5,-265.529"/>
</g>
<!-- Node_12 -->
<g id="node13" class="node"><title>Node_12</title>
<path fill="lightblue" stroke="lightblue" d="M503,-219.5C503,-219.5 553,-219.5 553,-219.5 559,-219.5 565,-225.5 565,-231.5 565,-231.5 565,-243.5 565,-243.5 565,-249.5 559,-255.5 553,-255.5 553,-255.5 503,-255.5 503,-255.5 497,-255.5 491,-249.5 491,-243.5 491,-243.5 491,-231.5 491,-231.5 491,-225.5 497,-219.5 503,-219.5"/>
<text text-anchor="middle" x="528" y="-235.3" font-family="Arial" font-size="9.00">i_6 = i_1_t + 1</text>
</g>
<!-- Node_13 -->
<g id="node14" class="node"><title>Node_13</title>
<path fill="moccasin" stroke="moccasin" d="M504,-146.5C504,-146.5 554,-146.5 554,-146.5 560,-146.5 566,-152.5 566,-158.5 566,-158.5 566,-170.5 566,-170.5 566,-176.5 560,-182.5 554,-182.5 554,-182.5 504,-182.5 504,-182.5 498,-182.5 492,-176.5 492,-170.5 492,-170.5 492,-158.5 492,-158.5 492,-152.5 498,-146.5 504,-146.5"/>
<text text-anchor="middle" x="529" y="-162.3" font-family="Arial" font-size="9.00">i_6: [1.0, 50.0]</text>
</g>
<!-- Node_12&#45;&gt;Node_13 -->
<g id="edge7" class="edge"><title>Node_12&#45;&gt;Node_13</title>
<path fill="none" stroke="steelblue" d="M528.242,-219.313C528.355,-211.289 528.492,-201.547 528.619,-192.569"/>
<polygon fill="steelblue" stroke="steelblue" points="532.119,-192.577 528.76,-182.529 525.12,-192.479 532.119,-192.577"/>
</g>
<!-- Node_13&#45;&gt;Node_20 -->
<g id="edge18" class="edge"><title>Node_13&#45;&gt;Node_20</title>
<path fill="none" stroke="tan" d="M544.977,-146.313C553.165,-137.505 563.278,-126.625 572.264,-116.958"/>
<polygon fill="tan" stroke="tan" points="574.925,-119.236 579.17,-109.529 569.798,-114.47 574.925,-119.236"/>
</g>
<!-- Node_14 -->
<g id="node15" class="node"><title>Node_14</title>
<path fill="lightblue" stroke="lightblue" d="M650.5,-365.5C650.5,-365.5 691.5,-365.5 691.5,-365.5 697.5,-365.5 703.5,-371.5 703.5,-377.5 703.5,-377.5 703.5,-389.5 703.5,-389.5 703.5,-395.5 697.5,-401.5 691.5,-401.5 691.5,-401.5 650.5,-401.5 650.5,-401.5 644.5,-401.5 638.5,-395.5 638.5,-389.5 638.5,-389.5 638.5,-377.5 638.5,-377.5 638.5,-371.5 644.5,-365.5 650.5,-365.5"/>
<text text-anchor="middle" x="671" y="-381.3" font-family="Arial" font-size="9.00">if (_8 &lt; b_9)</text>
</g>
<!-- Node_15 -->
<g id="node16" class="node"><title>Node_15</title>
<path fill="moccasin" stroke="moccasin" d="M635.5,-292.5C635.5,-292.5 706.5,-292.5 706.5,-292.5 712.5,-292.5 718.5,-298.5 718.5,-304.5 718.5,-304.5 718.5,-316.5 718.5,-316.5 718.5,-322.5 712.5,-328.5 706.5,-328.5 706.5,-328.5 635.5,-328.5 635.5,-328.5 629.5,-328.5 623.5,-322.5 623.5,-316.5 623.5,-316.5 623.5,-304.5 623.5,-304.5 623.5,-298.5 629.5,-292.5 635.5,-292.5"/>
<text text-anchor="middle" x="671" y="-308.3" font-family="Arial" font-size="9.00">b_9_t: [90.0, 100.0]</text>
</g>
<!-- Node_14&#45;&gt;Node_15 -->
<g id="edge8" class="edge"><title>Node_14&#45;&gt;Node_15</title>
<path fill="none" stroke="steelblue" d="M671,-365.313C671,-357.289 671,-347.547 671,-338.569"/>
<polygon fill="steelblue" stroke="steelblue" points="674.5,-338.529 671,-328.529 667.5,-338.529 674.5,-338.529"/>
</g>
<!-- Node_16 -->
<g id="node17" class="node"><title>Node_16</title>
<path fill="lightblue" stroke="lightblue" d="M418,-365.5C418,-365.5 448,-365.5 448,-365.5 454,-365.5 460,-371.5 460,-377.5 460,-377.5 460,-389.5 460,-389.5 460,-395.5 454,-401.5 448,-401.5 448,-401.5 418,-401.5 418,-401.5 412,-401.5 406,-395.5 406,-389.5 406,-389.5 406,-377.5 406,-377.5 406,-371.5 412,-365.5 418,-365.5"/>
<text text-anchor="middle" x="433" y="-381.3" font-family="Arial" font-size="9.00">j_4 = 0</text>
</g>
<!-- Node_17 -->
<g id="node18" class="node"><title>Node_17</title>
<path fill="moccasin" stroke="moccasin" d="M411,-292.5C411,-292.5 455,-292.5 455,-292.5 461,-292.5 467,-298.5 467,-304.5 467,-304.5 467,-316.5 467,-316.5 467,-322.5 461,-328.5 455,-328.5 455,-328.5 411,-328.5 411,-328.5 405,-328.5 399,-322.5 399,-316.5 399,-316.5 399,-304.5 399,-304.5 399,-298.5 405,-292.5 411,-292.5"/>
<text text-anchor="middle" x="433" y="-308.3" font-family="Arial" font-size="9.00">j_4: [0.0, 0.0]</text>
</g>
<!-- Node_16&#45;&gt;Node_17 -->
<g id="edge9" class="edge"><title>Node_16&#45;&gt;Node_17</title>
<path fill="none" stroke="steelblue" d="M433,-365.313C433,-357.289 433,-347.547 433,-338.569"/>
<polygon fill="steelblue" stroke="steelblue" points="436.5,-338.529 433,-328.529 429.5,-338.529 436.5,-338.529"/>
</g>
<!-- Node_17&#45;&gt;Node_8 -->
<g id="edge20" class="edge"><title>Node_17&#45;&gt;Node_8</title>
<path fill="none" stroke="tan" d="M398.822,-293.743C377.153,-283.752 348.85,-270.703 325.192,-259.796"/>
<polygon fill="tan" stroke="tan" points="326.59,-256.587 316.043,-255.578 323.659,-262.944 326.59,-256.587"/>
</g>
<!-- Node_18 -->
<g id="node19" class="node"><title>Node_18</title>
<path fill="lightblue" stroke="lightblue" d="M504,-365.5C504,-365.5 548,-365.5 548,-365.5 554,-365.5 560,-371.5 560,-377.5 560,-377.5 560,-389.5 560,-389.5 560,-395.5 554,-401.5 548,-401.5 548,-401.5 504,-401.5 504,-401.5 498,-401.5 492,-395.5 492,-389.5 492,-389.5 492,-377.5 492,-377.5 492,-371.5 498,-365.5 504,-365.5"/>
<text text-anchor="middle" x="526" y="-381.3" font-family="Arial" font-size="9.00">if (i_1 &lt; a_5)</text>
</g>
<!-- Node_19 -->
<g id="node20" class="node"><title>Node_19</title>
<path fill="moccasin" stroke="moccasin" d="M497.5,-292.5C497.5,-292.5 554.5,-292.5 554.5,-292.5 560.5,-292.5 566.5,-298.5 566.5,-304.5 566.5,-304.5 566.5,-316.5 566.5,-316.5 566.5,-322.5 560.5,-328.5 554.5,-328.5 554.5,-328.5 497.5,-328.5 497.5,-328.5 491.5,-328.5 485.5,-322.5 485.5,-316.5 485.5,-316.5 485.5,-304.5 485.5,-304.5 485.5,-298.5 491.5,-292.5 497.5,-292.5"/>
<text text-anchor="middle" x="526" y="-308.3" font-family="Arial" font-size="9.00">i_1_t: [0.0, 49.0]</text>
</g>
<!-- Node_18&#45;&gt;Node_19 -->
<g id="edge10" class="edge"><title>Node_18&#45;&gt;Node_19</title>
<path fill="none" stroke="steelblue" d="M526,-365.313C526,-357.289 526,-347.547 526,-338.569"/>
<polygon fill="steelblue" stroke="steelblue" points="529.5,-338.529 526,-328.529 522.5,-338.529 529.5,-338.529"/>
</g>
<!-- Node_19&#45;&gt;Node_12 -->
<g id="edge23" class="edge"><title>Node_19&#45;&gt;Node_12</title>
<path fill="none" stroke="tan" d="M526.484,-292.313C526.71,-284.289 526.985,-274.547 527.237,-265.569"/>
<polygon fill="tan" stroke="tan" points="530.737,-265.623 527.52,-255.529 523.74,-265.426 530.737,-265.623"/>
</g>
<!-- Node_21 -->
<g id="node22" class="node"><title>Node_21</title>
<path fill="moccasin" stroke="moccasin" d="M501,-438.5C501,-438.5 551,-438.5 551,-438.5 557,-438.5 563,-444.5 563,-450.5 563,-450.5 563,-462.5 563,-462.5 563,-468.5 557,-474.5 551,-474.5 551,-474.5 501,-474.5 501,-474.5 495,-474.5 489,-468.5 489,-462.5 489,-462.5 489,-450.5 489,-450.5 489,-444.5 495,-438.5 501,-438.5"/>
<text text-anchor="middle" x="526" y="-454.3" font-family="Arial" font-size="9.00">i_1: [0.0, 50.0]</text>
</g>
<!-- Node_20&#45;&gt;Node_21 -->
<g id="edge11" class="edge"><title>Node_20&#45;&gt;Node_21</title>
<path fill="none" stroke="steelblue" d="M595,-109.789C595,-136.824 595,-190.75 595,-236.5 595,-311.5 595,-311.5 595,-311.5 595,-353.349 588.265,-364.849 569,-402 563.762,-412.101 556.449,-422.11 549.338,-430.69"/>
<polygon fill="steelblue" stroke="steelblue" points="546.539,-428.577 542.657,-438.435 551.839,-433.149 546.539,-428.577"/>
</g>
<!-- Node_21&#45;&gt;Node_10 -->
<g id="edge25" class="edge"><title>Node_21&#45;&gt;Node_10</title>
<path fill="none" stroke="tan" d="M488.749,-447.767C426.01,-434.742 299.409,-408.459 230.782,-394.212"/>
<polygon fill="tan" stroke="tan" points="231.19,-390.722 220.687,-392.116 229.767,-397.576 231.19,-390.722"/>
</g>
<!-- Node_21&#45;&gt;Node_18 -->
<g id="edge26" class="edge"><title>Node_21&#45;&gt;Node_18</title>
<path fill="none" stroke="tan" d="M526,-438.313C526,-430.289 526,-420.547 526,-411.569"/>
<polygon fill="tan" stroke="tan" points="529.5,-411.529 526,-401.529 522.5,-411.529 529.5,-411.529"/>
</g>
<!-- Node_23 -->
<g id="node24" class="node"><title>Node_23</title>
<path fill="moccasin" stroke="moccasin" d="M123,-146.5C123,-146.5 199,-146.5 199,-146.5 205,-146.5 211,-152.5 211,-158.5 211,-158.5 211,-170.5 211,-170.5 211,-176.5 205,-182.5 199,-182.5 199,-182.5 123,-182.5 123,-182.5 117,-182.5 111,-176.5 111,-170.5 111,-170.5 111,-158.5 111,-158.5 111,-152.5 117,-146.5 123,-146.5"/>
<text text-anchor="middle" x="161" y="-162.3" font-family="Arial" font-size="9.00">_10: [&#45;Infinity, Infinity]</text>
</g>
<!-- Node_22&#45;&gt;Node_23 -->
<g id="edge12" class="edge"><title>Node_22&#45;&gt;Node_23</title>
<path fill="none" stroke="steelblue" d="M157.21,-219.313C157.775,-211.289 158.461,-201.547 159.094,-192.569"/>
<polygon fill="steelblue" stroke="steelblue" points="162.59,-192.75 159.801,-182.529 155.607,-192.258 162.59,-192.75"/>
</g>
<!-- Node_24 -->
<g id="node25" class="node"><title>Node_24</title>
<path fill="moccasin" stroke="moccasin" d="M639.5,-438.5C639.5,-438.5 702.5,-438.5 702.5,-438.5 708.5,-438.5 714.5,-444.5 714.5,-450.5 714.5,-450.5 714.5,-462.5 714.5,-462.5 714.5,-468.5 708.5,-474.5 702.5,-474.5 702.5,-474.5 639.5,-474.5 639.5,-474.5 633.5,-474.5 627.5,-468.5 627.5,-462.5 627.5,-462.5 627.5,-450.5 627.5,-450.5 627.5,-444.5 633.5,-438.5 639.5,-438.5"/>
<text text-anchor="middle" x="671" y="-454.3" font-family="Arial" font-size="9.00">b_9: [90.0, 100.0]</text>
</g>
<!-- Node_24&#45;&gt;Node_14 -->
<g id="edge21" class="edge"><title>Node_24&#45;&gt;Node_14</title>
<path fill="none" stroke="tan" d="M671,-438.313C671,-430.289 671,-420.547 671,-411.569"/>
<polygon fill="tan" stroke="tan" points="674.5,-411.529 671,-401.529 667.5,-411.529 674.5,-411.529"/>
</g>
<!-- Node_25 -->
<g id="node26" class="node"><title>Node_25</title>
<path fill="moccasin" stroke="moccasin" d="M745,-438.5C745,-438.5 803,-438.5 803,-438.5 809,-438.5 815,-444.5 815,-450.5 815,-450.5 815,-462.5 815,-462.5 815,-468.5 809,-474.5 803,-474.5 803,-474.5 745,-474.5 745,-474.5 739,-474.5 733,-468.5 733,-462.5 733,-462.5 733,-450.5 733,-450.5 733,-444.5 739,-438.5 745,-438.5"/>
<text text-anchor="middle" x="774" y="-454.3" font-family="Arial" font-size="9.00">a_5: [30.0, 50.0]</text>
</g>
</g>
</svg>
