<?xml version="1.0" encoding="UTF-8" standalone="no"?>
<!DOCTYPE svg PUBLIC "-//W3C//DTD SVG 1.1//EN"
 "http://www.w3.org/Graphics/SVG/1.1/DTD/svg11.dtd">
<!-- Generated by graphviz version 2.38.0 (20140413.2041)
 -->
<!-- Title: t10_foo_ConstraintGraph Pages: 1 -->
<svg width="806pt" height="504pt"
     viewBox="0.00 0.00 806.00 504.00" xmlns="http://www.w3.org/2000/svg">
<g id="graph0" class="graph" transform="scale(1 1) rotate(0) translate(4 500)">
<title>t10_foo_ConstraintGraph</title>
<polygon fill="white" stroke="none" points="-4,4 -4,-500 802,-500 802,4 -4,4"/>
<text text-anchor="middle" x="399" y="-482.4" font-family="Arial" font-size="12.00">t10_foo_ConstraintGraph</text>
<!-- Node_0 -->
<g id="node1" class="node"><title>Node_0</title>
<path fill="lightblue" stroke="lightblue" d="M430,-365.5C430,-365.5 479,-365.5 479,-365.5 485,-365.5 491,-371.5 491,-377.5 491,-377.5 491,-389.5 491,-389.5 491,-395.5 485,-401.5 479,-401.5 479,-401.5 430,-401.5 430,-401.5 424,-401.5 418,-395.5 418,-389.5 418,-389.5 418,-377.5 418,-377.5 418,-371.5 424,-365.5 430,-365.5"/>
<text text-anchor="middle" x="454.5" y="-381.3" font-family="Arial" font-size="9.00">if (i_1 &gt;= a_5)</text>
</g>
<!-- Node_1 -->
<g id="node2" class="node"><title>Node_1</title>
<path fill="moccasin" stroke="moccasin" d="M403.5,-292.5C403.5,-292.5 483.5,-292.5 483.5,-292.5 489.5,-292.5 495.5,-298.5 495.5,-304.5 495.5,-304.5 495.5,-316.5 495.5,-316.5 495.5,-322.5 489.5,-328.5 483.5,-328.5 483.5,-328.5 403.5,-328.5 403.5,-328.5 397.5,-328.5 391.5,-322.5 391.5,-316.5 391.5,-316.5 391.5,-304.5 391.5,-304.5 391.5,-298.5 397.5,-292.5 403.5,-292.5"/>
<text text-anchor="middle" x="443.5" y="-308.3" font-family="Arial" font-size="9.00">i_1_f: [&#45;Infinity, Infinity]</text>
</g>
<!-- Node_0&#45;&gt;Node_1 -->
<g id="edge1" class="edge"><title>Node_0&#45;&gt;Node_1</title>
<path fill="none" stroke="steelblue" d="M451.837,-365.313C450.594,-357.289 449.085,-347.547 447.694,-338.569"/>
<polygon fill="steelblue" stroke="steelblue" points="451.128,-337.875 446.138,-328.529 444.211,-338.947 451.128,-337.875"/>
</g>
<!-- Node_8 -->
<g id="node9" class="node"><title>Node_8</title>
<path fill="lightblue" stroke="lightblue" d="M203.5,-219.5C203.5,-219.5 259.5,-219.5 259.5,-219.5 265.5,-219.5 271.5,-225.5 271.5,-231.5 271.5,-231.5 271.5,-243.5 271.5,-243.5 271.5,-249.5 265.5,-255.5 259.5,-255.5 259.5,-255.5 203.5,-255.5 203.5,-255.5 197.5,-255.5 191.5,-249.5 191.5,-243.5 191.5,-243.5 191.5,-231.5 191.5,-231.5 191.5,-225.5 197.5,-219.5 203.5,-219.5"/>
<text text-anchor="middle" x="231.5" y="-235.3" font-family="Arial" font-size="9.00">_8 = i_1_f + j_7</text>
</g>
<!-- Node_1&#45;&gt;Node_8 -->
<g id="edge16" class="edge"><title>Node_1&#45;&gt;Node_8</title>
<path fill="none" stroke="tan" d="M392.721,-292.494C358.939,-281.18 314.775,-266.389 281.215,-255.15"/>
<polygon fill="tan" stroke="tan" points="282.2,-251.789 271.606,-251.932 279.977,-258.426 282.2,-251.789"/>
</g>
<!-- Node_22 -->
<g id="node23" class="node"><title>Node_22</title>
<path fill="lightblue" stroke="lightblue" d="M414,-219.5C414,-219.5 473,-219.5 473,-219.5 479,-219.5 485,-225.5 485,-231.5 485,-231.5 485,-243.5 485,-243.5 485,-249.5 479,-255.5 473,-255.5 473,-255.5 414,-255.5 414,-255.5 408,-255.5 402,-249.5 402,-243.5 402,-243.5 402,-231.5 402,-231.5 402,-225.5 408,-219.5 414,-219.5"/>
<text text-anchor="middle" x="443.5" y="-235.3" font-family="Arial" font-size="9.00">_10 = j_7 &#45; i_1_f</text>
</g>
<!-- Node_1&#45;&gt;Node_22 -->
<g id="edge17" class="edge"><title>Node_1&#45;&gt;Node_22</title>
<path fill="none" stroke="tan" d="M443.5,-292.313C443.5,-284.289 443.5,-274.547 443.5,-265.569"/>
<polygon fill="tan" stroke="tan" points="447,-265.529 443.5,-255.529 440,-265.529 447,-265.529"/>
</g>
<!-- Node_2 -->
<g id="node3" class="node"><title>Node_2</title>
<path fill="lightblue" stroke="lightblue" d="M88,-73.5C88,-73.5 131,-73.5 131,-73.5 137,-73.5 143,-79.5 143,-85.5 143,-85.5 143,-97.5 143,-97.5 143,-103.5 137,-109.5 131,-109.5 131,-109.5 88,-109.5 88,-109.5 82,-109.5 76,-103.5 76,-97.5 76,-97.5 76,-85.5 76,-85.5 76,-79.5 82,-73.5 88,-73.5"/>
<text text-anchor="middle" x="109.5" y="-89.3" font-family="Arial" font-size="9.00">j_7 = j_2 + 1</text>
</g>
<!-- Node_3 -->
<g id="node4" class="node"><title>Node_3</title>
<path fill="moccasin" stroke="moccasin" d="M169,-292.5C169,-292.5 242,-292.5 242,-292.5 248,-292.5 254,-298.5 254,-304.5 254,-304.5 254,-316.5 254,-316.5 254,-322.5 248,-328.5 242,-328.5 242,-328.5 169,-328.5 169,-328.5 163,-328.5 157,-322.5 157,-316.5 157,-316.5 157,-304.5 157,-304.5 157,-298.5 163,-292.5 169,-292.5"/>
<text text-anchor="middle" x="205.5" y="-308.3" font-family="Arial" font-size="9.00">j_7: [&#45;Infinity, Infinity]</text>
</g>
<!-- Node_2&#45;&gt;Node_3 -->
<g id="edge2" class="edge"><title>Node_2&#45;&gt;Node_3</title>
<path fill="none" stroke="steelblue" d="M117.131,-109.749C133.865,-147.575 173.88,-238.025 193.809,-283.073"/>
<polygon fill="steelblue" stroke="steelblue" points="190.72,-284.743 197.967,-292.472 197.122,-281.911 190.72,-284.743"/>
</g>
<!-- Node_3&#45;&gt;Node_8 -->
<g id="edge13" class="edge"><title>Node_3&#45;&gt;Node_8</title>
<path fill="none" stroke="tan" d="M211.794,-292.313C214.796,-284.115 218.455,-274.123 221.801,-264.985"/>
<polygon fill="tan" stroke="tan" points="225.112,-266.123 225.264,-255.529 218.539,-263.715 225.112,-266.123"/>
</g>
<!-- Node_20 -->
<g id="node21" class="node"><title>Node_20</title>
<path fill="lightblue" stroke="lightblue" d="M12,-219.5C12,-219.5 115,-219.5 115,-219.5 121,-219.5 127,-225.5 127,-231.5 127,-231.5 127,-243.5 127,-243.5 127,-249.5 121,-255.5 115,-255.5 115,-255.5 12,-255.5 12,-255.5 6,-255.5 0,-249.5 0,-243.5 0,-243.5 0,-231.5 0,-231.5 0,-225.5 6,-219.5 12,-219.5"/>
<text text-anchor="middle" x="63.5" y="-235.3" font-family="Arial" font-size="9.00"># j_2 = PHI &lt;j_4(4), j_7(5)&gt;</text>
</g>
<!-- Node_3&#45;&gt;Node_20 -->
<g id="edge14" class="edge"><title>Node_3&#45;&gt;Node_20</title>
<path fill="none" stroke="tan" d="M171.487,-292.494C152.047,-282.773 127.473,-270.487 106.681,-260.09"/>
<polygon fill="tan" stroke="tan" points="108.237,-256.955 97.7272,-255.614 105.106,-263.216 108.237,-256.955"/>
</g>
<!-- Node_3&#45;&gt;Node_22 -->
<g id="edge15" class="edge"><title>Node_3&#45;&gt;Node_22</title>
<path fill="none" stroke="tan" d="M254.237,-294.961C294.441,-282.967 351.315,-266.001 392.205,-253.802"/>
<polygon fill="tan" stroke="tan" points="393.393,-257.1 401.976,-250.888 391.392,-250.392 393.393,-257.1"/>
</g>
<!-- Node_4 -->
<g id="node5" class="node"><title>Node_4</title>
<path fill="lightblue" stroke="lightblue" d="M724,-365.5C724,-365.5 765,-365.5 765,-365.5 771,-365.5 777,-371.5 777,-377.5 777,-377.5 777,-389.5 777,-389.5 777,-395.5 771,-401.5 765,-401.5 765,-401.5 724,-401.5 724,-401.5 718,-401.5 712,-395.5 712,-389.5 712,-389.5 712,-377.5 712,-377.5 712,-371.5 718,-365.5 724,-365.5"/>
<text text-anchor="middle" x="744.5" y="-381.3" font-family="Arial" font-size="9.00">if (_8 &lt; b_9)</text>
</g>
<!-- Node_5 -->
<g id="node6" class="node"><title>Node_5</title>
<path fill="moccasin" stroke="moccasin" d="M703,-292.5C703,-292.5 786,-292.5 786,-292.5 792,-292.5 798,-298.5 798,-304.5 798,-304.5 798,-316.5 798,-316.5 798,-322.5 792,-328.5 786,-328.5 786,-328.5 703,-328.5 703,-328.5 697,-328.5 691,-322.5 691,-316.5 691,-316.5 691,-304.5 691,-304.5 691,-298.5 697,-292.5 703,-292.5"/>
<text text-anchor="middle" x="744.5" y="-308.3" font-family="Arial" font-size="9.00">b_9_t: [&#45;Infinity, Infinity]</text>
</g>
<!-- Node_4&#45;&gt;Node_5 -->
<g id="edge3" class="edge"><title>Node_4&#45;&gt;Node_5</title>
<path fill="none" stroke="steelblue" d="M744.5,-365.313C744.5,-357.289 744.5,-347.547 744.5,-338.569"/>
<polygon fill="steelblue" stroke="steelblue" points="748,-338.529 744.5,-328.529 741,-338.529 748,-338.529"/>
</g>
<!-- Node_6 -->
<g id="node7" class="node"><title>Node_6</title>
<path fill="lightblue" stroke="lightblue" d="M330.5,-219.5C330.5,-219.5 360.5,-219.5 360.5,-219.5 366.5,-219.5 372.5,-225.5 372.5,-231.5 372.5,-231.5 372.5,-243.5 372.5,-243.5 372.5,-249.5 366.5,-255.5 360.5,-255.5 360.5,-255.5 330.5,-255.5 330.5,-255.5 324.5,-255.5 318.5,-249.5 318.5,-243.5 318.5,-243.5 318.5,-231.5 318.5,-231.5 318.5,-225.5 324.5,-219.5 330.5,-219.5"/>
<text text-anchor="middle" x="345.5" y="-235.3" font-family="Arial" font-size="9.00">i_3 = 0</text>
</g>
<!-- Node_7 -->
<g id="node8" class="node"><title>Node_7</title>
<path fill="moccasin" stroke="moccasin" d="M309,-146.5C309,-146.5 382,-146.5 382,-146.5 388,-146.5 394,-152.5 394,-158.5 394,-158.5 394,-170.5 394,-170.5 394,-176.5 388,-182.5 382,-182.5 382,-182.5 309,-182.5 309,-182.5 303,-182.5 297,-176.5 297,-170.5 297,-170.5 297,-158.5 297,-158.5 297,-152.5 303,-146.5 309,-146.5"/>
<text text-anchor="middle" x="345.5" y="-162.3" font-family="Arial" font-size="9.00">i_3: [&#45;Infinity, Infinity]</text>
</g>
<!-- Node_6&#45;&gt;Node_7 -->
<g id="edge4" class="edge"><title>Node_6&#45;&gt;Node_7</title>
<path fill="none" stroke="steelblue" d="M345.5,-219.313C345.5,-211.289 345.5,-201.547 345.5,-192.569"/>
<polygon fill="steelblue" stroke="steelblue" points="349,-192.529 345.5,-182.529 342,-192.529 349,-192.529"/>
</g>
<!-- Node_18 -->
<g id="node19" class="node"><title>Node_18</title>
<path fill="lightblue" stroke="lightblue" d="M489,-73.5C489,-73.5 592,-73.5 592,-73.5 598,-73.5 604,-79.5 604,-85.5 604,-85.5 604,-97.5 604,-97.5 604,-103.5 598,-109.5 592,-109.5 592,-109.5 489,-109.5 489,-109.5 483,-109.5 477,-103.5 477,-97.5 477,-97.5 477,-85.5 477,-85.5 477,-79.5 483,-73.5 489,-73.5"/>
<text text-anchor="middle" x="540.5" y="-89.3" font-family="Arial" font-size="9.00"># i_1 = PHI &lt;i_3(2), i_6(3)&gt;</text>
</g>
<!-- Node_7&#45;&gt;Node_18 -->
<g id="edge21" class="edge"><title>Node_7&#45;&gt;Node_18</title>
<path fill="none" stroke="tan" d="M392.207,-146.494C419.742,-136.468 454.775,-123.713 483.876,-113.117"/>
<polygon fill="tan" stroke="tan" points="485.299,-116.324 493.498,-109.614 482.904,-109.746 485.299,-116.324"/>
</g>
<!-- Node_9 -->
<g id="node10" class="node"><title>Node_9</title>
<path fill="moccasin" stroke="moccasin" d="M196,-146.5C196,-146.5 267,-146.5 267,-146.5 273,-146.5 279,-152.5 279,-158.5 279,-158.5 279,-170.5 279,-170.5 279,-176.5 273,-182.5 267,-182.5 267,-182.5 196,-182.5 196,-182.5 190,-182.5 184,-176.5 184,-170.5 184,-170.5 184,-158.5 184,-158.5 184,-152.5 190,-146.5 196,-146.5"/>
<text text-anchor="middle" x="231.5" y="-162.3" font-family="Arial" font-size="9.00">_8: [&#45;Infinity, Infinity]</text>
</g>
<!-- Node_8&#45;&gt;Node_9 -->
<g id="edge5" class="edge"><title>Node_8&#45;&gt;Node_9</title>
<path fill="none" stroke="steelblue" d="M231.5,-219.313C231.5,-211.289 231.5,-201.547 231.5,-192.569"/>
<polygon fill="steelblue" stroke="steelblue" points="235,-192.529 231.5,-182.529 228,-192.529 235,-192.529"/>
</g>
<!-- Node_10 -->
<g id="node11" class="node"><title>Node_10</title>
<path fill="lightblue" stroke="lightblue" d="M211,-73.5C211,-73.5 252,-73.5 252,-73.5 258,-73.5 264,-79.5 264,-85.5 264,-85.5 264,-97.5 264,-97.5 264,-103.5 258,-109.5 252,-109.5 252,-109.5 211,-109.5 211,-109.5 205,-109.5 199,-103.5 199,-97.5 199,-97.5 199,-85.5 199,-85.5 199,-79.5 205,-73.5 211,-73.5"/>
<text text-anchor="middle" x="231.5" y="-89.3" font-family="Arial" font-size="9.00">if (_8 &lt; b_9)</text>
</g>
<!-- Node_9&#45;&gt;Node_10 -->
<g id="edge24" class="edge"><title>Node_9&#45;&gt;Node_10</title>
<path fill="none" stroke="tan" d="M231.5,-146.313C231.5,-138.289 231.5,-128.547 231.5,-119.569"/>
<polygon fill="tan" stroke="tan" points="235,-119.529 231.5,-109.529 228,-119.529 235,-119.529"/>
</g>
<!-- Node_11 -->
<g id="node12" class="node"><title>Node_11</title>
<path fill="moccasin" stroke="moccasin" d="M192.5,-0.5C192.5,-0.5 270.5,-0.5 270.5,-0.5 276.5,-0.5 282.5,-6.5 282.5,-12.5 282.5,-12.5 282.5,-24.5 282.5,-24.5 282.5,-30.5 276.5,-36.5 270.5,-36.5 270.5,-36.5 192.5,-36.5 192.5,-36.5 186.5,-36.5 180.5,-30.5 180.5,-24.5 180.5,-24.5 180.5,-12.5 180.5,-12.5 180.5,-6.5 186.5,-0.5 192.5,-0.5"/>
<text text-anchor="middle" x="231.5" y="-16.3" font-family="Arial" font-size="9.00">_8_t: [&#45;Infinity, Infinity]</text>
</g>
<!-- Node_10&#45;&gt;Node_11 -->
<g id="edge6" class="edge"><title>Node_10&#45;&gt;Node_11</title>
<path fill="none" stroke="steelblue" d="M231.5,-73.3129C231.5,-65.2895 231.5,-55.5475 231.5,-46.5691"/>
<polygon fill="steelblue" stroke="steelblue" points="235,-46.5288 231.5,-36.5288 228,-46.5289 235,-46.5288"/>
</g>
<!-- Node_12 -->
<g id="node13" class="node"><title>Node_12</title>
<path fill="lightblue" stroke="lightblue" d="M594.5,-219.5C594.5,-219.5 644.5,-219.5 644.5,-219.5 650.5,-219.5 656.5,-225.5 656.5,-231.5 656.5,-231.5 656.5,-243.5 656.5,-243.5 656.5,-249.5 650.5,-255.5 644.5,-255.5 644.5,-255.5 594.5,-255.5 594.5,-255.5 588.5,-255.5 582.5,-249.5 582.5,-243.5 582.5,-243.5 582.5,-231.5 582.5,-231.5 582.5,-225.5 588.5,-219.5 594.5,-219.5"/>
<text text-anchor="middle" x="619.5" y="-235.3" font-family="Arial" font-size="9.00">i_6 = i_1_t + 1</text>
</g>
<!-- Node_13 -->
<g id="node14" class="node"><title>Node_13</title>
<path fill="moccasin" stroke="moccasin" d="M582,-146.5C582,-146.5 655,-146.5 655,-146.5 661,-146.5 667,-152.5 667,-158.5 667,-158.5 667,-170.5 667,-170.5 667,-176.5 661,-182.5 655,-182.5 655,-182.5 582,-182.5 582,-182.5 576,-182.5 570,-176.5 570,-170.5 570,-170.5 570,-158.5 570,-158.5 570,-152.5 576,-146.5 582,-146.5"/>
<text text-anchor="middle" x="618.5" y="-162.3" font-family="Arial" font-size="9.00">i_6: [&#45;Infinity, Infinity]</text>
</g>
<!-- Node_12&#45;&gt;Node_13 -->
<g id="edge7" class="edge"><title>Node_12&#45;&gt;Node_13</title>
<path fill="none" stroke="steelblue" d="M619.258,-219.313C619.145,-211.289 619.008,-201.547 618.881,-192.569"/>
<polygon fill="steelblue" stroke="steelblue" points="622.38,-192.479 618.74,-182.529 615.381,-192.577 622.38,-192.479"/>
</g>
<!-- Node_13&#45;&gt;Node_18 -->
<g id="edge18" class="edge"><title>Node_13&#45;&gt;Node_18</title>
<path fill="none" stroke="tan" d="M599.618,-146.313C589.75,-137.33 577.515,-126.193 566.741,-116.386"/>
<polygon fill="tan" stroke="tan" points="568.959,-113.672 559.208,-109.529 564.247,-118.849 568.959,-113.672"/>
</g>
<!-- Node_14 -->
<g id="node15" class="node"><title>Node_14</title>
<path fill="lightblue" stroke="lightblue" d="M589.5,-365.5C589.5,-365.5 633.5,-365.5 633.5,-365.5 639.5,-365.5 645.5,-371.5 645.5,-377.5 645.5,-377.5 645.5,-389.5 645.5,-389.5 645.5,-395.5 639.5,-401.5 633.5,-401.5 633.5,-401.5 589.5,-401.5 589.5,-401.5 583.5,-401.5 577.5,-395.5 577.5,-389.5 577.5,-389.5 577.5,-377.5 577.5,-377.5 577.5,-371.5 583.5,-365.5 589.5,-365.5"/>
<text text-anchor="middle" x="611.5" y="-381.3" font-family="Arial" font-size="9.00">if (i_1 &lt; a_5)</text>
</g>
<!-- Node_15 -->
<g id="node16" class="node"><title>Node_15</title>
<path fill="moccasin" stroke="moccasin" d="M580.5,-292.5C580.5,-292.5 660.5,-292.5 660.5,-292.5 666.5,-292.5 672.5,-298.5 672.5,-304.5 672.5,-304.5 672.5,-316.5 672.5,-316.5 672.5,-322.5 666.5,-328.5 660.5,-328.5 660.5,-328.5 580.5,-328.5 580.5,-328.5 574.5,-328.5 568.5,-322.5 568.5,-316.5 568.5,-316.5 568.5,-304.5 568.5,-304.5 568.5,-298.5 574.5,-292.5 580.5,-292.5"/>
<text text-anchor="middle" x="620.5" y="-308.3" font-family="Arial" font-size="9.00">i_1_t: [&#45;Infinity, Infinity]</text>
</g>
<!-- Node_14&#45;&gt;Node_15 -->
<g id="edge8" class="edge"><title>Node_14&#45;&gt;Node_15</title>
<path fill="none" stroke="steelblue" d="M613.679,-365.313C614.696,-357.289 615.931,-347.547 617.069,-338.569"/>
<polygon fill="steelblue" stroke="steelblue" points="620.556,-338.89 618.341,-328.529 613.612,-338.009 620.556,-338.89"/>
</g>
<!-- Node_15&#45;&gt;Node_12 -->
<g id="edge22" class="edge"><title>Node_15&#45;&gt;Node_12</title>
<path fill="none" stroke="tan" d="M620.258,-292.313C620.145,-284.289 620.008,-274.547 619.881,-265.569"/>
<polygon fill="tan" stroke="tan" points="623.38,-265.479 619.74,-255.529 616.381,-265.577 623.38,-265.479"/>
</g>
<!-- Node_16 -->
<g id="node17" class="node"><title>Node_16</title>
<path fill="lightblue" stroke="lightblue" d="M48.5,-365.5C48.5,-365.5 78.5,-365.5 78.5,-365.5 84.5,-365.5 90.5,-371.5 90.5,-377.5 90.5,-377.5 90.5,-389.5 90.5,-389.5 90.5,-395.5 84.5,-401.5 78.5,-401.5 78.5,-401.5 48.5,-401.5 48.5,-401.5 42.5,-401.5 36.5,-395.5 36.5,-389.5 36.5,-389.5 36.5,-377.5 36.5,-377.5 36.5,-371.5 42.5,-365.5 48.5,-365.5"/>
<text text-anchor="middle" x="63.5" y="-381.3" font-family="Arial" font-size="9.00">j_4 = 0</text>
</g>
<!-- Node_17 -->
<g id="node18" class="node"><title>Node_17</title>
<path fill="moccasin" stroke="moccasin" d="M27,-292.5C27,-292.5 100,-292.5 100,-292.5 106,-292.5 112,-298.5 112,-304.5 112,-304.5 112,-316.5 112,-316.5 112,-322.5 106,-328.5 100,-328.5 100,-328.5 27,-328.5 27,-328.5 21,-328.5 15,-322.5 15,-316.5 15,-316.5 15,-304.5 15,-304.5 15,-298.5 21,-292.5 27,-292.5"/>
<text text-anchor="middle" x="63.5" y="-308.3" font-family="Arial" font-size="9.00">j_4: [&#45;Infinity, Infinity]</text>
</g>
<!-- Node_16&#45;&gt;Node_17 -->
<g id="edge9" class="edge"><title>Node_16&#45;&gt;Node_17</title>
<path fill="none" stroke="steelblue" d="M63.5,-365.313C63.5,-357.289 63.5,-347.547 63.5,-338.569"/>
<polygon fill="steelblue" stroke="steelblue" points="67.0001,-338.529 63.5,-328.529 60.0001,-338.529 67.0001,-338.529"/>
</g>
<!-- Node_17&#45;&gt;Node_20 -->
<g id="edge20" class="edge"><title>Node_17&#45;&gt;Node_20</title>
<path fill="none" stroke="tan" d="M63.5,-292.313C63.5,-284.289 63.5,-274.547 63.5,-265.569"/>
<polygon fill="tan" stroke="tan" points="67.0001,-265.529 63.5,-255.529 60.0001,-265.529 67.0001,-265.529"/>
</g>
<!-- Node_19 -->
<g id="node20" class="node"><title>Node_19</title>
<path fill="moccasin" stroke="moccasin" d="M504,-438.5C504,-438.5 577,-438.5 577,-438.5 583,-438.5 589,-444.5 589,-450.5 589,-450.5 589,-462.5 589,-462.5 589,-468.5 583,-474.5 577,-474.5 577,-474.5 504,-474.5 504,-474.5 498,-474.5 492,-468.5 492,-462.5 492,-462.5 492,-450.5 492,-450.5 492,-444.5 498,-438.5 504,-438.5"/>
<text text-anchor="middle" x="540.5" y="-454.3" font-family="Arial" font-size="9.00">i_1: [&#45;Infinity, Infinity]</text>
</g>
<!-- Node_18&#45;&gt;Node_19 -->
<g id="edge10" class="edge"><title>Node_18&#45;&gt;Node_19</title>
<path fill="none" stroke="steelblue" d="M540.5,-109.789C540.5,-136.824 540.5,-190.75 540.5,-236.5 540.5,-311.5 540.5,-311.5 540.5,-311.5 540.5,-352.067 540.5,-399.063 540.5,-428.039"/>
<polygon fill="steelblue" stroke="steelblue" points="537,-428.211 540.5,-438.211 544,-428.211 537,-428.211"/>
</g>
<!-- Node_19&#45;&gt;Node_0 -->
<g id="edge25" class="edge"><title>Node_19&#45;&gt;Node_0</title>
<path fill="none" stroke="tan" d="M519.682,-438.313C508.696,-429.243 495.049,-417.977 483.086,-408.1"/>
<polygon fill="tan" stroke="tan" points="485.066,-405.196 475.126,-401.529 480.61,-410.594 485.066,-405.196"/>
</g>
<!-- Node_19&#45;&gt;Node_14 -->
<g id="edge26" class="edge"><title>Node_19&#45;&gt;Node_14</title>
<path fill="none" stroke="tan" d="M557.687,-438.313C566.583,-429.417 577.591,-418.409 587.328,-408.672"/>
<polygon fill="tan" stroke="tan" points="589.875,-411.075 594.471,-401.529 584.925,-406.125 589.875,-411.075"/>
</g>
<!-- Node_21 -->
<g id="node22" class="node"><title>Node_21</title>
<path fill="moccasin" stroke="moccasin" d="M35,-146.5C35,-146.5 108,-146.5 108,-146.5 114,-146.5 120,-152.5 120,-158.5 120,-158.5 120,-170.5 120,-170.5 120,-176.5 114,-182.5 108,-182.5 108,-182.5 35,-182.5 35,-182.5 29,-182.5 23,-176.5 23,-170.5 23,-170.5 23,-158.5 23,-158.5 23,-152.5 29,-146.5 35,-146.5"/>
<text text-anchor="middle" x="71.5" y="-162.3" font-family="Arial" font-size="9.00">j_2: [&#45;Infinity, Infinity]</text>
</g>
<!-- Node_20&#45;&gt;Node_21 -->
<g id="edge11" class="edge"><title>Node_20&#45;&gt;Node_21</title>
<path fill="none" stroke="steelblue" d="M65.4366,-219.313C66.3406,-211.289 67.4383,-201.547 68.45,-192.569"/>
<polygon fill="steelblue" stroke="steelblue" points="71.9395,-192.858 69.5813,-182.529 64.9835,-192.074 71.9395,-192.858"/>
</g>
<!-- Node_21&#45;&gt;Node_2 -->
<g id="edge19" class="edge"><title>Node_21&#45;&gt;Node_2</title>
<path fill="none" stroke="tan" d="M80.6987,-146.313C85.1797,-137.941 90.6621,-127.697 95.6366,-118.403"/>
<polygon fill="tan" stroke="tan" points="98.753,-119.997 100.386,-109.529 92.5813,-116.694 98.753,-119.997"/>
</g>
<!-- Node_23 -->
<g id="node24" class="node"><title>Node_23</title>
<path fill="moccasin" stroke="moccasin" d="M424.5,-146.5C424.5,-146.5 500.5,-146.5 500.5,-146.5 506.5,-146.5 512.5,-152.5 512.5,-158.5 512.5,-158.5 512.5,-170.5 512.5,-170.5 512.5,-176.5 506.5,-182.5 500.5,-182.5 500.5,-182.5 424.5,-182.5 424.5,-182.5 418.5,-182.5 412.5,-176.5 412.5,-170.5 412.5,-170.5 412.5,-158.5 412.5,-158.5 412.5,-152.5 418.5,-146.5 424.5,-146.5"/>
<text text-anchor="middle" x="462.5" y="-162.3" font-family="Arial" font-size="9.00">_10: [&#45;Infinity, Infinity]</text>
</g>
<!-- Node_22&#45;&gt;Node_23 -->
<g id="edge12" class="edge"><title>Node_22&#45;&gt;Node_23</title>
<path fill="none" stroke="steelblue" d="M448.099,-219.313C450.27,-211.202 452.91,-201.336 455.334,-192.277"/>
<polygon fill="steelblue" stroke="steelblue" points="458.739,-193.094 457.943,-182.529 451.977,-191.284 458.739,-193.094"/>
</g>
<!-- Node_24 -->
<g id="node25" class="node"><title>Node_24</title>
<path fill="moccasin" stroke="moccasin" d="M706.5,-438.5C706.5,-438.5 782.5,-438.5 782.5,-438.5 788.5,-438.5 794.5,-444.5 794.5,-450.5 794.5,-450.5 794.5,-462.5 794.5,-462.5 794.5,-468.5 788.5,-474.5 782.5,-474.5 782.5,-474.5 706.5,-474.5 706.5,-474.5 700.5,-474.5 694.5,-468.5 694.5,-462.5 694.5,-462.5 694.5,-450.5 694.5,-450.5 694.5,-444.5 700.5,-438.5 706.5,-438.5"/>
<text text-anchor="middle" x="744.5" y="-454.3" font-family="Arial" font-size="9.00">b_9: [&#45;Infinity, Infinity]</text>
</g>
<!-- Node_24&#45;&gt;Node_4 -->
<g id="edge23" class="edge"><title>Node_24&#45;&gt;Node_4</title>
<path fill="none" stroke="tan" d="M744.5,-438.313C744.5,-430.289 744.5,-420.547 744.5,-411.569"/>
<polygon fill="tan" stroke="tan" points="748,-411.529 744.5,-401.529 741,-411.529 748,-411.529"/>
</g>
</g>
</svg>
