<?xml version="1.0" encoding="UTF-8" standalone="no"?>
<!DOCTYPE svg PUBLIC "-//W3C//DTD SVG 1.1//EN"
 "http://www.w3.org/Graphics/SVG/1.1/DTD/svg11.dtd">
<!-- Generated by graphviz version 2.38.0 (20140413.2041)
 -->
<!-- Title: t10_foo_ConstraintGraph Pages: 1 -->
<svg width="670pt" height="504pt"
     viewBox="0.00 0.00 669.50 504.00" xmlns="http://www.w3.org/2000/svg">
<g id="graph0" class="graph" transform="scale(1 1) rotate(0) translate(4 500)">
<title>t10_foo_ConstraintGraph</title>
<polygon fill="white" stroke="none" points="-4,4 -4,-500 665.5,-500 665.5,4 -4,4"/>
<text text-anchor="middle" x="330.75" y="-482.4" font-family="Arial" font-size="12.00">t10_foo_ConstraintGraph</text>
<!-- Node_0 -->
<g id="node1" class="node"><title>Node_0</title>
<path fill="lightblue" stroke="lightblue" d="M374,-365.5C374,-365.5 423,-365.5 423,-365.5 429,-365.5 435,-371.5 435,-377.5 435,-377.5 435,-389.5 435,-389.5 435,-395.5 429,-401.5 423,-401.5 423,-401.5 374,-401.5 374,-401.5 368,-401.5 362,-395.5 362,-389.5 362,-389.5 362,-377.5 362,-377.5 362,-371.5 368,-365.5 374,-365.5"/>
<text text-anchor="middle" x="398.5" y="-381.3" font-family="Arial" font-size="9.00">if (i_1 &gt;= a_5)</text>
</g>
<!-- Node_1 -->
<g id="node2" class="node"><title>Node_1</title>
<path fill="moccasin" stroke="moccasin" d="M371,-292.5C371,-292.5 420,-292.5 420,-292.5 426,-292.5 432,-298.5 432,-304.5 432,-304.5 432,-316.5 432,-316.5 432,-322.5 426,-328.5 420,-328.5 420,-328.5 371,-328.5 371,-328.5 365,-328.5 359,-322.5 359,-316.5 359,-316.5 359,-304.5 359,-304.5 359,-298.5 365,-292.5 371,-292.5"/>
<text text-anchor="middle" x="395.5" y="-308.3" font-family="Arial" font-size="9.00">i_1_f: [&#45;inf, inf]</text>
</g>
<!-- Node_0&#45;&gt;Node_1 -->
<g id="edge1" class="edge"><title>Node_0&#45;&gt;Node_1</title>
<path fill="none" stroke="steelblue" d="M397.774,-365.313C397.435,-357.289 397.023,-347.547 396.644,-338.569"/>
<polygon fill="steelblue" stroke="steelblue" points="400.139,-338.372 396.22,-328.529 393.145,-338.668 400.139,-338.372"/>
</g>
<!-- Node_8 -->
<g id="node9" class="node"><title>Node_8</title>
<path fill="lightblue" stroke="lightblue" d="M195.5,-219.5C195.5,-219.5 251.5,-219.5 251.5,-219.5 257.5,-219.5 263.5,-225.5 263.5,-231.5 263.5,-231.5 263.5,-243.5 263.5,-243.5 263.5,-249.5 257.5,-255.5 251.5,-255.5 251.5,-255.5 195.5,-255.5 195.5,-255.5 189.5,-255.5 183.5,-249.5 183.5,-243.5 183.5,-243.5 183.5,-231.5 183.5,-231.5 183.5,-225.5 189.5,-219.5 195.5,-219.5"/>
<text text-anchor="middle" x="223.5" y="-235.3" font-family="Arial" font-size="9.00">_8 = i_1_f + j_7</text>
</g>
<!-- Node_1&#45;&gt;Node_8 -->
<g id="edge16" class="edge"><title>Node_1&#45;&gt;Node_8</title>
<path fill="none" stroke="tan" d="M358.602,-294.269C333.613,-283.954 300.307,-270.205 273.017,-258.94"/>
<polygon fill="tan" stroke="tan" points="274.218,-255.649 263.639,-255.069 271.547,-262.12 274.218,-255.649"/>
</g>
<!-- Node_22 -->
<g id="node23" class="node"><title>Node_22</title>
<path fill="lightblue" stroke="lightblue" d="M366,-219.5C366,-219.5 425,-219.5 425,-219.5 431,-219.5 437,-225.5 437,-231.5 437,-231.5 437,-243.5 437,-243.5 437,-249.5 431,-255.5 425,-255.5 425,-255.5 366,-255.5 366,-255.5 360,-255.5 354,-249.5 354,-243.5 354,-243.5 354,-231.5 354,-231.5 354,-225.5 360,-219.5 366,-219.5"/>
<text text-anchor="middle" x="395.5" y="-235.3" font-family="Arial" font-size="9.00">_10 = j_7 &#45; i_1_f</text>
</g>
<!-- Node_1&#45;&gt;Node_22 -->
<g id="edge17" class="edge"><title>Node_1&#45;&gt;Node_22</title>
<path fill="none" stroke="tan" d="M395.5,-292.313C395.5,-284.289 395.5,-274.547 395.5,-265.569"/>
<polygon fill="tan" stroke="tan" points="399,-265.529 395.5,-255.529 392,-265.529 399,-265.529"/>
</g>
<!-- Node_2 -->
<g id="node3" class="node"><title>Node_2</title>
<path fill="lightblue" stroke="lightblue" d="M88,-73.5C88,-73.5 131,-73.5 131,-73.5 137,-73.5 143,-79.5 143,-85.5 143,-85.5 143,-97.5 143,-97.5 143,-103.5 137,-109.5 131,-109.5 131,-109.5 88,-109.5 88,-109.5 82,-109.5 76,-103.5 76,-97.5 76,-97.5 76,-85.5 76,-85.5 76,-79.5 82,-73.5 88,-73.5"/>
<text text-anchor="middle" x="109.5" y="-89.3" font-family="Arial" font-size="9.00">j_7 = j_2 + 1</text>
</g>
<!-- Node_3 -->
<g id="node4" class="node"><title>Node_3</title>
<path fill="moccasin" stroke="moccasin" d="M169,-292.5C169,-292.5 210,-292.5 210,-292.5 216,-292.5 222,-298.5 222,-304.5 222,-304.5 222,-316.5 222,-316.5 222,-322.5 216,-328.5 210,-328.5 210,-328.5 169,-328.5 169,-328.5 163,-328.5 157,-322.5 157,-316.5 157,-316.5 157,-304.5 157,-304.5 157,-298.5 163,-292.5 169,-292.5"/>
<text text-anchor="middle" x="189.5" y="-308.3" font-family="Arial" font-size="9.00">j_7: [&#45;inf, inf]</text>
</g>
<!-- Node_2&#45;&gt;Node_3 -->
<g id="edge2" class="edge"><title>Node_2&#45;&gt;Node_3</title>
<path fill="none" stroke="steelblue" d="M115.859,-109.749C129.804,-147.575 163.15,-238.025 179.757,-283.073"/>
<polygon fill="steelblue" stroke="steelblue" points="176.479,-284.3 183.223,-292.472 183.047,-281.879 176.479,-284.3"/>
</g>
<!-- Node_3&#45;&gt;Node_8 -->
<g id="edge13" class="edge"><title>Node_3&#45;&gt;Node_8</title>
<path fill="none" stroke="tan" d="M197.73,-292.313C201.698,-284.028 206.543,-273.91 210.957,-264.693"/>
<polygon fill="tan" stroke="tan" points="214.183,-266.06 215.345,-255.529 207.87,-263.036 214.183,-266.06"/>
</g>
<!-- Node_20 -->
<g id="node21" class="node"><title>Node_20</title>
<path fill="lightblue" stroke="lightblue" d="M12,-219.5C12,-219.5 115,-219.5 115,-219.5 121,-219.5 127,-225.5 127,-231.5 127,-231.5 127,-243.5 127,-243.5 127,-249.5 121,-255.5 115,-255.5 115,-255.5 12,-255.5 12,-255.5 6,-255.5 0,-249.5 0,-243.5 0,-243.5 0,-231.5 0,-231.5 0,-225.5 6,-219.5 12,-219.5"/>
<text text-anchor="middle" x="63.5" y="-235.3" font-family="Arial" font-size="9.00"># j_2 = PHI &lt;j_4(4), j_7(5)&gt;</text>
</g>
<!-- Node_3&#45;&gt;Node_20 -->
<g id="edge14" class="edge"><title>Node_3&#45;&gt;Node_20</title>
<path fill="none" stroke="tan" d="M159.32,-292.494C142.456,-282.991 121.24,-271.036 103.061,-260.792"/>
<polygon fill="tan" stroke="tan" points="104.301,-257.474 93.8706,-255.614 100.864,-263.572 104.301,-257.474"/>
</g>
<!-- Node_3&#45;&gt;Node_22 -->
<g id="edge15" class="edge"><title>Node_3&#45;&gt;Node_22</title>
<path fill="none" stroke="tan" d="M222.141,-298.25C254.842,-286.979 305.668,-269.462 343.846,-256.303"/>
<polygon fill="tan" stroke="tan" points="345.443,-259.455 353.757,-252.887 343.162,-252.837 345.443,-259.455"/>
</g>
<!-- Node_4 -->
<g id="node5" class="node"><title>Node_4</title>
<path fill="lightblue" stroke="lightblue" d="M603,-365.5C603,-365.5 644,-365.5 644,-365.5 650,-365.5 656,-371.5 656,-377.5 656,-377.5 656,-389.5 656,-389.5 656,-395.5 650,-401.5 644,-401.5 644,-401.5 603,-401.5 603,-401.5 597,-401.5 591,-395.5 591,-389.5 591,-389.5 591,-377.5 591,-377.5 591,-371.5 597,-365.5 603,-365.5"/>
<text text-anchor="middle" x="623.5" y="-381.3" font-family="Arial" font-size="9.00">if (_8 &lt; b_9)</text>
</g>
<!-- Node_5 -->
<g id="node6" class="node"><title>Node_5</title>
<path fill="moccasin" stroke="moccasin" d="M597.5,-292.5C597.5,-292.5 649.5,-292.5 649.5,-292.5 655.5,-292.5 661.5,-298.5 661.5,-304.5 661.5,-304.5 661.5,-316.5 661.5,-316.5 661.5,-322.5 655.5,-328.5 649.5,-328.5 649.5,-328.5 597.5,-328.5 597.5,-328.5 591.5,-328.5 585.5,-322.5 585.5,-316.5 585.5,-316.5 585.5,-304.5 585.5,-304.5 585.5,-298.5 591.5,-292.5 597.5,-292.5"/>
<text text-anchor="middle" x="623.5" y="-308.3" font-family="Arial" font-size="9.00">b_9_t: [&#45;inf, inf]</text>
</g>
<!-- Node_4&#45;&gt;Node_5 -->
<g id="edge3" class="edge"><title>Node_4&#45;&gt;Node_5</title>
<path fill="none" stroke="steelblue" d="M623.5,-365.313C623.5,-357.289 623.5,-347.547 623.5,-338.569"/>
<polygon fill="steelblue" stroke="steelblue" points="627,-338.529 623.5,-328.529 620,-338.529 627,-338.529"/>
</g>
<!-- Node_6 -->
<g id="node7" class="node"><title>Node_6</title>
<path fill="lightblue" stroke="lightblue" d="M293.5,-219.5C293.5,-219.5 323.5,-219.5 323.5,-219.5 329.5,-219.5 335.5,-225.5 335.5,-231.5 335.5,-231.5 335.5,-243.5 335.5,-243.5 335.5,-249.5 329.5,-255.5 323.5,-255.5 323.5,-255.5 293.5,-255.5 293.5,-255.5 287.5,-255.5 281.5,-249.5 281.5,-243.5 281.5,-243.5 281.5,-231.5 281.5,-231.5 281.5,-225.5 287.5,-219.5 293.5,-219.5"/>
<text text-anchor="middle" x="308.5" y="-235.3" font-family="Arial" font-size="9.00">i_3 = 0</text>
</g>
<!-- Node_7 -->
<g id="node8" class="node"><title>Node_7</title>
<path fill="moccasin" stroke="moccasin" d="M289,-146.5C289,-146.5 330,-146.5 330,-146.5 336,-146.5 342,-152.5 342,-158.5 342,-158.5 342,-170.5 342,-170.5 342,-176.5 336,-182.5 330,-182.5 330,-182.5 289,-182.5 289,-182.5 283,-182.5 277,-176.5 277,-170.5 277,-170.5 277,-158.5 277,-158.5 277,-152.5 283,-146.5 289,-146.5"/>
<text text-anchor="middle" x="309.5" y="-162.3" font-family="Arial" font-size="9.00">i_3: [&#45;inf, inf]</text>
</g>
<!-- Node_6&#45;&gt;Node_7 -->
<g id="edge4" class="edge"><title>Node_6&#45;&gt;Node_7</title>
<path fill="none" stroke="steelblue" d="M308.742,-219.313C308.855,-211.289 308.992,-201.547 309.119,-192.569"/>
<polygon fill="steelblue" stroke="steelblue" points="312.619,-192.577 309.26,-182.529 305.62,-192.479 312.619,-192.577"/>
</g>
<!-- Node_18 -->
<g id="node19" class="node"><title>Node_18</title>
<path fill="lightblue" stroke="lightblue" d="M414,-73.5C414,-73.5 517,-73.5 517,-73.5 523,-73.5 529,-79.5 529,-85.5 529,-85.5 529,-97.5 529,-97.5 529,-103.5 523,-109.5 517,-109.5 517,-109.5 414,-109.5 414,-109.5 408,-109.5 402,-103.5 402,-97.5 402,-97.5 402,-85.5 402,-85.5 402,-79.5 408,-73.5 414,-73.5"/>
<text text-anchor="middle" x="465.5" y="-89.3" font-family="Arial" font-size="9.00"># i_1 = PHI &lt;i_3(2), i_6(3)&gt;</text>
</g>
<!-- Node_7&#45;&gt;Node_18 -->
<g id="edge21" class="edge"><title>Node_7&#45;&gt;Node_18</title>
<path fill="none" stroke="tan" d="M342.203,-148.616C364.385,-138.52 394.048,-125.02 418.719,-113.791"/>
<polygon fill="tan" stroke="tan" points="420.253,-116.939 427.905,-109.611 417.353,-110.568 420.253,-116.939"/>
</g>
<!-- Node_9 -->
<g id="node10" class="node"><title>Node_9</title>
<path fill="moccasin" stroke="moccasin" d="M204,-146.5C204,-146.5 243,-146.5 243,-146.5 249,-146.5 255,-152.5 255,-158.5 255,-158.5 255,-170.5 255,-170.5 255,-176.5 249,-182.5 243,-182.5 243,-182.5 204,-182.5 204,-182.5 198,-182.5 192,-176.5 192,-170.5 192,-170.5 192,-158.5 192,-158.5 192,-152.5 198,-146.5 204,-146.5"/>
<text text-anchor="middle" x="223.5" y="-162.3" font-family="Arial" font-size="9.00">_8: [&#45;inf, inf]</text>
</g>
<!-- Node_8&#45;&gt;Node_9 -->
<g id="edge5" class="edge"><title>Node_8&#45;&gt;Node_9</title>
<path fill="none" stroke="steelblue" d="M223.5,-219.313C223.5,-211.289 223.5,-201.547 223.5,-192.569"/>
<polygon fill="steelblue" stroke="steelblue" points="227,-192.529 223.5,-182.529 220,-192.529 227,-192.529"/>
</g>
<!-- Node_10 -->
<g id="node11" class="node"><title>Node_10</title>
<path fill="lightblue" stroke="lightblue" d="M203,-73.5C203,-73.5 244,-73.5 244,-73.5 250,-73.5 256,-79.5 256,-85.5 256,-85.5 256,-97.5 256,-97.5 256,-103.5 250,-109.5 244,-109.5 244,-109.5 203,-109.5 203,-109.5 197,-109.5 191,-103.5 191,-97.5 191,-97.5 191,-85.5 191,-85.5 191,-79.5 197,-73.5 203,-73.5"/>
<text text-anchor="middle" x="223.5" y="-89.3" font-family="Arial" font-size="9.00">if (_8 &lt; b_9)</text>
</g>
<!-- Node_9&#45;&gt;Node_10 -->
<g id="edge24" class="edge"><title>Node_9&#45;&gt;Node_10</title>
<path fill="none" stroke="tan" d="M223.5,-146.313C223.5,-138.289 223.5,-128.547 223.5,-119.569"/>
<polygon fill="tan" stroke="tan" points="227,-119.529 223.5,-109.529 220,-119.529 227,-119.529"/>
</g>
<!-- Node_11 -->
<g id="node12" class="node"><title>Node_11</title>
<path fill="moccasin" stroke="moccasin" d="M200,-0.5C200,-0.5 247,-0.5 247,-0.5 253,-0.5 259,-6.5 259,-12.5 259,-12.5 259,-24.5 259,-24.5 259,-30.5 253,-36.5 247,-36.5 247,-36.5 200,-36.5 200,-36.5 194,-36.5 188,-30.5 188,-24.5 188,-24.5 188,-12.5 188,-12.5 188,-6.5 194,-0.5 200,-0.5"/>
<text text-anchor="middle" x="223.5" y="-16.3" font-family="Arial" font-size="9.00">_8_t: [&#45;inf, inf]</text>
</g>
<!-- Node_10&#45;&gt;Node_11 -->
<g id="edge6" class="edge"><title>Node_10&#45;&gt;Node_11</title>
<path fill="none" stroke="steelblue" d="M223.5,-73.3129C223.5,-65.2895 223.5,-55.5475 223.5,-46.5691"/>
<polygon fill="steelblue" stroke="steelblue" points="227,-46.5288 223.5,-36.5288 220,-46.5289 227,-46.5288"/>
</g>
<!-- Node_12 -->
<g id="node13" class="node"><title>Node_12</title>
<path fill="lightblue" stroke="lightblue" d="M505.5,-219.5C505.5,-219.5 555.5,-219.5 555.5,-219.5 561.5,-219.5 567.5,-225.5 567.5,-231.5 567.5,-231.5 567.5,-243.5 567.5,-243.5 567.5,-249.5 561.5,-255.5 555.5,-255.5 555.5,-255.5 505.5,-255.5 505.5,-255.5 499.5,-255.5 493.5,-249.5 493.5,-243.5 493.5,-243.5 493.5,-231.5 493.5,-231.5 493.5,-225.5 499.5,-219.5 505.5,-219.5"/>
<text text-anchor="middle" x="530.5" y="-235.3" font-family="Arial" font-size="9.00">i_6 = i_1_t + 1</text>
</g>
<!-- Node_13 -->
<g id="node14" class="node"><title>Node_13</title>
<path fill="moccasin" stroke="moccasin" d="M508,-146.5C508,-146.5 549,-146.5 549,-146.5 555,-146.5 561,-152.5 561,-158.5 561,-158.5 561,-170.5 561,-170.5 561,-176.5 555,-182.5 549,-182.5 549,-182.5 508,-182.5 508,-182.5 502,-182.5 496,-176.5 496,-170.5 496,-170.5 496,-158.5 496,-158.5 496,-152.5 502,-146.5 508,-146.5"/>
<text text-anchor="middle" x="528.5" y="-162.3" font-family="Arial" font-size="9.00">i_6: [&#45;inf, inf]</text>
</g>
<!-- Node_12&#45;&gt;Node_13 -->
<g id="edge7" class="edge"><title>Node_12&#45;&gt;Node_13</title>
<path fill="none" stroke="steelblue" d="M530.016,-219.313C529.79,-211.289 529.515,-201.547 529.263,-192.569"/>
<polygon fill="steelblue" stroke="steelblue" points="532.76,-192.426 528.98,-182.529 525.763,-192.623 532.76,-192.426"/>
</g>
<!-- Node_13&#45;&gt;Node_18 -->
<g id="edge18" class="edge"><title>Node_13&#45;&gt;Node_18</title>
<path fill="none" stroke="tan" d="M513.249,-146.313C505.511,-137.592 495.971,-126.84 487.458,-117.246"/>
<polygon fill="tan" stroke="tan" points="489.865,-114.686 480.61,-109.529 484.629,-119.332 489.865,-114.686"/>
</g>
<!-- Node_14 -->
<g id="node15" class="node"><title>Node_14</title>
<path fill="lightblue" stroke="lightblue" d="M507.5,-365.5C507.5,-365.5 551.5,-365.5 551.5,-365.5 557.5,-365.5 563.5,-371.5 563.5,-377.5 563.5,-377.5 563.5,-389.5 563.5,-389.5 563.5,-395.5 557.5,-401.5 551.5,-401.5 551.5,-401.5 507.5,-401.5 507.5,-401.5 501.5,-401.5 495.5,-395.5 495.5,-389.5 495.5,-389.5 495.5,-377.5 495.5,-377.5 495.5,-371.5 501.5,-365.5 507.5,-365.5"/>
<text text-anchor="middle" x="529.5" y="-381.3" font-family="Arial" font-size="9.00">if (i_1 &lt; a_5)</text>
</g>
<!-- Node_15 -->
<g id="node16" class="node"><title>Node_15</title>
<path fill="moccasin" stroke="moccasin" d="M506,-292.5C506,-292.5 555,-292.5 555,-292.5 561,-292.5 567,-298.5 567,-304.5 567,-304.5 567,-316.5 567,-316.5 567,-322.5 561,-328.5 555,-328.5 555,-328.5 506,-328.5 506,-328.5 500,-328.5 494,-322.5 494,-316.5 494,-316.5 494,-304.5 494,-304.5 494,-298.5 500,-292.5 506,-292.5"/>
<text text-anchor="middle" x="530.5" y="-308.3" font-family="Arial" font-size="9.00">i_1_t: [&#45;inf, inf]</text>
</g>
<!-- Node_14&#45;&gt;Node_15 -->
<g id="edge8" class="edge"><title>Node_14&#45;&gt;Node_15</title>
<path fill="none" stroke="steelblue" d="M529.742,-365.313C529.855,-357.289 529.992,-347.547 530.119,-338.569"/>
<polygon fill="steelblue" stroke="steelblue" points="533.619,-338.577 530.26,-328.529 526.62,-338.479 533.619,-338.577"/>
</g>
<!-- Node_15&#45;&gt;Node_12 -->
<g id="edge22" class="edge"><title>Node_15&#45;&gt;Node_12</title>
<path fill="none" stroke="tan" d="M530.5,-292.313C530.5,-284.289 530.5,-274.547 530.5,-265.569"/>
<polygon fill="tan" stroke="tan" points="534,-265.529 530.5,-255.529 527,-265.529 534,-265.529"/>
</g>
<!-- Node_16 -->
<g id="node17" class="node"><title>Node_16</title>
<path fill="lightblue" stroke="lightblue" d="M48.5,-365.5C48.5,-365.5 78.5,-365.5 78.5,-365.5 84.5,-365.5 90.5,-371.5 90.5,-377.5 90.5,-377.5 90.5,-389.5 90.5,-389.5 90.5,-395.5 84.5,-401.5 78.5,-401.5 78.5,-401.5 48.5,-401.5 48.5,-401.5 42.5,-401.5 36.5,-395.5 36.5,-389.5 36.5,-389.5 36.5,-377.5 36.5,-377.5 36.5,-371.5 42.5,-365.5 48.5,-365.5"/>
<text text-anchor="middle" x="63.5" y="-381.3" font-family="Arial" font-size="9.00">j_4 = 0</text>
</g>
<!-- Node_17 -->
<g id="node18" class="node"><title>Node_17</title>
<path fill="moccasin" stroke="moccasin" d="M43,-292.5C43,-292.5 84,-292.5 84,-292.5 90,-292.5 96,-298.5 96,-304.5 96,-304.5 96,-316.5 96,-316.5 96,-322.5 90,-328.5 84,-328.5 84,-328.5 43,-328.5 43,-328.5 37,-328.5 31,-322.5 31,-316.5 31,-316.5 31,-304.5 31,-304.5 31,-298.5 37,-292.5 43,-292.5"/>
<text text-anchor="middle" x="63.5" y="-308.3" font-family="Arial" font-size="9.00">j_4: [&#45;inf, inf]</text>
</g>
<!-- Node_16&#45;&gt;Node_17 -->
<g id="edge9" class="edge"><title>Node_16&#45;&gt;Node_17</title>
<path fill="none" stroke="steelblue" d="M63.5,-365.313C63.5,-357.289 63.5,-347.547 63.5,-338.569"/>
<polygon fill="steelblue" stroke="steelblue" points="67.0001,-338.529 63.5,-328.529 60.0001,-338.529 67.0001,-338.529"/>
</g>
<!-- Node_17&#45;&gt;Node_20 -->
<g id="edge20" class="edge"><title>Node_17&#45;&gt;Node_20</title>
<path fill="none" stroke="tan" d="M63.5,-292.313C63.5,-284.289 63.5,-274.547 63.5,-265.569"/>
<polygon fill="tan" stroke="tan" points="67.0001,-265.529 63.5,-255.529 60.0001,-265.529 67.0001,-265.529"/>
</g>
<!-- Node_19 -->
<g id="node20" class="node"><title>Node_19</title>
<path fill="moccasin" stroke="moccasin" d="M445,-438.5C445,-438.5 486,-438.5 486,-438.5 492,-438.5 498,-444.5 498,-450.5 498,-450.5 498,-462.5 498,-462.5 498,-468.5 492,-474.5 486,-474.5 486,-474.5 445,-474.5 445,-474.5 439,-474.5 433,-468.5 433,-462.5 433,-462.5 433,-450.5 433,-450.5 433,-444.5 439,-438.5 445,-438.5"/>
<text text-anchor="middle" x="465.5" y="-454.3" font-family="Arial" font-size="9.00">i_1: [&#45;inf, inf]</text>
</g>
<!-- Node_18&#45;&gt;Node_19 -->
<g id="edge10" class="edge"><title>Node_18&#45;&gt;Node_19</title>
<path fill="none" stroke="steelblue" d="M465.5,-109.789C465.5,-136.824 465.5,-190.75 465.5,-236.5 465.5,-311.5 465.5,-311.5 465.5,-311.5 465.5,-352.067 465.5,-399.063 465.5,-428.039"/>
<polygon fill="steelblue" stroke="steelblue" points="462,-428.211 465.5,-438.211 469,-428.211 462,-428.211"/>
</g>
<!-- Node_19&#45;&gt;Node_0 -->
<g id="edge25" class="edge"><title>Node_19&#45;&gt;Node_0</title>
<path fill="none" stroke="tan" d="M449.281,-438.313C440.969,-429.505 430.702,-418.625 421.58,-408.958"/>
<polygon fill="tan" stroke="tan" points="423.978,-406.4 414.569,-401.529 418.887,-411.204 423.978,-406.4"/>
</g>
<!-- Node_19&#45;&gt;Node_14 -->
<g id="edge26" class="edge"><title>Node_19&#45;&gt;Node_14</title>
<path fill="none" stroke="tan" d="M480.993,-438.313C488.932,-429.505 498.739,-418.625 507.453,-408.958"/>
<polygon fill="tan" stroke="tan" points="510.054,-411.3 514.15,-401.529 504.855,-406.613 510.054,-411.3"/>
</g>
<!-- Node_21 -->
<g id="node22" class="node"><title>Node_21</title>
<path fill="moccasin" stroke="moccasin" d="M59,-146.5C59,-146.5 100,-146.5 100,-146.5 106,-146.5 112,-152.5 112,-158.5 112,-158.5 112,-170.5 112,-170.5 112,-176.5 106,-182.5 100,-182.5 100,-182.5 59,-182.5 59,-182.5 53,-182.5 47,-176.5 47,-170.5 47,-170.5 47,-158.5 47,-158.5 47,-152.5 53,-146.5 59,-146.5"/>
<text text-anchor="middle" x="79.5" y="-162.3" font-family="Arial" font-size="9.00">j_2: [&#45;inf, inf]</text>
</g>
<!-- Node_20&#45;&gt;Node_21 -->
<g id="edge11" class="edge"><title>Node_20&#45;&gt;Node_21</title>
<path fill="none" stroke="steelblue" d="M67.3732,-219.313C69.1812,-211.289 71.3766,-201.547 73.3999,-192.569"/>
<polygon fill="steelblue" stroke="steelblue" points="76.8784,-193.054 75.6625,-182.529 70.0497,-191.515 76.8784,-193.054"/>
</g>
<!-- Node_21&#45;&gt;Node_2 -->
<g id="edge19" class="edge"><title>Node_21&#45;&gt;Node_2</title>
<path fill="none" stroke="tan" d="M86.7622,-146.313C90.226,-138.115 94.448,-128.123 98.3093,-118.985"/>
<polygon fill="tan" stroke="tan" points="101.637,-120.103 102.305,-109.529 95.1885,-117.378 101.637,-120.103"/>
</g>
<!-- Node_23 -->
<g id="node24" class="node"><title>Node_23</title>
<path fill="moccasin" stroke="moccasin" d="M373.5,-146.5C373.5,-146.5 417.5,-146.5 417.5,-146.5 423.5,-146.5 429.5,-152.5 429.5,-158.5 429.5,-158.5 429.5,-170.5 429.5,-170.5 429.5,-176.5 423.5,-182.5 417.5,-182.5 417.5,-182.5 373.5,-182.5 373.5,-182.5 367.5,-182.5 361.5,-176.5 361.5,-170.5 361.5,-170.5 361.5,-158.5 361.5,-158.5 361.5,-152.5 367.5,-146.5 373.5,-146.5"/>
<text text-anchor="middle" x="395.5" y="-162.3" font-family="Arial" font-size="9.00">_10: [&#45;inf, inf]</text>
</g>
<!-- Node_22&#45;&gt;Node_23 -->
<g id="edge12" class="edge"><title>Node_22&#45;&gt;Node_23</title>
<path fill="none" stroke="steelblue" d="M395.5,-219.313C395.5,-211.289 395.5,-201.547 395.5,-192.569"/>
<polygon fill="steelblue" stroke="steelblue" points="399,-192.529 395.5,-182.529 392,-192.529 399,-192.529"/>
</g>
<!-- Node_24 -->
<g id="node25" class="node"><title>Node_24</title>
<path fill="moccasin" stroke="moccasin" d="M601.5,-438.5C601.5,-438.5 645.5,-438.5 645.5,-438.5 651.5,-438.5 657.5,-444.5 657.5,-450.5 657.5,-450.5 657.5,-462.5 657.5,-462.5 657.5,-468.5 651.5,-474.5 645.5,-474.5 645.5,-474.5 601.5,-474.5 601.5,-474.5 595.5,-474.5 589.5,-468.5 589.5,-462.5 589.5,-462.5 589.5,-450.5 589.5,-450.5 589.5,-444.5 595.5,-438.5 601.5,-438.5"/>
<text text-anchor="middle" x="623.5" y="-454.3" font-family="Arial" font-size="9.00">b_9: [&#45;inf, inf]</text>
</g>
<!-- Node_24&#45;&gt;Node_4 -->
<g id="edge23" class="edge"><title>Node_24&#45;&gt;Node_4</title>
<path fill="none" stroke="tan" d="M623.5,-438.313C623.5,-430.289 623.5,-420.547 623.5,-411.569"/>
<polygon fill="tan" stroke="tan" points="627,-411.529 623.5,-401.529 620,-411.529 627,-411.529"/>
</g>
</g>
</svg>
