<?xml version="1.0" encoding="UTF-8" standalone="no"?>
<!DOCTYPE svg PUBLIC "-//W3C//DTD SVG 1.1//EN"
 "http://www.w3.org/Graphics/SVG/1.1/DTD/svg11.dtd">
<!-- Generated by graphviz version 2.38.0 (20140413.2041)
 -->
<!-- Title: t10_foo_ConstraintGraph Pages: 1 -->
<svg width="908pt" height="504pt"
     viewBox="0.00 0.00 908.00 504.00" xmlns="http://www.w3.org/2000/svg">
<g id="graph0" class="graph" transform="scale(1 1) rotate(0) translate(4 500)">
<title>t10_foo_ConstraintGraph</title>
<polygon fill="white" stroke="none" points="-4,4 -4,-500 904,-500 904,4 -4,4"/>
<text text-anchor="middle" x="450" y="-482.4" font-family="Arial" font-size="12.00">t10_foo_ConstraintGraph</text>
<!-- Node_0 -->
<g id="node1" class="node"><title>Node_0</title>
<path fill="lightblue" stroke="lightblue" d="M319.5,-365.5C319.5,-365.5 362.5,-365.5 362.5,-365.5 368.5,-365.5 374.5,-371.5 374.5,-377.5 374.5,-377.5 374.5,-389.5 374.5,-389.5 374.5,-395.5 368.5,-401.5 362.5,-401.5 362.5,-401.5 319.5,-401.5 319.5,-401.5 313.5,-401.5 307.5,-395.5 307.5,-389.5 307.5,-389.5 307.5,-377.5 307.5,-377.5 307.5,-371.5 313.5,-365.5 319.5,-365.5"/>
<text text-anchor="middle" x="341" y="-381.3" font-family="Arial" font-size="9.00">j_7 = j_2 + 1</text>
</g>
<!-- Node_1 -->
<g id="node2" class="node"><title>Node_1</title>
<path fill="moccasin" stroke="moccasin" d="M243.5,-292.5C243.5,-292.5 316.5,-292.5 316.5,-292.5 322.5,-292.5 328.5,-298.5 328.5,-304.5 328.5,-304.5 328.5,-316.5 328.5,-316.5 328.5,-322.5 322.5,-328.5 316.5,-328.5 316.5,-328.5 243.5,-328.5 243.5,-328.5 237.5,-328.5 231.5,-322.5 231.5,-316.5 231.5,-316.5 231.5,-304.5 231.5,-304.5 231.5,-298.5 237.5,-292.5 243.5,-292.5"/>
<text text-anchor="middle" x="280" y="-308.3" font-family="Arial" font-size="9.00">j_7: [&#45;Infinity, Infinity]</text>
</g>
<!-- Node_0&#45;&gt;Node_1 -->
<g id="edge1" class="edge"><title>Node_0&#45;&gt;Node_1</title>
<path fill="none" stroke="steelblue" d="M326.234,-365.313C318.741,-356.592 309.504,-345.84 301.261,-336.246"/>
<polygon fill="steelblue" stroke="steelblue" points="303.802,-333.833 294.63,-328.529 298.492,-338.395 303.802,-333.833"/>
</g>
<!-- Node_6 -->
<g id="node7" class="node"><title>Node_6</title>
<path fill="lightblue" stroke="lightblue" d="M31,-219.5C31,-219.5 87,-219.5 87,-219.5 93,-219.5 99,-225.5 99,-231.5 99,-231.5 99,-243.5 99,-243.5 99,-249.5 93,-255.5 87,-255.5 87,-255.5 31,-255.5 31,-255.5 25,-255.5 19,-249.5 19,-243.5 19,-243.5 19,-231.5 19,-231.5 19,-225.5 25,-219.5 31,-219.5"/>
<text text-anchor="middle" x="59" y="-235.3" font-family="Arial" font-size="9.00">_8 = i_1_f + j_7</text>
</g>
<!-- Node_1&#45;&gt;Node_6 -->
<g id="edge15" class="edge"><title>Node_1&#45;&gt;Node_6</title>
<path fill="none" stroke="tan" d="M231.267,-294.93C198.96,-285.137 155.43,-271.688 108.754,-256.193"/>
<polygon fill="tan" stroke="tan" points="109.658,-252.805 99.0644,-252.961 107.444,-259.445 109.658,-252.805"/>
</g>
<!-- Node_8 -->
<g id="node9" class="node"><title>Node_8</title>
<path fill="lightblue" stroke="lightblue" d="M230.5,-219.5C230.5,-219.5 333.5,-219.5 333.5,-219.5 339.5,-219.5 345.5,-225.5 345.5,-231.5 345.5,-231.5 345.5,-243.5 345.5,-243.5 345.5,-249.5 339.5,-255.5 333.5,-255.5 333.5,-255.5 230.5,-255.5 230.5,-255.5 224.5,-255.5 218.5,-249.5 218.5,-243.5 218.5,-243.5 218.5,-231.5 218.5,-231.5 218.5,-225.5 224.5,-219.5 230.5,-219.5"/>
<text text-anchor="middle" x="282" y="-235.3" font-family="Arial" font-size="9.00"># j_2 = PHI &lt;j_4(4), j_7(5)&gt;</text>
</g>
<!-- Node_1&#45;&gt;Node_8 -->
<g id="edge16" class="edge"><title>Node_1&#45;&gt;Node_8</title>
<path fill="none" stroke="tan" d="M280.484,-292.313C280.71,-284.289 280.985,-274.547 281.237,-265.569"/>
<polygon fill="tan" stroke="tan" points="284.737,-265.623 281.52,-255.529 277.74,-265.426 284.737,-265.623"/>
</g>
<!-- Node_22 -->
<g id="node23" class="node"><title>Node_22</title>
<path fill="lightblue" stroke="lightblue" d="M129.5,-219.5C129.5,-219.5 188.5,-219.5 188.5,-219.5 194.5,-219.5 200.5,-225.5 200.5,-231.5 200.5,-231.5 200.5,-243.5 200.5,-243.5 200.5,-249.5 194.5,-255.5 188.5,-255.5 188.5,-255.5 129.5,-255.5 129.5,-255.5 123.5,-255.5 117.5,-249.5 117.5,-243.5 117.5,-243.5 117.5,-231.5 117.5,-231.5 117.5,-225.5 123.5,-219.5 129.5,-219.5"/>
<text text-anchor="middle" x="159" y="-235.3" font-family="Arial" font-size="9.00">_10 = j_7 &#45; i_1_f</text>
</g>
<!-- Node_1&#45;&gt;Node_22 -->
<g id="edge17" class="edge"><title>Node_1&#45;&gt;Node_22</title>
<path fill="none" stroke="tan" d="M251.017,-292.494C234.823,-282.991 214.449,-271.036 196.991,-260.792"/>
<polygon fill="tan" stroke="tan" points="198.562,-257.656 188.165,-255.614 195.019,-263.693 198.562,-257.656"/>
</g>
<!-- Node_2 -->
<g id="node3" class="node"><title>Node_2</title>
<path fill="lightblue" stroke="lightblue" d="M712,-219.5C712,-219.5 742,-219.5 742,-219.5 748,-219.5 754,-225.5 754,-231.5 754,-231.5 754,-243.5 754,-243.5 754,-249.5 748,-255.5 742,-255.5 742,-255.5 712,-255.5 712,-255.5 706,-255.5 700,-249.5 700,-243.5 700,-243.5 700,-231.5 700,-231.5 700,-225.5 706,-219.5 712,-219.5"/>
<text text-anchor="middle" x="727" y="-235.3" font-family="Arial" font-size="9.00">i_3 = 0</text>
</g>
<!-- Node_3 -->
<g id="node4" class="node"><title>Node_3</title>
<path fill="moccasin" stroke="moccasin" d="M690.5,-146.5C690.5,-146.5 763.5,-146.5 763.5,-146.5 769.5,-146.5 775.5,-152.5 775.5,-158.5 775.5,-158.5 775.5,-170.5 775.5,-170.5 775.5,-176.5 769.5,-182.5 763.5,-182.5 763.5,-182.5 690.5,-182.5 690.5,-182.5 684.5,-182.5 678.5,-176.5 678.5,-170.5 678.5,-170.5 678.5,-158.5 678.5,-158.5 678.5,-152.5 684.5,-146.5 690.5,-146.5"/>
<text text-anchor="middle" x="727" y="-162.3" font-family="Arial" font-size="9.00">i_3: [&#45;Infinity, Infinity]</text>
</g>
<!-- Node_2&#45;&gt;Node_3 -->
<g id="edge2" class="edge"><title>Node_2&#45;&gt;Node_3</title>
<path fill="none" stroke="steelblue" d="M727,-219.313C727,-211.289 727,-201.547 727,-192.569"/>
<polygon fill="steelblue" stroke="steelblue" points="730.5,-192.529 727,-182.529 723.5,-192.529 730.5,-192.529"/>
</g>
<!-- Node_20 -->
<g id="node21" class="node"><title>Node_20</title>
<path fill="lightblue" stroke="lightblue" d="M598.5,-73.5C598.5,-73.5 701.5,-73.5 701.5,-73.5 707.5,-73.5 713.5,-79.5 713.5,-85.5 713.5,-85.5 713.5,-97.5 713.5,-97.5 713.5,-103.5 707.5,-109.5 701.5,-109.5 701.5,-109.5 598.5,-109.5 598.5,-109.5 592.5,-109.5 586.5,-103.5 586.5,-97.5 586.5,-97.5 586.5,-85.5 586.5,-85.5 586.5,-79.5 592.5,-73.5 598.5,-73.5"/>
<text text-anchor="middle" x="650" y="-89.3" font-family="Arial" font-size="9.00"># i_1 = PHI &lt;i_3(2), i_6(3)&gt;</text>
</g>
<!-- Node_3&#45;&gt;Node_20 -->
<g id="edge22" class="edge"><title>Node_3&#45;&gt;Node_20</title>
<path fill="none" stroke="tan" d="M708.36,-146.313C698.619,-137.33 686.541,-126.193 675.904,-116.386"/>
<polygon fill="tan" stroke="tan" points="678.192,-113.735 668.468,-109.529 673.447,-118.881 678.192,-113.735"/>
</g>
<!-- Node_4 -->
<g id="node5" class="node"><title>Node_4</title>
<path fill="lightblue" stroke="lightblue" d="M30.5,-73.5C30.5,-73.5 71.5,-73.5 71.5,-73.5 77.5,-73.5 83.5,-79.5 83.5,-85.5 83.5,-85.5 83.5,-97.5 83.5,-97.5 83.5,-103.5 77.5,-109.5 71.5,-109.5 71.5,-109.5 30.5,-109.5 30.5,-109.5 24.5,-109.5 18.5,-103.5 18.5,-97.5 18.5,-97.5 18.5,-85.5 18.5,-85.5 18.5,-79.5 24.5,-73.5 30.5,-73.5"/>
<text text-anchor="middle" x="51" y="-89.3" font-family="Arial" font-size="9.00">if (_8 &lt; b_9)</text>
</g>
<!-- Node_5 -->
<g id="node6" class="node"><title>Node_5</title>
<path fill="moccasin" stroke="moccasin" d="M12,-0.5C12,-0.5 90,-0.5 90,-0.5 96,-0.5 102,-6.5 102,-12.5 102,-12.5 102,-24.5 102,-24.5 102,-30.5 96,-36.5 90,-36.5 90,-36.5 12,-36.5 12,-36.5 6,-36.5 0,-30.5 0,-24.5 0,-24.5 0,-12.5 0,-12.5 0,-6.5 6,-0.5 12,-0.5"/>
<text text-anchor="middle" x="51" y="-16.3" font-family="Arial" font-size="9.00">_8_t: [&#45;Infinity, Infinity]</text>
</g>
<!-- Node_4&#45;&gt;Node_5 -->
<g id="edge3" class="edge"><title>Node_4&#45;&gt;Node_5</title>
<path fill="none" stroke="steelblue" d="M51,-73.3129C51,-65.2895 51,-55.5475 51,-46.5691"/>
<polygon fill="steelblue" stroke="steelblue" points="54.5001,-46.5288 51,-36.5288 47.5001,-46.5289 54.5001,-46.5288"/>
</g>
<!-- Node_7 -->
<g id="node8" class="node"><title>Node_7</title>
<path fill="moccasin" stroke="moccasin" d="M15.5,-146.5C15.5,-146.5 86.5,-146.5 86.5,-146.5 92.5,-146.5 98.5,-152.5 98.5,-158.5 98.5,-158.5 98.5,-170.5 98.5,-170.5 98.5,-176.5 92.5,-182.5 86.5,-182.5 86.5,-182.5 15.5,-182.5 15.5,-182.5 9.5,-182.5 3.5,-176.5 3.5,-170.5 3.5,-170.5 3.5,-158.5 3.5,-158.5 3.5,-152.5 9.5,-146.5 15.5,-146.5"/>
<text text-anchor="middle" x="51" y="-162.3" font-family="Arial" font-size="9.00">_8: [&#45;Infinity, Infinity]</text>
</g>
<!-- Node_6&#45;&gt;Node_7 -->
<g id="edge4" class="edge"><title>Node_6&#45;&gt;Node_7</title>
<path fill="none" stroke="steelblue" d="M57.0634,-219.313C56.1594,-211.289 55.0617,-201.547 54.05,-192.569"/>
<polygon fill="steelblue" stroke="steelblue" points="57.5165,-192.074 52.9187,-182.529 50.5605,-192.858 57.5165,-192.074"/>
</g>
<!-- Node_7&#45;&gt;Node_4 -->
<g id="edge24" class="edge"><title>Node_7&#45;&gt;Node_4</title>
<path fill="none" stroke="tan" d="M51,-146.313C51,-138.289 51,-128.547 51,-119.569"/>
<polygon fill="tan" stroke="tan" points="54.5001,-119.529 51,-109.529 47.5001,-119.529 54.5001,-119.529"/>
</g>
<!-- Node_9 -->
<g id="node10" class="node"><title>Node_9</title>
<path fill="moccasin" stroke="moccasin" d="M296.5,-146.5C296.5,-146.5 369.5,-146.5 369.5,-146.5 375.5,-146.5 381.5,-152.5 381.5,-158.5 381.5,-158.5 381.5,-170.5 381.5,-170.5 381.5,-176.5 375.5,-182.5 369.5,-182.5 369.5,-182.5 296.5,-182.5 296.5,-182.5 290.5,-182.5 284.5,-176.5 284.5,-170.5 284.5,-170.5 284.5,-158.5 284.5,-158.5 284.5,-152.5 290.5,-146.5 296.5,-146.5"/>
<text text-anchor="middle" x="333" y="-162.3" font-family="Arial" font-size="9.00">j_2: [&#45;Infinity, Infinity]</text>
</g>
<!-- Node_8&#45;&gt;Node_9 -->
<g id="edge5" class="edge"><title>Node_8&#45;&gt;Node_9</title>
<path fill="none" stroke="steelblue" d="M294.346,-219.313C300.485,-210.766 308.025,-200.269 314.81,-190.823"/>
<polygon fill="steelblue" stroke="steelblue" points="317.777,-192.693 320.768,-182.529 312.091,-188.609 317.777,-192.693"/>
</g>
<!-- Node_9&#45;&gt;Node_0 -->
<g id="edge19" class="edge"><title>Node_9&#45;&gt;Node_0</title>
<path fill="none" stroke="tan" d="M341.719,-182.838C346.375,-193.076 351.625,-206.451 354,-219 362.943,-266.257 354.426,-322.33 347.595,-355.013"/>
<polygon fill="tan" stroke="tan" points="344.095,-354.637 345.371,-365.154 350.932,-356.136 344.095,-354.637"/>
</g>
<!-- Node_10 -->
<g id="node11" class="node"><title>Node_10</title>
<path fill="lightblue" stroke="lightblue" d="M166.5,-365.5C166.5,-365.5 215.5,-365.5 215.5,-365.5 221.5,-365.5 227.5,-371.5 227.5,-377.5 227.5,-377.5 227.5,-389.5 227.5,-389.5 227.5,-395.5 221.5,-401.5 215.5,-401.5 215.5,-401.5 166.5,-401.5 166.5,-401.5 160.5,-401.5 154.5,-395.5 154.5,-389.5 154.5,-389.5 154.5,-377.5 154.5,-377.5 154.5,-371.5 160.5,-365.5 166.5,-365.5"/>
<text text-anchor="middle" x="191" y="-381.3" font-family="Arial" font-size="9.00">if (i_1 &gt;= a_5)</text>
</g>
<!-- Node_11 -->
<g id="node12" class="node"><title>Node_11</title>
<path fill="moccasin" stroke="moccasin" d="M119,-292.5C119,-292.5 199,-292.5 199,-292.5 205,-292.5 211,-298.5 211,-304.5 211,-304.5 211,-316.5 211,-316.5 211,-322.5 205,-328.5 199,-328.5 199,-328.5 119,-328.5 119,-328.5 113,-328.5 107,-322.5 107,-316.5 107,-316.5 107,-304.5 107,-304.5 107,-298.5 113,-292.5 119,-292.5"/>
<text text-anchor="middle" x="159" y="-308.3" font-family="Arial" font-size="9.00">i_1_f: [&#45;Infinity, Infinity]</text>
</g>
<!-- Node_10&#45;&gt;Node_11 -->
<g id="edge6" class="edge"><title>Node_10&#45;&gt;Node_11</title>
<path fill="none" stroke="steelblue" d="M183.254,-365.313C179.52,-357.028 174.96,-346.91 170.805,-337.693"/>
<polygon fill="steelblue" stroke="steelblue" points="173.975,-336.207 166.675,-328.529 167.593,-339.084 173.975,-336.207"/>
</g>
<!-- Node_11&#45;&gt;Node_6 -->
<g id="edge13" class="edge"><title>Node_11&#45;&gt;Node_6</title>
<path fill="none" stroke="tan" d="M135.048,-292.494C122.032,-283.253 105.75,-271.692 91.5944,-261.642"/>
<polygon fill="tan" stroke="tan" points="93.2837,-258.549 83.1036,-255.614 89.2312,-264.257 93.2837,-258.549"/>
</g>
<!-- Node_11&#45;&gt;Node_22 -->
<g id="edge14" class="edge"><title>Node_11&#45;&gt;Node_22</title>
<path fill="none" stroke="tan" d="M159,-292.313C159,-284.289 159,-274.547 159,-265.569"/>
<polygon fill="tan" stroke="tan" points="162.5,-265.529 159,-255.529 155.5,-265.529 162.5,-265.529"/>
</g>
<!-- Node_12 -->
<g id="node13" class="node"><title>Node_12</title>
<path fill="lightblue" stroke="lightblue" d="M546,-219.5C546,-219.5 596,-219.5 596,-219.5 602,-219.5 608,-225.5 608,-231.5 608,-231.5 608,-243.5 608,-243.5 608,-249.5 602,-255.5 596,-255.5 596,-255.5 546,-255.5 546,-255.5 540,-255.5 534,-249.5 534,-243.5 534,-243.5 534,-231.5 534,-231.5 534,-225.5 540,-219.5 546,-219.5"/>
<text text-anchor="middle" x="571" y="-235.3" font-family="Arial" font-size="9.00">i_6 = i_1_t + 1</text>
</g>
<!-- Node_13 -->
<g id="node14" class="node"><title>Node_13</title>
<path fill="moccasin" stroke="moccasin" d="M535.5,-146.5C535.5,-146.5 608.5,-146.5 608.5,-146.5 614.5,-146.5 620.5,-152.5 620.5,-158.5 620.5,-158.5 620.5,-170.5 620.5,-170.5 620.5,-176.5 614.5,-182.5 608.5,-182.5 608.5,-182.5 535.5,-182.5 535.5,-182.5 529.5,-182.5 523.5,-176.5 523.5,-170.5 523.5,-170.5 523.5,-158.5 523.5,-158.5 523.5,-152.5 529.5,-146.5 535.5,-146.5"/>
<text text-anchor="middle" x="572" y="-162.3" font-family="Arial" font-size="9.00">i_6: [&#45;Infinity, Infinity]</text>
</g>
<!-- Node_12&#45;&gt;Node_13 -->
<g id="edge7" class="edge"><title>Node_12&#45;&gt;Node_13</title>
<path fill="none" stroke="steelblue" d="M571.242,-219.313C571.355,-211.289 571.492,-201.547 571.619,-192.569"/>
<polygon fill="steelblue" stroke="steelblue" points="575.119,-192.577 571.76,-182.529 568.12,-192.479 575.119,-192.577"/>
</g>
<!-- Node_13&#45;&gt;Node_20 -->
<g id="edge18" class="edge"><title>Node_13&#45;&gt;Node_20</title>
<path fill="none" stroke="tan" d="M590.882,-146.313C600.75,-137.33 612.985,-126.193 623.759,-116.386"/>
<polygon fill="tan" stroke="tan" points="626.253,-118.849 631.292,-109.529 621.541,-113.672 626.253,-118.849"/>
</g>
<!-- Node_14 -->
<g id="node15" class="node"><title>Node_14</title>
<path fill="lightblue" stroke="lightblue" d="M711.5,-365.5C711.5,-365.5 752.5,-365.5 752.5,-365.5 758.5,-365.5 764.5,-371.5 764.5,-377.5 764.5,-377.5 764.5,-389.5 764.5,-389.5 764.5,-395.5 758.5,-401.5 752.5,-401.5 752.5,-401.5 711.5,-401.5 711.5,-401.5 705.5,-401.5 699.5,-395.5 699.5,-389.5 699.5,-389.5 699.5,-377.5 699.5,-377.5 699.5,-371.5 705.5,-365.5 711.5,-365.5"/>
<text text-anchor="middle" x="732" y="-381.3" font-family="Arial" font-size="9.00">if (_8 &lt; b_9)</text>
</g>
<!-- Node_15 -->
<g id="node16" class="node"><title>Node_15</title>
<path fill="moccasin" stroke="moccasin" d="M690.5,-292.5C690.5,-292.5 773.5,-292.5 773.5,-292.5 779.5,-292.5 785.5,-298.5 785.5,-304.5 785.5,-304.5 785.5,-316.5 785.5,-316.5 785.5,-322.5 779.5,-328.5 773.5,-328.5 773.5,-328.5 690.5,-328.5 690.5,-328.5 684.5,-328.5 678.5,-322.5 678.5,-316.5 678.5,-316.5 678.5,-304.5 678.5,-304.5 678.5,-298.5 684.5,-292.5 690.5,-292.5"/>
<text text-anchor="middle" x="732" y="-308.3" font-family="Arial" font-size="9.00">b_9_t: [&#45;Infinity, Infinity]</text>
</g>
<!-- Node_14&#45;&gt;Node_15 -->
<g id="edge8" class="edge"><title>Node_14&#45;&gt;Node_15</title>
<path fill="none" stroke="steelblue" d="M732,-365.313C732,-357.289 732,-347.547 732,-338.569"/>
<polygon fill="steelblue" stroke="steelblue" points="735.5,-338.529 732,-328.529 728.5,-338.529 735.5,-338.529"/>
</g>
<!-- Node_16 -->
<g id="node17" class="node"><title>Node_16</title>
<path fill="lightblue" stroke="lightblue" d="M436,-365.5C436,-365.5 466,-365.5 466,-365.5 472,-365.5 478,-371.5 478,-377.5 478,-377.5 478,-389.5 478,-389.5 478,-395.5 472,-401.5 466,-401.5 466,-401.5 436,-401.5 436,-401.5 430,-401.5 424,-395.5 424,-389.5 424,-389.5 424,-377.5 424,-377.5 424,-371.5 430,-365.5 436,-365.5"/>
<text text-anchor="middle" x="451" y="-381.3" font-family="Arial" font-size="9.00">j_4 = 0</text>
</g>
<!-- Node_17 -->
<g id="node18" class="node"><title>Node_17</title>
<path fill="moccasin" stroke="moccasin" d="M414.5,-292.5C414.5,-292.5 487.5,-292.5 487.5,-292.5 493.5,-292.5 499.5,-298.5 499.5,-304.5 499.5,-304.5 499.5,-316.5 499.5,-316.5 499.5,-322.5 493.5,-328.5 487.5,-328.5 487.5,-328.5 414.5,-328.5 414.5,-328.5 408.5,-328.5 402.5,-322.5 402.5,-316.5 402.5,-316.5 402.5,-304.5 402.5,-304.5 402.5,-298.5 408.5,-292.5 414.5,-292.5"/>
<text text-anchor="middle" x="451" y="-308.3" font-family="Arial" font-size="9.00">j_4: [&#45;Infinity, Infinity]</text>
</g>
<!-- Node_16&#45;&gt;Node_17 -->
<g id="edge9" class="edge"><title>Node_16&#45;&gt;Node_17</title>
<path fill="none" stroke="steelblue" d="M451,-365.313C451,-357.289 451,-347.547 451,-338.569"/>
<polygon fill="steelblue" stroke="steelblue" points="454.5,-338.529 451,-328.529 447.5,-338.529 454.5,-338.529"/>
</g>
<!-- Node_17&#45;&gt;Node_8 -->
<g id="edge20" class="edge"><title>Node_17&#45;&gt;Node_8</title>
<path fill="none" stroke="tan" d="M410.52,-292.494C386.968,-282.599 357.086,-270.045 332.064,-259.533"/>
<polygon fill="tan" stroke="tan" points="333.31,-256.26 322.735,-255.614 330.599,-262.714 333.31,-256.26"/>
</g>
<!-- Node_18 -->
<g id="node19" class="node"><title>Node_18</title>
<path fill="lightblue" stroke="lightblue" d="M548,-365.5C548,-365.5 592,-365.5 592,-365.5 598,-365.5 604,-371.5 604,-377.5 604,-377.5 604,-389.5 604,-389.5 604,-395.5 598,-401.5 592,-401.5 592,-401.5 548,-401.5 548,-401.5 542,-401.5 536,-395.5 536,-389.5 536,-389.5 536,-377.5 536,-377.5 536,-371.5 542,-365.5 548,-365.5"/>
<text text-anchor="middle" x="570" y="-381.3" font-family="Arial" font-size="9.00">if (i_1 &lt; a_5)</text>
</g>
<!-- Node_19 -->
<g id="node20" class="node"><title>Node_19</title>
<path fill="moccasin" stroke="moccasin" d="M530,-292.5C530,-292.5 610,-292.5 610,-292.5 616,-292.5 622,-298.5 622,-304.5 622,-304.5 622,-316.5 622,-316.5 622,-322.5 616,-328.5 610,-328.5 610,-328.5 530,-328.5 530,-328.5 524,-328.5 518,-322.5 518,-316.5 518,-316.5 518,-304.5 518,-304.5 518,-298.5 524,-292.5 530,-292.5"/>
<text text-anchor="middle" x="570" y="-308.3" font-family="Arial" font-size="9.00">i_1_t: [&#45;Infinity, Infinity]</text>
</g>
<!-- Node_18&#45;&gt;Node_19 -->
<g id="edge10" class="edge"><title>Node_18&#45;&gt;Node_19</title>
<path fill="none" stroke="steelblue" d="M570,-365.313C570,-357.289 570,-347.547 570,-338.569"/>
<polygon fill="steelblue" stroke="steelblue" points="573.5,-338.529 570,-328.529 566.5,-338.529 573.5,-338.529"/>
</g>
<!-- Node_19&#45;&gt;Node_12 -->
<g id="edge23" class="edge"><title>Node_19&#45;&gt;Node_12</title>
<path fill="none" stroke="tan" d="M570.242,-292.313C570.355,-284.289 570.492,-274.547 570.619,-265.569"/>
<polygon fill="tan" stroke="tan" points="574.119,-265.577 570.76,-255.529 567.12,-265.479 574.119,-265.577"/>
</g>
<!-- Node_21 -->
<g id="node22" class="node"><title>Node_21</title>
<path fill="moccasin" stroke="moccasin" d="M533.5,-438.5C533.5,-438.5 606.5,-438.5 606.5,-438.5 612.5,-438.5 618.5,-444.5 618.5,-450.5 618.5,-450.5 618.5,-462.5 618.5,-462.5 618.5,-468.5 612.5,-474.5 606.5,-474.5 606.5,-474.5 533.5,-474.5 533.5,-474.5 527.5,-474.5 521.5,-468.5 521.5,-462.5 521.5,-462.5 521.5,-450.5 521.5,-450.5 521.5,-444.5 527.5,-438.5 533.5,-438.5"/>
<text text-anchor="middle" x="570" y="-454.3" font-family="Arial" font-size="9.00">i_1: [&#45;Infinity, Infinity]</text>
</g>
<!-- Node_20&#45;&gt;Node_21 -->
<g id="edge11" class="edge"><title>Node_20&#45;&gt;Node_21</title>
<path fill="none" stroke="steelblue" d="M650,-109.789C650,-136.824 650,-190.75 650,-236.5 650,-311.5 650,-311.5 650,-311.5 650,-357.893 617.877,-403.311 594.342,-430.362"/>
<polygon fill="steelblue" stroke="steelblue" points="591.43,-428.367 587.359,-438.148 596.641,-433.041 591.43,-428.367"/>
</g>
<!-- Node_21&#45;&gt;Node_10 -->
<g id="edge25" class="edge"><title>Node_21&#45;&gt;Node_10</title>
<path fill="none" stroke="tan" d="M521.228,-446.363C447.865,-432.62 310.034,-406.799 237.829,-393.273"/>
<polygon fill="tan" stroke="tan" points="238.14,-389.77 227.667,-391.369 236.851,-396.651 238.14,-389.77"/>
</g>
<!-- Node_21&#45;&gt;Node_18 -->
<g id="edge26" class="edge"><title>Node_21&#45;&gt;Node_18</title>
<path fill="none" stroke="tan" d="M570,-438.313C570,-430.289 570,-420.547 570,-411.569"/>
<polygon fill="tan" stroke="tan" points="573.5,-411.529 570,-401.529 566.5,-411.529 573.5,-411.529"/>
</g>
<!-- Node_23 -->
<g id="node24" class="node"><title>Node_23</title>
<path fill="moccasin" stroke="moccasin" d="M129,-146.5C129,-146.5 205,-146.5 205,-146.5 211,-146.5 217,-152.5 217,-158.5 217,-158.5 217,-170.5 217,-170.5 217,-176.5 211,-182.5 205,-182.5 205,-182.5 129,-182.5 129,-182.5 123,-182.5 117,-176.5 117,-170.5 117,-170.5 117,-158.5 117,-158.5 117,-152.5 123,-146.5 129,-146.5"/>
<text text-anchor="middle" x="167" y="-162.3" font-family="Arial" font-size="9.00">_10: [&#45;Infinity, Infinity]</text>
</g>
<!-- Node_22&#45;&gt;Node_23 -->
<g id="edge12" class="edge"><title>Node_22&#45;&gt;Node_23</title>
<path fill="none" stroke="steelblue" d="M160.937,-219.313C161.841,-211.289 162.938,-201.547 163.95,-192.569"/>
<polygon fill="steelblue" stroke="steelblue" points="167.439,-192.858 165.081,-182.529 160.484,-192.074 167.439,-192.858"/>
</g>
<!-- Node_24 -->
<g id="node25" class="node"><title>Node_24</title>
<path fill="moccasin" stroke="moccasin" d="M694,-438.5C694,-438.5 770,-438.5 770,-438.5 776,-438.5 782,-444.5 782,-450.5 782,-450.5 782,-462.5 782,-462.5 782,-468.5 776,-474.5 770,-474.5 770,-474.5 694,-474.5 694,-474.5 688,-474.5 682,-468.5 682,-462.5 682,-462.5 682,-450.5 682,-450.5 682,-444.5 688,-438.5 694,-438.5"/>
<text text-anchor="middle" x="732" y="-454.3" font-family="Arial" font-size="9.00">b_9: [&#45;Infinity, Infinity]</text>
</g>
<!-- Node_24&#45;&gt;Node_14 -->
<g id="edge21" class="edge"><title>Node_24&#45;&gt;Node_14</title>
<path fill="none" stroke="tan" d="M732,-438.313C732,-430.289 732,-420.547 732,-411.569"/>
<polygon fill="tan" stroke="tan" points="735.5,-411.529 732,-401.529 728.5,-411.529 735.5,-411.529"/>
</g>
<!-- Node_25 -->
<g id="node26" class="node"><title>Node_25</title>
<path fill="moccasin" stroke="moccasin" d="M812,-438.5C812,-438.5 888,-438.5 888,-438.5 894,-438.5 900,-444.5 900,-450.5 900,-450.5 900,-462.5 900,-462.5 900,-468.5 894,-474.5 888,-474.5 888,-474.5 812,-474.5 812,-474.5 806,-474.5 800,-468.5 800,-462.5 800,-462.5 800,-450.5 800,-450.5 800,-444.5 806,-438.5 812,-438.5"/>
<text text-anchor="middle" x="850" y="-454.3" font-family="Arial" font-size="9.00">a_5: [&#45;Infinity, Infinity]</text>
</g>
</g>
</svg>
