<?xml version="1.0" encoding="UTF-8" standalone="no"?>
<!DOCTYPE svg PUBLIC "-//W3C//DTD SVG 1.1//EN"
 "http://www.w3.org/Graphics/SVG/1.1/DTD/svg11.dtd">
<!-- Generated by graphviz version 2.38.0 (20140413.2041)
 -->
<!-- Title: t1_foo_ConstraintGraph Pages: 1 -->
<svg width="689pt" height="796pt"
     viewBox="0.00 0.00 688.86 796.00" xmlns="http://www.w3.org/2000/svg">
<g id="graph0" class="graph" transform="scale(1 1) rotate(0) translate(4 792)">
<title>t1_foo_ConstraintGraph</title>
<polygon fill="white" stroke="none" points="-4,4 -4,-792 684.861,-792 684.861,4 -4,4"/>
<text text-anchor="middle" x="340.43" y="-774.4" font-family="Arial" font-size="12.00">t1_foo_ConstraintGraph</text>
<!-- Node_0 -->
<g id="node1" class="node"><title>Node_0</title>
<path fill="lightblue" stroke="lightblue" d="M173.861,-511.5C173.861,-511.5 214.861,-511.5 214.861,-511.5 220.861,-511.5 226.861,-517.5 226.861,-523.5 226.861,-523.5 226.861,-535.5 226.861,-535.5 226.861,-541.5 220.861,-547.5 214.861,-547.5 214.861,-547.5 173.861,-547.5 173.861,-547.5 167.861,-547.5 161.861,-541.5 161.861,-535.5 161.861,-535.5 161.861,-523.5 161.861,-523.5 161.861,-517.5 167.861,-511.5 173.861,-511.5"/>
<text text-anchor="middle" x="194.361" y="-527.3" font-family="Arial" font-size="9.00">_10 = k_1_f</text>
</g>
<!-- Node_1 -->
<g id="node2" class="node"><title>Node_1</title>
<path fill="moccasin" stroke="moccasin" d="M158.361,-438.5C158.361,-438.5 234.361,-438.5 234.361,-438.5 240.361,-438.5 246.361,-444.5 246.361,-450.5 246.361,-450.5 246.361,-462.5 246.361,-462.5 246.361,-468.5 240.361,-474.5 234.361,-474.5 234.361,-474.5 158.361,-474.5 158.361,-474.5 152.361,-474.5 146.361,-468.5 146.361,-462.5 146.361,-462.5 146.361,-450.5 146.361,-450.5 146.361,-444.5 152.361,-438.5 158.361,-438.5"/>
<text text-anchor="middle" x="196.361" y="-454.3" font-family="Arial" font-size="9.00">_10: [&#45;Infinity, Infinity]</text>
</g>
<!-- Node_0&#45;&gt;Node_1 -->
<g id="edge1" class="edge"><title>Node_0&#45;&gt;Node_1</title>
<path fill="none" stroke="steelblue" d="M194.845,-511.313C195.071,-503.289 195.345,-493.547 195.598,-484.569"/>
<polygon fill="steelblue" stroke="steelblue" points="199.098,-484.623 195.881,-474.529 192.101,-484.426 199.098,-484.623"/>
</g>
<!-- Node_2 -->
<g id="node3" class="node"><title>Node_2</title>
<path fill="lightblue" stroke="lightblue" d="M565.861,-584.5C565.861,-584.5 668.861,-584.5 668.861,-584.5 674.861,-584.5 680.861,-590.5 680.861,-596.5 680.861,-596.5 680.861,-608.5 680.861,-608.5 680.861,-614.5 674.861,-620.5 668.861,-620.5 668.861,-620.5 565.861,-620.5 565.861,-620.5 559.861,-620.5 553.861,-614.5 553.861,-608.5 553.861,-608.5 553.861,-596.5 553.861,-596.5 553.861,-590.5 559.861,-584.5 565.861,-584.5"/>
<text text-anchor="middle" x="617.361" y="-600.3" font-family="Arial" font-size="9.00"># i_2 = PHI &lt;i_5(3), i_7(4)&gt;</text>
</g>
<!-- Node_3 -->
<g id="node4" class="node"><title>Node_3</title>
<path fill="moccasin" stroke="moccasin" d="M540.861,-511.5C540.861,-511.5 613.861,-511.5 613.861,-511.5 619.861,-511.5 625.861,-517.5 625.861,-523.5 625.861,-523.5 625.861,-535.5 625.861,-535.5 625.861,-541.5 619.861,-547.5 613.861,-547.5 613.861,-547.5 540.861,-547.5 540.861,-547.5 534.861,-547.5 528.861,-541.5 528.861,-535.5 528.861,-535.5 528.861,-523.5 528.861,-523.5 528.861,-517.5 534.861,-511.5 540.861,-511.5"/>
<text text-anchor="middle" x="577.361" y="-527.3" font-family="Arial" font-size="9.00">i_2: [&#45;Infinity, Infinity]</text>
</g>
<!-- Node_2&#45;&gt;Node_3 -->
<g id="edge2" class="edge"><title>Node_2&#45;&gt;Node_3</title>
<path fill="none" stroke="steelblue" d="M607.678,-584.313C602.961,-575.941 597.19,-565.697 591.954,-556.403"/>
<polygon fill="steelblue" stroke="steelblue" points="594.912,-554.523 586.954,-547.529 588.813,-557.959 594.912,-554.523"/>
</g>
<!-- Node_12 -->
<g id="node13" class="node"><title>Node_12</title>
<path fill="lightblue" stroke="lightblue" d="M555.861,-438.5C555.861,-438.5 596.861,-438.5 596.861,-438.5 602.861,-438.5 608.861,-444.5 608.861,-450.5 608.861,-450.5 608.861,-462.5 608.861,-462.5 608.861,-468.5 602.861,-474.5 596.861,-474.5 596.861,-474.5 555.861,-474.5 555.861,-474.5 549.861,-474.5 543.861,-468.5 543.861,-462.5 543.861,-462.5 543.861,-450.5 543.861,-450.5 543.861,-444.5 549.861,-438.5 555.861,-438.5"/>
<text text-anchor="middle" x="576.361" y="-454.3" font-family="Arial" font-size="9.00">if (i_2 &lt; j_3)</text>
</g>
<!-- Node_3&#45;&gt;Node_12 -->
<g id="edge28" class="edge"><title>Node_3&#45;&gt;Node_12</title>
<path fill="none" stroke="tan" d="M577.119,-511.313C577.006,-503.289 576.868,-493.547 576.742,-484.569"/>
<polygon fill="tan" stroke="tan" points="580.241,-484.479 576.6,-474.529 573.242,-484.577 580.241,-484.479"/>
</g>
<!-- Node_4 -->
<g id="node5" class="node"><title>Node_4</title>
<path fill="lightblue" stroke="lightblue" d="M378.861,-365.5C378.861,-365.5 481.861,-365.5 481.861,-365.5 487.861,-365.5 493.861,-371.5 493.861,-377.5 493.861,-377.5 493.861,-389.5 493.861,-389.5 493.861,-395.5 487.861,-401.5 481.861,-401.5 481.861,-401.5 378.861,-401.5 378.861,-401.5 372.861,-401.5 366.861,-395.5 366.861,-389.5 366.861,-389.5 366.861,-377.5 366.861,-377.5 366.861,-371.5 372.861,-365.5 378.861,-365.5"/>
<text text-anchor="middle" x="430.361" y="-381.3" font-family="Arial" font-size="9.00"># j_3 = PHI &lt;j_6(3), j_8(4)&gt;</text>
</g>
<!-- Node_5 -->
<g id="node6" class="node"><title>Node_5</title>
<path fill="moccasin" stroke="moccasin" d="M373.861,-292.5C373.861,-292.5 446.861,-292.5 446.861,-292.5 452.861,-292.5 458.861,-298.5 458.861,-304.5 458.861,-304.5 458.861,-316.5 458.861,-316.5 458.861,-322.5 452.861,-328.5 446.861,-328.5 446.861,-328.5 373.861,-328.5 373.861,-328.5 367.861,-328.5 361.861,-322.5 361.861,-316.5 361.861,-316.5 361.861,-304.5 361.861,-304.5 361.861,-298.5 367.861,-292.5 373.861,-292.5"/>
<text text-anchor="middle" x="410.361" y="-308.3" font-family="Arial" font-size="9.00">j_3: [&#45;Infinity, Infinity]</text>
</g>
<!-- Node_4&#45;&gt;Node_5 -->
<g id="edge3" class="edge"><title>Node_4&#45;&gt;Node_5</title>
<path fill="none" stroke="steelblue" d="M425.519,-365.313C423.235,-357.202 420.455,-347.336 417.903,-338.277"/>
<polygon fill="steelblue" stroke="steelblue" points="421.238,-337.205 415.157,-328.529 414.5,-339.103 421.238,-337.205"/>
</g>
<!-- Node_14 -->
<g id="node15" class="node"><title>Node_14</title>
<path fill="lightblue" stroke="lightblue" d="M388.861,-219.5C388.861,-219.5 429.861,-219.5 429.861,-219.5 435.861,-219.5 441.861,-225.5 441.861,-231.5 441.861,-231.5 441.861,-243.5 441.861,-243.5 441.861,-249.5 435.861,-255.5 429.861,-255.5 429.861,-255.5 388.861,-255.5 388.861,-255.5 382.861,-255.5 376.861,-249.5 376.861,-243.5 376.861,-243.5 376.861,-231.5 376.861,-231.5 376.861,-225.5 382.861,-219.5 388.861,-219.5"/>
<text text-anchor="middle" x="409.361" y="-235.3" font-family="Arial" font-size="9.00">if (i_2 &lt; j_3)</text>
</g>
<!-- Node_5&#45;&gt;Node_14 -->
<g id="edge29" class="edge"><title>Node_5&#45;&gt;Node_14</title>
<path fill="none" stroke="tan" d="M410.119,-292.313C410.006,-284.289 409.868,-274.547 409.742,-265.569"/>
<polygon fill="tan" stroke="tan" points="413.241,-265.479 409.6,-255.529 406.242,-265.577 413.241,-265.479"/>
</g>
<!-- Node_6 -->
<g id="node7" class="node"><title>Node_6</title>
<path fill="lightblue" stroke="lightblue" d="M63.3606,-511.5C63.3606,-511.5 93.3606,-511.5 93.3606,-511.5 99.3606,-511.5 105.361,-517.5 105.361,-523.5 105.361,-523.5 105.361,-535.5 105.361,-535.5 105.361,-541.5 99.3606,-547.5 93.3606,-547.5 93.3606,-547.5 63.3606,-547.5 63.3606,-547.5 57.3606,-547.5 51.3606,-541.5 51.3606,-535.5 51.3606,-535.5 51.3606,-523.5 51.3606,-523.5 51.3606,-517.5 57.3606,-511.5 63.3606,-511.5"/>
<text text-anchor="middle" x="78.3606" y="-527.3" font-family="Arial" font-size="9.00">k_4 = 0</text>
</g>
<!-- Node_7 -->
<g id="node8" class="node"><title>Node_7</title>
<path fill="moccasin" stroke="moccasin" d="M40.8606,-438.5C40.8606,-438.5 115.861,-438.5 115.861,-438.5 121.861,-438.5 127.861,-444.5 127.861,-450.5 127.861,-450.5 127.861,-462.5 127.861,-462.5 127.861,-468.5 121.861,-474.5 115.861,-474.5 115.861,-474.5 40.8606,-474.5 40.8606,-474.5 34.8606,-474.5 28.8606,-468.5 28.8606,-462.5 28.8606,-462.5 28.8606,-450.5 28.8606,-450.5 28.8606,-444.5 34.8606,-438.5 40.8606,-438.5"/>
<text text-anchor="middle" x="78.3606" y="-454.3" font-family="Arial" font-size="9.00">k_4: [&#45;Infinity, Infinity]</text>
</g>
<!-- Node_6&#45;&gt;Node_7 -->
<g id="edge4" class="edge"><title>Node_6&#45;&gt;Node_7</title>
<path fill="none" stroke="steelblue" d="M78.3606,-511.313C78.3606,-503.289 78.3606,-493.547 78.3606,-484.569"/>
<polygon fill="steelblue" stroke="steelblue" points="81.8607,-484.529 78.3606,-474.529 74.8607,-484.529 81.8607,-484.529"/>
</g>
<!-- Node_24 -->
<g id="node25" class="node"><title>Node_24</title>
<path fill="lightblue" stroke="lightblue" d="M23.3606,-365.5C23.3606,-365.5 133.361,-365.5 133.361,-365.5 139.361,-365.5 145.361,-371.5 145.361,-377.5 145.361,-377.5 145.361,-389.5 145.361,-389.5 145.361,-395.5 139.361,-401.5 133.361,-401.5 133.361,-401.5 23.3606,-401.5 23.3606,-401.5 17.3606,-401.5 11.3606,-395.5 11.3606,-389.5 11.3606,-389.5 11.3606,-377.5 11.3606,-377.5 11.3606,-371.5 17.3606,-365.5 23.3606,-365.5"/>
<text text-anchor="middle" x="78.3606" y="-381.3" font-family="Arial" font-size="9.00"># k_1 = PHI &lt;k_4(2), k_9(6)&gt;</text>
</g>
<!-- Node_7&#45;&gt;Node_24 -->
<g id="edge19" class="edge"><title>Node_7&#45;&gt;Node_24</title>
<path fill="none" stroke="tan" d="M78.3606,-438.313C78.3606,-430.289 78.3606,-420.547 78.3606,-411.569"/>
<polygon fill="tan" stroke="tan" points="81.8607,-411.529 78.3606,-401.529 74.8607,-411.529 81.8607,-411.529"/>
</g>
<!-- Node_8 -->
<g id="node9" class="node"><title>Node_8</title>
<path fill="lightblue" stroke="lightblue" d="M398.361,-511.5C398.361,-511.5 436.361,-511.5 436.361,-511.5 442.361,-511.5 448.361,-517.5 448.361,-523.5 448.361,-523.5 448.361,-535.5 448.361,-535.5 448.361,-541.5 442.361,-547.5 436.361,-547.5 436.361,-547.5 398.361,-547.5 398.361,-547.5 392.361,-547.5 386.361,-541.5 386.361,-535.5 386.361,-535.5 386.361,-523.5 386.361,-523.5 386.361,-517.5 392.361,-511.5 398.361,-511.5"/>
<text text-anchor="middle" x="417.361" y="-527.3" font-family="Arial" font-size="9.00">j_6 = k_1_t</text>
</g>
<!-- Node_9 -->
<g id="node10" class="node"><title>Node_9</title>
<path fill="moccasin" stroke="moccasin" d="M393.861,-438.5C393.861,-438.5 466.861,-438.5 466.861,-438.5 472.861,-438.5 478.861,-444.5 478.861,-450.5 478.861,-450.5 478.861,-462.5 478.861,-462.5 478.861,-468.5 472.861,-474.5 466.861,-474.5 466.861,-474.5 393.861,-474.5 393.861,-474.5 387.861,-474.5 381.861,-468.5 381.861,-462.5 381.861,-462.5 381.861,-450.5 381.861,-450.5 381.861,-444.5 387.861,-438.5 393.861,-438.5"/>
<text text-anchor="middle" x="430.361" y="-454.3" font-family="Arial" font-size="9.00">j_6: [&#45;Infinity, Infinity]</text>
</g>
<!-- Node_8&#45;&gt;Node_9 -->
<g id="edge5" class="edge"><title>Node_8&#45;&gt;Node_9</title>
<path fill="none" stroke="steelblue" d="M420.508,-511.313C421.977,-503.289 423.76,-493.547 425.404,-484.569"/>
<polygon fill="steelblue" stroke="steelblue" points="428.884,-484.996 427.243,-474.529 421.999,-483.735 428.884,-484.996"/>
</g>
<!-- Node_9&#45;&gt;Node_4 -->
<g id="edge16" class="edge"><title>Node_9&#45;&gt;Node_4</title>
<path fill="none" stroke="tan" d="M430.361,-438.313C430.361,-430.289 430.361,-420.547 430.361,-411.569"/>
<polygon fill="tan" stroke="tan" points="433.861,-411.529 430.361,-401.529 426.861,-411.529 433.861,-411.529"/>
</g>
<!-- Node_10 -->
<g id="node11" class="node"><title>Node_10</title>
<path fill="lightblue" stroke="lightblue" d="M602.361,-730.5C602.361,-730.5 632.361,-730.5 632.361,-730.5 638.361,-730.5 644.361,-736.5 644.361,-742.5 644.361,-742.5 644.361,-754.5 644.361,-754.5 644.361,-760.5 638.361,-766.5 632.361,-766.5 632.361,-766.5 602.361,-766.5 602.361,-766.5 596.361,-766.5 590.361,-760.5 590.361,-754.5 590.361,-754.5 590.361,-742.5 590.361,-742.5 590.361,-736.5 596.361,-730.5 602.361,-730.5"/>
<text text-anchor="middle" x="617.361" y="-746.3" font-family="Arial" font-size="9.00">i_5 = 0</text>
</g>
<!-- Node_11 -->
<g id="node12" class="node"><title>Node_11</title>
<path fill="moccasin" stroke="moccasin" d="M580.861,-657.5C580.861,-657.5 653.861,-657.5 653.861,-657.5 659.861,-657.5 665.861,-663.5 665.861,-669.5 665.861,-669.5 665.861,-681.5 665.861,-681.5 665.861,-687.5 659.861,-693.5 653.861,-693.5 653.861,-693.5 580.861,-693.5 580.861,-693.5 574.861,-693.5 568.861,-687.5 568.861,-681.5 568.861,-681.5 568.861,-669.5 568.861,-669.5 568.861,-663.5 574.861,-657.5 580.861,-657.5"/>
<text text-anchor="middle" x="617.361" y="-673.3" font-family="Arial" font-size="9.00">i_5: [&#45;Infinity, Infinity]</text>
</g>
<!-- Node_10&#45;&gt;Node_11 -->
<g id="edge6" class="edge"><title>Node_10&#45;&gt;Node_11</title>
<path fill="none" stroke="steelblue" d="M617.361,-730.313C617.361,-722.289 617.361,-712.547 617.361,-703.569"/>
<polygon fill="steelblue" stroke="steelblue" points="620.861,-703.529 617.361,-693.529 613.861,-703.529 620.861,-703.529"/>
</g>
<!-- Node_11&#45;&gt;Node_2 -->
<g id="edge21" class="edge"><title>Node_11&#45;&gt;Node_2</title>
<path fill="none" stroke="tan" d="M617.361,-657.313C617.361,-649.289 617.361,-639.547 617.361,-630.569"/>
<polygon fill="tan" stroke="tan" points="620.861,-630.529 617.361,-620.529 613.861,-630.529 620.861,-630.529"/>
</g>
<!-- Node_13 -->
<g id="node14" class="node"><title>Node_13</title>
<path fill="moccasin" stroke="moccasin" d="M535.361,-365.5C535.361,-365.5 615.361,-365.5 615.361,-365.5 621.361,-365.5 627.361,-371.5 627.361,-377.5 627.361,-377.5 627.361,-389.5 627.361,-389.5 627.361,-395.5 621.361,-401.5 615.361,-401.5 615.361,-401.5 535.361,-401.5 535.361,-401.5 529.361,-401.5 523.361,-395.5 523.361,-389.5 523.361,-389.5 523.361,-377.5 523.361,-377.5 523.361,-371.5 529.361,-365.5 535.361,-365.5"/>
<text text-anchor="middle" x="575.361" y="-381.3" font-family="Arial" font-size="9.00">i_2_t: [&#45;Infinity, Infinity]</text>
</g>
<!-- Node_12&#45;&gt;Node_13 -->
<g id="edge7" class="edge"><title>Node_12&#45;&gt;Node_13</title>
<path fill="none" stroke="steelblue" d="M576.119,-438.313C576.006,-430.289 575.868,-420.547 575.742,-411.569"/>
<polygon fill="steelblue" stroke="steelblue" points="579.241,-411.479 575.6,-401.529 572.242,-411.577 579.241,-411.479"/>
</g>
<!-- Node_20 -->
<g id="node21" class="node"><title>Node_20</title>
<path fill="lightblue" stroke="lightblue" d="M556.361,-292.5C556.361,-292.5 606.361,-292.5 606.361,-292.5 612.361,-292.5 618.361,-298.5 618.361,-304.5 618.361,-304.5 618.361,-316.5 618.361,-316.5 618.361,-322.5 612.361,-328.5 606.361,-328.5 606.361,-328.5 556.361,-328.5 556.361,-328.5 550.361,-328.5 544.361,-322.5 544.361,-316.5 544.361,-316.5 544.361,-304.5 544.361,-304.5 544.361,-298.5 550.361,-292.5 556.361,-292.5"/>
<text text-anchor="middle" x="581.361" y="-308.3" font-family="Arial" font-size="9.00">i_7 = i_2_t + 1</text>
</g>
<!-- Node_13&#45;&gt;Node_20 -->
<g id="edge27" class="edge"><title>Node_13&#45;&gt;Node_20</title>
<path fill="none" stroke="tan" d="M576.813,-365.313C577.491,-357.289 578.314,-347.547 579.073,-338.569"/>
<polygon fill="tan" stroke="tan" points="582.567,-338.788 579.922,-328.529 575.592,-338.199 582.567,-338.788"/>
</g>
<!-- Node_15 -->
<g id="node16" class="node"><title>Node_15</title>
<path fill="moccasin" stroke="moccasin" d="M368.361,-146.5C368.361,-146.5 448.361,-146.5 448.361,-146.5 454.361,-146.5 460.361,-152.5 460.361,-158.5 460.361,-158.5 460.361,-170.5 460.361,-170.5 460.361,-176.5 454.361,-182.5 448.361,-182.5 448.361,-182.5 368.361,-182.5 368.361,-182.5 362.361,-182.5 356.361,-176.5 356.361,-170.5 356.361,-170.5 356.361,-158.5 356.361,-158.5 356.361,-152.5 362.361,-146.5 368.361,-146.5"/>
<text text-anchor="middle" x="408.361" y="-162.3" font-family="Arial" font-size="9.00">j_3_t: [&#45;Infinity, Infinity]</text>
</g>
<!-- Node_14&#45;&gt;Node_15 -->
<g id="edge8" class="edge"><title>Node_14&#45;&gt;Node_15</title>
<path fill="none" stroke="steelblue" d="M409.119,-219.313C409.006,-211.289 408.868,-201.547 408.742,-192.569"/>
<polygon fill="steelblue" stroke="steelblue" points="412.241,-192.479 408.6,-182.529 405.242,-192.577 412.241,-192.479"/>
</g>
<!-- Node_16 -->
<g id="node17" class="node"><title>Node_16</title>
<path fill="lightblue" stroke="lightblue" d="M388.861,-73.5C388.861,-73.5 441.861,-73.5 441.861,-73.5 447.861,-73.5 453.861,-79.5 453.861,-85.5 453.861,-85.5 453.861,-97.5 453.861,-97.5 453.861,-103.5 447.861,-109.5 441.861,-109.5 441.861,-109.5 388.861,-109.5 388.861,-109.5 382.861,-109.5 376.861,-103.5 376.861,-97.5 376.861,-97.5 376.861,-85.5 376.861,-85.5 376.861,-79.5 382.861,-73.5 388.861,-73.5"/>
<text text-anchor="middle" x="415.361" y="-89.3" font-family="Arial" font-size="9.00">j_8 = j_3_t + &#45;1</text>
</g>
<!-- Node_15&#45;&gt;Node_16 -->
<g id="edge15" class="edge"><title>Node_15&#45;&gt;Node_16</title>
<path fill="none" stroke="tan" d="M410.055,-146.313C410.846,-138.289 411.807,-128.547 412.692,-119.569"/>
<polygon fill="tan" stroke="tan" points="416.184,-119.824 413.682,-109.529 409.217,-119.137 416.184,-119.824"/>
</g>
<!-- Node_17 -->
<g id="node18" class="node"><title>Node_17</title>
<path fill="moccasin" stroke="moccasin" d="M414.861,-0.5C414.861,-0.5 487.861,-0.5 487.861,-0.5 493.861,-0.5 499.861,-6.5 499.861,-12.5 499.861,-12.5 499.861,-24.5 499.861,-24.5 499.861,-30.5 493.861,-36.5 487.861,-36.5 487.861,-36.5 414.861,-36.5 414.861,-36.5 408.861,-36.5 402.861,-30.5 402.861,-24.5 402.861,-24.5 402.861,-12.5 402.861,-12.5 402.861,-6.5 408.861,-0.5 414.861,-0.5"/>
<text text-anchor="middle" x="451.361" y="-16.3" font-family="Arial" font-size="9.00">j_8: [&#45;Infinity, Infinity]</text>
</g>
<!-- Node_16&#45;&gt;Node_17 -->
<g id="edge9" class="edge"><title>Node_16&#45;&gt;Node_17</title>
<path fill="none" stroke="steelblue" d="M424.075,-73.3129C428.276,-65.0279 433.406,-54.9103 438.079,-45.6933"/>
<polygon fill="steelblue" stroke="steelblue" points="441.326,-47.0307 442.726,-36.5288 435.082,-43.865 441.326,-47.0307"/>
</g>
<!-- Node_17&#45;&gt;Node_4 -->
<g id="edge23" class="edge"><title>Node_17&#45;&gt;Node_4</title>
<path fill="none" stroke="tan" d="M458.848,-36.8645C469.66,-63.5586 488.361,-116.522 488.361,-163.5 488.361,-238.5 488.361,-238.5 488.361,-238.5 488.361,-279.791 484.067,-291.24 467.361,-329 463.043,-338.759 456.871,-348.604 450.802,-357.141"/>
<polygon fill="tan" stroke="tan" points="447.98,-355.071 444.84,-365.19 453.605,-359.237 447.98,-355.071"/>
</g>
<!-- Node_18 -->
<g id="node19" class="node"><title>Node_18</title>
<path fill="lightblue" stroke="lightblue" d="M274.361,-657.5C274.361,-657.5 320.361,-657.5 320.361,-657.5 326.361,-657.5 332.361,-663.5 332.361,-669.5 332.361,-669.5 332.361,-681.5 332.361,-681.5 332.361,-687.5 326.361,-693.5 320.361,-693.5 320.361,-693.5 274.361,-693.5 274.361,-693.5 268.361,-693.5 262.361,-687.5 262.361,-681.5 262.361,-681.5 262.361,-669.5 262.361,-669.5 262.361,-663.5 268.361,-657.5 274.361,-657.5"/>
<text text-anchor="middle" x="297.361" y="-673.3" font-family="Arial" font-size="9.00">if (k_1 &lt;= 99)</text>
</g>
<!-- Node_19 -->
<g id="node20" class="node"><title>Node_19</title>
<path fill="moccasin" stroke="moccasin" d="M274.861,-584.5C274.861,-584.5 357.861,-584.5 357.861,-584.5 363.861,-584.5 369.861,-590.5 369.861,-596.5 369.861,-596.5 369.861,-608.5 369.861,-608.5 369.861,-614.5 363.861,-620.5 357.861,-620.5 357.861,-620.5 274.861,-620.5 274.861,-620.5 268.861,-620.5 262.861,-614.5 262.861,-608.5 262.861,-608.5 262.861,-596.5 262.861,-596.5 262.861,-590.5 268.861,-584.5 274.861,-584.5"/>
<text text-anchor="middle" x="316.361" y="-600.3" font-family="Arial" font-size="9.00">k_1_t: [&#45;Infinity, Infinity]</text>
</g>
<!-- Node_18&#45;&gt;Node_19 -->
<g id="edge10" class="edge"><title>Node_18&#45;&gt;Node_19</title>
<path fill="none" stroke="steelblue" d="M301.96,-657.313C304.13,-649.202 306.771,-639.336 309.195,-630.277"/>
<polygon fill="steelblue" stroke="steelblue" points="312.599,-631.094 311.804,-620.529 305.837,-629.284 312.599,-631.094"/>
</g>
<!-- Node_19&#45;&gt;Node_8 -->
<g id="edge18" class="edge"><title>Node_19&#45;&gt;Node_8</title>
<path fill="none" stroke="tan" d="M340.553,-584.494C353.698,-575.253 370.143,-563.692 384.44,-553.642"/>
<polygon fill="tan" stroke="tan" points="386.848,-556.228 393.016,-547.614 382.822,-550.501 386.848,-556.228"/>
</g>
<!-- Node_22 -->
<g id="node23" class="node"><title>Node_22</title>
<path fill="lightblue" stroke="lightblue" d="M287.861,-511.5C287.861,-511.5 342.861,-511.5 342.861,-511.5 348.861,-511.5 354.861,-517.5 354.861,-523.5 354.861,-523.5 354.861,-535.5 354.861,-535.5 354.861,-541.5 348.861,-547.5 342.861,-547.5 342.861,-547.5 287.861,-547.5 287.861,-547.5 281.861,-547.5 275.861,-541.5 275.861,-535.5 275.861,-535.5 275.861,-523.5 275.861,-523.5 275.861,-517.5 281.861,-511.5 287.861,-511.5"/>
<text text-anchor="middle" x="315.361" y="-527.3" font-family="Arial" font-size="9.00">k_9 = k_1_t + 1</text>
</g>
<!-- Node_19&#45;&gt;Node_22 -->
<g id="edge17" class="edge"><title>Node_19&#45;&gt;Node_22</title>
<path fill="none" stroke="tan" d="M316.119,-584.313C316.006,-576.289 315.868,-566.547 315.742,-557.569"/>
<polygon fill="tan" stroke="tan" points="319.241,-557.479 315.6,-547.529 312.242,-557.577 319.241,-557.479"/>
</g>
<!-- Node_21 -->
<g id="node22" class="node"><title>Node_21</title>
<path fill="moccasin" stroke="moccasin" d="M565.861,-219.5C565.861,-219.5 638.861,-219.5 638.861,-219.5 644.861,-219.5 650.861,-225.5 650.861,-231.5 650.861,-231.5 650.861,-243.5 650.861,-243.5 650.861,-249.5 644.861,-255.5 638.861,-255.5 638.861,-255.5 565.861,-255.5 565.861,-255.5 559.861,-255.5 553.861,-249.5 553.861,-243.5 553.861,-243.5 553.861,-231.5 553.861,-231.5 553.861,-225.5 559.861,-219.5 565.861,-219.5"/>
<text text-anchor="middle" x="602.361" y="-235.3" font-family="Arial" font-size="9.00">i_7: [&#45;Infinity, Infinity]</text>
</g>
<!-- Node_20&#45;&gt;Node_21 -->
<g id="edge11" class="edge"><title>Node_20&#45;&gt;Node_21</title>
<path fill="none" stroke="steelblue" d="M586.444,-292.313C588.843,-284.202 591.761,-274.336 594.441,-265.277"/>
<polygon fill="steelblue" stroke="steelblue" points="597.844,-266.111 597.324,-255.529 591.131,-264.125 597.844,-266.111"/>
</g>
<!-- Node_21&#45;&gt;Node_2 -->
<g id="edge20" class="edge"><title>Node_21&#45;&gt;Node_2</title>
<path fill="none" stroke="tan" d="M613.342,-255.921C628.866,-282.263 655.361,-334.282 655.361,-382.5 655.361,-457.5 655.361,-457.5 655.361,-457.5 655.361,-499.594 639.992,-546.388 628.802,-574.879"/>
<polygon fill="tan" stroke="tan" points="625.555,-573.573 625.05,-584.155 632.044,-576.197 625.555,-573.573"/>
</g>
<!-- Node_23 -->
<g id="node24" class="node"><title>Node_23</title>
<path fill="moccasin" stroke="moccasin" d="M276.861,-438.5C276.861,-438.5 351.861,-438.5 351.861,-438.5 357.861,-438.5 363.861,-444.5 363.861,-450.5 363.861,-450.5 363.861,-462.5 363.861,-462.5 363.861,-468.5 357.861,-474.5 351.861,-474.5 351.861,-474.5 276.861,-474.5 276.861,-474.5 270.861,-474.5 264.861,-468.5 264.861,-462.5 264.861,-462.5 264.861,-450.5 264.861,-450.5 264.861,-444.5 270.861,-438.5 276.861,-438.5"/>
<text text-anchor="middle" x="314.361" y="-454.3" font-family="Arial" font-size="9.00">k_9: [&#45;Infinity, Infinity]</text>
</g>
<!-- Node_22&#45;&gt;Node_23 -->
<g id="edge12" class="edge"><title>Node_22&#45;&gt;Node_23</title>
<path fill="none" stroke="steelblue" d="M315.119,-511.313C315.006,-503.289 314.868,-493.547 314.742,-484.569"/>
<polygon fill="steelblue" stroke="steelblue" points="318.241,-484.479 314.6,-474.529 311.242,-484.577 318.241,-484.479"/>
</g>
<!-- Node_23&#45;&gt;Node_24 -->
<g id="edge24" class="edge"><title>Node_23&#45;&gt;Node_24</title>
<path fill="none" stroke="tan" d="M264.599,-440.529C229.84,-430.072 183.045,-415.994 145.057,-404.566"/>
<polygon fill="tan" stroke="tan" points="145.684,-401.099 135.1,-401.57 143.667,-407.802 145.684,-401.099"/>
</g>
<!-- Node_25 -->
<g id="node26" class="node"><title>Node_25</title>
<path fill="moccasin" stroke="moccasin" d="M153.861,-730.5C153.861,-730.5 228.861,-730.5 228.861,-730.5 234.861,-730.5 240.861,-736.5 240.861,-742.5 240.861,-742.5 240.861,-754.5 240.861,-754.5 240.861,-760.5 234.861,-766.5 228.861,-766.5 228.861,-766.5 153.861,-766.5 153.861,-766.5 147.861,-766.5 141.861,-760.5 141.861,-754.5 141.861,-754.5 141.861,-742.5 141.861,-742.5 141.861,-736.5 147.861,-730.5 153.861,-730.5"/>
<text text-anchor="middle" x="191.361" y="-746.3" font-family="Arial" font-size="9.00">k_1: [&#45;Infinity, Infinity]</text>
</g>
<!-- Node_24&#45;&gt;Node_25 -->
<g id="edge13" class="edge"><title>Node_24&#45;&gt;Node_25</title>
<path fill="none" stroke="steelblue" d="M53.0863,-401.567C41.0934,-410.95 27.6137,-423.606 19.3606,-438 -1.08187,-473.654 0.360624,-487.401 0.360624,-528.5 0.360624,-603.5 0.360624,-603.5 0.360624,-603.5 0.360624,-670.433 76.0706,-710.165 132.158,-730.415"/>
<polygon fill="steelblue" stroke="steelblue" points="131.081,-733.747 141.676,-733.736 133.387,-727.137 131.081,-733.747"/>
</g>
<!-- Node_25&#45;&gt;Node_18 -->
<g id="edge25" class="edge"><title>Node_25&#45;&gt;Node_18</title>
<path fill="none" stroke="tan" d="M216.75,-730.494C230.677,-721.166 248.132,-709.474 263.235,-699.358"/>
<polygon fill="tan" stroke="tan" points="265.45,-702.087 271.811,-693.614 261.555,-696.271 265.45,-702.087"/>
</g>
<!-- Node_26 -->
<g id="node27" class="node"><title>Node_26</title>
<path fill="lightblue" stroke="lightblue" d="M170.861,-657.5C170.861,-657.5 211.861,-657.5 211.861,-657.5 217.861,-657.5 223.861,-663.5 223.861,-669.5 223.861,-669.5 223.861,-681.5 223.861,-681.5 223.861,-687.5 217.861,-693.5 211.861,-693.5 211.861,-693.5 170.861,-693.5 170.861,-693.5 164.861,-693.5 158.861,-687.5 158.861,-681.5 158.861,-681.5 158.861,-669.5 158.861,-669.5 158.861,-663.5 164.861,-657.5 170.861,-657.5"/>
<text text-anchor="middle" x="191.361" y="-673.3" font-family="Arial" font-size="9.00">if (k_1 &gt; 99)</text>
</g>
<!-- Node_25&#45;&gt;Node_26 -->
<g id="edge26" class="edge"><title>Node_25&#45;&gt;Node_26</title>
<path fill="none" stroke="tan" d="M191.361,-730.313C191.361,-722.289 191.361,-712.547 191.361,-703.569"/>
<polygon fill="tan" stroke="tan" points="194.861,-703.529 191.361,-693.529 187.861,-703.529 194.861,-703.529"/>
</g>
<!-- Node_27 -->
<g id="node28" class="node"><title>Node_27</title>
<path fill="moccasin" stroke="moccasin" d="M149.861,-584.5C149.861,-584.5 232.861,-584.5 232.861,-584.5 238.861,-584.5 244.861,-590.5 244.861,-596.5 244.861,-596.5 244.861,-608.5 244.861,-608.5 244.861,-614.5 238.861,-620.5 232.861,-620.5 232.861,-620.5 149.861,-620.5 149.861,-620.5 143.861,-620.5 137.861,-614.5 137.861,-608.5 137.861,-608.5 137.861,-596.5 137.861,-596.5 137.861,-590.5 143.861,-584.5 149.861,-584.5"/>
<text text-anchor="middle" x="191.361" y="-600.3" font-family="Arial" font-size="9.00">k_1_f: [&#45;Infinity, Infinity]</text>
</g>
<!-- Node_26&#45;&gt;Node_27 -->
<g id="edge14" class="edge"><title>Node_26&#45;&gt;Node_27</title>
<path fill="none" stroke="steelblue" d="M191.361,-657.313C191.361,-649.289 191.361,-639.547 191.361,-630.569"/>
<polygon fill="steelblue" stroke="steelblue" points="194.861,-630.529 191.361,-620.529 187.861,-630.529 194.861,-630.529"/>
</g>
<!-- Node_27&#45;&gt;Node_0 -->
<g id="edge22" class="edge"><title>Node_27&#45;&gt;Node_0</title>
<path fill="none" stroke="tan" d="M192.087,-584.313C192.426,-576.289 192.837,-566.547 193.217,-557.569"/>
<polygon fill="tan" stroke="tan" points="196.716,-557.668 193.641,-547.529 189.722,-557.372 196.716,-557.668"/>
</g>
</g>
</svg>
