<?xml version="1.0" encoding="UTF-8" standalone="no"?>
<!DOCTYPE svg PUBLIC "-//W3C//DTD SVG 1.1//EN"
 "http://www.w3.org/Graphics/SVG/1.1/DTD/svg11.dtd">
<!-- Generated by graphviz version 2.38.0 (20140413.2041)
 -->
<!-- Title: t1_foo_final_ConstraintGraph Pages: 1 -->
<svg width="624pt" height="796pt"
     viewBox="0.00 0.00 623.50 796.00" xmlns="http://www.w3.org/2000/svg">
<g id="graph0" class="graph" transform="scale(1 1) rotate(0) translate(4 792)">
<title>t1_foo_final_ConstraintGraph</title>
<polygon fill="white" stroke="none" points="-4,4 -4,-792 619.5,-792 619.5,4 -4,4"/>
<text text-anchor="middle" x="307.75" y="-774.4" font-family="Arial" font-size="12.00">t1_foo_final_ConstraintGraph</text>
<!-- Node_0 -->
<g id="node1" class="node"><title>Node_0</title>
<path fill="lightblue" stroke="lightblue" d="M150.5,-511.5C150.5,-511.5 191.5,-511.5 191.5,-511.5 197.5,-511.5 203.5,-517.5 203.5,-523.5 203.5,-523.5 203.5,-535.5 203.5,-535.5 203.5,-541.5 197.5,-547.5 191.5,-547.5 191.5,-547.5 150.5,-547.5 150.5,-547.5 144.5,-547.5 138.5,-541.5 138.5,-535.5 138.5,-535.5 138.5,-523.5 138.5,-523.5 138.5,-517.5 144.5,-511.5 150.5,-511.5"/>
<text text-anchor="middle" x="171" y="-527.3" font-family="Arial" font-size="9.00">_10 = k_1_f</text>
</g>
<!-- Node_1 -->
<g id="node2" class="node"><title>Node_1</title>
<path fill="moccasin" stroke="moccasin" d="M133,-438.5C133,-438.5 209,-438.5 209,-438.5 215,-438.5 221,-444.5 221,-450.5 221,-450.5 221,-462.5 221,-462.5 221,-468.5 215,-474.5 209,-474.5 209,-474.5 133,-474.5 133,-474.5 127,-474.5 121,-468.5 121,-462.5 121,-462.5 121,-450.5 121,-450.5 121,-444.5 127,-438.5 133,-438.5"/>
<text text-anchor="middle" x="171" y="-454.3" font-family="Arial" font-size="9.00">_10: [&#45;Infinity, Infinity]</text>
</g>
<!-- Node_0&#45;&gt;Node_1 -->
<g id="edge1" class="edge"><title>Node_0&#45;&gt;Node_1</title>
<path fill="none" stroke="steelblue" d="M171,-511.313C171,-503.289 171,-493.547 171,-484.569"/>
<polygon fill="steelblue" stroke="steelblue" points="174.5,-484.529 171,-474.529 167.5,-484.529 174.5,-484.529"/>
</g>
<!-- Node_2 -->
<g id="node3" class="node"><title>Node_2</title>
<path fill="lightblue" stroke="lightblue" d="M500.5,-584.5C500.5,-584.5 603.5,-584.5 603.5,-584.5 609.5,-584.5 615.5,-590.5 615.5,-596.5 615.5,-596.5 615.5,-608.5 615.5,-608.5 615.5,-614.5 609.5,-620.5 603.5,-620.5 603.5,-620.5 500.5,-620.5 500.5,-620.5 494.5,-620.5 488.5,-614.5 488.5,-608.5 488.5,-608.5 488.5,-596.5 488.5,-596.5 488.5,-590.5 494.5,-584.5 500.5,-584.5"/>
<text text-anchor="middle" x="552" y="-600.3" font-family="Arial" font-size="9.00"># i_2 = PHI &lt;i_5(3), i_7(4)&gt;</text>
</g>
<!-- Node_3 -->
<g id="node4" class="node"><title>Node_3</title>
<path fill="moccasin" stroke="moccasin" d="M487.5,-511.5C487.5,-511.5 544.5,-511.5 544.5,-511.5 550.5,-511.5 556.5,-517.5 556.5,-523.5 556.5,-523.5 556.5,-535.5 556.5,-535.5 556.5,-541.5 550.5,-547.5 544.5,-547.5 544.5,-547.5 487.5,-547.5 487.5,-547.5 481.5,-547.5 475.5,-541.5 475.5,-535.5 475.5,-535.5 475.5,-523.5 475.5,-523.5 475.5,-517.5 481.5,-511.5 487.5,-511.5"/>
<text text-anchor="middle" x="516" y="-527.3" font-family="Arial" font-size="9.00">i_2: [0.0, Infinity]</text>
</g>
<!-- Node_2&#45;&gt;Node_3 -->
<g id="edge2" class="edge"><title>Node_2&#45;&gt;Node_3</title>
<path fill="none" stroke="steelblue" d="M543.285,-584.313C539.085,-576.028 533.955,-565.91 529.281,-556.693"/>
<polygon fill="steelblue" stroke="steelblue" points="532.278,-554.865 524.634,-547.529 526.035,-558.031 532.278,-554.865"/>
</g>
<!-- Node_12 -->
<g id="node13" class="node"><title>Node_12</title>
<path fill="lightblue" stroke="lightblue" d="M494.5,-438.5C494.5,-438.5 535.5,-438.5 535.5,-438.5 541.5,-438.5 547.5,-444.5 547.5,-450.5 547.5,-450.5 547.5,-462.5 547.5,-462.5 547.5,-468.5 541.5,-474.5 535.5,-474.5 535.5,-474.5 494.5,-474.5 494.5,-474.5 488.5,-474.5 482.5,-468.5 482.5,-462.5 482.5,-462.5 482.5,-450.5 482.5,-450.5 482.5,-444.5 488.5,-438.5 494.5,-438.5"/>
<text text-anchor="middle" x="515" y="-454.3" font-family="Arial" font-size="9.00">if (i_2 &lt; j_3)</text>
</g>
<!-- Node_3&#45;&gt;Node_12 -->
<g id="edge28" class="edge"><title>Node_3&#45;&gt;Node_12</title>
<path fill="none" stroke="tan" d="M515.758,-511.313C515.645,-503.289 515.508,-493.547 515.381,-484.569"/>
<polygon fill="tan" stroke="tan" points="518.88,-484.479 515.24,-474.529 511.881,-484.577 518.88,-484.479"/>
</g>
<!-- Node_4 -->
<g id="node5" class="node"><title>Node_4</title>
<path fill="lightblue" stroke="lightblue" d="M324.5,-365.5C324.5,-365.5 427.5,-365.5 427.5,-365.5 433.5,-365.5 439.5,-371.5 439.5,-377.5 439.5,-377.5 439.5,-389.5 439.5,-389.5 439.5,-395.5 433.5,-401.5 427.5,-401.5 427.5,-401.5 324.5,-401.5 324.5,-401.5 318.5,-401.5 312.5,-395.5 312.5,-389.5 312.5,-389.5 312.5,-377.5 312.5,-377.5 312.5,-371.5 318.5,-365.5 324.5,-365.5"/>
<text text-anchor="middle" x="376" y="-381.3" font-family="Arial" font-size="9.00"># j_3 = PHI &lt;j_6(3), j_8(4)&gt;</text>
</g>
<!-- Node_5 -->
<g id="node6" class="node"><title>Node_5</title>
<path fill="moccasin" stroke="moccasin" d="M317.5,-292.5C317.5,-292.5 390.5,-292.5 390.5,-292.5 396.5,-292.5 402.5,-298.5 402.5,-304.5 402.5,-304.5 402.5,-316.5 402.5,-316.5 402.5,-322.5 396.5,-328.5 390.5,-328.5 390.5,-328.5 317.5,-328.5 317.5,-328.5 311.5,-328.5 305.5,-322.5 305.5,-316.5 305.5,-316.5 305.5,-304.5 305.5,-304.5 305.5,-298.5 311.5,-292.5 317.5,-292.5"/>
<text text-anchor="middle" x="354" y="-308.3" font-family="Arial" font-size="9.00">j_3: [&#45;Infinity, Infinity]</text>
</g>
<!-- Node_4&#45;&gt;Node_5 -->
<g id="edge3" class="edge"><title>Node_4&#45;&gt;Node_5</title>
<path fill="none" stroke="steelblue" d="M370.674,-365.313C368.161,-357.202 365.104,-347.336 362.297,-338.277"/>
<polygon fill="steelblue" stroke="steelblue" points="365.58,-337.045 359.277,-328.529 358.893,-339.117 365.58,-337.045"/>
</g>
<!-- Node_14 -->
<g id="node15" class="node"><title>Node_14</title>
<path fill="lightblue" stroke="lightblue" d="M332.5,-219.5C332.5,-219.5 373.5,-219.5 373.5,-219.5 379.5,-219.5 385.5,-225.5 385.5,-231.5 385.5,-231.5 385.5,-243.5 385.5,-243.5 385.5,-249.5 379.5,-255.5 373.5,-255.5 373.5,-255.5 332.5,-255.5 332.5,-255.5 326.5,-255.5 320.5,-249.5 320.5,-243.5 320.5,-243.5 320.5,-231.5 320.5,-231.5 320.5,-225.5 326.5,-219.5 332.5,-219.5"/>
<text text-anchor="middle" x="353" y="-235.3" font-family="Arial" font-size="9.00">if (i_2 &lt; j_3)</text>
</g>
<!-- Node_5&#45;&gt;Node_14 -->
<g id="edge29" class="edge"><title>Node_5&#45;&gt;Node_14</title>
<path fill="none" stroke="tan" d="M353.758,-292.313C353.645,-284.289 353.508,-274.547 353.381,-265.569"/>
<polygon fill="tan" stroke="tan" points="356.88,-265.479 353.24,-255.529 349.881,-265.577 356.88,-265.479"/>
</g>
<!-- Node_6 -->
<g id="node7" class="node"><title>Node_6</title>
<path fill="lightblue" stroke="lightblue" d="M52,-511.5C52,-511.5 82,-511.5 82,-511.5 88,-511.5 94,-517.5 94,-523.5 94,-523.5 94,-535.5 94,-535.5 94,-541.5 88,-547.5 82,-547.5 82,-547.5 52,-547.5 52,-547.5 46,-547.5 40,-541.5 40,-535.5 40,-535.5 40,-523.5 40,-523.5 40,-517.5 46,-511.5 52,-511.5"/>
<text text-anchor="middle" x="67" y="-527.3" font-family="Arial" font-size="9.00">k_4 = 0</text>
</g>
<!-- Node_7 -->
<g id="node8" class="node"><title>Node_7</title>
<path fill="moccasin" stroke="moccasin" d="M43.5,-438.5C43.5,-438.5 90.5,-438.5 90.5,-438.5 96.5,-438.5 102.5,-444.5 102.5,-450.5 102.5,-450.5 102.5,-462.5 102.5,-462.5 102.5,-468.5 96.5,-474.5 90.5,-474.5 90.5,-474.5 43.5,-474.5 43.5,-474.5 37.5,-474.5 31.5,-468.5 31.5,-462.5 31.5,-462.5 31.5,-450.5 31.5,-450.5 31.5,-444.5 37.5,-438.5 43.5,-438.5"/>
<text text-anchor="middle" x="67" y="-454.3" font-family="Arial" font-size="9.00">k_4: [0.0, 0.0]</text>
</g>
<!-- Node_6&#45;&gt;Node_7 -->
<g id="edge4" class="edge"><title>Node_6&#45;&gt;Node_7</title>
<path fill="none" stroke="steelblue" d="M67,-511.313C67,-503.289 67,-493.547 67,-484.569"/>
<polygon fill="steelblue" stroke="steelblue" points="70.5001,-484.529 67,-474.529 63.5001,-484.529 70.5001,-484.529"/>
</g>
<!-- Node_24 -->
<g id="node25" class="node"><title>Node_24</title>
<path fill="lightblue" stroke="lightblue" d="M12,-365.5C12,-365.5 122,-365.5 122,-365.5 128,-365.5 134,-371.5 134,-377.5 134,-377.5 134,-389.5 134,-389.5 134,-395.5 128,-401.5 122,-401.5 122,-401.5 12,-401.5 12,-401.5 6,-401.5 0,-395.5 0,-389.5 0,-389.5 0,-377.5 0,-377.5 0,-371.5 6,-365.5 12,-365.5"/>
<text text-anchor="middle" x="67" y="-381.3" font-family="Arial" font-size="9.00"># k_1 = PHI &lt;k_4(2), k_9(6)&gt;</text>
</g>
<!-- Node_7&#45;&gt;Node_24 -->
<g id="edge19" class="edge"><title>Node_7&#45;&gt;Node_24</title>
<path fill="none" stroke="tan" d="M67,-438.313C67,-430.289 67,-420.547 67,-411.569"/>
<polygon fill="tan" stroke="tan" points="70.5001,-411.529 67,-401.529 63.5001,-411.529 70.5001,-411.529"/>
</g>
<!-- Node_8 -->
<g id="node9" class="node"><title>Node_8</title>
<path fill="lightblue" stroke="lightblue" d="M354,-511.5C354,-511.5 392,-511.5 392,-511.5 398,-511.5 404,-517.5 404,-523.5 404,-523.5 404,-535.5 404,-535.5 404,-541.5 398,-547.5 392,-547.5 392,-547.5 354,-547.5 354,-547.5 348,-547.5 342,-541.5 342,-535.5 342,-535.5 342,-523.5 342,-523.5 342,-517.5 348,-511.5 354,-511.5"/>
<text text-anchor="middle" x="373" y="-527.3" font-family="Arial" font-size="9.00">j_6 = k_1_t</text>
</g>
<!-- Node_9 -->
<g id="node10" class="node"><title>Node_9</title>
<path fill="moccasin" stroke="moccasin" d="M351,-438.5C351,-438.5 401,-438.5 401,-438.5 407,-438.5 413,-444.5 413,-450.5 413,-450.5 413,-462.5 413,-462.5 413,-468.5 407,-474.5 401,-474.5 401,-474.5 351,-474.5 351,-474.5 345,-474.5 339,-468.5 339,-462.5 339,-462.5 339,-450.5 339,-450.5 339,-444.5 345,-438.5 351,-438.5"/>
<text text-anchor="middle" x="376" y="-454.3" font-family="Arial" font-size="9.00">j_6: [0.0, 99.0]</text>
</g>
<!-- Node_8&#45;&gt;Node_9 -->
<g id="edge5" class="edge"><title>Node_8&#45;&gt;Node_9</title>
<path fill="none" stroke="steelblue" d="M373.726,-511.313C374.065,-503.289 374.477,-493.547 374.856,-484.569"/>
<polygon fill="steelblue" stroke="steelblue" points="378.355,-484.668 375.28,-474.529 371.361,-484.372 378.355,-484.668"/>
</g>
<!-- Node_9&#45;&gt;Node_4 -->
<g id="edge16" class="edge"><title>Node_9&#45;&gt;Node_4</title>
<path fill="none" stroke="tan" d="M376,-438.313C376,-430.289 376,-420.547 376,-411.569"/>
<polygon fill="tan" stroke="tan" points="379.5,-411.529 376,-401.529 372.5,-411.529 379.5,-411.529"/>
</g>
<!-- Node_10 -->
<g id="node11" class="node"><title>Node_10</title>
<path fill="lightblue" stroke="lightblue" d="M537,-730.5C537,-730.5 567,-730.5 567,-730.5 573,-730.5 579,-736.5 579,-742.5 579,-742.5 579,-754.5 579,-754.5 579,-760.5 573,-766.5 567,-766.5 567,-766.5 537,-766.5 537,-766.5 531,-766.5 525,-760.5 525,-754.5 525,-754.5 525,-742.5 525,-742.5 525,-736.5 531,-730.5 537,-730.5"/>
<text text-anchor="middle" x="552" y="-746.3" font-family="Arial" font-size="9.00">i_5 = 0</text>
</g>
<!-- Node_11 -->
<g id="node12" class="node"><title>Node_11</title>
<path fill="moccasin" stroke="moccasin" d="M530,-657.5C530,-657.5 574,-657.5 574,-657.5 580,-657.5 586,-663.5 586,-669.5 586,-669.5 586,-681.5 586,-681.5 586,-687.5 580,-693.5 574,-693.5 574,-693.5 530,-693.5 530,-693.5 524,-693.5 518,-687.5 518,-681.5 518,-681.5 518,-669.5 518,-669.5 518,-663.5 524,-657.5 530,-657.5"/>
<text text-anchor="middle" x="552" y="-673.3" font-family="Arial" font-size="9.00">i_5: [0.0, 0.0]</text>
</g>
<!-- Node_10&#45;&gt;Node_11 -->
<g id="edge6" class="edge"><title>Node_10&#45;&gt;Node_11</title>
<path fill="none" stroke="steelblue" d="M552,-730.313C552,-722.289 552,-712.547 552,-703.569"/>
<polygon fill="steelblue" stroke="steelblue" points="555.5,-703.529 552,-693.529 548.5,-703.529 555.5,-703.529"/>
</g>
<!-- Node_11&#45;&gt;Node_2 -->
<g id="edge21" class="edge"><title>Node_11&#45;&gt;Node_2</title>
<path fill="none" stroke="tan" d="M552,-657.313C552,-649.289 552,-639.547 552,-630.569"/>
<polygon fill="tan" stroke="tan" points="555.5,-630.529 552,-620.529 548.5,-630.529 555.5,-630.529"/>
</g>
<!-- Node_13 -->
<g id="node14" class="node"><title>Node_13</title>
<path fill="moccasin" stroke="moccasin" d="M480.5,-365.5C480.5,-365.5 545.5,-365.5 545.5,-365.5 551.5,-365.5 557.5,-371.5 557.5,-377.5 557.5,-377.5 557.5,-389.5 557.5,-389.5 557.5,-395.5 551.5,-401.5 545.5,-401.5 545.5,-401.5 480.5,-401.5 480.5,-401.5 474.5,-401.5 468.5,-395.5 468.5,-389.5 468.5,-389.5 468.5,-377.5 468.5,-377.5 468.5,-371.5 474.5,-365.5 480.5,-365.5"/>
<text text-anchor="middle" x="513" y="-381.3" font-family="Arial" font-size="9.00">i_2_t: [0.0, Infinity]</text>
</g>
<!-- Node_12&#45;&gt;Node_13 -->
<g id="edge7" class="edge"><title>Node_12&#45;&gt;Node_13</title>
<path fill="none" stroke="steelblue" d="M514.516,-438.313C514.29,-430.289 514.015,-420.547 513.763,-411.569"/>
<polygon fill="steelblue" stroke="steelblue" points="517.26,-411.426 513.48,-401.529 510.263,-411.623 517.26,-411.426"/>
</g>
<!-- Node_20 -->
<g id="node21" class="node"><title>Node_20</title>
<path fill="lightblue" stroke="lightblue" d="M492,-292.5C492,-292.5 542,-292.5 542,-292.5 548,-292.5 554,-298.5 554,-304.5 554,-304.5 554,-316.5 554,-316.5 554,-322.5 548,-328.5 542,-328.5 542,-328.5 492,-328.5 492,-328.5 486,-328.5 480,-322.5 480,-316.5 480,-316.5 480,-304.5 480,-304.5 480,-298.5 486,-292.5 492,-292.5"/>
<text text-anchor="middle" x="517" y="-308.3" font-family="Arial" font-size="9.00">i_7 = i_2_t + 1</text>
</g>
<!-- Node_13&#45;&gt;Node_20 -->
<g id="edge27" class="edge"><title>Node_13&#45;&gt;Node_20</title>
<path fill="none" stroke="tan" d="M513.968,-365.313C514.42,-357.289 514.969,-347.547 515.475,-338.569"/>
<polygon fill="tan" stroke="tan" points="518.973,-338.71 516.041,-328.529 511.984,-338.316 518.973,-338.71"/>
</g>
<!-- Node_15 -->
<g id="node16" class="node"><title>Node_15</title>
<path fill="moccasin" stroke="moccasin" d="M312,-146.5C312,-146.5 392,-146.5 392,-146.5 398,-146.5 404,-152.5 404,-158.5 404,-158.5 404,-170.5 404,-170.5 404,-176.5 398,-182.5 392,-182.5 392,-182.5 312,-182.5 312,-182.5 306,-182.5 300,-176.5 300,-170.5 300,-170.5 300,-158.5 300,-158.5 300,-152.5 306,-146.5 312,-146.5"/>
<text text-anchor="middle" x="352" y="-162.3" font-family="Arial" font-size="9.00">j_3_t: [&#45;Infinity, Infinity]</text>
</g>
<!-- Node_14&#45;&gt;Node_15 -->
<g id="edge8" class="edge"><title>Node_14&#45;&gt;Node_15</title>
<path fill="none" stroke="steelblue" d="M352.758,-219.313C352.645,-211.289 352.508,-201.547 352.381,-192.569"/>
<polygon fill="steelblue" stroke="steelblue" points="355.88,-192.479 352.24,-182.529 348.881,-192.577 355.88,-192.479"/>
</g>
<!-- Node_16 -->
<g id="node17" class="node"><title>Node_16</title>
<path fill="lightblue" stroke="lightblue" d="M332.5,-73.5C332.5,-73.5 385.5,-73.5 385.5,-73.5 391.5,-73.5 397.5,-79.5 397.5,-85.5 397.5,-85.5 397.5,-97.5 397.5,-97.5 397.5,-103.5 391.5,-109.5 385.5,-109.5 385.5,-109.5 332.5,-109.5 332.5,-109.5 326.5,-109.5 320.5,-103.5 320.5,-97.5 320.5,-97.5 320.5,-85.5 320.5,-85.5 320.5,-79.5 326.5,-73.5 332.5,-73.5"/>
<text text-anchor="middle" x="359" y="-89.3" font-family="Arial" font-size="9.00">j_8 = j_3_t + &#45;1</text>
</g>
<!-- Node_15&#45;&gt;Node_16 -->
<g id="edge15" class="edge"><title>Node_15&#45;&gt;Node_16</title>
<path fill="none" stroke="tan" d="M353.695,-146.313C354.486,-138.289 355.446,-128.547 356.331,-119.569"/>
<polygon fill="tan" stroke="tan" points="359.823,-119.824 357.321,-109.529 352.857,-119.137 359.823,-119.824"/>
</g>
<!-- Node_17 -->
<g id="node18" class="node"><title>Node_17</title>
<path fill="moccasin" stroke="moccasin" d="M358.5,-0.5C358.5,-0.5 431.5,-0.5 431.5,-0.5 437.5,-0.5 443.5,-6.5 443.5,-12.5 443.5,-12.5 443.5,-24.5 443.5,-24.5 443.5,-30.5 437.5,-36.5 431.5,-36.5 431.5,-36.5 358.5,-36.5 358.5,-36.5 352.5,-36.5 346.5,-30.5 346.5,-24.5 346.5,-24.5 346.5,-12.5 346.5,-12.5 346.5,-6.5 352.5,-0.5 358.5,-0.5"/>
<text text-anchor="middle" x="395" y="-16.3" font-family="Arial" font-size="9.00">j_8: [&#45;Infinity, Infinity]</text>
</g>
<!-- Node_16&#45;&gt;Node_17 -->
<g id="edge9" class="edge"><title>Node_16&#45;&gt;Node_17</title>
<path fill="none" stroke="steelblue" d="M367.715,-73.3129C371.915,-65.0279 377.045,-54.9103 381.719,-45.6933"/>
<polygon fill="steelblue" stroke="steelblue" points="384.965,-47.0307 386.366,-36.5288 378.722,-43.865 384.965,-47.0307"/>
</g>
<!-- Node_17&#45;&gt;Node_4 -->
<g id="edge23" class="edge"><title>Node_17&#45;&gt;Node_4</title>
<path fill="none" stroke="tan" d="M402.488,-36.8645C413.299,-63.5586 432,-116.522 432,-163.5 432,-238.5 432,-238.5 432,-238.5 432,-279.791 427.219,-291.028 411,-329 406.923,-338.545 401.154,-348.256 395.474,-356.737"/>
<polygon fill="tan" stroke="tan" points="392.51,-354.868 389.66,-365.073 398.252,-358.873 392.51,-354.868"/>
</g>
<!-- Node_18 -->
<g id="node19" class="node"><title>Node_18</title>
<path fill="lightblue" stroke="lightblue" d="M246,-657.5C246,-657.5 292,-657.5 292,-657.5 298,-657.5 304,-663.5 304,-669.5 304,-669.5 304,-681.5 304,-681.5 304,-687.5 298,-693.5 292,-693.5 292,-693.5 246,-693.5 246,-693.5 240,-693.5 234,-687.5 234,-681.5 234,-681.5 234,-669.5 234,-669.5 234,-663.5 240,-657.5 246,-657.5"/>
<text text-anchor="middle" x="269" y="-673.3" font-family="Arial" font-size="9.00">if (k_1 &lt;= 99)</text>
</g>
<!-- Node_19 -->
<g id="node20" class="node"><title>Node_19</title>
<path fill="moccasin" stroke="moccasin" d="M250.5,-584.5C250.5,-584.5 309.5,-584.5 309.5,-584.5 315.5,-584.5 321.5,-590.5 321.5,-596.5 321.5,-596.5 321.5,-608.5 321.5,-608.5 321.5,-614.5 315.5,-620.5 309.5,-620.5 309.5,-620.5 250.5,-620.5 250.5,-620.5 244.5,-620.5 238.5,-614.5 238.5,-608.5 238.5,-608.5 238.5,-596.5 238.5,-596.5 238.5,-590.5 244.5,-584.5 250.5,-584.5"/>
<text text-anchor="middle" x="280" y="-600.3" font-family="Arial" font-size="9.00">k_1_t: [0.0, 99.0]</text>
</g>
<!-- Node_18&#45;&gt;Node_19 -->
<g id="edge10" class="edge"><title>Node_18&#45;&gt;Node_19</title>
<path fill="none" stroke="steelblue" d="M271.663,-657.313C272.906,-649.289 274.415,-639.547 275.806,-630.569"/>
<polygon fill="steelblue" stroke="steelblue" points="279.289,-630.947 277.362,-620.529 272.372,-629.875 279.289,-630.947"/>
</g>
<!-- Node_19&#45;&gt;Node_8 -->
<g id="edge18" class="edge"><title>Node_19&#45;&gt;Node_8</title>
<path fill="none" stroke="tan" d="M302.513,-584.313C314.507,-575.156 329.434,-563.76 342.46,-553.816"/>
<polygon fill="tan" stroke="tan" points="344.87,-556.379 350.695,-547.529 340.622,-550.815 344.87,-556.379"/>
</g>
<!-- Node_22 -->
<g id="node23" class="node"><title>Node_22</title>
<path fill="lightblue" stroke="lightblue" d="M252.5,-511.5C252.5,-511.5 307.5,-511.5 307.5,-511.5 313.5,-511.5 319.5,-517.5 319.5,-523.5 319.5,-523.5 319.5,-535.5 319.5,-535.5 319.5,-541.5 313.5,-547.5 307.5,-547.5 307.5,-547.5 252.5,-547.5 252.5,-547.5 246.5,-547.5 240.5,-541.5 240.5,-535.5 240.5,-535.5 240.5,-523.5 240.5,-523.5 240.5,-517.5 246.5,-511.5 252.5,-511.5"/>
<text text-anchor="middle" x="280" y="-527.3" font-family="Arial" font-size="9.00">k_9 = k_1_t + 1</text>
</g>
<!-- Node_19&#45;&gt;Node_22 -->
<g id="edge17" class="edge"><title>Node_19&#45;&gt;Node_22</title>
<path fill="none" stroke="tan" d="M280,-584.313C280,-576.289 280,-566.547 280,-557.569"/>
<polygon fill="tan" stroke="tan" points="283.5,-557.529 280,-547.529 276.5,-557.529 283.5,-557.529"/>
</g>
<!-- Node_21 -->
<g id="node22" class="node"><title>Node_21</title>
<path fill="moccasin" stroke="moccasin" d="M508.5,-219.5C508.5,-219.5 565.5,-219.5 565.5,-219.5 571.5,-219.5 577.5,-225.5 577.5,-231.5 577.5,-231.5 577.5,-243.5 577.5,-243.5 577.5,-249.5 571.5,-255.5 565.5,-255.5 565.5,-255.5 508.5,-255.5 508.5,-255.5 502.5,-255.5 496.5,-249.5 496.5,-243.5 496.5,-243.5 496.5,-231.5 496.5,-231.5 496.5,-225.5 502.5,-219.5 508.5,-219.5"/>
<text text-anchor="middle" x="537" y="-235.3" font-family="Arial" font-size="9.00">i_7: [1.0, Infinity]</text>
</g>
<!-- Node_20&#45;&gt;Node_21 -->
<g id="edge11" class="edge"><title>Node_20&#45;&gt;Node_21</title>
<path fill="none" stroke="steelblue" d="M521.841,-292.313C524.126,-284.202 526.905,-274.336 529.457,-265.277"/>
<polygon fill="steelblue" stroke="steelblue" points="532.861,-266.103 532.203,-255.529 526.123,-264.205 532.861,-266.103"/>
</g>
<!-- Node_21&#45;&gt;Node_2 -->
<g id="edge20" class="edge"><title>Node_21&#45;&gt;Node_2</title>
<path fill="none" stroke="tan" d="M546.916,-255.593C561.234,-281.932 586,-334.438 586,-382.5 586,-457.5 586,-457.5 586,-457.5 586,-499.138 572.369,-545.779 562.369,-574.394"/>
<polygon fill="tan" stroke="tan" points="558.976,-573.484 558.88,-584.079 565.562,-575.856 558.976,-573.484"/>
</g>
<!-- Node_23 -->
<g id="node24" class="node"><title>Node_23</title>
<path fill="moccasin" stroke="moccasin" d="M251.5,-438.5C251.5,-438.5 308.5,-438.5 308.5,-438.5 314.5,-438.5 320.5,-444.5 320.5,-450.5 320.5,-450.5 320.5,-462.5 320.5,-462.5 320.5,-468.5 314.5,-474.5 308.5,-474.5 308.5,-474.5 251.5,-474.5 251.5,-474.5 245.5,-474.5 239.5,-468.5 239.5,-462.5 239.5,-462.5 239.5,-450.5 239.5,-450.5 239.5,-444.5 245.5,-438.5 251.5,-438.5"/>
<text text-anchor="middle" x="280" y="-454.3" font-family="Arial" font-size="9.00">k_9: [1.0, 100.0]</text>
</g>
<!-- Node_22&#45;&gt;Node_23 -->
<g id="edge12" class="edge"><title>Node_22&#45;&gt;Node_23</title>
<path fill="none" stroke="steelblue" d="M280,-511.313C280,-503.289 280,-493.547 280,-484.569"/>
<polygon fill="steelblue" stroke="steelblue" points="283.5,-484.529 280,-474.529 276.5,-484.529 283.5,-484.529"/>
</g>
<!-- Node_23&#45;&gt;Node_24 -->
<g id="edge24" class="edge"><title>Node_23&#45;&gt;Node_24</title>
<path fill="none" stroke="tan" d="M239.364,-441.203C236.198,-440.112 233.048,-439.034 230,-438 196.912,-426.781 159.923,-414.61 129.555,-404.716"/>
<polygon fill="tan" stroke="tan" points="130.534,-401.353 119.941,-401.587 128.367,-408.01 130.534,-401.353"/>
</g>
<!-- Node_25 -->
<g id="node26" class="node"><title>Node_25</title>
<path fill="moccasin" stroke="moccasin" d="M142.5,-730.5C142.5,-730.5 199.5,-730.5 199.5,-730.5 205.5,-730.5 211.5,-736.5 211.5,-742.5 211.5,-742.5 211.5,-754.5 211.5,-754.5 211.5,-760.5 205.5,-766.5 199.5,-766.5 199.5,-766.5 142.5,-766.5 142.5,-766.5 136.5,-766.5 130.5,-760.5 130.5,-754.5 130.5,-754.5 130.5,-742.5 130.5,-742.5 130.5,-736.5 136.5,-730.5 142.5,-730.5"/>
<text text-anchor="middle" x="171" y="-746.3" font-family="Arial" font-size="9.00">k_1: [0.0, 100.0]</text>
</g>
<!-- Node_24&#45;&gt;Node_25 -->
<g id="edge13" class="edge"><title>Node_24&#45;&gt;Node_25</title>
<path fill="none" stroke="steelblue" d="M48.7007,-401.711C39.3523,-411.494 28.5885,-424.469 22,-438 4.00763,-474.951 3,-487.401 3,-528.5 3,-603.5 3,-603.5 3,-603.5 3,-666.295 71.498,-707.609 121.017,-729.271"/>
<polygon fill="steelblue" stroke="steelblue" points="119.759,-732.539 130.332,-733.216 122.488,-726.093 119.759,-732.539"/>
</g>
<!-- Node_25&#45;&gt;Node_18 -->
<g id="edge25" class="edge"><title>Node_25&#45;&gt;Node_18</title>
<path fill="none" stroke="tan" d="M194.723,-730.313C207.483,-721.069 223.392,-709.543 237.209,-699.532"/>
<polygon fill="tan" stroke="tan" points="239.451,-702.23 245.495,-693.529 235.344,-696.562 239.451,-702.23"/>
</g>
<!-- Node_26 -->
<g id="node27" class="node"><title>Node_26</title>
<path fill="lightblue" stroke="lightblue" d="M150.5,-657.5C150.5,-657.5 191.5,-657.5 191.5,-657.5 197.5,-657.5 203.5,-663.5 203.5,-669.5 203.5,-669.5 203.5,-681.5 203.5,-681.5 203.5,-687.5 197.5,-693.5 191.5,-693.5 191.5,-693.5 150.5,-693.5 150.5,-693.5 144.5,-693.5 138.5,-687.5 138.5,-681.5 138.5,-681.5 138.5,-669.5 138.5,-669.5 138.5,-663.5 144.5,-657.5 150.5,-657.5"/>
<text text-anchor="middle" x="171" y="-673.3" font-family="Arial" font-size="9.00">if (k_1 &gt; 99)</text>
</g>
<!-- Node_25&#45;&gt;Node_26 -->
<g id="edge26" class="edge"><title>Node_25&#45;&gt;Node_26</title>
<path fill="none" stroke="tan" d="M171,-730.313C171,-722.289 171,-712.547 171,-703.569"/>
<polygon fill="tan" stroke="tan" points="174.5,-703.529 171,-693.529 167.5,-703.529 174.5,-703.529"/>
</g>
<!-- Node_27 -->
<g id="node28" class="node"><title>Node_27</title>
<path fill="moccasin" stroke="moccasin" d="M133.5,-584.5C133.5,-584.5 208.5,-584.5 208.5,-584.5 214.5,-584.5 220.5,-590.5 220.5,-596.5 220.5,-596.5 220.5,-608.5 220.5,-608.5 220.5,-614.5 214.5,-620.5 208.5,-620.5 208.5,-620.5 133.5,-620.5 133.5,-620.5 127.5,-620.5 121.5,-614.5 121.5,-608.5 121.5,-608.5 121.5,-596.5 121.5,-596.5 121.5,-590.5 127.5,-584.5 133.5,-584.5"/>
<text text-anchor="middle" x="171" y="-600.3" font-family="Arial" font-size="9.00">k_1_f: [100.0, 100.0]</text>
</g>
<!-- Node_26&#45;&gt;Node_27 -->
<g id="edge14" class="edge"><title>Node_26&#45;&gt;Node_27</title>
<path fill="none" stroke="steelblue" d="M171,-657.313C171,-649.289 171,-639.547 171,-630.569"/>
<polygon fill="steelblue" stroke="steelblue" points="174.5,-630.529 171,-620.529 167.5,-630.529 174.5,-630.529"/>
</g>
<!-- Node_27&#45;&gt;Node_0 -->
<g id="edge22" class="edge"><title>Node_27&#45;&gt;Node_0</title>
<path fill="none" stroke="tan" d="M171,-584.313C171,-576.289 171,-566.547 171,-557.569"/>
<polygon fill="tan" stroke="tan" points="174.5,-557.529 171,-547.529 167.5,-557.529 174.5,-557.529"/>
</g>
</g>
</svg>
