<?xml version="1.0" encoding="UTF-8" standalone="no"?>
<!DOCTYPE svg PUBLIC "-//W3C//DTD SVG 1.1//EN"
 "http://www.w3.org/Graphics/SVG/1.1/DTD/svg11.dtd">
<!-- Generated by graphviz version 2.38.0 (20140413.2041)
 -->
<!-- Title: t1_foo_ConstraintGraph Pages: 1 -->
<svg width="573pt" height="650pt"
     viewBox="0.00 0.00 573.00 650.00" xmlns="http://www.w3.org/2000/svg">
<g id="graph0" class="graph" transform="scale(1 1) rotate(0) translate(4 646)">
<title>t1_foo_ConstraintGraph</title>
<polygon fill="white" stroke="none" points="-4,4 -4,-646 569,-646 569,4 -4,4"/>
<text text-anchor="middle" x="282.5" y="-628.4" font-family="Arial" font-size="12.00">t1_foo_ConstraintGraph</text>
<!-- Node_0 -->
<g id="node1" class="node"><title>Node_0</title>
<path fill="lightblue" stroke="lightblue" d="M12,-511.5C12,-511.5 65,-511.5 65,-511.5 71,-511.5 77,-517.5 77,-523.5 77,-523.5 77,-535.5 77,-535.5 77,-541.5 71,-547.5 65,-547.5 65,-547.5 12,-547.5 12,-547.5 6,-547.5 0,-541.5 0,-535.5 0,-535.5 0,-523.5 0,-523.5 0,-517.5 6,-511.5 12,-511.5"/>
<text text-anchor="middle" x="38.5" y="-527.3" font-family="Arial" font-size="9.00">j_8 = j_3_t + &#45;1</text>
</g>
<!-- Node_1 -->
<g id="node2" class="node"><title>Node_1</title>
<path fill="moccasin" stroke="moccasin" d="M51,-438.5C51,-438.5 92,-438.5 92,-438.5 98,-438.5 104,-444.5 104,-450.5 104,-450.5 104,-462.5 104,-462.5 104,-468.5 98,-474.5 92,-474.5 92,-474.5 51,-474.5 51,-474.5 45,-474.5 39,-468.5 39,-462.5 39,-462.5 39,-450.5 39,-450.5 39,-444.5 45,-438.5 51,-438.5"/>
<text text-anchor="middle" x="71.5" y="-454.3" font-family="Arial" font-size="9.00">j_8: [&#45;inf, inf]</text>
</g>
<!-- Node_0&#45;&gt;Node_1 -->
<g id="edge1" class="edge"><title>Node_0&#45;&gt;Node_1</title>
<path fill="none" stroke="steelblue" d="M46.4884,-511.313C50.3392,-503.028 55.0417,-492.91 59.3256,-483.693"/>
<polygon fill="steelblue" stroke="steelblue" points="62.5442,-485.072 63.5852,-474.529 56.1963,-482.122 62.5442,-485.072"/>
</g>
<!-- Node_2 -->
<g id="node3" class="node"><title>Node_2</title>
<path fill="lightblue" stroke="lightblue" d="M51,-365.5C51,-365.5 154,-365.5 154,-365.5 160,-365.5 166,-371.5 166,-377.5 166,-377.5 166,-389.5 166,-389.5 166,-395.5 160,-401.5 154,-401.5 154,-401.5 51,-401.5 51,-401.5 45,-401.5 39,-395.5 39,-389.5 39,-389.5 39,-377.5 39,-377.5 39,-371.5 45,-365.5 51,-365.5"/>
<text text-anchor="middle" x="102.5" y="-381.3" font-family="Arial" font-size="9.00"># j_3 = PHI &lt;j_6(3), j_8(4)&gt;</text>
</g>
<!-- Node_1&#45;&gt;Node_2 -->
<g id="edge22" class="edge"><title>Node_1&#45;&gt;Node_2</title>
<path fill="none" stroke="tan" d="M79.0042,-438.313C82.5836,-430.115 86.9462,-420.123 90.9363,-410.985"/>
<polygon fill="tan" stroke="tan" points="94.271,-412.094 95.0649,-401.529 87.8558,-409.293 94.271,-412.094"/>
</g>
<!-- Node_3 -->
<g id="node4" class="node"><title>Node_3</title>
<path fill="moccasin" stroke="moccasin" d="M66,-292.5C66,-292.5 107,-292.5 107,-292.5 113,-292.5 119,-298.5 119,-304.5 119,-304.5 119,-316.5 119,-316.5 119,-322.5 113,-328.5 107,-328.5 107,-328.5 66,-328.5 66,-328.5 60,-328.5 54,-322.5 54,-316.5 54,-316.5 54,-304.5 54,-304.5 54,-298.5 60,-292.5 66,-292.5"/>
<text text-anchor="middle" x="86.5" y="-308.3" font-family="Arial" font-size="9.00">j_3: [&#45;inf, inf]</text>
</g>
<!-- Node_2&#45;&gt;Node_3 -->
<g id="edge2" class="edge"><title>Node_2&#45;&gt;Node_3</title>
<path fill="none" stroke="steelblue" d="M98.6268,-365.313C96.8188,-357.289 94.6234,-347.547 92.6001,-338.569"/>
<polygon fill="steelblue" stroke="steelblue" points="95.9503,-337.515 90.3375,-328.529 89.1216,-339.054 95.9503,-337.515"/>
</g>
<!-- Node_26 -->
<g id="node27" class="node"><title>Node_26</title>
<path fill="lightblue" stroke="lightblue" d="M58,-219.5C58,-219.5 99,-219.5 99,-219.5 105,-219.5 111,-225.5 111,-231.5 111,-231.5 111,-243.5 111,-243.5 111,-249.5 105,-255.5 99,-255.5 99,-255.5 58,-255.5 58,-255.5 52,-255.5 46,-249.5 46,-243.5 46,-243.5 46,-231.5 46,-231.5 46,-225.5 52,-219.5 58,-219.5"/>
<text text-anchor="middle" x="78.5" y="-235.3" font-family="Arial" font-size="9.00">if (i_2 &lt; j_3)</text>
</g>
<!-- Node_3&#45;&gt;Node_26 -->
<g id="edge25" class="edge"><title>Node_3&#45;&gt;Node_26</title>
<path fill="none" stroke="tan" d="M84.5634,-292.313C83.6594,-284.289 82.5617,-274.547 81.55,-265.569"/>
<polygon fill="tan" stroke="tan" points="85.0165,-265.074 80.4187,-255.529 78.0605,-265.858 85.0165,-265.074"/>
</g>
<!-- Node_4 -->
<g id="node5" class="node"><title>Node_4</title>
<path fill="lightblue" stroke="lightblue" d="M136.5,-511.5C136.5,-511.5 174.5,-511.5 174.5,-511.5 180.5,-511.5 186.5,-517.5 186.5,-523.5 186.5,-523.5 186.5,-535.5 186.5,-535.5 186.5,-541.5 180.5,-547.5 174.5,-547.5 174.5,-547.5 136.5,-547.5 136.5,-547.5 130.5,-547.5 124.5,-541.5 124.5,-535.5 124.5,-535.5 124.5,-523.5 124.5,-523.5 124.5,-517.5 130.5,-511.5 136.5,-511.5"/>
<text text-anchor="middle" x="155.5" y="-527.3" font-family="Arial" font-size="9.00">j_6 = k_1_t</text>
</g>
<!-- Node_5 -->
<g id="node6" class="node"><title>Node_5</title>
<path fill="moccasin" stroke="moccasin" d="M134,-438.5C134,-438.5 175,-438.5 175,-438.5 181,-438.5 187,-444.5 187,-450.5 187,-450.5 187,-462.5 187,-462.5 187,-468.5 181,-474.5 175,-474.5 175,-474.5 134,-474.5 134,-474.5 128,-474.5 122,-468.5 122,-462.5 122,-462.5 122,-450.5 122,-450.5 122,-444.5 128,-438.5 134,-438.5"/>
<text text-anchor="middle" x="154.5" y="-454.3" font-family="Arial" font-size="9.00">j_6: [&#45;inf, inf]</text>
</g>
<!-- Node_4&#45;&gt;Node_5 -->
<g id="edge3" class="edge"><title>Node_4&#45;&gt;Node_5</title>
<path fill="none" stroke="steelblue" d="M155.258,-511.313C155.145,-503.289 155.008,-493.547 154.881,-484.569"/>
<polygon fill="steelblue" stroke="steelblue" points="158.38,-484.479 154.74,-474.529 151.381,-484.577 158.38,-484.479"/>
</g>
<!-- Node_5&#45;&gt;Node_2 -->
<g id="edge19" class="edge"><title>Node_5&#45;&gt;Node_2</title>
<path fill="none" stroke="tan" d="M141.912,-438.313C135.653,-429.766 127.965,-419.269 121.046,-409.823"/>
<polygon fill="tan" stroke="tan" points="123.704,-407.528 114.972,-401.529 118.057,-411.665 123.704,-407.528"/>
</g>
<!-- Node_6 -->
<g id="node7" class="node"><title>Node_6</title>
<path fill="lightblue" stroke="lightblue" d="M486.5,-584.5C486.5,-584.5 516.5,-584.5 516.5,-584.5 522.5,-584.5 528.5,-590.5 528.5,-596.5 528.5,-596.5 528.5,-608.5 528.5,-608.5 528.5,-614.5 522.5,-620.5 516.5,-620.5 516.5,-620.5 486.5,-620.5 486.5,-620.5 480.5,-620.5 474.5,-614.5 474.5,-608.5 474.5,-608.5 474.5,-596.5 474.5,-596.5 474.5,-590.5 480.5,-584.5 486.5,-584.5"/>
<text text-anchor="middle" x="501.5" y="-600.3" font-family="Arial" font-size="9.00">i_5 = 0</text>
</g>
<!-- Node_7 -->
<g id="node8" class="node"><title>Node_7</title>
<path fill="moccasin" stroke="moccasin" d="M481,-511.5C481,-511.5 522,-511.5 522,-511.5 528,-511.5 534,-517.5 534,-523.5 534,-523.5 534,-535.5 534,-535.5 534,-541.5 528,-547.5 522,-547.5 522,-547.5 481,-547.5 481,-547.5 475,-547.5 469,-541.5 469,-535.5 469,-535.5 469,-523.5 469,-523.5 469,-517.5 475,-511.5 481,-511.5"/>
<text text-anchor="middle" x="501.5" y="-527.3" font-family="Arial" font-size="9.00">i_5: [&#45;inf, inf]</text>
</g>
<!-- Node_6&#45;&gt;Node_7 -->
<g id="edge4" class="edge"><title>Node_6&#45;&gt;Node_7</title>
<path fill="none" stroke="steelblue" d="M501.5,-584.313C501.5,-576.289 501.5,-566.547 501.5,-557.569"/>
<polygon fill="steelblue" stroke="steelblue" points="505,-557.529 501.5,-547.529 498,-557.529 505,-557.529"/>
</g>
<!-- Node_8 -->
<g id="node9" class="node"><title>Node_8</title>
<path fill="lightblue" stroke="lightblue" d="M450,-438.5C450,-438.5 553,-438.5 553,-438.5 559,-438.5 565,-444.5 565,-450.5 565,-450.5 565,-462.5 565,-462.5 565,-468.5 559,-474.5 553,-474.5 553,-474.5 450,-474.5 450,-474.5 444,-474.5 438,-468.5 438,-462.5 438,-462.5 438,-450.5 438,-450.5 438,-444.5 444,-438.5 450,-438.5"/>
<text text-anchor="middle" x="501.5" y="-454.3" font-family="Arial" font-size="9.00"># i_2 = PHI &lt;i_5(3), i_7(4)&gt;</text>
</g>
<!-- Node_7&#45;&gt;Node_8 -->
<g id="edge26" class="edge"><title>Node_7&#45;&gt;Node_8</title>
<path fill="none" stroke="tan" d="M501.5,-511.313C501.5,-503.289 501.5,-493.547 501.5,-484.569"/>
<polygon fill="tan" stroke="tan" points="505,-484.529 501.5,-474.529 498,-484.529 505,-484.529"/>
</g>
<!-- Node_9 -->
<g id="node10" class="node"><title>Node_9</title>
<path fill="moccasin" stroke="moccasin" d="M436,-365.5C436,-365.5 477,-365.5 477,-365.5 483,-365.5 489,-371.5 489,-377.5 489,-377.5 489,-389.5 489,-389.5 489,-395.5 483,-401.5 477,-401.5 477,-401.5 436,-401.5 436,-401.5 430,-401.5 424,-395.5 424,-389.5 424,-389.5 424,-377.5 424,-377.5 424,-371.5 430,-365.5 436,-365.5"/>
<text text-anchor="middle" x="456.5" y="-381.3" font-family="Arial" font-size="9.00">i_2: [&#45;inf, inf]</text>
</g>
<!-- Node_8&#45;&gt;Node_9 -->
<g id="edge5" class="edge"><title>Node_8&#45;&gt;Node_9</title>
<path fill="none" stroke="steelblue" d="M490.607,-438.313C485.245,-429.853 478.673,-419.484 472.733,-410.112"/>
<polygon fill="steelblue" stroke="steelblue" points="475.603,-408.102 467.293,-401.529 469.69,-411.849 475.603,-408.102"/>
</g>
<!-- Node_18 -->
<g id="node19" class="node"><title>Node_18</title>
<path fill="lightblue" stroke="lightblue" d="M435,-292.5C435,-292.5 476,-292.5 476,-292.5 482,-292.5 488,-298.5 488,-304.5 488,-304.5 488,-316.5 488,-316.5 488,-322.5 482,-328.5 476,-328.5 476,-328.5 435,-328.5 435,-328.5 429,-328.5 423,-322.5 423,-316.5 423,-316.5 423,-304.5 423,-304.5 423,-298.5 429,-292.5 435,-292.5"/>
<text text-anchor="middle" x="455.5" y="-308.3" font-family="Arial" font-size="9.00">if (i_2 &lt; j_3)</text>
</g>
<!-- Node_9&#45;&gt;Node_18 -->
<g id="edge24" class="edge"><title>Node_9&#45;&gt;Node_18</title>
<path fill="none" stroke="tan" d="M456.258,-365.313C456.145,-357.289 456.008,-347.547 455.881,-338.569"/>
<polygon fill="tan" stroke="tan" points="459.38,-338.479 455.74,-328.529 452.381,-338.577 459.38,-338.479"/>
</g>
<!-- Node_10 -->
<g id="node11" class="node"><title>Node_10</title>
<path fill="lightblue" stroke="lightblue" d="M195.5,-219.5C195.5,-219.5 241.5,-219.5 241.5,-219.5 247.5,-219.5 253.5,-225.5 253.5,-231.5 253.5,-231.5 253.5,-243.5 253.5,-243.5 253.5,-249.5 247.5,-255.5 241.5,-255.5 241.5,-255.5 195.5,-255.5 195.5,-255.5 189.5,-255.5 183.5,-249.5 183.5,-243.5 183.5,-243.5 183.5,-231.5 183.5,-231.5 183.5,-225.5 189.5,-219.5 195.5,-219.5"/>
<text text-anchor="middle" x="218.5" y="-235.3" font-family="Arial" font-size="9.00">if (k_1 &lt;= 99)</text>
</g>
<!-- Node_11 -->
<g id="node12" class="node"><title>Node_11</title>
<path fill="moccasin" stroke="moccasin" d="M190,-584.5C190,-584.5 241,-584.5 241,-584.5 247,-584.5 253,-590.5 253,-596.5 253,-596.5 253,-608.5 253,-608.5 253,-614.5 247,-620.5 241,-620.5 241,-620.5 190,-620.5 190,-620.5 184,-620.5 178,-614.5 178,-608.5 178,-608.5 178,-596.5 178,-596.5 178,-590.5 184,-584.5 190,-584.5"/>
<text text-anchor="middle" x="215.5" y="-600.3" font-family="Arial" font-size="9.00">k_1_t: [&#45;inf, inf]</text>
</g>
<!-- Node_10&#45;&gt;Node_11 -->
<g id="edge6" class="edge"><title>Node_10&#45;&gt;Node_11</title>
<path fill="none" stroke="steelblue" d="M217.907,-255.787C217.033,-282.818 215.5,-336.74 215.5,-382.5 215.5,-457.5 215.5,-457.5 215.5,-457.5 215.5,-498.067 215.5,-545.063 215.5,-574.039"/>
<polygon fill="steelblue" stroke="steelblue" points="212,-574.211 215.5,-584.211 219,-574.211 212,-574.211"/>
</g>
<!-- Node_11&#45;&gt;Node_4 -->
<g id="edge20" class="edge"><title>Node_11&#45;&gt;Node_4</title>
<path fill="none" stroke="tan" d="M200.976,-584.313C193.606,-575.592 184.52,-564.84 176.412,-555.246"/>
<polygon fill="tan" stroke="tan" points="179.018,-552.908 169.891,-547.529 173.672,-557.426 179.018,-552.908"/>
</g>
<!-- Node_24 -->
<g id="node25" class="node"><title>Node_24</title>
<path fill="lightblue" stroke="lightblue" d="M256,-511.5C256,-511.5 311,-511.5 311,-511.5 317,-511.5 323,-517.5 323,-523.5 323,-523.5 323,-535.5 323,-535.5 323,-541.5 317,-547.5 311,-547.5 311,-547.5 256,-547.5 256,-547.5 250,-547.5 244,-541.5 244,-535.5 244,-535.5 244,-523.5 244,-523.5 244,-517.5 250,-511.5 256,-511.5"/>
<text text-anchor="middle" x="283.5" y="-527.3" font-family="Arial" font-size="9.00">k_9 = k_1_t + 1</text>
</g>
<!-- Node_11&#45;&gt;Node_24 -->
<g id="edge21" class="edge"><title>Node_11&#45;&gt;Node_24</title>
<path fill="none" stroke="tan" d="M231.961,-584.313C240.397,-575.505 250.817,-564.625 260.075,-554.958"/>
<polygon fill="tan" stroke="tan" points="262.802,-557.172 267.191,-547.529 257.746,-552.33 262.802,-557.172"/>
</g>
<!-- Node_12 -->
<g id="node13" class="node"><title>Node_12</title>
<path fill="lightblue" stroke="lightblue" d="M255.5,-365.5C255.5,-365.5 365.5,-365.5 365.5,-365.5 371.5,-365.5 377.5,-371.5 377.5,-377.5 377.5,-377.5 377.5,-389.5 377.5,-389.5 377.5,-395.5 371.5,-401.5 365.5,-401.5 365.5,-401.5 255.5,-401.5 255.5,-401.5 249.5,-401.5 243.5,-395.5 243.5,-389.5 243.5,-389.5 243.5,-377.5 243.5,-377.5 243.5,-371.5 249.5,-365.5 255.5,-365.5"/>
<text text-anchor="middle" x="310.5" y="-381.3" font-family="Arial" font-size="9.00"># k_1 = PHI &lt;k_4(2), k_9(6)&gt;</text>
</g>
<!-- Node_13 -->
<g id="node14" class="node"><title>Node_13</title>
<path fill="moccasin" stroke="moccasin" d="M284.5,-292.5C284.5,-292.5 328.5,-292.5 328.5,-292.5 334.5,-292.5 340.5,-298.5 340.5,-304.5 340.5,-304.5 340.5,-316.5 340.5,-316.5 340.5,-322.5 334.5,-328.5 328.5,-328.5 328.5,-328.5 284.5,-328.5 284.5,-328.5 278.5,-328.5 272.5,-322.5 272.5,-316.5 272.5,-316.5 272.5,-304.5 272.5,-304.5 272.5,-298.5 278.5,-292.5 284.5,-292.5"/>
<text text-anchor="middle" x="306.5" y="-308.3" font-family="Arial" font-size="9.00">k_1: [&#45;inf, inf]</text>
</g>
<!-- Node_12&#45;&gt;Node_13 -->
<g id="edge7" class="edge"><title>Node_12&#45;&gt;Node_13</title>
<path fill="none" stroke="steelblue" d="M309.532,-365.313C309.08,-357.289 308.531,-347.547 308.025,-338.569"/>
<polygon fill="steelblue" stroke="steelblue" points="311.516,-338.316 307.459,-328.529 304.527,-338.71 311.516,-338.316"/>
</g>
<!-- Node_13&#45;&gt;Node_10 -->
<g id="edge16" class="edge"><title>Node_13&#45;&gt;Node_10</title>
<path fill="none" stroke="tan" d="M285.198,-292.313C273.848,-283.156 259.724,-271.76 247.399,-261.816"/>
<polygon fill="tan" stroke="tan" points="249.587,-259.084 239.606,-255.529 245.191,-264.532 249.587,-259.084"/>
</g>
<!-- Node_22 -->
<g id="node23" class="node"><title>Node_22</title>
<path fill="lightblue" stroke="lightblue" d="M286,-219.5C286,-219.5 327,-219.5 327,-219.5 333,-219.5 339,-225.5 339,-231.5 339,-231.5 339,-243.5 339,-243.5 339,-249.5 333,-255.5 327,-255.5 327,-255.5 286,-255.5 286,-255.5 280,-255.5 274,-249.5 274,-243.5 274,-243.5 274,-231.5 274,-231.5 274,-225.5 280,-219.5 286,-219.5"/>
<text text-anchor="middle" x="306.5" y="-235.3" font-family="Arial" font-size="9.00">if (k_1 &gt; 99)</text>
</g>
<!-- Node_13&#45;&gt;Node_22 -->
<g id="edge15" class="edge"><title>Node_13&#45;&gt;Node_22</title>
<path fill="none" stroke="tan" d="M306.5,-292.313C306.5,-284.289 306.5,-274.547 306.5,-265.569"/>
<polygon fill="tan" stroke="tan" points="310,-265.529 306.5,-255.529 303,-265.529 310,-265.529"/>
</g>
<!-- Node_14 -->
<g id="node15" class="node"><title>Node_14</title>
<path fill="lightblue" stroke="lightblue" d="M286,-73.5C286,-73.5 327,-73.5 327,-73.5 333,-73.5 339,-79.5 339,-85.5 339,-85.5 339,-97.5 339,-97.5 339,-103.5 333,-109.5 327,-109.5 327,-109.5 286,-109.5 286,-109.5 280,-109.5 274,-103.5 274,-97.5 274,-97.5 274,-85.5 274,-85.5 274,-79.5 280,-73.5 286,-73.5"/>
<text text-anchor="middle" x="306.5" y="-89.3" font-family="Arial" font-size="9.00">_10 = k_1_f</text>
</g>
<!-- Node_15 -->
<g id="node16" class="node"><title>Node_15</title>
<path fill="moccasin" stroke="moccasin" d="M284.5,-0.5C284.5,-0.5 328.5,-0.5 328.5,-0.5 334.5,-0.5 340.5,-6.5 340.5,-12.5 340.5,-12.5 340.5,-24.5 340.5,-24.5 340.5,-30.5 334.5,-36.5 328.5,-36.5 328.5,-36.5 284.5,-36.5 284.5,-36.5 278.5,-36.5 272.5,-30.5 272.5,-24.5 272.5,-24.5 272.5,-12.5 272.5,-12.5 272.5,-6.5 278.5,-0.5 284.5,-0.5"/>
<text text-anchor="middle" x="306.5" y="-16.3" font-family="Arial" font-size="9.00">_10: [&#45;inf, inf]</text>
</g>
<!-- Node_14&#45;&gt;Node_15 -->
<g id="edge8" class="edge"><title>Node_14&#45;&gt;Node_15</title>
<path fill="none" stroke="steelblue" d="M306.5,-73.3129C306.5,-65.2895 306.5,-55.5475 306.5,-46.5691"/>
<polygon fill="steelblue" stroke="steelblue" points="310,-46.5288 306.5,-36.5288 303,-46.5289 310,-46.5288"/>
</g>
<!-- Node_16 -->
<g id="node17" class="node"><title>Node_16</title>
<path fill="lightblue" stroke="lightblue" d="M428.5,-146.5C428.5,-146.5 478.5,-146.5 478.5,-146.5 484.5,-146.5 490.5,-152.5 490.5,-158.5 490.5,-158.5 490.5,-170.5 490.5,-170.5 490.5,-176.5 484.5,-182.5 478.5,-182.5 478.5,-182.5 428.5,-182.5 428.5,-182.5 422.5,-182.5 416.5,-176.5 416.5,-170.5 416.5,-170.5 416.5,-158.5 416.5,-158.5 416.5,-152.5 422.5,-146.5 428.5,-146.5"/>
<text text-anchor="middle" x="453.5" y="-162.3" font-family="Arial" font-size="9.00">i_7 = i_2_t + 1</text>
</g>
<!-- Node_17 -->
<g id="node18" class="node"><title>Node_17</title>
<path fill="moccasin" stroke="moccasin" d="M465,-73.5C465,-73.5 506,-73.5 506,-73.5 512,-73.5 518,-79.5 518,-85.5 518,-85.5 518,-97.5 518,-97.5 518,-103.5 512,-109.5 506,-109.5 506,-109.5 465,-109.5 465,-109.5 459,-109.5 453,-103.5 453,-97.5 453,-97.5 453,-85.5 453,-85.5 453,-79.5 459,-73.5 465,-73.5"/>
<text text-anchor="middle" x="485.5" y="-89.3" font-family="Arial" font-size="9.00">i_7: [&#45;inf, inf]</text>
</g>
<!-- Node_16&#45;&gt;Node_17 -->
<g id="edge9" class="edge"><title>Node_16&#45;&gt;Node_17</title>
<path fill="none" stroke="steelblue" d="M461.246,-146.313C464.98,-138.028 469.54,-127.91 473.695,-118.693"/>
<polygon fill="steelblue" stroke="steelblue" points="476.907,-120.084 477.825,-109.529 470.525,-117.207 476.907,-120.084"/>
</g>
<!-- Node_17&#45;&gt;Node_8 -->
<g id="edge29" class="edge"><title>Node_17&#45;&gt;Node_8</title>
<path fill="none" stroke="tan" d="M492.02,-109.5C501.637,-136.148 518.5,-189.564 518.5,-236.5 518.5,-311.5 518.5,-311.5 518.5,-311.5 518.5,-352.349 511.67,-399.27 506.668,-428.152"/>
<polygon fill="tan" stroke="tan" points="503.17,-427.829 504.859,-438.288 510.062,-429.059 503.17,-427.829"/>
</g>
<!-- Node_19 -->
<g id="node20" class="node"><title>Node_19</title>
<path fill="moccasin" stroke="moccasin" d="M429,-219.5C429,-219.5 478,-219.5 478,-219.5 484,-219.5 490,-225.5 490,-231.5 490,-231.5 490,-243.5 490,-243.5 490,-249.5 484,-255.5 478,-255.5 478,-255.5 429,-255.5 429,-255.5 423,-255.5 417,-249.5 417,-243.5 417,-243.5 417,-231.5 417,-231.5 417,-225.5 423,-219.5 429,-219.5"/>
<text text-anchor="middle" x="453.5" y="-235.3" font-family="Arial" font-size="9.00">i_2_t: [&#45;inf, inf]</text>
</g>
<!-- Node_18&#45;&gt;Node_19 -->
<g id="edge10" class="edge"><title>Node_18&#45;&gt;Node_19</title>
<path fill="none" stroke="steelblue" d="M455.016,-292.313C454.79,-284.289 454.515,-274.547 454.263,-265.569"/>
<polygon fill="steelblue" stroke="steelblue" points="457.76,-265.426 453.98,-255.529 450.763,-265.623 457.76,-265.426"/>
</g>
<!-- Node_19&#45;&gt;Node_16 -->
<g id="edge17" class="edge"><title>Node_19&#45;&gt;Node_16</title>
<path fill="none" stroke="tan" d="M453.5,-219.313C453.5,-211.289 453.5,-201.547 453.5,-192.569"/>
<polygon fill="tan" stroke="tan" points="457,-192.529 453.5,-182.529 450,-192.529 457,-192.529"/>
</g>
<!-- Node_20 -->
<g id="node21" class="node"><title>Node_20</title>
<path fill="lightblue" stroke="lightblue" d="M354.5,-511.5C354.5,-511.5 384.5,-511.5 384.5,-511.5 390.5,-511.5 396.5,-517.5 396.5,-523.5 396.5,-523.5 396.5,-535.5 396.5,-535.5 396.5,-541.5 390.5,-547.5 384.5,-547.5 384.5,-547.5 354.5,-547.5 354.5,-547.5 348.5,-547.5 342.5,-541.5 342.5,-535.5 342.5,-535.5 342.5,-523.5 342.5,-523.5 342.5,-517.5 348.5,-511.5 354.5,-511.5"/>
<text text-anchor="middle" x="369.5" y="-527.3" font-family="Arial" font-size="9.00">k_4 = 0</text>
</g>
<!-- Node_21 -->
<g id="node22" class="node"><title>Node_21</title>
<path fill="moccasin" stroke="moccasin" d="M347.5,-438.5C347.5,-438.5 391.5,-438.5 391.5,-438.5 397.5,-438.5 403.5,-444.5 403.5,-450.5 403.5,-450.5 403.5,-462.5 403.5,-462.5 403.5,-468.5 397.5,-474.5 391.5,-474.5 391.5,-474.5 347.5,-474.5 347.5,-474.5 341.5,-474.5 335.5,-468.5 335.5,-462.5 335.5,-462.5 335.5,-450.5 335.5,-450.5 335.5,-444.5 341.5,-438.5 347.5,-438.5"/>
<text text-anchor="middle" x="369.5" y="-454.3" font-family="Arial" font-size="9.00">k_4: [&#45;inf, inf]</text>
</g>
<!-- Node_20&#45;&gt;Node_21 -->
<g id="edge11" class="edge"><title>Node_20&#45;&gt;Node_21</title>
<path fill="none" stroke="steelblue" d="M369.5,-511.313C369.5,-503.289 369.5,-493.547 369.5,-484.569"/>
<polygon fill="steelblue" stroke="steelblue" points="373,-484.529 369.5,-474.529 366,-484.529 373,-484.529"/>
</g>
<!-- Node_21&#45;&gt;Node_12 -->
<g id="edge18" class="edge"><title>Node_21&#45;&gt;Node_12</title>
<path fill="none" stroke="tan" d="M355.218,-438.313C347.971,-429.592 339.036,-418.84 331.064,-409.246"/>
<polygon fill="tan" stroke="tan" points="333.734,-406.983 324.651,-401.529 328.35,-411.457 333.734,-406.983"/>
</g>
<!-- Node_23 -->
<g id="node24" class="node"><title>Node_23</title>
<path fill="moccasin" stroke="moccasin" d="M281,-146.5C281,-146.5 332,-146.5 332,-146.5 338,-146.5 344,-152.5 344,-158.5 344,-158.5 344,-170.5 344,-170.5 344,-176.5 338,-182.5 332,-182.5 332,-182.5 281,-182.5 281,-182.5 275,-182.5 269,-176.5 269,-170.5 269,-170.5 269,-158.5 269,-158.5 269,-152.5 275,-146.5 281,-146.5"/>
<text text-anchor="middle" x="306.5" y="-162.3" font-family="Arial" font-size="9.00">k_1_f: [&#45;inf, inf]</text>
</g>
<!-- Node_22&#45;&gt;Node_23 -->
<g id="edge12" class="edge"><title>Node_22&#45;&gt;Node_23</title>
<path fill="none" stroke="steelblue" d="M306.5,-219.313C306.5,-211.289 306.5,-201.547 306.5,-192.569"/>
<polygon fill="steelblue" stroke="steelblue" points="310,-192.529 306.5,-182.529 303,-192.529 310,-192.529"/>
</g>
<!-- Node_23&#45;&gt;Node_14 -->
<g id="edge28" class="edge"><title>Node_23&#45;&gt;Node_14</title>
<path fill="none" stroke="tan" d="M306.5,-146.313C306.5,-138.289 306.5,-128.547 306.5,-119.569"/>
<polygon fill="tan" stroke="tan" points="310,-119.529 306.5,-109.529 303,-119.529 310,-119.529"/>
</g>
<!-- Node_25 -->
<g id="node26" class="node"><title>Node_25</title>
<path fill="moccasin" stroke="moccasin" d="M261.5,-438.5C261.5,-438.5 305.5,-438.5 305.5,-438.5 311.5,-438.5 317.5,-444.5 317.5,-450.5 317.5,-450.5 317.5,-462.5 317.5,-462.5 317.5,-468.5 311.5,-474.5 305.5,-474.5 305.5,-474.5 261.5,-474.5 261.5,-474.5 255.5,-474.5 249.5,-468.5 249.5,-462.5 249.5,-462.5 249.5,-450.5 249.5,-450.5 249.5,-444.5 255.5,-438.5 261.5,-438.5"/>
<text text-anchor="middle" x="283.5" y="-454.3" font-family="Arial" font-size="9.00">k_9: [&#45;inf, inf]</text>
</g>
<!-- Node_24&#45;&gt;Node_25 -->
<g id="edge13" class="edge"><title>Node_24&#45;&gt;Node_25</title>
<path fill="none" stroke="steelblue" d="M283.5,-511.313C283.5,-503.289 283.5,-493.547 283.5,-484.569"/>
<polygon fill="steelblue" stroke="steelblue" points="287,-484.529 283.5,-474.529 280,-484.529 287,-484.529"/>
</g>
<!-- Node_25&#45;&gt;Node_12 -->
<g id="edge23" class="edge"><title>Node_25&#45;&gt;Node_12</title>
<path fill="none" stroke="tan" d="M290.036,-438.313C293.153,-430.115 296.953,-420.123 300.428,-410.985"/>
<polygon fill="tan" stroke="tan" points="303.741,-412.12 304.024,-401.529 297.198,-409.632 303.741,-412.12"/>
</g>
<!-- Node_27 -->
<g id="node28" class="node"><title>Node_27</title>
<path fill="moccasin" stroke="moccasin" d="M20,-146.5C20,-146.5 69,-146.5 69,-146.5 75,-146.5 81,-152.5 81,-158.5 81,-158.5 81,-170.5 81,-170.5 81,-176.5 75,-182.5 69,-182.5 69,-182.5 20,-182.5 20,-182.5 14,-182.5 8,-176.5 8,-170.5 8,-170.5 8,-158.5 8,-158.5 8,-152.5 14,-146.5 20,-146.5"/>
<text text-anchor="middle" x="44.5" y="-162.3" font-family="Arial" font-size="9.00">j_3_t: [&#45;inf, inf]</text>
</g>
<!-- Node_26&#45;&gt;Node_27 -->
<g id="edge14" class="edge"><title>Node_26&#45;&gt;Node_27</title>
<path fill="none" stroke="steelblue" d="M70.2695,-219.313C66.3021,-211.028 61.4571,-200.91 57.0433,-191.693"/>
<polygon fill="steelblue" stroke="steelblue" points="60.1305,-190.036 52.6547,-182.529 53.817,-193.06 60.1305,-190.036"/>
</g>
<!-- Node_27&#45;&gt;Node_0 -->
<g id="edge27" class="edge"><title>Node_27&#45;&gt;Node_0</title>
<path fill="none" stroke="tan" d="M37.6196,-182.921C27.6847,-209.69 10.5,-262.749 10.5,-309.5 10.5,-384.5 10.5,-384.5 10.5,-384.5 10.5,-426.009 21.8493,-473.032 30.0967,-501.723"/>
<polygon fill="tan" stroke="tan" points="26.7727,-502.825 32.9681,-511.42 33.4847,-500.837 26.7727,-502.825"/>
</g>
</g>
</svg>
