<?xml version="1.0" encoding="UTF-8" standalone="no"?>
<!DOCTYPE svg PUBLIC "-//W3C//DTD SVG 1.1//EN"
 "http://www.w3.org/Graphics/SVG/1.1/DTD/svg11.dtd">
<!-- Generated by graphviz version 2.38.0 (20140413.2041)
 -->
<!-- Title: t1_foo_ConstraintGraph Pages: 1 -->
<svg width="501pt" height="1015pt"
     viewBox="0.00 0.00 501.00 1015.00" xmlns="http://www.w3.org/2000/svg">
<g id="graph0" class="graph" transform="scale(1 1) rotate(0) translate(4 1011)">
<title>t1_foo_ConstraintGraph</title>
<polygon fill="white" stroke="none" points="-4,4 -4,-1011 497,-1011 497,4 -4,4"/>
<text text-anchor="middle" x="246.5" y="-993.4" font-family="Arial" font-size="12.00">t1_foo_ConstraintGraph</text>
<!-- Node_0 -->
<g id="node1" class="node"><title>Node_0</title>
<path fill="lightblue" stroke="lightblue" d="M63,-949.5C63,-949.5 118,-949.5 118,-949.5 124,-949.5 130,-955.5 130,-961.5 130,-961.5 130,-973.5 130,-973.5 130,-979.5 124,-985.5 118,-985.5 118,-985.5 63,-985.5 63,-985.5 57,-985.5 51,-979.5 51,-973.5 51,-973.5 51,-961.5 51,-961.5 51,-955.5 57,-949.5 63,-949.5"/>
<text text-anchor="middle" x="90.5" y="-965.3" font-family="Arial" font-size="9.00">k_9 = k_1_t + 1</text>
</g>
<!-- Node_1 -->
<g id="node2" class="node"><title>Node_1</title>
<path fill="moccasin" stroke="moccasin" d="M92,-876.5C92,-876.5 167,-876.5 167,-876.5 173,-876.5 179,-882.5 179,-888.5 179,-888.5 179,-900.5 179,-900.5 179,-906.5 173,-912.5 167,-912.5 167,-912.5 92,-912.5 92,-912.5 86,-912.5 80,-906.5 80,-900.5 80,-900.5 80,-888.5 80,-888.5 80,-882.5 86,-876.5 92,-876.5"/>
<text text-anchor="middle" x="129.5" y="-892.3" font-family="Arial" font-size="9.00">k_9: [&#45;Infinity, Infinity]</text>
</g>
<!-- Node_0&#45;&gt;Node_1 -->
<g id="edge1" class="edge"><title>Node_0&#45;&gt;Node_1</title>
<path fill="none" stroke="steelblue" d="M99.9408,-949.313C104.54,-940.941 110.166,-930.697 115.272,-921.403"/>
<polygon fill="steelblue" stroke="steelblue" points="118.399,-922.979 120.146,-912.529 112.264,-919.609 118.399,-922.979"/>
</g>
<!-- Node_18 -->
<g id="node19" class="node"><title>Node_18</title>
<path fill="lightblue" stroke="lightblue" d="M118.5,-803.5C118.5,-803.5 228.5,-803.5 228.5,-803.5 234.5,-803.5 240.5,-809.5 240.5,-815.5 240.5,-815.5 240.5,-827.5 240.5,-827.5 240.5,-833.5 234.5,-839.5 228.5,-839.5 228.5,-839.5 118.5,-839.5 118.5,-839.5 112.5,-839.5 106.5,-833.5 106.5,-827.5 106.5,-827.5 106.5,-815.5 106.5,-815.5 106.5,-809.5 112.5,-803.5 118.5,-803.5"/>
<text text-anchor="middle" x="173.5" y="-819.3" font-family="Arial" font-size="9.00"># k_1 = PHI &lt;k_4(2), k_9(6)&gt;</text>
</g>
<!-- Node_1&#45;&gt;Node_18 -->
<g id="edge23" class="edge"><title>Node_1&#45;&gt;Node_18</title>
<path fill="none" stroke="tan" d="M140.151,-876.313C145.394,-867.853 151.82,-857.484 157.627,-848.112"/>
<polygon fill="tan" stroke="tan" points="160.654,-849.873 162.947,-839.529 154.704,-846.185 160.654,-849.873"/>
</g>
<!-- Node_2 -->
<g id="node3" class="node"><title>Node_2</title>
<path fill="lightblue" stroke="lightblue" d="M419,-949.5C419,-949.5 460,-949.5 460,-949.5 466,-949.5 472,-955.5 472,-961.5 472,-961.5 472,-973.5 472,-973.5 472,-979.5 466,-985.5 460,-985.5 460,-985.5 419,-985.5 419,-985.5 413,-985.5 407,-979.5 407,-973.5 407,-973.5 407,-961.5 407,-961.5 407,-955.5 413,-949.5 419,-949.5"/>
<text text-anchor="middle" x="439.5" y="-965.3" font-family="Arial" font-size="9.00">if (i_2 &lt; j_3)</text>
</g>
<!-- Node_3 -->
<g id="node4" class="node"><title>Node_3</title>
<path fill="moccasin" stroke="moccasin" d="M348.5,-876.5C348.5,-876.5 428.5,-876.5 428.5,-876.5 434.5,-876.5 440.5,-882.5 440.5,-888.5 440.5,-888.5 440.5,-900.5 440.5,-900.5 440.5,-906.5 434.5,-912.5 428.5,-912.5 428.5,-912.5 348.5,-912.5 348.5,-912.5 342.5,-912.5 336.5,-906.5 336.5,-900.5 336.5,-900.5 336.5,-888.5 336.5,-888.5 336.5,-882.5 342.5,-876.5 348.5,-876.5"/>
<text text-anchor="middle" x="388.5" y="-892.3" font-family="Arial" font-size="9.00">i_2_t: [&#45;Infinity, Infinity]</text>
</g>
<!-- Node_2&#45;&gt;Node_3 -->
<g id="edge2" class="edge"><title>Node_2&#45;&gt;Node_3</title>
<path fill="none" stroke="steelblue" d="M427.154,-949.313C421.015,-940.766 413.475,-930.269 406.69,-920.823"/>
<polygon fill="steelblue" stroke="steelblue" points="409.409,-918.609 400.732,-912.529 403.723,-922.693 409.409,-918.609"/>
</g>
<!-- Node_26 -->
<g id="node27" class="node"><title>Node_26</title>
<path fill="lightblue" stroke="lightblue" d="M283.5,-803.5C283.5,-803.5 333.5,-803.5 333.5,-803.5 339.5,-803.5 345.5,-809.5 345.5,-815.5 345.5,-815.5 345.5,-827.5 345.5,-827.5 345.5,-833.5 339.5,-839.5 333.5,-839.5 333.5,-839.5 283.5,-839.5 283.5,-839.5 277.5,-839.5 271.5,-833.5 271.5,-827.5 271.5,-827.5 271.5,-815.5 271.5,-815.5 271.5,-809.5 277.5,-803.5 283.5,-803.5"/>
<text text-anchor="middle" x="308.5" y="-819.3" font-family="Arial" font-size="9.00">i_7 = i_2_t + 1</text>
</g>
<!-- Node_3&#45;&gt;Node_26 -->
<g id="edge22" class="edge"><title>Node_3&#45;&gt;Node_26</title>
<path fill="none" stroke="tan" d="M369.134,-876.313C359.013,-867.33 346.464,-856.193 335.413,-846.386"/>
<polygon fill="tan" stroke="tan" points="337.49,-843.549 327.687,-839.529 332.843,-848.784 337.49,-843.549"/>
</g>
<!-- Node_4 -->
<g id="node5" class="node"><title>Node_4</title>
<path fill="lightblue" stroke="lightblue" d="M180,-657.5C180,-657.5 221,-657.5 221,-657.5 227,-657.5 233,-663.5 233,-669.5 233,-669.5 233,-681.5 233,-681.5 233,-687.5 227,-693.5 221,-693.5 221,-693.5 180,-693.5 180,-693.5 174,-693.5 168,-687.5 168,-681.5 168,-681.5 168,-669.5 168,-669.5 168,-663.5 174,-657.5 180,-657.5"/>
<text text-anchor="middle" x="200.5" y="-673.3" font-family="Arial" font-size="9.00">if (k_1 &gt; 99)</text>
</g>
<!-- Node_5 -->
<g id="node6" class="node"><title>Node_5</title>
<path fill="moccasin" stroke="moccasin" d="M159,-584.5C159,-584.5 242,-584.5 242,-584.5 248,-584.5 254,-590.5 254,-596.5 254,-596.5 254,-608.5 254,-608.5 254,-614.5 248,-620.5 242,-620.5 242,-620.5 159,-620.5 159,-620.5 153,-620.5 147,-614.5 147,-608.5 147,-608.5 147,-596.5 147,-596.5 147,-590.5 153,-584.5 159,-584.5"/>
<text text-anchor="middle" x="200.5" y="-600.3" font-family="Arial" font-size="9.00">k_1_f: [&#45;Infinity, Infinity]</text>
</g>
<!-- Node_4&#45;&gt;Node_5 -->
<g id="edge3" class="edge"><title>Node_4&#45;&gt;Node_5</title>
<path fill="none" stroke="steelblue" d="M200.5,-657.313C200.5,-649.289 200.5,-639.547 200.5,-630.569"/>
<polygon fill="steelblue" stroke="steelblue" points="204,-630.529 200.5,-620.529 197,-630.529 204,-630.529"/>
</g>
<!-- Node_8 -->
<g id="node9" class="node"><title>Node_8</title>
<path fill="lightblue" stroke="lightblue" d="M180,-511.5C180,-511.5 221,-511.5 221,-511.5 227,-511.5 233,-517.5 233,-523.5 233,-523.5 233,-535.5 233,-535.5 233,-541.5 227,-547.5 221,-547.5 221,-547.5 180,-547.5 180,-547.5 174,-547.5 168,-541.5 168,-535.5 168,-535.5 168,-523.5 168,-523.5 168,-517.5 174,-511.5 180,-511.5"/>
<text text-anchor="middle" x="200.5" y="-527.3" font-family="Arial" font-size="9.00">_10 = k_1_f</text>
</g>
<!-- Node_5&#45;&gt;Node_8 -->
<g id="edge19" class="edge"><title>Node_5&#45;&gt;Node_8</title>
<path fill="none" stroke="tan" d="M200.5,-584.313C200.5,-576.289 200.5,-566.547 200.5,-557.569"/>
<polygon fill="tan" stroke="tan" points="204,-557.529 200.5,-547.529 197,-557.529 204,-557.529"/>
</g>
<!-- Node_6 -->
<g id="node7" class="node"><title>Node_6</title>
<path fill="lightblue" stroke="lightblue" d="M398.5,-803.5C398.5,-803.5 428.5,-803.5 428.5,-803.5 434.5,-803.5 440.5,-809.5 440.5,-815.5 440.5,-815.5 440.5,-827.5 440.5,-827.5 440.5,-833.5 434.5,-839.5 428.5,-839.5 428.5,-839.5 398.5,-839.5 398.5,-839.5 392.5,-839.5 386.5,-833.5 386.5,-827.5 386.5,-827.5 386.5,-815.5 386.5,-815.5 386.5,-809.5 392.5,-803.5 398.5,-803.5"/>
<text text-anchor="middle" x="413.5" y="-819.3" font-family="Arial" font-size="9.00">i_5 = 0</text>
</g>
<!-- Node_7 -->
<g id="node8" class="node"><title>Node_7</title>
<path fill="moccasin" stroke="moccasin" d="M377,-730.5C377,-730.5 450,-730.5 450,-730.5 456,-730.5 462,-736.5 462,-742.5 462,-742.5 462,-754.5 462,-754.5 462,-760.5 456,-766.5 450,-766.5 450,-766.5 377,-766.5 377,-766.5 371,-766.5 365,-760.5 365,-754.5 365,-754.5 365,-742.5 365,-742.5 365,-736.5 371,-730.5 377,-730.5"/>
<text text-anchor="middle" x="413.5" y="-746.3" font-family="Arial" font-size="9.00">i_5: [&#45;Infinity, Infinity]</text>
</g>
<!-- Node_6&#45;&gt;Node_7 -->
<g id="edge4" class="edge"><title>Node_6&#45;&gt;Node_7</title>
<path fill="none" stroke="steelblue" d="M413.5,-803.313C413.5,-795.289 413.5,-785.547 413.5,-776.569"/>
<polygon fill="steelblue" stroke="steelblue" points="417,-776.529 413.5,-766.529 410,-776.529 417,-776.529"/>
</g>
<!-- Node_10 -->
<g id="node11" class="node"><title>Node_10</title>
<path fill="lightblue" stroke="lightblue" d="M347,-657.5C347,-657.5 450,-657.5 450,-657.5 456,-657.5 462,-663.5 462,-669.5 462,-669.5 462,-681.5 462,-681.5 462,-687.5 456,-693.5 450,-693.5 450,-693.5 347,-693.5 347,-693.5 341,-693.5 335,-687.5 335,-681.5 335,-681.5 335,-669.5 335,-669.5 335,-663.5 341,-657.5 347,-657.5"/>
<text text-anchor="middle" x="398.5" y="-673.3" font-family="Arial" font-size="9.00"># i_2 = PHI &lt;i_5(3), i_7(4)&gt;</text>
</g>
<!-- Node_7&#45;&gt;Node_10 -->
<g id="edge27" class="edge"><title>Node_7&#45;&gt;Node_10</title>
<path fill="none" stroke="tan" d="M409.869,-730.313C408.174,-722.289 406.116,-712.547 404.219,-703.569"/>
<polygon fill="tan" stroke="tan" points="407.589,-702.589 402.098,-693.529 400.74,-704.036 407.589,-702.589"/>
</g>
<!-- Node_9 -->
<g id="node10" class="node"><title>Node_9</title>
<path fill="moccasin" stroke="moccasin" d="M162.5,-438.5C162.5,-438.5 238.5,-438.5 238.5,-438.5 244.5,-438.5 250.5,-444.5 250.5,-450.5 250.5,-450.5 250.5,-462.5 250.5,-462.5 250.5,-468.5 244.5,-474.5 238.5,-474.5 238.5,-474.5 162.5,-474.5 162.5,-474.5 156.5,-474.5 150.5,-468.5 150.5,-462.5 150.5,-462.5 150.5,-450.5 150.5,-450.5 150.5,-444.5 156.5,-438.5 162.5,-438.5"/>
<text text-anchor="middle" x="200.5" y="-454.3" font-family="Arial" font-size="9.00">_10: [&#45;Infinity, Infinity]</text>
</g>
<!-- Node_8&#45;&gt;Node_9 -->
<g id="edge5" class="edge"><title>Node_8&#45;&gt;Node_9</title>
<path fill="none" stroke="steelblue" d="M200.5,-511.313C200.5,-503.289 200.5,-493.547 200.5,-484.569"/>
<polygon fill="steelblue" stroke="steelblue" points="204,-484.529 200.5,-474.529 197,-484.529 204,-484.529"/>
</g>
<!-- Node_11 -->
<g id="node12" class="node"><title>Node_11</title>
<path fill="moccasin" stroke="moccasin" d="M408,-584.5C408,-584.5 481,-584.5 481,-584.5 487,-584.5 493,-590.5 493,-596.5 493,-596.5 493,-608.5 493,-608.5 493,-614.5 487,-620.5 481,-620.5 481,-620.5 408,-620.5 408,-620.5 402,-620.5 396,-614.5 396,-608.5 396,-608.5 396,-596.5 396,-596.5 396,-590.5 402,-584.5 408,-584.5"/>
<text text-anchor="middle" x="444.5" y="-600.3" font-family="Arial" font-size="9.00">i_2: [&#45;Infinity, Infinity]</text>
</g>
<!-- Node_10&#45;&gt;Node_11 -->
<g id="edge6" class="edge"><title>Node_10&#45;&gt;Node_11</title>
<path fill="none" stroke="steelblue" d="M409.635,-657.313C415.116,-648.853 421.835,-638.484 427.906,-629.112"/>
<polygon fill="steelblue" stroke="steelblue" points="430.967,-630.824 433.467,-620.529 425.092,-627.018 430.967,-630.824"/>
</g>
<!-- Node_11&#45;&gt;Node_2 -->
<g id="edge24" class="edge"><title>Node_11&#45;&gt;Node_2</title>
<path fill="none" stroke="tan" d="M454.696,-620.824C460.345,-631.058 467.095,-644.433 471.5,-657 485.096,-695.785 490.5,-706.401 490.5,-747.5 490.5,-822.5 490.5,-822.5 490.5,-822.5 490.5,-865.867 469.693,-912.583 454.659,-940.677"/>
<polygon fill="tan" stroke="tan" points="451.581,-939.012 449.821,-949.459 457.712,-942.39 451.581,-939.012"/>
</g>
<!-- Node_12 -->
<g id="node13" class="node"><title>Node_12</title>
<path fill="lightblue" stroke="lightblue" d="M84,-219.5C84,-219.5 125,-219.5 125,-219.5 131,-219.5 137,-225.5 137,-231.5 137,-231.5 137,-243.5 137,-243.5 137,-249.5 131,-255.5 125,-255.5 125,-255.5 84,-255.5 84,-255.5 78,-255.5 72,-249.5 72,-243.5 72,-243.5 72,-231.5 72,-231.5 72,-225.5 78,-219.5 84,-219.5"/>
<text text-anchor="middle" x="104.5" y="-235.3" font-family="Arial" font-size="9.00">if (i_2 &lt; j_3)</text>
</g>
<!-- Node_13 -->
<g id="node14" class="node"><title>Node_13</title>
<path fill="moccasin" stroke="moccasin" d="M65.5,-146.5C65.5,-146.5 145.5,-146.5 145.5,-146.5 151.5,-146.5 157.5,-152.5 157.5,-158.5 157.5,-158.5 157.5,-170.5 157.5,-170.5 157.5,-176.5 151.5,-182.5 145.5,-182.5 145.5,-182.5 65.5,-182.5 65.5,-182.5 59.5,-182.5 53.5,-176.5 53.5,-170.5 53.5,-170.5 53.5,-158.5 53.5,-158.5 53.5,-152.5 59.5,-146.5 65.5,-146.5"/>
<text text-anchor="middle" x="105.5" y="-162.3" font-family="Arial" font-size="9.00">j_3_t: [&#45;Infinity, Infinity]</text>
</g>
<!-- Node_12&#45;&gt;Node_13 -->
<g id="edge7" class="edge"><title>Node_12&#45;&gt;Node_13</title>
<path fill="none" stroke="steelblue" d="M104.742,-219.313C104.855,-211.289 104.992,-201.547 105.119,-192.569"/>
<polygon fill="steelblue" stroke="steelblue" points="108.619,-192.577 105.26,-182.529 101.62,-192.479 108.619,-192.577"/>
</g>
<!-- Node_16 -->
<g id="node17" class="node"><title>Node_16</title>
<path fill="lightblue" stroke="lightblue" d="M72,-73.5C72,-73.5 125,-73.5 125,-73.5 131,-73.5 137,-79.5 137,-85.5 137,-85.5 137,-97.5 137,-97.5 137,-103.5 131,-109.5 125,-109.5 125,-109.5 72,-109.5 72,-109.5 66,-109.5 60,-103.5 60,-97.5 60,-97.5 60,-85.5 60,-85.5 60,-79.5 66,-73.5 72,-73.5"/>
<text text-anchor="middle" x="98.5" y="-89.3" font-family="Arial" font-size="9.00">j_8 = j_3_t + &#45;1</text>
</g>
<!-- Node_13&#45;&gt;Node_16 -->
<g id="edge20" class="edge"><title>Node_13&#45;&gt;Node_16</title>
<path fill="none" stroke="tan" d="M103.805,-146.313C103.014,-138.289 102.054,-128.547 101.169,-119.569"/>
<polygon fill="tan" stroke="tan" points="104.643,-119.137 100.179,-109.529 97.677,-119.824 104.643,-119.137"/>
</g>
<!-- Node_14 -->
<g id="node15" class="node"><title>Node_14</title>
<path fill="lightblue" stroke="lightblue" d="M44.5,-511.5C44.5,-511.5 82.5,-511.5 82.5,-511.5 88.5,-511.5 94.5,-517.5 94.5,-523.5 94.5,-523.5 94.5,-535.5 94.5,-535.5 94.5,-541.5 88.5,-547.5 82.5,-547.5 82.5,-547.5 44.5,-547.5 44.5,-547.5 38.5,-547.5 32.5,-541.5 32.5,-535.5 32.5,-535.5 32.5,-523.5 32.5,-523.5 32.5,-517.5 38.5,-511.5 44.5,-511.5"/>
<text text-anchor="middle" x="63.5" y="-527.3" font-family="Arial" font-size="9.00">j_6 = k_1_t</text>
</g>
<!-- Node_15 -->
<g id="node16" class="node"><title>Node_15</title>
<path fill="moccasin" stroke="moccasin" d="M27,-438.5C27,-438.5 100,-438.5 100,-438.5 106,-438.5 112,-444.5 112,-450.5 112,-450.5 112,-462.5 112,-462.5 112,-468.5 106,-474.5 100,-474.5 100,-474.5 27,-474.5 27,-474.5 21,-474.5 15,-468.5 15,-462.5 15,-462.5 15,-450.5 15,-450.5 15,-444.5 21,-438.5 27,-438.5"/>
<text text-anchor="middle" x="63.5" y="-454.3" font-family="Arial" font-size="9.00">j_6: [&#45;Infinity, Infinity]</text>
</g>
<!-- Node_14&#45;&gt;Node_15 -->
<g id="edge8" class="edge"><title>Node_14&#45;&gt;Node_15</title>
<path fill="none" stroke="steelblue" d="M63.5,-511.313C63.5,-503.289 63.5,-493.547 63.5,-484.569"/>
<polygon fill="steelblue" stroke="steelblue" points="67.0001,-484.529 63.5,-474.529 60.0001,-484.529 67.0001,-484.529"/>
</g>
<!-- Node_24 -->
<g id="node25" class="node"><title>Node_24</title>
<path fill="lightblue" stroke="lightblue" d="M12,-365.5C12,-365.5 115,-365.5 115,-365.5 121,-365.5 127,-371.5 127,-377.5 127,-377.5 127,-389.5 127,-389.5 127,-395.5 121,-401.5 115,-401.5 115,-401.5 12,-401.5 12,-401.5 6,-401.5 0,-395.5 0,-389.5 0,-389.5 0,-377.5 0,-377.5 0,-371.5 6,-365.5 12,-365.5"/>
<text text-anchor="middle" x="63.5" y="-381.3" font-family="Arial" font-size="9.00"># j_3 = PHI &lt;j_6(3), j_8(4)&gt;</text>
</g>
<!-- Node_15&#45;&gt;Node_24 -->
<g id="edge28" class="edge"><title>Node_15&#45;&gt;Node_24</title>
<path fill="none" stroke="tan" d="M63.5,-438.313C63.5,-430.289 63.5,-420.547 63.5,-411.569"/>
<polygon fill="tan" stroke="tan" points="67.0001,-411.529 63.5,-401.529 60.0001,-411.529 67.0001,-411.529"/>
</g>
<!-- Node_17 -->
<g id="node18" class="node"><title>Node_17</title>
<path fill="moccasin" stroke="moccasin" d="M25,-0.5C25,-0.5 98,-0.5 98,-0.5 104,-0.5 110,-6.5 110,-12.5 110,-12.5 110,-24.5 110,-24.5 110,-30.5 104,-36.5 98,-36.5 98,-36.5 25,-36.5 25,-36.5 19,-36.5 13,-30.5 13,-24.5 13,-24.5 13,-12.5 13,-12.5 13,-6.5 19,-0.5 25,-0.5"/>
<text text-anchor="middle" x="61.5" y="-16.3" font-family="Arial" font-size="9.00">j_8: [&#45;Infinity, Infinity]</text>
</g>
<!-- Node_16&#45;&gt;Node_17 -->
<g id="edge9" class="edge"><title>Node_16&#45;&gt;Node_17</title>
<path fill="none" stroke="steelblue" d="M89.5433,-73.3129C85.1803,-64.9407 79.8422,-54.6971 74.9985,-45.4026"/>
<polygon fill="steelblue" stroke="steelblue" points="78.0995,-43.7794 70.3742,-36.5288 71.8918,-47.0144 78.0995,-43.7794"/>
</g>
<!-- Node_17&#45;&gt;Node_24 -->
<g id="edge21" class="edge"><title>Node_17&#45;&gt;Node_24</title>
<path fill="none" stroke="tan" d="M54.2149,-36.884C43.6956,-63.6035 25.5,-116.6 25.5,-163.5 25.5,-238.5 25.5,-238.5 25.5,-238.5 25.5,-280.594 40.8687,-327.388 52.0585,-355.879"/>
<polygon fill="tan" stroke="tan" points="48.8162,-357.197 55.8101,-365.155 55.3056,-354.573 48.8162,-357.197"/>
</g>
<!-- Node_19 -->
<g id="node20" class="node"><title>Node_19</title>
<path fill="moccasin" stroke="moccasin" d="M136,-730.5C136,-730.5 211,-730.5 211,-730.5 217,-730.5 223,-736.5 223,-742.5 223,-742.5 223,-754.5 223,-754.5 223,-760.5 217,-766.5 211,-766.5 211,-766.5 136,-766.5 136,-766.5 130,-766.5 124,-760.5 124,-754.5 124,-754.5 124,-742.5 124,-742.5 124,-736.5 130,-730.5 136,-730.5"/>
<text text-anchor="middle" x="173.5" y="-746.3" font-family="Arial" font-size="9.00">k_1: [&#45;Infinity, Infinity]</text>
</g>
<!-- Node_18&#45;&gt;Node_19 -->
<g id="edge10" class="edge"><title>Node_18&#45;&gt;Node_19</title>
<path fill="none" stroke="steelblue" d="M173.5,-803.313C173.5,-795.289 173.5,-785.547 173.5,-776.569"/>
<polygon fill="steelblue" stroke="steelblue" points="177,-776.529 173.5,-766.529 170,-776.529 177,-776.529"/>
</g>
<!-- Node_19&#45;&gt;Node_4 -->
<g id="edge15" class="edge"><title>Node_19&#45;&gt;Node_4</title>
<path fill="none" stroke="tan" d="M180.036,-730.313C183.153,-722.115 186.953,-712.123 190.428,-702.985"/>
<polygon fill="tan" stroke="tan" points="193.741,-704.12 194.024,-693.529 187.198,-701.632 193.741,-704.12"/>
</g>
<!-- Node_20 -->
<g id="node21" class="node"><title>Node_20</title>
<path fill="lightblue" stroke="lightblue" d="M91.5,-657.5C91.5,-657.5 137.5,-657.5 137.5,-657.5 143.5,-657.5 149.5,-663.5 149.5,-669.5 149.5,-669.5 149.5,-681.5 149.5,-681.5 149.5,-687.5 143.5,-693.5 137.5,-693.5 137.5,-693.5 91.5,-693.5 91.5,-693.5 85.5,-693.5 79.5,-687.5 79.5,-681.5 79.5,-681.5 79.5,-669.5 79.5,-669.5 79.5,-663.5 85.5,-657.5 91.5,-657.5"/>
<text text-anchor="middle" x="114.5" y="-673.3" font-family="Arial" font-size="9.00">if (k_1 &lt;= 99)</text>
</g>
<!-- Node_19&#45;&gt;Node_20 -->
<g id="edge16" class="edge"><title>Node_19&#45;&gt;Node_20</title>
<path fill="none" stroke="tan" d="M159.218,-730.313C151.971,-721.592 143.036,-710.84 135.064,-701.246"/>
<polygon fill="tan" stroke="tan" points="137.734,-698.983 128.651,-693.529 132.35,-703.457 137.734,-698.983"/>
</g>
<!-- Node_21 -->
<g id="node22" class="node"><title>Node_21</title>
<path fill="moccasin" stroke="moccasin" d="M22,-584.5C22,-584.5 105,-584.5 105,-584.5 111,-584.5 117,-590.5 117,-596.5 117,-596.5 117,-608.5 117,-608.5 117,-614.5 111,-620.5 105,-620.5 105,-620.5 22,-620.5 22,-620.5 16,-620.5 10,-614.5 10,-608.5 10,-608.5 10,-596.5 10,-596.5 10,-590.5 16,-584.5 22,-584.5"/>
<text text-anchor="middle" x="63.5" y="-600.3" font-family="Arial" font-size="9.00">k_1_t: [&#45;Infinity, Infinity]</text>
</g>
<!-- Node_20&#45;&gt;Node_21 -->
<g id="edge11" class="edge"><title>Node_20&#45;&gt;Node_21</title>
<path fill="none" stroke="steelblue" d="M102.154,-657.313C96.0152,-648.766 88.4753,-638.269 81.6897,-628.823"/>
<polygon fill="steelblue" stroke="steelblue" points="84.4087,-626.609 75.732,-620.529 78.7234,-630.693 84.4087,-626.609"/>
</g>
<!-- Node_21&#45;&gt;Node_0 -->
<g id="edge25" class="edge"><title>Node_21&#45;&gt;Node_0</title>
<path fill="none" stroke="tan" d="M61.1292,-620.751C57.632,-647.734 51.5,-701.591 51.5,-747.5 51.5,-822.5 51.5,-822.5 51.5,-822.5 51.5,-864.667 67.2732,-911.441 78.7574,-939.908"/>
<polygon fill="tan" stroke="tan" points="75.539,-941.284 82.6078,-949.176 82.0033,-938.598 75.539,-941.284"/>
</g>
<!-- Node_21&#45;&gt;Node_14 -->
<g id="edge26" class="edge"><title>Node_21&#45;&gt;Node_14</title>
<path fill="none" stroke="tan" d="M63.5,-584.313C63.5,-576.289 63.5,-566.547 63.5,-557.569"/>
<polygon fill="tan" stroke="tan" points="67.0001,-557.529 63.5,-547.529 60.0001,-557.529 67.0001,-557.529"/>
</g>
<!-- Node_22 -->
<g id="node23" class="node"><title>Node_22</title>
<path fill="lightblue" stroke="lightblue" d="M231.5,-949.5C231.5,-949.5 261.5,-949.5 261.5,-949.5 267.5,-949.5 273.5,-955.5 273.5,-961.5 273.5,-961.5 273.5,-973.5 273.5,-973.5 273.5,-979.5 267.5,-985.5 261.5,-985.5 261.5,-985.5 231.5,-985.5 231.5,-985.5 225.5,-985.5 219.5,-979.5 219.5,-973.5 219.5,-973.5 219.5,-961.5 219.5,-961.5 219.5,-955.5 225.5,-949.5 231.5,-949.5"/>
<text text-anchor="middle" x="246.5" y="-965.3" font-family="Arial" font-size="9.00">k_4 = 0</text>
</g>
<!-- Node_23 -->
<g id="node24" class="node"><title>Node_23</title>
<path fill="moccasin" stroke="moccasin" d="M209,-876.5C209,-876.5 284,-876.5 284,-876.5 290,-876.5 296,-882.5 296,-888.5 296,-888.5 296,-900.5 296,-900.5 296,-906.5 290,-912.5 284,-912.5 284,-912.5 209,-912.5 209,-912.5 203,-912.5 197,-906.5 197,-900.5 197,-900.5 197,-888.5 197,-888.5 197,-882.5 203,-876.5 209,-876.5"/>
<text text-anchor="middle" x="246.5" y="-892.3" font-family="Arial" font-size="9.00">k_4: [&#45;Infinity, Infinity]</text>
</g>
<!-- Node_22&#45;&gt;Node_23 -->
<g id="edge12" class="edge"><title>Node_22&#45;&gt;Node_23</title>
<path fill="none" stroke="steelblue" d="M246.5,-949.313C246.5,-941.289 246.5,-931.547 246.5,-922.569"/>
<polygon fill="steelblue" stroke="steelblue" points="250,-922.529 246.5,-912.529 243,-922.529 250,-922.529"/>
</g>
<!-- Node_23&#45;&gt;Node_18 -->
<g id="edge18" class="edge"><title>Node_23&#45;&gt;Node_18</title>
<path fill="none" stroke="tan" d="M228.829,-876.313C219.683,-867.417 208.365,-856.409 198.353,-846.672"/>
<polygon fill="tan" stroke="tan" points="200.617,-843.992 191.009,-839.529 195.737,-849.01 200.617,-843.992"/>
</g>
<!-- Node_25 -->
<g id="node26" class="node"><title>Node_25</title>
<path fill="moccasin" stroke="moccasin" d="M67,-292.5C67,-292.5 140,-292.5 140,-292.5 146,-292.5 152,-298.5 152,-304.5 152,-304.5 152,-316.5 152,-316.5 152,-322.5 146,-328.5 140,-328.5 140,-328.5 67,-328.5 67,-328.5 61,-328.5 55,-322.5 55,-316.5 55,-316.5 55,-304.5 55,-304.5 55,-298.5 61,-292.5 67,-292.5"/>
<text text-anchor="middle" x="103.5" y="-308.3" font-family="Arial" font-size="9.00">j_3: [&#45;Infinity, Infinity]</text>
</g>
<!-- Node_24&#45;&gt;Node_25 -->
<g id="edge13" class="edge"><title>Node_24&#45;&gt;Node_25</title>
<path fill="none" stroke="steelblue" d="M73.1829,-365.313C77.8996,-356.941 83.6706,-346.697 88.907,-337.403"/>
<polygon fill="steelblue" stroke="steelblue" points="92.0472,-338.959 93.9063,-328.529 85.9484,-335.523 92.0472,-338.959"/>
</g>
<!-- Node_25&#45;&gt;Node_12 -->
<g id="edge29" class="edge"><title>Node_25&#45;&gt;Node_12</title>
<path fill="none" stroke="tan" d="M103.742,-292.313C103.855,-284.289 103.992,-274.547 104.119,-265.569"/>
<polygon fill="tan" stroke="tan" points="107.619,-265.577 104.26,-255.529 100.62,-265.479 107.619,-265.577"/>
</g>
<!-- Node_27 -->
<g id="node28" class="node"><title>Node_27</title>
<path fill="moccasin" stroke="moccasin" d="M262,-730.5C262,-730.5 335,-730.5 335,-730.5 341,-730.5 347,-736.5 347,-742.5 347,-742.5 347,-754.5 347,-754.5 347,-760.5 341,-766.5 335,-766.5 335,-766.5 262,-766.5 262,-766.5 256,-766.5 250,-760.5 250,-754.5 250,-754.5 250,-742.5 250,-742.5 250,-736.5 256,-730.5 262,-730.5"/>
<text text-anchor="middle" x="298.5" y="-746.3" font-family="Arial" font-size="9.00">i_7: [&#45;Infinity, Infinity]</text>
</g>
<!-- Node_26&#45;&gt;Node_27 -->
<g id="edge14" class="edge"><title>Node_26&#45;&gt;Node_27</title>
<path fill="none" stroke="steelblue" d="M306.079,-803.313C304.949,-795.289 303.577,-785.547 302.313,-776.569"/>
<polygon fill="steelblue" stroke="steelblue" points="305.759,-775.943 300.898,-766.529 298.827,-776.919 305.759,-775.943"/>
</g>
<!-- Node_27&#45;&gt;Node_10 -->
<g id="edge17" class="edge"><title>Node_27&#45;&gt;Node_10</title>
<path fill="none" stroke="tan" d="M322.452,-730.494C335.468,-721.253 351.75,-709.692 365.906,-699.642"/>
<polygon fill="tan" stroke="tan" points="368.269,-702.257 374.396,-693.614 364.216,-696.549 368.269,-702.257"/>
</g>
</g>
</svg>
