<?xml version="1.0" encoding="UTF-8" standalone="no"?>
<!DOCTYPE svg PUBLIC "-//W3C//DTD SVG 1.1//EN"
 "http://www.w3.org/Graphics/SVG/1.1/DTD/svg11.dtd">
<!-- Generated by graphviz version 2.38.0 (20140413.2041)
 -->
<!-- Title: t2_foo_final_ConstraintGraph Pages: 1 -->
<svg width="681pt" height="650pt"
     viewBox="0.00 0.00 680.50 650.00" xmlns="http://www.w3.org/2000/svg">
<g id="graph0" class="graph" transform="scale(1 1) rotate(0) translate(4 646)">
<title>t2_foo_final_ConstraintGraph</title>
<polygon fill="white" stroke="none" points="-4,4 -4,-646 676.5,-646 676.5,4 -4,4"/>
<text text-anchor="middle" x="336.25" y="-628.4" font-family="Arial" font-size="12.00">t2_foo_final_ConstraintGraph</text>
<!-- Node_0 -->
<g id="node1" class="node"><title>Node_0</title>
<path fill="lightblue" stroke="lightblue" d="M139,-584.5C139,-584.5 180,-584.5 180,-584.5 186,-584.5 192,-590.5 192,-596.5 192,-596.5 192,-608.5 192,-608.5 192,-614.5 186,-620.5 180,-620.5 180,-620.5 139,-620.5 139,-620.5 133,-620.5 127,-614.5 127,-608.5 127,-608.5 127,-596.5 127,-596.5 127,-590.5 133,-584.5 139,-584.5"/>
<text text-anchor="middle" x="159.5" y="-600.3" font-family="Arial" font-size="9.00">if (i_2 &lt; j_3)</text>
</g>
<!-- Node_1 -->
<g id="node2" class="node"><title>Node_1</title>
<path fill="moccasin" stroke="moccasin" d="M52,-511.5C52,-511.5 117,-511.5 117,-511.5 123,-511.5 129,-517.5 129,-523.5 129,-523.5 129,-535.5 129,-535.5 129,-541.5 123,-547.5 117,-547.5 117,-547.5 52,-547.5 52,-547.5 46,-547.5 40,-541.5 40,-535.5 40,-535.5 40,-523.5 40,-523.5 40,-517.5 46,-511.5 52,-511.5"/>
<text text-anchor="middle" x="84.5" y="-527.3" font-family="Arial" font-size="9.00">i_2_t: [0.0, Infinity]</text>
</g>
<!-- Node_0&#45;&gt;Node_1 -->
<g id="edge1" class="edge"><title>Node_0&#45;&gt;Node_1</title>
<path fill="none" stroke="steelblue" d="M141.345,-584.313C131.948,-575.417 120.32,-564.409 110.033,-554.672"/>
<polygon fill="steelblue" stroke="steelblue" points="112.156,-551.862 102.488,-547.529 107.344,-556.945 112.156,-551.862"/>
</g>
<!-- Node_12 -->
<g id="node13" class="node"><title>Node_12</title>
<path fill="lightblue" stroke="lightblue" d="M21.5,-438.5C21.5,-438.5 71.5,-438.5 71.5,-438.5 77.5,-438.5 83.5,-444.5 83.5,-450.5 83.5,-450.5 83.5,-462.5 83.5,-462.5 83.5,-468.5 77.5,-474.5 71.5,-474.5 71.5,-474.5 21.5,-474.5 21.5,-474.5 15.5,-474.5 9.5,-468.5 9.5,-462.5 9.5,-462.5 9.5,-450.5 9.5,-450.5 9.5,-444.5 15.5,-438.5 21.5,-438.5"/>
<text text-anchor="middle" x="46.5" y="-454.3" font-family="Arial" font-size="9.00">i_7 = i_2_t + 1</text>
</g>
<!-- Node_1&#45;&gt;Node_12 -->
<g id="edge16" class="edge"><title>Node_1&#45;&gt;Node_12</title>
<path fill="none" stroke="tan" d="M75.3013,-511.313C70.8203,-502.941 65.3379,-492.697 60.3634,-483.403"/>
<polygon fill="tan" stroke="tan" points="63.4187,-481.694 55.614,-474.529 57.247,-484.997 63.4187,-481.694"/>
</g>
<!-- Node_2 -->
<g id="node3" class="node"><title>Node_2</title>
<path fill="lightblue" stroke="lightblue" d="M344.5,-511.5C344.5,-511.5 382.5,-511.5 382.5,-511.5 388.5,-511.5 394.5,-517.5 394.5,-523.5 394.5,-523.5 394.5,-535.5 394.5,-535.5 394.5,-541.5 388.5,-547.5 382.5,-547.5 382.5,-547.5 344.5,-547.5 344.5,-547.5 338.5,-547.5 332.5,-541.5 332.5,-535.5 332.5,-535.5 332.5,-523.5 332.5,-523.5 332.5,-517.5 338.5,-511.5 344.5,-511.5"/>
<text text-anchor="middle" x="363.5" y="-527.3" font-family="Arial" font-size="9.00">j_6 = k_1_t</text>
</g>
<!-- Node_3 -->
<g id="node4" class="node"><title>Node_3</title>
<path fill="moccasin" stroke="moccasin" d="M314,-438.5C314,-438.5 387,-438.5 387,-438.5 393,-438.5 399,-444.5 399,-450.5 399,-450.5 399,-462.5 399,-462.5 399,-468.5 393,-474.5 387,-474.5 387,-474.5 314,-474.5 314,-474.5 308,-474.5 302,-468.5 302,-462.5 302,-462.5 302,-450.5 302,-450.5 302,-444.5 308,-438.5 314,-438.5"/>
<text text-anchor="middle" x="350.5" y="-454.3" font-family="Arial" font-size="9.00">j_6: [&#45;Infinity, Infinity]</text>
</g>
<!-- Node_2&#45;&gt;Node_3 -->
<g id="edge2" class="edge"><title>Node_2&#45;&gt;Node_3</title>
<path fill="none" stroke="steelblue" d="M360.353,-511.313C358.884,-503.289 357.1,-493.547 355.456,-484.569"/>
<polygon fill="steelblue" stroke="steelblue" points="358.862,-483.735 353.618,-474.529 351.976,-484.996 358.862,-483.735"/>
</g>
<!-- Node_16 -->
<g id="node17" class="node"><title>Node_16</title>
<path fill="lightblue" stroke="lightblue" d="M291,-365.5C291,-365.5 394,-365.5 394,-365.5 400,-365.5 406,-371.5 406,-377.5 406,-377.5 406,-389.5 406,-389.5 406,-395.5 400,-401.5 394,-401.5 394,-401.5 291,-401.5 291,-401.5 285,-401.5 279,-395.5 279,-389.5 279,-389.5 279,-377.5 279,-377.5 279,-371.5 285,-365.5 291,-365.5"/>
<text text-anchor="middle" x="342.5" y="-381.3" font-family="Arial" font-size="9.00"># j_3 = PHI &lt;j_6(3), j_8(4)&gt;</text>
</g>
<!-- Node_3&#45;&gt;Node_16 -->
<g id="edge22" class="edge"><title>Node_3&#45;&gt;Node_16</title>
<path fill="none" stroke="tan" d="M348.563,-438.313C347.659,-430.289 346.562,-420.547 345.55,-411.569"/>
<polygon fill="tan" stroke="tan" points="349.016,-411.074 344.419,-401.529 342.061,-411.858 349.016,-411.074"/>
</g>
<!-- Node_4 -->
<g id="node5" class="node"><title>Node_4</title>
<path fill="lightblue" stroke="lightblue" d="M118.5,-438.5C118.5,-438.5 148.5,-438.5 148.5,-438.5 154.5,-438.5 160.5,-444.5 160.5,-450.5 160.5,-450.5 160.5,-462.5 160.5,-462.5 160.5,-468.5 154.5,-474.5 148.5,-474.5 148.5,-474.5 118.5,-474.5 118.5,-474.5 112.5,-474.5 106.5,-468.5 106.5,-462.5 106.5,-462.5 106.5,-450.5 106.5,-450.5 106.5,-444.5 112.5,-438.5 118.5,-438.5"/>
<text text-anchor="middle" x="133.5" y="-454.3" font-family="Arial" font-size="9.00">i_5 = 0</text>
</g>
<!-- Node_5 -->
<g id="node6" class="node"><title>Node_5</title>
<path fill="moccasin" stroke="moccasin" d="M111.5,-365.5C111.5,-365.5 155.5,-365.5 155.5,-365.5 161.5,-365.5 167.5,-371.5 167.5,-377.5 167.5,-377.5 167.5,-389.5 167.5,-389.5 167.5,-395.5 161.5,-401.5 155.5,-401.5 155.5,-401.5 111.5,-401.5 111.5,-401.5 105.5,-401.5 99.5,-395.5 99.5,-389.5 99.5,-389.5 99.5,-377.5 99.5,-377.5 99.5,-371.5 105.5,-365.5 111.5,-365.5"/>
<text text-anchor="middle" x="133.5" y="-381.3" font-family="Arial" font-size="9.00">i_5: [0.0, 0.0]</text>
</g>
<!-- Node_4&#45;&gt;Node_5 -->
<g id="edge3" class="edge"><title>Node_4&#45;&gt;Node_5</title>
<path fill="none" stroke="steelblue" d="M133.5,-438.313C133.5,-430.289 133.5,-420.547 133.5,-411.569"/>
<polygon fill="steelblue" stroke="steelblue" points="137,-411.529 133.5,-401.529 130,-411.529 137,-411.529"/>
</g>
<!-- Node_18 -->
<g id="node19" class="node"><title>Node_18</title>
<path fill="lightblue" stroke="lightblue" d="M52,-292.5C52,-292.5 155,-292.5 155,-292.5 161,-292.5 167,-298.5 167,-304.5 167,-304.5 167,-316.5 167,-316.5 167,-322.5 161,-328.5 155,-328.5 155,-328.5 52,-328.5 52,-328.5 46,-328.5 40,-322.5 40,-316.5 40,-316.5 40,-304.5 40,-304.5 40,-298.5 46,-292.5 52,-292.5"/>
<text text-anchor="middle" x="103.5" y="-308.3" font-family="Arial" font-size="9.00"># i_2 = PHI &lt;i_5(3), i_7(4)&gt;</text>
</g>
<!-- Node_5&#45;&gt;Node_18 -->
<g id="edge27" class="edge"><title>Node_5&#45;&gt;Node_18</title>
<path fill="none" stroke="tan" d="M126.238,-365.313C122.774,-357.115 118.552,-347.123 114.691,-337.985"/>
<polygon fill="tan" stroke="tan" points="117.812,-336.378 110.695,-328.529 111.363,-339.103 117.812,-336.378"/>
</g>
<!-- Node_6 -->
<g id="node7" class="node"><title>Node_6</title>
<path fill="lightblue" stroke="lightblue" d="M480,-511.5C480,-511.5 535,-511.5 535,-511.5 541,-511.5 547,-517.5 547,-523.5 547,-523.5 547,-535.5 547,-535.5 547,-541.5 541,-547.5 535,-547.5 535,-547.5 480,-547.5 480,-547.5 474,-547.5 468,-541.5 468,-535.5 468,-535.5 468,-523.5 468,-523.5 468,-517.5 474,-511.5 480,-511.5"/>
<text text-anchor="middle" x="507.5" y="-527.3" font-family="Arial" font-size="9.00">k_9 = k_1_t + 1</text>
</g>
<!-- Node_7 -->
<g id="node8" class="node"><title>Node_7</title>
<path fill="moccasin" stroke="moccasin" d="M475,-438.5C475,-438.5 550,-438.5 550,-438.5 556,-438.5 562,-444.5 562,-450.5 562,-450.5 562,-462.5 562,-462.5 562,-468.5 556,-474.5 550,-474.5 550,-474.5 475,-474.5 475,-474.5 469,-474.5 463,-468.5 463,-462.5 463,-462.5 463,-450.5 463,-450.5 463,-444.5 469,-438.5 475,-438.5"/>
<text text-anchor="middle" x="512.5" y="-454.3" font-family="Arial" font-size="9.00">k_9: [&#45;Infinity, Infinity]</text>
</g>
<!-- Node_6&#45;&gt;Node_7 -->
<g id="edge4" class="edge"><title>Node_6&#45;&gt;Node_7</title>
<path fill="none" stroke="steelblue" d="M508.71,-511.313C509.275,-503.289 509.961,-493.547 510.594,-484.569"/>
<polygon fill="steelblue" stroke="steelblue" points="514.09,-484.75 511.301,-474.529 507.107,-484.258 514.09,-484.75"/>
</g>
<!-- Node_20 -->
<g id="node21" class="node"><title>Node_20</title>
<path fill="lightblue" stroke="lightblue" d="M474.5,-365.5C474.5,-365.5 596.5,-365.5 596.5,-365.5 602.5,-365.5 608.5,-371.5 608.5,-377.5 608.5,-377.5 608.5,-389.5 608.5,-389.5 608.5,-395.5 602.5,-401.5 596.5,-401.5 596.5,-401.5 474.5,-401.5 474.5,-401.5 468.5,-401.5 462.5,-395.5 462.5,-389.5 462.5,-389.5 462.5,-377.5 462.5,-377.5 462.5,-371.5 468.5,-365.5 474.5,-365.5"/>
<text text-anchor="middle" x="535.5" y="-381.3" font-family="Arial" font-size="9.00"># k_1 = PHI &lt;k_4(D)(2), k_9(6)&gt;</text>
</g>
<!-- Node_7&#45;&gt;Node_20 -->
<g id="edge28" class="edge"><title>Node_7&#45;&gt;Node_20</title>
<path fill="none" stroke="tan" d="M518.068,-438.313C520.695,-430.202 523.891,-420.336 526.826,-411.277"/>
<polygon fill="tan" stroke="tan" points="530.231,-412.121 529.984,-401.529 523.572,-409.963 530.231,-412.121"/>
</g>
<!-- Node_8 -->
<g id="node9" class="node"><title>Node_8</title>
<path fill="lightblue" stroke="lightblue" d="M508,-73.5C508,-73.5 549,-73.5 549,-73.5 555,-73.5 561,-79.5 561,-85.5 561,-85.5 561,-97.5 561,-97.5 561,-103.5 555,-109.5 549,-109.5 549,-109.5 508,-109.5 508,-109.5 502,-109.5 496,-103.5 496,-97.5 496,-97.5 496,-85.5 496,-85.5 496,-79.5 502,-73.5 508,-73.5"/>
<text text-anchor="middle" x="528.5" y="-89.3" font-family="Arial" font-size="9.00">_10 = k_1_f</text>
</g>
<!-- Node_9 -->
<g id="node10" class="node"><title>Node_9</title>
<path fill="moccasin" stroke="moccasin" d="M490.5,-0.5C490.5,-0.5 566.5,-0.5 566.5,-0.5 572.5,-0.5 578.5,-6.5 578.5,-12.5 578.5,-12.5 578.5,-24.5 578.5,-24.5 578.5,-30.5 572.5,-36.5 566.5,-36.5 566.5,-36.5 490.5,-36.5 490.5,-36.5 484.5,-36.5 478.5,-30.5 478.5,-24.5 478.5,-24.5 478.5,-12.5 478.5,-12.5 478.5,-6.5 484.5,-0.5 490.5,-0.5"/>
<text text-anchor="middle" x="528.5" y="-16.3" font-family="Arial" font-size="9.00">_10: [&#45;Infinity, Infinity]</text>
</g>
<!-- Node_8&#45;&gt;Node_9 -->
<g id="edge5" class="edge"><title>Node_8&#45;&gt;Node_9</title>
<path fill="none" stroke="steelblue" d="M528.5,-73.3129C528.5,-65.2895 528.5,-55.5475 528.5,-46.5691"/>
<polygon fill="steelblue" stroke="steelblue" points="532,-46.5288 528.5,-36.5288 525,-46.5289 532,-46.5288"/>
</g>
<!-- Node_10 -->
<g id="node11" class="node"><title>Node_10</title>
<path fill="lightblue" stroke="lightblue" d="M258,-73.5C258,-73.5 311,-73.5 311,-73.5 317,-73.5 323,-79.5 323,-85.5 323,-85.5 323,-97.5 323,-97.5 323,-103.5 317,-109.5 311,-109.5 311,-109.5 258,-109.5 258,-109.5 252,-109.5 246,-103.5 246,-97.5 246,-97.5 246,-85.5 246,-85.5 246,-79.5 252,-73.5 258,-73.5"/>
<text text-anchor="middle" x="284.5" y="-89.3" font-family="Arial" font-size="9.00">j_8 = j_3_t + &#45;1</text>
</g>
<!-- Node_11 -->
<g id="node12" class="node"><title>Node_11</title>
<path fill="moccasin" stroke="moccasin" d="M288,-0.5C288,-0.5 361,-0.5 361,-0.5 367,-0.5 373,-6.5 373,-12.5 373,-12.5 373,-24.5 373,-24.5 373,-30.5 367,-36.5 361,-36.5 361,-36.5 288,-36.5 288,-36.5 282,-36.5 276,-30.5 276,-24.5 276,-24.5 276,-12.5 276,-12.5 276,-6.5 282,-0.5 288,-0.5"/>
<text text-anchor="middle" x="324.5" y="-16.3" font-family="Arial" font-size="9.00">j_8: [&#45;Infinity, Infinity]</text>
</g>
<!-- Node_10&#45;&gt;Node_11 -->
<g id="edge6" class="edge"><title>Node_10&#45;&gt;Node_11</title>
<path fill="none" stroke="steelblue" d="M294.183,-73.3129C298.9,-64.9407 304.671,-54.6971 309.907,-45.4026"/>
<polygon fill="steelblue" stroke="steelblue" points="313.047,-46.9593 314.906,-36.5288 306.948,-43.5234 313.047,-46.9593"/>
</g>
<!-- Node_11&#45;&gt;Node_16 -->
<g id="edge26" class="edge"><title>Node_11&#45;&gt;Node_16</title>
<path fill="none" stroke="tan" d="M331.02,-36.5001C340.637,-63.1476 357.5,-116.564 357.5,-163.5 357.5,-238.5 357.5,-238.5 357.5,-238.5 357.5,-279.287 351.473,-326.224 347.06,-355.127"/>
<polygon fill="tan" stroke="tan" points="343.561,-354.848 345.464,-365.271 350.476,-355.937 343.561,-354.848"/>
</g>
<!-- Node_13 -->
<g id="node14" class="node"><title>Node_13</title>
<path fill="moccasin" stroke="moccasin" d="M12,-365.5C12,-365.5 69,-365.5 69,-365.5 75,-365.5 81,-371.5 81,-377.5 81,-377.5 81,-389.5 81,-389.5 81,-395.5 75,-401.5 69,-401.5 69,-401.5 12,-401.5 12,-401.5 6,-401.5 0,-395.5 0,-389.5 0,-389.5 0,-377.5 0,-377.5 0,-371.5 6,-365.5 12,-365.5"/>
<text text-anchor="middle" x="40.5" y="-381.3" font-family="Arial" font-size="9.00">i_7: [1.0, Infinity]</text>
</g>
<!-- Node_12&#45;&gt;Node_13 -->
<g id="edge7" class="edge"><title>Node_12&#45;&gt;Node_13</title>
<path fill="none" stroke="steelblue" d="M45.0476,-438.313C44.3695,-430.289 43.5463,-420.547 42.7875,-411.569"/>
<polygon fill="steelblue" stroke="steelblue" points="46.2688,-411.199 41.9391,-401.529 39.2936,-411.788 46.2688,-411.199"/>
</g>
<!-- Node_13&#45;&gt;Node_18 -->
<g id="edge19" class="edge"><title>Node_13&#45;&gt;Node_18</title>
<path fill="none" stroke="tan" d="M55.7505,-365.313C63.489,-356.592 73.0291,-345.84 81.5424,-336.246"/>
<polygon fill="tan" stroke="tan" points="84.3707,-338.332 88.3899,-328.529 79.1348,-333.686 84.3707,-338.332"/>
</g>
<!-- Node_14 -->
<g id="node15" class="node"><title>Node_14</title>
<path fill="lightblue" stroke="lightblue" d="M508,-219.5C508,-219.5 549,-219.5 549,-219.5 555,-219.5 561,-225.5 561,-231.5 561,-231.5 561,-243.5 561,-243.5 561,-249.5 555,-255.5 549,-255.5 549,-255.5 508,-255.5 508,-255.5 502,-255.5 496,-249.5 496,-243.5 496,-243.5 496,-231.5 496,-231.5 496,-225.5 502,-219.5 508,-219.5"/>
<text text-anchor="middle" x="528.5" y="-235.3" font-family="Arial" font-size="9.00">if (k_1 &gt; 99)</text>
</g>
<!-- Node_15 -->
<g id="node16" class="node"><title>Node_15</title>
<path fill="moccasin" stroke="moccasin" d="M491,-146.5C491,-146.5 566,-146.5 566,-146.5 572,-146.5 578,-152.5 578,-158.5 578,-158.5 578,-170.5 578,-170.5 578,-176.5 572,-182.5 566,-182.5 566,-182.5 491,-182.5 491,-182.5 485,-182.5 479,-176.5 479,-170.5 479,-170.5 479,-158.5 479,-158.5 479,-152.5 485,-146.5 491,-146.5"/>
<text text-anchor="middle" x="528.5" y="-162.3" font-family="Arial" font-size="9.00">k_1_f: [200.0, 300.0]</text>
</g>
<!-- Node_14&#45;&gt;Node_15 -->
<g id="edge8" class="edge"><title>Node_14&#45;&gt;Node_15</title>
<path fill="none" stroke="steelblue" d="M528.5,-219.313C528.5,-211.289 528.5,-201.547 528.5,-192.569"/>
<polygon fill="steelblue" stroke="steelblue" points="532,-192.529 528.5,-182.529 525,-192.529 532,-192.529"/>
</g>
<!-- Node_15&#45;&gt;Node_8 -->
<g id="edge21" class="edge"><title>Node_15&#45;&gt;Node_8</title>
<path fill="none" stroke="tan" d="M528.5,-146.313C528.5,-138.289 528.5,-128.547 528.5,-119.569"/>
<polygon fill="tan" stroke="tan" points="532,-119.529 528.5,-109.529 525,-119.529 532,-119.529"/>
</g>
<!-- Node_17 -->
<g id="node18" class="node"><title>Node_17</title>
<path fill="moccasin" stroke="moccasin" d="M243,-292.5C243,-292.5 316,-292.5 316,-292.5 322,-292.5 328,-298.5 328,-304.5 328,-304.5 328,-316.5 328,-316.5 328,-322.5 322,-328.5 316,-328.5 316,-328.5 243,-328.5 243,-328.5 237,-328.5 231,-322.5 231,-316.5 231,-316.5 231,-304.5 231,-304.5 231,-298.5 237,-292.5 243,-292.5"/>
<text text-anchor="middle" x="279.5" y="-308.3" font-family="Arial" font-size="9.00">j_3: [&#45;Infinity, Infinity]</text>
</g>
<!-- Node_16&#45;&gt;Node_17 -->
<g id="edge9" class="edge"><title>Node_16&#45;&gt;Node_17</title>
<path fill="none" stroke="steelblue" d="M327.249,-365.313C319.511,-356.592 309.971,-345.84 301.458,-336.246"/>
<polygon fill="steelblue" stroke="steelblue" points="303.865,-333.686 294.61,-328.529 298.629,-338.332 303.865,-333.686"/>
</g>
<!-- Node_22 -->
<g id="node23" class="node"><title>Node_22</title>
<path fill="lightblue" stroke="lightblue" d="M258,-219.5C258,-219.5 299,-219.5 299,-219.5 305,-219.5 311,-225.5 311,-231.5 311,-231.5 311,-243.5 311,-243.5 311,-249.5 305,-255.5 299,-255.5 299,-255.5 258,-255.5 258,-255.5 252,-255.5 246,-249.5 246,-243.5 246,-243.5 246,-231.5 246,-231.5 246,-225.5 252,-219.5 258,-219.5"/>
<text text-anchor="middle" x="278.5" y="-235.3" font-family="Arial" font-size="9.00">if (i_2 &lt; j_3)</text>
</g>
<!-- Node_17&#45;&gt;Node_22 -->
<g id="edge14" class="edge"><title>Node_17&#45;&gt;Node_22</title>
<path fill="none" stroke="tan" d="M279.258,-292.313C279.145,-284.289 279.008,-274.547 278.881,-265.569"/>
<polygon fill="tan" stroke="tan" points="282.38,-265.479 278.74,-255.529 275.381,-265.577 282.38,-265.479"/>
</g>
<!-- Node_19 -->
<g id="node20" class="node"><title>Node_19</title>
<path fill="moccasin" stroke="moccasin" d="M117,-219.5C117,-219.5 174,-219.5 174,-219.5 180,-219.5 186,-225.5 186,-231.5 186,-231.5 186,-243.5 186,-243.5 186,-249.5 180,-255.5 174,-255.5 174,-255.5 117,-255.5 117,-255.5 111,-255.5 105,-249.5 105,-243.5 105,-243.5 105,-231.5 105,-231.5 105,-225.5 111,-219.5 117,-219.5"/>
<text text-anchor="middle" x="145.5" y="-235.3" font-family="Arial" font-size="9.00">i_2: [0.0, Infinity]</text>
</g>
<!-- Node_18&#45;&gt;Node_19 -->
<g id="edge10" class="edge"><title>Node_18&#45;&gt;Node_19</title>
<path fill="none" stroke="steelblue" d="M113.667,-292.313C118.62,-283.941 124.679,-273.697 130.177,-264.403"/>
<polygon fill="steelblue" stroke="steelblue" points="133.348,-265.918 135.427,-255.529 127.323,-262.354 133.348,-265.918"/>
</g>
<!-- Node_19&#45;&gt;Node_0 -->
<g id="edge20" class="edge"><title>Node_19&#45;&gt;Node_0</title>
<path fill="none" stroke="tan" d="M156.858,-255.698C163.144,-265.889 170.644,-279.264 175.5,-292 190.176,-330.49 195.5,-341.307 195.5,-382.5 195.5,-457.5 195.5,-457.5 195.5,-457.5 195.5,-499.271 181.067,-545.876 170.478,-574.448"/>
<polygon fill="tan" stroke="tan" points="167.084,-573.525 166.785,-584.116 173.623,-576.023 167.084,-573.525"/>
</g>
<!-- Node_21 -->
<g id="node22" class="node"><title>Node_21</title>
<path fill="moccasin" stroke="moccasin" d="M494.5,-292.5C494.5,-292.5 562.5,-292.5 562.5,-292.5 568.5,-292.5 574.5,-298.5 574.5,-304.5 574.5,-304.5 574.5,-316.5 574.5,-316.5 574.5,-322.5 568.5,-328.5 562.5,-328.5 562.5,-328.5 494.5,-328.5 494.5,-328.5 488.5,-328.5 482.5,-322.5 482.5,-316.5 482.5,-316.5 482.5,-304.5 482.5,-304.5 482.5,-298.5 488.5,-292.5 494.5,-292.5"/>
<text text-anchor="middle" x="528.5" y="-308.3" font-family="Arial" font-size="9.00">k_1: [200.0, 300.0]</text>
</g>
<!-- Node_20&#45;&gt;Node_21 -->
<g id="edge11" class="edge"><title>Node_20&#45;&gt;Node_21</title>
<path fill="none" stroke="steelblue" d="M533.805,-365.313C533.014,-357.289 532.054,-347.547 531.169,-338.569"/>
<polygon fill="steelblue" stroke="steelblue" points="534.643,-338.137 530.179,-328.529 527.677,-338.824 534.643,-338.137"/>
</g>
<!-- Node_21&#45;&gt;Node_14 -->
<g id="edge24" class="edge"><title>Node_21&#45;&gt;Node_14</title>
<path fill="none" stroke="tan" d="M528.5,-292.313C528.5,-284.289 528.5,-274.547 528.5,-265.569"/>
<polygon fill="tan" stroke="tan" points="532,-265.529 528.5,-255.529 525,-265.529 532,-265.529"/>
</g>
<!-- Node_24 -->
<g id="node25" class="node"><title>Node_24</title>
<path fill="lightblue" stroke="lightblue" d="M415.5,-219.5C415.5,-219.5 461.5,-219.5 461.5,-219.5 467.5,-219.5 473.5,-225.5 473.5,-231.5 473.5,-231.5 473.5,-243.5 473.5,-243.5 473.5,-249.5 467.5,-255.5 461.5,-255.5 461.5,-255.5 415.5,-255.5 415.5,-255.5 409.5,-255.5 403.5,-249.5 403.5,-243.5 403.5,-243.5 403.5,-231.5 403.5,-231.5 403.5,-225.5 409.5,-219.5 415.5,-219.5"/>
<text text-anchor="middle" x="438.5" y="-235.3" font-family="Arial" font-size="9.00">if (k_1 &lt;= 99)</text>
</g>
<!-- Node_21&#45;&gt;Node_24 -->
<g id="edge25" class="edge"><title>Node_21&#45;&gt;Node_24</title>
<path fill="none" stroke="tan" d="M506.714,-292.313C495.106,-283.156 480.661,-271.76 468.055,-261.816"/>
<polygon fill="tan" stroke="tan" points="470.105,-258.975 460.086,-255.529 465.769,-264.47 470.105,-258.975"/>
</g>
<!-- Node_23 -->
<g id="node24" class="node"><title>Node_23</title>
<path fill="moccasin" stroke="moccasin" d="M237.5,-146.5C237.5,-146.5 317.5,-146.5 317.5,-146.5 323.5,-146.5 329.5,-152.5 329.5,-158.5 329.5,-158.5 329.5,-170.5 329.5,-170.5 329.5,-176.5 323.5,-182.5 317.5,-182.5 317.5,-182.5 237.5,-182.5 237.5,-182.5 231.5,-182.5 225.5,-176.5 225.5,-170.5 225.5,-170.5 225.5,-158.5 225.5,-158.5 225.5,-152.5 231.5,-146.5 237.5,-146.5"/>
<text text-anchor="middle" x="277.5" y="-162.3" font-family="Arial" font-size="9.00">j_3_t: [&#45;Infinity, Infinity]</text>
</g>
<!-- Node_22&#45;&gt;Node_23 -->
<g id="edge12" class="edge"><title>Node_22&#45;&gt;Node_23</title>
<path fill="none" stroke="steelblue" d="M278.258,-219.313C278.145,-211.289 278.008,-201.547 277.881,-192.569"/>
<polygon fill="steelblue" stroke="steelblue" points="281.38,-192.479 277.74,-182.529 274.381,-192.577 281.38,-192.479"/>
</g>
<!-- Node_23&#45;&gt;Node_10 -->
<g id="edge15" class="edge"><title>Node_23&#45;&gt;Node_10</title>
<path fill="none" stroke="tan" d="M279.195,-146.313C279.986,-138.289 280.946,-128.547 281.831,-119.569"/>
<polygon fill="tan" stroke="tan" points="285.323,-119.824 282.821,-109.529 278.357,-119.137 285.323,-119.824"/>
</g>
<!-- Node_25 -->
<g id="node26" class="node"><title>Node_25</title>
<path fill="moccasin" stroke="moccasin" d="M393,-584.5C393,-584.5 476,-584.5 476,-584.5 482,-584.5 488,-590.5 488,-596.5 488,-596.5 488,-608.5 488,-608.5 488,-614.5 482,-620.5 476,-620.5 476,-620.5 393,-620.5 393,-620.5 387,-620.5 381,-614.5 381,-608.5 381,-608.5 381,-596.5 381,-596.5 381,-590.5 387,-584.5 393,-584.5"/>
<text text-anchor="middle" x="434.5" y="-600.3" font-family="Arial" font-size="9.00">k_1_t: [&#45;Infinity, Infinity]</text>
</g>
<!-- Node_24&#45;&gt;Node_25 -->
<g id="edge13" class="edge"><title>Node_24&#45;&gt;Node_25</title>
<path fill="none" stroke="steelblue" d="M437.71,-255.785C436.544,-282.814 434.5,-336.732 434.5,-382.5 434.5,-457.5 434.5,-457.5 434.5,-457.5 434.5,-498.067 434.5,-545.063 434.5,-574.039"/>
<polygon fill="steelblue" stroke="steelblue" points="431,-574.211 434.5,-584.211 438,-574.211 431,-574.211"/>
</g>
<!-- Node_25&#45;&gt;Node_2 -->
<g id="edge17" class="edge"><title>Node_25&#45;&gt;Node_2</title>
<path fill="none" stroke="tan" d="M417.313,-584.313C408.417,-575.417 397.409,-564.409 387.672,-554.672"/>
<polygon fill="tan" stroke="tan" points="390.075,-552.125 380.529,-547.529 385.125,-557.075 390.075,-552.125"/>
</g>
<!-- Node_25&#45;&gt;Node_6 -->
<g id="edge18" class="edge"><title>Node_25&#45;&gt;Node_6</title>
<path fill="none" stroke="tan" d="M452.171,-584.313C461.317,-575.417 472.635,-564.409 482.647,-554.672"/>
<polygon fill="tan" stroke="tan" points="485.263,-557.01 489.991,-547.529 480.383,-551.992 485.263,-557.01"/>
</g>
<!-- Node_26 -->
<g id="node27" class="node"><title>Node_26</title>
<path fill="moccasin" stroke="moccasin" d="M592.5,-438.5C592.5,-438.5 660.5,-438.5 660.5,-438.5 666.5,-438.5 672.5,-444.5 672.5,-450.5 672.5,-450.5 672.5,-462.5 672.5,-462.5 672.5,-468.5 666.5,-474.5 660.5,-474.5 660.5,-474.5 592.5,-474.5 592.5,-474.5 586.5,-474.5 580.5,-468.5 580.5,-462.5 580.5,-462.5 580.5,-450.5 580.5,-450.5 580.5,-444.5 586.5,-438.5 592.5,-438.5"/>
<text text-anchor="middle" x="626.5" y="-454.3" font-family="Arial" font-size="9.00">k_4: [200.0, 300.0]</text>
</g>
<!-- Node_26&#45;&gt;Node_20 -->
<g id="edge23" class="edge"><title>Node_26&#45;&gt;Node_20</title>
<path fill="none" stroke="tan" d="M604.471,-438.313C592.735,-429.156 578.129,-417.76 565.384,-407.816"/>
<polygon fill="tan" stroke="tan" points="567.363,-404.921 557.326,-401.529 563.057,-410.44 567.363,-404.921"/>
</g>
</g>
</svg>
