<?xml version="1.0" encoding="UTF-8" standalone="no"?>
<!DOCTYPE svg PUBLIC "-//W3C//DTD SVG 1.1//EN"
 "http://www.w3.org/Graphics/SVG/1.1/DTD/svg11.dtd">
<!-- Generated by graphviz version 2.38.0 (20140413.2041)
 -->
<!-- Title: t2_foo_ConstraintGraph Pages: 1 -->
<svg width="736pt" height="650pt"
     viewBox="0.00 0.00 736.00 650.00" xmlns="http://www.w3.org/2000/svg">
<g id="graph0" class="graph" transform="scale(1 1) rotate(0) translate(4 646)">
<title>t2_foo_ConstraintGraph</title>
<polygon fill="white" stroke="none" points="-4,4 -4,-646 732,-646 732,4 -4,4"/>
<text text-anchor="middle" x="364" y="-628.4" font-family="Arial" font-size="12.00">t2_foo_ConstraintGraph</text>
<!-- Node_0 -->
<g id="node1" class="node"><title>Node_0</title>
<path fill="lightblue" stroke="lightblue" d="M180,-584.5C180,-584.5 221,-584.5 221,-584.5 227,-584.5 233,-590.5 233,-596.5 233,-596.5 233,-608.5 233,-608.5 233,-614.5 227,-620.5 221,-620.5 221,-620.5 180,-620.5 180,-620.5 174,-620.5 168,-614.5 168,-608.5 168,-608.5 168,-596.5 168,-596.5 168,-590.5 174,-584.5 180,-584.5"/>
<text text-anchor="middle" x="200.5" y="-600.3" font-family="Arial" font-size="9.00">if (i_2 &lt; j_3)</text>
</g>
<!-- Node_1 -->
<g id="node2" class="node"><title>Node_1</title>
<path fill="moccasin" stroke="moccasin" d="M73.5,-511.5C73.5,-511.5 153.5,-511.5 153.5,-511.5 159.5,-511.5 165.5,-517.5 165.5,-523.5 165.5,-523.5 165.5,-535.5 165.5,-535.5 165.5,-541.5 159.5,-547.5 153.5,-547.5 153.5,-547.5 73.5,-547.5 73.5,-547.5 67.5,-547.5 61.5,-541.5 61.5,-535.5 61.5,-535.5 61.5,-523.5 61.5,-523.5 61.5,-517.5 67.5,-511.5 73.5,-511.5"/>
<text text-anchor="middle" x="113.5" y="-527.3" font-family="Arial" font-size="9.00">i_2_t: [&#45;Infinity, Infinity]</text>
</g>
<!-- Node_0&#45;&gt;Node_1 -->
<g id="edge1" class="edge"><title>Node_0&#45;&gt;Node_1</title>
<path fill="none" stroke="steelblue" d="M179.44,-584.313C168.326,-575.243 154.521,-563.977 142.419,-554.1"/>
<polygon fill="steelblue" stroke="steelblue" points="144.327,-551.14 134.366,-547.529 139.901,-556.563 144.327,-551.14"/>
</g>
<!-- Node_12 -->
<g id="node13" class="node"><title>Node_12</title>
<path fill="lightblue" stroke="lightblue" d="M40.5,-438.5C40.5,-438.5 90.5,-438.5 90.5,-438.5 96.5,-438.5 102.5,-444.5 102.5,-450.5 102.5,-450.5 102.5,-462.5 102.5,-462.5 102.5,-468.5 96.5,-474.5 90.5,-474.5 90.5,-474.5 40.5,-474.5 40.5,-474.5 34.5,-474.5 28.5,-468.5 28.5,-462.5 28.5,-462.5 28.5,-450.5 28.5,-450.5 28.5,-444.5 34.5,-438.5 40.5,-438.5"/>
<text text-anchor="middle" x="65.5" y="-454.3" font-family="Arial" font-size="9.00">i_7 = i_2_t + 1</text>
</g>
<!-- Node_1&#45;&gt;Node_12 -->
<g id="edge16" class="edge"><title>Node_1&#45;&gt;Node_12</title>
<path fill="none" stroke="tan" d="M101.881,-511.313C96.1025,-502.766 89.0061,-492.269 82.6197,-482.823"/>
<polygon fill="tan" stroke="tan" points="85.5128,-480.853 77.0125,-474.529 79.7137,-484.774 85.5128,-480.853"/>
</g>
<!-- Node_2 -->
<g id="node3" class="node"><title>Node_2</title>
<path fill="lightblue" stroke="lightblue" d="M393.5,-511.5C393.5,-511.5 431.5,-511.5 431.5,-511.5 437.5,-511.5 443.5,-517.5 443.5,-523.5 443.5,-523.5 443.5,-535.5 443.5,-535.5 443.5,-541.5 437.5,-547.5 431.5,-547.5 431.5,-547.5 393.5,-547.5 393.5,-547.5 387.5,-547.5 381.5,-541.5 381.5,-535.5 381.5,-535.5 381.5,-523.5 381.5,-523.5 381.5,-517.5 387.5,-511.5 393.5,-511.5"/>
<text text-anchor="middle" x="412.5" y="-527.3" font-family="Arial" font-size="9.00">j_6 = k_1_t</text>
</g>
<!-- Node_3 -->
<g id="node4" class="node"><title>Node_3</title>
<path fill="moccasin" stroke="moccasin" d="M363,-438.5C363,-438.5 436,-438.5 436,-438.5 442,-438.5 448,-444.5 448,-450.5 448,-450.5 448,-462.5 448,-462.5 448,-468.5 442,-474.5 436,-474.5 436,-474.5 363,-474.5 363,-474.5 357,-474.5 351,-468.5 351,-462.5 351,-462.5 351,-450.5 351,-450.5 351,-444.5 357,-438.5 363,-438.5"/>
<text text-anchor="middle" x="399.5" y="-454.3" font-family="Arial" font-size="9.00">j_6: [&#45;Infinity, Infinity]</text>
</g>
<!-- Node_2&#45;&gt;Node_3 -->
<g id="edge2" class="edge"><title>Node_2&#45;&gt;Node_3</title>
<path fill="none" stroke="steelblue" d="M409.353,-511.313C407.884,-503.289 406.1,-493.547 404.456,-484.569"/>
<polygon fill="steelblue" stroke="steelblue" points="407.862,-483.735 402.618,-474.529 400.976,-484.996 407.862,-483.735"/>
</g>
<!-- Node_16 -->
<g id="node17" class="node"><title>Node_16</title>
<path fill="lightblue" stroke="lightblue" d="M340,-365.5C340,-365.5 443,-365.5 443,-365.5 449,-365.5 455,-371.5 455,-377.5 455,-377.5 455,-389.5 455,-389.5 455,-395.5 449,-401.5 443,-401.5 443,-401.5 340,-401.5 340,-401.5 334,-401.5 328,-395.5 328,-389.5 328,-389.5 328,-377.5 328,-377.5 328,-371.5 334,-365.5 340,-365.5"/>
<text text-anchor="middle" x="391.5" y="-381.3" font-family="Arial" font-size="9.00"># j_3 = PHI &lt;j_6(3), j_8(4)&gt;</text>
</g>
<!-- Node_3&#45;&gt;Node_16 -->
<g id="edge22" class="edge"><title>Node_3&#45;&gt;Node_16</title>
<path fill="none" stroke="tan" d="M397.563,-438.313C396.659,-430.289 395.562,-420.547 394.55,-411.569"/>
<polygon fill="tan" stroke="tan" points="398.016,-411.074 393.419,-401.529 391.061,-411.858 398.016,-411.074"/>
</g>
<!-- Node_4 -->
<g id="node5" class="node"><title>Node_4</title>
<path fill="lightblue" stroke="lightblue" d="M148.5,-438.5C148.5,-438.5 178.5,-438.5 178.5,-438.5 184.5,-438.5 190.5,-444.5 190.5,-450.5 190.5,-450.5 190.5,-462.5 190.5,-462.5 190.5,-468.5 184.5,-474.5 178.5,-474.5 178.5,-474.5 148.5,-474.5 148.5,-474.5 142.5,-474.5 136.5,-468.5 136.5,-462.5 136.5,-462.5 136.5,-450.5 136.5,-450.5 136.5,-444.5 142.5,-438.5 148.5,-438.5"/>
<text text-anchor="middle" x="163.5" y="-454.3" font-family="Arial" font-size="9.00">i_5 = 0</text>
</g>
<!-- Node_5 -->
<g id="node6" class="node"><title>Node_5</title>
<path fill="moccasin" stroke="moccasin" d="M127,-365.5C127,-365.5 200,-365.5 200,-365.5 206,-365.5 212,-371.5 212,-377.5 212,-377.5 212,-389.5 212,-389.5 212,-395.5 206,-401.5 200,-401.5 200,-401.5 127,-401.5 127,-401.5 121,-401.5 115,-395.5 115,-389.5 115,-389.5 115,-377.5 115,-377.5 115,-371.5 121,-365.5 127,-365.5"/>
<text text-anchor="middle" x="163.5" y="-381.3" font-family="Arial" font-size="9.00">i_5: [&#45;Infinity, Infinity]</text>
</g>
<!-- Node_4&#45;&gt;Node_5 -->
<g id="edge3" class="edge"><title>Node_4&#45;&gt;Node_5</title>
<path fill="none" stroke="steelblue" d="M163.5,-438.313C163.5,-430.289 163.5,-420.547 163.5,-411.569"/>
<polygon fill="steelblue" stroke="steelblue" points="167,-411.529 163.5,-401.529 160,-411.529 167,-411.529"/>
</g>
<!-- Node_18 -->
<g id="node19" class="node"><title>Node_18</title>
<path fill="lightblue" stroke="lightblue" d="M97,-292.5C97,-292.5 200,-292.5 200,-292.5 206,-292.5 212,-298.5 212,-304.5 212,-304.5 212,-316.5 212,-316.5 212,-322.5 206,-328.5 200,-328.5 200,-328.5 97,-328.5 97,-328.5 91,-328.5 85,-322.5 85,-316.5 85,-316.5 85,-304.5 85,-304.5 85,-298.5 91,-292.5 97,-292.5"/>
<text text-anchor="middle" x="148.5" y="-308.3" font-family="Arial" font-size="9.00"># i_2 = PHI &lt;i_5(3), i_7(4)&gt;</text>
</g>
<!-- Node_5&#45;&gt;Node_18 -->
<g id="edge27" class="edge"><title>Node_5&#45;&gt;Node_18</title>
<path fill="none" stroke="tan" d="M159.869,-365.313C158.174,-357.289 156.116,-347.547 154.219,-338.569"/>
<polygon fill="tan" stroke="tan" points="157.589,-337.589 152.098,-328.529 150.74,-339.036 157.589,-337.589"/>
</g>
<!-- Node_6 -->
<g id="node7" class="node"><title>Node_6</title>
<path fill="lightblue" stroke="lightblue" d="M529,-511.5C529,-511.5 584,-511.5 584,-511.5 590,-511.5 596,-517.5 596,-523.5 596,-523.5 596,-535.5 596,-535.5 596,-541.5 590,-547.5 584,-547.5 584,-547.5 529,-547.5 529,-547.5 523,-547.5 517,-541.5 517,-535.5 517,-535.5 517,-523.5 517,-523.5 517,-517.5 523,-511.5 529,-511.5"/>
<text text-anchor="middle" x="556.5" y="-527.3" font-family="Arial" font-size="9.00">k_9 = k_1_t + 1</text>
</g>
<!-- Node_7 -->
<g id="node8" class="node"><title>Node_7</title>
<path fill="moccasin" stroke="moccasin" d="M524,-438.5C524,-438.5 599,-438.5 599,-438.5 605,-438.5 611,-444.5 611,-450.5 611,-450.5 611,-462.5 611,-462.5 611,-468.5 605,-474.5 599,-474.5 599,-474.5 524,-474.5 524,-474.5 518,-474.5 512,-468.5 512,-462.5 512,-462.5 512,-450.5 512,-450.5 512,-444.5 518,-438.5 524,-438.5"/>
<text text-anchor="middle" x="561.5" y="-454.3" font-family="Arial" font-size="9.00">k_9: [&#45;Infinity, Infinity]</text>
</g>
<!-- Node_6&#45;&gt;Node_7 -->
<g id="edge4" class="edge"><title>Node_6&#45;&gt;Node_7</title>
<path fill="none" stroke="steelblue" d="M557.71,-511.313C558.275,-503.289 558.961,-493.547 559.594,-484.569"/>
<polygon fill="steelblue" stroke="steelblue" points="563.09,-484.75 560.301,-474.529 556.107,-484.258 563.09,-484.75"/>
</g>
<!-- Node_20 -->
<g id="node21" class="node"><title>Node_20</title>
<path fill="lightblue" stroke="lightblue" d="M523.5,-365.5C523.5,-365.5 645.5,-365.5 645.5,-365.5 651.5,-365.5 657.5,-371.5 657.5,-377.5 657.5,-377.5 657.5,-389.5 657.5,-389.5 657.5,-395.5 651.5,-401.5 645.5,-401.5 645.5,-401.5 523.5,-401.5 523.5,-401.5 517.5,-401.5 511.5,-395.5 511.5,-389.5 511.5,-389.5 511.5,-377.5 511.5,-377.5 511.5,-371.5 517.5,-365.5 523.5,-365.5"/>
<text text-anchor="middle" x="584.5" y="-381.3" font-family="Arial" font-size="9.00"># k_1 = PHI &lt;k_4(D)(2), k_9(6)&gt;</text>
</g>
<!-- Node_7&#45;&gt;Node_20 -->
<g id="edge28" class="edge"><title>Node_7&#45;&gt;Node_20</title>
<path fill="none" stroke="tan" d="M567.068,-438.313C569.695,-430.202 572.891,-420.336 575.826,-411.277"/>
<polygon fill="tan" stroke="tan" points="579.231,-412.121 578.984,-401.529 572.572,-409.963 579.231,-412.121"/>
</g>
<!-- Node_8 -->
<g id="node9" class="node"><title>Node_8</title>
<path fill="lightblue" stroke="lightblue" d="M557,-73.5C557,-73.5 598,-73.5 598,-73.5 604,-73.5 610,-79.5 610,-85.5 610,-85.5 610,-97.5 610,-97.5 610,-103.5 604,-109.5 598,-109.5 598,-109.5 557,-109.5 557,-109.5 551,-109.5 545,-103.5 545,-97.5 545,-97.5 545,-85.5 545,-85.5 545,-79.5 551,-73.5 557,-73.5"/>
<text text-anchor="middle" x="577.5" y="-89.3" font-family="Arial" font-size="9.00">_10 = k_1_f</text>
</g>
<!-- Node_9 -->
<g id="node10" class="node"><title>Node_9</title>
<path fill="moccasin" stroke="moccasin" d="M539.5,-0.5C539.5,-0.5 615.5,-0.5 615.5,-0.5 621.5,-0.5 627.5,-6.5 627.5,-12.5 627.5,-12.5 627.5,-24.5 627.5,-24.5 627.5,-30.5 621.5,-36.5 615.5,-36.5 615.5,-36.5 539.5,-36.5 539.5,-36.5 533.5,-36.5 527.5,-30.5 527.5,-24.5 527.5,-24.5 527.5,-12.5 527.5,-12.5 527.5,-6.5 533.5,-0.5 539.5,-0.5"/>
<text text-anchor="middle" x="577.5" y="-16.3" font-family="Arial" font-size="9.00">_10: [&#45;Infinity, Infinity]</text>
</g>
<!-- Node_8&#45;&gt;Node_9 -->
<g id="edge5" class="edge"><title>Node_8&#45;&gt;Node_9</title>
<path fill="none" stroke="steelblue" d="M577.5,-73.3129C577.5,-65.2895 577.5,-55.5475 577.5,-46.5691"/>
<polygon fill="steelblue" stroke="steelblue" points="581,-46.5288 577.5,-36.5288 574,-46.5289 581,-46.5288"/>
</g>
<!-- Node_10 -->
<g id="node11" class="node"><title>Node_10</title>
<path fill="lightblue" stroke="lightblue" d="M307,-73.5C307,-73.5 360,-73.5 360,-73.5 366,-73.5 372,-79.5 372,-85.5 372,-85.5 372,-97.5 372,-97.5 372,-103.5 366,-109.5 360,-109.5 360,-109.5 307,-109.5 307,-109.5 301,-109.5 295,-103.5 295,-97.5 295,-97.5 295,-85.5 295,-85.5 295,-79.5 301,-73.5 307,-73.5"/>
<text text-anchor="middle" x="333.5" y="-89.3" font-family="Arial" font-size="9.00">j_8 = j_3_t + &#45;1</text>
</g>
<!-- Node_11 -->
<g id="node12" class="node"><title>Node_11</title>
<path fill="moccasin" stroke="moccasin" d="M337,-0.5C337,-0.5 410,-0.5 410,-0.5 416,-0.5 422,-6.5 422,-12.5 422,-12.5 422,-24.5 422,-24.5 422,-30.5 416,-36.5 410,-36.5 410,-36.5 337,-36.5 337,-36.5 331,-36.5 325,-30.5 325,-24.5 325,-24.5 325,-12.5 325,-12.5 325,-6.5 331,-0.5 337,-0.5"/>
<text text-anchor="middle" x="373.5" y="-16.3" font-family="Arial" font-size="9.00">j_8: [&#45;Infinity, Infinity]</text>
</g>
<!-- Node_10&#45;&gt;Node_11 -->
<g id="edge6" class="edge"><title>Node_10&#45;&gt;Node_11</title>
<path fill="none" stroke="steelblue" d="M343.183,-73.3129C347.9,-64.9407 353.671,-54.6971 358.907,-45.4026"/>
<polygon fill="steelblue" stroke="steelblue" points="362.047,-46.9593 363.906,-36.5288 355.948,-43.5234 362.047,-46.9593"/>
</g>
<!-- Node_11&#45;&gt;Node_16 -->
<g id="edge26" class="edge"><title>Node_11&#45;&gt;Node_16</title>
<path fill="none" stroke="tan" d="M380.02,-36.5001C389.637,-63.1476 406.5,-116.564 406.5,-163.5 406.5,-238.5 406.5,-238.5 406.5,-238.5 406.5,-279.287 400.473,-326.224 396.06,-355.127"/>
<polygon fill="tan" stroke="tan" points="392.561,-354.848 394.464,-365.271 399.476,-355.937 392.561,-354.848"/>
</g>
<!-- Node_13 -->
<g id="node14" class="node"><title>Node_13</title>
<path fill="moccasin" stroke="moccasin" d="M12,-365.5C12,-365.5 85,-365.5 85,-365.5 91,-365.5 97,-371.5 97,-377.5 97,-377.5 97,-389.5 97,-389.5 97,-395.5 91,-401.5 85,-401.5 85,-401.5 12,-401.5 12,-401.5 6,-401.5 0,-395.5 0,-389.5 0,-389.5 0,-377.5 0,-377.5 0,-371.5 6,-365.5 12,-365.5"/>
<text text-anchor="middle" x="48.5" y="-381.3" font-family="Arial" font-size="9.00">i_7: [&#45;Infinity, Infinity]</text>
</g>
<!-- Node_12&#45;&gt;Node_13 -->
<g id="edge7" class="edge"><title>Node_12&#45;&gt;Node_13</title>
<path fill="none" stroke="steelblue" d="M61.3848,-438.313C59.4428,-430.202 57.0803,-420.336 54.9113,-411.277"/>
<polygon fill="steelblue" stroke="steelblue" points="58.3097,-410.439 52.5773,-401.529 51.5022,-412.069 58.3097,-410.439"/>
</g>
<!-- Node_13&#45;&gt;Node_18 -->
<g id="edge19" class="edge"><title>Node_13&#45;&gt;Node_18</title>
<path fill="none" stroke="tan" d="M72.4525,-365.494C85.4678,-356.253 101.75,-344.692 115.906,-334.642"/>
<polygon fill="tan" stroke="tan" points="118.269,-337.257 124.396,-328.614 114.216,-331.549 118.269,-337.257"/>
</g>
<!-- Node_14 -->
<g id="node15" class="node"><title>Node_14</title>
<path fill="lightblue" stroke="lightblue" d="M557,-219.5C557,-219.5 598,-219.5 598,-219.5 604,-219.5 610,-225.5 610,-231.5 610,-231.5 610,-243.5 610,-243.5 610,-249.5 604,-255.5 598,-255.5 598,-255.5 557,-255.5 557,-255.5 551,-255.5 545,-249.5 545,-243.5 545,-243.5 545,-231.5 545,-231.5 545,-225.5 551,-219.5 557,-219.5"/>
<text text-anchor="middle" x="577.5" y="-235.3" font-family="Arial" font-size="9.00">if (k_1 &gt; 99)</text>
</g>
<!-- Node_15 -->
<g id="node16" class="node"><title>Node_15</title>
<path fill="moccasin" stroke="moccasin" d="M536,-146.5C536,-146.5 619,-146.5 619,-146.5 625,-146.5 631,-152.5 631,-158.5 631,-158.5 631,-170.5 631,-170.5 631,-176.5 625,-182.5 619,-182.5 619,-182.5 536,-182.5 536,-182.5 530,-182.5 524,-176.5 524,-170.5 524,-170.5 524,-158.5 524,-158.5 524,-152.5 530,-146.5 536,-146.5"/>
<text text-anchor="middle" x="577.5" y="-162.3" font-family="Arial" font-size="9.00">k_1_f: [&#45;Infinity, Infinity]</text>
</g>
<!-- Node_14&#45;&gt;Node_15 -->
<g id="edge8" class="edge"><title>Node_14&#45;&gt;Node_15</title>
<path fill="none" stroke="steelblue" d="M577.5,-219.313C577.5,-211.289 577.5,-201.547 577.5,-192.569"/>
<polygon fill="steelblue" stroke="steelblue" points="581,-192.529 577.5,-182.529 574,-192.529 581,-192.529"/>
</g>
<!-- Node_15&#45;&gt;Node_8 -->
<g id="edge21" class="edge"><title>Node_15&#45;&gt;Node_8</title>
<path fill="none" stroke="tan" d="M577.5,-146.313C577.5,-138.289 577.5,-128.547 577.5,-119.569"/>
<polygon fill="tan" stroke="tan" points="581,-119.529 577.5,-109.529 574,-119.529 581,-119.529"/>
</g>
<!-- Node_17 -->
<g id="node18" class="node"><title>Node_17</title>
<path fill="moccasin" stroke="moccasin" d="M292,-292.5C292,-292.5 365,-292.5 365,-292.5 371,-292.5 377,-298.5 377,-304.5 377,-304.5 377,-316.5 377,-316.5 377,-322.5 371,-328.5 365,-328.5 365,-328.5 292,-328.5 292,-328.5 286,-328.5 280,-322.5 280,-316.5 280,-316.5 280,-304.5 280,-304.5 280,-298.5 286,-292.5 292,-292.5"/>
<text text-anchor="middle" x="328.5" y="-308.3" font-family="Arial" font-size="9.00">j_3: [&#45;Infinity, Infinity]</text>
</g>
<!-- Node_16&#45;&gt;Node_17 -->
<g id="edge9" class="edge"><title>Node_16&#45;&gt;Node_17</title>
<path fill="none" stroke="steelblue" d="M376.249,-365.313C368.511,-356.592 358.971,-345.84 350.458,-336.246"/>
<polygon fill="steelblue" stroke="steelblue" points="352.865,-333.686 343.61,-328.529 347.629,-338.332 352.865,-333.686"/>
</g>
<!-- Node_22 -->
<g id="node23" class="node"><title>Node_22</title>
<path fill="lightblue" stroke="lightblue" d="M307,-219.5C307,-219.5 348,-219.5 348,-219.5 354,-219.5 360,-225.5 360,-231.5 360,-231.5 360,-243.5 360,-243.5 360,-249.5 354,-255.5 348,-255.5 348,-255.5 307,-255.5 307,-255.5 301,-255.5 295,-249.5 295,-243.5 295,-243.5 295,-231.5 295,-231.5 295,-225.5 301,-219.5 307,-219.5"/>
<text text-anchor="middle" x="327.5" y="-235.3" font-family="Arial" font-size="9.00">if (i_2 &lt; j_3)</text>
</g>
<!-- Node_17&#45;&gt;Node_22 -->
<g id="edge14" class="edge"><title>Node_17&#45;&gt;Node_22</title>
<path fill="none" stroke="tan" d="M328.258,-292.313C328.145,-284.289 328.008,-274.547 327.881,-265.569"/>
<polygon fill="tan" stroke="tan" points="331.38,-265.479 327.74,-255.529 324.381,-265.577 331.38,-265.479"/>
</g>
<!-- Node_19 -->
<g id="node20" class="node"><title>Node_19</title>
<path fill="moccasin" stroke="moccasin" d="M152,-219.5C152,-219.5 225,-219.5 225,-219.5 231,-219.5 237,-225.5 237,-231.5 237,-231.5 237,-243.5 237,-243.5 237,-249.5 231,-255.5 225,-255.5 225,-255.5 152,-255.5 152,-255.5 146,-255.5 140,-249.5 140,-243.5 140,-243.5 140,-231.5 140,-231.5 140,-225.5 146,-219.5 152,-219.5"/>
<text text-anchor="middle" x="188.5" y="-235.3" font-family="Arial" font-size="9.00">i_2: [&#45;Infinity, Infinity]</text>
</g>
<!-- Node_18&#45;&gt;Node_19 -->
<g id="edge10" class="edge"><title>Node_18&#45;&gt;Node_19</title>
<path fill="none" stroke="steelblue" d="M158.183,-292.313C162.9,-283.941 168.671,-273.697 173.907,-264.403"/>
<polygon fill="steelblue" stroke="steelblue" points="177.047,-265.959 178.906,-255.529 170.948,-262.523 177.047,-265.959"/>
</g>
<!-- Node_19&#45;&gt;Node_0 -->
<g id="edge20" class="edge"><title>Node_19&#45;&gt;Node_0</title>
<path fill="none" stroke="tan" d="M200.663,-255.595C207.384,-265.751 215.384,-279.126 220.5,-292 235.713,-330.281 240.5,-341.307 240.5,-382.5 240.5,-457.5 240.5,-457.5 240.5,-457.5 240.5,-499.742 224.322,-546.495 212.544,-574.938"/>
<polygon fill="tan" stroke="tan" points="209.298,-573.625 208.595,-584.197 215.737,-576.372 209.298,-573.625"/>
</g>
<!-- Node_21 -->
<g id="node22" class="node"><title>Node_21</title>
<path fill="moccasin" stroke="moccasin" d="M540,-292.5C540,-292.5 615,-292.5 615,-292.5 621,-292.5 627,-298.5 627,-304.5 627,-304.5 627,-316.5 627,-316.5 627,-322.5 621,-328.5 615,-328.5 615,-328.5 540,-328.5 540,-328.5 534,-328.5 528,-322.5 528,-316.5 528,-316.5 528,-304.5 528,-304.5 528,-298.5 534,-292.5 540,-292.5"/>
<text text-anchor="middle" x="577.5" y="-308.3" font-family="Arial" font-size="9.00">k_1: [&#45;Infinity, Infinity]</text>
</g>
<!-- Node_20&#45;&gt;Node_21 -->
<g id="edge11" class="edge"><title>Node_20&#45;&gt;Node_21</title>
<path fill="none" stroke="steelblue" d="M582.805,-365.313C582.014,-357.289 581.054,-347.547 580.169,-338.569"/>
<polygon fill="steelblue" stroke="steelblue" points="583.643,-338.137 579.179,-328.529 576.677,-338.824 583.643,-338.137"/>
</g>
<!-- Node_21&#45;&gt;Node_14 -->
<g id="edge24" class="edge"><title>Node_21&#45;&gt;Node_14</title>
<path fill="none" stroke="tan" d="M577.5,-292.313C577.5,-284.289 577.5,-274.547 577.5,-265.569"/>
<polygon fill="tan" stroke="tan" points="581,-265.529 577.5,-255.529 574,-265.529 581,-265.529"/>
</g>
<!-- Node_24 -->
<g id="node25" class="node"><title>Node_24</title>
<path fill="lightblue" stroke="lightblue" d="M464.5,-219.5C464.5,-219.5 510.5,-219.5 510.5,-219.5 516.5,-219.5 522.5,-225.5 522.5,-231.5 522.5,-231.5 522.5,-243.5 522.5,-243.5 522.5,-249.5 516.5,-255.5 510.5,-255.5 510.5,-255.5 464.5,-255.5 464.5,-255.5 458.5,-255.5 452.5,-249.5 452.5,-243.5 452.5,-243.5 452.5,-231.5 452.5,-231.5 452.5,-225.5 458.5,-219.5 464.5,-219.5"/>
<text text-anchor="middle" x="487.5" y="-235.3" font-family="Arial" font-size="9.00">if (k_1 &lt;= 99)</text>
</g>
<!-- Node_21&#45;&gt;Node_24 -->
<g id="edge25" class="edge"><title>Node_21&#45;&gt;Node_24</title>
<path fill="none" stroke="tan" d="M555.714,-292.313C544.106,-283.156 529.661,-271.76 517.055,-261.816"/>
<polygon fill="tan" stroke="tan" points="519.105,-258.975 509.086,-255.529 514.769,-264.47 519.105,-258.975"/>
</g>
<!-- Node_23 -->
<g id="node24" class="node"><title>Node_23</title>
<path fill="moccasin" stroke="moccasin" d="M286.5,-146.5C286.5,-146.5 366.5,-146.5 366.5,-146.5 372.5,-146.5 378.5,-152.5 378.5,-158.5 378.5,-158.5 378.5,-170.5 378.5,-170.5 378.5,-176.5 372.5,-182.5 366.5,-182.5 366.5,-182.5 286.5,-182.5 286.5,-182.5 280.5,-182.5 274.5,-176.5 274.5,-170.5 274.5,-170.5 274.5,-158.5 274.5,-158.5 274.5,-152.5 280.5,-146.5 286.5,-146.5"/>
<text text-anchor="middle" x="326.5" y="-162.3" font-family="Arial" font-size="9.00">j_3_t: [&#45;Infinity, Infinity]</text>
</g>
<!-- Node_22&#45;&gt;Node_23 -->
<g id="edge12" class="edge"><title>Node_22&#45;&gt;Node_23</title>
<path fill="none" stroke="steelblue" d="M327.258,-219.313C327.145,-211.289 327.008,-201.547 326.881,-192.569"/>
<polygon fill="steelblue" stroke="steelblue" points="330.38,-192.479 326.74,-182.529 323.381,-192.577 330.38,-192.479"/>
</g>
<!-- Node_23&#45;&gt;Node_10 -->
<g id="edge15" class="edge"><title>Node_23&#45;&gt;Node_10</title>
<path fill="none" stroke="tan" d="M328.195,-146.313C328.986,-138.289 329.946,-128.547 330.831,-119.569"/>
<polygon fill="tan" stroke="tan" points="334.323,-119.824 331.821,-109.529 327.357,-119.137 334.323,-119.824"/>
</g>
<!-- Node_25 -->
<g id="node26" class="node"><title>Node_25</title>
<path fill="moccasin" stroke="moccasin" d="M442,-584.5C442,-584.5 525,-584.5 525,-584.5 531,-584.5 537,-590.5 537,-596.5 537,-596.5 537,-608.5 537,-608.5 537,-614.5 531,-620.5 525,-620.5 525,-620.5 442,-620.5 442,-620.5 436,-620.5 430,-614.5 430,-608.5 430,-608.5 430,-596.5 430,-596.5 430,-590.5 436,-584.5 442,-584.5"/>
<text text-anchor="middle" x="483.5" y="-600.3" font-family="Arial" font-size="9.00">k_1_t: [&#45;Infinity, Infinity]</text>
</g>
<!-- Node_24&#45;&gt;Node_25 -->
<g id="edge13" class="edge"><title>Node_24&#45;&gt;Node_25</title>
<path fill="none" stroke="steelblue" d="M486.71,-255.785C485.544,-282.814 483.5,-336.732 483.5,-382.5 483.5,-457.5 483.5,-457.5 483.5,-457.5 483.5,-498.067 483.5,-545.063 483.5,-574.039"/>
<polygon fill="steelblue" stroke="steelblue" points="480,-574.211 483.5,-584.211 487,-574.211 480,-574.211"/>
</g>
<!-- Node_25&#45;&gt;Node_2 -->
<g id="edge17" class="edge"><title>Node_25&#45;&gt;Node_2</title>
<path fill="none" stroke="tan" d="M466.313,-584.313C457.417,-575.417 446.409,-564.409 436.672,-554.672"/>
<polygon fill="tan" stroke="tan" points="439.075,-552.125 429.529,-547.529 434.125,-557.075 439.075,-552.125"/>
</g>
<!-- Node_25&#45;&gt;Node_6 -->
<g id="edge18" class="edge"><title>Node_25&#45;&gt;Node_6</title>
<path fill="none" stroke="tan" d="M501.171,-584.313C510.317,-575.417 521.635,-564.409 531.647,-554.672"/>
<polygon fill="tan" stroke="tan" points="534.263,-557.01 538.991,-547.529 529.383,-551.992 534.263,-557.01"/>
</g>
<!-- Node_26 -->
<g id="node27" class="node"><title>Node_26</title>
<path fill="moccasin" stroke="moccasin" d="M641,-438.5C641,-438.5 716,-438.5 716,-438.5 722,-438.5 728,-444.5 728,-450.5 728,-450.5 728,-462.5 728,-462.5 728,-468.5 722,-474.5 716,-474.5 716,-474.5 641,-474.5 641,-474.5 635,-474.5 629,-468.5 629,-462.5 629,-462.5 629,-450.5 629,-450.5 629,-444.5 635,-438.5 641,-438.5"/>
<text text-anchor="middle" x="678.5" y="-454.3" font-family="Arial" font-size="9.00">k_4: [&#45;Infinity, Infinity]</text>
</g>
<!-- Node_26&#45;&gt;Node_20 -->
<g id="edge23" class="edge"><title>Node_26&#45;&gt;Node_20</title>
<path fill="none" stroke="tan" d="M655.745,-438.313C643.622,-429.156 628.534,-417.76 615.369,-407.816"/>
<polygon fill="tan" stroke="tan" points="617.134,-404.763 607.045,-401.529 612.915,-410.349 617.134,-404.763"/>
</g>
</g>
</svg>
