<?xml version="1.0" encoding="UTF-8" standalone="no"?>
<!DOCTYPE svg PUBLIC "-//W3C//DTD SVG 1.1//EN"
 "http://www.w3.org/Graphics/SVG/1.1/DTD/svg11.dtd">
<!-- Generated by graphviz version 2.38.0 (20140413.2041)
 -->
<!-- Title: t2_foo_ConstraintGraph Pages: 1 -->
<svg width="609pt" height="796pt"
     viewBox="0.00 0.00 608.50 796.00" xmlns="http://www.w3.org/2000/svg">
<g id="graph0" class="graph" transform="scale(1 1) rotate(0) translate(4 792)">
<title>t2_foo_ConstraintGraph</title>
<polygon fill="white" stroke="none" points="-4,4 -4,-792 604.5,-792 604.5,4 -4,4"/>
<text text-anchor="middle" x="300.25" y="-774.4" font-family="Arial" font-size="12.00">t2_foo_ConstraintGraph</text>
<!-- Node_0 -->
<g id="node1" class="node"><title>Node_0</title>
<path fill="lightblue" stroke="lightblue" d="M133.5,-511.5C133.5,-511.5 174.5,-511.5 174.5,-511.5 180.5,-511.5 186.5,-517.5 186.5,-523.5 186.5,-523.5 186.5,-535.5 186.5,-535.5 186.5,-541.5 180.5,-547.5 174.5,-547.5 174.5,-547.5 133.5,-547.5 133.5,-547.5 127.5,-547.5 121.5,-541.5 121.5,-535.5 121.5,-535.5 121.5,-523.5 121.5,-523.5 121.5,-517.5 127.5,-511.5 133.5,-511.5"/>
<text text-anchor="middle" x="154" y="-527.3" font-family="Arial" font-size="9.00">_10 = k_1_f</text>
</g>
<!-- Node_1 -->
<g id="node2" class="node"><title>Node_1</title>
<path fill="moccasin" stroke="moccasin" d="M137,-438.5C137,-438.5 181,-438.5 181,-438.5 187,-438.5 193,-444.5 193,-450.5 193,-450.5 193,-462.5 193,-462.5 193,-468.5 187,-474.5 181,-474.5 181,-474.5 137,-474.5 137,-474.5 131,-474.5 125,-468.5 125,-462.5 125,-462.5 125,-450.5 125,-450.5 125,-444.5 131,-438.5 137,-438.5"/>
<text text-anchor="middle" x="159" y="-454.3" font-family="Arial" font-size="9.00">_10: [&#45;inf, inf]</text>
</g>
<!-- Node_0&#45;&gt;Node_1 -->
<g id="edge1" class="edge"><title>Node_0&#45;&gt;Node_1</title>
<path fill="none" stroke="steelblue" d="M155.21,-511.313C155.775,-503.289 156.461,-493.547 157.094,-484.569"/>
<polygon fill="steelblue" stroke="steelblue" points="160.59,-484.75 157.801,-474.529 153.607,-484.258 160.59,-484.75"/>
</g>
<!-- Node_2 -->
<g id="node3" class="node"><title>Node_2</title>
<path fill="lightblue" stroke="lightblue" d="M220,-657.5C220,-657.5 266,-657.5 266,-657.5 272,-657.5 278,-663.5 278,-669.5 278,-669.5 278,-681.5 278,-681.5 278,-687.5 272,-693.5 266,-693.5 266,-693.5 220,-693.5 220,-693.5 214,-693.5 208,-687.5 208,-681.5 208,-681.5 208,-669.5 208,-669.5 208,-663.5 214,-657.5 220,-657.5"/>
<text text-anchor="middle" x="243" y="-673.3" font-family="Arial" font-size="9.00">if (k_1 &lt;= 99)</text>
</g>
<!-- Node_3 -->
<g id="node4" class="node"><title>Node_3</title>
<path fill="moccasin" stroke="moccasin" d="M220.5,-584.5C220.5,-584.5 271.5,-584.5 271.5,-584.5 277.5,-584.5 283.5,-590.5 283.5,-596.5 283.5,-596.5 283.5,-608.5 283.5,-608.5 283.5,-614.5 277.5,-620.5 271.5,-620.5 271.5,-620.5 220.5,-620.5 220.5,-620.5 214.5,-620.5 208.5,-614.5 208.5,-608.5 208.5,-608.5 208.5,-596.5 208.5,-596.5 208.5,-590.5 214.5,-584.5 220.5,-584.5"/>
<text text-anchor="middle" x="246" y="-600.3" font-family="Arial" font-size="9.00">k_1_t: [&#45;inf, inf]</text>
</g>
<!-- Node_2&#45;&gt;Node_3 -->
<g id="edge2" class="edge"><title>Node_2&#45;&gt;Node_3</title>
<path fill="none" stroke="steelblue" d="M243.726,-657.313C244.065,-649.289 244.477,-639.547 244.856,-630.569"/>
<polygon fill="steelblue" stroke="steelblue" points="248.355,-630.668 245.28,-620.529 241.361,-630.372 248.355,-630.668"/>
</g>
<!-- Node_14 -->
<g id="node15" class="node"><title>Node_14</title>
<path fill="lightblue" stroke="lightblue" d="M217.5,-511.5C217.5,-511.5 272.5,-511.5 272.5,-511.5 278.5,-511.5 284.5,-517.5 284.5,-523.5 284.5,-523.5 284.5,-535.5 284.5,-535.5 284.5,-541.5 278.5,-547.5 272.5,-547.5 272.5,-547.5 217.5,-547.5 217.5,-547.5 211.5,-547.5 205.5,-541.5 205.5,-535.5 205.5,-535.5 205.5,-523.5 205.5,-523.5 205.5,-517.5 211.5,-511.5 217.5,-511.5"/>
<text text-anchor="middle" x="245" y="-527.3" font-family="Arial" font-size="9.00">k_9 = k_1_t + 1</text>
</g>
<!-- Node_3&#45;&gt;Node_14 -->
<g id="edge27" class="edge"><title>Node_3&#45;&gt;Node_14</title>
<path fill="none" stroke="tan" d="M245.758,-584.313C245.645,-576.289 245.508,-566.547 245.381,-557.569"/>
<polygon fill="tan" stroke="tan" points="248.88,-557.479 245.24,-547.529 241.881,-557.577 248.88,-557.479"/>
</g>
<!-- Node_24 -->
<g id="node25" class="node"><title>Node_24</title>
<path fill="lightblue" stroke="lightblue" d="M315,-511.5C315,-511.5 353,-511.5 353,-511.5 359,-511.5 365,-517.5 365,-523.5 365,-523.5 365,-535.5 365,-535.5 365,-541.5 359,-547.5 353,-547.5 353,-547.5 315,-547.5 315,-547.5 309,-547.5 303,-541.5 303,-535.5 303,-535.5 303,-523.5 303,-523.5 303,-517.5 309,-511.5 315,-511.5"/>
<text text-anchor="middle" x="334" y="-527.3" font-family="Arial" font-size="9.00">j_6 = k_1_t</text>
</g>
<!-- Node_3&#45;&gt;Node_24 -->
<g id="edge28" class="edge"><title>Node_3&#45;&gt;Node_24</title>
<path fill="none" stroke="tan" d="M267.302,-584.313C278.652,-575.156 292.776,-563.76 305.101,-553.816"/>
<polygon fill="tan" stroke="tan" points="307.309,-556.532 312.894,-547.529 302.913,-551.084 307.309,-556.532"/>
</g>
<!-- Node_4 -->
<g id="node5" class="node"><title>Node_4</title>
<path fill="lightblue" stroke="lightblue" d="M282.5,-219.5C282.5,-219.5 323.5,-219.5 323.5,-219.5 329.5,-219.5 335.5,-225.5 335.5,-231.5 335.5,-231.5 335.5,-243.5 335.5,-243.5 335.5,-249.5 329.5,-255.5 323.5,-255.5 323.5,-255.5 282.5,-255.5 282.5,-255.5 276.5,-255.5 270.5,-249.5 270.5,-243.5 270.5,-243.5 270.5,-231.5 270.5,-231.5 270.5,-225.5 276.5,-219.5 282.5,-219.5"/>
<text text-anchor="middle" x="303" y="-235.3" font-family="Arial" font-size="9.00">if (i_2 &lt; j_3)</text>
</g>
<!-- Node_5 -->
<g id="node6" class="node"><title>Node_5</title>
<path fill="moccasin" stroke="moccasin" d="M277.5,-146.5C277.5,-146.5 326.5,-146.5 326.5,-146.5 332.5,-146.5 338.5,-152.5 338.5,-158.5 338.5,-158.5 338.5,-170.5 338.5,-170.5 338.5,-176.5 332.5,-182.5 326.5,-182.5 326.5,-182.5 277.5,-182.5 277.5,-182.5 271.5,-182.5 265.5,-176.5 265.5,-170.5 265.5,-170.5 265.5,-158.5 265.5,-158.5 265.5,-152.5 271.5,-146.5 277.5,-146.5"/>
<text text-anchor="middle" x="302" y="-162.3" font-family="Arial" font-size="9.00">j_3_t: [&#45;inf, inf]</text>
</g>
<!-- Node_4&#45;&gt;Node_5 -->
<g id="edge3" class="edge"><title>Node_4&#45;&gt;Node_5</title>
<path fill="none" stroke="steelblue" d="M302.758,-219.313C302.645,-211.289 302.508,-201.547 302.381,-192.569"/>
<polygon fill="steelblue" stroke="steelblue" points="305.88,-192.479 302.24,-182.529 298.881,-192.577 305.88,-192.479"/>
</g>
<!-- Node_22 -->
<g id="node23" class="node"><title>Node_22</title>
<path fill="lightblue" stroke="lightblue" d="M274.5,-73.5C274.5,-73.5 327.5,-73.5 327.5,-73.5 333.5,-73.5 339.5,-79.5 339.5,-85.5 339.5,-85.5 339.5,-97.5 339.5,-97.5 339.5,-103.5 333.5,-109.5 327.5,-109.5 327.5,-109.5 274.5,-109.5 274.5,-109.5 268.5,-109.5 262.5,-103.5 262.5,-97.5 262.5,-97.5 262.5,-85.5 262.5,-85.5 262.5,-79.5 268.5,-73.5 274.5,-73.5"/>
<text text-anchor="middle" x="301" y="-89.3" font-family="Arial" font-size="9.00">j_8 = j_3_t + &#45;1</text>
</g>
<!-- Node_5&#45;&gt;Node_22 -->
<g id="edge21" class="edge"><title>Node_5&#45;&gt;Node_22</title>
<path fill="none" stroke="tan" d="M301.758,-146.313C301.645,-138.289 301.508,-128.547 301.381,-119.569"/>
<polygon fill="tan" stroke="tan" points="304.88,-119.479 301.24,-109.529 297.881,-119.577 304.88,-119.479"/>
</g>
<!-- Node_6 -->
<g id="node7" class="node"><title>Node_6</title>
<path fill="lightblue" stroke="lightblue" d="M429,-730.5C429,-730.5 479,-730.5 479,-730.5 485,-730.5 491,-736.5 491,-742.5 491,-742.5 491,-754.5 491,-754.5 491,-760.5 485,-766.5 479,-766.5 479,-766.5 429,-766.5 429,-766.5 423,-766.5 417,-760.5 417,-754.5 417,-754.5 417,-742.5 417,-742.5 417,-736.5 423,-730.5 429,-730.5"/>
<text text-anchor="middle" x="454" y="-746.3" font-family="Arial" font-size="9.00">i_7 = i_2_t + 1</text>
</g>
<!-- Node_7 -->
<g id="node8" class="node"><title>Node_7</title>
<path fill="moccasin" stroke="moccasin" d="M464.5,-657.5C464.5,-657.5 505.5,-657.5 505.5,-657.5 511.5,-657.5 517.5,-663.5 517.5,-669.5 517.5,-669.5 517.5,-681.5 517.5,-681.5 517.5,-687.5 511.5,-693.5 505.5,-693.5 505.5,-693.5 464.5,-693.5 464.5,-693.5 458.5,-693.5 452.5,-687.5 452.5,-681.5 452.5,-681.5 452.5,-669.5 452.5,-669.5 452.5,-663.5 458.5,-657.5 464.5,-657.5"/>
<text text-anchor="middle" x="485" y="-673.3" font-family="Arial" font-size="9.00">i_7: [&#45;inf, inf]</text>
</g>
<!-- Node_6&#45;&gt;Node_7 -->
<g id="edge4" class="edge"><title>Node_6&#45;&gt;Node_7</title>
<path fill="none" stroke="steelblue" d="M461.504,-730.313C465.084,-722.115 469.446,-712.123 473.436,-702.985"/>
<polygon fill="steelblue" stroke="steelblue" points="476.771,-704.094 477.565,-693.529 470.356,-701.293 476.771,-704.094"/>
</g>
<!-- Node_10 -->
<g id="node11" class="node"><title>Node_10</title>
<path fill="lightblue" stroke="lightblue" d="M464.5,-584.5C464.5,-584.5 567.5,-584.5 567.5,-584.5 573.5,-584.5 579.5,-590.5 579.5,-596.5 579.5,-596.5 579.5,-608.5 579.5,-608.5 579.5,-614.5 573.5,-620.5 567.5,-620.5 567.5,-620.5 464.5,-620.5 464.5,-620.5 458.5,-620.5 452.5,-614.5 452.5,-608.5 452.5,-608.5 452.5,-596.5 452.5,-596.5 452.5,-590.5 458.5,-584.5 464.5,-584.5"/>
<text text-anchor="middle" x="516" y="-600.3" font-family="Arial" font-size="9.00"># i_2 = PHI &lt;i_5(3), i_7(4)&gt;</text>
</g>
<!-- Node_7&#45;&gt;Node_10 -->
<g id="edge26" class="edge"><title>Node_7&#45;&gt;Node_10</title>
<path fill="none" stroke="tan" d="M492.504,-657.313C496.084,-649.115 500.446,-639.123 504.436,-629.985"/>
<polygon fill="tan" stroke="tan" points="507.771,-631.094 508.565,-620.529 501.356,-628.293 507.771,-631.094"/>
</g>
<!-- Node_8 -->
<g id="node9" class="node"><title>Node_8</title>
<path fill="lightblue" stroke="lightblue" d="M282.5,-365.5C282.5,-365.5 385.5,-365.5 385.5,-365.5 391.5,-365.5 397.5,-371.5 397.5,-377.5 397.5,-377.5 397.5,-389.5 397.5,-389.5 397.5,-395.5 391.5,-401.5 385.5,-401.5 385.5,-401.5 282.5,-401.5 282.5,-401.5 276.5,-401.5 270.5,-395.5 270.5,-389.5 270.5,-389.5 270.5,-377.5 270.5,-377.5 270.5,-371.5 276.5,-365.5 282.5,-365.5"/>
<text text-anchor="middle" x="334" y="-381.3" font-family="Arial" font-size="9.00"># j_3 = PHI &lt;j_6(3), j_8(4)&gt;</text>
</g>
<!-- Node_9 -->
<g id="node10" class="node"><title>Node_9</title>
<path fill="moccasin" stroke="moccasin" d="M283.5,-292.5C283.5,-292.5 324.5,-292.5 324.5,-292.5 330.5,-292.5 336.5,-298.5 336.5,-304.5 336.5,-304.5 336.5,-316.5 336.5,-316.5 336.5,-322.5 330.5,-328.5 324.5,-328.5 324.5,-328.5 283.5,-328.5 283.5,-328.5 277.5,-328.5 271.5,-322.5 271.5,-316.5 271.5,-316.5 271.5,-304.5 271.5,-304.5 271.5,-298.5 277.5,-292.5 283.5,-292.5"/>
<text text-anchor="middle" x="304" y="-308.3" font-family="Arial" font-size="9.00">j_3: [&#45;inf, inf]</text>
</g>
<!-- Node_8&#45;&gt;Node_9 -->
<g id="edge5" class="edge"><title>Node_8&#45;&gt;Node_9</title>
<path fill="none" stroke="steelblue" d="M326.738,-365.313C323.274,-357.115 319.052,-347.123 315.191,-337.985"/>
<polygon fill="steelblue" stroke="steelblue" points="318.312,-336.378 311.195,-328.529 311.863,-339.103 318.312,-336.378"/>
</g>
<!-- Node_9&#45;&gt;Node_4 -->
<g id="edge18" class="edge"><title>Node_9&#45;&gt;Node_4</title>
<path fill="none" stroke="tan" d="M303.758,-292.313C303.645,-284.289 303.508,-274.547 303.381,-265.569"/>
<polygon fill="tan" stroke="tan" points="306.88,-265.479 303.24,-255.529 299.881,-265.577 306.88,-265.479"/>
</g>
<!-- Node_11 -->
<g id="node12" class="node"><title>Node_11</title>
<path fill="moccasin" stroke="moccasin" d="M487.5,-511.5C487.5,-511.5 528.5,-511.5 528.5,-511.5 534.5,-511.5 540.5,-517.5 540.5,-523.5 540.5,-523.5 540.5,-535.5 540.5,-535.5 540.5,-541.5 534.5,-547.5 528.5,-547.5 528.5,-547.5 487.5,-547.5 487.5,-547.5 481.5,-547.5 475.5,-541.5 475.5,-535.5 475.5,-535.5 475.5,-523.5 475.5,-523.5 475.5,-517.5 481.5,-511.5 487.5,-511.5"/>
<text text-anchor="middle" x="508" y="-527.3" font-family="Arial" font-size="9.00">i_2: [&#45;inf, inf]</text>
</g>
<!-- Node_10&#45;&gt;Node_11 -->
<g id="edge6" class="edge"><title>Node_10&#45;&gt;Node_11</title>
<path fill="none" stroke="steelblue" d="M514.063,-584.313C513.159,-576.289 512.062,-566.547 511.05,-557.569"/>
<polygon fill="steelblue" stroke="steelblue" points="514.516,-557.074 509.919,-547.529 507.561,-557.858 514.516,-557.074"/>
</g>
<!-- Node_16 -->
<g id="node17" class="node"><title>Node_16</title>
<path fill="lightblue" stroke="lightblue" d="M472.5,-438.5C472.5,-438.5 513.5,-438.5 513.5,-438.5 519.5,-438.5 525.5,-444.5 525.5,-450.5 525.5,-450.5 525.5,-462.5 525.5,-462.5 525.5,-468.5 519.5,-474.5 513.5,-474.5 513.5,-474.5 472.5,-474.5 472.5,-474.5 466.5,-474.5 460.5,-468.5 460.5,-462.5 460.5,-462.5 460.5,-450.5 460.5,-450.5 460.5,-444.5 466.5,-438.5 472.5,-438.5"/>
<text text-anchor="middle" x="493" y="-454.3" font-family="Arial" font-size="9.00">if (i_2 &lt; j_3)</text>
</g>
<!-- Node_11&#45;&gt;Node_16 -->
<g id="edge17" class="edge"><title>Node_11&#45;&gt;Node_16</title>
<path fill="none" stroke="tan" d="M504.369,-511.313C502.674,-503.289 500.616,-493.547 498.719,-484.569"/>
<polygon fill="tan" stroke="tan" points="502.089,-483.589 496.598,-474.529 495.24,-485.036 502.089,-483.589"/>
</g>
<!-- Node_12 -->
<g id="node13" class="node"><title>Node_12</title>
<path fill="lightblue" stroke="lightblue" d="M132.5,-657.5C132.5,-657.5 173.5,-657.5 173.5,-657.5 179.5,-657.5 185.5,-663.5 185.5,-669.5 185.5,-669.5 185.5,-681.5 185.5,-681.5 185.5,-687.5 179.5,-693.5 173.5,-693.5 173.5,-693.5 132.5,-693.5 132.5,-693.5 126.5,-693.5 120.5,-687.5 120.5,-681.5 120.5,-681.5 120.5,-669.5 120.5,-669.5 120.5,-663.5 126.5,-657.5 132.5,-657.5"/>
<text text-anchor="middle" x="153" y="-673.3" font-family="Arial" font-size="9.00">if (k_1 &gt; 99)</text>
</g>
<!-- Node_13 -->
<g id="node14" class="node"><title>Node_13</title>
<path fill="moccasin" stroke="moccasin" d="M127.5,-584.5C127.5,-584.5 178.5,-584.5 178.5,-584.5 184.5,-584.5 190.5,-590.5 190.5,-596.5 190.5,-596.5 190.5,-608.5 190.5,-608.5 190.5,-614.5 184.5,-620.5 178.5,-620.5 178.5,-620.5 127.5,-620.5 127.5,-620.5 121.5,-620.5 115.5,-614.5 115.5,-608.5 115.5,-608.5 115.5,-596.5 115.5,-596.5 115.5,-590.5 121.5,-584.5 127.5,-584.5"/>
<text text-anchor="middle" x="153" y="-600.3" font-family="Arial" font-size="9.00">k_1_f: [&#45;inf, inf]</text>
</g>
<!-- Node_12&#45;&gt;Node_13 -->
<g id="edge7" class="edge"><title>Node_12&#45;&gt;Node_13</title>
<path fill="none" stroke="steelblue" d="M153,-657.313C153,-649.289 153,-639.547 153,-630.569"/>
<polygon fill="steelblue" stroke="steelblue" points="156.5,-630.529 153,-620.529 149.5,-630.529 156.5,-630.529"/>
</g>
<!-- Node_13&#45;&gt;Node_0 -->
<g id="edge24" class="edge"><title>Node_13&#45;&gt;Node_0</title>
<path fill="none" stroke="tan" d="M153.242,-584.313C153.355,-576.289 153.492,-566.547 153.619,-557.569"/>
<polygon fill="tan" stroke="tan" points="157.119,-557.577 153.76,-547.529 150.12,-557.479 157.119,-557.577"/>
</g>
<!-- Node_15 -->
<g id="node16" class="node"><title>Node_15</title>
<path fill="moccasin" stroke="moccasin" d="M223,-438.5C223,-438.5 267,-438.5 267,-438.5 273,-438.5 279,-444.5 279,-450.5 279,-450.5 279,-462.5 279,-462.5 279,-468.5 273,-474.5 267,-474.5 267,-474.5 223,-474.5 223,-474.5 217,-474.5 211,-468.5 211,-462.5 211,-462.5 211,-450.5 211,-450.5 211,-444.5 217,-438.5 223,-438.5"/>
<text text-anchor="middle" x="245" y="-454.3" font-family="Arial" font-size="9.00">k_9: [&#45;inf, inf]</text>
</g>
<!-- Node_14&#45;&gt;Node_15 -->
<g id="edge8" class="edge"><title>Node_14&#45;&gt;Node_15</title>
<path fill="none" stroke="steelblue" d="M245,-511.313C245,-503.289 245,-493.547 245,-484.569"/>
<polygon fill="steelblue" stroke="steelblue" points="248.5,-484.529 245,-474.529 241.5,-484.529 248.5,-484.529"/>
</g>
<!-- Node_20 -->
<g id="node21" class="node"><title>Node_20</title>
<path fill="lightblue" stroke="lightblue" d="M12,-365.5C12,-365.5 134,-365.5 134,-365.5 140,-365.5 146,-371.5 146,-377.5 146,-377.5 146,-389.5 146,-389.5 146,-395.5 140,-401.5 134,-401.5 134,-401.5 12,-401.5 12,-401.5 6,-401.5 0,-395.5 0,-389.5 0,-389.5 0,-377.5 0,-377.5 0,-371.5 6,-365.5 12,-365.5"/>
<text text-anchor="middle" x="73" y="-381.3" font-family="Arial" font-size="9.00"># k_1 = PHI &lt;k_4(D)(2), k_9(6)&gt;</text>
</g>
<!-- Node_15&#45;&gt;Node_20 -->
<g id="edge14" class="edge"><title>Node_15&#45;&gt;Node_20</title>
<path fill="none" stroke="tan" d="M210.607,-441.303C185.68,-431.013 151.576,-416.935 123.556,-405.369"/>
<polygon fill="tan" stroke="tan" points="124.887,-402.132 114.309,-401.552 122.216,-408.603 124.887,-402.132"/>
</g>
<!-- Node_17 -->
<g id="node18" class="node"><title>Node_17</title>
<path fill="moccasin" stroke="moccasin" d="M427.5,-365.5C427.5,-365.5 476.5,-365.5 476.5,-365.5 482.5,-365.5 488.5,-371.5 488.5,-377.5 488.5,-377.5 488.5,-389.5 488.5,-389.5 488.5,-395.5 482.5,-401.5 476.5,-401.5 476.5,-401.5 427.5,-401.5 427.5,-401.5 421.5,-401.5 415.5,-395.5 415.5,-389.5 415.5,-389.5 415.5,-377.5 415.5,-377.5 415.5,-371.5 421.5,-365.5 427.5,-365.5"/>
<text text-anchor="middle" x="452" y="-381.3" font-family="Arial" font-size="9.00">i_2_t: [&#45;inf, inf]</text>
</g>
<!-- Node_16&#45;&gt;Node_17 -->
<g id="edge9" class="edge"><title>Node_16&#45;&gt;Node_17</title>
<path fill="none" stroke="steelblue" d="M483.075,-438.313C478.24,-429.941 472.325,-419.697 466.958,-410.403"/>
<polygon fill="steelblue" stroke="steelblue" points="469.865,-408.438 461.834,-401.529 463.803,-411.939 469.865,-408.438"/>
</g>
<!-- Node_17&#45;&gt;Node_6 -->
<g id="edge19" class="edge"><title>Node_17&#45;&gt;Node_6</title>
<path fill="none" stroke="tan" d="M446.468,-401.58C438.308,-428.335 424,-481.893 424,-528.5 424,-603.5 424,-603.5 424,-603.5 424,-645.121 436.16,-692.113 444.996,-720.767"/>
<polygon fill="tan" stroke="tan" points="441.709,-721.98 448.073,-730.45 448.381,-719.86 441.709,-721.98"/>
</g>
<!-- Node_18 -->
<g id="node19" class="node"><title>Node_18</title>
<path fill="lightblue" stroke="lightblue" d="M553,-730.5C553,-730.5 583,-730.5 583,-730.5 589,-730.5 595,-736.5 595,-742.5 595,-742.5 595,-754.5 595,-754.5 595,-760.5 589,-766.5 583,-766.5 583,-766.5 553,-766.5 553,-766.5 547,-766.5 541,-760.5 541,-754.5 541,-754.5 541,-742.5 541,-742.5 541,-736.5 547,-730.5 553,-730.5"/>
<text text-anchor="middle" x="568" y="-746.3" font-family="Arial" font-size="9.00">i_5 = 0</text>
</g>
<!-- Node_19 -->
<g id="node20" class="node"><title>Node_19</title>
<path fill="moccasin" stroke="moccasin" d="M547.5,-657.5C547.5,-657.5 588.5,-657.5 588.5,-657.5 594.5,-657.5 600.5,-663.5 600.5,-669.5 600.5,-669.5 600.5,-681.5 600.5,-681.5 600.5,-687.5 594.5,-693.5 588.5,-693.5 588.5,-693.5 547.5,-693.5 547.5,-693.5 541.5,-693.5 535.5,-687.5 535.5,-681.5 535.5,-681.5 535.5,-669.5 535.5,-669.5 535.5,-663.5 541.5,-657.5 547.5,-657.5"/>
<text text-anchor="middle" x="568" y="-673.3" font-family="Arial" font-size="9.00">i_5: [&#45;inf, inf]</text>
</g>
<!-- Node_18&#45;&gt;Node_19 -->
<g id="edge10" class="edge"><title>Node_18&#45;&gt;Node_19</title>
<path fill="none" stroke="steelblue" d="M568,-730.313C568,-722.289 568,-712.547 568,-703.569"/>
<polygon fill="steelblue" stroke="steelblue" points="571.5,-703.529 568,-693.529 564.5,-703.529 571.5,-703.529"/>
</g>
<!-- Node_19&#45;&gt;Node_10 -->
<g id="edge23" class="edge"><title>Node_19&#45;&gt;Node_10</title>
<path fill="none" stroke="tan" d="M555.412,-657.313C549.153,-648.766 541.465,-638.269 534.546,-628.823"/>
<polygon fill="tan" stroke="tan" points="537.204,-626.528 528.472,-620.529 531.557,-630.665 537.204,-626.528"/>
</g>
<!-- Node_21 -->
<g id="node22" class="node"><title>Node_21</title>
<path fill="moccasin" stroke="moccasin" d="M131,-730.5C131,-730.5 175,-730.5 175,-730.5 181,-730.5 187,-736.5 187,-742.5 187,-742.5 187,-754.5 187,-754.5 187,-760.5 181,-766.5 175,-766.5 175,-766.5 131,-766.5 131,-766.5 125,-766.5 119,-760.5 119,-754.5 119,-754.5 119,-742.5 119,-742.5 119,-736.5 125,-730.5 131,-730.5"/>
<text text-anchor="middle" x="153" y="-746.3" font-family="Arial" font-size="9.00">k_1: [&#45;inf, inf]</text>
</g>
<!-- Node_20&#45;&gt;Node_21 -->
<g id="edge11" class="edge"><title>Node_20&#45;&gt;Node_21</title>
<path fill="none" stroke="steelblue" d="M55.5336,-401.85C46.6064,-411.674 36.3203,-424.644 30,-438 12.4208,-475.15 11,-487.401 11,-528.5 11,-603.5 11,-603.5 11,-603.5 11,-660.58 68.2659,-703.236 110.065,-726.768"/>
<polygon fill="steelblue" stroke="steelblue" points="108.533,-729.919 118.987,-731.637 111.886,-723.775 108.533,-729.919"/>
</g>
<!-- Node_21&#45;&gt;Node_2 -->
<g id="edge15" class="edge"><title>Node_21&#45;&gt;Node_2</title>
<path fill="none" stroke="tan" d="M174.786,-730.313C186.394,-721.156 200.839,-709.76 213.445,-699.816"/>
<polygon fill="tan" stroke="tan" points="215.731,-702.47 221.414,-693.529 211.395,-696.975 215.731,-702.47"/>
</g>
<!-- Node_21&#45;&gt;Node_12 -->
<g id="edge16" class="edge"><title>Node_21&#45;&gt;Node_12</title>
<path fill="none" stroke="tan" d="M153,-730.313C153,-722.289 153,-712.547 153,-703.569"/>
<polygon fill="tan" stroke="tan" points="156.5,-703.529 153,-693.529 149.5,-703.529 156.5,-703.529"/>
</g>
<!-- Node_23 -->
<g id="node24" class="node"><title>Node_23</title>
<path fill="moccasin" stroke="moccasin" d="M313.5,-0.5C313.5,-0.5 354.5,-0.5 354.5,-0.5 360.5,-0.5 366.5,-6.5 366.5,-12.5 366.5,-12.5 366.5,-24.5 366.5,-24.5 366.5,-30.5 360.5,-36.5 354.5,-36.5 354.5,-36.5 313.5,-36.5 313.5,-36.5 307.5,-36.5 301.5,-30.5 301.5,-24.5 301.5,-24.5 301.5,-12.5 301.5,-12.5 301.5,-6.5 307.5,-0.5 313.5,-0.5"/>
<text text-anchor="middle" x="334" y="-16.3" font-family="Arial" font-size="9.00">j_8: [&#45;inf, inf]</text>
</g>
<!-- Node_22&#45;&gt;Node_23 -->
<g id="edge12" class="edge"><title>Node_22&#45;&gt;Node_23</title>
<path fill="none" stroke="steelblue" d="M308.988,-73.3129C312.839,-65.0279 317.542,-54.9103 321.826,-45.6933"/>
<polygon fill="steelblue" stroke="steelblue" points="325.044,-47.0724 326.085,-36.5288 318.696,-44.122 325.044,-47.0724"/>
</g>
<!-- Node_23&#45;&gt;Node_8 -->
<g id="edge22" class="edge"><title>Node_23&#45;&gt;Node_8</title>
<path fill="none" stroke="tan" d="M340.88,-36.9214C350.815,-63.6898 368,-116.749 368,-163.5 368,-238.5 368,-238.5 368,-238.5 368,-280.138 354.369,-326.779 344.369,-355.394"/>
<polygon fill="tan" stroke="tan" points="340.976,-354.484 340.88,-365.079 347.562,-356.856 340.976,-354.484"/>
</g>
<!-- Node_25 -->
<g id="node26" class="node"><title>Node_25</title>
<path fill="moccasin" stroke="moccasin" d="M313.5,-438.5C313.5,-438.5 354.5,-438.5 354.5,-438.5 360.5,-438.5 366.5,-444.5 366.5,-450.5 366.5,-450.5 366.5,-462.5 366.5,-462.5 366.5,-468.5 360.5,-474.5 354.5,-474.5 354.5,-474.5 313.5,-474.5 313.5,-474.5 307.5,-474.5 301.5,-468.5 301.5,-462.5 301.5,-462.5 301.5,-450.5 301.5,-450.5 301.5,-444.5 307.5,-438.5 313.5,-438.5"/>
<text text-anchor="middle" x="334" y="-454.3" font-family="Arial" font-size="9.00">j_6: [&#45;inf, inf]</text>
</g>
<!-- Node_24&#45;&gt;Node_25 -->
<g id="edge13" class="edge"><title>Node_24&#45;&gt;Node_25</title>
<path fill="none" stroke="steelblue" d="M334,-511.313C334,-503.289 334,-493.547 334,-484.569"/>
<polygon fill="steelblue" stroke="steelblue" points="337.5,-484.529 334,-474.529 330.5,-484.529 337.5,-484.529"/>
</g>
<!-- Node_25&#45;&gt;Node_8 -->
<g id="edge25" class="edge"><title>Node_25&#45;&gt;Node_8</title>
<path fill="none" stroke="tan" d="M334,-438.313C334,-430.289 334,-420.547 334,-411.569"/>
<polygon fill="tan" stroke="tan" points="337.5,-411.529 334,-401.529 330.5,-411.529 337.5,-411.529"/>
</g>
<!-- Node_26 -->
<g id="node27" class="node"><title>Node_26</title>
<path fill="moccasin" stroke="moccasin" d="M51,-438.5C51,-438.5 95,-438.5 95,-438.5 101,-438.5 107,-444.5 107,-450.5 107,-450.5 107,-462.5 107,-462.5 107,-468.5 101,-474.5 95,-474.5 95,-474.5 51,-474.5 51,-474.5 45,-474.5 39,-468.5 39,-462.5 39,-462.5 39,-450.5 39,-450.5 39,-444.5 45,-438.5 51,-438.5"/>
<text text-anchor="middle" x="73" y="-454.3" font-family="Arial" font-size="9.00">k_4: [&#45;inf, inf]</text>
</g>
<!-- Node_26&#45;&gt;Node_20 -->
<g id="edge20" class="edge"><title>Node_26&#45;&gt;Node_20</title>
<path fill="none" stroke="tan" d="M73,-438.313C73,-430.289 73,-420.547 73,-411.569"/>
<polygon fill="tan" stroke="tan" points="76.5001,-411.529 73,-401.529 69.5001,-411.529 76.5001,-411.529"/>
</g>
</g>
</svg>
