<?xml version="1.0" encoding="UTF-8" standalone="no"?>
<!DOCTYPE svg PUBLIC "-//W3C//DTD SVG 1.1//EN"
 "http://www.w3.org/Graphics/SVG/1.1/DTD/svg11.dtd">
<!-- Generated by graphviz version 2.38.0 (20140413.2041)
 -->
<!-- Title: t2_foo_ConstraintGraph Pages: 1 -->
<svg width="757pt" height="796pt"
     viewBox="0.00 0.00 756.63 796.00" xmlns="http://www.w3.org/2000/svg">
<g id="graph0" class="graph" transform="scale(1 1) rotate(0) translate(4 792)">
<title>t2_foo_ConstraintGraph</title>
<polygon fill="white" stroke="none" points="-4,4 -4,-792 752.631,-792 752.631,4 -4,4"/>
<text text-anchor="middle" x="374.316" y="-774.4" font-family="Arial" font-size="12.00">t2_foo_ConstraintGraph</text>
<!-- Node_0 -->
<g id="node1" class="node"><title>Node_0</title>
<path fill="lightblue" stroke="lightblue" d="M157,-730.5C157,-730.5 198,-730.5 198,-730.5 204,-730.5 210,-736.5 210,-742.5 210,-742.5 210,-754.5 210,-754.5 210,-760.5 204,-766.5 198,-766.5 198,-766.5 157,-766.5 157,-766.5 151,-766.5 145,-760.5 145,-754.5 145,-754.5 145,-742.5 145,-742.5 145,-736.5 151,-730.5 157,-730.5"/>
<text text-anchor="middle" x="177.5" y="-746.3" font-family="Arial" font-size="9.00">if (i_2 &lt; j_3)</text>
</g>
<!-- Node_1 -->
<g id="node2" class="node"><title>Node_1</title>
<path fill="moccasin" stroke="moccasin" d="M73.5,-657.5C73.5,-657.5 153.5,-657.5 153.5,-657.5 159.5,-657.5 165.5,-663.5 165.5,-669.5 165.5,-669.5 165.5,-681.5 165.5,-681.5 165.5,-687.5 159.5,-693.5 153.5,-693.5 153.5,-693.5 73.5,-693.5 73.5,-693.5 67.5,-693.5 61.5,-687.5 61.5,-681.5 61.5,-681.5 61.5,-669.5 61.5,-669.5 61.5,-663.5 67.5,-657.5 73.5,-657.5"/>
<text text-anchor="middle" x="113.5" y="-673.3" font-family="Arial" font-size="9.00">i_2_t: [&#45;Infinity, Infinity]</text>
</g>
<!-- Node_0&#45;&gt;Node_1 -->
<g id="edge1" class="edge"><title>Node_0&#45;&gt;Node_1</title>
<path fill="none" stroke="steelblue" d="M162.007,-730.313C154.068,-721.505 144.261,-710.625 135.547,-700.958"/>
<polygon fill="steelblue" stroke="steelblue" points="138.145,-698.613 128.85,-693.529 132.946,-703.3 138.145,-698.613"/>
</g>
<!-- Node_20 -->
<g id="node21" class="node"><title>Node_20</title>
<path fill="lightblue" stroke="lightblue" d="M40.5,-584.5C40.5,-584.5 90.5,-584.5 90.5,-584.5 96.5,-584.5 102.5,-590.5 102.5,-596.5 102.5,-596.5 102.5,-608.5 102.5,-608.5 102.5,-614.5 96.5,-620.5 90.5,-620.5 90.5,-620.5 40.5,-620.5 40.5,-620.5 34.5,-620.5 28.5,-614.5 28.5,-608.5 28.5,-608.5 28.5,-596.5 28.5,-596.5 28.5,-590.5 34.5,-584.5 40.5,-584.5"/>
<text text-anchor="middle" x="65.5" y="-600.3" font-family="Arial" font-size="9.00">i_7 = i_2_t + 1</text>
</g>
<!-- Node_1&#45;&gt;Node_20 -->
<g id="edge27" class="edge"><title>Node_1&#45;&gt;Node_20</title>
<path fill="none" stroke="tan" d="M101.881,-657.313C96.1025,-648.766 89.0061,-638.269 82.6197,-628.823"/>
<polygon fill="tan" stroke="tan" points="85.5128,-626.853 77.0125,-620.529 79.7137,-630.774 85.5128,-626.853"/>
</g>
<!-- Node_2 -->
<g id="node3" class="node"><title>Node_2</title>
<path fill="lightblue" stroke="lightblue" d="M365,-657.5C365,-657.5 406,-657.5 406,-657.5 412,-657.5 418,-663.5 418,-669.5 418,-669.5 418,-681.5 418,-681.5 418,-687.5 412,-693.5 406,-693.5 406,-693.5 365,-693.5 365,-693.5 359,-693.5 353,-687.5 353,-681.5 353,-681.5 353,-669.5 353,-669.5 353,-663.5 359,-657.5 365,-657.5"/>
<text text-anchor="middle" x="385.5" y="-673.3" font-family="Arial" font-size="9.00">if (k_1 &gt; 99)</text>
</g>
<!-- Node_3 -->
<g id="node4" class="node"><title>Node_3</title>
<path fill="moccasin" stroke="moccasin" d="M316,-584.5C316,-584.5 399,-584.5 399,-584.5 405,-584.5 411,-590.5 411,-596.5 411,-596.5 411,-608.5 411,-608.5 411,-614.5 405,-620.5 399,-620.5 399,-620.5 316,-620.5 316,-620.5 310,-620.5 304,-614.5 304,-608.5 304,-608.5 304,-596.5 304,-596.5 304,-590.5 310,-584.5 316,-584.5"/>
<text text-anchor="middle" x="357.5" y="-600.3" font-family="Arial" font-size="9.00">k_1_f: [&#45;Infinity, Infinity]</text>
</g>
<!-- Node_2&#45;&gt;Node_3 -->
<g id="edge2" class="edge"><title>Node_2&#45;&gt;Node_3</title>
<path fill="none" stroke="steelblue" d="M378.722,-657.313C375.489,-649.115 371.549,-639.123 367.945,-629.985"/>
<polygon fill="steelblue" stroke="steelblue" points="371.14,-628.548 364.216,-620.529 364.628,-631.116 371.14,-628.548"/>
</g>
<!-- Node_22 -->
<g id="node23" class="node"><title>Node_22</title>
<path fill="lightblue" stroke="lightblue" d="M319,-511.5C319,-511.5 360,-511.5 360,-511.5 366,-511.5 372,-517.5 372,-523.5 372,-523.5 372,-535.5 372,-535.5 372,-541.5 366,-547.5 360,-547.5 360,-547.5 319,-547.5 319,-547.5 313,-547.5 307,-541.5 307,-535.5 307,-535.5 307,-523.5 307,-523.5 307,-517.5 313,-511.5 319,-511.5"/>
<text text-anchor="middle" x="339.5" y="-527.3" font-family="Arial" font-size="9.00">_10 = k_1_f</text>
</g>
<!-- Node_3&#45;&gt;Node_22 -->
<g id="edge28" class="edge"><title>Node_3&#45;&gt;Node_22</title>
<path fill="none" stroke="tan" d="M353.143,-584.313C351.086,-576.202 348.585,-566.336 346.288,-557.277"/>
<polygon fill="tan" stroke="tan" points="349.667,-556.362 343.817,-547.529 342.882,-558.082 349.667,-556.362"/>
</g>
<!-- Node_4 -->
<g id="node5" class="node"><title>Node_4</title>
<path fill="lightblue" stroke="lightblue" d="M386,-365.5C386,-365.5 489,-365.5 489,-365.5 495,-365.5 501,-371.5 501,-377.5 501,-377.5 501,-389.5 501,-389.5 501,-395.5 495,-401.5 489,-401.5 489,-401.5 386,-401.5 386,-401.5 380,-401.5 374,-395.5 374,-389.5 374,-389.5 374,-377.5 374,-377.5 374,-371.5 380,-365.5 386,-365.5"/>
<text text-anchor="middle" x="437.5" y="-381.3" font-family="Arial" font-size="9.00"># j_3 = PHI &lt;j_6(3), j_8(4)&gt;</text>
</g>
<!-- Node_5 -->
<g id="node6" class="node"><title>Node_5</title>
<path fill="moccasin" stroke="moccasin" d="M363,-292.5C363,-292.5 436,-292.5 436,-292.5 442,-292.5 448,-298.5 448,-304.5 448,-304.5 448,-316.5 448,-316.5 448,-322.5 442,-328.5 436,-328.5 436,-328.5 363,-328.5 363,-328.5 357,-328.5 351,-322.5 351,-316.5 351,-316.5 351,-304.5 351,-304.5 351,-298.5 357,-292.5 363,-292.5"/>
<text text-anchor="middle" x="399.5" y="-308.3" font-family="Arial" font-size="9.00">j_3: [&#45;Infinity, Infinity]</text>
</g>
<!-- Node_4&#45;&gt;Node_5 -->
<g id="edge3" class="edge"><title>Node_4&#45;&gt;Node_5</title>
<path fill="none" stroke="steelblue" d="M428.301,-365.313C423.82,-356.941 418.338,-346.697 413.363,-337.403"/>
<polygon fill="steelblue" stroke="steelblue" points="416.419,-335.694 408.614,-328.529 410.247,-338.997 416.419,-335.694"/>
</g>
<!-- Node_6 -->
<g id="node7" class="node"><title>Node_6</title>
<path fill="lightblue" stroke="lightblue" d="M378,-219.5C378,-219.5 419,-219.5 419,-219.5 425,-219.5 431,-225.5 431,-231.5 431,-231.5 431,-243.5 431,-243.5 431,-249.5 425,-255.5 419,-255.5 419,-255.5 378,-255.5 378,-255.5 372,-255.5 366,-249.5 366,-243.5 366,-243.5 366,-231.5 366,-231.5 366,-225.5 372,-219.5 378,-219.5"/>
<text text-anchor="middle" x="398.5" y="-235.3" font-family="Arial" font-size="9.00">if (i_2 &lt; j_3)</text>
</g>
<!-- Node_5&#45;&gt;Node_6 -->
<g id="edge14" class="edge"><title>Node_5&#45;&gt;Node_6</title>
<path fill="none" stroke="tan" d="M399.258,-292.313C399.145,-284.289 399.008,-274.547 398.881,-265.569"/>
<polygon fill="tan" stroke="tan" points="402.38,-265.479 398.74,-255.529 395.381,-265.577 402.38,-265.479"/>
</g>
<!-- Node_7 -->
<g id="node8" class="node"><title>Node_7</title>
<path fill="moccasin" stroke="moccasin" d="M357.5,-146.5C357.5,-146.5 437.5,-146.5 437.5,-146.5 443.5,-146.5 449.5,-152.5 449.5,-158.5 449.5,-158.5 449.5,-170.5 449.5,-170.5 449.5,-176.5 443.5,-182.5 437.5,-182.5 437.5,-182.5 357.5,-182.5 357.5,-182.5 351.5,-182.5 345.5,-176.5 345.5,-170.5 345.5,-170.5 345.5,-158.5 345.5,-158.5 345.5,-152.5 351.5,-146.5 357.5,-146.5"/>
<text text-anchor="middle" x="397.5" y="-162.3" font-family="Arial" font-size="9.00">j_3_t: [&#45;Infinity, Infinity]</text>
</g>
<!-- Node_6&#45;&gt;Node_7 -->
<g id="edge4" class="edge"><title>Node_6&#45;&gt;Node_7</title>
<path fill="none" stroke="steelblue" d="M398.258,-219.313C398.145,-211.289 398.008,-201.547 397.881,-192.569"/>
<polygon fill="steelblue" stroke="steelblue" points="401.38,-192.479 397.74,-182.529 394.381,-192.577 401.38,-192.479"/>
</g>
<!-- Node_8 -->
<g id="node9" class="node"><title>Node_8</title>
<path fill="lightblue" stroke="lightblue" d="M378,-73.5C378,-73.5 431,-73.5 431,-73.5 437,-73.5 443,-79.5 443,-85.5 443,-85.5 443,-97.5 443,-97.5 443,-103.5 437,-109.5 431,-109.5 431,-109.5 378,-109.5 378,-109.5 372,-109.5 366,-103.5 366,-97.5 366,-97.5 366,-85.5 366,-85.5 366,-79.5 372,-73.5 378,-73.5"/>
<text text-anchor="middle" x="404.5" y="-89.3" font-family="Arial" font-size="9.00">j_8 = j_3_t + &#45;1</text>
</g>
<!-- Node_7&#45;&gt;Node_8 -->
<g id="edge20" class="edge"><title>Node_7&#45;&gt;Node_8</title>
<path fill="none" stroke="tan" d="M399.195,-146.313C399.986,-138.289 400.946,-128.547 401.831,-119.569"/>
<polygon fill="tan" stroke="tan" points="405.323,-119.824 402.821,-109.529 398.357,-119.137 405.323,-119.824"/>
</g>
<!-- Node_9 -->
<g id="node10" class="node"><title>Node_9</title>
<path fill="moccasin" stroke="moccasin" d="M404,-0.5C404,-0.5 477,-0.5 477,-0.5 483,-0.5 489,-6.5 489,-12.5 489,-12.5 489,-24.5 489,-24.5 489,-30.5 483,-36.5 477,-36.5 477,-36.5 404,-36.5 404,-36.5 398,-36.5 392,-30.5 392,-24.5 392,-24.5 392,-12.5 392,-12.5 392,-6.5 398,-0.5 404,-0.5"/>
<text text-anchor="middle" x="440.5" y="-16.3" font-family="Arial" font-size="9.00">j_8: [&#45;Infinity, Infinity]</text>
</g>
<!-- Node_8&#45;&gt;Node_9 -->
<g id="edge5" class="edge"><title>Node_8&#45;&gt;Node_9</title>
<path fill="none" stroke="steelblue" d="M413.215,-73.3129C417.415,-65.0279 422.545,-54.9103 427.219,-45.6933"/>
<polygon fill="steelblue" stroke="steelblue" points="430.465,-47.0307 431.866,-36.5288 424.222,-43.865 430.465,-47.0307"/>
</g>
<!-- Node_9&#45;&gt;Node_4 -->
<g id="edge19" class="edge"><title>Node_9&#45;&gt;Node_4</title>
<path fill="none" stroke="tan" d="M447.988,-36.8645C458.799,-63.5586 477.5,-116.522 477.5,-163.5 477.5,-238.5 477.5,-238.5 477.5,-238.5 477.5,-280.742 461.322,-327.495 449.544,-355.938"/>
<polygon fill="tan" stroke="tan" points="446.298,-354.625 445.595,-365.197 452.737,-357.372 446.298,-354.625"/>
</g>
<!-- Node_10 -->
<g id="node11" class="node"><title>Node_10</title>
<path fill="lightblue" stroke="lightblue" d="M475.5,-511.5C475.5,-511.5 513.5,-511.5 513.5,-511.5 519.5,-511.5 525.5,-517.5 525.5,-523.5 525.5,-523.5 525.5,-535.5 525.5,-535.5 525.5,-541.5 519.5,-547.5 513.5,-547.5 513.5,-547.5 475.5,-547.5 475.5,-547.5 469.5,-547.5 463.5,-541.5 463.5,-535.5 463.5,-535.5 463.5,-523.5 463.5,-523.5 463.5,-517.5 469.5,-511.5 475.5,-511.5"/>
<text text-anchor="middle" x="494.5" y="-527.3" font-family="Arial" font-size="9.00">j_6 = k_1_t</text>
</g>
<!-- Node_11 -->
<g id="node12" class="node"><title>Node_11</title>
<path fill="moccasin" stroke="moccasin" d="M401,-438.5C401,-438.5 474,-438.5 474,-438.5 480,-438.5 486,-444.5 486,-450.5 486,-450.5 486,-462.5 486,-462.5 486,-468.5 480,-474.5 474,-474.5 474,-474.5 401,-474.5 401,-474.5 395,-474.5 389,-468.5 389,-462.5 389,-462.5 389,-450.5 389,-450.5 389,-444.5 395,-438.5 401,-438.5"/>
<text text-anchor="middle" x="437.5" y="-454.3" font-family="Arial" font-size="9.00">j_6: [&#45;Infinity, Infinity]</text>
</g>
<!-- Node_10&#45;&gt;Node_11 -->
<g id="edge6" class="edge"><title>Node_10&#45;&gt;Node_11</title>
<path fill="none" stroke="steelblue" d="M480.702,-511.313C473.77,-502.679 465.241,-492.055 457.598,-482.534"/>
<polygon fill="steelblue" stroke="steelblue" points="460.161,-480.136 451.171,-474.529 454.702,-484.518 460.161,-480.136"/>
</g>
<!-- Node_11&#45;&gt;Node_4 -->
<g id="edge21" class="edge"><title>Node_11&#45;&gt;Node_4</title>
<path fill="none" stroke="tan" d="M437.5,-438.313C437.5,-430.289 437.5,-420.547 437.5,-411.569"/>
<polygon fill="tan" stroke="tan" points="441,-411.529 437.5,-401.529 434,-411.529 441,-411.529"/>
</g>
<!-- Node_12 -->
<g id="node13" class="node"><title>Node_12</title>
<path fill="lightblue" stroke="lightblue" d="M97,-438.5C97,-438.5 200,-438.5 200,-438.5 206,-438.5 212,-444.5 212,-450.5 212,-450.5 212,-462.5 212,-462.5 212,-468.5 206,-474.5 200,-474.5 200,-474.5 97,-474.5 97,-474.5 91,-474.5 85,-468.5 85,-462.5 85,-462.5 85,-450.5 85,-450.5 85,-444.5 91,-438.5 97,-438.5"/>
<text text-anchor="middle" x="148.5" y="-454.3" font-family="Arial" font-size="9.00"># i_2 = PHI &lt;i_5(3), i_7(4)&gt;</text>
</g>
<!-- Node_13 -->
<g id="node14" class="node"><title>Node_13</title>
<path fill="moccasin" stroke="moccasin" d="M158,-365.5C158,-365.5 231,-365.5 231,-365.5 237,-365.5 243,-371.5 243,-377.5 243,-377.5 243,-389.5 243,-389.5 243,-395.5 237,-401.5 231,-401.5 231,-401.5 158,-401.5 158,-401.5 152,-401.5 146,-395.5 146,-389.5 146,-389.5 146,-377.5 146,-377.5 146,-371.5 152,-365.5 158,-365.5"/>
<text text-anchor="middle" x="194.5" y="-381.3" font-family="Arial" font-size="9.00">i_2: [&#45;Infinity, Infinity]</text>
</g>
<!-- Node_12&#45;&gt;Node_13 -->
<g id="edge7" class="edge"><title>Node_12&#45;&gt;Node_13</title>
<path fill="none" stroke="steelblue" d="M159.635,-438.313C165.116,-429.853 171.835,-419.484 177.906,-410.112"/>
<polygon fill="steelblue" stroke="steelblue" points="180.967,-411.824 183.467,-401.529 175.092,-408.018 180.967,-411.824"/>
</g>
<!-- Node_13&#45;&gt;Node_0 -->
<g id="edge22" class="edge"><title>Node_13&#45;&gt;Node_0</title>
<path fill="none" stroke="tan" d="M204.241,-401.887C209.655,-412.141 216.155,-425.516 220.5,-438 234.04,-476.904 240.5,-487.307 240.5,-528.5 240.5,-603.5 240.5,-603.5 240.5,-603.5 240.5,-648.068 214.857,-694.38 196.291,-722.071"/>
<polygon fill="tan" stroke="tan" points="193.355,-720.163 190.554,-730.381 199.116,-724.14 193.355,-720.163"/>
</g>
<!-- Node_14 -->
<g id="node15" class="node"><title>Node_14</title>
<path fill="lightblue" stroke="lightblue" d="M476.5,-657.5C476.5,-657.5 522.5,-657.5 522.5,-657.5 528.5,-657.5 534.5,-663.5 534.5,-669.5 534.5,-669.5 534.5,-681.5 534.5,-681.5 534.5,-687.5 528.5,-693.5 522.5,-693.5 522.5,-693.5 476.5,-693.5 476.5,-693.5 470.5,-693.5 464.5,-687.5 464.5,-681.5 464.5,-681.5 464.5,-669.5 464.5,-669.5 464.5,-663.5 470.5,-657.5 476.5,-657.5"/>
<text text-anchor="middle" x="499.5" y="-673.3" font-family="Arial" font-size="9.00">if (k_1 &lt;= 99)</text>
</g>
<!-- Node_15 -->
<g id="node16" class="node"><title>Node_15</title>
<path fill="moccasin" stroke="moccasin" d="M458,-584.5C458,-584.5 541,-584.5 541,-584.5 547,-584.5 553,-590.5 553,-596.5 553,-596.5 553,-608.5 553,-608.5 553,-614.5 547,-620.5 541,-620.5 541,-620.5 458,-620.5 458,-620.5 452,-620.5 446,-614.5 446,-608.5 446,-608.5 446,-596.5 446,-596.5 446,-590.5 452,-584.5 458,-584.5"/>
<text text-anchor="middle" x="499.5" y="-600.3" font-family="Arial" font-size="9.00">k_1_t: [&#45;Infinity, Infinity]</text>
</g>
<!-- Node_14&#45;&gt;Node_15 -->
<g id="edge8" class="edge"><title>Node_14&#45;&gt;Node_15</title>
<path fill="none" stroke="steelblue" d="M499.5,-657.313C499.5,-649.289 499.5,-639.547 499.5,-630.569"/>
<polygon fill="steelblue" stroke="steelblue" points="503,-630.529 499.5,-620.529 496,-630.529 503,-630.529"/>
</g>
<!-- Node_15&#45;&gt;Node_10 -->
<g id="edge25" class="edge"><title>Node_15&#45;&gt;Node_10</title>
<path fill="none" stroke="tan" d="M498.29,-584.313C497.725,-576.289 497.039,-566.547 496.406,-557.569"/>
<polygon fill="tan" stroke="tan" points="499.893,-557.258 495.699,-547.529 492.91,-557.75 499.893,-557.258"/>
</g>
<!-- Node_24 -->
<g id="node25" class="node"><title>Node_24</title>
<path fill="lightblue" stroke="lightblue" d="M574,-511.5C574,-511.5 629,-511.5 629,-511.5 635,-511.5 641,-517.5 641,-523.5 641,-523.5 641,-535.5 641,-535.5 641,-541.5 635,-547.5 629,-547.5 629,-547.5 574,-547.5 574,-547.5 568,-547.5 562,-541.5 562,-535.5 562,-535.5 562,-523.5 562,-523.5 562,-517.5 568,-511.5 574,-511.5"/>
<text text-anchor="middle" x="601.5" y="-527.3" font-family="Arial" font-size="9.00">k_9 = k_1_t + 1</text>
</g>
<!-- Node_15&#45;&gt;Node_24 -->
<g id="edge26" class="edge"><title>Node_15&#45;&gt;Node_24</title>
<path fill="none" stroke="tan" d="M523.932,-584.494C537.332,-575.166 554.129,-563.474 568.662,-553.358"/>
<polygon fill="tan" stroke="tan" points="570.706,-556.199 576.914,-547.614 566.707,-550.454 570.706,-556.199"/>
</g>
<!-- Node_16 -->
<g id="node17" class="node"><title>Node_16</title>
<path fill="lightblue" stroke="lightblue" d="M148.5,-584.5C148.5,-584.5 178.5,-584.5 178.5,-584.5 184.5,-584.5 190.5,-590.5 190.5,-596.5 190.5,-596.5 190.5,-608.5 190.5,-608.5 190.5,-614.5 184.5,-620.5 178.5,-620.5 178.5,-620.5 148.5,-620.5 148.5,-620.5 142.5,-620.5 136.5,-614.5 136.5,-608.5 136.5,-608.5 136.5,-596.5 136.5,-596.5 136.5,-590.5 142.5,-584.5 148.5,-584.5"/>
<text text-anchor="middle" x="163.5" y="-600.3" font-family="Arial" font-size="9.00">i_5 = 0</text>
</g>
<!-- Node_17 -->
<g id="node18" class="node"><title>Node_17</title>
<path fill="moccasin" stroke="moccasin" d="M127,-511.5C127,-511.5 200,-511.5 200,-511.5 206,-511.5 212,-517.5 212,-523.5 212,-523.5 212,-535.5 212,-535.5 212,-541.5 206,-547.5 200,-547.5 200,-547.5 127,-547.5 127,-547.5 121,-547.5 115,-541.5 115,-535.5 115,-535.5 115,-523.5 115,-523.5 115,-517.5 121,-511.5 127,-511.5"/>
<text text-anchor="middle" x="163.5" y="-527.3" font-family="Arial" font-size="9.00">i_5: [&#45;Infinity, Infinity]</text>
</g>
<!-- Node_16&#45;&gt;Node_17 -->
<g id="edge9" class="edge"><title>Node_16&#45;&gt;Node_17</title>
<path fill="none" stroke="steelblue" d="M163.5,-584.313C163.5,-576.289 163.5,-566.547 163.5,-557.569"/>
<polygon fill="steelblue" stroke="steelblue" points="167,-557.529 163.5,-547.529 160,-557.529 167,-557.529"/>
</g>
<!-- Node_17&#45;&gt;Node_12 -->
<g id="edge15" class="edge"><title>Node_17&#45;&gt;Node_12</title>
<path fill="none" stroke="tan" d="M159.869,-511.313C158.174,-503.289 156.116,-493.547 154.219,-484.569"/>
<polygon fill="tan" stroke="tan" points="157.589,-483.589 152.098,-474.529 150.74,-485.036 157.589,-483.589"/>
</g>
<!-- Node_18 -->
<g id="node19" class="node"><title>Node_18</title>
<path fill="lightblue" stroke="lightblue" d="M609.5,-365.5C609.5,-365.5 731.5,-365.5 731.5,-365.5 737.5,-365.5 743.5,-371.5 743.5,-377.5 743.5,-377.5 743.5,-389.5 743.5,-389.5 743.5,-395.5 737.5,-401.5 731.5,-401.5 731.5,-401.5 609.5,-401.5 609.5,-401.5 603.5,-401.5 597.5,-395.5 597.5,-389.5 597.5,-389.5 597.5,-377.5 597.5,-377.5 597.5,-371.5 603.5,-365.5 609.5,-365.5"/>
<text text-anchor="middle" x="670.5" y="-381.3" font-family="Arial" font-size="9.00"># k_1 = PHI &lt;k_4(D)(2), k_9(6)&gt;</text>
</g>
<!-- Node_19 -->
<g id="node20" class="node"><title>Node_19</title>
<path fill="moccasin" stroke="moccasin" d="M462,-730.5C462,-730.5 537,-730.5 537,-730.5 543,-730.5 549,-736.5 549,-742.5 549,-742.5 549,-754.5 549,-754.5 549,-760.5 543,-766.5 537,-766.5 537,-766.5 462,-766.5 462,-766.5 456,-766.5 450,-760.5 450,-754.5 450,-754.5 450,-742.5 450,-742.5 450,-736.5 456,-730.5 462,-730.5"/>
<text text-anchor="middle" x="499.5" y="-746.3" font-family="Arial" font-size="9.00">k_1: [&#45;Infinity, Infinity]</text>
</g>
<!-- Node_18&#45;&gt;Node_19 -->
<g id="edge10" class="edge"><title>Node_18&#45;&gt;Node_19</title>
<path fill="none" stroke="steelblue" d="M695.28,-401.687C707.053,-411.101 720.309,-423.747 728.5,-438 749.026,-473.715 748.5,-487.307 748.5,-528.5 748.5,-603.5 748.5,-603.5 748.5,-603.5 748.5,-690.542 633.069,-725.811 559.393,-739.458"/>
<polygon fill="steelblue" stroke="steelblue" points="558.529,-736.056 549.29,-741.243 559.747,-742.949 558.529,-736.056"/>
</g>
<!-- Node_19&#45;&gt;Node_2 -->
<g id="edge16" class="edge"><title>Node_19&#45;&gt;Node_2</title>
<path fill="none" stroke="tan" d="M472.194,-730.494C457.077,-721.079 438.093,-709.255 421.747,-699.075"/>
<polygon fill="tan" stroke="tan" points="423.317,-695.929 412.978,-693.614 419.616,-701.871 423.317,-695.929"/>
</g>
<!-- Node_19&#45;&gt;Node_14 -->
<g id="edge17" class="edge"><title>Node_19&#45;&gt;Node_14</title>
<path fill="none" stroke="tan" d="M499.5,-730.313C499.5,-722.289 499.5,-712.547 499.5,-703.569"/>
<polygon fill="tan" stroke="tan" points="503,-703.529 499.5,-693.529 496,-703.529 503,-703.529"/>
</g>
<!-- Node_21 -->
<g id="node22" class="node"><title>Node_21</title>
<path fill="moccasin" stroke="moccasin" d="M12,-511.5C12,-511.5 85,-511.5 85,-511.5 91,-511.5 97,-517.5 97,-523.5 97,-523.5 97,-535.5 97,-535.5 97,-541.5 91,-547.5 85,-547.5 85,-547.5 12,-547.5 12,-547.5 6,-547.5 0,-541.5 0,-535.5 0,-535.5 0,-523.5 0,-523.5 0,-517.5 6,-511.5 12,-511.5"/>
<text text-anchor="middle" x="48.5" y="-527.3" font-family="Arial" font-size="9.00">i_7: [&#45;Infinity, Infinity]</text>
</g>
<!-- Node_20&#45;&gt;Node_21 -->
<g id="edge11" class="edge"><title>Node_20&#45;&gt;Node_21</title>
<path fill="none" stroke="steelblue" d="M61.3848,-584.313C59.4428,-576.202 57.0803,-566.336 54.9113,-557.277"/>
<polygon fill="steelblue" stroke="steelblue" points="58.3097,-556.439 52.5773,-547.529 51.5022,-558.069 58.3097,-556.439"/>
</g>
<!-- Node_21&#45;&gt;Node_12 -->
<g id="edge24" class="edge"><title>Node_21&#45;&gt;Node_12</title>
<path fill="none" stroke="tan" d="M72.4525,-511.494C85.4678,-502.253 101.75,-490.692 115.906,-480.642"/>
<polygon fill="tan" stroke="tan" points="118.269,-483.257 124.396,-474.614 114.216,-477.549 118.269,-483.257"/>
</g>
<!-- Node_23 -->
<g id="node24" class="node"><title>Node_23</title>
<path fill="moccasin" stroke="moccasin" d="M282.5,-438.5C282.5,-438.5 358.5,-438.5 358.5,-438.5 364.5,-438.5 370.5,-444.5 370.5,-450.5 370.5,-450.5 370.5,-462.5 370.5,-462.5 370.5,-468.5 364.5,-474.5 358.5,-474.5 358.5,-474.5 282.5,-474.5 282.5,-474.5 276.5,-474.5 270.5,-468.5 270.5,-462.5 270.5,-462.5 270.5,-450.5 270.5,-450.5 270.5,-444.5 276.5,-438.5 282.5,-438.5"/>
<text text-anchor="middle" x="320.5" y="-454.3" font-family="Arial" font-size="9.00">_10: [&#45;Infinity, Infinity]</text>
</g>
<!-- Node_22&#45;&gt;Node_23 -->
<g id="edge12" class="edge"><title>Node_22&#45;&gt;Node_23</title>
<path fill="none" stroke="steelblue" d="M334.901,-511.313C332.73,-503.202 330.09,-493.336 327.666,-484.277"/>
<polygon fill="steelblue" stroke="steelblue" points="331.023,-483.284 325.057,-474.529 324.261,-485.094 331.023,-483.284"/>
</g>
<!-- Node_25 -->
<g id="node26" class="node"><title>Node_25</title>
<path fill="moccasin" stroke="moccasin" d="M633,-438.5C633,-438.5 708,-438.5 708,-438.5 714,-438.5 720,-444.5 720,-450.5 720,-450.5 720,-462.5 720,-462.5 720,-468.5 714,-474.5 708,-474.5 708,-474.5 633,-474.5 633,-474.5 627,-474.5 621,-468.5 621,-462.5 621,-462.5 621,-450.5 621,-450.5 621,-444.5 627,-438.5 633,-438.5"/>
<text text-anchor="middle" x="670.5" y="-454.3" font-family="Arial" font-size="9.00">k_9: [&#45;Infinity, Infinity]</text>
</g>
<!-- Node_24&#45;&gt;Node_25 -->
<g id="edge13" class="edge"><title>Node_24&#45;&gt;Node_25</title>
<path fill="none" stroke="steelblue" d="M618.203,-511.313C626.763,-502.505 637.336,-491.625 646.731,-481.958"/>
<polygon fill="steelblue" stroke="steelblue" points="649.491,-484.14 653.951,-474.529 644.471,-479.261 649.491,-484.14"/>
</g>
<!-- Node_25&#45;&gt;Node_18 -->
<g id="edge23" class="edge"><title>Node_25&#45;&gt;Node_18</title>
<path fill="none" stroke="tan" d="M670.5,-438.313C670.5,-430.289 670.5,-420.547 670.5,-411.569"/>
<polygon fill="tan" stroke="tan" points="674,-411.529 670.5,-401.529 667,-411.529 674,-411.529"/>
</g>
<!-- Node_26 -->
<g id="node27" class="node"><title>Node_26</title>
<path fill="moccasin" stroke="moccasin" d="M516,-438.5C516,-438.5 591,-438.5 591,-438.5 597,-438.5 603,-444.5 603,-450.5 603,-450.5 603,-462.5 603,-462.5 603,-468.5 597,-474.5 591,-474.5 591,-474.5 516,-474.5 516,-474.5 510,-474.5 504,-468.5 504,-462.5 504,-462.5 504,-450.5 504,-450.5 504,-444.5 510,-438.5 516,-438.5"/>
<text text-anchor="middle" x="553.5" y="-454.3" font-family="Arial" font-size="9.00">k_4: [&#45;Infinity, Infinity]</text>
</g>
<!-- Node_26&#45;&gt;Node_18 -->
<g id="edge18" class="edge"><title>Node_26&#45;&gt;Node_18</title>
<path fill="none" stroke="tan" d="M581.524,-438.494C597.04,-429.079 616.523,-417.255 633.299,-407.075"/>
<polygon fill="tan" stroke="tan" points="635.565,-409.794 642.299,-401.614 631.934,-403.809 635.565,-409.794"/>
</g>
</g>
</svg>
