<?xml version="1.0" encoding="UTF-8" standalone="no"?>
<!DOCTYPE svg PUBLIC "-//W3C//DTD SVG 1.1//EN"
 "http://www.w3.org/Graphics/SVG/1.1/DTD/svg11.dtd">
<!-- Generated by graphviz version 2.38.0 (20140413.2041)
 -->
<!-- Title: t2_foo_ConstraintGraph Pages: 1 -->
<svg width="539pt" height="650pt"
     viewBox="0.00 0.00 538.50 650.00" xmlns="http://www.w3.org/2000/svg">
<g id="graph0" class="graph" transform="scale(1 1) rotate(0) translate(4 646)">
<title>t2_foo_ConstraintGraph</title>
<polygon fill="white" stroke="none" points="-4,4 -4,-646 534.5,-646 534.5,4 -4,4"/>
<text text-anchor="middle" x="265.25" y="-628.4" font-family="Arial" font-size="12.00">t2_foo_ConstraintGraph</text>
<!-- Node_0 -->
<g id="node1" class="node"><title>Node_0</title>
<path fill="lightblue" stroke="lightblue" d="M12,-584.5C12,-584.5 62,-584.5 62,-584.5 68,-584.5 74,-590.5 74,-596.5 74,-596.5 74,-608.5 74,-608.5 74,-614.5 68,-620.5 62,-620.5 62,-620.5 12,-620.5 12,-620.5 6,-620.5 0,-614.5 0,-608.5 0,-608.5 0,-596.5 0,-596.5 0,-590.5 6,-584.5 12,-584.5"/>
<text text-anchor="middle" x="37" y="-600.3" font-family="Arial" font-size="9.00">i_7 = i_2_t + 1</text>
</g>
<!-- Node_1 -->
<g id="node2" class="node"><title>Node_1</title>
<path fill="moccasin" stroke="moccasin" d="M46.5,-511.5C46.5,-511.5 87.5,-511.5 87.5,-511.5 93.5,-511.5 99.5,-517.5 99.5,-523.5 99.5,-523.5 99.5,-535.5 99.5,-535.5 99.5,-541.5 93.5,-547.5 87.5,-547.5 87.5,-547.5 46.5,-547.5 46.5,-547.5 40.5,-547.5 34.5,-541.5 34.5,-535.5 34.5,-535.5 34.5,-523.5 34.5,-523.5 34.5,-517.5 40.5,-511.5 46.5,-511.5"/>
<text text-anchor="middle" x="67" y="-527.3" font-family="Arial" font-size="9.00">i_7: [&#45;inf, inf]</text>
</g>
<!-- Node_0&#45;&gt;Node_1 -->
<g id="edge1" class="edge"><title>Node_0&#45;&gt;Node_1</title>
<path fill="none" stroke="steelblue" d="M44.2622,-584.313C47.726,-576.115 51.948,-566.123 55.8093,-556.985"/>
<polygon fill="steelblue" stroke="steelblue" points="59.1365,-558.103 59.8047,-547.529 52.6885,-555.378 59.1365,-558.103"/>
</g>
<!-- Node_18 -->
<g id="node19" class="node"><title>Node_18</title>
<path fill="lightblue" stroke="lightblue" d="M46.5,-438.5C46.5,-438.5 149.5,-438.5 149.5,-438.5 155.5,-438.5 161.5,-444.5 161.5,-450.5 161.5,-450.5 161.5,-462.5 161.5,-462.5 161.5,-468.5 155.5,-474.5 149.5,-474.5 149.5,-474.5 46.5,-474.5 46.5,-474.5 40.5,-474.5 34.5,-468.5 34.5,-462.5 34.5,-462.5 34.5,-450.5 34.5,-450.5 34.5,-444.5 40.5,-438.5 46.5,-438.5"/>
<text text-anchor="middle" x="98" y="-454.3" font-family="Arial" font-size="9.00"># i_2 = PHI &lt;i_5(3), i_7(4)&gt;</text>
</g>
<!-- Node_1&#45;&gt;Node_18 -->
<g id="edge16" class="edge"><title>Node_1&#45;&gt;Node_18</title>
<path fill="none" stroke="tan" d="M74.5042,-511.313C78.0836,-503.115 82.4462,-493.123 86.4363,-483.985"/>
<polygon fill="tan" stroke="tan" points="89.771,-485.094 90.5649,-474.529 83.3558,-482.293 89.771,-485.094"/>
</g>
<!-- Node_2 -->
<g id="node3" class="node"><title>Node_2</title>
<path fill="lightblue" stroke="lightblue" d="M415.5,-365.5C415.5,-365.5 518.5,-365.5 518.5,-365.5 524.5,-365.5 530.5,-371.5 530.5,-377.5 530.5,-377.5 530.5,-389.5 530.5,-389.5 530.5,-395.5 524.5,-401.5 518.5,-401.5 518.5,-401.5 415.5,-401.5 415.5,-401.5 409.5,-401.5 403.5,-395.5 403.5,-389.5 403.5,-389.5 403.5,-377.5 403.5,-377.5 403.5,-371.5 409.5,-365.5 415.5,-365.5"/>
<text text-anchor="middle" x="467" y="-381.3" font-family="Arial" font-size="9.00"># j_3 = PHI &lt;j_6(3), j_8(4)&gt;</text>
</g>
<!-- Node_3 -->
<g id="node4" class="node"><title>Node_3</title>
<path fill="moccasin" stroke="moccasin" d="M386.5,-292.5C386.5,-292.5 427.5,-292.5 427.5,-292.5 433.5,-292.5 439.5,-298.5 439.5,-304.5 439.5,-304.5 439.5,-316.5 439.5,-316.5 439.5,-322.5 433.5,-328.5 427.5,-328.5 427.5,-328.5 386.5,-328.5 386.5,-328.5 380.5,-328.5 374.5,-322.5 374.5,-316.5 374.5,-316.5 374.5,-304.5 374.5,-304.5 374.5,-298.5 380.5,-292.5 386.5,-292.5"/>
<text text-anchor="middle" x="407" y="-308.3" font-family="Arial" font-size="9.00">j_3: [&#45;inf, inf]</text>
</g>
<!-- Node_2&#45;&gt;Node_3 -->
<g id="edge2" class="edge"><title>Node_2&#45;&gt;Node_3</title>
<path fill="none" stroke="steelblue" d="M452.476,-365.313C445.106,-356.592 436.02,-345.84 427.912,-336.246"/>
<polygon fill="steelblue" stroke="steelblue" points="430.518,-333.908 421.391,-328.529 425.172,-338.426 430.518,-333.908"/>
</g>
<!-- Node_24 -->
<g id="node25" class="node"><title>Node_24</title>
<path fill="lightblue" stroke="lightblue" d="M384.5,-219.5C384.5,-219.5 425.5,-219.5 425.5,-219.5 431.5,-219.5 437.5,-225.5 437.5,-231.5 437.5,-231.5 437.5,-243.5 437.5,-243.5 437.5,-249.5 431.5,-255.5 425.5,-255.5 425.5,-255.5 384.5,-255.5 384.5,-255.5 378.5,-255.5 372.5,-249.5 372.5,-243.5 372.5,-243.5 372.5,-231.5 372.5,-231.5 372.5,-225.5 378.5,-219.5 384.5,-219.5"/>
<text text-anchor="middle" x="405" y="-235.3" font-family="Arial" font-size="9.00">if (j_3 &gt; i_2)</text>
</g>
<!-- Node_3&#45;&gt;Node_24 -->
<g id="edge15" class="edge"><title>Node_3&#45;&gt;Node_24</title>
<path fill="none" stroke="tan" d="M406.516,-292.313C406.29,-284.289 406.015,-274.547 405.763,-265.569"/>
<polygon fill="tan" stroke="tan" points="409.26,-265.426 405.48,-255.529 402.263,-265.623 409.26,-265.426"/>
</g>
<!-- Node_4 -->
<g id="node5" class="node"><title>Node_4</title>
<path fill="lightblue" stroke="lightblue" d="M283.5,-219.5C283.5,-219.5 324.5,-219.5 324.5,-219.5 330.5,-219.5 336.5,-225.5 336.5,-231.5 336.5,-231.5 336.5,-243.5 336.5,-243.5 336.5,-249.5 330.5,-255.5 324.5,-255.5 324.5,-255.5 283.5,-255.5 283.5,-255.5 277.5,-255.5 271.5,-249.5 271.5,-243.5 271.5,-243.5 271.5,-231.5 271.5,-231.5 271.5,-225.5 277.5,-219.5 283.5,-219.5"/>
<text text-anchor="middle" x="304" y="-235.3" font-family="Arial" font-size="9.00">if (k_1 &gt; 99)</text>
</g>
<!-- Node_5 -->
<g id="node6" class="node"><title>Node_5</title>
<path fill="moccasin" stroke="moccasin" d="M278.5,-146.5C278.5,-146.5 329.5,-146.5 329.5,-146.5 335.5,-146.5 341.5,-152.5 341.5,-158.5 341.5,-158.5 341.5,-170.5 341.5,-170.5 341.5,-176.5 335.5,-182.5 329.5,-182.5 329.5,-182.5 278.5,-182.5 278.5,-182.5 272.5,-182.5 266.5,-176.5 266.5,-170.5 266.5,-170.5 266.5,-158.5 266.5,-158.5 266.5,-152.5 272.5,-146.5 278.5,-146.5"/>
<text text-anchor="middle" x="304" y="-162.3" font-family="Arial" font-size="9.00">k_1_f: [&#45;inf, inf]</text>
</g>
<!-- Node_4&#45;&gt;Node_5 -->
<g id="edge3" class="edge"><title>Node_4&#45;&gt;Node_5</title>
<path fill="none" stroke="steelblue" d="M304,-219.313C304,-211.289 304,-201.547 304,-192.569"/>
<polygon fill="steelblue" stroke="steelblue" points="307.5,-192.529 304,-182.529 300.5,-192.529 307.5,-192.529"/>
</g>
<!-- Node_10 -->
<g id="node11" class="node"><title>Node_10</title>
<path fill="lightblue" stroke="lightblue" d="M283.5,-73.5C283.5,-73.5 324.5,-73.5 324.5,-73.5 330.5,-73.5 336.5,-79.5 336.5,-85.5 336.5,-85.5 336.5,-97.5 336.5,-97.5 336.5,-103.5 330.5,-109.5 324.5,-109.5 324.5,-109.5 283.5,-109.5 283.5,-109.5 277.5,-109.5 271.5,-103.5 271.5,-97.5 271.5,-97.5 271.5,-85.5 271.5,-85.5 271.5,-79.5 277.5,-73.5 283.5,-73.5"/>
<text text-anchor="middle" x="304" y="-89.3" font-family="Arial" font-size="9.00">_10 = k_1_f</text>
</g>
<!-- Node_5&#45;&gt;Node_10 -->
<g id="edge20" class="edge"><title>Node_5&#45;&gt;Node_10</title>
<path fill="none" stroke="tan" d="M304,-146.313C304,-138.289 304,-128.547 304,-119.569"/>
<polygon fill="tan" stroke="tan" points="307.5,-119.529 304,-109.529 300.5,-119.529 307.5,-119.529"/>
</g>
<!-- Node_6 -->
<g id="node7" class="node"><title>Node_6</title>
<path fill="lightblue" stroke="lightblue" d="M255.5,-511.5C255.5,-511.5 310.5,-511.5 310.5,-511.5 316.5,-511.5 322.5,-517.5 322.5,-523.5 322.5,-523.5 322.5,-535.5 322.5,-535.5 322.5,-541.5 316.5,-547.5 310.5,-547.5 310.5,-547.5 255.5,-547.5 255.5,-547.5 249.5,-547.5 243.5,-541.5 243.5,-535.5 243.5,-535.5 243.5,-523.5 243.5,-523.5 243.5,-517.5 249.5,-511.5 255.5,-511.5"/>
<text text-anchor="middle" x="283" y="-527.3" font-family="Arial" font-size="9.00">k_9 = k_1_t + 1</text>
</g>
<!-- Node_7 -->
<g id="node8" class="node"><title>Node_7</title>
<path fill="moccasin" stroke="moccasin" d="M261,-438.5C261,-438.5 305,-438.5 305,-438.5 311,-438.5 317,-444.5 317,-450.5 317,-450.5 317,-462.5 317,-462.5 317,-468.5 311,-474.5 305,-474.5 305,-474.5 261,-474.5 261,-474.5 255,-474.5 249,-468.5 249,-462.5 249,-462.5 249,-450.5 249,-450.5 249,-444.5 255,-438.5 261,-438.5"/>
<text text-anchor="middle" x="283" y="-454.3" font-family="Arial" font-size="9.00">k_9: [&#45;inf, inf]</text>
</g>
<!-- Node_6&#45;&gt;Node_7 -->
<g id="edge4" class="edge"><title>Node_6&#45;&gt;Node_7</title>
<path fill="none" stroke="steelblue" d="M283,-511.313C283,-503.289 283,-493.547 283,-484.569"/>
<polygon fill="steelblue" stroke="steelblue" points="286.5,-484.529 283,-474.529 279.5,-484.529 286.5,-484.529"/>
</g>
<!-- Node_14 -->
<g id="node15" class="node"><title>Node_14</title>
<path fill="lightblue" stroke="lightblue" d="M251,-365.5C251,-365.5 373,-365.5 373,-365.5 379,-365.5 385,-371.5 385,-377.5 385,-377.5 385,-389.5 385,-389.5 385,-395.5 379,-401.5 373,-401.5 373,-401.5 251,-401.5 251,-401.5 245,-401.5 239,-395.5 239,-389.5 239,-389.5 239,-377.5 239,-377.5 239,-371.5 245,-365.5 251,-365.5"/>
<text text-anchor="middle" x="312" y="-381.3" font-family="Arial" font-size="9.00"># k_1 = PHI &lt;k_4(D)(2), k_9(6)&gt;</text>
</g>
<!-- Node_7&#45;&gt;Node_14 -->
<g id="edge21" class="edge"><title>Node_7&#45;&gt;Node_14</title>
<path fill="none" stroke="tan" d="M290.02,-438.313C293.368,-430.115 297.45,-420.123 301.182,-410.985"/>
<polygon fill="tan" stroke="tan" points="304.503,-412.11 305.045,-401.529 298.023,-409.463 304.503,-412.11"/>
</g>
<!-- Node_8 -->
<g id="node9" class="node"><title>Node_8</title>
<path fill="lightblue" stroke="lightblue" d="M398,-511.5C398,-511.5 436,-511.5 436,-511.5 442,-511.5 448,-517.5 448,-523.5 448,-523.5 448,-535.5 448,-535.5 448,-541.5 442,-547.5 436,-547.5 436,-547.5 398,-547.5 398,-547.5 392,-547.5 386,-541.5 386,-535.5 386,-535.5 386,-523.5 386,-523.5 386,-517.5 392,-511.5 398,-511.5"/>
<text text-anchor="middle" x="417" y="-527.3" font-family="Arial" font-size="9.00">j_6 = k_1_t</text>
</g>
<!-- Node_9 -->
<g id="node10" class="node"><title>Node_9</title>
<path fill="moccasin" stroke="moccasin" d="M441.5,-438.5C441.5,-438.5 482.5,-438.5 482.5,-438.5 488.5,-438.5 494.5,-444.5 494.5,-450.5 494.5,-450.5 494.5,-462.5 494.5,-462.5 494.5,-468.5 488.5,-474.5 482.5,-474.5 482.5,-474.5 441.5,-474.5 441.5,-474.5 435.5,-474.5 429.5,-468.5 429.5,-462.5 429.5,-462.5 429.5,-450.5 429.5,-450.5 429.5,-444.5 435.5,-438.5 441.5,-438.5"/>
<text text-anchor="middle" x="462" y="-454.3" font-family="Arial" font-size="9.00">j_6: [&#45;inf, inf]</text>
</g>
<!-- Node_8&#45;&gt;Node_9 -->
<g id="edge5" class="edge"><title>Node_8&#45;&gt;Node_9</title>
<path fill="none" stroke="steelblue" d="M427.893,-511.313C433.255,-502.853 439.827,-492.484 445.767,-483.112"/>
<polygon fill="steelblue" stroke="steelblue" points="448.81,-484.849 451.207,-474.529 442.897,-481.102 448.81,-484.849"/>
</g>
<!-- Node_9&#45;&gt;Node_2 -->
<g id="edge23" class="edge"><title>Node_9&#45;&gt;Node_2</title>
<path fill="none" stroke="tan" d="M463.21,-438.313C463.775,-430.289 464.461,-420.547 465.094,-411.569"/>
<polygon fill="tan" stroke="tan" points="468.59,-411.75 465.801,-401.529 461.607,-411.258 468.59,-411.75"/>
</g>
<!-- Node_11 -->
<g id="node12" class="node"><title>Node_11</title>
<path fill="moccasin" stroke="moccasin" d="M282,-0.5C282,-0.5 326,-0.5 326,-0.5 332,-0.5 338,-6.5 338,-12.5 338,-12.5 338,-24.5 338,-24.5 338,-30.5 332,-36.5 326,-36.5 326,-36.5 282,-36.5 282,-36.5 276,-36.5 270,-30.5 270,-24.5 270,-24.5 270,-12.5 270,-12.5 270,-6.5 276,-0.5 282,-0.5"/>
<text text-anchor="middle" x="304" y="-16.3" font-family="Arial" font-size="9.00">_10: [&#45;inf, inf]</text>
</g>
<!-- Node_10&#45;&gt;Node_11 -->
<g id="edge6" class="edge"><title>Node_10&#45;&gt;Node_11</title>
<path fill="none" stroke="steelblue" d="M304,-73.3129C304,-65.2895 304,-55.5475 304,-46.5691"/>
<polygon fill="steelblue" stroke="steelblue" points="307.5,-46.5288 304,-36.5288 300.5,-46.5289 307.5,-46.5288"/>
</g>
<!-- Node_12 -->
<g id="node13" class="node"><title>Node_12</title>
<path fill="lightblue" stroke="lightblue" d="M374.5,-73.5C374.5,-73.5 427.5,-73.5 427.5,-73.5 433.5,-73.5 439.5,-79.5 439.5,-85.5 439.5,-85.5 439.5,-97.5 439.5,-97.5 439.5,-103.5 433.5,-109.5 427.5,-109.5 427.5,-109.5 374.5,-109.5 374.5,-109.5 368.5,-109.5 362.5,-103.5 362.5,-97.5 362.5,-97.5 362.5,-85.5 362.5,-85.5 362.5,-79.5 368.5,-73.5 374.5,-73.5"/>
<text text-anchor="middle" x="401" y="-89.3" font-family="Arial" font-size="9.00">j_8 = j_3_t + &#45;1</text>
</g>
<!-- Node_13 -->
<g id="node14" class="node"><title>Node_13</title>
<path fill="moccasin" stroke="moccasin" d="M413.5,-0.5C413.5,-0.5 454.5,-0.5 454.5,-0.5 460.5,-0.5 466.5,-6.5 466.5,-12.5 466.5,-12.5 466.5,-24.5 466.5,-24.5 466.5,-30.5 460.5,-36.5 454.5,-36.5 454.5,-36.5 413.5,-36.5 413.5,-36.5 407.5,-36.5 401.5,-30.5 401.5,-24.5 401.5,-24.5 401.5,-12.5 401.5,-12.5 401.5,-6.5 407.5,-0.5 413.5,-0.5"/>
<text text-anchor="middle" x="434" y="-16.3" font-family="Arial" font-size="9.00">j_8: [&#45;inf, inf]</text>
</g>
<!-- Node_12&#45;&gt;Node_13 -->
<g id="edge7" class="edge"><title>Node_12&#45;&gt;Node_13</title>
<path fill="none" stroke="steelblue" d="M408.988,-73.3129C412.839,-65.0279 417.542,-54.9103 421.826,-45.6933"/>
<polygon fill="steelblue" stroke="steelblue" points="425.044,-47.0724 426.085,-36.5288 418.696,-44.122 425.044,-47.0724"/>
</g>
<!-- Node_13&#45;&gt;Node_2 -->
<g id="edge27" class="edge"><title>Node_13&#45;&gt;Node_2</title>
<path fill="none" stroke="tan" d="M440.88,-36.9214C450.815,-63.6898 468,-116.749 468,-163.5 468,-238.5 468,-238.5 468,-238.5 468,-279.068 467.598,-326.064 467.304,-355.039"/>
<polygon fill="tan" stroke="tan" points="463.802,-355.175 467.198,-365.211 470.802,-355.248 463.802,-355.175"/>
</g>
<!-- Node_15 -->
<g id="node16" class="node"><title>Node_15</title>
<path fill="moccasin" stroke="moccasin" d="M282,-292.5C282,-292.5 326,-292.5 326,-292.5 332,-292.5 338,-298.5 338,-304.5 338,-304.5 338,-316.5 338,-316.5 338,-322.5 332,-328.5 326,-328.5 326,-328.5 282,-328.5 282,-328.5 276,-328.5 270,-322.5 270,-316.5 270,-316.5 270,-304.5 270,-304.5 270,-298.5 276,-292.5 282,-292.5"/>
<text text-anchor="middle" x="304" y="-308.3" font-family="Arial" font-size="9.00">k_1: [&#45;inf, inf]</text>
</g>
<!-- Node_14&#45;&gt;Node_15 -->
<g id="edge8" class="edge"><title>Node_14&#45;&gt;Node_15</title>
<path fill="none" stroke="steelblue" d="M310.063,-365.313C309.159,-357.289 308.062,-347.547 307.05,-338.569"/>
<polygon fill="steelblue" stroke="steelblue" points="310.516,-338.074 305.919,-328.529 303.561,-338.858 310.516,-338.074"/>
</g>
<!-- Node_15&#45;&gt;Node_4 -->
<g id="edge18" class="edge"><title>Node_15&#45;&gt;Node_4</title>
<path fill="none" stroke="tan" d="M304,-292.313C304,-284.289 304,-274.547 304,-265.569"/>
<polygon fill="tan" stroke="tan" points="307.5,-265.529 304,-255.529 300.5,-265.529 307.5,-265.529"/>
</g>
<!-- Node_16 -->
<g id="node17" class="node"><title>Node_16</title>
<path fill="lightblue" stroke="lightblue" d="M191,-219.5C191,-219.5 237,-219.5 237,-219.5 243,-219.5 249,-225.5 249,-231.5 249,-231.5 249,-243.5 249,-243.5 249,-249.5 243,-255.5 237,-255.5 237,-255.5 191,-255.5 191,-255.5 185,-255.5 179,-249.5 179,-243.5 179,-243.5 179,-231.5 179,-231.5 179,-225.5 185,-219.5 191,-219.5"/>
<text text-anchor="middle" x="214" y="-235.3" font-family="Arial" font-size="9.00">if (k_1 &lt;= 99)</text>
</g>
<!-- Node_15&#45;&gt;Node_16 -->
<g id="edge17" class="edge"><title>Node_15&#45;&gt;Node_16</title>
<path fill="none" stroke="tan" d="M282.214,-292.313C270.606,-283.156 256.161,-271.76 243.555,-261.816"/>
<polygon fill="tan" stroke="tan" points="245.605,-258.975 235.586,-255.529 241.269,-264.47 245.605,-258.975"/>
</g>
<!-- Node_17 -->
<g id="node18" class="node"><title>Node_17</title>
<path fill="moccasin" stroke="moccasin" d="M257.5,-584.5C257.5,-584.5 308.5,-584.5 308.5,-584.5 314.5,-584.5 320.5,-590.5 320.5,-596.5 320.5,-596.5 320.5,-608.5 320.5,-608.5 320.5,-614.5 314.5,-620.5 308.5,-620.5 308.5,-620.5 257.5,-620.5 257.5,-620.5 251.5,-620.5 245.5,-614.5 245.5,-608.5 245.5,-608.5 245.5,-596.5 245.5,-596.5 245.5,-590.5 251.5,-584.5 257.5,-584.5"/>
<text text-anchor="middle" x="283" y="-600.3" font-family="Arial" font-size="9.00">k_1_t: [&#45;inf, inf]</text>
</g>
<!-- Node_16&#45;&gt;Node_17 -->
<g id="edge9" class="edge"><title>Node_16&#45;&gt;Node_17</title>
<path fill="none" stroke="steelblue" d="M213.407,-255.787C212.533,-282.818 211,-336.74 211,-382.5 211,-457.5 211,-457.5 211,-457.5 211,-499.001 214.279,-511.484 234,-548 239.74,-558.628 248.057,-568.802 256.213,-577.37"/>
<polygon fill="steelblue" stroke="steelblue" points="253.735,-579.841 263.272,-584.457 258.695,-574.902 253.735,-579.841"/>
</g>
<!-- Node_17&#45;&gt;Node_6 -->
<g id="edge25" class="edge"><title>Node_17&#45;&gt;Node_6</title>
<path fill="none" stroke="tan" d="M283,-584.313C283,-576.289 283,-566.547 283,-557.569"/>
<polygon fill="tan" stroke="tan" points="286.5,-557.529 283,-547.529 279.5,-557.529 286.5,-557.529"/>
</g>
<!-- Node_17&#45;&gt;Node_8 -->
<g id="edge26" class="edge"><title>Node_17&#45;&gt;Node_8</title>
<path fill="none" stroke="tan" d="M315.096,-584.494C333.545,-574.719 356.891,-562.349 376.582,-551.916"/>
<polygon fill="tan" stroke="tan" points="378.43,-554.897 385.628,-547.123 375.153,-548.712 378.43,-554.897"/>
</g>
<!-- Node_19 -->
<g id="node20" class="node"><title>Node_19</title>
<path fill="moccasin" stroke="moccasin" d="M69.5,-365.5C69.5,-365.5 110.5,-365.5 110.5,-365.5 116.5,-365.5 122.5,-371.5 122.5,-377.5 122.5,-377.5 122.5,-389.5 122.5,-389.5 122.5,-395.5 116.5,-401.5 110.5,-401.5 110.5,-401.5 69.5,-401.5 69.5,-401.5 63.5,-401.5 57.5,-395.5 57.5,-389.5 57.5,-389.5 57.5,-377.5 57.5,-377.5 57.5,-371.5 63.5,-365.5 69.5,-365.5"/>
<text text-anchor="middle" x="90" y="-381.3" font-family="Arial" font-size="9.00">i_2: [&#45;inf, inf]</text>
</g>
<!-- Node_18&#45;&gt;Node_19 -->
<g id="edge10" class="edge"><title>Node_18&#45;&gt;Node_19</title>
<path fill="none" stroke="steelblue" d="M96.0634,-438.313C95.1594,-430.289 94.0617,-420.547 93.05,-411.569"/>
<polygon fill="steelblue" stroke="steelblue" points="96.5165,-411.074 91.9187,-401.529 89.5605,-411.858 96.5165,-411.074"/>
</g>
<!-- Node_20 -->
<g id="node21" class="node"><title>Node_20</title>
<path fill="lightblue" stroke="lightblue" d="M54.5,-292.5C54.5,-292.5 95.5,-292.5 95.5,-292.5 101.5,-292.5 107.5,-298.5 107.5,-304.5 107.5,-304.5 107.5,-316.5 107.5,-316.5 107.5,-322.5 101.5,-328.5 95.5,-328.5 95.5,-328.5 54.5,-328.5 54.5,-328.5 48.5,-328.5 42.5,-322.5 42.5,-316.5 42.5,-316.5 42.5,-304.5 42.5,-304.5 42.5,-298.5 48.5,-292.5 54.5,-292.5"/>
<text text-anchor="middle" x="75" y="-308.3" font-family="Arial" font-size="9.00">if (i_2 &lt; j_3)</text>
</g>
<!-- Node_19&#45;&gt;Node_20 -->
<g id="edge24" class="edge"><title>Node_19&#45;&gt;Node_20</title>
<path fill="none" stroke="tan" d="M86.3689,-365.313C84.6738,-357.289 82.6157,-347.547 80.7188,-338.569"/>
<polygon fill="tan" stroke="tan" points="84.0892,-337.589 78.5976,-328.529 77.2404,-339.036 84.0892,-337.589"/>
</g>
<!-- Node_21 -->
<g id="node22" class="node"><title>Node_21</title>
<path fill="moccasin" stroke="moccasin" d="M12.5,-219.5C12.5,-219.5 61.5,-219.5 61.5,-219.5 67.5,-219.5 73.5,-225.5 73.5,-231.5 73.5,-231.5 73.5,-243.5 73.5,-243.5 73.5,-249.5 67.5,-255.5 61.5,-255.5 61.5,-255.5 12.5,-255.5 12.5,-255.5 6.5,-255.5 0.5,-249.5 0.5,-243.5 0.5,-243.5 0.5,-231.5 0.5,-231.5 0.5,-225.5 6.5,-219.5 12.5,-219.5"/>
<text text-anchor="middle" x="37" y="-235.3" font-family="Arial" font-size="9.00">i_2_t: [&#45;inf, inf]</text>
</g>
<!-- Node_20&#45;&gt;Node_21 -->
<g id="edge11" class="edge"><title>Node_20&#45;&gt;Node_21</title>
<path fill="none" stroke="steelblue" d="M65.8013,-292.313C61.3203,-283.941 55.8379,-273.697 50.8634,-264.403"/>
<polygon fill="steelblue" stroke="steelblue" points="53.9187,-262.694 46.114,-255.529 47.747,-265.997 53.9187,-262.694"/>
</g>
<!-- Node_21&#45;&gt;Node_0 -->
<g id="edge19" class="edge"><title>Node_21&#45;&gt;Node_0</title>
<path fill="none" stroke="tan" d="M30.8754,-255.534C21.841,-282.226 6,-335.702 6,-382.5 6,-457.5 6,-457.5 6,-457.5 6,-499.18 18.5653,-546.156 27.6964,-574.79"/>
<polygon fill="tan" stroke="tan" points="24.4288,-576.058 30.8754,-584.466 31.0791,-573.873 24.4288,-576.058"/>
</g>
<!-- Node_22 -->
<g id="node23" class="node"><title>Node_22</title>
<path fill="lightblue" stroke="lightblue" d="M135,-584.5C135,-584.5 165,-584.5 165,-584.5 171,-584.5 177,-590.5 177,-596.5 177,-596.5 177,-608.5 177,-608.5 177,-614.5 171,-620.5 165,-620.5 165,-620.5 135,-620.5 135,-620.5 129,-620.5 123,-614.5 123,-608.5 123,-608.5 123,-596.5 123,-596.5 123,-590.5 129,-584.5 135,-584.5"/>
<text text-anchor="middle" x="150" y="-600.3" font-family="Arial" font-size="9.00">i_5 = 0</text>
</g>
<!-- Node_23 -->
<g id="node24" class="node"><title>Node_23</title>
<path fill="moccasin" stroke="moccasin" d="M129.5,-511.5C129.5,-511.5 170.5,-511.5 170.5,-511.5 176.5,-511.5 182.5,-517.5 182.5,-523.5 182.5,-523.5 182.5,-535.5 182.5,-535.5 182.5,-541.5 176.5,-547.5 170.5,-547.5 170.5,-547.5 129.5,-547.5 129.5,-547.5 123.5,-547.5 117.5,-541.5 117.5,-535.5 117.5,-535.5 117.5,-523.5 117.5,-523.5 117.5,-517.5 123.5,-511.5 129.5,-511.5"/>
<text text-anchor="middle" x="150" y="-527.3" font-family="Arial" font-size="9.00">i_5: [&#45;inf, inf]</text>
</g>
<!-- Node_22&#45;&gt;Node_23 -->
<g id="edge12" class="edge"><title>Node_22&#45;&gt;Node_23</title>
<path fill="none" stroke="steelblue" d="M150,-584.313C150,-576.289 150,-566.547 150,-557.569"/>
<polygon fill="steelblue" stroke="steelblue" points="153.5,-557.529 150,-547.529 146.5,-557.529 153.5,-557.529"/>
</g>
<!-- Node_23&#45;&gt;Node_18 -->
<g id="edge22" class="edge"><title>Node_23&#45;&gt;Node_18</title>
<path fill="none" stroke="tan" d="M137.412,-511.313C131.153,-502.766 123.465,-492.269 116.546,-482.823"/>
<polygon fill="tan" stroke="tan" points="119.204,-480.528 110.472,-474.529 113.557,-484.665 119.204,-480.528"/>
</g>
<!-- Node_25 -->
<g id="node26" class="node"><title>Node_25</title>
<path fill="moccasin" stroke="moccasin" d="M377.5,-146.5C377.5,-146.5 426.5,-146.5 426.5,-146.5 432.5,-146.5 438.5,-152.5 438.5,-158.5 438.5,-158.5 438.5,-170.5 438.5,-170.5 438.5,-176.5 432.5,-182.5 426.5,-182.5 426.5,-182.5 377.5,-182.5 377.5,-182.5 371.5,-182.5 365.5,-176.5 365.5,-170.5 365.5,-170.5 365.5,-158.5 365.5,-158.5 365.5,-152.5 371.5,-146.5 377.5,-146.5"/>
<text text-anchor="middle" x="402" y="-162.3" font-family="Arial" font-size="9.00">j_3_t: [&#45;inf, inf]</text>
</g>
<!-- Node_24&#45;&gt;Node_25 -->
<g id="edge13" class="edge"><title>Node_24&#45;&gt;Node_25</title>
<path fill="none" stroke="steelblue" d="M404.274,-219.313C403.935,-211.289 403.523,-201.547 403.144,-192.569"/>
<polygon fill="steelblue" stroke="steelblue" points="406.639,-192.372 402.72,-182.529 399.645,-192.668 406.639,-192.372"/>
</g>
<!-- Node_25&#45;&gt;Node_12 -->
<g id="edge14" class="edge"><title>Node_25&#45;&gt;Node_12</title>
<path fill="none" stroke="tan" d="M401.758,-146.313C401.645,-138.289 401.508,-128.547 401.381,-119.569"/>
<polygon fill="tan" stroke="tan" points="404.88,-119.479 401.24,-109.529 397.881,-119.577 404.88,-119.479"/>
</g>
<!-- Node_26 -->
<g id="node27" class="node"><title>Node_26</title>
<path fill="moccasin" stroke="moccasin" d="M347,-438.5C347,-438.5 391,-438.5 391,-438.5 397,-438.5 403,-444.5 403,-450.5 403,-450.5 403,-462.5 403,-462.5 403,-468.5 397,-474.5 391,-474.5 391,-474.5 347,-474.5 347,-474.5 341,-474.5 335,-468.5 335,-462.5 335,-462.5 335,-450.5 335,-450.5 335,-444.5 341,-438.5 347,-438.5"/>
<text text-anchor="middle" x="369" y="-454.3" font-family="Arial" font-size="9.00">k_4: [&#45;inf, inf]</text>
</g>
<!-- Node_26&#45;&gt;Node_14 -->
<g id="edge28" class="edge"><title>Node_26&#45;&gt;Node_14</title>
<path fill="none" stroke="tan" d="M355.202,-438.313C348.27,-429.679 339.741,-419.055 332.098,-409.534"/>
<polygon fill="tan" stroke="tan" points="334.661,-407.136 325.671,-401.529 329.202,-411.518 334.661,-407.136"/>
</g>
</g>
</svg>
