<?xml version="1.0" encoding="UTF-8" standalone="no"?>
<!DOCTYPE svg PUBLIC "-//W3C//DTD SVG 1.1//EN"
 "http://www.w3.org/Graphics/SVG/1.1/DTD/svg11.dtd">
<!-- Generated by graphviz version 2.38.0 (20140413.2041)
 -->
<!-- Title: t3_bar_ConstraintGraph Pages: 1 -->
<svg width="541pt" height="431pt"
     viewBox="0.00 0.00 540.50 431.00" xmlns="http://www.w3.org/2000/svg">
<g id="graph0" class="graph" transform="scale(1 1) rotate(0) translate(4 427)">
<title>t3_bar_ConstraintGraph</title>
<polygon fill="white" stroke="none" points="-4,4 -4,-427 536.5,-427 536.5,4 -4,4"/>
<text text-anchor="middle" x="266.25" y="-409.4" font-family="Arial" font-size="12.00">t3_bar_ConstraintGraph</text>
<!-- Node_0 -->
<g id="node1" class="node"><title>Node_0</title>
<path fill="lightblue" stroke="lightblue" d="M164,-365.5C164,-365.5 217,-365.5 217,-365.5 223,-365.5 229,-371.5 229,-377.5 229,-377.5 229,-389.5 229,-389.5 229,-395.5 223,-401.5 217,-401.5 217,-401.5 164,-401.5 164,-401.5 158,-401.5 152,-395.5 152,-389.5 152,-389.5 152,-377.5 152,-377.5 152,-371.5 158,-365.5 164,-365.5"/>
<text text-anchor="middle" x="190.5" y="-381.3" font-family="Arial" font-size="9.00">j_6 = j_2_t + &#45;1</text>
</g>
<!-- Node_1 -->
<g id="node2" class="node"><title>Node_1</title>
<path fill="moccasin" stroke="moccasin" d="M12,-292.5C12,-292.5 85,-292.5 85,-292.5 91,-292.5 97,-298.5 97,-304.5 97,-304.5 97,-316.5 97,-316.5 97,-322.5 91,-328.5 85,-328.5 85,-328.5 12,-328.5 12,-328.5 6,-328.5 0,-322.5 0,-316.5 0,-316.5 0,-304.5 0,-304.5 0,-298.5 6,-292.5 12,-292.5"/>
<text text-anchor="middle" x="48.5" y="-308.3" font-family="Arial" font-size="9.00">j_6: [&#45;Infinity, Infinity]</text>
</g>
<!-- Node_0&#45;&gt;Node_1 -->
<g id="edge1" class="edge"><title>Node_0&#45;&gt;Node_1</title>
<path fill="none" stroke="steelblue" d="M156.487,-365.494C137.047,-355.773 112.473,-343.487 91.6806,-333.09"/>
<polygon fill="steelblue" stroke="steelblue" points="93.2367,-329.955 82.7272,-328.614 90.1062,-336.216 93.2367,-329.955"/>
</g>
<!-- Node_2 -->
<g id="node3" class="node"><title>Node_2</title>
<path fill="lightblue" stroke="lightblue" d="M84.5,-219.5C84.5,-219.5 200.5,-219.5 200.5,-219.5 206.5,-219.5 212.5,-225.5 212.5,-231.5 212.5,-231.5 212.5,-243.5 212.5,-243.5 212.5,-249.5 206.5,-255.5 200.5,-255.5 200.5,-255.5 84.5,-255.5 84.5,-255.5 78.5,-255.5 72.5,-249.5 72.5,-243.5 72.5,-243.5 72.5,-231.5 72.5,-231.5 72.5,-225.5 78.5,-219.5 84.5,-219.5"/>
<text text-anchor="middle" x="142.5" y="-235.3" font-family="Arial" font-size="9.00"># j_2 = PHI &lt;j_4(D)(2), j_6(3)&gt;</text>
</g>
<!-- Node_1&#45;&gt;Node_2 -->
<g id="edge9" class="edge"><title>Node_1&#45;&gt;Node_2</title>
<path fill="none" stroke="tan" d="M71.2548,-292.313C83.3783,-283.156 98.4656,-271.76 111.631,-261.816"/>
<polygon fill="tan" stroke="tan" points="114.085,-264.349 119.955,-255.529 109.866,-258.763 114.085,-264.349"/>
</g>
<!-- Node_3 -->
<g id="node4" class="node"><title>Node_3</title>
<path fill="moccasin" stroke="moccasin" d="M117,-146.5C117,-146.5 190,-146.5 190,-146.5 196,-146.5 202,-152.5 202,-158.5 202,-158.5 202,-170.5 202,-170.5 202,-176.5 196,-182.5 190,-182.5 190,-182.5 117,-182.5 117,-182.5 111,-182.5 105,-176.5 105,-170.5 105,-170.5 105,-158.5 105,-158.5 105,-152.5 111,-146.5 117,-146.5"/>
<text text-anchor="middle" x="153.5" y="-162.3" font-family="Arial" font-size="9.00">j_2: [&#45;Infinity, Infinity]</text>
</g>
<!-- Node_2&#45;&gt;Node_3 -->
<g id="edge2" class="edge"><title>Node_2&#45;&gt;Node_3</title>
<path fill="none" stroke="steelblue" d="M145.163,-219.313C146.406,-211.289 147.915,-201.547 149.306,-192.569"/>
<polygon fill="steelblue" stroke="steelblue" points="152.789,-192.947 150.862,-182.529 145.872,-191.875 152.789,-192.947"/>
</g>
<!-- Node_4 -->
<g id="node5" class="node"><title>Node_4</title>
<path fill="lightblue" stroke="lightblue" d="M146,-73.5C146,-73.5 187,-73.5 187,-73.5 193,-73.5 199,-79.5 199,-85.5 199,-85.5 199,-97.5 199,-97.5 199,-103.5 193,-109.5 187,-109.5 187,-109.5 146,-109.5 146,-109.5 140,-109.5 134,-103.5 134,-97.5 134,-97.5 134,-85.5 134,-85.5 134,-79.5 140,-73.5 146,-73.5"/>
<text text-anchor="middle" x="166.5" y="-89.3" font-family="Arial" font-size="9.00">if (i_1 &lt; j_2)</text>
</g>
<!-- Node_3&#45;&gt;Node_4 -->
<g id="edge8" class="edge"><title>Node_3&#45;&gt;Node_4</title>
<path fill="none" stroke="tan" d="M156.647,-146.313C158.116,-138.289 159.9,-128.547 161.544,-119.569"/>
<polygon fill="tan" stroke="tan" points="165.024,-119.996 163.382,-109.529 158.138,-118.735 165.024,-119.996"/>
</g>
<!-- Node_5 -->
<g id="node6" class="node"><title>Node_5</title>
<path fill="moccasin" stroke="moccasin" d="M163.5,-0.5C163.5,-0.5 243.5,-0.5 243.5,-0.5 249.5,-0.5 255.5,-6.5 255.5,-12.5 255.5,-12.5 255.5,-24.5 255.5,-24.5 255.5,-30.5 249.5,-36.5 243.5,-36.5 243.5,-36.5 163.5,-36.5 163.5,-36.5 157.5,-36.5 151.5,-30.5 151.5,-24.5 151.5,-24.5 151.5,-12.5 151.5,-12.5 151.5,-6.5 157.5,-0.5 163.5,-0.5"/>
<text text-anchor="middle" x="203.5" y="-16.3" font-family="Arial" font-size="9.00">j_2_t: [&#45;Infinity, Infinity]</text>
</g>
<!-- Node_4&#45;&gt;Node_5 -->
<g id="edge3" class="edge"><title>Node_4&#45;&gt;Node_5</title>
<path fill="none" stroke="steelblue" d="M175.457,-73.3129C179.82,-64.9407 185.158,-54.6971 190.001,-45.4026"/>
<polygon fill="steelblue" stroke="steelblue" points="193.108,-47.0144 194.626,-36.5288 186.901,-43.7794 193.108,-47.0144"/>
</g>
<!-- Node_5&#45;&gt;Node_0 -->
<g id="edge10" class="edge"><title>Node_5&#45;&gt;Node_0</title>
<path fill="none" stroke="tan" d="M210.988,-36.8645C221.799,-63.5586 240.5,-116.522 240.5,-163.5 240.5,-238.5 240.5,-238.5 240.5,-238.5 240.5,-279.693 235.176,-290.51 220.5,-329 216.934,-338.353 211.942,-348.051 207.052,-356.579"/>
<polygon fill="tan" stroke="tan" points="203.966,-354.919 201.858,-365.302 209.981,-358.5 203.966,-354.919"/>
</g>
<!-- Node_6 -->
<g id="node7" class="node"><title>Node_6</title>
<path fill="lightblue" stroke="lightblue" d="M350.5,-365.5C350.5,-365.5 400.5,-365.5 400.5,-365.5 406.5,-365.5 412.5,-371.5 412.5,-377.5 412.5,-377.5 412.5,-389.5 412.5,-389.5 412.5,-395.5 406.5,-401.5 400.5,-401.5 400.5,-401.5 350.5,-401.5 350.5,-401.5 344.5,-401.5 338.5,-395.5 338.5,-389.5 338.5,-389.5 338.5,-377.5 338.5,-377.5 338.5,-371.5 344.5,-365.5 350.5,-365.5"/>
<text text-anchor="middle" x="375.5" y="-381.3" font-family="Arial" font-size="9.00">i_5 = i_1_t + 1</text>
</g>
<!-- Node_7 -->
<g id="node8" class="node"><title>Node_7</title>
<path fill="moccasin" stroke="moccasin" d="M289,-292.5C289,-292.5 362,-292.5 362,-292.5 368,-292.5 374,-298.5 374,-304.5 374,-304.5 374,-316.5 374,-316.5 374,-322.5 368,-328.5 362,-328.5 362,-328.5 289,-328.5 289,-328.5 283,-328.5 277,-322.5 277,-316.5 277,-316.5 277,-304.5 277,-304.5 277,-298.5 283,-292.5 289,-292.5"/>
<text text-anchor="middle" x="325.5" y="-308.3" font-family="Arial" font-size="9.00">i_5: [&#45;Infinity, Infinity]</text>
</g>
<!-- Node_6&#45;&gt;Node_7 -->
<g id="edge4" class="edge"><title>Node_6&#45;&gt;Node_7</title>
<path fill="none" stroke="steelblue" d="M363.396,-365.313C357.378,-356.766 349.986,-346.269 343.333,-336.823"/>
<polygon fill="steelblue" stroke="steelblue" points="346.112,-334.69 337.492,-328.529 340.388,-338.72 346.112,-334.69"/>
</g>
<!-- Node_8 -->
<g id="node9" class="node"><title>Node_8</title>
<path fill="lightblue" stroke="lightblue" d="M361.5,-219.5C361.5,-219.5 477.5,-219.5 477.5,-219.5 483.5,-219.5 489.5,-225.5 489.5,-231.5 489.5,-231.5 489.5,-243.5 489.5,-243.5 489.5,-249.5 483.5,-255.5 477.5,-255.5 477.5,-255.5 361.5,-255.5 361.5,-255.5 355.5,-255.5 349.5,-249.5 349.5,-243.5 349.5,-243.5 349.5,-231.5 349.5,-231.5 349.5,-225.5 355.5,-219.5 361.5,-219.5"/>
<text text-anchor="middle" x="419.5" y="-235.3" font-family="Arial" font-size="9.00"># i_1 = PHI &lt;i_3(D)(2), i_5(3)&gt;</text>
</g>
<!-- Node_7&#45;&gt;Node_8 -->
<g id="edge12" class="edge"><title>Node_7&#45;&gt;Node_8</title>
<path fill="none" stroke="tan" d="M348.255,-292.313C360.378,-283.156 375.466,-271.76 388.631,-261.816"/>
<polygon fill="tan" stroke="tan" points="391.085,-264.349 396.955,-255.529 386.866,-258.763 391.085,-264.349"/>
</g>
<!-- Node_9 -->
<g id="node10" class="node"><title>Node_9</title>
<path fill="moccasin" stroke="moccasin" d="M394,-146.5C394,-146.5 467,-146.5 467,-146.5 473,-146.5 479,-152.5 479,-158.5 479,-158.5 479,-170.5 479,-170.5 479,-176.5 473,-182.5 467,-182.5 467,-182.5 394,-182.5 394,-182.5 388,-182.5 382,-176.5 382,-170.5 382,-170.5 382,-158.5 382,-158.5 382,-152.5 388,-146.5 394,-146.5"/>
<text text-anchor="middle" x="430.5" y="-162.3" font-family="Arial" font-size="9.00">i_1: [&#45;Infinity, Infinity]</text>
</g>
<!-- Node_8&#45;&gt;Node_9 -->
<g id="edge5" class="edge"><title>Node_8&#45;&gt;Node_9</title>
<path fill="none" stroke="steelblue" d="M422.163,-219.313C423.406,-211.289 424.915,-201.547 426.306,-192.569"/>
<polygon fill="steelblue" stroke="steelblue" points="429.789,-192.947 427.862,-182.529 422.872,-191.875 429.789,-192.947"/>
</g>
<!-- Node_10 -->
<g id="node11" class="node"><title>Node_10</title>
<path fill="lightblue" stroke="lightblue" d="M423,-73.5C423,-73.5 464,-73.5 464,-73.5 470,-73.5 476,-79.5 476,-85.5 476,-85.5 476,-97.5 476,-97.5 476,-103.5 470,-109.5 464,-109.5 464,-109.5 423,-109.5 423,-109.5 417,-109.5 411,-103.5 411,-97.5 411,-97.5 411,-85.5 411,-85.5 411,-79.5 417,-73.5 423,-73.5"/>
<text text-anchor="middle" x="443.5" y="-89.3" font-family="Arial" font-size="9.00">if (i_1 &lt; j_2)</text>
</g>
<!-- Node_9&#45;&gt;Node_10 -->
<g id="edge7" class="edge"><title>Node_9&#45;&gt;Node_10</title>
<path fill="none" stroke="tan" d="M433.647,-146.313C435.116,-138.289 436.9,-128.547 438.544,-119.569"/>
<polygon fill="tan" stroke="tan" points="442.024,-119.996 440.382,-109.529 435.138,-118.735 442.024,-119.996"/>
</g>
<!-- Node_11 -->
<g id="node12" class="node"><title>Node_11</title>
<path fill="moccasin" stroke="moccasin" d="M440.5,-0.5C440.5,-0.5 520.5,-0.5 520.5,-0.5 526.5,-0.5 532.5,-6.5 532.5,-12.5 532.5,-12.5 532.5,-24.5 532.5,-24.5 532.5,-30.5 526.5,-36.5 520.5,-36.5 520.5,-36.5 440.5,-36.5 440.5,-36.5 434.5,-36.5 428.5,-30.5 428.5,-24.5 428.5,-24.5 428.5,-12.5 428.5,-12.5 428.5,-6.5 434.5,-0.5 440.5,-0.5"/>
<text text-anchor="middle" x="480.5" y="-16.3" font-family="Arial" font-size="9.00">i_1_t: [&#45;Infinity, Infinity]</text>
</g>
<!-- Node_10&#45;&gt;Node_11 -->
<g id="edge6" class="edge"><title>Node_10&#45;&gt;Node_11</title>
<path fill="none" stroke="steelblue" d="M452.457,-73.3129C456.82,-64.9407 462.158,-54.6971 467.001,-45.4026"/>
<polygon fill="steelblue" stroke="steelblue" points="470.108,-47.0144 471.626,-36.5288 463.901,-43.7794 470.108,-47.0144"/>
</g>
<!-- Node_11&#45;&gt;Node_6 -->
<g id="edge11" class="edge"><title>Node_11&#45;&gt;Node_6</title>
<path fill="none" stroke="tan" d="M487.988,-36.8645C498.799,-63.5586 517.5,-116.522 517.5,-163.5 517.5,-238.5 517.5,-238.5 517.5,-238.5 517.5,-279.693 523.642,-297.165 497.5,-329 478.777,-351.801 448.42,-365.163 422.672,-372.831"/>
<polygon fill="tan" stroke="tan" points="421.404,-369.55 412.701,-375.592 423.272,-376.296 421.404,-369.55"/>
</g>
<!-- Node_12 -->
<g id="node13" class="node"><title>Node_12</title>
<path fill="moccasin" stroke="moccasin" d="M404,-292.5C404,-292.5 477,-292.5 477,-292.5 483,-292.5 489,-298.5 489,-304.5 489,-304.5 489,-316.5 489,-316.5 489,-322.5 483,-328.5 477,-328.5 477,-328.5 404,-328.5 404,-328.5 398,-328.5 392,-322.5 392,-316.5 392,-316.5 392,-304.5 392,-304.5 392,-298.5 398,-292.5 404,-292.5"/>
<text text-anchor="middle" x="440.5" y="-308.3" font-family="Arial" font-size="9.00">i_3: [&#45;Infinity, Infinity]</text>
</g>
<!-- Node_12&#45;&gt;Node_8 -->
<g id="edge13" class="edge"><title>Node_12&#45;&gt;Node_8</title>
<path fill="none" stroke="tan" d="M435.416,-292.313C433.018,-284.202 430.099,-274.336 427.42,-265.277"/>
<polygon fill="tan" stroke="tan" points="430.729,-264.125 424.537,-255.529 424.017,-266.111 430.729,-264.125"/>
</g>
<!-- Node_13 -->
<g id="node14" class="node"><title>Node_13</title>
<path fill="moccasin" stroke="moccasin" d="M127,-292.5C127,-292.5 200,-292.5 200,-292.5 206,-292.5 212,-298.5 212,-304.5 212,-304.5 212,-316.5 212,-316.5 212,-322.5 206,-328.5 200,-328.5 200,-328.5 127,-328.5 127,-328.5 121,-328.5 115,-322.5 115,-316.5 115,-316.5 115,-304.5 115,-304.5 115,-298.5 121,-292.5 127,-292.5"/>
<text text-anchor="middle" x="163.5" y="-308.3" font-family="Arial" font-size="9.00">j_4: [&#45;Infinity, Infinity]</text>
</g>
<!-- Node_13&#45;&gt;Node_2 -->
<g id="edge14" class="edge"><title>Node_13&#45;&gt;Node_2</title>
<path fill="none" stroke="tan" d="M158.416,-292.313C156.018,-284.202 153.099,-274.336 150.42,-265.277"/>
<polygon fill="tan" stroke="tan" points="153.729,-264.125 147.537,-255.529 147.017,-266.111 153.729,-264.125"/>
</g>
</g>
</svg>
