<?xml version="1.0" encoding="UTF-8" standalone="no"?>
<!DOCTYPE svg PUBLIC "-//W3C//DTD SVG 1.1//EN"
 "http://www.w3.org/Graphics/SVG/1.1/DTD/svg11.dtd">
<!-- Generated by graphviz version 2.38.0 (20140413.2041)
 -->
<!-- Title: t3_bar_CFG Pages: 1 -->
<svg width="209pt" height="412pt"
     viewBox="0.00 0.00 208.50 412.00" xmlns="http://www.w3.org/2000/svg">
<g id="graph0" class="graph" transform="scale(1 1) rotate(0) translate(4 408)">
<title>t3_bar_CFG</title>
<polygon fill="white" stroke="none" points="-4,4 -4,-408 204.5,-408 204.5,4 -4,4"/>
<text text-anchor="middle" x="100.25" y="-390.4" font-family="Arial" font-size="12.00">t3_bar_CFG</text>
<!-- Node_0 -->
<g id="node1" class="node"><title>Node_0</title>
<path fill="mintcream" stroke="orange" d="M78.5,-346.5C78.5,-346.5 108.5,-346.5 108.5,-346.5 114.5,-346.5 120.5,-352.5 120.5,-358.5 120.5,-358.5 120.5,-370.5 120.5,-370.5 120.5,-376.5 114.5,-382.5 108.5,-382.5 108.5,-382.5 78.5,-382.5 78.5,-382.5 72.5,-382.5 66.5,-376.5 66.5,-370.5 66.5,-370.5 66.5,-358.5 66.5,-358.5 66.5,-352.5 72.5,-346.5 78.5,-346.5"/>
<text text-anchor="middle" x="93.5" y="-362.3" font-family="Arial" font-size="9.00">&lt;Entry&gt;</text>
</g>
<!-- Node_1 -->
<g id="node2" class="node"><title>Node_1</title>
<path fill="mintcream" stroke="black" d="M73,-273.5C73,-273.5 114,-273.5 114,-273.5 120,-273.5 126,-279.5 126,-285.5 126,-285.5 126,-297.5 126,-297.5 126,-303.5 120,-309.5 114,-309.5 114,-309.5 73,-309.5 73,-309.5 67,-309.5 61,-303.5 61,-297.5 61,-297.5 61,-285.5 61,-285.5 61,-279.5 67,-273.5 73,-273.5"/>
<text text-anchor="middle" x="93.5" y="-298.3" font-family="Arial" font-size="9.00">&lt;bb 2&gt;</text>
<polyline fill="none" stroke="black" points="61,-291.5 126,-291.5 "/>
<text text-anchor="middle" x="93.5" y="-280.3" font-family="Arial" font-size="9.00">goto &lt;bb 4&gt;</text>
</g>
<!-- Node_0&#45;&gt;Node_1 -->
<g id="edge1" class="edge"><title>Node_0&#45;&gt;Node_1</title>
<path fill="none" stroke="black" d="M93.5,-346.313C93.5,-338.289 93.5,-328.547 93.5,-319.569"/>
<polygon fill="black" stroke="black" points="97.0001,-319.529 93.5,-309.529 90.0001,-319.529 97.0001,-319.529"/>
</g>
<!-- Node_2 -->
<g id="node3" class="node"><title>Node_2</title>
<path fill="mintcream" stroke="black" d="M12,-164.5C12,-164.5 175,-164.5 175,-164.5 181,-164.5 187,-170.5 187,-176.5 187,-176.5 187,-224.5 187,-224.5 187,-230.5 181,-236.5 175,-236.5 175,-236.5 12,-236.5 12,-236.5 6,-236.5 0,-230.5 0,-224.5 0,-224.5 0,-176.5 0,-176.5 0,-170.5 6,-164.5 12,-164.5"/>
<text text-anchor="middle" x="93.5" y="-225.3" font-family="Arial" font-size="9.00">&lt;bb 4&gt;</text>
<polyline fill="none" stroke="black" points="0,-218.5 187,-218.5 "/>
<text text-anchor="middle" x="93.5" y="-207.3" font-family="Arial" font-size="9.00"># i_1 = PHI &lt;i_3(D)(2), i_5(3)&gt;</text>
<polyline fill="none" stroke="black" points="0,-200.5 187,-200.5 "/>
<text text-anchor="middle" x="93.5" y="-189.3" font-family="Arial" font-size="9.00"># j_2 = PHI &lt;j_4(D)(2), j_6(3)&gt;</text>
<polyline fill="none" stroke="black" points="0,-182.5 187,-182.5 "/>
<text text-anchor="middle" x="93.5" y="-171.3" font-family="Arial" font-size="9.00">if (i_1 &lt; j_2) goto &lt;bb 3&gt; else goto &lt;bb 5&gt;</text>
</g>
<!-- Node_1&#45;&gt;Node_2 -->
<g id="edge2" class="edge"><title>Node_1&#45;&gt;Node_2</title>
<path fill="none" stroke="black" d="M93.5,-273.34C93.5,-265.698 93.5,-256.301 93.5,-246.852"/>
<polygon fill="black" stroke="black" points="97.0001,-246.659 93.5,-236.659 90.0001,-246.659 97.0001,-246.659"/>
</g>
<!-- Node_3 -->
<g id="node4" class="node"><title>Node_3</title>
<path fill="mintcream" stroke="black" d="M70.5,-73.5C70.5,-73.5 116.5,-73.5 116.5,-73.5 122.5,-73.5 128.5,-79.5 128.5,-85.5 128.5,-85.5 128.5,-115.5 128.5,-115.5 128.5,-121.5 122.5,-127.5 116.5,-127.5 116.5,-127.5 70.5,-127.5 70.5,-127.5 64.5,-127.5 58.5,-121.5 58.5,-115.5 58.5,-115.5 58.5,-85.5 58.5,-85.5 58.5,-79.5 64.5,-73.5 70.5,-73.5"/>
<text text-anchor="middle" x="93.5" y="-116.3" font-family="Arial" font-size="9.00">&lt;bb 3&gt;</text>
<polyline fill="none" stroke="black" points="58.5,-109.5 128.5,-109.5 "/>
<text text-anchor="middle" x="93.5" y="-98.3" font-family="Arial" font-size="9.00">i_5 = i_1 + 1</text>
<polyline fill="none" stroke="black" points="58.5,-91.5 128.5,-91.5 "/>
<text text-anchor="middle" x="93.5" y="-80.3" font-family="Arial" font-size="9.00">j_6 = j_2 + &#45;1</text>
</g>
<!-- Node_2&#45;&gt;Node_3 -->
<g id="edge3" class="edge"><title>Node_2&#45;&gt;Node_3</title>
<path fill="none" stroke="crimson" d="M86.9973,-164.397C86.6838,-155.806 86.6684,-146.595 86.951,-137.944"/>
<polygon fill="crimson" stroke="crimson" points="90.4568,-137.905 87.4435,-127.748 83.465,-137.568 90.4568,-137.905"/>
</g>
<!-- Node_4 -->
<g id="node5" class="node"><title>Node_4</title>
<path fill="mintcream" stroke="black" d="M158.5,-82.5C158.5,-82.5 188.5,-82.5 188.5,-82.5 194.5,-82.5 200.5,-88.5 200.5,-94.5 200.5,-94.5 200.5,-106.5 200.5,-106.5 200.5,-112.5 194.5,-118.5 188.5,-118.5 188.5,-118.5 158.5,-118.5 158.5,-118.5 152.5,-118.5 146.5,-112.5 146.5,-106.5 146.5,-106.5 146.5,-94.5 146.5,-94.5 146.5,-88.5 152.5,-82.5 158.5,-82.5"/>
<text text-anchor="middle" x="173.5" y="-107.3" font-family="Arial" font-size="9.00">&lt;bb 5&gt;</text>
<polyline fill="none" stroke="black" points="146.5,-100.5 200.5,-100.5 "/>
<text text-anchor="middle" x="173.5" y="-89.3" font-family="Arial" font-size="9.00">return</text>
</g>
<!-- Node_2&#45;&gt;Node_4 -->
<g id="edge5" class="edge"><title>Node_2&#45;&gt;Node_4</title>
<path fill="none" stroke="teal" d="M122.156,-164.397C132.402,-151.845 143.731,-137.968 153.134,-126.448"/>
<polygon fill="teal" stroke="teal" points="155.985,-128.49 159.598,-118.53 150.563,-124.063 155.985,-128.49"/>
</g>
<!-- Node_3&#45;&gt;Node_2 -->
<g id="edge4" class="edge"><title>Node_3&#45;&gt;Node_2</title>
<path fill="none" stroke="black" d="M99.5565,-127.748C100.093,-135.925 100.318,-145.188 100.232,-154.276"/>
<polygon fill="black" stroke="black" points="96.7304,-154.32 100.003,-164.397 103.729,-154.478 96.7304,-154.32"/>
</g>
<!-- Node_5 -->
<g id="node6" class="node"><title>Node_5</title>
<path fill="mintcream" stroke="#1874cd" d="M158.5,-0.5C158.5,-0.5 188.5,-0.5 188.5,-0.5 194.5,-0.5 200.5,-6.5 200.5,-12.5 200.5,-12.5 200.5,-24.5 200.5,-24.5 200.5,-30.5 194.5,-36.5 188.5,-36.5 188.5,-36.5 158.5,-36.5 158.5,-36.5 152.5,-36.5 146.5,-30.5 146.5,-24.5 146.5,-24.5 146.5,-12.5 146.5,-12.5 146.5,-6.5 152.5,-0.5 158.5,-0.5"/>
<text text-anchor="middle" x="173.5" y="-16.3" font-family="Arial" font-size="9.00">&lt;Exit&gt;</text>
</g>
<!-- Node_4&#45;&gt;Node_5 -->
<g id="edge6" class="edge"><title>Node_4&#45;&gt;Node_5</title>
<path fill="none" stroke="black" d="M173.5,-82.1412C173.5,-71.7971 173.5,-58.441 173.5,-46.7206"/>
<polygon fill="black" stroke="black" points="177,-46.5501 173.5,-36.5501 170,-46.5501 177,-46.5501"/>
</g>
</g>
</svg>
