<?xml version="1.0" encoding="UTF-8" standalone="no"?>
<!DOCTYPE svg PUBLIC "-//W3C//DTD SVG 1.1//EN"
 "http://www.w3.org/Graphics/SVG/1.1/DTD/svg11.dtd">
<!-- Generated by graphviz version 2.38.0 (20140413.2041)
 -->
<!-- Title: t3_bar_ConstraintGraph Pages: 1 -->
<svg width="420pt" height="431pt"
     viewBox="0.00 0.00 420.00 431.00" xmlns="http://www.w3.org/2000/svg">
<g id="graph0" class="graph" transform="scale(1 1) rotate(0) translate(4 427)">
<title>t3_bar_ConstraintGraph</title>
<polygon fill="white" stroke="none" points="-4,4 -4,-427 416,-427 416,4 -4,4"/>
<text text-anchor="middle" x="206" y="-409.4" font-family="Arial" font-size="12.00">t3_bar_ConstraintGraph</text>
<!-- Node_0 -->
<g id="node1" class="node"><title>Node_0</title>
<path fill="lightblue" stroke="lightblue" d="M111.5,-365.5C111.5,-365.5 161.5,-365.5 161.5,-365.5 167.5,-365.5 173.5,-371.5 173.5,-377.5 173.5,-377.5 173.5,-389.5 173.5,-389.5 173.5,-395.5 167.5,-401.5 161.5,-401.5 161.5,-401.5 111.5,-401.5 111.5,-401.5 105.5,-401.5 99.5,-395.5 99.5,-389.5 99.5,-389.5 99.5,-377.5 99.5,-377.5 99.5,-371.5 105.5,-365.5 111.5,-365.5"/>
<text text-anchor="middle" x="136.5" y="-381.3" font-family="Arial" font-size="9.00">i_5 = i_1_t + 1</text>
</g>
<!-- Node_1 -->
<g id="node2" class="node"><title>Node_1</title>
<path fill="moccasin" stroke="moccasin" d="M12,-292.5C12,-292.5 53,-292.5 53,-292.5 59,-292.5 65,-298.5 65,-304.5 65,-304.5 65,-316.5 65,-316.5 65,-322.5 59,-328.5 53,-328.5 53,-328.5 12,-328.5 12,-328.5 6,-328.5 0,-322.5 0,-316.5 0,-316.5 0,-304.5 0,-304.5 0,-298.5 6,-292.5 12,-292.5"/>
<text text-anchor="middle" x="32.5" y="-308.3" font-family="Arial" font-size="9.00">i_5: [&#45;inf, inf]</text>
</g>
<!-- Node_0&#45;&gt;Node_1 -->
<g id="edge1" class="edge"><title>Node_0&#45;&gt;Node_1</title>
<path fill="none" stroke="steelblue" d="M111.589,-365.494C97.9258,-356.166 80.8002,-344.474 65.9821,-334.358"/>
<polygon fill="steelblue" stroke="steelblue" points="67.8001,-331.361 57.5678,-328.614 63.8533,-337.143 67.8001,-331.361"/>
</g>
<!-- Node_8 -->
<g id="node9" class="node"><title>Node_8</title>
<path fill="lightblue" stroke="lightblue" d="M20.5,-219.5C20.5,-219.5 136.5,-219.5 136.5,-219.5 142.5,-219.5 148.5,-225.5 148.5,-231.5 148.5,-231.5 148.5,-243.5 148.5,-243.5 148.5,-249.5 142.5,-255.5 136.5,-255.5 136.5,-255.5 20.5,-255.5 20.5,-255.5 14.5,-255.5 8.5,-249.5 8.5,-243.5 8.5,-243.5 8.5,-231.5 8.5,-231.5 8.5,-225.5 14.5,-219.5 20.5,-219.5"/>
<text text-anchor="middle" x="78.5" y="-235.3" font-family="Arial" font-size="9.00"># i_1 = PHI &lt;i_3(D)(2), i_5(3)&gt;</text>
</g>
<!-- Node_1&#45;&gt;Node_8 -->
<g id="edge13" class="edge"><title>Node_1&#45;&gt;Node_8</title>
<path fill="none" stroke="tan" d="M43.6353,-292.313C49.1161,-283.853 55.8346,-273.484 61.906,-264.112"/>
<polygon fill="tan" stroke="tan" points="64.9672,-265.824 67.4672,-255.529 59.0924,-262.018 64.9672,-265.824"/>
</g>
<!-- Node_2 -->
<g id="node3" class="node"><title>Node_2</title>
<path fill="lightblue" stroke="lightblue" d="M267,-365.5C267,-365.5 320,-365.5 320,-365.5 326,-365.5 332,-371.5 332,-377.5 332,-377.5 332,-389.5 332,-389.5 332,-395.5 326,-401.5 320,-401.5 320,-401.5 267,-401.5 267,-401.5 261,-401.5 255,-395.5 255,-389.5 255,-389.5 255,-377.5 255,-377.5 255,-371.5 261,-365.5 267,-365.5"/>
<text text-anchor="middle" x="293.5" y="-381.3" font-family="Arial" font-size="9.00">j_6 = j_2_t + &#45;1</text>
</g>
<!-- Node_3 -->
<g id="node4" class="node"><title>Node_3</title>
<path fill="moccasin" stroke="moccasin" d="M233,-292.5C233,-292.5 274,-292.5 274,-292.5 280,-292.5 286,-298.5 286,-304.5 286,-304.5 286,-316.5 286,-316.5 286,-322.5 280,-328.5 274,-328.5 274,-328.5 233,-328.5 233,-328.5 227,-328.5 221,-322.5 221,-316.5 221,-316.5 221,-304.5 221,-304.5 221,-298.5 227,-292.5 233,-292.5"/>
<text text-anchor="middle" x="253.5" y="-308.3" font-family="Arial" font-size="9.00">j_6: [&#45;inf, inf]</text>
</g>
<!-- Node_2&#45;&gt;Node_3 -->
<g id="edge2" class="edge"><title>Node_2&#45;&gt;Node_3</title>
<path fill="none" stroke="steelblue" d="M283.817,-365.313C279.1,-356.941 273.329,-346.697 268.093,-337.403"/>
<polygon fill="steelblue" stroke="steelblue" points="271.052,-335.523 263.094,-328.529 264.953,-338.959 271.052,-335.523"/>
</g>
<!-- Node_6 -->
<g id="node7" class="node"><title>Node_6</title>
<path fill="lightblue" stroke="lightblue" d="M241.5,-219.5C241.5,-219.5 357.5,-219.5 357.5,-219.5 363.5,-219.5 369.5,-225.5 369.5,-231.5 369.5,-231.5 369.5,-243.5 369.5,-243.5 369.5,-249.5 363.5,-255.5 357.5,-255.5 357.5,-255.5 241.5,-255.5 241.5,-255.5 235.5,-255.5 229.5,-249.5 229.5,-243.5 229.5,-243.5 229.5,-231.5 229.5,-231.5 229.5,-225.5 235.5,-219.5 241.5,-219.5"/>
<text text-anchor="middle" x="299.5" y="-235.3" font-family="Arial" font-size="9.00"># j_2 = PHI &lt;j_4(D)(2), j_6(3)&gt;</text>
</g>
<!-- Node_3&#45;&gt;Node_6 -->
<g id="edge11" class="edge"><title>Node_3&#45;&gt;Node_6</title>
<path fill="none" stroke="tan" d="M264.635,-292.313C270.116,-283.853 276.835,-273.484 282.906,-264.112"/>
<polygon fill="tan" stroke="tan" points="285.967,-265.824 288.467,-255.529 280.092,-262.018 285.967,-265.824"/>
</g>
<!-- Node_4 -->
<g id="node5" class="node"><title>Node_4</title>
<path fill="lightblue" stroke="lightblue" d="M306,-73.5C306,-73.5 347,-73.5 347,-73.5 353,-73.5 359,-79.5 359,-85.5 359,-85.5 359,-97.5 359,-97.5 359,-103.5 353,-109.5 347,-109.5 347,-109.5 306,-109.5 306,-109.5 300,-109.5 294,-103.5 294,-97.5 294,-97.5 294,-85.5 294,-85.5 294,-79.5 300,-73.5 306,-73.5"/>
<text text-anchor="middle" x="326.5" y="-89.3" font-family="Arial" font-size="9.00">if (j_2 &gt; i_1)</text>
</g>
<!-- Node_5 -->
<g id="node6" class="node"><title>Node_5</title>
<path fill="moccasin" stroke="moccasin" d="M351,-0.5C351,-0.5 400,-0.5 400,-0.5 406,-0.5 412,-6.5 412,-12.5 412,-12.5 412,-24.5 412,-24.5 412,-30.5 406,-36.5 400,-36.5 400,-36.5 351,-36.5 351,-36.5 345,-36.5 339,-30.5 339,-24.5 339,-24.5 339,-12.5 339,-12.5 339,-6.5 345,-0.5 351,-0.5"/>
<text text-anchor="middle" x="375.5" y="-16.3" font-family="Arial" font-size="9.00">j_2_t: [&#45;inf, inf]</text>
</g>
<!-- Node_4&#45;&gt;Node_5 -->
<g id="edge3" class="edge"><title>Node_4&#45;&gt;Node_5</title>
<path fill="none" stroke="steelblue" d="M338.362,-73.3129C344.26,-64.7662 351.504,-54.2695 358.024,-44.8229"/>
<polygon fill="steelblue" stroke="steelblue" points="360.948,-46.7471 363.748,-36.5288 355.187,-42.7711 360.948,-46.7471"/>
</g>
<!-- Node_5&#45;&gt;Node_2 -->
<g id="edge9" class="edge"><title>Node_5&#45;&gt;Node_2</title>
<path fill="none" stroke="tan" d="M379.846,-36.6599C386.258,-63.5212 397.5,-117.219 397.5,-163.5 397.5,-238.5 397.5,-238.5 397.5,-238.5 397.5,-279.693 401.118,-295.25 377.5,-329 368.311,-342.131 354.763,-352.767 341.218,-360.994"/>
<polygon fill="tan" stroke="tan" points="339.309,-358.053 332.363,-366.054 342.782,-364.131 339.309,-358.053"/>
</g>
<!-- Node_7 -->
<g id="node8" class="node"><title>Node_7</title>
<path fill="moccasin" stroke="moccasin" d="M288,-146.5C288,-146.5 329,-146.5 329,-146.5 335,-146.5 341,-152.5 341,-158.5 341,-158.5 341,-170.5 341,-170.5 341,-176.5 335,-182.5 329,-182.5 329,-182.5 288,-182.5 288,-182.5 282,-182.5 276,-176.5 276,-170.5 276,-170.5 276,-158.5 276,-158.5 276,-152.5 282,-146.5 288,-146.5"/>
<text text-anchor="middle" x="308.5" y="-162.3" font-family="Arial" font-size="9.00">j_2: [&#45;inf, inf]</text>
</g>
<!-- Node_6&#45;&gt;Node_7 -->
<g id="edge4" class="edge"><title>Node_6&#45;&gt;Node_7</title>
<path fill="none" stroke="steelblue" d="M301.679,-219.313C302.696,-211.289 303.931,-201.547 305.069,-192.569"/>
<polygon fill="steelblue" stroke="steelblue" points="308.556,-192.89 306.341,-182.529 301.612,-192.009 308.556,-192.89"/>
</g>
<!-- Node_7&#45;&gt;Node_4 -->
<g id="edge7" class="edge"><title>Node_7&#45;&gt;Node_4</title>
<path fill="none" stroke="tan" d="M312.857,-146.313C314.914,-138.202 317.415,-128.336 319.712,-119.277"/>
<polygon fill="tan" stroke="tan" points="323.118,-120.082 322.183,-109.529 316.333,-118.362 323.118,-120.082"/>
</g>
<!-- Node_9 -->
<g id="node10" class="node"><title>Node_9</title>
<path fill="moccasin" stroke="moccasin" d="M77,-146.5C77,-146.5 118,-146.5 118,-146.5 124,-146.5 130,-152.5 130,-158.5 130,-158.5 130,-170.5 130,-170.5 130,-176.5 124,-182.5 118,-182.5 118,-182.5 77,-182.5 77,-182.5 71,-182.5 65,-176.5 65,-170.5 65,-170.5 65,-158.5 65,-158.5 65,-152.5 71,-146.5 77,-146.5"/>
<text text-anchor="middle" x="97.5" y="-162.3" font-family="Arial" font-size="9.00">i_1: [&#45;inf, inf]</text>
</g>
<!-- Node_8&#45;&gt;Node_9 -->
<g id="edge5" class="edge"><title>Node_8&#45;&gt;Node_9</title>
<path fill="none" stroke="steelblue" d="M83.0994,-219.313C85.2698,-211.202 87.9102,-201.336 90.3344,-192.277"/>
<polygon fill="steelblue" stroke="steelblue" points="93.7389,-193.094 92.943,-182.529 86.9768,-191.284 93.7389,-193.094"/>
</g>
<!-- Node_10 -->
<g id="node11" class="node"><title>Node_10</title>
<path fill="lightblue" stroke="lightblue" d="M86,-73.5C86,-73.5 127,-73.5 127,-73.5 133,-73.5 139,-79.5 139,-85.5 139,-85.5 139,-97.5 139,-97.5 139,-103.5 133,-109.5 127,-109.5 127,-109.5 86,-109.5 86,-109.5 80,-109.5 74,-103.5 74,-97.5 74,-97.5 74,-85.5 74,-85.5 74,-79.5 80,-73.5 86,-73.5"/>
<text text-anchor="middle" x="106.5" y="-89.3" font-family="Arial" font-size="9.00">if (i_1 &lt; j_2)</text>
</g>
<!-- Node_9&#45;&gt;Node_10 -->
<g id="edge10" class="edge"><title>Node_9&#45;&gt;Node_10</title>
<path fill="none" stroke="tan" d="M99.6786,-146.313C100.696,-138.289 101.931,-128.547 103.069,-119.569"/>
<polygon fill="tan" stroke="tan" points="106.556,-119.89 104.341,-109.529 99.6116,-119.009 106.556,-119.89"/>
</g>
<!-- Node_11 -->
<g id="node12" class="node"><title>Node_11</title>
<path fill="moccasin" stroke="moccasin" d="M122,-0.5C122,-0.5 171,-0.5 171,-0.5 177,-0.5 183,-6.5 183,-12.5 183,-12.5 183,-24.5 183,-24.5 183,-30.5 177,-36.5 171,-36.5 171,-36.5 122,-36.5 122,-36.5 116,-36.5 110,-30.5 110,-24.5 110,-24.5 110,-12.5 110,-12.5 110,-6.5 116,-0.5 122,-0.5"/>
<text text-anchor="middle" x="146.5" y="-16.3" font-family="Arial" font-size="9.00">i_1_t: [&#45;inf, inf]</text>
</g>
<!-- Node_10&#45;&gt;Node_11 -->
<g id="edge6" class="edge"><title>Node_10&#45;&gt;Node_11</title>
<path fill="none" stroke="steelblue" d="M116.183,-73.3129C120.9,-64.9407 126.671,-54.6971 131.907,-45.4026"/>
<polygon fill="steelblue" stroke="steelblue" points="135.047,-46.9593 136.906,-36.5288 128.948,-43.5234 135.047,-46.9593"/>
</g>
<!-- Node_11&#45;&gt;Node_0 -->
<g id="edge12" class="edge"><title>Node_11&#45;&gt;Node_0</title>
<path fill="none" stroke="tan" d="M152.427,-36.5498C161.17,-63.2638 176.5,-116.768 176.5,-163.5 176.5,-238.5 176.5,-238.5 176.5,-238.5 176.5,-280.742 160.322,-327.495 148.544,-355.938"/>
<polygon fill="tan" stroke="tan" points="145.298,-354.625 144.595,-365.197 151.737,-357.372 145.298,-354.625"/>
</g>
<!-- Node_12 -->
<g id="node13" class="node"><title>Node_12</title>
<path fill="moccasin" stroke="moccasin" d="M95,-292.5C95,-292.5 136,-292.5 136,-292.5 142,-292.5 148,-298.5 148,-304.5 148,-304.5 148,-316.5 148,-316.5 148,-322.5 142,-328.5 136,-328.5 136,-328.5 95,-328.5 95,-328.5 89,-328.5 83,-322.5 83,-316.5 83,-316.5 83,-304.5 83,-304.5 83,-298.5 89,-292.5 95,-292.5"/>
<text text-anchor="middle" x="115.5" y="-308.3" font-family="Arial" font-size="9.00">i_3: [&#45;inf, inf]</text>
</g>
<!-- Node_12&#45;&gt;Node_8 -->
<g id="edge8" class="edge"><title>Node_12&#45;&gt;Node_8</title>
<path fill="none" stroke="tan" d="M106.543,-292.313C102.18,-283.941 96.8422,-273.697 91.9985,-264.403"/>
<polygon fill="tan" stroke="tan" points="95.0995,-262.779 87.3742,-255.529 88.8918,-266.014 95.0995,-262.779"/>
</g>
<!-- Node_13 -->
<g id="node14" class="node"><title>Node_13</title>
<path fill="moccasin" stroke="moccasin" d="M316,-292.5C316,-292.5 357,-292.5 357,-292.5 363,-292.5 369,-298.5 369,-304.5 369,-304.5 369,-316.5 369,-316.5 369,-322.5 363,-328.5 357,-328.5 357,-328.5 316,-328.5 316,-328.5 310,-328.5 304,-322.5 304,-316.5 304,-316.5 304,-304.5 304,-304.5 304,-298.5 310,-292.5 316,-292.5"/>
<text text-anchor="middle" x="336.5" y="-308.3" font-family="Arial" font-size="9.00">j_4: [&#45;inf, inf]</text>
</g>
<!-- Node_13&#45;&gt;Node_6 -->
<g id="edge14" class="edge"><title>Node_13&#45;&gt;Node_6</title>
<path fill="none" stroke="tan" d="M327.543,-292.313C323.18,-283.941 317.842,-273.697 312.999,-264.403"/>
<polygon fill="tan" stroke="tan" points="316.099,-262.779 308.374,-255.529 309.892,-266.014 316.099,-262.779"/>
</g>
</g>
</svg>
