<?xml version="1.0" encoding="UTF-8" standalone="no"?>
<!DOCTYPE svg PUBLIC "-//W3C//DTD SVG 1.1//EN"
 "http://www.w3.org/Graphics/SVG/1.1/DTD/svg11.dtd">
<!-- Generated by graphviz version 2.38.0 (20140413.2041)
 -->
<!-- Title: t3_bar_ConstraintGraph Pages: 1 -->
<svg width="348pt" height="504pt"
     viewBox="0.00 0.00 348.00 504.00" xmlns="http://www.w3.org/2000/svg">
<g id="graph0" class="graph" transform="scale(1 1) rotate(0) translate(4 500)">
<title>t3_bar_ConstraintGraph</title>
<polygon fill="white" stroke="none" points="-4,4 -4,-500 344,-500 344,4 -4,4"/>
<text text-anchor="middle" x="170" y="-482.4" font-family="Arial" font-size="12.00">t3_bar_ConstraintGraph</text>
<!-- Node_0 -->
<g id="node1" class="node"><title>Node_0</title>
<path fill="lightblue" stroke="lightblue" d="M53,-365.5C53,-365.5 169,-365.5 169,-365.5 175,-365.5 181,-371.5 181,-377.5 181,-377.5 181,-389.5 181,-389.5 181,-395.5 175,-401.5 169,-401.5 169,-401.5 53,-401.5 53,-401.5 47,-401.5 41,-395.5 41,-389.5 41,-389.5 41,-377.5 41,-377.5 41,-371.5 47,-365.5 53,-365.5"/>
<text text-anchor="middle" x="111" y="-381.3" font-family="Arial" font-size="9.00"># i_1 = PHI &lt;i_3(D)(2), i_5(3)&gt;</text>
</g>
<!-- Node_1 -->
<g id="node2" class="node"><title>Node_1</title>
<path fill="moccasin" stroke="moccasin" d="M17.5,-292.5C17.5,-292.5 90.5,-292.5 90.5,-292.5 96.5,-292.5 102.5,-298.5 102.5,-304.5 102.5,-304.5 102.5,-316.5 102.5,-316.5 102.5,-322.5 96.5,-328.5 90.5,-328.5 90.5,-328.5 17.5,-328.5 17.5,-328.5 11.5,-328.5 5.5,-322.5 5.5,-316.5 5.5,-316.5 5.5,-304.5 5.5,-304.5 5.5,-298.5 11.5,-292.5 17.5,-292.5"/>
<text text-anchor="middle" x="54" y="-308.3" font-family="Arial" font-size="9.00">i_1: [&#45;Infinity, Infinity]</text>
</g>
<!-- Node_0&#45;&gt;Node_1 -->
<g id="edge1" class="edge"><title>Node_0&#45;&gt;Node_1</title>
<path fill="none" stroke="steelblue" d="M97.2019,-365.313C90.2705,-356.679 81.7414,-346.055 74.0978,-336.534"/>
<polygon fill="steelblue" stroke="steelblue" points="76.6607,-334.136 67.671,-328.529 71.2021,-338.518 76.6607,-334.136"/>
</g>
<!-- Node_6 -->
<g id="node7" class="node"><title>Node_6</title>
<path fill="lightblue" stroke="lightblue" d="M32.5,-219.5C32.5,-219.5 73.5,-219.5 73.5,-219.5 79.5,-219.5 85.5,-225.5 85.5,-231.5 85.5,-231.5 85.5,-243.5 85.5,-243.5 85.5,-249.5 79.5,-255.5 73.5,-255.5 73.5,-255.5 32.5,-255.5 32.5,-255.5 26.5,-255.5 20.5,-249.5 20.5,-243.5 20.5,-243.5 20.5,-231.5 20.5,-231.5 20.5,-225.5 26.5,-219.5 32.5,-219.5"/>
<text text-anchor="middle" x="53" y="-235.3" font-family="Arial" font-size="9.00">if (i_1 &lt; j_2)</text>
</g>
<!-- Node_1&#45;&gt;Node_6 -->
<g id="edge8" class="edge"><title>Node_1&#45;&gt;Node_6</title>
<path fill="none" stroke="tan" d="M53.7579,-292.313C53.6449,-284.289 53.5077,-274.547 53.3813,-265.569"/>
<polygon fill="tan" stroke="tan" points="56.8804,-265.479 53.2398,-255.529 49.8811,-265.577 56.8804,-265.479"/>
</g>
<!-- Node_2 -->
<g id="node3" class="node"><title>Node_2</title>
<path fill="lightblue" stroke="lightblue" d="M35,-73.5C35,-73.5 85,-73.5 85,-73.5 91,-73.5 97,-79.5 97,-85.5 97,-85.5 97,-97.5 97,-97.5 97,-103.5 91,-109.5 85,-109.5 85,-109.5 35,-109.5 35,-109.5 29,-109.5 23,-103.5 23,-97.5 23,-97.5 23,-85.5 23,-85.5 23,-79.5 29,-73.5 35,-73.5"/>
<text text-anchor="middle" x="60" y="-89.3" font-family="Arial" font-size="9.00">i_5 = i_1_t + 1</text>
</g>
<!-- Node_3 -->
<g id="node4" class="node"><title>Node_3</title>
<path fill="moccasin" stroke="moccasin" d="M74.5,-0.5C74.5,-0.5 147.5,-0.5 147.5,-0.5 153.5,-0.5 159.5,-6.5 159.5,-12.5 159.5,-12.5 159.5,-24.5 159.5,-24.5 159.5,-30.5 153.5,-36.5 147.5,-36.5 147.5,-36.5 74.5,-36.5 74.5,-36.5 68.5,-36.5 62.5,-30.5 62.5,-24.5 62.5,-24.5 62.5,-12.5 62.5,-12.5 62.5,-6.5 68.5,-0.5 74.5,-0.5"/>
<text text-anchor="middle" x="111" y="-16.3" font-family="Arial" font-size="9.00">i_5: [&#45;Infinity, Infinity]</text>
</g>
<!-- Node_2&#45;&gt;Node_3 -->
<g id="edge2" class="edge"><title>Node_2&#45;&gt;Node_3</title>
<path fill="none" stroke="steelblue" d="M72.3457,-73.3129C78.4848,-64.7662 86.0247,-54.2695 92.8103,-44.8229"/>
<polygon fill="steelblue" stroke="steelblue" points="95.7766,-46.6926 98.768,-36.5288 90.0913,-42.6088 95.7766,-46.6926"/>
</g>
<!-- Node_3&#45;&gt;Node_0 -->
<g id="edge10" class="edge"><title>Node_3&#45;&gt;Node_0</title>
<path fill="none" stroke="tan" d="M115.149,-36.6714C121.269,-63.548 132,-117.266 132,-163.5 132,-238.5 132,-238.5 132,-238.5 132,-279.496 123.563,-326.378 117.384,-355.211"/>
<polygon fill="tan" stroke="tan" points="113.889,-354.809 115.149,-365.329 120.724,-356.319 113.889,-354.809"/>
</g>
<!-- Node_4 -->
<g id="node5" class="node"><title>Node_4</title>
<path fill="lightblue" stroke="lightblue" d="M212,-365.5C212,-365.5 328,-365.5 328,-365.5 334,-365.5 340,-371.5 340,-377.5 340,-377.5 340,-389.5 340,-389.5 340,-395.5 334,-401.5 328,-401.5 328,-401.5 212,-401.5 212,-401.5 206,-401.5 200,-395.5 200,-389.5 200,-389.5 200,-377.5 200,-377.5 200,-371.5 206,-365.5 212,-365.5"/>
<text text-anchor="middle" x="270" y="-381.3" font-family="Arial" font-size="9.00"># j_2 = PHI &lt;j_4(D)(2), j_6(3)&gt;</text>
</g>
<!-- Node_5 -->
<g id="node6" class="node"><title>Node_5</title>
<path fill="moccasin" stroke="moccasin" d="M194.5,-292.5C194.5,-292.5 267.5,-292.5 267.5,-292.5 273.5,-292.5 279.5,-298.5 279.5,-304.5 279.5,-304.5 279.5,-316.5 279.5,-316.5 279.5,-322.5 273.5,-328.5 267.5,-328.5 267.5,-328.5 194.5,-328.5 194.5,-328.5 188.5,-328.5 182.5,-322.5 182.5,-316.5 182.5,-316.5 182.5,-304.5 182.5,-304.5 182.5,-298.5 188.5,-292.5 194.5,-292.5"/>
<text text-anchor="middle" x="231" y="-308.3" font-family="Arial" font-size="9.00">j_2: [&#45;Infinity, Infinity]</text>
</g>
<!-- Node_4&#45;&gt;Node_5 -->
<g id="edge3" class="edge"><title>Node_4&#45;&gt;Node_5</title>
<path fill="none" stroke="steelblue" d="M260.559,-365.313C255.96,-356.941 250.334,-346.697 245.228,-337.403"/>
<polygon fill="steelblue" stroke="steelblue" points="248.236,-335.609 240.354,-328.529 242.101,-338.979 248.236,-335.609"/>
</g>
<!-- Node_10 -->
<g id="node11" class="node"><title>Node_10</title>
<path fill="lightblue" stroke="lightblue" d="M209.5,-219.5C209.5,-219.5 250.5,-219.5 250.5,-219.5 256.5,-219.5 262.5,-225.5 262.5,-231.5 262.5,-231.5 262.5,-243.5 262.5,-243.5 262.5,-249.5 256.5,-255.5 250.5,-255.5 250.5,-255.5 209.5,-255.5 209.5,-255.5 203.5,-255.5 197.5,-249.5 197.5,-243.5 197.5,-243.5 197.5,-231.5 197.5,-231.5 197.5,-225.5 203.5,-219.5 209.5,-219.5"/>
<text text-anchor="middle" x="230" y="-235.3" font-family="Arial" font-size="9.00">if (i_1 &lt; j_2)</text>
</g>
<!-- Node_5&#45;&gt;Node_10 -->
<g id="edge12" class="edge"><title>Node_5&#45;&gt;Node_10</title>
<path fill="none" stroke="tan" d="M230.758,-292.313C230.645,-284.289 230.508,-274.547 230.381,-265.569"/>
<polygon fill="tan" stroke="tan" points="233.88,-265.479 230.24,-255.529 226.881,-265.577 233.88,-265.479"/>
</g>
<!-- Node_7 -->
<g id="node8" class="node"><title>Node_7</title>
<path fill="moccasin" stroke="moccasin" d="M12,-146.5C12,-146.5 92,-146.5 92,-146.5 98,-146.5 104,-152.5 104,-158.5 104,-158.5 104,-170.5 104,-170.5 104,-176.5 98,-182.5 92,-182.5 92,-182.5 12,-182.5 12,-182.5 6,-182.5 0,-176.5 0,-170.5 0,-170.5 0,-158.5 0,-158.5 0,-152.5 6,-146.5 12,-146.5"/>
<text text-anchor="middle" x="52" y="-162.3" font-family="Arial" font-size="9.00">i_1_t: [&#45;Infinity, Infinity]</text>
</g>
<!-- Node_6&#45;&gt;Node_7 -->
<g id="edge4" class="edge"><title>Node_6&#45;&gt;Node_7</title>
<path fill="none" stroke="steelblue" d="M52.7579,-219.313C52.6449,-211.289 52.5077,-201.547 52.3813,-192.569"/>
<polygon fill="steelblue" stroke="steelblue" points="55.8804,-192.479 52.2398,-182.529 48.8811,-192.577 55.8804,-192.479"/>
</g>
<!-- Node_7&#45;&gt;Node_2 -->
<g id="edge13" class="edge"><title>Node_7&#45;&gt;Node_2</title>
<path fill="none" stroke="tan" d="M53.9366,-146.313C54.8406,-138.289 55.9383,-128.547 56.95,-119.569"/>
<polygon fill="tan" stroke="tan" points="60.4395,-119.858 58.0813,-109.529 53.4835,-119.074 60.4395,-119.858"/>
</g>
<!-- Node_8 -->
<g id="node9" class="node"><title>Node_8</title>
<path fill="lightblue" stroke="lightblue" d="M208.5,-73.5C208.5,-73.5 261.5,-73.5 261.5,-73.5 267.5,-73.5 273.5,-79.5 273.5,-85.5 273.5,-85.5 273.5,-97.5 273.5,-97.5 273.5,-103.5 267.5,-109.5 261.5,-109.5 261.5,-109.5 208.5,-109.5 208.5,-109.5 202.5,-109.5 196.5,-103.5 196.5,-97.5 196.5,-97.5 196.5,-85.5 196.5,-85.5 196.5,-79.5 202.5,-73.5 208.5,-73.5"/>
<text text-anchor="middle" x="235" y="-89.3" font-family="Arial" font-size="9.00">j_6 = j_2_t + &#45;1</text>
</g>
<!-- Node_9 -->
<g id="node10" class="node"><title>Node_9</title>
<path fill="moccasin" stroke="moccasin" d="M219.5,-0.5C219.5,-0.5 292.5,-0.5 292.5,-0.5 298.5,-0.5 304.5,-6.5 304.5,-12.5 304.5,-12.5 304.5,-24.5 304.5,-24.5 304.5,-30.5 298.5,-36.5 292.5,-36.5 292.5,-36.5 219.5,-36.5 219.5,-36.5 213.5,-36.5 207.5,-30.5 207.5,-24.5 207.5,-24.5 207.5,-12.5 207.5,-12.5 207.5,-6.5 213.5,-0.5 219.5,-0.5"/>
<text text-anchor="middle" x="256" y="-16.3" font-family="Arial" font-size="9.00">j_6: [&#45;Infinity, Infinity]</text>
</g>
<!-- Node_8&#45;&gt;Node_9 -->
<g id="edge5" class="edge"><title>Node_8&#45;&gt;Node_9</title>
<path fill="none" stroke="steelblue" d="M240.084,-73.3129C242.482,-65.2023 245.401,-55.3355 248.08,-46.2766"/>
<polygon fill="steelblue" stroke="steelblue" points="251.483,-47.1109 250.963,-36.5288 244.771,-45.1255 251.483,-47.1109"/>
</g>
<!-- Node_9&#45;&gt;Node_4 -->
<g id="edge14" class="edge"><title>Node_9&#45;&gt;Node_4</title>
<path fill="none" stroke="tan" d="M266.982,-36.9212C282.506,-63.2629 309,-115.282 309,-163.5 309,-238.5 309,-238.5 309,-238.5 309,-280.667 293.227,-327.441 281.743,-355.908"/>
<polygon fill="tan" stroke="tan" points="278.497,-354.598 277.892,-365.176 284.961,-357.284 278.497,-354.598"/>
</g>
<!-- Node_11 -->
<g id="node12" class="node"><title>Node_11</title>
<path fill="moccasin" stroke="moccasin" d="M189,-146.5C189,-146.5 269,-146.5 269,-146.5 275,-146.5 281,-152.5 281,-158.5 281,-158.5 281,-170.5 281,-170.5 281,-176.5 275,-182.5 269,-182.5 269,-182.5 189,-182.5 189,-182.5 183,-182.5 177,-176.5 177,-170.5 177,-170.5 177,-158.5 177,-158.5 177,-152.5 183,-146.5 189,-146.5"/>
<text text-anchor="middle" x="229" y="-162.3" font-family="Arial" font-size="9.00">j_2_t: [&#45;Infinity, Infinity]</text>
</g>
<!-- Node_10&#45;&gt;Node_11 -->
<g id="edge6" class="edge"><title>Node_10&#45;&gt;Node_11</title>
<path fill="none" stroke="steelblue" d="M229.758,-219.313C229.645,-211.289 229.508,-201.547 229.381,-192.569"/>
<polygon fill="steelblue" stroke="steelblue" points="232.88,-192.479 229.24,-182.529 225.881,-192.577 232.88,-192.479"/>
</g>
<!-- Node_11&#45;&gt;Node_8 -->
<g id="edge11" class="edge"><title>Node_11&#45;&gt;Node_8</title>
<path fill="none" stroke="tan" d="M230.452,-146.313C231.13,-138.289 231.954,-128.547 232.712,-119.569"/>
<polygon fill="tan" stroke="tan" points="236.206,-119.788 233.561,-109.529 229.231,-119.199 236.206,-119.788"/>
</g>
<!-- Node_12 -->
<g id="node13" class="node"><title>Node_12</title>
<path fill="moccasin" stroke="moccasin" d="M74.5,-438.5C74.5,-438.5 147.5,-438.5 147.5,-438.5 153.5,-438.5 159.5,-444.5 159.5,-450.5 159.5,-450.5 159.5,-462.5 159.5,-462.5 159.5,-468.5 153.5,-474.5 147.5,-474.5 147.5,-474.5 74.5,-474.5 74.5,-474.5 68.5,-474.5 62.5,-468.5 62.5,-462.5 62.5,-462.5 62.5,-450.5 62.5,-450.5 62.5,-444.5 68.5,-438.5 74.5,-438.5"/>
<text text-anchor="middle" x="111" y="-454.3" font-family="Arial" font-size="9.00">i_3: [&#45;Infinity, Infinity]</text>
</g>
<!-- Node_12&#45;&gt;Node_0 -->
<g id="edge7" class="edge"><title>Node_12&#45;&gt;Node_0</title>
<path fill="none" stroke="tan" d="M111,-438.313C111,-430.289 111,-420.547 111,-411.569"/>
<polygon fill="tan" stroke="tan" points="114.5,-411.529 111,-401.529 107.5,-411.529 114.5,-411.529"/>
</g>
<!-- Node_13 -->
<g id="node14" class="node"><title>Node_13</title>
<path fill="moccasin" stroke="moccasin" d="M233.5,-438.5C233.5,-438.5 306.5,-438.5 306.5,-438.5 312.5,-438.5 318.5,-444.5 318.5,-450.5 318.5,-450.5 318.5,-462.5 318.5,-462.5 318.5,-468.5 312.5,-474.5 306.5,-474.5 306.5,-474.5 233.5,-474.5 233.5,-474.5 227.5,-474.5 221.5,-468.5 221.5,-462.5 221.5,-462.5 221.5,-450.5 221.5,-450.5 221.5,-444.5 227.5,-438.5 233.5,-438.5"/>
<text text-anchor="middle" x="270" y="-454.3" font-family="Arial" font-size="9.00">j_4: [&#45;Infinity, Infinity]</text>
</g>
<!-- Node_13&#45;&gt;Node_4 -->
<g id="edge9" class="edge"><title>Node_13&#45;&gt;Node_4</title>
<path fill="none" stroke="tan" d="M270,-438.313C270,-430.289 270,-420.547 270,-411.569"/>
<polygon fill="tan" stroke="tan" points="273.5,-411.529 270,-401.529 266.5,-411.529 273.5,-411.529"/>
</g>
</g>
</svg>
