<?xml version="1.0" encoding="UTF-8" standalone="no"?>
<!DOCTYPE svg PUBLIC "-//W3C//DTD SVG 1.1//EN"
 "http://www.w3.org/Graphics/SVG/1.1/DTD/svg11.dtd">
<!-- Generated by graphviz version 2.38.0 (20140413.2041)
 -->
<!-- Title: t3_bar_ConstraintGraph Pages: 1 -->
<svg width="351pt" height="504pt"
     viewBox="0.00 0.00 350.50 504.00" xmlns="http://www.w3.org/2000/svg">
<g id="graph0" class="graph" transform="scale(1 1) rotate(0) translate(4 500)">
<title>t3_bar_ConstraintGraph</title>
<polygon fill="white" stroke="none" points="-4,4 -4,-500 346.5,-500 346.5,4 -4,4"/>
<text text-anchor="middle" x="171.25" y="-482.4" font-family="Arial" font-size="12.00">t3_bar_ConstraintGraph</text>
<!-- Node_0 -->
<g id="node1" class="node"><title>Node_0</title>
<path fill="lightblue" stroke="lightblue" d="M14,-365.5C14,-365.5 130,-365.5 130,-365.5 136,-365.5 142,-371.5 142,-377.5 142,-377.5 142,-389.5 142,-389.5 142,-395.5 136,-401.5 130,-401.5 130,-401.5 14,-401.5 14,-401.5 8,-401.5 2,-395.5 2,-389.5 2,-389.5 2,-377.5 2,-377.5 2,-371.5 8,-365.5 14,-365.5"/>
<text text-anchor="middle" x="72" y="-381.3" font-family="Arial" font-size="9.00"># i_1 = PHI &lt;i_3(D)(2), i_5(3)&gt;</text>
</g>
<!-- Node_1 -->
<g id="node2" class="node"><title>Node_1</title>
<path fill="moccasin" stroke="moccasin" d="M19.5,-292.5C19.5,-292.5 60.5,-292.5 60.5,-292.5 66.5,-292.5 72.5,-298.5 72.5,-304.5 72.5,-304.5 72.5,-316.5 72.5,-316.5 72.5,-322.5 66.5,-328.5 60.5,-328.5 60.5,-328.5 19.5,-328.5 19.5,-328.5 13.5,-328.5 7.5,-322.5 7.5,-316.5 7.5,-316.5 7.5,-304.5 7.5,-304.5 7.5,-298.5 13.5,-292.5 19.5,-292.5"/>
<text text-anchor="middle" x="40" y="-308.3" font-family="Arial" font-size="9.00">i_1: [&#45;inf, inf]</text>
</g>
<!-- Node_0&#45;&gt;Node_1 -->
<g id="edge1" class="edge"><title>Node_0&#45;&gt;Node_1</title>
<path fill="none" stroke="steelblue" d="M64.2537,-365.313C60.5196,-357.028 55.9596,-346.91 51.8055,-337.693"/>
<polygon fill="steelblue" stroke="steelblue" points="54.9749,-336.207 47.675,-328.529 48.5931,-339.084 54.9749,-336.207"/>
</g>
<!-- Node_8 -->
<g id="node9" class="node"><title>Node_8</title>
<path fill="lightblue" stroke="lightblue" d="M17.5,-219.5C17.5,-219.5 58.5,-219.5 58.5,-219.5 64.5,-219.5 70.5,-225.5 70.5,-231.5 70.5,-231.5 70.5,-243.5 70.5,-243.5 70.5,-249.5 64.5,-255.5 58.5,-255.5 58.5,-255.5 17.5,-255.5 17.5,-255.5 11.5,-255.5 5.5,-249.5 5.5,-243.5 5.5,-243.5 5.5,-231.5 5.5,-231.5 5.5,-225.5 11.5,-219.5 17.5,-219.5"/>
<text text-anchor="middle" x="38" y="-235.3" font-family="Arial" font-size="9.00">if (i_1 &lt; j_2)</text>
</g>
<!-- Node_1&#45;&gt;Node_8 -->
<g id="edge8" class="edge"><title>Node_1&#45;&gt;Node_8</title>
<path fill="none" stroke="tan" d="M39.5159,-292.313C39.2898,-284.289 39.0154,-274.547 38.7625,-265.569"/>
<polygon fill="tan" stroke="tan" points="42.26,-265.426 38.4797,-255.529 35.2627,-265.623 42.26,-265.426"/>
</g>
<!-- Node_2 -->
<g id="node3" class="node"><title>Node_2</title>
<path fill="lightblue" stroke="lightblue" d="M238.5,-438.5C238.5,-438.5 291.5,-438.5 291.5,-438.5 297.5,-438.5 303.5,-444.5 303.5,-450.5 303.5,-450.5 303.5,-462.5 303.5,-462.5 303.5,-468.5 297.5,-474.5 291.5,-474.5 291.5,-474.5 238.5,-474.5 238.5,-474.5 232.5,-474.5 226.5,-468.5 226.5,-462.5 226.5,-462.5 226.5,-450.5 226.5,-450.5 226.5,-444.5 232.5,-438.5 238.5,-438.5"/>
<text text-anchor="middle" x="265" y="-454.3" font-family="Arial" font-size="9.00">j_6 = j_2_t + &#45;1</text>
</g>
<!-- Node_3 -->
<g id="node4" class="node"><title>Node_3</title>
<path fill="moccasin" stroke="moccasin" d="M172.5,-365.5C172.5,-365.5 213.5,-365.5 213.5,-365.5 219.5,-365.5 225.5,-371.5 225.5,-377.5 225.5,-377.5 225.5,-389.5 225.5,-389.5 225.5,-395.5 219.5,-401.5 213.5,-401.5 213.5,-401.5 172.5,-401.5 172.5,-401.5 166.5,-401.5 160.5,-395.5 160.5,-389.5 160.5,-389.5 160.5,-377.5 160.5,-377.5 160.5,-371.5 166.5,-365.5 172.5,-365.5"/>
<text text-anchor="middle" x="193" y="-381.3" font-family="Arial" font-size="9.00">j_6: [&#45;inf, inf]</text>
</g>
<!-- Node_2&#45;&gt;Node_3 -->
<g id="edge2" class="edge"><title>Node_2&#45;&gt;Node_3</title>
<path fill="none" stroke="steelblue" d="M247.571,-438.313C238.55,-429.417 227.387,-418.409 217.512,-408.672"/>
<polygon fill="steelblue" stroke="steelblue" points="219.847,-406.058 210.269,-401.529 214.932,-411.042 219.847,-406.058"/>
</g>
<!-- Node_4 -->
<g id="node5" class="node"><title>Node_4</title>
<path fill="lightblue" stroke="lightblue" d="M181,-292.5C181,-292.5 297,-292.5 297,-292.5 303,-292.5 309,-298.5 309,-304.5 309,-304.5 309,-316.5 309,-316.5 309,-322.5 303,-328.5 297,-328.5 297,-328.5 181,-328.5 181,-328.5 175,-328.5 169,-322.5 169,-316.5 169,-316.5 169,-304.5 169,-304.5 169,-298.5 175,-292.5 181,-292.5"/>
<text text-anchor="middle" x="239" y="-308.3" font-family="Arial" font-size="9.00"># j_2 = PHI &lt;j_4(D)(2), j_6(3)&gt;</text>
</g>
<!-- Node_3&#45;&gt;Node_4 -->
<g id="edge9" class="edge"><title>Node_3&#45;&gt;Node_4</title>
<path fill="none" stroke="tan" d="M204.135,-365.313C209.616,-356.853 216.335,-346.484 222.406,-337.112"/>
<polygon fill="tan" stroke="tan" points="225.467,-338.824 227.967,-328.529 219.592,-335.018 225.467,-338.824"/>
</g>
<!-- Node_5 -->
<g id="node6" class="node"><title>Node_5</title>
<path fill="moccasin" stroke="moccasin" d="M236.5,-219.5C236.5,-219.5 277.5,-219.5 277.5,-219.5 283.5,-219.5 289.5,-225.5 289.5,-231.5 289.5,-231.5 289.5,-243.5 289.5,-243.5 289.5,-249.5 283.5,-255.5 277.5,-255.5 277.5,-255.5 236.5,-255.5 236.5,-255.5 230.5,-255.5 224.5,-249.5 224.5,-243.5 224.5,-243.5 224.5,-231.5 224.5,-231.5 224.5,-225.5 230.5,-219.5 236.5,-219.5"/>
<text text-anchor="middle" x="257" y="-235.3" font-family="Arial" font-size="9.00">j_2: [&#45;inf, inf]</text>
</g>
<!-- Node_4&#45;&gt;Node_5 -->
<g id="edge3" class="edge"><title>Node_4&#45;&gt;Node_5</title>
<path fill="none" stroke="steelblue" d="M243.357,-292.313C245.414,-284.202 247.915,-274.336 250.212,-265.277"/>
<polygon fill="steelblue" stroke="steelblue" points="253.618,-266.082 252.683,-255.529 246.833,-264.362 253.618,-266.082"/>
</g>
<!-- Node_10 -->
<g id="node11" class="node"><title>Node_10</title>
<path fill="lightblue" stroke="lightblue" d="M245.5,-146.5C245.5,-146.5 286.5,-146.5 286.5,-146.5 292.5,-146.5 298.5,-152.5 298.5,-158.5 298.5,-158.5 298.5,-170.5 298.5,-170.5 298.5,-176.5 292.5,-182.5 286.5,-182.5 286.5,-182.5 245.5,-182.5 245.5,-182.5 239.5,-182.5 233.5,-176.5 233.5,-170.5 233.5,-170.5 233.5,-158.5 233.5,-158.5 233.5,-152.5 239.5,-146.5 245.5,-146.5"/>
<text text-anchor="middle" x="266" y="-162.3" font-family="Arial" font-size="9.00">if (i_1 &lt; j_2)</text>
</g>
<!-- Node_5&#45;&gt;Node_10 -->
<g id="edge7" class="edge"><title>Node_5&#45;&gt;Node_10</title>
<path fill="none" stroke="tan" d="M259.179,-219.313C260.196,-211.289 261.431,-201.547 262.569,-192.569"/>
<polygon fill="tan" stroke="tan" points="266.056,-192.89 263.841,-182.529 259.112,-192.009 266.056,-192.89"/>
</g>
<!-- Node_6 -->
<g id="node7" class="node"><title>Node_6</title>
<path fill="lightblue" stroke="lightblue" d="M12,-73.5C12,-73.5 62,-73.5 62,-73.5 68,-73.5 74,-79.5 74,-85.5 74,-85.5 74,-97.5 74,-97.5 74,-103.5 68,-109.5 62,-109.5 62,-109.5 12,-109.5 12,-109.5 6,-109.5 0,-103.5 0,-97.5 0,-97.5 0,-85.5 0,-85.5 0,-79.5 6,-73.5 12,-73.5"/>
<text text-anchor="middle" x="37" y="-89.3" font-family="Arial" font-size="9.00">i_5 = i_1_t + 1</text>
</g>
<!-- Node_7 -->
<g id="node8" class="node"><title>Node_7</title>
<path fill="moccasin" stroke="moccasin" d="M48.5,-0.5C48.5,-0.5 89.5,-0.5 89.5,-0.5 95.5,-0.5 101.5,-6.5 101.5,-12.5 101.5,-12.5 101.5,-24.5 101.5,-24.5 101.5,-30.5 95.5,-36.5 89.5,-36.5 89.5,-36.5 48.5,-36.5 48.5,-36.5 42.5,-36.5 36.5,-30.5 36.5,-24.5 36.5,-24.5 36.5,-12.5 36.5,-12.5 36.5,-6.5 42.5,-0.5 48.5,-0.5"/>
<text text-anchor="middle" x="69" y="-16.3" font-family="Arial" font-size="9.00">i_5: [&#45;inf, inf]</text>
</g>
<!-- Node_6&#45;&gt;Node_7 -->
<g id="edge4" class="edge"><title>Node_6&#45;&gt;Node_7</title>
<path fill="none" stroke="steelblue" d="M44.7463,-73.3129C48.4804,-65.0279 53.0404,-54.9103 57.1945,-45.6933"/>
<polygon fill="steelblue" stroke="steelblue" points="60.4069,-47.0838 61.325,-36.5288 54.0251,-44.2075 60.4069,-47.0838"/>
</g>
<!-- Node_7&#45;&gt;Node_0 -->
<g id="edge13" class="edge"><title>Node_7&#45;&gt;Node_0</title>
<path fill="none" stroke="tan" d="M75.5197,-36.5001C85.1369,-63.1476 102,-116.564 102,-163.5 102,-238.5 102,-238.5 102,-238.5 102,-280.121 89.84,-327.113 81.0035,-355.767"/>
<polygon fill="tan" stroke="tan" points="77.6194,-354.86 77.927,-365.45 84.2908,-356.98 77.6194,-354.86"/>
</g>
<!-- Node_9 -->
<g id="node10" class="node"><title>Node_9</title>
<path fill="moccasin" stroke="moccasin" d="M12.5,-146.5C12.5,-146.5 61.5,-146.5 61.5,-146.5 67.5,-146.5 73.5,-152.5 73.5,-158.5 73.5,-158.5 73.5,-170.5 73.5,-170.5 73.5,-176.5 67.5,-182.5 61.5,-182.5 61.5,-182.5 12.5,-182.5 12.5,-182.5 6.5,-182.5 0.5,-176.5 0.5,-170.5 0.5,-170.5 0.5,-158.5 0.5,-158.5 0.5,-152.5 6.5,-146.5 12.5,-146.5"/>
<text text-anchor="middle" x="37" y="-162.3" font-family="Arial" font-size="9.00">i_1_t: [&#45;inf, inf]</text>
</g>
<!-- Node_8&#45;&gt;Node_9 -->
<g id="edge5" class="edge"><title>Node_8&#45;&gt;Node_9</title>
<path fill="none" stroke="steelblue" d="M37.7579,-219.313C37.6449,-211.289 37.5077,-201.547 37.3813,-192.569"/>
<polygon fill="steelblue" stroke="steelblue" points="40.8804,-192.479 37.2398,-182.529 33.8811,-192.577 40.8804,-192.479"/>
</g>
<!-- Node_9&#45;&gt;Node_6 -->
<g id="edge11" class="edge"><title>Node_9&#45;&gt;Node_6</title>
<path fill="none" stroke="tan" d="M37,-146.313C37,-138.289 37,-128.547 37,-119.569"/>
<polygon fill="tan" stroke="tan" points="40.5001,-119.529 37,-109.529 33.5001,-119.529 40.5001,-119.529"/>
</g>
<!-- Node_11 -->
<g id="node12" class="node"><title>Node_11</title>
<path fill="moccasin" stroke="moccasin" d="M281.5,-73.5C281.5,-73.5 330.5,-73.5 330.5,-73.5 336.5,-73.5 342.5,-79.5 342.5,-85.5 342.5,-85.5 342.5,-97.5 342.5,-97.5 342.5,-103.5 336.5,-109.5 330.5,-109.5 330.5,-109.5 281.5,-109.5 281.5,-109.5 275.5,-109.5 269.5,-103.5 269.5,-97.5 269.5,-97.5 269.5,-85.5 269.5,-85.5 269.5,-79.5 275.5,-73.5 281.5,-73.5"/>
<text text-anchor="middle" x="306" y="-89.3" font-family="Arial" font-size="9.00">j_2_t: [&#45;inf, inf]</text>
</g>
<!-- Node_10&#45;&gt;Node_11 -->
<g id="edge6" class="edge"><title>Node_10&#45;&gt;Node_11</title>
<path fill="none" stroke="steelblue" d="M275.683,-146.313C280.4,-137.941 286.171,-127.697 291.407,-118.403"/>
<polygon fill="steelblue" stroke="steelblue" points="294.547,-119.959 296.406,-109.529 288.448,-116.523 294.547,-119.959"/>
</g>
<!-- Node_11&#45;&gt;Node_2 -->
<g id="edge14" class="edge"><title>Node_11&#45;&gt;Node_2</title>
<path fill="none" stroke="tan" d="M312.125,-109.534C321.159,-136.226 337,-189.702 337,-236.5 337,-311.5 337,-311.5 337,-311.5 337,-352.693 336.544,-365.739 317,-402 311.201,-412.759 302.613,-422.855 294.078,-431.315"/>
<polygon fill="tan" stroke="tan" points="291.54,-428.898 286.664,-438.304 296.342,-433.992 291.54,-428.898"/>
</g>
<!-- Node_12 -->
<g id="node13" class="node"><title>Node_12</title>
<path fill="moccasin" stroke="moccasin" d="M51.5,-438.5C51.5,-438.5 92.5,-438.5 92.5,-438.5 98.5,-438.5 104.5,-444.5 104.5,-450.5 104.5,-450.5 104.5,-462.5 104.5,-462.5 104.5,-468.5 98.5,-474.5 92.5,-474.5 92.5,-474.5 51.5,-474.5 51.5,-474.5 45.5,-474.5 39.5,-468.5 39.5,-462.5 39.5,-462.5 39.5,-450.5 39.5,-450.5 39.5,-444.5 45.5,-438.5 51.5,-438.5"/>
<text text-anchor="middle" x="72" y="-454.3" font-family="Arial" font-size="9.00">i_3: [&#45;inf, inf]</text>
</g>
<!-- Node_12&#45;&gt;Node_0 -->
<g id="edge10" class="edge"><title>Node_12&#45;&gt;Node_0</title>
<path fill="none" stroke="tan" d="M72,-438.313C72,-430.289 72,-420.547 72,-411.569"/>
<polygon fill="tan" stroke="tan" points="75.5001,-411.529 72,-401.529 68.5001,-411.529 75.5001,-411.529"/>
</g>
<!-- Node_13 -->
<g id="node14" class="node"><title>Node_13</title>
<path fill="moccasin" stroke="moccasin" d="M255.5,-365.5C255.5,-365.5 296.5,-365.5 296.5,-365.5 302.5,-365.5 308.5,-371.5 308.5,-377.5 308.5,-377.5 308.5,-389.5 308.5,-389.5 308.5,-395.5 302.5,-401.5 296.5,-401.5 296.5,-401.5 255.5,-401.5 255.5,-401.5 249.5,-401.5 243.5,-395.5 243.5,-389.5 243.5,-389.5 243.5,-377.5 243.5,-377.5 243.5,-371.5 249.5,-365.5 255.5,-365.5"/>
<text text-anchor="middle" x="276" y="-381.3" font-family="Arial" font-size="9.00">j_4: [&#45;inf, inf]</text>
</g>
<!-- Node_13&#45;&gt;Node_4 -->
<g id="edge12" class="edge"><title>Node_13&#45;&gt;Node_4</title>
<path fill="none" stroke="tan" d="M267.043,-365.313C262.68,-356.941 257.342,-346.697 252.499,-337.403"/>
<polygon fill="tan" stroke="tan" points="255.599,-335.779 247.874,-328.529 249.392,-339.014 255.599,-335.779"/>
</g>
</g>
</svg>
