<?xml version="1.0" encoding="UTF-8" standalone="no"?>
<!DOCTYPE svg PUBLIC "-//W3C//DTD SVG 1.1//EN"
 "http://www.w3.org/Graphics/SVG/1.1/DTD/svg11.dtd">
<!-- Generated by graphviz version 2.38.0 (20140413.2041)
 -->
<!-- Title: t3_foo_ConstraintGraph Pages: 1 -->
<svg width="375pt" height="431pt"
     viewBox="0.00 0.00 374.50 431.00" xmlns="http://www.w3.org/2000/svg">
<g id="graph0" class="graph" transform="scale(1 1) rotate(0) translate(4 427)">
<title>t3_foo_ConstraintGraph</title>
<polygon fill="white" stroke="none" points="-4,4 -4,-427 370.5,-427 370.5,4 -4,4"/>
<text text-anchor="middle" x="183.25" y="-409.4" font-family="Arial" font-size="12.00">t3_foo_ConstraintGraph</text>
<!-- Node_0 -->
<g id="node1" class="node"><title>Node_0</title>
<path fill="lightblue" stroke="lightblue" d="M186.5,-146.5C186.5,-146.5 221.5,-146.5 221.5,-146.5 227.5,-146.5 233.5,-152.5 233.5,-158.5 233.5,-158.5 233.5,-170.5 233.5,-170.5 233.5,-176.5 227.5,-182.5 221.5,-182.5 221.5,-182.5 186.5,-182.5 186.5,-182.5 180.5,-182.5 174.5,-176.5 174.5,-170.5 174.5,-170.5 174.5,-158.5 174.5,-158.5 174.5,-152.5 180.5,-146.5 186.5,-146.5"/>
<text text-anchor="middle" x="204" y="-162.3" font-family="Arial" font-size="9.00">_8 = k_1_f</text>
</g>
<!-- Node_1 -->
<g id="node2" class="node"><title>Node_1</title>
<path fill="moccasin" stroke="moccasin" d="M166.5,-73.5C166.5,-73.5 237.5,-73.5 237.5,-73.5 243.5,-73.5 249.5,-79.5 249.5,-85.5 249.5,-85.5 249.5,-97.5 249.5,-97.5 249.5,-103.5 243.5,-109.5 237.5,-109.5 237.5,-109.5 166.5,-109.5 166.5,-109.5 160.5,-109.5 154.5,-103.5 154.5,-97.5 154.5,-97.5 154.5,-85.5 154.5,-85.5 154.5,-79.5 160.5,-73.5 166.5,-73.5"/>
<text text-anchor="middle" x="202" y="-89.3" font-family="Arial" font-size="9.00">_8: [&#45;Infinity, Infinity]</text>
</g>
<!-- Node_0&#45;&gt;Node_1 -->
<g id="edge1" class="edge"><title>Node_0&#45;&gt;Node_1</title>
<path fill="none" stroke="steelblue" d="M203.516,-146.313C203.29,-138.289 203.015,-128.547 202.763,-119.569"/>
<polygon fill="steelblue" stroke="steelblue" points="206.26,-119.426 202.48,-109.529 199.263,-119.623 206.26,-119.426"/>
</g>
<!-- Node_2 -->
<g id="node3" class="node"><title>Node_2</title>
<path fill="lightblue" stroke="lightblue" d="M58.5,-292.5C58.5,-292.5 105.5,-292.5 105.5,-292.5 111.5,-292.5 117.5,-298.5 117.5,-304.5 117.5,-304.5 117.5,-316.5 117.5,-316.5 117.5,-322.5 111.5,-328.5 105.5,-328.5 105.5,-328.5 58.5,-328.5 58.5,-328.5 52.5,-328.5 46.5,-322.5 46.5,-316.5 46.5,-316.5 46.5,-304.5 46.5,-304.5 46.5,-298.5 52.5,-292.5 58.5,-292.5"/>
<text text-anchor="middle" x="82" y="-308.3" font-family="Arial" font-size="9.00">if (k_1 &lt; N_5)</text>
</g>
<!-- Node_3 -->
<g id="node4" class="node"><title>Node_3</title>
<path fill="moccasin" stroke="moccasin" d="M40.5,-219.5C40.5,-219.5 123.5,-219.5 123.5,-219.5 129.5,-219.5 135.5,-225.5 135.5,-231.5 135.5,-231.5 135.5,-243.5 135.5,-243.5 135.5,-249.5 129.5,-255.5 123.5,-255.5 123.5,-255.5 40.5,-255.5 40.5,-255.5 34.5,-255.5 28.5,-249.5 28.5,-243.5 28.5,-243.5 28.5,-231.5 28.5,-231.5 28.5,-225.5 34.5,-219.5 40.5,-219.5"/>
<text text-anchor="middle" x="82" y="-235.3" font-family="Arial" font-size="9.00">k_1_t: [&#45;Infinity, Infinity]</text>
</g>
<!-- Node_2&#45;&gt;Node_3 -->
<g id="edge2" class="edge"><title>Node_2&#45;&gt;Node_3</title>
<path fill="none" stroke="steelblue" d="M82,-292.313C82,-284.289 82,-274.547 82,-265.569"/>
<polygon fill="steelblue" stroke="steelblue" points="85.5001,-265.529 82,-255.529 78.5001,-265.529 85.5001,-265.529"/>
</g>
<!-- Node_4 -->
<g id="node5" class="node"><title>Node_4</title>
<path fill="lightblue" stroke="lightblue" d="M54.5,-146.5C54.5,-146.5 109.5,-146.5 109.5,-146.5 115.5,-146.5 121.5,-152.5 121.5,-158.5 121.5,-158.5 121.5,-170.5 121.5,-170.5 121.5,-176.5 115.5,-182.5 109.5,-182.5 109.5,-182.5 54.5,-182.5 54.5,-182.5 48.5,-182.5 42.5,-176.5 42.5,-170.5 42.5,-170.5 42.5,-158.5 42.5,-158.5 42.5,-152.5 48.5,-146.5 54.5,-146.5"/>
<text text-anchor="middle" x="82" y="-162.3" font-family="Arial" font-size="9.00">k_7 = k_1_t + 1</text>
</g>
<!-- Node_3&#45;&gt;Node_4 -->
<g id="edge6" class="edge"><title>Node_3&#45;&gt;Node_4</title>
<path fill="none" stroke="tan" d="M82,-219.313C82,-211.289 82,-201.547 82,-192.569"/>
<polygon fill="tan" stroke="tan" points="85.5001,-192.529 82,-182.529 78.5001,-192.529 85.5001,-192.529"/>
</g>
<!-- Node_5 -->
<g id="node6" class="node"><title>Node_5</title>
<path fill="moccasin" stroke="moccasin" d="M44.5,-73.5C44.5,-73.5 119.5,-73.5 119.5,-73.5 125.5,-73.5 131.5,-79.5 131.5,-85.5 131.5,-85.5 131.5,-97.5 131.5,-97.5 131.5,-103.5 125.5,-109.5 119.5,-109.5 119.5,-109.5 44.5,-109.5 44.5,-109.5 38.5,-109.5 32.5,-103.5 32.5,-97.5 32.5,-97.5 32.5,-85.5 32.5,-85.5 32.5,-79.5 38.5,-73.5 44.5,-73.5"/>
<text text-anchor="middle" x="82" y="-89.3" font-family="Arial" font-size="9.00">k_7: [&#45;Infinity, Infinity]</text>
</g>
<!-- Node_4&#45;&gt;Node_5 -->
<g id="edge3" class="edge"><title>Node_4&#45;&gt;Node_5</title>
<path fill="none" stroke="steelblue" d="M82,-146.313C82,-138.289 82,-128.547 82,-119.569"/>
<polygon fill="steelblue" stroke="steelblue" points="85.5001,-119.529 82,-109.529 78.5001,-119.529 85.5001,-119.529"/>
</g>
<!-- Node_6 -->
<g id="node7" class="node"><title>Node_6</title>
<path fill="lightblue" stroke="lightblue" d="M21,-0.5C21,-0.5 143,-0.5 143,-0.5 149,-0.5 155,-6.5 155,-12.5 155,-12.5 155,-24.5 155,-24.5 155,-30.5 149,-36.5 143,-36.5 143,-36.5 21,-36.5 21,-36.5 15,-36.5 9,-30.5 9,-24.5 9,-24.5 9,-12.5 9,-12.5 9,-6.5 15,-0.5 21,-0.5"/>
<text text-anchor="middle" x="82" y="-16.3" font-family="Arial" font-size="9.00"># k_1 = PHI &lt;k_3(D)(2), k_7(3)&gt;</text>
</g>
<!-- Node_5&#45;&gt;Node_6 -->
<g id="edge9" class="edge"><title>Node_5&#45;&gt;Node_6</title>
<path fill="none" stroke="tan" d="M82,-73.3129C82,-65.2895 82,-55.5475 82,-46.5691"/>
<polygon fill="tan" stroke="tan" points="85.5001,-46.5288 82,-36.5288 78.5001,-46.5289 85.5001,-46.5288"/>
</g>
<!-- Node_7 -->
<g id="node8" class="node"><title>Node_7</title>
<path fill="moccasin" stroke="moccasin" d="M44.5,-365.5C44.5,-365.5 119.5,-365.5 119.5,-365.5 125.5,-365.5 131.5,-371.5 131.5,-377.5 131.5,-377.5 131.5,-389.5 131.5,-389.5 131.5,-395.5 125.5,-401.5 119.5,-401.5 119.5,-401.5 44.5,-401.5 44.5,-401.5 38.5,-401.5 32.5,-395.5 32.5,-389.5 32.5,-389.5 32.5,-377.5 32.5,-377.5 32.5,-371.5 38.5,-365.5 44.5,-365.5"/>
<text text-anchor="middle" x="82" y="-381.3" font-family="Arial" font-size="9.00">k_1: [&#45;Infinity, Infinity]</text>
</g>
<!-- Node_6&#45;&gt;Node_7 -->
<g id="edge4" class="edge"><title>Node_6&#45;&gt;Node_7</title>
<path fill="none" stroke="steelblue" d="M56.9797,-36.7162C45.0515,-46.1377 31.5531,-58.7817 23,-73 1.60736,-108.562 0,-121.999 0,-163.5 0,-238.5 0,-238.5 0,-238.5 0,-285.37 33.2102,-330.905 57.3608,-357.821"/>
<polygon fill="steelblue" stroke="steelblue" points="54.8503,-360.261 64.2072,-365.231 59.9917,-355.511 54.8503,-360.261"/>
</g>
<!-- Node_7&#45;&gt;Node_2 -->
<g id="edge7" class="edge"><title>Node_7&#45;&gt;Node_2</title>
<path fill="none" stroke="tan" d="M82,-365.313C82,-357.289 82,-347.547 82,-338.569"/>
<polygon fill="tan" stroke="tan" points="85.5001,-338.529 82,-328.529 78.5001,-338.529 85.5001,-338.529"/>
</g>
<!-- Node_8 -->
<g id="node9" class="node"><title>Node_8</title>
<path fill="lightblue" stroke="lightblue" d="M163.5,-292.5C163.5,-292.5 216.5,-292.5 216.5,-292.5 222.5,-292.5 228.5,-298.5 228.5,-304.5 228.5,-304.5 228.5,-316.5 228.5,-316.5 228.5,-322.5 222.5,-328.5 216.5,-328.5 216.5,-328.5 163.5,-328.5 163.5,-328.5 157.5,-328.5 151.5,-322.5 151.5,-316.5 151.5,-316.5 151.5,-304.5 151.5,-304.5 151.5,-298.5 157.5,-292.5 163.5,-292.5"/>
<text text-anchor="middle" x="190" y="-308.3" font-family="Arial" font-size="9.00">if (k_1 &gt;= N_5)</text>
</g>
<!-- Node_7&#45;&gt;Node_8 -->
<g id="edge8" class="edge"><title>Node_7&#45;&gt;Node_8</title>
<path fill="none" stroke="tan" d="M107.869,-365.494C122.058,-356.166 139.842,-344.474 155.23,-334.358"/>
<polygon fill="tan" stroke="tan" points="157.535,-337.032 163.968,-328.614 153.689,-331.182 157.535,-337.032"/>
</g>
<!-- Node_9 -->
<g id="node10" class="node"><title>Node_9</title>
<path fill="moccasin" stroke="moccasin" d="M165.5,-219.5C165.5,-219.5 248.5,-219.5 248.5,-219.5 254.5,-219.5 260.5,-225.5 260.5,-231.5 260.5,-231.5 260.5,-243.5 260.5,-243.5 260.5,-249.5 254.5,-255.5 248.5,-255.5 248.5,-255.5 165.5,-255.5 165.5,-255.5 159.5,-255.5 153.5,-249.5 153.5,-243.5 153.5,-243.5 153.5,-231.5 153.5,-231.5 153.5,-225.5 159.5,-219.5 165.5,-219.5"/>
<text text-anchor="middle" x="207" y="-235.3" font-family="Arial" font-size="9.00">k_1_f: [&#45;Infinity, Infinity]</text>
</g>
<!-- Node_8&#45;&gt;Node_9 -->
<g id="edge5" class="edge"><title>Node_8&#45;&gt;Node_9</title>
<path fill="none" stroke="steelblue" d="M194.115,-292.313C196.057,-284.202 198.42,-274.336 200.589,-265.277"/>
<polygon fill="steelblue" stroke="steelblue" points="203.998,-266.069 202.923,-255.529 197.19,-264.439 203.998,-266.069"/>
</g>
<!-- Node_9&#45;&gt;Node_0 -->
<g id="edge11" class="edge"><title>Node_9&#45;&gt;Node_0</title>
<path fill="none" stroke="tan" d="M206.274,-219.313C205.935,-211.289 205.523,-201.547 205.144,-192.569"/>
<polygon fill="tan" stroke="tan" points="208.639,-192.372 204.72,-182.529 201.645,-192.668 208.639,-192.372"/>
</g>
<!-- Node_10 -->
<g id="node11" class="node"><title>Node_10</title>
<path fill="moccasin" stroke="moccasin" d="M279.5,-73.5C279.5,-73.5 354.5,-73.5 354.5,-73.5 360.5,-73.5 366.5,-79.5 366.5,-85.5 366.5,-85.5 366.5,-97.5 366.5,-97.5 366.5,-103.5 360.5,-109.5 354.5,-109.5 354.5,-109.5 279.5,-109.5 279.5,-109.5 273.5,-109.5 267.5,-103.5 267.5,-97.5 267.5,-97.5 267.5,-85.5 267.5,-85.5 267.5,-79.5 273.5,-73.5 279.5,-73.5"/>
<text text-anchor="middle" x="317" y="-89.3" font-family="Arial" font-size="9.00">k_3: [&#45;Infinity, Infinity]</text>
</g>
<!-- Node_10&#45;&gt;Node_6 -->
<g id="edge10" class="edge"><title>Node_10&#45;&gt;Node_6</title>
<path fill="none" stroke="tan" d="M267.45,-75.5295C232.838,-65.0722 186.24,-50.9939 148.414,-39.5656"/>
<polygon fill="tan" stroke="tan" points="149.083,-36.1116 138.499,-36.5698 147.059,-42.8124 149.083,-36.1116"/>
</g>
</g>
</svg>
