<?xml version="1.0" encoding="UTF-8" standalone="no"?>
<!DOCTYPE svg PUBLIC "-//W3C//DTD SVG 1.1//EN"
 "http://www.w3.org/Graphics/SVG/1.1/DTD/svg11.dtd">
<!-- Generated by graphviz version 2.38.0 (20140413.2041)
 -->
<!-- Title: t3_foo_ConstraintGraph Pages: 1 -->
<svg width="190pt" height="723pt"
     viewBox="0.00 0.00 190.00 723.00" xmlns="http://www.w3.org/2000/svg">
<g id="graph0" class="graph" transform="scale(1 1) rotate(0) translate(4 719)">
<title>t3_foo_ConstraintGraph</title>
<polygon fill="white" stroke="none" points="-4,4 -4,-719 186,-719 186,4 -4,4"/>
<text text-anchor="middle" x="91" y="-701.4" font-family="Arial" font-size="12.00">t3_foo_ConstraintGraph</text>
<!-- Node_0 -->
<g id="node1" class="node"><title>Node_0</title>
<path fill="lightblue" stroke="lightblue" d="M114.5,-657.5C114.5,-657.5 161.5,-657.5 161.5,-657.5 167.5,-657.5 173.5,-663.5 173.5,-669.5 173.5,-669.5 173.5,-681.5 173.5,-681.5 173.5,-687.5 167.5,-693.5 161.5,-693.5 161.5,-693.5 114.5,-693.5 114.5,-693.5 108.5,-693.5 102.5,-687.5 102.5,-681.5 102.5,-681.5 102.5,-669.5 102.5,-669.5 102.5,-663.5 108.5,-657.5 114.5,-657.5"/>
<text text-anchor="middle" x="138" y="-673.3" font-family="Arial" font-size="9.00">if (k_1 &lt; N_5)</text>
</g>
<!-- Node_1 -->
<g id="node2" class="node"><title>Node_1</title>
<path fill="moccasin" stroke="moccasin" d="M69.5,-584.5C69.5,-584.5 120.5,-584.5 120.5,-584.5 126.5,-584.5 132.5,-590.5 132.5,-596.5 132.5,-596.5 132.5,-608.5 132.5,-608.5 132.5,-614.5 126.5,-620.5 120.5,-620.5 120.5,-620.5 69.5,-620.5 69.5,-620.5 63.5,-620.5 57.5,-614.5 57.5,-608.5 57.5,-608.5 57.5,-596.5 57.5,-596.5 57.5,-590.5 63.5,-584.5 69.5,-584.5"/>
<text text-anchor="middle" x="95" y="-600.3" font-family="Arial" font-size="9.00">k_1_t: [&#45;inf, inf]</text>
</g>
<!-- Node_0&#45;&gt;Node_1 -->
<g id="edge1" class="edge"><title>Node_0&#45;&gt;Node_1</title>
<path fill="none" stroke="steelblue" d="M127.591,-657.313C122.468,-648.853 116.187,-638.484 110.512,-629.112"/>
<polygon fill="steelblue" stroke="steelblue" points="113.487,-627.269 105.313,-620.529 107.5,-630.896 113.487,-627.269"/>
</g>
<!-- Node_2 -->
<g id="node3" class="node"><title>Node_2</title>
<path fill="lightblue" stroke="lightblue" d="M46.5,-511.5C46.5,-511.5 101.5,-511.5 101.5,-511.5 107.5,-511.5 113.5,-517.5 113.5,-523.5 113.5,-523.5 113.5,-535.5 113.5,-535.5 113.5,-541.5 107.5,-547.5 101.5,-547.5 101.5,-547.5 46.5,-547.5 46.5,-547.5 40.5,-547.5 34.5,-541.5 34.5,-535.5 34.5,-535.5 34.5,-523.5 34.5,-523.5 34.5,-517.5 40.5,-511.5 46.5,-511.5"/>
<text text-anchor="middle" x="74" y="-527.3" font-family="Arial" font-size="9.00">k_7 = k_1_t + 1</text>
</g>
<!-- Node_1&#45;&gt;Node_2 -->
<g id="edge9" class="edge"><title>Node_1&#45;&gt;Node_2</title>
<path fill="none" stroke="tan" d="M89.9165,-584.313C87.5176,-576.202 84.5992,-566.336 81.9199,-557.277"/>
<polygon fill="tan" stroke="tan" points="85.2293,-556.125 79.0367,-547.529 78.5168,-558.111 85.2293,-556.125"/>
</g>
<!-- Node_3 -->
<g id="node4" class="node"><title>Node_3</title>
<path fill="moccasin" stroke="moccasin" d="M12,-438.5C12,-438.5 56,-438.5 56,-438.5 62,-438.5 68,-444.5 68,-450.5 68,-450.5 68,-462.5 68,-462.5 68,-468.5 62,-474.5 56,-474.5 56,-474.5 12,-474.5 12,-474.5 6,-474.5 0,-468.5 0,-462.5 0,-462.5 0,-450.5 0,-450.5 0,-444.5 6,-438.5 12,-438.5"/>
<text text-anchor="middle" x="34" y="-454.3" font-family="Arial" font-size="9.00">k_7: [&#45;inf, inf]</text>
</g>
<!-- Node_2&#45;&gt;Node_3 -->
<g id="edge2" class="edge"><title>Node_2&#45;&gt;Node_3</title>
<path fill="none" stroke="steelblue" d="M64.3171,-511.313C59.6004,-502.941 53.8294,-492.697 48.593,-483.403"/>
<polygon fill="steelblue" stroke="steelblue" points="51.5516,-481.523 43.5937,-474.529 45.4528,-484.959 51.5516,-481.523"/>
</g>
<!-- Node_4 -->
<g id="node5" class="node"><title>Node_4</title>
<path fill="lightblue" stroke="lightblue" d="M20,-365.5C20,-365.5 142,-365.5 142,-365.5 148,-365.5 154,-371.5 154,-377.5 154,-377.5 154,-389.5 154,-389.5 154,-395.5 148,-401.5 142,-401.5 142,-401.5 20,-401.5 20,-401.5 14,-401.5 8,-395.5 8,-389.5 8,-389.5 8,-377.5 8,-377.5 8,-371.5 14,-365.5 20,-365.5"/>
<text text-anchor="middle" x="81" y="-381.3" font-family="Arial" font-size="9.00"># k_1 = PHI &lt;k_3(D)(2), k_7(3)&gt;</text>
</g>
<!-- Node_3&#45;&gt;Node_4 -->
<g id="edge6" class="edge"><title>Node_3&#45;&gt;Node_4</title>
<path fill="none" stroke="tan" d="M45.3774,-438.313C50.9773,-429.853 57.8419,-419.484 64.0453,-410.112"/>
<polygon fill="tan" stroke="tan" points="67.126,-411.799 69.7274,-401.529 61.289,-407.935 67.126,-411.799"/>
</g>
<!-- Node_5 -->
<g id="node6" class="node"><title>Node_5</title>
<path fill="moccasin" stroke="moccasin" d="M109,-292.5C109,-292.5 153,-292.5 153,-292.5 159,-292.5 165,-298.5 165,-304.5 165,-304.5 165,-316.5 165,-316.5 165,-322.5 159,-328.5 153,-328.5 153,-328.5 109,-328.5 109,-328.5 103,-328.5 97,-322.5 97,-316.5 97,-316.5 97,-304.5 97,-304.5 97,-298.5 103,-292.5 109,-292.5"/>
<text text-anchor="middle" x="131" y="-308.3" font-family="Arial" font-size="9.00">k_1: [&#45;inf, inf]</text>
</g>
<!-- Node_4&#45;&gt;Node_5 -->
<g id="edge3" class="edge"><title>Node_4&#45;&gt;Node_5</title>
<path fill="none" stroke="steelblue" d="M93.1036,-365.313C99.1224,-356.766 106.514,-346.269 113.167,-336.823"/>
<polygon fill="steelblue" stroke="steelblue" points="116.112,-338.72 119.008,-328.529 110.388,-334.69 116.112,-338.72"/>
</g>
<!-- Node_5&#45;&gt;Node_0 -->
<g id="edge7" class="edge"><title>Node_5&#45;&gt;Node_0</title>
<path fill="none" stroke="tan" d="M143.214,-328.574C149.952,-338.724 157.952,-352.099 163,-365 177.977,-403.273 182,-414.401 182,-455.5 182,-530.5 182,-530.5 182,-530.5 182,-573.059 164.205,-619.726 151.248,-648.063"/>
<polygon fill="tan" stroke="tan" points="147.999,-646.747 146.904,-657.286 154.332,-649.73 147.999,-646.747"/>
</g>
<!-- Node_6 -->
<g id="node7" class="node"><title>Node_6</title>
<path fill="lightblue" stroke="lightblue" d="M104.5,-219.5C104.5,-219.5 157.5,-219.5 157.5,-219.5 163.5,-219.5 169.5,-225.5 169.5,-231.5 169.5,-231.5 169.5,-243.5 169.5,-243.5 169.5,-249.5 163.5,-255.5 157.5,-255.5 157.5,-255.5 104.5,-255.5 104.5,-255.5 98.5,-255.5 92.5,-249.5 92.5,-243.5 92.5,-243.5 92.5,-231.5 92.5,-231.5 92.5,-225.5 98.5,-219.5 104.5,-219.5"/>
<text text-anchor="middle" x="131" y="-235.3" font-family="Arial" font-size="9.00">if (k_1 &gt;= N_5)</text>
</g>
<!-- Node_5&#45;&gt;Node_6 -->
<g id="edge8" class="edge"><title>Node_5&#45;&gt;Node_6</title>
<path fill="none" stroke="tan" d="M131,-292.313C131,-284.289 131,-274.547 131,-265.569"/>
<polygon fill="tan" stroke="tan" points="134.5,-265.529 131,-255.529 127.5,-265.529 134.5,-265.529"/>
</g>
<!-- Node_7 -->
<g id="node8" class="node"><title>Node_7</title>
<path fill="moccasin" stroke="moccasin" d="M105.5,-146.5C105.5,-146.5 156.5,-146.5 156.5,-146.5 162.5,-146.5 168.5,-152.5 168.5,-158.5 168.5,-158.5 168.5,-170.5 168.5,-170.5 168.5,-176.5 162.5,-182.5 156.5,-182.5 156.5,-182.5 105.5,-182.5 105.5,-182.5 99.5,-182.5 93.5,-176.5 93.5,-170.5 93.5,-170.5 93.5,-158.5 93.5,-158.5 93.5,-152.5 99.5,-146.5 105.5,-146.5"/>
<text text-anchor="middle" x="131" y="-162.3" font-family="Arial" font-size="9.00">k_1_f: [&#45;inf, inf]</text>
</g>
<!-- Node_6&#45;&gt;Node_7 -->
<g id="edge4" class="edge"><title>Node_6&#45;&gt;Node_7</title>
<path fill="none" stroke="steelblue" d="M131,-219.313C131,-211.289 131,-201.547 131,-192.569"/>
<polygon fill="steelblue" stroke="steelblue" points="134.5,-192.529 131,-182.529 127.5,-192.529 134.5,-192.529"/>
</g>
<!-- Node_8 -->
<g id="node9" class="node"><title>Node_8</title>
<path fill="lightblue" stroke="lightblue" d="M113.5,-73.5C113.5,-73.5 148.5,-73.5 148.5,-73.5 154.5,-73.5 160.5,-79.5 160.5,-85.5 160.5,-85.5 160.5,-97.5 160.5,-97.5 160.5,-103.5 154.5,-109.5 148.5,-109.5 148.5,-109.5 113.5,-109.5 113.5,-109.5 107.5,-109.5 101.5,-103.5 101.5,-97.5 101.5,-97.5 101.5,-85.5 101.5,-85.5 101.5,-79.5 107.5,-73.5 113.5,-73.5"/>
<text text-anchor="middle" x="131" y="-89.3" font-family="Arial" font-size="9.00">_8 = k_1_f</text>
</g>
<!-- Node_7&#45;&gt;Node_8 -->
<g id="edge11" class="edge"><title>Node_7&#45;&gt;Node_8</title>
<path fill="none" stroke="tan" d="M131,-146.313C131,-138.289 131,-128.547 131,-119.569"/>
<polygon fill="tan" stroke="tan" points="134.5,-119.529 131,-109.529 127.5,-119.529 134.5,-119.529"/>
</g>
<!-- Node_9 -->
<g id="node10" class="node"><title>Node_9</title>
<path fill="moccasin" stroke="moccasin" d="M111.5,-0.5C111.5,-0.5 150.5,-0.5 150.5,-0.5 156.5,-0.5 162.5,-6.5 162.5,-12.5 162.5,-12.5 162.5,-24.5 162.5,-24.5 162.5,-30.5 156.5,-36.5 150.5,-36.5 150.5,-36.5 111.5,-36.5 111.5,-36.5 105.5,-36.5 99.5,-30.5 99.5,-24.5 99.5,-24.5 99.5,-12.5 99.5,-12.5 99.5,-6.5 105.5,-0.5 111.5,-0.5"/>
<text text-anchor="middle" x="131" y="-16.3" font-family="Arial" font-size="9.00">_8: [&#45;inf, inf]</text>
</g>
<!-- Node_8&#45;&gt;Node_9 -->
<g id="edge5" class="edge"><title>Node_8&#45;&gt;Node_9</title>
<path fill="none" stroke="steelblue" d="M131,-73.3129C131,-65.2895 131,-55.5475 131,-46.5691"/>
<polygon fill="steelblue" stroke="steelblue" points="134.5,-46.5288 131,-36.5288 127.5,-46.5289 134.5,-46.5288"/>
</g>
<!-- Node_10 -->
<g id="node11" class="node"><title>Node_10</title>
<path fill="moccasin" stroke="moccasin" d="M98,-438.5C98,-438.5 142,-438.5 142,-438.5 148,-438.5 154,-444.5 154,-450.5 154,-450.5 154,-462.5 154,-462.5 154,-468.5 148,-474.5 142,-474.5 142,-474.5 98,-474.5 98,-474.5 92,-474.5 86,-468.5 86,-462.5 86,-462.5 86,-450.5 86,-450.5 86,-444.5 92,-438.5 98,-438.5"/>
<text text-anchor="middle" x="120" y="-454.3" font-family="Arial" font-size="9.00">k_3: [&#45;inf, inf]</text>
</g>
<!-- Node_10&#45;&gt;Node_4 -->
<g id="edge10" class="edge"><title>Node_10&#45;&gt;Node_4</title>
<path fill="none" stroke="tan" d="M110.559,-438.313C105.96,-429.941 100.334,-419.697 95.2282,-410.403"/>
<polygon fill="tan" stroke="tan" points="98.236,-408.609 90.3539,-401.529 92.1007,-411.979 98.236,-408.609"/>
</g>
</g>
</svg>
