<?xml version="1.0" encoding="UTF-8" standalone="no"?>
<!DOCTYPE svg PUBLIC "-//W3C//DTD SVG 1.1//EN"
 "http://www.w3.org/Graphics/SVG/1.1/DTD/svg11.dtd">
<!-- Generated by graphviz version 2.38.0 (20140413.2041)
 -->
<!-- Title: t3_foo_final_ConstraintGraph Pages: 1 -->
<svg width="322pt" height="431pt"
     viewBox="0.00 0.00 322.09 431.00" xmlns="http://www.w3.org/2000/svg">
<g id="graph0" class="graph" transform="scale(1 1) rotate(0) translate(4 427)">
<title>t3_foo_final_ConstraintGraph</title>
<polygon fill="white" stroke="none" points="-4,4 -4,-427 318.09,-427 318.09,4 -4,4"/>
<text text-anchor="middle" x="157.045" y="-409.4" font-family="Arial" font-size="12.00">t3_foo_final_ConstraintGraph</text>
<!-- Node_0 -->
<g id="node1" class="node"><title>Node_0</title>
<path fill="lightblue" stroke="lightblue" d="M51.5901,-292.5C51.5901,-292.5 104.59,-292.5 104.59,-292.5 110.59,-292.5 116.59,-298.5 116.59,-304.5 116.59,-304.5 116.59,-316.5 116.59,-316.5 116.59,-322.5 110.59,-328.5 104.59,-328.5 104.59,-328.5 51.5901,-328.5 51.5901,-328.5 45.5901,-328.5 39.5901,-322.5 39.5901,-316.5 39.5901,-316.5 39.5901,-304.5 39.5901,-304.5 39.5901,-298.5 45.5901,-292.5 51.5901,-292.5"/>
<text text-anchor="middle" x="78.0901" y="-308.3" font-family="Arial" font-size="9.00">if (k_1 &gt;= N_5)</text>
</g>
<!-- Node_1 -->
<g id="node2" class="node"><title>Node_1</title>
<path fill="moccasin" stroke="moccasin" d="M45.5901,-219.5C45.5901,-219.5 110.59,-219.5 110.59,-219.5 116.59,-219.5 122.59,-225.5 122.59,-231.5 122.59,-231.5 122.59,-243.5 122.59,-243.5 122.59,-249.5 116.59,-255.5 110.59,-255.5 110.59,-255.5 45.5901,-255.5 45.5901,-255.5 39.5901,-255.5 33.5901,-249.5 33.5901,-243.5 33.5901,-243.5 33.5901,-231.5 33.5901,-231.5 33.5901,-225.5 39.5901,-219.5 45.5901,-219.5"/>
<text text-anchor="middle" x="78.0901" y="-235.3" font-family="Arial" font-size="9.00">k_1_f: [20.0, 50.0]</text>
</g>
<!-- Node_0&#45;&gt;Node_1 -->
<g id="edge1" class="edge"><title>Node_0&#45;&gt;Node_1</title>
<path fill="none" stroke="steelblue" d="M78.0901,-292.313C78.0901,-284.289 78.0901,-274.547 78.0901,-265.569"/>
<polygon fill="steelblue" stroke="steelblue" points="81.5902,-265.529 78.0901,-255.529 74.5902,-265.529 81.5902,-265.529"/>
</g>
<!-- Node_8 -->
<g id="node9" class="node"><title>Node_8</title>
<path fill="lightblue" stroke="lightblue" d="M60.5901,-146.5C60.5901,-146.5 95.5901,-146.5 95.5901,-146.5 101.59,-146.5 107.59,-152.5 107.59,-158.5 107.59,-158.5 107.59,-170.5 107.59,-170.5 107.59,-176.5 101.59,-182.5 95.5901,-182.5 95.5901,-182.5 60.5901,-182.5 60.5901,-182.5 54.5901,-182.5 48.5901,-176.5 48.5901,-170.5 48.5901,-170.5 48.5901,-158.5 48.5901,-158.5 48.5901,-152.5 54.5901,-146.5 60.5901,-146.5"/>
<text text-anchor="middle" x="78.0901" y="-162.3" font-family="Arial" font-size="9.00">_8 = k_1_f</text>
</g>
<!-- Node_1&#45;&gt;Node_8 -->
<g id="edge8" class="edge"><title>Node_1&#45;&gt;Node_8</title>
<path fill="none" stroke="tan" d="M78.0901,-219.313C78.0901,-211.289 78.0901,-201.547 78.0901,-192.569"/>
<polygon fill="tan" stroke="tan" points="81.5902,-192.529 78.0901,-182.529 74.5902,-192.529 81.5902,-192.529"/>
</g>
<!-- Node_2 -->
<g id="node3" class="node"><title>Node_2</title>
<path fill="lightblue" stroke="lightblue" d="M154.59,-146.5C154.59,-146.5 209.59,-146.5 209.59,-146.5 215.59,-146.5 221.59,-152.5 221.59,-158.5 221.59,-158.5 221.59,-170.5 221.59,-170.5 221.59,-176.5 215.59,-182.5 209.59,-182.5 209.59,-182.5 154.59,-182.5 154.59,-182.5 148.59,-182.5 142.59,-176.5 142.59,-170.5 142.59,-170.5 142.59,-158.5 142.59,-158.5 142.59,-152.5 148.59,-146.5 154.59,-146.5"/>
<text text-anchor="middle" x="182.09" y="-162.3" font-family="Arial" font-size="9.00">k_7 = k_1_t + 1</text>
</g>
<!-- Node_3 -->
<g id="node4" class="node"><title>Node_3</title>
<path fill="moccasin" stroke="moccasin" d="M156.09,-73.5C156.09,-73.5 208.09,-73.5 208.09,-73.5 214.09,-73.5 220.09,-79.5 220.09,-85.5 220.09,-85.5 220.09,-97.5 220.09,-97.5 220.09,-103.5 214.09,-109.5 208.09,-109.5 208.09,-109.5 156.09,-109.5 156.09,-109.5 150.09,-109.5 144.09,-103.5 144.09,-97.5 144.09,-97.5 144.09,-85.5 144.09,-85.5 144.09,-79.5 150.09,-73.5 156.09,-73.5"/>
<text text-anchor="middle" x="182.09" y="-89.3" font-family="Arial" font-size="9.00">k_7: [1.0, 50.0]</text>
</g>
<!-- Node_2&#45;&gt;Node_3 -->
<g id="edge2" class="edge"><title>Node_2&#45;&gt;Node_3</title>
<path fill="none" stroke="steelblue" d="M182.09,-146.313C182.09,-138.289 182.09,-128.547 182.09,-119.569"/>
<polygon fill="steelblue" stroke="steelblue" points="185.59,-119.529 182.09,-109.529 178.59,-119.529 185.59,-119.529"/>
</g>
<!-- Node_4 -->
<g id="node5" class="node"><title>Node_4</title>
<path fill="lightblue" stroke="lightblue" d="M121.09,-0.5C121.09,-0.5 243.09,-0.5 243.09,-0.5 249.09,-0.5 255.09,-6.5 255.09,-12.5 255.09,-12.5 255.09,-24.5 255.09,-24.5 255.09,-30.5 249.09,-36.5 243.09,-36.5 243.09,-36.5 121.09,-36.5 121.09,-36.5 115.09,-36.5 109.09,-30.5 109.09,-24.5 109.09,-24.5 109.09,-12.5 109.09,-12.5 109.09,-6.5 115.09,-0.5 121.09,-0.5"/>
<text text-anchor="middle" x="182.09" y="-16.3" font-family="Arial" font-size="9.00"># k_1 = PHI &lt;k_3(D)(2), k_7(3)&gt;</text>
</g>
<!-- Node_3&#45;&gt;Node_4 -->
<g id="edge10" class="edge"><title>Node_3&#45;&gt;Node_4</title>
<path fill="none" stroke="tan" d="M182.09,-73.3129C182.09,-65.2895 182.09,-55.5475 182.09,-46.5691"/>
<polygon fill="tan" stroke="tan" points="185.59,-46.5288 182.09,-36.5288 178.59,-46.5289 185.59,-46.5288"/>
</g>
<!-- Node_5 -->
<g id="node6" class="node"><title>Node_5</title>
<path fill="moccasin" stroke="moccasin" d="M52.0901,-365.5C52.0901,-365.5 104.09,-365.5 104.09,-365.5 110.09,-365.5 116.09,-371.5 116.09,-377.5 116.09,-377.5 116.09,-389.5 116.09,-389.5 116.09,-395.5 110.09,-401.5 104.09,-401.5 104.09,-401.5 52.0901,-401.5 52.0901,-401.5 46.0901,-401.5 40.0901,-395.5 40.0901,-389.5 40.0901,-389.5 40.0901,-377.5 40.0901,-377.5 40.0901,-371.5 46.0901,-365.5 52.0901,-365.5"/>
<text text-anchor="middle" x="78.0901" y="-381.3" font-family="Arial" font-size="9.00">k_1: [0.0, 50.0]</text>
</g>
<!-- Node_4&#45;&gt;Node_5 -->
<g id="edge3" class="edge"><title>Node_4&#45;&gt;Node_5</title>
<path fill="none" stroke="steelblue" d="M109.069,-27.4938C77.8153,-34.5945 43.4435,-47.9442 21.0901,-73 -6.27037,-103.668 2.09012,-122.401 2.09012,-163.5 2.09012,-238.5 2.09012,-238.5 2.09012,-238.5 2.09012,-280.603 9.32867,-292.371 30.0901,-329 35.9319,-339.306 44.0422,-349.326 51.9351,-357.855"/>
<polygon fill="steelblue" stroke="steelblue" points="49.59,-360.465 59.0513,-365.233 54.6286,-355.606 49.59,-360.465"/>
</g>
<!-- Node_5&#45;&gt;Node_0 -->
<g id="edge6" class="edge"><title>Node_5&#45;&gt;Node_0</title>
<path fill="none" stroke="tan" d="M78.0901,-365.313C78.0901,-357.289 78.0901,-347.547 78.0901,-338.569"/>
<polygon fill="tan" stroke="tan" points="81.5902,-338.529 78.0901,-328.529 74.5902,-338.529 81.5902,-338.529"/>
</g>
<!-- Node_6 -->
<g id="node7" class="node"><title>Node_6</title>
<path fill="lightblue" stroke="lightblue" d="M152.59,-292.5C152.59,-292.5 199.59,-292.5 199.59,-292.5 205.59,-292.5 211.59,-298.5 211.59,-304.5 211.59,-304.5 211.59,-316.5 211.59,-316.5 211.59,-322.5 205.59,-328.5 199.59,-328.5 199.59,-328.5 152.59,-328.5 152.59,-328.5 146.59,-328.5 140.59,-322.5 140.59,-316.5 140.59,-316.5 140.59,-304.5 140.59,-304.5 140.59,-298.5 146.59,-292.5 152.59,-292.5"/>
<text text-anchor="middle" x="176.09" y="-308.3" font-family="Arial" font-size="9.00">if (k_1 &lt; N_5)</text>
</g>
<!-- Node_5&#45;&gt;Node_6 -->
<g id="edge7" class="edge"><title>Node_5&#45;&gt;Node_6</title>
<path fill="none" stroke="tan" d="M101.813,-365.313C114.573,-356.069 130.482,-344.543 144.299,-334.532"/>
<polygon fill="tan" stroke="tan" points="146.541,-337.23 152.586,-328.529 142.434,-331.562 146.541,-337.23"/>
</g>
<!-- Node_7 -->
<g id="node8" class="node"><title>Node_7</title>
<path fill="moccasin" stroke="moccasin" d="M152.59,-219.5C152.59,-219.5 211.59,-219.5 211.59,-219.5 217.59,-219.5 223.59,-225.5 223.59,-231.5 223.59,-231.5 223.59,-243.5 223.59,-243.5 223.59,-249.5 217.59,-255.5 211.59,-255.5 211.59,-255.5 152.59,-255.5 152.59,-255.5 146.59,-255.5 140.59,-249.5 140.59,-243.5 140.59,-243.5 140.59,-231.5 140.59,-231.5 140.59,-225.5 146.59,-219.5 152.59,-219.5"/>
<text text-anchor="middle" x="182.09" y="-235.3" font-family="Arial" font-size="9.00">k_1_t: [0.0, 49.0]</text>
</g>
<!-- Node_6&#45;&gt;Node_7 -->
<g id="edge4" class="edge"><title>Node_6&#45;&gt;Node_7</title>
<path fill="none" stroke="steelblue" d="M177.543,-292.313C178.221,-284.289 179.044,-274.547 179.803,-265.569"/>
<polygon fill="steelblue" stroke="steelblue" points="183.296,-265.788 180.651,-255.529 176.321,-265.199 183.296,-265.788"/>
</g>
<!-- Node_7&#45;&gt;Node_2 -->
<g id="edge9" class="edge"><title>Node_7&#45;&gt;Node_2</title>
<path fill="none" stroke="tan" d="M182.09,-219.313C182.09,-211.289 182.09,-201.547 182.09,-192.569"/>
<polygon fill="tan" stroke="tan" points="185.59,-192.529 182.09,-182.529 178.59,-192.529 185.59,-192.529"/>
</g>
<!-- Node_9 -->
<g id="node10" class="node"><title>Node_9</title>
<path fill="moccasin" stroke="moccasin" d="M42.5901,-73.5C42.5901,-73.5 113.59,-73.5 113.59,-73.5 119.59,-73.5 125.59,-79.5 125.59,-85.5 125.59,-85.5 125.59,-97.5 125.59,-97.5 125.59,-103.5 119.59,-109.5 113.59,-109.5 113.59,-109.5 42.5901,-109.5 42.5901,-109.5 36.5901,-109.5 30.5901,-103.5 30.5901,-97.5 30.5901,-97.5 30.5901,-85.5 30.5901,-85.5 30.5901,-79.5 36.5901,-73.5 42.5901,-73.5"/>
<text text-anchor="middle" x="78.0901" y="-89.3" font-family="Arial" font-size="9.00">_8: [&#45;Infinity, Infinity]</text>
</g>
<!-- Node_8&#45;&gt;Node_9 -->
<g id="edge5" class="edge"><title>Node_8&#45;&gt;Node_9</title>
<path fill="none" stroke="steelblue" d="M78.0901,-146.313C78.0901,-138.289 78.0901,-128.547 78.0901,-119.569"/>
<polygon fill="steelblue" stroke="steelblue" points="81.5902,-119.529 78.0901,-109.529 74.5902,-119.529 81.5902,-119.529"/>
</g>
<!-- Node_11 -->
<g id="node11" class="node"><title>Node_11</title>
<path fill="moccasin" stroke="moccasin" d="M250.09,-73.5C250.09,-73.5 302.09,-73.5 302.09,-73.5 308.09,-73.5 314.09,-79.5 314.09,-85.5 314.09,-85.5 314.09,-97.5 314.09,-97.5 314.09,-103.5 308.09,-109.5 302.09,-109.5 302.09,-109.5 250.09,-109.5 250.09,-109.5 244.09,-109.5 238.09,-103.5 238.09,-97.5 238.09,-97.5 238.09,-85.5 238.09,-85.5 238.09,-79.5 244.09,-73.5 250.09,-73.5"/>
<text text-anchor="middle" x="276.09" y="-89.3" font-family="Arial" font-size="9.00">k_3: [0.0, 10.0]</text>
</g>
<!-- Node_11&#45;&gt;Node_4 -->
<g id="edge11" class="edge"><title>Node_11&#45;&gt;Node_4</title>
<path fill="none" stroke="tan" d="M253.335,-73.3129C241.212,-64.1558 226.125,-52.76 212.959,-42.8158"/>
<polygon fill="tan" stroke="tan" points="214.724,-39.7632 204.635,-36.5288 210.505,-45.3489 214.724,-39.7632"/>
</g>
<!-- Node_10 -->
<g id="node12" class="node"><title>Node_10</title>
<path fill="moccasin" stroke="moccasin" d="M146.59,-365.5C146.59,-365.5 205.59,-365.5 205.59,-365.5 211.59,-365.5 217.59,-371.5 217.59,-377.5 217.59,-377.5 217.59,-389.5 217.59,-389.5 217.59,-395.5 211.59,-401.5 205.59,-401.5 205.59,-401.5 146.59,-401.5 146.59,-401.5 140.59,-401.5 134.59,-395.5 134.59,-389.5 134.59,-389.5 134.59,-377.5 134.59,-377.5 134.59,-371.5 140.59,-365.5 146.59,-365.5"/>
<text text-anchor="middle" x="176.09" y="-381.3" font-family="Arial" font-size="9.00">N_5: [20.0, 50.0]</text>
</g>
</g>
</svg>
