<?xml version="1.0" encoding="UTF-8" standalone="no"?>
<!DOCTYPE svg PUBLIC "-//W3C//DTD SVG 1.1//EN"
 "http://www.w3.org/Graphics/SVG/1.1/DTD/svg11.dtd">
<!-- Generated by graphviz version 2.38.0 (20140413.2041)
 -->
<!-- Title: t3_foo_CFG Pages: 1 -->
<svg width="219pt" height="446pt"
     viewBox="0.00 0.00 219.00 446.00" xmlns="http://www.w3.org/2000/svg">
<g id="graph0" class="graph" transform="scale(1 1) rotate(0) translate(4 442)">
<title>t3_foo_CFG</title>
<polygon fill="white" stroke="none" points="-4,4 -4,-442 215,-442 215,4 -4,4"/>
<!-- Node_0 -->
<g id="node1" class="node"><title>Node_0</title>
<path fill="mintcream" stroke="orange" d="M88,-401.5C88,-401.5 118,-401.5 118,-401.5 124,-401.5 130,-407.5 130,-413.5 130,-413.5 130,-425.5 130,-425.5 130,-431.5 124,-437.5 118,-437.5 118,-437.5 88,-437.5 88,-437.5 82,-437.5 76,-431.5 76,-425.5 76,-425.5 76,-413.5 76,-413.5 76,-407.5 82,-401.5 88,-401.5"/>
<text text-anchor="middle" x="103" y="-417.3" font-family="Arial" font-size="9.00">&lt;Entry&gt;</text>
</g>
<!-- Node_1 -->
<g id="node2" class="node"><title>Node_1</title>
<path fill="mintcream" stroke="black" d="M82.5,-328.5C82.5,-328.5 123.5,-328.5 123.5,-328.5 129.5,-328.5 135.5,-334.5 135.5,-340.5 135.5,-340.5 135.5,-352.5 135.5,-352.5 135.5,-358.5 129.5,-364.5 123.5,-364.5 123.5,-364.5 82.5,-364.5 82.5,-364.5 76.5,-364.5 70.5,-358.5 70.5,-352.5 70.5,-352.5 70.5,-340.5 70.5,-340.5 70.5,-334.5 76.5,-328.5 82.5,-328.5"/>
<text text-anchor="middle" x="103" y="-353.3" font-family="Arial" font-size="9.00">&lt;bb 2&gt;</text>
<polyline fill="none" stroke="black" points="70.5,-346.5 135.5,-346.5 "/>
<text text-anchor="middle" x="103" y="-335.3" font-family="Arial" font-size="9.00">goto &lt;bb 4&gt;</text>
</g>
<!-- Node_0&#45;&gt;Node_1 -->
<g id="edge1" class="edge"><title>Node_0&#45;&gt;Node_1</title>
<path fill="none" stroke="black" d="M103,-401.313C103,-393.289 103,-383.547 103,-374.569"/>
<polygon fill="black" stroke="black" points="106.5,-374.529 103,-364.529 99.5001,-374.529 106.5,-374.529"/>
</g>
<!-- Node_2 -->
<g id="node3" class="node"><title>Node_2</title>
<path fill="mintcream" stroke="black" d="M12,-237.5C12,-237.5 194,-237.5 194,-237.5 200,-237.5 206,-243.5 206,-249.5 206,-249.5 206,-279.5 206,-279.5 206,-285.5 200,-291.5 194,-291.5 194,-291.5 12,-291.5 12,-291.5 6,-291.5 0,-285.5 0,-279.5 0,-279.5 0,-249.5 0,-249.5 0,-243.5 6,-237.5 12,-237.5"/>
<text text-anchor="middle" x="103" y="-280.3" font-family="Arial" font-size="9.00">&lt;bb 4&gt;</text>
<polyline fill="none" stroke="black" points="0,-273.5 206,-273.5 "/>
<text text-anchor="middle" x="103" y="-262.3" font-family="Arial" font-size="9.00"># k_1 = PHI &lt;k_3(D)(2), k_7(3)&gt;</text>
<polyline fill="none" stroke="black" points="0,-255.5 206,-255.5 "/>
<text text-anchor="middle" x="103" y="-244.3" font-family="Arial" font-size="9.00">if (k_1 &lt; N_5(D)) goto &lt;bb 3&gt; else goto &lt;bb 5&gt;</text>
</g>
<!-- Node_1&#45;&gt;Node_2 -->
<g id="edge2" class="edge"><title>Node_1&#45;&gt;Node_2</title>
<path fill="none" stroke="black" d="M103,-328.141C103,-320.395 103,-310.96 103,-301.787"/>
<polygon fill="black" stroke="black" points="106.5,-301.647 103,-291.647 99.5001,-301.647 106.5,-301.647"/>
</g>
<!-- Node_3 -->
<g id="node4" class="node"><title>Node_3</title>
<path fill="mintcream" stroke="black" d="M79.5,-146.5C79.5,-146.5 126.5,-146.5 126.5,-146.5 132.5,-146.5 138.5,-152.5 138.5,-158.5 138.5,-158.5 138.5,-188.5 138.5,-188.5 138.5,-194.5 132.5,-200.5 126.5,-200.5 126.5,-200.5 79.5,-200.5 79.5,-200.5 73.5,-200.5 67.5,-194.5 67.5,-188.5 67.5,-188.5 67.5,-158.5 67.5,-158.5 67.5,-152.5 73.5,-146.5 79.5,-146.5"/>
<text text-anchor="middle" x="103" y="-189.3" font-family="Arial" font-size="9.00">&lt;bb 3&gt;</text>
<polyline fill="none" stroke="black" points="67.5,-182.5 138.5,-182.5 "/>
<text text-anchor="middle" x="103" y="-171.3" font-family="Arial" font-size="9.00">bar (0, k_1)</text>
<polyline fill="none" stroke="black" points="67.5,-164.5 138.5,-164.5 "/>
<text text-anchor="middle" x="103" y="-153.3" font-family="Arial" font-size="9.00">k_7 = k_1 + 1</text>
</g>
<!-- Node_2&#45;&gt;Node_3 -->
<g id="edge3" class="edge"><title>Node_2&#45;&gt;Node_3</title>
<path fill="none" stroke="crimson" d="M96.7839,-237.278C96.2695,-228.949 96.1268,-219.586 96.3559,-210.684"/>
<polygon fill="crimson" stroke="crimson" points="99.8594,-210.676 96.7956,-200.534 92.866,-210.373 99.8594,-210.676"/>
</g>
<!-- Node_4 -->
<g id="node5" class="node"><title>Node_4</title>
<path fill="mintcream" stroke="black" d="M169,-155.5C169,-155.5 199,-155.5 199,-155.5 205,-155.5 211,-161.5 211,-167.5 211,-167.5 211,-179.5 211,-179.5 211,-185.5 205,-191.5 199,-191.5 199,-191.5 169,-191.5 169,-191.5 163,-191.5 157,-185.5 157,-179.5 157,-179.5 157,-167.5 157,-167.5 157,-161.5 163,-155.5 169,-155.5"/>
<text text-anchor="middle" x="184" y="-180.3" font-family="Arial" font-size="9.00">&lt;bb 5&gt;</text>
<polyline fill="none" stroke="black" points="157,-173.5 211,-173.5 "/>
<text text-anchor="middle" x="184" y="-162.3" font-family="Arial" font-size="9.00">_8 = k_1</text>
</g>
<!-- Node_2&#45;&gt;Node_4 -->
<g id="edge5" class="edge"><title>Node_2&#45;&gt;Node_4</title>
<path fill="none" stroke="teal" d="M126.865,-237.278C137.889,-225.165 150.905,-210.864 161.727,-198.973"/>
<polygon fill="teal" stroke="teal" points="164.336,-201.306 168.478,-191.555 159.159,-196.595 164.336,-201.306"/>
</g>
<!-- Node_3&#45;&gt;Node_2 -->
<g id="edge4" class="edge"><title>Node_3&#45;&gt;Node_2</title>
<path fill="none" stroke="black" d="M109.204,-200.534C109.724,-208.848 109.873,-218.206 109.649,-227.115"/>
<polygon fill="black" stroke="black" points="106.145,-227.138 109.216,-237.278 113.139,-227.437 106.145,-227.138"/>
</g>
<!-- Node_5 -->
<g id="node6" class="node"><title>Node_5</title>
<path fill="mintcream" stroke="black" d="M169,-73.5C169,-73.5 199,-73.5 199,-73.5 205,-73.5 211,-79.5 211,-85.5 211,-85.5 211,-97.5 211,-97.5 211,-103.5 205,-109.5 199,-109.5 199,-109.5 169,-109.5 169,-109.5 163,-109.5 157,-103.5 157,-97.5 157,-97.5 157,-85.5 157,-85.5 157,-79.5 163,-73.5 169,-73.5"/>
<text text-anchor="middle" x="184" y="-98.3" font-family="Arial" font-size="9.00">&lt;L3&gt;</text>
<polyline fill="none" stroke="black" points="157,-91.5 211,-91.5 "/>
<text text-anchor="middle" x="184" y="-80.3" font-family="Arial" font-size="9.00">return _8</text>
</g>
<!-- Node_4&#45;&gt;Node_5 -->
<g id="edge6" class="edge"><title>Node_4&#45;&gt;Node_5</title>
<path fill="none" stroke="black" d="M184,-155.141C184,-144.797 184,-131.441 184,-119.721"/>
<polygon fill="black" stroke="black" points="187.5,-119.55 184,-109.55 180.5,-119.55 187.5,-119.55"/>
</g>
<!-- Node_6 -->
<g id="node7" class="node"><title>Node_6</title>
<path fill="mintcream" stroke="#1874cd" d="M169,-0.5C169,-0.5 199,-0.5 199,-0.5 205,-0.5 211,-6.5 211,-12.5 211,-12.5 211,-24.5 211,-24.5 211,-30.5 205,-36.5 199,-36.5 199,-36.5 169,-36.5 169,-36.5 163,-36.5 157,-30.5 157,-24.5 157,-24.5 157,-12.5 157,-12.5 157,-6.5 163,-0.5 169,-0.5"/>
<text text-anchor="middle" x="184" y="-16.3" font-family="Arial" font-size="9.00">&lt;Exit&gt;</text>
</g>
<!-- Node_5&#45;&gt;Node_6 -->
<g id="edge7" class="edge"><title>Node_5&#45;&gt;Node_6</title>
<path fill="none" stroke="black" d="M184,-73.3129C184,-65.2895 184,-55.5475 184,-46.5691"/>
<polygon fill="black" stroke="black" points="187.5,-46.5288 184,-36.5288 180.5,-46.5289 187.5,-46.5288"/>
</g>
</g>
</svg>
