<?xml version="1.0" encoding="UTF-8" standalone="no"?>
<!DOCTYPE svg PUBLIC "-//W3C//DTD SVG 1.1//EN"
 "http://www.w3.org/Graphics/SVG/1.1/DTD/svg11.dtd">
<!-- Generated by graphviz version 2.38.0 (20140413.2041)
 -->
<!-- Title: t3_foo_ConstraintGraph Pages: 1 -->
<svg width="377pt" height="431pt"
     viewBox="0.00 0.00 376.76 431.00" xmlns="http://www.w3.org/2000/svg">
<g id="graph0" class="graph" transform="scale(1 1) rotate(0) translate(4 427)">
<title>t3_foo_ConstraintGraph</title>
<polygon fill="white" stroke="none" points="-4,4 -4,-427 372.759,-427 372.759,4 -4,4"/>
<text text-anchor="middle" x="184.38" y="-409.4" font-family="Arial" font-size="12.00">t3_foo_ConstraintGraph</text>
<!-- Node_0 -->
<g id="node1" class="node"><title>Node_0</title>
<path fill="lightblue" stroke="lightblue" d="M55.7594,-292.5C55.7594,-292.5 108.759,-292.5 108.759,-292.5 114.759,-292.5 120.759,-298.5 120.759,-304.5 120.759,-304.5 120.759,-316.5 120.759,-316.5 120.759,-322.5 114.759,-328.5 108.759,-328.5 108.759,-328.5 55.7594,-328.5 55.7594,-328.5 49.7594,-328.5 43.7594,-322.5 43.7594,-316.5 43.7594,-316.5 43.7594,-304.5 43.7594,-304.5 43.7594,-298.5 49.7594,-292.5 55.7594,-292.5"/>
<text text-anchor="middle" x="82.2594" y="-308.3" font-family="Arial" font-size="9.00">if (k_1 &gt;= N_5)</text>
</g>
<!-- Node_1 -->
<g id="node2" class="node"><title>Node_1</title>
<path fill="moccasin" stroke="moccasin" d="M40.7594,-219.5C40.7594,-219.5 123.759,-219.5 123.759,-219.5 129.759,-219.5 135.759,-225.5 135.759,-231.5 135.759,-231.5 135.759,-243.5 135.759,-243.5 135.759,-249.5 129.759,-255.5 123.759,-255.5 123.759,-255.5 40.7594,-255.5 40.7594,-255.5 34.7594,-255.5 28.7594,-249.5 28.7594,-243.5 28.7594,-243.5 28.7594,-231.5 28.7594,-231.5 28.7594,-225.5 34.7594,-219.5 40.7594,-219.5"/>
<text text-anchor="middle" x="82.2594" y="-235.3" font-family="Arial" font-size="9.00">k_1_f: [&#45;Infinity, Infinity]</text>
</g>
<!-- Node_0&#45;&gt;Node_1 -->
<g id="edge1" class="edge"><title>Node_0&#45;&gt;Node_1</title>
<path fill="none" stroke="steelblue" d="M82.2594,-292.313C82.2594,-284.289 82.2594,-274.547 82.2594,-265.569"/>
<polygon fill="steelblue" stroke="steelblue" points="85.7595,-265.529 82.2594,-255.529 78.7595,-265.529 85.7595,-265.529"/>
</g>
<!-- Node_8 -->
<g id="node9" class="node"><title>Node_8</title>
<path fill="lightblue" stroke="lightblue" d="M64.7594,-146.5C64.7594,-146.5 99.7594,-146.5 99.7594,-146.5 105.759,-146.5 111.759,-152.5 111.759,-158.5 111.759,-158.5 111.759,-170.5 111.759,-170.5 111.759,-176.5 105.759,-182.5 99.7594,-182.5 99.7594,-182.5 64.7594,-182.5 64.7594,-182.5 58.7594,-182.5 52.7594,-176.5 52.7594,-170.5 52.7594,-170.5 52.7594,-158.5 52.7594,-158.5 52.7594,-152.5 58.7594,-146.5 64.7594,-146.5"/>
<text text-anchor="middle" x="82.2594" y="-162.3" font-family="Arial" font-size="9.00">_8 = k_1_f</text>
</g>
<!-- Node_1&#45;&gt;Node_8 -->
<g id="edge8" class="edge"><title>Node_1&#45;&gt;Node_8</title>
<path fill="none" stroke="tan" d="M82.2594,-219.313C82.2594,-211.289 82.2594,-201.547 82.2594,-192.569"/>
<polygon fill="tan" stroke="tan" points="85.7595,-192.529 82.2594,-182.529 78.7595,-192.529 85.7595,-192.529"/>
</g>
<!-- Node_2 -->
<g id="node3" class="node"><title>Node_2</title>
<path fill="lightblue" stroke="lightblue" d="M176.759,-146.5C176.759,-146.5 231.759,-146.5 231.759,-146.5 237.759,-146.5 243.759,-152.5 243.759,-158.5 243.759,-158.5 243.759,-170.5 243.759,-170.5 243.759,-176.5 237.759,-182.5 231.759,-182.5 231.759,-182.5 176.759,-182.5 176.759,-182.5 170.759,-182.5 164.759,-176.5 164.759,-170.5 164.759,-170.5 164.759,-158.5 164.759,-158.5 164.759,-152.5 170.759,-146.5 176.759,-146.5"/>
<text text-anchor="middle" x="204.259" y="-162.3" font-family="Arial" font-size="9.00">k_7 = k_1_t + 1</text>
</g>
<!-- Node_3 -->
<g id="node4" class="node"><title>Node_3</title>
<path fill="moccasin" stroke="moccasin" d="M164.759,-73.5C164.759,-73.5 239.759,-73.5 239.759,-73.5 245.759,-73.5 251.759,-79.5 251.759,-85.5 251.759,-85.5 251.759,-97.5 251.759,-97.5 251.759,-103.5 245.759,-109.5 239.759,-109.5 239.759,-109.5 164.759,-109.5 164.759,-109.5 158.759,-109.5 152.759,-103.5 152.759,-97.5 152.759,-97.5 152.759,-85.5 152.759,-85.5 152.759,-79.5 158.759,-73.5 164.759,-73.5"/>
<text text-anchor="middle" x="202.259" y="-89.3" font-family="Arial" font-size="9.00">k_7: [&#45;Infinity, Infinity]</text>
</g>
<!-- Node_2&#45;&gt;Node_3 -->
<g id="edge2" class="edge"><title>Node_2&#45;&gt;Node_3</title>
<path fill="none" stroke="steelblue" d="M203.775,-146.313C203.549,-138.289 203.275,-128.547 203.022,-119.569"/>
<polygon fill="steelblue" stroke="steelblue" points="206.519,-119.426 202.739,-109.529 199.522,-119.623 206.519,-119.426"/>
</g>
<!-- Node_4 -->
<g id="node5" class="node"><title>Node_4</title>
<path fill="lightblue" stroke="lightblue" d="M141.259,-0.5C141.259,-0.5 263.259,-0.5 263.259,-0.5 269.259,-0.5 275.259,-6.5 275.259,-12.5 275.259,-12.5 275.259,-24.5 275.259,-24.5 275.259,-30.5 269.259,-36.5 263.259,-36.5 263.259,-36.5 141.259,-36.5 141.259,-36.5 135.259,-36.5 129.259,-30.5 129.259,-24.5 129.259,-24.5 129.259,-12.5 129.259,-12.5 129.259,-6.5 135.259,-0.5 141.259,-0.5"/>
<text text-anchor="middle" x="202.259" y="-16.3" font-family="Arial" font-size="9.00"># k_1 = PHI &lt;k_3(D)(2), k_7(3)&gt;</text>
</g>
<!-- Node_3&#45;&gt;Node_4 -->
<g id="edge10" class="edge"><title>Node_3&#45;&gt;Node_4</title>
<path fill="none" stroke="tan" d="M202.259,-73.3129C202.259,-65.2895 202.259,-55.5475 202.259,-46.5691"/>
<polygon fill="tan" stroke="tan" points="205.759,-46.5288 202.259,-36.5288 198.759,-46.5289 205.759,-46.5288"/>
</g>
<!-- Node_5 -->
<g id="node6" class="node"><title>Node_5</title>
<path fill="moccasin" stroke="moccasin" d="M44.7594,-365.5C44.7594,-365.5 119.759,-365.5 119.759,-365.5 125.759,-365.5 131.759,-371.5 131.759,-377.5 131.759,-377.5 131.759,-389.5 131.759,-389.5 131.759,-395.5 125.759,-401.5 119.759,-401.5 119.759,-401.5 44.7594,-401.5 44.7594,-401.5 38.7594,-401.5 32.7594,-395.5 32.7594,-389.5 32.7594,-389.5 32.7594,-377.5 32.7594,-377.5 32.7594,-371.5 38.7594,-365.5 44.7594,-365.5"/>
<text text-anchor="middle" x="82.2594" y="-381.3" font-family="Arial" font-size="9.00">k_1: [&#45;Infinity, Infinity]</text>
</g>
<!-- Node_4&#45;&gt;Node_5 -->
<g id="edge3" class="edge"><title>Node_4&#45;&gt;Node_5</title>
<path fill="none" stroke="steelblue" d="M129.145,-25.254C93.4208,-31.7335 52.3944,-45.2057 25.2594,-73 -3.89094,-102.859 0.259396,-121.771 0.259396,-163.5 0.259396,-238.5 0.259396,-238.5 0.259396,-238.5 0.259396,-281.467 11.9727,-292.265 34.2594,-329 40.4043,-339.129 48.5929,-349.103 56.4643,-357.644"/>
<polygon fill="steelblue" stroke="steelblue" points="54.0984,-360.234 63.5363,-365.048 59.1605,-355.399 54.0984,-360.234"/>
</g>
<!-- Node_5&#45;&gt;Node_0 -->
<g id="edge6" class="edge"><title>Node_5&#45;&gt;Node_0</title>
<path fill="none" stroke="tan" d="M82.2594,-365.313C82.2594,-357.289 82.2594,-347.547 82.2594,-338.569"/>
<polygon fill="tan" stroke="tan" points="85.7595,-338.529 82.2594,-328.529 78.7595,-338.529 85.7595,-338.529"/>
</g>
<!-- Node_6 -->
<g id="node7" class="node"><title>Node_6</title>
<path fill="lightblue" stroke="lightblue" d="M166.759,-292.5C166.759,-292.5 213.759,-292.5 213.759,-292.5 219.759,-292.5 225.759,-298.5 225.759,-304.5 225.759,-304.5 225.759,-316.5 225.759,-316.5 225.759,-322.5 219.759,-328.5 213.759,-328.5 213.759,-328.5 166.759,-328.5 166.759,-328.5 160.759,-328.5 154.759,-322.5 154.759,-316.5 154.759,-316.5 154.759,-304.5 154.759,-304.5 154.759,-298.5 160.759,-292.5 166.759,-292.5"/>
<text text-anchor="middle" x="190.259" y="-308.3" font-family="Arial" font-size="9.00">if (k_1 &lt; N_5)</text>
</g>
<!-- Node_5&#45;&gt;Node_6 -->
<g id="edge7" class="edge"><title>Node_5&#45;&gt;Node_6</title>
<path fill="none" stroke="tan" d="M108.128,-365.494C122.317,-356.166 140.102,-344.474 155.489,-334.358"/>
<polygon fill="tan" stroke="tan" points="157.794,-337.032 164.227,-328.614 153.949,-331.182 157.794,-337.032"/>
</g>
<!-- Node_7 -->
<g id="node8" class="node"><title>Node_7</title>
<path fill="moccasin" stroke="moccasin" d="M165.759,-219.5C165.759,-219.5 248.759,-219.5 248.759,-219.5 254.759,-219.5 260.759,-225.5 260.759,-231.5 260.759,-231.5 260.759,-243.5 260.759,-243.5 260.759,-249.5 254.759,-255.5 248.759,-255.5 248.759,-255.5 165.759,-255.5 165.759,-255.5 159.759,-255.5 153.759,-249.5 153.759,-243.5 153.759,-243.5 153.759,-231.5 153.759,-231.5 153.759,-225.5 159.759,-219.5 165.759,-219.5"/>
<text text-anchor="middle" x="207.259" y="-235.3" font-family="Arial" font-size="9.00">k_1_t: [&#45;Infinity, Infinity]</text>
</g>
<!-- Node_6&#45;&gt;Node_7 -->
<g id="edge4" class="edge"><title>Node_6&#45;&gt;Node_7</title>
<path fill="none" stroke="steelblue" d="M194.375,-292.313C196.317,-284.202 198.679,-274.336 200.848,-265.277"/>
<polygon fill="steelblue" stroke="steelblue" points="204.257,-266.069 203.182,-255.529 197.45,-264.439 204.257,-266.069"/>
</g>
<!-- Node_7&#45;&gt;Node_2 -->
<g id="edge9" class="edge"><title>Node_7&#45;&gt;Node_2</title>
<path fill="none" stroke="tan" d="M206.533,-219.313C206.194,-211.289 205.783,-201.547 205.403,-192.569"/>
<polygon fill="tan" stroke="tan" points="208.898,-192.372 204.979,-182.529 201.904,-192.668 208.898,-192.372"/>
</g>
<!-- Node_9 -->
<g id="node10" class="node"><title>Node_9</title>
<path fill="moccasin" stroke="moccasin" d="M46.7594,-73.5C46.7594,-73.5 117.759,-73.5 117.759,-73.5 123.759,-73.5 129.759,-79.5 129.759,-85.5 129.759,-85.5 129.759,-97.5 129.759,-97.5 129.759,-103.5 123.759,-109.5 117.759,-109.5 117.759,-109.5 46.7594,-109.5 46.7594,-109.5 40.7594,-109.5 34.7594,-103.5 34.7594,-97.5 34.7594,-97.5 34.7594,-85.5 34.7594,-85.5 34.7594,-79.5 40.7594,-73.5 46.7594,-73.5"/>
<text text-anchor="middle" x="82.2594" y="-89.3" font-family="Arial" font-size="9.00">_8: [&#45;Infinity, Infinity]</text>
</g>
<!-- Node_8&#45;&gt;Node_9 -->
<g id="edge5" class="edge"><title>Node_8&#45;&gt;Node_9</title>
<path fill="none" stroke="steelblue" d="M82.2594,-146.313C82.2594,-138.289 82.2594,-128.547 82.2594,-119.569"/>
<polygon fill="steelblue" stroke="steelblue" points="85.7595,-119.529 82.2594,-109.529 78.7595,-119.529 85.7595,-119.529"/>
</g>
<!-- Node_11 -->
<g id="node11" class="node"><title>Node_11</title>
<path fill="moccasin" stroke="moccasin" d="M281.759,-73.5C281.759,-73.5 356.759,-73.5 356.759,-73.5 362.759,-73.5 368.759,-79.5 368.759,-85.5 368.759,-85.5 368.759,-97.5 368.759,-97.5 368.759,-103.5 362.759,-109.5 356.759,-109.5 356.759,-109.5 281.759,-109.5 281.759,-109.5 275.759,-109.5 269.759,-103.5 269.759,-97.5 269.759,-97.5 269.759,-85.5 269.759,-85.5 269.759,-79.5 275.759,-73.5 281.759,-73.5"/>
<text text-anchor="middle" x="319.259" y="-89.3" font-family="Arial" font-size="9.00">k_3: [&#45;Infinity, Infinity]</text>
</g>
<!-- Node_11&#45;&gt;Node_4 -->
<g id="edge11" class="edge"><title>Node_11&#45;&gt;Node_4</title>
<path fill="none" stroke="tan" d="M291.235,-73.4937C275.72,-64.0785 256.237,-52.2554 239.46,-42.0748"/>
<polygon fill="tan" stroke="tan" points="240.825,-38.8093 230.461,-36.6136 237.194,-44.7937 240.825,-38.8093"/>
</g>
<!-- Node_10 -->
<g id="node12" class="node"><title>Node_10</title>
<path fill="moccasin" stroke="moccasin" d="M161.759,-365.5C161.759,-365.5 238.759,-365.5 238.759,-365.5 244.759,-365.5 250.759,-371.5 250.759,-377.5 250.759,-377.5 250.759,-389.5 250.759,-389.5 250.759,-395.5 244.759,-401.5 238.759,-401.5 238.759,-401.5 161.759,-401.5 161.759,-401.5 155.759,-401.5 149.759,-395.5 149.759,-389.5 149.759,-389.5 149.759,-377.5 149.759,-377.5 149.759,-371.5 155.759,-365.5 161.759,-365.5"/>
<text text-anchor="middle" x="200.259" y="-381.3" font-family="Arial" font-size="9.00">N_5: [&#45;Infinity, Infinity]</text>
</g>
</g>
</svg>
