<?xml version="1.0" encoding="UTF-8" standalone="no"?>
<!DOCTYPE svg PUBLIC "-//W3C//DTD SVG 1.1//EN"
 "http://www.w3.org/Graphics/SVG/1.1/DTD/svg11.dtd">
<!-- Generated by graphviz version 2.38.0 (20140413.2041)
 -->
<!-- Title: t3_foo_ConstraintGraph Pages: 1 -->
<svg width="279pt" height="431pt"
     viewBox="0.00 0.00 279.16 431.00" xmlns="http://www.w3.org/2000/svg">
<g id="graph0" class="graph" transform="scale(1 1) rotate(0) translate(4 427)">
<title>t3_foo_ConstraintGraph</title>
<polygon fill="white" stroke="none" points="-4,4 -4,-427 275.156,-427 275.156,4 -4,4"/>
<text text-anchor="middle" x="135.578" y="-409.4" font-family="Arial" font-size="12.00">t3_foo_ConstraintGraph</text>
<!-- Node_0 -->
<g id="node1" class="node"><title>Node_0</title>
<path fill="lightblue" stroke="lightblue" d="M40.656,-292.5C40.656,-292.5 93.656,-292.5 93.656,-292.5 99.656,-292.5 105.656,-298.5 105.656,-304.5 105.656,-304.5 105.656,-316.5 105.656,-316.5 105.656,-322.5 99.656,-328.5 93.656,-328.5 93.656,-328.5 40.656,-328.5 40.656,-328.5 34.656,-328.5 28.656,-322.5 28.656,-316.5 28.656,-316.5 28.656,-304.5 28.656,-304.5 28.656,-298.5 34.656,-292.5 40.656,-292.5"/>
<text text-anchor="middle" x="67.156" y="-308.3" font-family="Arial" font-size="9.00">if (k_1 &gt;= N_5)</text>
</g>
<!-- Node_1 -->
<g id="node2" class="node"><title>Node_1</title>
<path fill="moccasin" stroke="moccasin" d="M40.656,-219.5C40.656,-219.5 91.656,-219.5 91.656,-219.5 97.656,-219.5 103.656,-225.5 103.656,-231.5 103.656,-231.5 103.656,-243.5 103.656,-243.5 103.656,-249.5 97.656,-255.5 91.656,-255.5 91.656,-255.5 40.656,-255.5 40.656,-255.5 34.656,-255.5 28.656,-249.5 28.656,-243.5 28.656,-243.5 28.656,-231.5 28.656,-231.5 28.656,-225.5 34.656,-219.5 40.656,-219.5"/>
<text text-anchor="middle" x="66.156" y="-235.3" font-family="Arial" font-size="9.00">k_1_f: [&#45;inf, inf]</text>
</g>
<!-- Node_0&#45;&gt;Node_1 -->
<g id="edge1" class="edge"><title>Node_0&#45;&gt;Node_1</title>
<path fill="none" stroke="steelblue" d="M66.9139,-292.313C66.8009,-284.289 66.6637,-274.547 66.5373,-265.569"/>
<polygon fill="steelblue" stroke="steelblue" points="70.0364,-265.479 66.3959,-255.529 63.0371,-265.577 70.0364,-265.479"/>
</g>
<!-- Node_6 -->
<g id="node7" class="node"><title>Node_6</title>
<path fill="lightblue" stroke="lightblue" d="M48.656,-146.5C48.656,-146.5 83.656,-146.5 83.656,-146.5 89.656,-146.5 95.656,-152.5 95.656,-158.5 95.656,-158.5 95.656,-170.5 95.656,-170.5 95.656,-176.5 89.656,-182.5 83.656,-182.5 83.656,-182.5 48.656,-182.5 48.656,-182.5 42.656,-182.5 36.656,-176.5 36.656,-170.5 36.656,-170.5 36.656,-158.5 36.656,-158.5 36.656,-152.5 42.656,-146.5 48.656,-146.5"/>
<text text-anchor="middle" x="66.156" y="-162.3" font-family="Arial" font-size="9.00">_8 = k_1_f</text>
</g>
<!-- Node_1&#45;&gt;Node_6 -->
<g id="edge9" class="edge"><title>Node_1&#45;&gt;Node_6</title>
<path fill="none" stroke="tan" d="M66.156,-219.313C66.156,-211.289 66.156,-201.547 66.156,-192.569"/>
<polygon fill="tan" stroke="tan" points="69.6561,-192.529 66.156,-182.529 62.6561,-192.529 69.6561,-192.529"/>
</g>
<!-- Node_2 -->
<g id="node3" class="node"><title>Node_2</title>
<path fill="lightblue" stroke="lightblue" d="M90.156,-0.5C90.156,-0.5 212.156,-0.5 212.156,-0.5 218.156,-0.5 224.156,-6.5 224.156,-12.5 224.156,-12.5 224.156,-24.5 224.156,-24.5 224.156,-30.5 218.156,-36.5 212.156,-36.5 212.156,-36.5 90.156,-36.5 90.156,-36.5 84.156,-36.5 78.156,-30.5 78.156,-24.5 78.156,-24.5 78.156,-12.5 78.156,-12.5 78.156,-6.5 84.156,-0.5 90.156,-0.5"/>
<text text-anchor="middle" x="151.156" y="-16.3" font-family="Arial" font-size="9.00"># k_1 = PHI &lt;k_3(D)(2), k_7(3)&gt;</text>
</g>
<!-- Node_3 -->
<g id="node4" class="node"><title>Node_3</title>
<path fill="moccasin" stroke="moccasin" d="M45.156,-365.5C45.156,-365.5 89.156,-365.5 89.156,-365.5 95.156,-365.5 101.156,-371.5 101.156,-377.5 101.156,-377.5 101.156,-389.5 101.156,-389.5 101.156,-395.5 95.156,-401.5 89.156,-401.5 89.156,-401.5 45.156,-401.5 45.156,-401.5 39.156,-401.5 33.156,-395.5 33.156,-389.5 33.156,-389.5 33.156,-377.5 33.156,-377.5 33.156,-371.5 39.156,-365.5 45.156,-365.5"/>
<text text-anchor="middle" x="67.156" y="-381.3" font-family="Arial" font-size="9.00">k_1: [&#45;inf, inf]</text>
</g>
<!-- Node_2&#45;&gt;Node_3 -->
<g id="edge2" class="edge"><title>Node_2&#45;&gt;Node_3</title>
<path fill="none" stroke="steelblue" d="M81.0007,-36.599C60.552,-44.6439 39.7977,-56.2856 25.156,-73 -2.34016,-104.389 0.156011,-121.771 0.156011,-163.5 0.156011,-238.5 0.156011,-238.5 0.156011,-238.5 0.156011,-279.599 0.575721,-292.341 19.156,-329 24.4254,-339.397 32.2397,-349.329 40.0403,-357.752"/>
<polygon fill="steelblue" stroke="steelblue" points="37.6439,-360.307 47.1269,-365.032 42.66,-355.425 37.6439,-360.307"/>
</g>
<!-- Node_3&#45;&gt;Node_0 -->
<g id="edge10" class="edge"><title>Node_3&#45;&gt;Node_0</title>
<path fill="none" stroke="tan" d="M67.156,-365.313C67.156,-357.289 67.156,-347.547 67.156,-338.569"/>
<polygon fill="tan" stroke="tan" points="70.6561,-338.529 67.156,-328.529 63.6561,-338.529 70.6561,-338.529"/>
</g>
<!-- Node_8 -->
<g id="node9" class="node"><title>Node_8</title>
<path fill="lightblue" stroke="lightblue" d="M135.656,-292.5C135.656,-292.5 182.656,-292.5 182.656,-292.5 188.656,-292.5 194.656,-298.5 194.656,-304.5 194.656,-304.5 194.656,-316.5 194.656,-316.5 194.656,-322.5 188.656,-328.5 182.656,-328.5 182.656,-328.5 135.656,-328.5 135.656,-328.5 129.656,-328.5 123.656,-322.5 123.656,-316.5 123.656,-316.5 123.656,-304.5 123.656,-304.5 123.656,-298.5 129.656,-292.5 135.656,-292.5"/>
<text text-anchor="middle" x="159.156" y="-308.3" font-family="Arial" font-size="9.00">if (k_1 &lt; N_5)</text>
</g>
<!-- Node_3&#45;&gt;Node_8 -->
<g id="edge11" class="edge"><title>Node_3&#45;&gt;Node_8</title>
<path fill="none" stroke="tan" d="M89.4266,-365.313C101.292,-356.156 116.059,-344.76 128.944,-334.816"/>
<polygon fill="tan" stroke="tan" points="131.312,-337.409 137.09,-328.529 127.035,-331.868 131.312,-337.409"/>
</g>
<!-- Node_4 -->
<g id="node5" class="node"><title>Node_4</title>
<path fill="lightblue" stroke="lightblue" d="M128.656,-146.5C128.656,-146.5 183.656,-146.5 183.656,-146.5 189.656,-146.5 195.656,-152.5 195.656,-158.5 195.656,-158.5 195.656,-170.5 195.656,-170.5 195.656,-176.5 189.656,-182.5 183.656,-182.5 183.656,-182.5 128.656,-182.5 128.656,-182.5 122.656,-182.5 116.656,-176.5 116.656,-170.5 116.656,-170.5 116.656,-158.5 116.656,-158.5 116.656,-152.5 122.656,-146.5 128.656,-146.5"/>
<text text-anchor="middle" x="156.156" y="-162.3" font-family="Arial" font-size="9.00">k_7 = k_1_t + 1</text>
</g>
<!-- Node_5 -->
<g id="node6" class="node"><title>Node_5</title>
<path fill="moccasin" stroke="moccasin" d="M129.156,-73.5C129.156,-73.5 173.156,-73.5 173.156,-73.5 179.156,-73.5 185.156,-79.5 185.156,-85.5 185.156,-85.5 185.156,-97.5 185.156,-97.5 185.156,-103.5 179.156,-109.5 173.156,-109.5 173.156,-109.5 129.156,-109.5 129.156,-109.5 123.156,-109.5 117.156,-103.5 117.156,-97.5 117.156,-97.5 117.156,-85.5 117.156,-85.5 117.156,-79.5 123.156,-73.5 129.156,-73.5"/>
<text text-anchor="middle" x="151.156" y="-89.3" font-family="Arial" font-size="9.00">k_7: [&#45;inf, inf]</text>
</g>
<!-- Node_4&#45;&gt;Node_5 -->
<g id="edge3" class="edge"><title>Node_4&#45;&gt;Node_5</title>
<path fill="none" stroke="steelblue" d="M154.946,-146.313C154.381,-138.289 153.695,-128.547 153.062,-119.569"/>
<polygon fill="steelblue" stroke="steelblue" points="156.549,-119.258 152.355,-109.529 149.566,-119.75 156.549,-119.258"/>
</g>
<!-- Node_5&#45;&gt;Node_2 -->
<g id="edge8" class="edge"><title>Node_5&#45;&gt;Node_2</title>
<path fill="none" stroke="tan" d="M151.156,-73.3129C151.156,-65.2895 151.156,-55.5475 151.156,-46.5691"/>
<polygon fill="tan" stroke="tan" points="154.656,-46.5288 151.156,-36.5288 147.656,-46.5289 154.656,-46.5288"/>
</g>
<!-- Node_7 -->
<g id="node8" class="node"><title>Node_7</title>
<path fill="moccasin" stroke="moccasin" d="M46.656,-73.5C46.656,-73.5 85.656,-73.5 85.656,-73.5 91.656,-73.5 97.656,-79.5 97.656,-85.5 97.656,-85.5 97.656,-97.5 97.656,-97.5 97.656,-103.5 91.656,-109.5 85.656,-109.5 85.656,-109.5 46.656,-109.5 46.656,-109.5 40.656,-109.5 34.656,-103.5 34.656,-97.5 34.656,-97.5 34.656,-85.5 34.656,-85.5 34.656,-79.5 40.656,-73.5 46.656,-73.5"/>
<text text-anchor="middle" x="66.156" y="-89.3" font-family="Arial" font-size="9.00">_8: [&#45;inf, inf]</text>
</g>
<!-- Node_6&#45;&gt;Node_7 -->
<g id="edge4" class="edge"><title>Node_6&#45;&gt;Node_7</title>
<path fill="none" stroke="steelblue" d="M66.156,-146.313C66.156,-138.289 66.156,-128.547 66.156,-119.569"/>
<polygon fill="steelblue" stroke="steelblue" points="69.6561,-119.529 66.156,-109.529 62.6561,-119.529 69.6561,-119.529"/>
</g>
<!-- Node_9 -->
<g id="node10" class="node"><title>Node_9</title>
<path fill="moccasin" stroke="moccasin" d="M133.656,-219.5C133.656,-219.5 184.656,-219.5 184.656,-219.5 190.656,-219.5 196.656,-225.5 196.656,-231.5 196.656,-231.5 196.656,-243.5 196.656,-243.5 196.656,-249.5 190.656,-255.5 184.656,-255.5 184.656,-255.5 133.656,-255.5 133.656,-255.5 127.656,-255.5 121.656,-249.5 121.656,-243.5 121.656,-243.5 121.656,-231.5 121.656,-231.5 121.656,-225.5 127.656,-219.5 133.656,-219.5"/>
<text text-anchor="middle" x="159.156" y="-235.3" font-family="Arial" font-size="9.00">k_1_t: [&#45;inf, inf]</text>
</g>
<!-- Node_8&#45;&gt;Node_9 -->
<g id="edge5" class="edge"><title>Node_8&#45;&gt;Node_9</title>
<path fill="none" stroke="steelblue" d="M159.156,-292.313C159.156,-284.289 159.156,-274.547 159.156,-265.569"/>
<polygon fill="steelblue" stroke="steelblue" points="162.656,-265.529 159.156,-255.529 155.656,-265.529 162.656,-265.529"/>
</g>
<!-- Node_9&#45;&gt;Node_4 -->
<g id="edge7" class="edge"><title>Node_9&#45;&gt;Node_4</title>
<path fill="none" stroke="tan" d="M158.43,-219.313C158.091,-211.289 157.679,-201.547 157.3,-192.569"/>
<polygon fill="tan" stroke="tan" points="160.795,-192.372 156.876,-182.529 153.801,-192.668 160.795,-192.372"/>
</g>
<!-- Node_10 -->
<g id="node11" class="node"><title>Node_10</title>
<path fill="moccasin" stroke="moccasin" d="M215.156,-73.5C215.156,-73.5 259.156,-73.5 259.156,-73.5 265.156,-73.5 271.156,-79.5 271.156,-85.5 271.156,-85.5 271.156,-97.5 271.156,-97.5 271.156,-103.5 265.156,-109.5 259.156,-109.5 259.156,-109.5 215.156,-109.5 215.156,-109.5 209.156,-109.5 203.156,-103.5 203.156,-97.5 203.156,-97.5 203.156,-85.5 203.156,-85.5 203.156,-79.5 209.156,-73.5 215.156,-73.5"/>
<text text-anchor="middle" x="237.156" y="-89.3" font-family="Arial" font-size="9.00">k_3: [&#45;inf, inf]</text>
</g>
<!-- Node_10&#45;&gt;Node_2 -->
<g id="edge6" class="edge"><title>Node_10&#45;&gt;Node_2</title>
<path fill="none" stroke="tan" d="M216.338,-73.3129C205.352,-64.243 191.705,-52.9769 179.742,-43.1004"/>
<polygon fill="tan" stroke="tan" points="181.722,-40.1963 171.782,-36.5288 177.266,-45.5944 181.722,-40.1963"/>
</g>
</g>
</svg>
