<?xml version="1.0" encoding="UTF-8" standalone="no"?>
<!DOCTYPE svg PUBLIC "-//W3C//DTD SVG 1.1//EN"
 "http://www.w3.org/Graphics/SVG/1.1/DTD/svg11.dtd">
<!-- Generated by graphviz version 2.38.0 (20140413.2041)
 -->
<!-- Title: t4_foo_ConstraintGraph Pages: 1 -->
<svg width="258pt" height="723pt"
     viewBox="0.00 0.00 258.00 723.00" xmlns="http://www.w3.org/2000/svg">
<g id="graph0" class="graph" transform="scale(1 1) rotate(0) translate(4 719)">
<title>t4_foo_ConstraintGraph</title>
<polygon fill="white" stroke="none" points="-4,4 -4,-719 254,-719 254,4 -4,4"/>
<text text-anchor="middle" x="125" y="-701.4" font-family="Arial" font-size="12.00">t4_foo_ConstraintGraph</text>
<!-- Node_0 -->
<g id="node1" class="node"><title>Node_0</title>
<path fill="lightblue" stroke="lightblue" d="M150,-657.5C150,-657.5 209,-657.5 209,-657.5 215,-657.5 221,-663.5 221,-669.5 221,-669.5 221,-681.5 221,-681.5 221,-687.5 215,-693.5 209,-693.5 209,-693.5 150,-693.5 150,-693.5 144,-693.5 138,-687.5 138,-681.5 138,-681.5 138,-669.5 138,-669.5 138,-663.5 144,-657.5 150,-657.5"/>
<text text-anchor="middle" x="179.5" y="-673.3" font-family="Arial" font-size="9.00">if (k_1 &lt; argc_3)</text>
</g>
<!-- Node_1 -->
<g id="node2" class="node"><title>Node_1</title>
<path fill="moccasin" stroke="moccasin" d="M73,-584.5C73,-584.5 156,-584.5 156,-584.5 162,-584.5 168,-590.5 168,-596.5 168,-596.5 168,-608.5 168,-608.5 168,-614.5 162,-620.5 156,-620.5 156,-620.5 73,-620.5 73,-620.5 67,-620.5 61,-614.5 61,-608.5 61,-608.5 61,-596.5 61,-596.5 61,-590.5 67,-584.5 73,-584.5"/>
<text text-anchor="middle" x="114.5" y="-600.3" font-family="Arial" font-size="9.00">k_1_t: [&#45;Infinity, Infinity]</text>
</g>
<!-- Node_0&#45;&gt;Node_1 -->
<g id="edge1" class="edge"><title>Node_0&#45;&gt;Node_1</title>
<path fill="none" stroke="steelblue" d="M163.765,-657.313C155.701,-648.505 145.741,-637.625 136.892,-627.958"/>
<polygon fill="steelblue" stroke="steelblue" points="139.424,-625.541 130.09,-620.529 134.261,-630.268 139.424,-625.541"/>
</g>
<!-- Node_2 -->
<g id="node3" class="node"><title>Node_2</title>
<path fill="lightblue" stroke="lightblue" d="M38,-511.5C38,-511.5 93,-511.5 93,-511.5 99,-511.5 105,-517.5 105,-523.5 105,-523.5 105,-535.5 105,-535.5 105,-541.5 99,-547.5 93,-547.5 93,-547.5 38,-547.5 38,-547.5 32,-547.5 26,-541.5 26,-535.5 26,-535.5 26,-523.5 26,-523.5 26,-517.5 32,-511.5 38,-511.5"/>
<text text-anchor="middle" x="65.5" y="-527.3" font-family="Arial" font-size="9.00">k_4 = k_1_t + 1</text>
</g>
<!-- Node_1&#45;&gt;Node_2 -->
<g id="edge9" class="edge"><title>Node_1&#45;&gt;Node_2</title>
<path fill="none" stroke="tan" d="M102.638,-584.313C96.7401,-575.766 89.4958,-565.269 82.9764,-555.823"/>
<polygon fill="tan" stroke="tan" points="85.813,-553.771 77.2523,-547.529 80.0518,-557.747 85.813,-553.771"/>
</g>
<!-- Node_3 -->
<g id="node4" class="node"><title>Node_3</title>
<path fill="moccasin" stroke="moccasin" d="M12,-438.5C12,-438.5 87,-438.5 87,-438.5 93,-438.5 99,-444.5 99,-450.5 99,-450.5 99,-462.5 99,-462.5 99,-468.5 93,-474.5 87,-474.5 87,-474.5 12,-474.5 12,-474.5 6,-474.5 0,-468.5 0,-462.5 0,-462.5 0,-450.5 0,-450.5 0,-444.5 6,-438.5 12,-438.5"/>
<text text-anchor="middle" x="49.5" y="-454.3" font-family="Arial" font-size="9.00">k_4: [&#45;Infinity, Infinity]</text>
</g>
<!-- Node_2&#45;&gt;Node_3 -->
<g id="edge2" class="edge"><title>Node_2&#45;&gt;Node_3</title>
<path fill="none" stroke="steelblue" d="M61.6268,-511.313C59.8188,-503.289 57.6234,-493.547 55.6001,-484.569"/>
<polygon fill="steelblue" stroke="steelblue" points="58.9503,-483.515 53.3375,-474.529 52.1216,-485.054 58.9503,-483.515"/>
</g>
<!-- Node_8 -->
<g id="node9" class="node"><title>Node_8</title>
<path fill="lightblue" stroke="lightblue" d="M94.5,-365.5C94.5,-365.5 204.5,-365.5 204.5,-365.5 210.5,-365.5 216.5,-371.5 216.5,-377.5 216.5,-377.5 216.5,-389.5 216.5,-389.5 216.5,-395.5 210.5,-401.5 204.5,-401.5 204.5,-401.5 94.5,-401.5 94.5,-401.5 88.5,-401.5 82.5,-395.5 82.5,-389.5 82.5,-389.5 82.5,-377.5 82.5,-377.5 82.5,-371.5 88.5,-365.5 94.5,-365.5"/>
<text text-anchor="middle" x="149.5" y="-381.3" font-family="Arial" font-size="9.00"># k_1 = PHI &lt;k_2(2), k_4(3)&gt;</text>
</g>
<!-- Node_3&#45;&gt;Node_8 -->
<g id="edge11" class="edge"><title>Node_3&#45;&gt;Node_8</title>
<path fill="none" stroke="tan" d="M73.4525,-438.494C86.4678,-429.253 102.75,-417.692 116.906,-407.642"/>
<polygon fill="tan" stroke="tan" points="119.269,-410.257 125.396,-401.614 115.216,-404.549 119.269,-410.257"/>
</g>
<!-- Node_4 -->
<g id="node5" class="node"><title>Node_4</title>
<path fill="lightblue" stroke="lightblue" d="M151.5,-511.5C151.5,-511.5 181.5,-511.5 181.5,-511.5 187.5,-511.5 193.5,-517.5 193.5,-523.5 193.5,-523.5 193.5,-535.5 193.5,-535.5 193.5,-541.5 187.5,-547.5 181.5,-547.5 181.5,-547.5 151.5,-547.5 151.5,-547.5 145.5,-547.5 139.5,-541.5 139.5,-535.5 139.5,-535.5 139.5,-523.5 139.5,-523.5 139.5,-517.5 145.5,-511.5 151.5,-511.5"/>
<text text-anchor="middle" x="166.5" y="-527.3" font-family="Arial" font-size="9.00">k_2 = 0</text>
</g>
<!-- Node_5 -->
<g id="node6" class="node"><title>Node_5</title>
<path fill="moccasin" stroke="moccasin" d="M129,-438.5C129,-438.5 204,-438.5 204,-438.5 210,-438.5 216,-444.5 216,-450.5 216,-450.5 216,-462.5 216,-462.5 216,-468.5 210,-474.5 204,-474.5 204,-474.5 129,-474.5 129,-474.5 123,-474.5 117,-468.5 117,-462.5 117,-462.5 117,-450.5 117,-450.5 117,-444.5 123,-438.5 129,-438.5"/>
<text text-anchor="middle" x="166.5" y="-454.3" font-family="Arial" font-size="9.00">k_2: [&#45;Infinity, Infinity]</text>
</g>
<!-- Node_4&#45;&gt;Node_5 -->
<g id="edge3" class="edge"><title>Node_4&#45;&gt;Node_5</title>
<path fill="none" stroke="steelblue" d="M166.5,-511.313C166.5,-503.289 166.5,-493.547 166.5,-484.569"/>
<polygon fill="steelblue" stroke="steelblue" points="170,-484.529 166.5,-474.529 163,-484.529 170,-484.529"/>
</g>
<!-- Node_5&#45;&gt;Node_8 -->
<g id="edge12" class="edge"><title>Node_5&#45;&gt;Node_8</title>
<path fill="none" stroke="tan" d="M162.385,-438.313C160.443,-430.202 158.08,-420.336 155.911,-411.277"/>
<polygon fill="tan" stroke="tan" points="159.31,-410.439 153.577,-401.529 152.502,-412.069 159.31,-410.439"/>
</g>
<!-- Node_6 -->
<g id="node7" class="node"><title>Node_6</title>
<path fill="lightblue" stroke="lightblue" d="M179,-73.5C179,-73.5 214,-73.5 214,-73.5 220,-73.5 226,-79.5 226,-85.5 226,-85.5 226,-97.5 226,-97.5 226,-103.5 220,-109.5 214,-109.5 214,-109.5 179,-109.5 179,-109.5 173,-109.5 167,-103.5 167,-97.5 167,-97.5 167,-85.5 167,-85.5 167,-79.5 173,-73.5 179,-73.5"/>
<text text-anchor="middle" x="196.5" y="-89.3" font-family="Arial" font-size="9.00">_5 = k_1_f</text>
</g>
<!-- Node_7 -->
<g id="node8" class="node"><title>Node_7</title>
<path fill="moccasin" stroke="moccasin" d="M161,-0.5C161,-0.5 232,-0.5 232,-0.5 238,-0.5 244,-6.5 244,-12.5 244,-12.5 244,-24.5 244,-24.5 244,-30.5 238,-36.5 232,-36.5 232,-36.5 161,-36.5 161,-36.5 155,-36.5 149,-30.5 149,-24.5 149,-24.5 149,-12.5 149,-12.5 149,-6.5 155,-0.5 161,-0.5"/>
<text text-anchor="middle" x="196.5" y="-16.3" font-family="Arial" font-size="9.00">_5: [&#45;Infinity, Infinity]</text>
</g>
<!-- Node_6&#45;&gt;Node_7 -->
<g id="edge4" class="edge"><title>Node_6&#45;&gt;Node_7</title>
<path fill="none" stroke="steelblue" d="M196.5,-73.3129C196.5,-65.2895 196.5,-55.5475 196.5,-46.5691"/>
<polygon fill="steelblue" stroke="steelblue" points="200,-46.5288 196.5,-36.5288 193,-46.5289 200,-46.5288"/>
</g>
<!-- Node_9 -->
<g id="node10" class="node"><title>Node_9</title>
<path fill="moccasin" stroke="moccasin" d="M159,-292.5C159,-292.5 234,-292.5 234,-292.5 240,-292.5 246,-298.5 246,-304.5 246,-304.5 246,-316.5 246,-316.5 246,-322.5 240,-328.5 234,-328.5 234,-328.5 159,-328.5 159,-328.5 153,-328.5 147,-322.5 147,-316.5 147,-316.5 147,-304.5 147,-304.5 147,-298.5 153,-292.5 159,-292.5"/>
<text text-anchor="middle" x="196.5" y="-308.3" font-family="Arial" font-size="9.00">k_1: [&#45;Infinity, Infinity]</text>
</g>
<!-- Node_8&#45;&gt;Node_9 -->
<g id="edge5" class="edge"><title>Node_8&#45;&gt;Node_9</title>
<path fill="none" stroke="steelblue" d="M160.877,-365.313C166.477,-356.853 173.342,-346.484 179.545,-337.112"/>
<polygon fill="steelblue" stroke="steelblue" points="182.626,-338.799 185.227,-328.529 176.789,-334.935 182.626,-338.799"/>
</g>
<!-- Node_9&#45;&gt;Node_0 -->
<g id="edge7" class="edge"><title>Node_9&#45;&gt;Node_0</title>
<path fill="none" stroke="tan" d="M207.505,-328.729C213.59,-338.93 220.84,-352.305 225.5,-365 239.663,-403.581 244.5,-414.401 244.5,-455.5 244.5,-530.5 244.5,-530.5 244.5,-530.5 244.5,-575.298 218.043,-621.547 198.888,-649.161"/>
<polygon fill="tan" stroke="tan" points="195.934,-647.275 192.968,-657.447 201.629,-651.345 195.934,-647.275"/>
</g>
<!-- Node_10 -->
<g id="node11" class="node"><title>Node_10</title>
<path fill="lightblue" stroke="lightblue" d="M164.5,-219.5C164.5,-219.5 228.5,-219.5 228.5,-219.5 234.5,-219.5 240.5,-225.5 240.5,-231.5 240.5,-231.5 240.5,-243.5 240.5,-243.5 240.5,-249.5 234.5,-255.5 228.5,-255.5 228.5,-255.5 164.5,-255.5 164.5,-255.5 158.5,-255.5 152.5,-249.5 152.5,-243.5 152.5,-243.5 152.5,-231.5 152.5,-231.5 152.5,-225.5 158.5,-219.5 164.5,-219.5"/>
<text text-anchor="middle" x="196.5" y="-235.3" font-family="Arial" font-size="9.00">if (k_1 &gt;= argc_3)</text>
</g>
<!-- Node_9&#45;&gt;Node_10 -->
<g id="edge8" class="edge"><title>Node_9&#45;&gt;Node_10</title>
<path fill="none" stroke="tan" d="M196.5,-292.313C196.5,-284.289 196.5,-274.547 196.5,-265.569"/>
<polygon fill="tan" stroke="tan" points="200,-265.529 196.5,-255.529 193,-265.529 200,-265.529"/>
</g>
<!-- Node_11 -->
<g id="node12" class="node"><title>Node_11</title>
<path fill="moccasin" stroke="moccasin" d="M155,-146.5C155,-146.5 238,-146.5 238,-146.5 244,-146.5 250,-152.5 250,-158.5 250,-158.5 250,-170.5 250,-170.5 250,-176.5 244,-182.5 238,-182.5 238,-182.5 155,-182.5 155,-182.5 149,-182.5 143,-176.5 143,-170.5 143,-170.5 143,-158.5 143,-158.5 143,-152.5 149,-146.5 155,-146.5"/>
<text text-anchor="middle" x="196.5" y="-162.3" font-family="Arial" font-size="9.00">k_1_f: [&#45;Infinity, Infinity]</text>
</g>
<!-- Node_10&#45;&gt;Node_11 -->
<g id="edge6" class="edge"><title>Node_10&#45;&gt;Node_11</title>
<path fill="none" stroke="steelblue" d="M196.5,-219.313C196.5,-211.289 196.5,-201.547 196.5,-192.569"/>
<polygon fill="steelblue" stroke="steelblue" points="200,-192.529 196.5,-182.529 193,-192.529 200,-192.529"/>
</g>
<!-- Node_11&#45;&gt;Node_6 -->
<g id="edge10" class="edge"><title>Node_11&#45;&gt;Node_6</title>
<path fill="none" stroke="tan" d="M196.5,-146.313C196.5,-138.289 196.5,-128.547 196.5,-119.569"/>
<polygon fill="tan" stroke="tan" points="200,-119.529 196.5,-109.529 193,-119.529 200,-119.529"/>
</g>
</g>
</svg>
