<?xml version="1.0" encoding="UTF-8" standalone="no"?>
<!DOCTYPE svg PUBLIC "-//W3C//DTD SVG 1.1//EN"
 "http://www.w3.org/Graphics/SVG/1.1/DTD/svg11.dtd">
<!-- Generated by graphviz version 2.38.0 (20140413.2041)
 -->
<!-- Title: t4_foo_ConstraintGraph Pages: 1 -->
<svg width="258pt" height="577pt"
     viewBox="0.00 0.00 258.00 577.00" xmlns="http://www.w3.org/2000/svg">
<g id="graph0" class="graph" transform="scale(1 1) rotate(0) translate(4 573)">
<title>t4_foo_ConstraintGraph</title>
<polygon fill="white" stroke="none" points="-4,4 -4,-573 254,-573 254,4 -4,4"/>
<text text-anchor="middle" x="125" y="-555.4" font-family="Arial" font-size="12.00">t4_foo_ConstraintGraph</text>
<!-- Node_0 -->
<g id="node1" class="node"><title>Node_0</title>
<path fill="lightblue" stroke="lightblue" d="M128,-365.5C128,-365.5 238,-365.5 238,-365.5 244,-365.5 250,-371.5 250,-377.5 250,-377.5 250,-389.5 250,-389.5 250,-395.5 244,-401.5 238,-401.5 238,-401.5 128,-401.5 128,-401.5 122,-401.5 116,-395.5 116,-389.5 116,-389.5 116,-377.5 116,-377.5 116,-371.5 122,-365.5 128,-365.5"/>
<text text-anchor="middle" x="183" y="-381.3" font-family="Arial" font-size="9.00"># k_1 = PHI &lt;k_2(2), k_4(3)&gt;</text>
</g>
<!-- Node_1 -->
<g id="node2" class="node"><title>Node_1</title>
<path fill="moccasin" stroke="moccasin" d="M126,-292.5C126,-292.5 170,-292.5 170,-292.5 176,-292.5 182,-298.5 182,-304.5 182,-304.5 182,-316.5 182,-316.5 182,-322.5 176,-328.5 170,-328.5 170,-328.5 126,-328.5 126,-328.5 120,-328.5 114,-322.5 114,-316.5 114,-316.5 114,-304.5 114,-304.5 114,-298.5 120,-292.5 126,-292.5"/>
<text text-anchor="middle" x="148" y="-308.3" font-family="Arial" font-size="9.00">k_1: [&#45;inf, inf]</text>
</g>
<!-- Node_0&#45;&gt;Node_1 -->
<g id="edge1" class="edge"><title>Node_0&#45;&gt;Node_1</title>
<path fill="none" stroke="steelblue" d="M174.527,-365.313C170.443,-357.028 165.456,-346.91 160.912,-337.693"/>
<polygon fill="steelblue" stroke="steelblue" points="163.955,-335.951 156.395,-328.529 157.677,-339.046 163.955,-335.951"/>
</g>
<!-- Node_2 -->
<g id="node3" class="node"><title>Node_2</title>
<path fill="lightblue" stroke="lightblue" d="M12,-219.5C12,-219.5 76,-219.5 76,-219.5 82,-219.5 88,-225.5 88,-231.5 88,-231.5 88,-243.5 88,-243.5 88,-249.5 82,-255.5 76,-255.5 76,-255.5 12,-255.5 12,-255.5 6,-255.5 0,-249.5 0,-243.5 0,-243.5 0,-231.5 0,-231.5 0,-225.5 6,-219.5 12,-219.5"/>
<text text-anchor="middle" x="44" y="-235.3" font-family="Arial" font-size="9.00">if (k_1 &gt;= argc_3)</text>
</g>
<!-- Node_1&#45;&gt;Node_2 -->
<g id="edge11" class="edge"><title>Node_1&#45;&gt;Node_2</title>
<path fill="none" stroke="tan" d="M123.089,-292.494C109.426,-283.166 92.3002,-271.474 77.4821,-261.358"/>
<polygon fill="tan" stroke="tan" points="79.3001,-258.361 69.0678,-255.614 75.3533,-264.143 79.3001,-258.361"/>
</g>
<!-- Node_10 -->
<g id="node11" class="node"><title>Node_10</title>
<path fill="lightblue" stroke="lightblue" d="M118.5,-219.5C118.5,-219.5 177.5,-219.5 177.5,-219.5 183.5,-219.5 189.5,-225.5 189.5,-231.5 189.5,-231.5 189.5,-243.5 189.5,-243.5 189.5,-249.5 183.5,-255.5 177.5,-255.5 177.5,-255.5 118.5,-255.5 118.5,-255.5 112.5,-255.5 106.5,-249.5 106.5,-243.5 106.5,-243.5 106.5,-231.5 106.5,-231.5 106.5,-225.5 112.5,-219.5 118.5,-219.5"/>
<text text-anchor="middle" x="148" y="-235.3" font-family="Arial" font-size="9.00">if (k_1 &lt; argc_3)</text>
</g>
<!-- Node_1&#45;&gt;Node_10 -->
<g id="edge12" class="edge"><title>Node_1&#45;&gt;Node_10</title>
<path fill="none" stroke="tan" d="M148,-292.313C148,-284.289 148,-274.547 148,-265.569"/>
<polygon fill="tan" stroke="tan" points="151.5,-265.529 148,-255.529 144.5,-265.529 151.5,-265.529"/>
</g>
<!-- Node_3 -->
<g id="node4" class="node"><title>Node_3</title>
<path fill="moccasin" stroke="moccasin" d="M18.5,-146.5C18.5,-146.5 69.5,-146.5 69.5,-146.5 75.5,-146.5 81.5,-152.5 81.5,-158.5 81.5,-158.5 81.5,-170.5 81.5,-170.5 81.5,-176.5 75.5,-182.5 69.5,-182.5 69.5,-182.5 18.5,-182.5 18.5,-182.5 12.5,-182.5 6.5,-176.5 6.5,-170.5 6.5,-170.5 6.5,-158.5 6.5,-158.5 6.5,-152.5 12.5,-146.5 18.5,-146.5"/>
<text text-anchor="middle" x="44" y="-162.3" font-family="Arial" font-size="9.00">k_1_f: [&#45;inf, inf]</text>
</g>
<!-- Node_2&#45;&gt;Node_3 -->
<g id="edge2" class="edge"><title>Node_2&#45;&gt;Node_3</title>
<path fill="none" stroke="steelblue" d="M44,-219.313C44,-211.289 44,-201.547 44,-192.569"/>
<polygon fill="steelblue" stroke="steelblue" points="47.5001,-192.529 44,-182.529 40.5001,-192.529 47.5001,-192.529"/>
</g>
<!-- Node_8 -->
<g id="node9" class="node"><title>Node_8</title>
<path fill="lightblue" stroke="lightblue" d="M26.5,-73.5C26.5,-73.5 61.5,-73.5 61.5,-73.5 67.5,-73.5 73.5,-79.5 73.5,-85.5 73.5,-85.5 73.5,-97.5 73.5,-97.5 73.5,-103.5 67.5,-109.5 61.5,-109.5 61.5,-109.5 26.5,-109.5 26.5,-109.5 20.5,-109.5 14.5,-103.5 14.5,-97.5 14.5,-97.5 14.5,-85.5 14.5,-85.5 14.5,-79.5 20.5,-73.5 26.5,-73.5"/>
<text text-anchor="middle" x="44" y="-89.3" font-family="Arial" font-size="9.00">_5 = k_1_f</text>
</g>
<!-- Node_3&#45;&gt;Node_8 -->
<g id="edge10" class="edge"><title>Node_3&#45;&gt;Node_8</title>
<path fill="none" stroke="tan" d="M44,-146.313C44,-138.289 44,-128.547 44,-119.569"/>
<polygon fill="tan" stroke="tan" points="47.5001,-119.529 44,-109.529 40.5001,-119.529 47.5001,-119.529"/>
</g>
<!-- Node_4 -->
<g id="node5" class="node"><title>Node_4</title>
<path fill="lightblue" stroke="lightblue" d="M168,-511.5C168,-511.5 198,-511.5 198,-511.5 204,-511.5 210,-517.5 210,-523.5 210,-523.5 210,-535.5 210,-535.5 210,-541.5 204,-547.5 198,-547.5 198,-547.5 168,-547.5 168,-547.5 162,-547.5 156,-541.5 156,-535.5 156,-535.5 156,-523.5 156,-523.5 156,-517.5 162,-511.5 168,-511.5"/>
<text text-anchor="middle" x="183" y="-527.3" font-family="Arial" font-size="9.00">k_2 = 0</text>
</g>
<!-- Node_5 -->
<g id="node6" class="node"><title>Node_5</title>
<path fill="moccasin" stroke="moccasin" d="M161,-438.5C161,-438.5 205,-438.5 205,-438.5 211,-438.5 217,-444.5 217,-450.5 217,-450.5 217,-462.5 217,-462.5 217,-468.5 211,-474.5 205,-474.5 205,-474.5 161,-474.5 161,-474.5 155,-474.5 149,-468.5 149,-462.5 149,-462.5 149,-450.5 149,-450.5 149,-444.5 155,-438.5 161,-438.5"/>
<text text-anchor="middle" x="183" y="-454.3" font-family="Arial" font-size="9.00">k_2: [&#45;inf, inf]</text>
</g>
<!-- Node_4&#45;&gt;Node_5 -->
<g id="edge3" class="edge"><title>Node_4&#45;&gt;Node_5</title>
<path fill="none" stroke="steelblue" d="M183,-511.313C183,-503.289 183,-493.547 183,-484.569"/>
<polygon fill="steelblue" stroke="steelblue" points="186.5,-484.529 183,-474.529 179.5,-484.529 186.5,-484.529"/>
</g>
<!-- Node_5&#45;&gt;Node_0 -->
<g id="edge7" class="edge"><title>Node_5&#45;&gt;Node_0</title>
<path fill="none" stroke="tan" d="M183,-438.313C183,-430.289 183,-420.547 183,-411.569"/>
<polygon fill="tan" stroke="tan" points="186.5,-411.529 183,-401.529 179.5,-411.529 186.5,-411.529"/>
</g>
<!-- Node_6 -->
<g id="node7" class="node"><title>Node_6</title>
<path fill="lightblue" stroke="lightblue" d="M121.5,-73.5C121.5,-73.5 176.5,-73.5 176.5,-73.5 182.5,-73.5 188.5,-79.5 188.5,-85.5 188.5,-85.5 188.5,-97.5 188.5,-97.5 188.5,-103.5 182.5,-109.5 176.5,-109.5 176.5,-109.5 121.5,-109.5 121.5,-109.5 115.5,-109.5 109.5,-103.5 109.5,-97.5 109.5,-97.5 109.5,-85.5 109.5,-85.5 109.5,-79.5 115.5,-73.5 121.5,-73.5"/>
<text text-anchor="middle" x="149" y="-89.3" font-family="Arial" font-size="9.00">k_4 = k_1_t + 1</text>
</g>
<!-- Node_7 -->
<g id="node8" class="node"><title>Node_7</title>
<path fill="moccasin" stroke="moccasin" d="M161,-0.5C161,-0.5 205,-0.5 205,-0.5 211,-0.5 217,-6.5 217,-12.5 217,-12.5 217,-24.5 217,-24.5 217,-30.5 211,-36.5 205,-36.5 205,-36.5 161,-36.5 161,-36.5 155,-36.5 149,-30.5 149,-24.5 149,-24.5 149,-12.5 149,-12.5 149,-6.5 155,-0.5 161,-0.5"/>
<text text-anchor="middle" x="183" y="-16.3" font-family="Arial" font-size="9.00">k_4: [&#45;inf, inf]</text>
</g>
<!-- Node_6&#45;&gt;Node_7 -->
<g id="edge4" class="edge"><title>Node_6&#45;&gt;Node_7</title>
<path fill="none" stroke="steelblue" d="M157.23,-73.3129C161.198,-65.0279 166.043,-54.9103 170.457,-45.6933"/>
<polygon fill="steelblue" stroke="steelblue" points="173.683,-47.0597 174.845,-36.5288 167.37,-44.0364 173.683,-47.0597"/>
</g>
<!-- Node_7&#45;&gt;Node_0 -->
<g id="edge9" class="edge"><title>Node_7&#45;&gt;Node_0</title>
<path fill="none" stroke="tan" d="M190.083,-36.9029C200.31,-63.6472 218,-116.675 218,-163.5 218,-238.5 218,-238.5 218,-238.5 218,-280.203 203.968,-326.827 193.673,-355.421"/>
<polygon fill="tan" stroke="tan" points="190.28,-354.504 190.083,-365.097 196.843,-356.939 190.28,-354.504"/>
</g>
<!-- Node_9 -->
<g id="node10" class="node"><title>Node_9</title>
<path fill="moccasin" stroke="moccasin" d="M24.5,-0.5C24.5,-0.5 63.5,-0.5 63.5,-0.5 69.5,-0.5 75.5,-6.5 75.5,-12.5 75.5,-12.5 75.5,-24.5 75.5,-24.5 75.5,-30.5 69.5,-36.5 63.5,-36.5 63.5,-36.5 24.5,-36.5 24.5,-36.5 18.5,-36.5 12.5,-30.5 12.5,-24.5 12.5,-24.5 12.5,-12.5 12.5,-12.5 12.5,-6.5 18.5,-0.5 24.5,-0.5"/>
<text text-anchor="middle" x="44" y="-16.3" font-family="Arial" font-size="9.00">_5: [&#45;inf, inf]</text>
</g>
<!-- Node_8&#45;&gt;Node_9 -->
<g id="edge5" class="edge"><title>Node_8&#45;&gt;Node_9</title>
<path fill="none" stroke="steelblue" d="M44,-73.3129C44,-65.2895 44,-55.5475 44,-46.5691"/>
<polygon fill="steelblue" stroke="steelblue" points="47.5001,-46.5288 44,-36.5288 40.5001,-46.5289 47.5001,-46.5288"/>
</g>
<!-- Node_11 -->
<g id="node12" class="node"><title>Node_11</title>
<path fill="moccasin" stroke="moccasin" d="M123.5,-146.5C123.5,-146.5 174.5,-146.5 174.5,-146.5 180.5,-146.5 186.5,-152.5 186.5,-158.5 186.5,-158.5 186.5,-170.5 186.5,-170.5 186.5,-176.5 180.5,-182.5 174.5,-182.5 174.5,-182.5 123.5,-182.5 123.5,-182.5 117.5,-182.5 111.5,-176.5 111.5,-170.5 111.5,-170.5 111.5,-158.5 111.5,-158.5 111.5,-152.5 117.5,-146.5 123.5,-146.5"/>
<text text-anchor="middle" x="149" y="-162.3" font-family="Arial" font-size="9.00">k_1_t: [&#45;inf, inf]</text>
</g>
<!-- Node_10&#45;&gt;Node_11 -->
<g id="edge6" class="edge"><title>Node_10&#45;&gt;Node_11</title>
<path fill="none" stroke="steelblue" d="M148.242,-219.313C148.355,-211.289 148.492,-201.547 148.619,-192.569"/>
<polygon fill="steelblue" stroke="steelblue" points="152.119,-192.577 148.76,-182.529 145.12,-192.479 152.119,-192.577"/>
</g>
<!-- Node_11&#45;&gt;Node_6 -->
<g id="edge8" class="edge"><title>Node_11&#45;&gt;Node_6</title>
<path fill="none" stroke="tan" d="M149,-146.313C149,-138.289 149,-128.547 149,-119.569"/>
<polygon fill="tan" stroke="tan" points="152.5,-119.529 149,-109.529 145.5,-119.529 152.5,-119.529"/>
</g>
</g>
</svg>
