<?xml version="1.0" encoding="UTF-8" standalone="no"?>
<!DOCTYPE svg PUBLIC "-//W3C//DTD SVG 1.1//EN"
 "http://www.w3.org/Graphics/SVG/1.1/DTD/svg11.dtd">
<!-- Generated by graphviz version 2.38.0 (20140413.2041)
 -->
<!-- Title: t4_foo_final_ConstraintGraph Pages: 1 -->
<svg width="269pt" height="577pt"
     viewBox="0.00 0.00 268.50 577.00" xmlns="http://www.w3.org/2000/svg">
<g id="graph0" class="graph" transform="scale(1 1) rotate(0) translate(4 573)">
<title>t4_foo_final_ConstraintGraph</title>
<polygon fill="white" stroke="none" points="-4,4 -4,-573 264.5,-573 264.5,4 -4,4"/>
<text text-anchor="middle" x="130.25" y="-555.4" font-family="Arial" font-size="12.00">t4_foo_final_ConstraintGraph</text>
<!-- Node_0 -->
<g id="node1" class="node"><title>Node_0</title>
<path fill="lightblue" stroke="lightblue" d="M52,-511.5C52,-511.5 82,-511.5 82,-511.5 88,-511.5 94,-517.5 94,-523.5 94,-523.5 94,-535.5 94,-535.5 94,-541.5 88,-547.5 82,-547.5 82,-547.5 52,-547.5 52,-547.5 46,-547.5 40,-541.5 40,-535.5 40,-535.5 40,-523.5 40,-523.5 40,-517.5 46,-511.5 52,-511.5"/>
<text text-anchor="middle" x="67" y="-527.3" font-family="Arial" font-size="9.00">k_2 = 0</text>
</g>
<!-- Node_1 -->
<g id="node2" class="node"><title>Node_1</title>
<path fill="moccasin" stroke="moccasin" d="M43.5,-438.5C43.5,-438.5 90.5,-438.5 90.5,-438.5 96.5,-438.5 102.5,-444.5 102.5,-450.5 102.5,-450.5 102.5,-462.5 102.5,-462.5 102.5,-468.5 96.5,-474.5 90.5,-474.5 90.5,-474.5 43.5,-474.5 43.5,-474.5 37.5,-474.5 31.5,-468.5 31.5,-462.5 31.5,-462.5 31.5,-450.5 31.5,-450.5 31.5,-444.5 37.5,-438.5 43.5,-438.5"/>
<text text-anchor="middle" x="67" y="-454.3" font-family="Arial" font-size="9.00">k_2: [0.0, 0.0]</text>
</g>
<!-- Node_0&#45;&gt;Node_1 -->
<g id="edge1" class="edge"><title>Node_0&#45;&gt;Node_1</title>
<path fill="none" stroke="steelblue" d="M67,-511.313C67,-503.289 67,-493.547 67,-484.569"/>
<polygon fill="steelblue" stroke="steelblue" points="70.5001,-484.529 67,-474.529 63.5001,-484.529 70.5001,-484.529"/>
</g>
<!-- Node_8 -->
<g id="node9" class="node"><title>Node_8</title>
<path fill="lightblue" stroke="lightblue" d="M12,-365.5C12,-365.5 122,-365.5 122,-365.5 128,-365.5 134,-371.5 134,-377.5 134,-377.5 134,-389.5 134,-389.5 134,-395.5 128,-401.5 122,-401.5 122,-401.5 12,-401.5 12,-401.5 6,-401.5 0,-395.5 0,-389.5 0,-389.5 0,-377.5 0,-377.5 0,-371.5 6,-365.5 12,-365.5"/>
<text text-anchor="middle" x="67" y="-381.3" font-family="Arial" font-size="9.00"># k_1 = PHI &lt;k_2(2), k_4(3)&gt;</text>
</g>
<!-- Node_1&#45;&gt;Node_8 -->
<g id="edge12" class="edge"><title>Node_1&#45;&gt;Node_8</title>
<path fill="none" stroke="tan" d="M67,-438.313C67,-430.289 67,-420.547 67,-411.569"/>
<polygon fill="tan" stroke="tan" points="70.5001,-411.529 67,-401.529 63.5001,-411.529 70.5001,-411.529"/>
</g>
<!-- Node_2 -->
<g id="node3" class="node"><title>Node_2</title>
<path fill="lightblue" stroke="lightblue" d="M73.5,-73.5C73.5,-73.5 128.5,-73.5 128.5,-73.5 134.5,-73.5 140.5,-79.5 140.5,-85.5 140.5,-85.5 140.5,-97.5 140.5,-97.5 140.5,-103.5 134.5,-109.5 128.5,-109.5 128.5,-109.5 73.5,-109.5 73.5,-109.5 67.5,-109.5 61.5,-103.5 61.5,-97.5 61.5,-97.5 61.5,-85.5 61.5,-85.5 61.5,-79.5 67.5,-73.5 73.5,-73.5"/>
<text text-anchor="middle" x="101" y="-89.3" font-family="Arial" font-size="9.00">k_4 = k_1_t + 1</text>
</g>
<!-- Node_3 -->
<g id="node4" class="node"><title>Node_3</title>
<path fill="moccasin" stroke="moccasin" d="M37.5,-0.5C37.5,-0.5 96.5,-0.5 96.5,-0.5 102.5,-0.5 108.5,-6.5 108.5,-12.5 108.5,-12.5 108.5,-24.5 108.5,-24.5 108.5,-30.5 102.5,-36.5 96.5,-36.5 96.5,-36.5 37.5,-36.5 37.5,-36.5 31.5,-36.5 25.5,-30.5 25.5,-24.5 25.5,-24.5 25.5,-12.5 25.5,-12.5 25.5,-6.5 31.5,-0.5 37.5,-0.5"/>
<text text-anchor="middle" x="67" y="-16.3" font-family="Arial" font-size="9.00">k_4: [1.0, Infinity]</text>
</g>
<!-- Node_2&#45;&gt;Node_3 -->
<g id="edge2" class="edge"><title>Node_2&#45;&gt;Node_3</title>
<path fill="none" stroke="steelblue" d="M92.7695,-73.3129C88.8021,-65.0279 83.9571,-54.9103 79.5433,-45.6933"/>
<polygon fill="steelblue" stroke="steelblue" points="82.6305,-44.0364 75.1547,-36.5288 76.317,-47.0597 82.6305,-44.0364"/>
</g>
<!-- Node_3&#45;&gt;Node_8 -->
<g id="edge9" class="edge"><title>Node_3&#45;&gt;Node_8</title>
<path fill="none" stroke="tan" d="M59.5125,-36.8645C48.701,-63.5586 30,-116.522 30,-163.5 30,-238.5 30,-238.5 30,-238.5 30,-280.34 44.8339,-326.927 55.7166,-355.476"/>
<polygon fill="tan" stroke="tan" points="52.5975,-357.108 59.5125,-365.135 59.1126,-354.548 52.5975,-357.108"/>
</g>
<!-- Node_4 -->
<g id="node5" class="node"><title>Node_4</title>
<path fill="lightblue" stroke="lightblue" d="M195.5,-73.5C195.5,-73.5 230.5,-73.5 230.5,-73.5 236.5,-73.5 242.5,-79.5 242.5,-85.5 242.5,-85.5 242.5,-97.5 242.5,-97.5 242.5,-103.5 236.5,-109.5 230.5,-109.5 230.5,-109.5 195.5,-109.5 195.5,-109.5 189.5,-109.5 183.5,-103.5 183.5,-97.5 183.5,-97.5 183.5,-85.5 183.5,-85.5 183.5,-79.5 189.5,-73.5 195.5,-73.5"/>
<text text-anchor="middle" x="213" y="-89.3" font-family="Arial" font-size="9.00">_5 = k_1_f</text>
</g>
<!-- Node_5 -->
<g id="node6" class="node"><title>Node_5</title>
<path fill="moccasin" stroke="moccasin" d="M177.5,-0.5C177.5,-0.5 248.5,-0.5 248.5,-0.5 254.5,-0.5 260.5,-6.5 260.5,-12.5 260.5,-12.5 260.5,-24.5 260.5,-24.5 260.5,-30.5 254.5,-36.5 248.5,-36.5 248.5,-36.5 177.5,-36.5 177.5,-36.5 171.5,-36.5 165.5,-30.5 165.5,-24.5 165.5,-24.5 165.5,-12.5 165.5,-12.5 165.5,-6.5 171.5,-0.5 177.5,-0.5"/>
<text text-anchor="middle" x="213" y="-16.3" font-family="Arial" font-size="9.00">_5: [&#45;Infinity, Infinity]</text>
</g>
<!-- Node_4&#45;&gt;Node_5 -->
<g id="edge3" class="edge"><title>Node_4&#45;&gt;Node_5</title>
<path fill="none" stroke="steelblue" d="M213,-73.3129C213,-65.2895 213,-55.5475 213,-46.5691"/>
<polygon fill="steelblue" stroke="steelblue" points="216.5,-46.5288 213,-36.5288 209.5,-46.5289 216.5,-46.5288"/>
</g>
<!-- Node_6 -->
<g id="node7" class="node"><title>Node_6</title>
<path fill="lightblue" stroke="lightblue" d="M178,-219.5C178,-219.5 242,-219.5 242,-219.5 248,-219.5 254,-225.5 254,-231.5 254,-231.5 254,-243.5 254,-243.5 254,-249.5 248,-255.5 242,-255.5 242,-255.5 178,-255.5 178,-255.5 172,-255.5 166,-249.5 166,-243.5 166,-243.5 166,-231.5 166,-231.5 166,-225.5 172,-219.5 178,-219.5"/>
<text text-anchor="middle" x="210" y="-235.3" font-family="Arial" font-size="9.00">if (k_1 &gt;= argc_3)</text>
</g>
<!-- Node_7 -->
<g id="node8" class="node"><title>Node_7</title>
<path fill="moccasin" stroke="moccasin" d="M179.5,-146.5C179.5,-146.5 246.5,-146.5 246.5,-146.5 252.5,-146.5 258.5,-152.5 258.5,-158.5 258.5,-158.5 258.5,-170.5 258.5,-170.5 258.5,-176.5 252.5,-182.5 246.5,-182.5 246.5,-182.5 179.5,-182.5 179.5,-182.5 173.5,-182.5 167.5,-176.5 167.5,-170.5 167.5,-170.5 167.5,-158.5 167.5,-158.5 167.5,-152.5 173.5,-146.5 179.5,-146.5"/>
<text text-anchor="middle" x="213" y="-162.3" font-family="Arial" font-size="9.00">k_1_f: [0.0, Infinity]</text>
</g>
<!-- Node_6&#45;&gt;Node_7 -->
<g id="edge4" class="edge"><title>Node_6&#45;&gt;Node_7</title>
<path fill="none" stroke="steelblue" d="M210.726,-219.313C211.065,-211.289 211.477,-201.547 211.856,-192.569"/>
<polygon fill="steelblue" stroke="steelblue" points="215.355,-192.668 212.28,-182.529 208.361,-192.372 215.355,-192.668"/>
</g>
<!-- Node_7&#45;&gt;Node_4 -->
<g id="edge10" class="edge"><title>Node_7&#45;&gt;Node_4</title>
<path fill="none" stroke="tan" d="M213,-146.313C213,-138.289 213,-128.547 213,-119.569"/>
<polygon fill="tan" stroke="tan" points="216.5,-119.529 213,-109.529 209.5,-119.529 216.5,-119.529"/>
</g>
<!-- Node_9 -->
<g id="node10" class="node"><title>Node_9</title>
<path fill="moccasin" stroke="moccasin" d="M74.5,-292.5C74.5,-292.5 133.5,-292.5 133.5,-292.5 139.5,-292.5 145.5,-298.5 145.5,-304.5 145.5,-304.5 145.5,-316.5 145.5,-316.5 145.5,-322.5 139.5,-328.5 133.5,-328.5 133.5,-328.5 74.5,-328.5 74.5,-328.5 68.5,-328.5 62.5,-322.5 62.5,-316.5 62.5,-316.5 62.5,-304.5 62.5,-304.5 62.5,-298.5 68.5,-292.5 74.5,-292.5"/>
<text text-anchor="middle" x="104" y="-308.3" font-family="Arial" font-size="9.00">k_1: [0.0, Infinity]</text>
</g>
<!-- Node_8&#45;&gt;Node_9 -->
<g id="edge5" class="edge"><title>Node_8&#45;&gt;Node_9</title>
<path fill="none" stroke="steelblue" d="M75.9567,-365.313C80.3197,-356.941 85.6578,-346.697 90.5015,-337.403"/>
<polygon fill="steelblue" stroke="steelblue" points="93.6082,-339.014 95.1258,-328.529 87.4005,-335.779 93.6082,-339.014"/>
</g>
<!-- Node_9&#45;&gt;Node_6 -->
<g id="edge7" class="edge"><title>Node_9&#45;&gt;Node_6</title>
<path fill="none" stroke="tan" d="M129.39,-292.494C143.316,-283.166 160.771,-271.474 175.874,-261.358"/>
<polygon fill="tan" stroke="tan" points="178.09,-264.087 184.45,-255.614 174.194,-258.271 178.09,-264.087"/>
</g>
<!-- Node_10 -->
<g id="node11" class="node"><title>Node_10</title>
<path fill="lightblue" stroke="lightblue" d="M74.5,-219.5C74.5,-219.5 133.5,-219.5 133.5,-219.5 139.5,-219.5 145.5,-225.5 145.5,-231.5 145.5,-231.5 145.5,-243.5 145.5,-243.5 145.5,-249.5 139.5,-255.5 133.5,-255.5 133.5,-255.5 74.5,-255.5 74.5,-255.5 68.5,-255.5 62.5,-249.5 62.5,-243.5 62.5,-243.5 62.5,-231.5 62.5,-231.5 62.5,-225.5 68.5,-219.5 74.5,-219.5"/>
<text text-anchor="middle" x="104" y="-235.3" font-family="Arial" font-size="9.00">if (k_1 &lt; argc_3)</text>
</g>
<!-- Node_9&#45;&gt;Node_10 -->
<g id="edge8" class="edge"><title>Node_9&#45;&gt;Node_10</title>
<path fill="none" stroke="tan" d="M104,-292.313C104,-284.289 104,-274.547 104,-265.569"/>
<polygon fill="tan" stroke="tan" points="107.5,-265.529 104,-255.529 100.5,-265.529 107.5,-265.529"/>
</g>
<!-- Node_11 -->
<g id="node12" class="node"><title>Node_11</title>
<path fill="moccasin" stroke="moccasin" d="M70.5,-146.5C70.5,-146.5 137.5,-146.5 137.5,-146.5 143.5,-146.5 149.5,-152.5 149.5,-158.5 149.5,-158.5 149.5,-170.5 149.5,-170.5 149.5,-176.5 143.5,-182.5 137.5,-182.5 137.5,-182.5 70.5,-182.5 70.5,-182.5 64.5,-182.5 58.5,-176.5 58.5,-170.5 58.5,-170.5 58.5,-158.5 58.5,-158.5 58.5,-152.5 64.5,-146.5 70.5,-146.5"/>
<text text-anchor="middle" x="104" y="-162.3" font-family="Arial" font-size="9.00">k_1_t: [0.0, Infinity]</text>
</g>
<!-- Node_10&#45;&gt;Node_11 -->
<g id="edge6" class="edge"><title>Node_10&#45;&gt;Node_11</title>
<path fill="none" stroke="steelblue" d="M104,-219.313C104,-211.289 104,-201.547 104,-192.569"/>
<polygon fill="steelblue" stroke="steelblue" points="107.5,-192.529 104,-182.529 100.5,-192.529 107.5,-192.529"/>
</g>
<!-- Node_11&#45;&gt;Node_2 -->
<g id="edge11" class="edge"><title>Node_11&#45;&gt;Node_2</title>
<path fill="none" stroke="tan" d="M103.274,-146.313C102.935,-138.289 102.523,-128.547 102.144,-119.569"/>
<polygon fill="tan" stroke="tan" points="105.639,-119.372 101.72,-109.529 98.6449,-119.668 105.639,-119.372"/>
</g>
<!-- Node_12 -->
<g id="node13" class="node"><title>Node_12</title>
<path fill="moccasin" stroke="moccasin" d="M124.5,-511.5C124.5,-511.5 213.5,-511.5 213.5,-511.5 219.5,-511.5 225.5,-517.5 225.5,-523.5 225.5,-523.5 225.5,-535.5 225.5,-535.5 225.5,-541.5 219.5,-547.5 213.5,-547.5 213.5,-547.5 124.5,-547.5 124.5,-547.5 118.5,-547.5 112.5,-541.5 112.5,-535.5 112.5,-535.5 112.5,-523.5 112.5,-523.5 112.5,-517.5 118.5,-511.5 124.5,-511.5"/>
<text text-anchor="middle" x="169" y="-527.3" font-family="Arial" font-size="9.00">argc_3: [&#45;Infinity, Infinity]</text>
</g>
</g>
</svg>
