<?xml version="1.0" encoding="UTF-8" standalone="no"?>
<!DOCTYPE svg PUBLIC "-//W3C//DTD SVG 1.1//EN"
 "http://www.w3.org/Graphics/SVG/1.1/DTD/svg11.dtd">
<!-- Generated by graphviz version 2.38.0 (20140413.2041)
 -->
<!-- Title: t4_foo_ConstraintGraph Pages: 1 -->
<svg width="295pt" height="577pt"
     viewBox="0.00 0.00 294.50 577.00" xmlns="http://www.w3.org/2000/svg">
<g id="graph0" class="graph" transform="scale(1 1) rotate(0) translate(4 573)">
<title>t4_foo_ConstraintGraph</title>
<polygon fill="white" stroke="none" points="-4,4 -4,-573 290.5,-573 290.5,4 -4,4"/>
<text text-anchor="middle" x="143.25" y="-555.4" font-family="Arial" font-size="12.00">t4_foo_ConstraintGraph</text>
<!-- Node_0 -->
<g id="node1" class="node"><title>Node_0</title>
<path fill="lightblue" stroke="lightblue" d="M52,-511.5C52,-511.5 82,-511.5 82,-511.5 88,-511.5 94,-517.5 94,-523.5 94,-523.5 94,-535.5 94,-535.5 94,-541.5 88,-547.5 82,-547.5 82,-547.5 52,-547.5 52,-547.5 46,-547.5 40,-541.5 40,-535.5 40,-535.5 40,-523.5 40,-523.5 40,-517.5 46,-511.5 52,-511.5"/>
<text text-anchor="middle" x="67" y="-527.3" font-family="Arial" font-size="9.00">k_2 = 0</text>
</g>
<!-- Node_1 -->
<g id="node2" class="node"><title>Node_1</title>
<path fill="moccasin" stroke="moccasin" d="M29.5,-438.5C29.5,-438.5 104.5,-438.5 104.5,-438.5 110.5,-438.5 116.5,-444.5 116.5,-450.5 116.5,-450.5 116.5,-462.5 116.5,-462.5 116.5,-468.5 110.5,-474.5 104.5,-474.5 104.5,-474.5 29.5,-474.5 29.5,-474.5 23.5,-474.5 17.5,-468.5 17.5,-462.5 17.5,-462.5 17.5,-450.5 17.5,-450.5 17.5,-444.5 23.5,-438.5 29.5,-438.5"/>
<text text-anchor="middle" x="67" y="-454.3" font-family="Arial" font-size="9.00">k_2: [&#45;Infinity, Infinity]</text>
</g>
<!-- Node_0&#45;&gt;Node_1 -->
<g id="edge1" class="edge"><title>Node_0&#45;&gt;Node_1</title>
<path fill="none" stroke="steelblue" d="M67,-511.313C67,-503.289 67,-493.547 67,-484.569"/>
<polygon fill="steelblue" stroke="steelblue" points="70.5001,-484.529 67,-474.529 63.5001,-484.529 70.5001,-484.529"/>
</g>
<!-- Node_8 -->
<g id="node9" class="node"><title>Node_8</title>
<path fill="lightblue" stroke="lightblue" d="M12,-365.5C12,-365.5 122,-365.5 122,-365.5 128,-365.5 134,-371.5 134,-377.5 134,-377.5 134,-389.5 134,-389.5 134,-395.5 128,-401.5 122,-401.5 122,-401.5 12,-401.5 12,-401.5 6,-401.5 0,-395.5 0,-389.5 0,-389.5 0,-377.5 0,-377.5 0,-371.5 6,-365.5 12,-365.5"/>
<text text-anchor="middle" x="67" y="-381.3" font-family="Arial" font-size="9.00"># k_1 = PHI &lt;k_2(2), k_4(3)&gt;</text>
</g>
<!-- Node_1&#45;&gt;Node_8 -->
<g id="edge12" class="edge"><title>Node_1&#45;&gt;Node_8</title>
<path fill="none" stroke="tan" d="M67,-438.313C67,-430.289 67,-420.547 67,-411.569"/>
<polygon fill="tan" stroke="tan" points="70.5001,-411.529 67,-401.529 63.5001,-411.529 70.5001,-411.529"/>
</g>
<!-- Node_2 -->
<g id="node3" class="node"><title>Node_2</title>
<path fill="lightblue" stroke="lightblue" d="M73.5,-73.5C73.5,-73.5 128.5,-73.5 128.5,-73.5 134.5,-73.5 140.5,-79.5 140.5,-85.5 140.5,-85.5 140.5,-97.5 140.5,-97.5 140.5,-103.5 134.5,-109.5 128.5,-109.5 128.5,-109.5 73.5,-109.5 73.5,-109.5 67.5,-109.5 61.5,-103.5 61.5,-97.5 61.5,-97.5 61.5,-85.5 61.5,-85.5 61.5,-79.5 67.5,-73.5 73.5,-73.5"/>
<text text-anchor="middle" x="101" y="-89.3" font-family="Arial" font-size="9.00">k_4 = k_1_t + 1</text>
</g>
<!-- Node_3 -->
<g id="node4" class="node"><title>Node_3</title>
<path fill="moccasin" stroke="moccasin" d="M29.5,-0.5C29.5,-0.5 104.5,-0.5 104.5,-0.5 110.5,-0.5 116.5,-6.5 116.5,-12.5 116.5,-12.5 116.5,-24.5 116.5,-24.5 116.5,-30.5 110.5,-36.5 104.5,-36.5 104.5,-36.5 29.5,-36.5 29.5,-36.5 23.5,-36.5 17.5,-30.5 17.5,-24.5 17.5,-24.5 17.5,-12.5 17.5,-12.5 17.5,-6.5 23.5,-0.5 29.5,-0.5"/>
<text text-anchor="middle" x="67" y="-16.3" font-family="Arial" font-size="9.00">k_4: [&#45;Infinity, Infinity]</text>
</g>
<!-- Node_2&#45;&gt;Node_3 -->
<g id="edge2" class="edge"><title>Node_2&#45;&gt;Node_3</title>
<path fill="none" stroke="steelblue" d="M92.7695,-73.3129C88.8021,-65.0279 83.9571,-54.9103 79.5433,-45.6933"/>
<polygon fill="steelblue" stroke="steelblue" points="82.6305,-44.0364 75.1547,-36.5288 76.317,-47.0597 82.6305,-44.0364"/>
</g>
<!-- Node_3&#45;&gt;Node_8 -->
<g id="edge9" class="edge"><title>Node_3&#45;&gt;Node_8</title>
<path fill="none" stroke="tan" d="M58.703,-36.7817C46.7227,-63.3676 26,-116.192 26,-163.5 26,-238.5 26,-238.5 26,-238.5 26,-280.819 42.582,-327.551 54.6552,-355.968"/>
<polygon fill="tan" stroke="tan" points="51.4877,-357.46 58.703,-365.218 57.9006,-354.654 51.4877,-357.46"/>
</g>
<!-- Node_4 -->
<g id="node5" class="node"><title>Node_4</title>
<path fill="lightblue" stroke="lightblue" d="M215.5,-73.5C215.5,-73.5 250.5,-73.5 250.5,-73.5 256.5,-73.5 262.5,-79.5 262.5,-85.5 262.5,-85.5 262.5,-97.5 262.5,-97.5 262.5,-103.5 256.5,-109.5 250.5,-109.5 250.5,-109.5 215.5,-109.5 215.5,-109.5 209.5,-109.5 203.5,-103.5 203.5,-97.5 203.5,-97.5 203.5,-85.5 203.5,-85.5 203.5,-79.5 209.5,-73.5 215.5,-73.5"/>
<text text-anchor="middle" x="233" y="-89.3" font-family="Arial" font-size="9.00">_5 = k_1_f</text>
</g>
<!-- Node_5 -->
<g id="node6" class="node"><title>Node_5</title>
<path fill="moccasin" stroke="moccasin" d="M197.5,-0.5C197.5,-0.5 268.5,-0.5 268.5,-0.5 274.5,-0.5 280.5,-6.5 280.5,-12.5 280.5,-12.5 280.5,-24.5 280.5,-24.5 280.5,-30.5 274.5,-36.5 268.5,-36.5 268.5,-36.5 197.5,-36.5 197.5,-36.5 191.5,-36.5 185.5,-30.5 185.5,-24.5 185.5,-24.5 185.5,-12.5 185.5,-12.5 185.5,-6.5 191.5,-0.5 197.5,-0.5"/>
<text text-anchor="middle" x="233" y="-16.3" font-family="Arial" font-size="9.00">_5: [&#45;Infinity, Infinity]</text>
</g>
<!-- Node_4&#45;&gt;Node_5 -->
<g id="edge3" class="edge"><title>Node_4&#45;&gt;Node_5</title>
<path fill="none" stroke="steelblue" d="M233,-73.3129C233,-65.2895 233,-55.5475 233,-46.5691"/>
<polygon fill="steelblue" stroke="steelblue" points="236.5,-46.5288 233,-36.5288 229.5,-46.5289 236.5,-46.5288"/>
</g>
<!-- Node_6 -->
<g id="node7" class="node"><title>Node_6</title>
<path fill="lightblue" stroke="lightblue" d="M190,-219.5C190,-219.5 254,-219.5 254,-219.5 260,-219.5 266,-225.5 266,-231.5 266,-231.5 266,-243.5 266,-243.5 266,-249.5 260,-255.5 254,-255.5 254,-255.5 190,-255.5 190,-255.5 184,-255.5 178,-249.5 178,-243.5 178,-243.5 178,-231.5 178,-231.5 178,-225.5 184,-219.5 190,-219.5"/>
<text text-anchor="middle" x="222" y="-235.3" font-family="Arial" font-size="9.00">if (k_1 &gt;= argc_3)</text>
</g>
<!-- Node_7 -->
<g id="node8" class="node"><title>Node_7</title>
<path fill="moccasin" stroke="moccasin" d="M191.5,-146.5C191.5,-146.5 274.5,-146.5 274.5,-146.5 280.5,-146.5 286.5,-152.5 286.5,-158.5 286.5,-158.5 286.5,-170.5 286.5,-170.5 286.5,-176.5 280.5,-182.5 274.5,-182.5 274.5,-182.5 191.5,-182.5 191.5,-182.5 185.5,-182.5 179.5,-176.5 179.5,-170.5 179.5,-170.5 179.5,-158.5 179.5,-158.5 179.5,-152.5 185.5,-146.5 191.5,-146.5"/>
<text text-anchor="middle" x="233" y="-162.3" font-family="Arial" font-size="9.00">k_1_f: [&#45;Infinity, Infinity]</text>
</g>
<!-- Node_6&#45;&gt;Node_7 -->
<g id="edge4" class="edge"><title>Node_6&#45;&gt;Node_7</title>
<path fill="none" stroke="steelblue" d="M224.663,-219.313C225.906,-211.289 227.415,-201.547 228.806,-192.569"/>
<polygon fill="steelblue" stroke="steelblue" points="232.289,-192.947 230.362,-182.529 225.372,-191.875 232.289,-192.947"/>
</g>
<!-- Node_7&#45;&gt;Node_4 -->
<g id="edge10" class="edge"><title>Node_7&#45;&gt;Node_4</title>
<path fill="none" stroke="tan" d="M233,-146.313C233,-138.289 233,-128.547 233,-119.569"/>
<polygon fill="tan" stroke="tan" points="236.5,-119.529 233,-109.529 229.5,-119.529 236.5,-119.529"/>
</g>
<!-- Node_9 -->
<g id="node10" class="node"><title>Node_9</title>
<path fill="moccasin" stroke="moccasin" d="M70.5,-292.5C70.5,-292.5 145.5,-292.5 145.5,-292.5 151.5,-292.5 157.5,-298.5 157.5,-304.5 157.5,-304.5 157.5,-316.5 157.5,-316.5 157.5,-322.5 151.5,-328.5 145.5,-328.5 145.5,-328.5 70.5,-328.5 70.5,-328.5 64.5,-328.5 58.5,-322.5 58.5,-316.5 58.5,-316.5 58.5,-304.5 58.5,-304.5 58.5,-298.5 64.5,-292.5 70.5,-292.5"/>
<text text-anchor="middle" x="108" y="-308.3" font-family="Arial" font-size="9.00">k_1: [&#45;Infinity, Infinity]</text>
</g>
<!-- Node_8&#45;&gt;Node_9 -->
<g id="edge5" class="edge"><title>Node_8&#45;&gt;Node_9</title>
<path fill="none" stroke="steelblue" d="M76.925,-365.313C81.7596,-356.941 87.6749,-346.697 93.0422,-337.403"/>
<polygon fill="steelblue" stroke="steelblue" points="96.1966,-338.939 98.1664,-328.529 90.1347,-335.438 96.1966,-338.939"/>
</g>
<!-- Node_9&#45;&gt;Node_6 -->
<g id="edge7" class="edge"><title>Node_9&#45;&gt;Node_6</title>
<path fill="none" stroke="tan" d="M135.306,-292.494C150.423,-283.079 169.407,-271.255 185.753,-261.075"/>
<polygon fill="tan" stroke="tan" points="187.884,-263.871 194.522,-255.614 184.183,-257.929 187.884,-263.871"/>
</g>
<!-- Node_10 -->
<g id="node11" class="node"><title>Node_10</title>
<path fill="lightblue" stroke="lightblue" d="M78.5,-219.5C78.5,-219.5 137.5,-219.5 137.5,-219.5 143.5,-219.5 149.5,-225.5 149.5,-231.5 149.5,-231.5 149.5,-243.5 149.5,-243.5 149.5,-249.5 143.5,-255.5 137.5,-255.5 137.5,-255.5 78.5,-255.5 78.5,-255.5 72.5,-255.5 66.5,-249.5 66.5,-243.5 66.5,-243.5 66.5,-231.5 66.5,-231.5 66.5,-225.5 72.5,-219.5 78.5,-219.5"/>
<text text-anchor="middle" x="108" y="-235.3" font-family="Arial" font-size="9.00">if (k_1 &lt; argc_3)</text>
</g>
<!-- Node_9&#45;&gt;Node_10 -->
<g id="edge8" class="edge"><title>Node_9&#45;&gt;Node_10</title>
<path fill="none" stroke="tan" d="M108,-292.313C108,-284.289 108,-274.547 108,-265.569"/>
<polygon fill="tan" stroke="tan" points="111.5,-265.529 108,-255.529 104.5,-265.529 111.5,-265.529"/>
</g>
<!-- Node_11 -->
<g id="node12" class="node"><title>Node_11</title>
<path fill="moccasin" stroke="moccasin" d="M66.5,-146.5C66.5,-146.5 149.5,-146.5 149.5,-146.5 155.5,-146.5 161.5,-152.5 161.5,-158.5 161.5,-158.5 161.5,-170.5 161.5,-170.5 161.5,-176.5 155.5,-182.5 149.5,-182.5 149.5,-182.5 66.5,-182.5 66.5,-182.5 60.5,-182.5 54.5,-176.5 54.5,-170.5 54.5,-170.5 54.5,-158.5 54.5,-158.5 54.5,-152.5 60.5,-146.5 66.5,-146.5"/>
<text text-anchor="middle" x="108" y="-162.3" font-family="Arial" font-size="9.00">k_1_t: [&#45;Infinity, Infinity]</text>
</g>
<!-- Node_10&#45;&gt;Node_11 -->
<g id="edge6" class="edge"><title>Node_10&#45;&gt;Node_11</title>
<path fill="none" stroke="steelblue" d="M108,-219.313C108,-211.289 108,-201.547 108,-192.569"/>
<polygon fill="steelblue" stroke="steelblue" points="111.5,-192.529 108,-182.529 104.5,-192.529 111.5,-192.529"/>
</g>
<!-- Node_11&#45;&gt;Node_2 -->
<g id="edge11" class="edge"><title>Node_11&#45;&gt;Node_2</title>
<path fill="none" stroke="tan" d="M106.305,-146.313C105.514,-138.289 104.554,-128.547 103.669,-119.569"/>
<polygon fill="tan" stroke="tan" points="107.143,-119.137 102.679,-109.529 100.177,-119.824 107.143,-119.137"/>
</g>
<!-- Node_12 -->
<g id="node13" class="node"><title>Node_12</title>
<path fill="moccasin" stroke="moccasin" d="M124.5,-511.5C124.5,-511.5 213.5,-511.5 213.5,-511.5 219.5,-511.5 225.5,-517.5 225.5,-523.5 225.5,-523.5 225.5,-535.5 225.5,-535.5 225.5,-541.5 219.5,-547.5 213.5,-547.5 213.5,-547.5 124.5,-547.5 124.5,-547.5 118.5,-547.5 112.5,-541.5 112.5,-535.5 112.5,-535.5 112.5,-523.5 112.5,-523.5 112.5,-517.5 118.5,-511.5 124.5,-511.5"/>
<text text-anchor="middle" x="169" y="-527.3" font-family="Arial" font-size="9.00">argc_3: [&#45;Infinity, Infinity]</text>
</g>
</g>
</svg>
