<?xml version="1.0" encoding="UTF-8" standalone="no"?>
<!DOCTYPE svg PUBLIC "-//W3C//DTD SVG 1.1//EN"
 "http://www.w3.org/Graphics/SVG/1.1/DTD/svg11.dtd">
<!-- Generated by graphviz version 2.38.0 (20140413.2041)
 -->
<!-- Title: t5_foo_CFG Pages: 1 -->
<svg width="250pt" height="557pt"
     viewBox="0.00 0.00 249.50 557.00" xmlns="http://www.w3.org/2000/svg">
<g id="graph0" class="graph" transform="scale(1 1) rotate(0) translate(4 553)">
<title>t5_foo_CFG</title>
<polygon fill="white" stroke="none" points="-4,4 -4,-553 245.5,-553 245.5,4 -4,4"/>
<text text-anchor="middle" x="120.75" y="-535.4" font-family="Arial" font-size="12.00">t5_foo_CFG</text>
<!-- Node_0 -->
<g id="node1" class="node"><title>Node_0</title>
<path fill="mintcream" stroke="orange" d="M83.5,-491.5C83.5,-491.5 113.5,-491.5 113.5,-491.5 119.5,-491.5 125.5,-497.5 125.5,-503.5 125.5,-503.5 125.5,-515.5 125.5,-515.5 125.5,-521.5 119.5,-527.5 113.5,-527.5 113.5,-527.5 83.5,-527.5 83.5,-527.5 77.5,-527.5 71.5,-521.5 71.5,-515.5 71.5,-515.5 71.5,-503.5 71.5,-503.5 71.5,-497.5 77.5,-491.5 83.5,-491.5"/>
<text text-anchor="middle" x="98.5" y="-507.3" font-family="Arial" font-size="9.00">&lt;Entry&gt;</text>
</g>
<!-- Node_1 -->
<g id="node2" class="node"><title>Node_1</title>
<path fill="mintcream" stroke="black" d="M78,-382.5C78,-382.5 119,-382.5 119,-382.5 125,-382.5 131,-388.5 131,-394.5 131,-394.5 131,-442.5 131,-442.5 131,-448.5 125,-454.5 119,-454.5 119,-454.5 78,-454.5 78,-454.5 72,-454.5 66,-448.5 66,-442.5 66,-442.5 66,-394.5 66,-394.5 66,-388.5 72,-382.5 78,-382.5"/>
<text text-anchor="middle" x="98.5" y="-443.3" font-family="Arial" font-size="9.00">&lt;bb 2&gt;</text>
<polyline fill="none" stroke="black" points="66,-436.5 131,-436.5 "/>
<text text-anchor="middle" x="98.5" y="-425.3" font-family="Arial" font-size="9.00">k_3 = 0</text>
<polyline fill="none" stroke="black" points="66,-418.5 131,-418.5 "/>
<text text-anchor="middle" x="98.5" y="-407.3" font-family="Arial" font-size="9.00">ret_4 = 0.0</text>
<polyline fill="none" stroke="black" points="66,-400.5 131,-400.5 "/>
<text text-anchor="middle" x="98.5" y="-389.3" font-family="Arial" font-size="9.00">goto &lt;bb 4&gt;</text>
</g>
<!-- Node_0&#45;&gt;Node_1 -->
<g id="edge1" class="edge"><title>Node_0&#45;&gt;Node_1</title>
<path fill="none" stroke="black" d="M98.5,-491.34C98.5,-483.698 98.5,-474.301 98.5,-464.852"/>
<polygon fill="black" stroke="black" points="102,-464.659 98.5,-454.659 95.0001,-464.659 102,-464.659"/>
</g>
<!-- Node_2 -->
<g id="node3" class="node"><title>Node_2</title>
<path fill="mintcream" stroke="black" d="M12,-273.5C12,-273.5 185,-273.5 185,-273.5 191,-273.5 197,-279.5 197,-285.5 197,-285.5 197,-333.5 197,-333.5 197,-339.5 191,-345.5 185,-345.5 185,-345.5 12,-345.5 12,-345.5 6,-345.5 0,-339.5 0,-333.5 0,-333.5 0,-285.5 0,-285.5 0,-279.5 6,-273.5 12,-273.5"/>
<text text-anchor="middle" x="98.5" y="-334.3" font-family="Arial" font-size="9.00">&lt;bb 4&gt;</text>
<polyline fill="none" stroke="black" points="0,-327.5 197,-327.5 "/>
<text text-anchor="middle" x="98.5" y="-316.3" font-family="Arial" font-size="9.00"># k_1 = PHI &lt;k_3(2), k_8(3)&gt;</text>
<polyline fill="none" stroke="black" points="0,-309.5 197,-309.5 "/>
<text text-anchor="middle" x="98.5" y="-298.3" font-family="Arial" font-size="9.00"># ret_2 = PHI &lt;ret_4(2), ret_7(3)&gt;</text>
<polyline fill="none" stroke="black" points="0,-291.5 197,-291.5 "/>
<text text-anchor="middle" x="98.5" y="-280.3" font-family="Arial" font-size="9.00">if (k_1 &lt;= 100) goto &lt;bb 3&gt; else goto &lt;bb 5&gt;</text>
</g>
<!-- Node_1&#45;&gt;Node_2 -->
<g id="edge2" class="edge"><title>Node_1&#45;&gt;Node_2</title>
<path fill="none" stroke="black" d="M98.5,-382.464C98.5,-373.966 98.5,-364.759 98.5,-355.859"/>
<polygon fill="black" stroke="black" points="102,-355.614 98.5,-345.615 95.0001,-355.615 102,-355.614"/>
</g>
<!-- Node_3 -->
<g id="node4" class="node"><title>Node_3</title>
<path fill="mintcream" stroke="black" d="M61.5,-146.5C61.5,-146.5 135.5,-146.5 135.5,-146.5 141.5,-146.5 147.5,-152.5 147.5,-158.5 147.5,-158.5 147.5,-224.5 147.5,-224.5 147.5,-230.5 141.5,-236.5 135.5,-236.5 135.5,-236.5 61.5,-236.5 61.5,-236.5 55.5,-236.5 49.5,-230.5 49.5,-224.5 49.5,-224.5 49.5,-158.5 49.5,-158.5 49.5,-152.5 55.5,-146.5 61.5,-146.5"/>
<text text-anchor="middle" x="98.5" y="-225.3" font-family="Arial" font-size="9.00">&lt;bb 3&gt;</text>
<polyline fill="none" stroke="black" points="49.5,-218.5 147.5,-218.5 "/>
<text text-anchor="middle" x="98.5" y="-207.3" font-family="Arial" font-size="9.00">_5 = k_1 * 2</text>
<polyline fill="none" stroke="black" points="49.5,-200.5 147.5,-200.5 "/>
<text text-anchor="middle" x="98.5" y="-189.3" font-family="Arial" font-size="9.00">j_6 = (float) _5</text>
<polyline fill="none" stroke="black" points="49.5,-182.5 147.5,-182.5 "/>
<text text-anchor="middle" x="98.5" y="-171.3" font-family="Arial" font-size="9.00">ret_7 = j_6 + 1.0e+1</text>
<polyline fill="none" stroke="black" points="49.5,-164.5 147.5,-164.5 "/>
<text text-anchor="middle" x="98.5" y="-153.3" font-family="Arial" font-size="9.00">k_8 = k_1 + 1</text>
</g>
<!-- Node_2&#45;&gt;Node_3 -->
<g id="edge3" class="edge"><title>Node_2&#45;&gt;Node_3</title>
<path fill="none" stroke="teal" d="M92.2404,-273.381C91.8602,-264.951 91.7011,-255.753 91.763,-246.68"/>
<polygon fill="teal" stroke="teal" points="95.2648,-246.592 91.927,-236.537 88.2657,-246.479 95.2648,-246.592"/>
</g>
<!-- Node_4 -->
<g id="node5" class="node"><title>Node_4</title>
<path fill="mintcream" stroke="black" d="M177.5,-173.5C177.5,-173.5 229.5,-173.5 229.5,-173.5 235.5,-173.5 241.5,-179.5 241.5,-185.5 241.5,-185.5 241.5,-197.5 241.5,-197.5 241.5,-203.5 235.5,-209.5 229.5,-209.5 229.5,-209.5 177.5,-209.5 177.5,-209.5 171.5,-209.5 165.5,-203.5 165.5,-197.5 165.5,-197.5 165.5,-185.5 165.5,-185.5 165.5,-179.5 171.5,-173.5 177.5,-173.5"/>
<text text-anchor="middle" x="203.5" y="-198.3" font-family="Arial" font-size="9.00">&lt;bb 5&gt;</text>
<polyline fill="none" stroke="black" points="165.5,-191.5 241.5,-191.5 "/>
<text text-anchor="middle" x="203.5" y="-180.3" font-family="Arial" font-size="9.00">_9 = (int) ret_2</text>
</g>
<!-- Node_2&#45;&gt;Node_4 -->
<g id="edge5" class="edge"><title>Node_2&#45;&gt;Node_4</title>
<path fill="none" stroke="crimson" d="M130.288,-273.381C146.68,-255.273 166.279,-233.62 181.072,-217.277"/>
<polygon fill="crimson" stroke="crimson" points="183.797,-219.482 187.913,-209.72 178.608,-214.785 183.797,-219.482"/>
</g>
<!-- Node_3&#45;&gt;Node_2 -->
<g id="edge4" class="edge"><title>Node_3&#45;&gt;Node_2</title>
<path fill="none" stroke="black" d="M105.073,-236.537C105.299,-245.294 105.309,-254.503 105.102,-263.298"/>
<polygon fill="black" stroke="black" points="101.601,-263.268 104.76,-273.381 108.597,-263.506 101.601,-263.268"/>
</g>
<!-- Node_5 -->
<g id="node6" class="node"><title>Node_5</title>
<path fill="mintcream" stroke="black" d="M188.5,-73.5C188.5,-73.5 218.5,-73.5 218.5,-73.5 224.5,-73.5 230.5,-79.5 230.5,-85.5 230.5,-85.5 230.5,-97.5 230.5,-97.5 230.5,-103.5 224.5,-109.5 218.5,-109.5 218.5,-109.5 188.5,-109.5 188.5,-109.5 182.5,-109.5 176.5,-103.5 176.5,-97.5 176.5,-97.5 176.5,-85.5 176.5,-85.5 176.5,-79.5 182.5,-73.5 188.5,-73.5"/>
<text text-anchor="middle" x="203.5" y="-98.3" font-family="Arial" font-size="9.00">&lt;L3&gt;</text>
<polyline fill="none" stroke="black" points="176.5,-91.5 230.5,-91.5 "/>
<text text-anchor="middle" x="203.5" y="-80.3" font-family="Arial" font-size="9.00">return _9</text>
</g>
<!-- Node_4&#45;&gt;Node_5 -->
<g id="edge6" class="edge"><title>Node_4&#45;&gt;Node_5</title>
<path fill="none" stroke="black" d="M203.5,-173.43C203.5,-158.625 203.5,-136.932 203.5,-119.731"/>
<polygon fill="black" stroke="black" points="207,-119.703 203.5,-109.703 200,-119.704 207,-119.703"/>
</g>
<!-- Node_6 -->
<g id="node7" class="node"><title>Node_6</title>
<path fill="mintcream" stroke="#1874cd" d="M188.5,-0.5C188.5,-0.5 218.5,-0.5 218.5,-0.5 224.5,-0.5 230.5,-6.5 230.5,-12.5 230.5,-12.5 230.5,-24.5 230.5,-24.5 230.5,-30.5 224.5,-36.5 218.5,-36.5 218.5,-36.5 188.5,-36.5 188.5,-36.5 182.5,-36.5 176.5,-30.5 176.5,-24.5 176.5,-24.5 176.5,-12.5 176.5,-12.5 176.5,-6.5 182.5,-0.5 188.5,-0.5"/>
<text text-anchor="middle" x="203.5" y="-16.3" font-family="Arial" font-size="9.00">&lt;Exit&gt;</text>
</g>
<!-- Node_5&#45;&gt;Node_6 -->
<g id="edge7" class="edge"><title>Node_5&#45;&gt;Node_6</title>
<path fill="none" stroke="black" d="M203.5,-73.3129C203.5,-65.2895 203.5,-55.5475 203.5,-46.5691"/>
<polygon fill="black" stroke="black" points="207,-46.5288 203.5,-36.5288 200,-46.5289 207,-46.5288"/>
</g>
</g>
</svg>
