<?xml version="1.0" encoding="UTF-8" standalone="no"?>
<!DOCTYPE svg PUBLIC "-//W3C//DTD SVG 1.1//EN"
 "http://www.w3.org/Graphics/SVG/1.1/DTD/svg11.dtd">
<!-- Generated by graphviz version 2.38.0 (20140413.2041)
 -->
<!-- Title: t5_foo_ConstraintGraph Pages: 1 -->
<svg width="298pt" height="869pt"
     viewBox="0.00 0.00 297.50 869.00" xmlns="http://www.w3.org/2000/svg">
<g id="graph0" class="graph" transform="scale(1 1) rotate(0) translate(4 865)">
<title>t5_foo_ConstraintGraph</title>
<polygon fill="white" stroke="none" points="-4,4 -4,-865 293.5,-865 293.5,4 -4,4"/>
<text text-anchor="middle" x="144.75" y="-847.4" font-family="Arial" font-size="12.00">t5_foo_ConstraintGraph</text>
<!-- Node_0 -->
<g id="node1" class="node"><title>Node_0</title>
<path fill="lightblue" stroke="lightblue" d="M226.5,-803.5C226.5,-803.5 277.5,-803.5 277.5,-803.5 283.5,-803.5 289.5,-809.5 289.5,-815.5 289.5,-815.5 289.5,-827.5 289.5,-827.5 289.5,-833.5 283.5,-839.5 277.5,-839.5 277.5,-839.5 226.5,-839.5 226.5,-839.5 220.5,-839.5 214.5,-833.5 214.5,-827.5 214.5,-827.5 214.5,-815.5 214.5,-815.5 214.5,-809.5 220.5,-803.5 226.5,-803.5"/>
<text text-anchor="middle" x="252" y="-819.3" font-family="Arial" font-size="9.00">if (k_1 &lt;= 100)</text>
</g>
<!-- Node_1 -->
<g id="node2" class="node"><title>Node_1</title>
<path fill="moccasin" stroke="moccasin" d="M192.5,-730.5C192.5,-730.5 243.5,-730.5 243.5,-730.5 249.5,-730.5 255.5,-736.5 255.5,-742.5 255.5,-742.5 255.5,-754.5 255.5,-754.5 255.5,-760.5 249.5,-766.5 243.5,-766.5 243.5,-766.5 192.5,-766.5 192.5,-766.5 186.5,-766.5 180.5,-760.5 180.5,-754.5 180.5,-754.5 180.5,-742.5 180.5,-742.5 180.5,-736.5 186.5,-730.5 192.5,-730.5"/>
<text text-anchor="middle" x="218" y="-746.3" font-family="Arial" font-size="9.00">k_1_t: [&#45;inf, inf]</text>
</g>
<!-- Node_0&#45;&gt;Node_1 -->
<g id="edge1" class="edge"><title>Node_0&#45;&gt;Node_1</title>
<path fill="none" stroke="steelblue" d="M243.77,-803.313C239.802,-795.028 234.957,-784.91 230.543,-775.693"/>
<polygon fill="steelblue" stroke="steelblue" points="233.63,-774.036 226.155,-766.529 227.317,-777.06 233.63,-774.036"/>
</g>
<!-- Node_14 -->
<g id="node15" class="node"><title>Node_14</title>
<path fill="lightblue" stroke="lightblue" d="M190.5,-657.5C190.5,-657.5 245.5,-657.5 245.5,-657.5 251.5,-657.5 257.5,-663.5 257.5,-669.5 257.5,-669.5 257.5,-681.5 257.5,-681.5 257.5,-687.5 251.5,-693.5 245.5,-693.5 245.5,-693.5 190.5,-693.5 190.5,-693.5 184.5,-693.5 178.5,-687.5 178.5,-681.5 178.5,-681.5 178.5,-669.5 178.5,-669.5 178.5,-663.5 184.5,-657.5 190.5,-657.5"/>
<text text-anchor="middle" x="218" y="-673.3" font-family="Arial" font-size="9.00">k_8 = k_1_t + 1</text>
</g>
<!-- Node_1&#45;&gt;Node_14 -->
<g id="edge11" class="edge"><title>Node_1&#45;&gt;Node_14</title>
<path fill="none" stroke="tan" d="M218,-730.313C218,-722.289 218,-712.547 218,-703.569"/>
<polygon fill="tan" stroke="tan" points="221.5,-703.529 218,-693.529 214.5,-703.529 221.5,-703.529"/>
</g>
<!-- Node_18 -->
<g id="node19" class="node"><title>Node_18</title>
<path fill="lightblue" stroke="lightblue" d="M25.5,-657.5C25.5,-657.5 74.5,-657.5 74.5,-657.5 80.5,-657.5 86.5,-663.5 86.5,-669.5 86.5,-669.5 86.5,-681.5 86.5,-681.5 86.5,-687.5 80.5,-693.5 74.5,-693.5 74.5,-693.5 25.5,-693.5 25.5,-693.5 19.5,-693.5 13.5,-687.5 13.5,-681.5 13.5,-681.5 13.5,-669.5 13.5,-669.5 13.5,-663.5 19.5,-657.5 25.5,-657.5"/>
<text text-anchor="middle" x="50" y="-673.3" font-family="Arial" font-size="9.00">_5 = k_1_t * 2</text>
</g>
<!-- Node_1&#45;&gt;Node_18 -->
<g id="edge12" class="edge"><title>Node_1&#45;&gt;Node_18</title>
<path fill="none" stroke="tan" d="M180.298,-731.566C155.397,-721.043 122.603,-707.183 96.1449,-696.002"/>
<polygon fill="tan" stroke="tan" points="97.2838,-692.683 86.7101,-692.014 94.5588,-699.131 97.2838,-692.683"/>
</g>
<!-- Node_2 -->
<g id="node3" class="node"><title>Node_2</title>
<path fill="lightblue" stroke="lightblue" d="M71,-73.5C71,-73.5 123,-73.5 123,-73.5 129,-73.5 135,-79.5 135,-85.5 135,-85.5 135,-97.5 135,-97.5 135,-103.5 129,-109.5 123,-109.5 123,-109.5 71,-109.5 71,-109.5 65,-109.5 59,-103.5 59,-97.5 59,-97.5 59,-85.5 59,-85.5 59,-79.5 65,-73.5 71,-73.5"/>
<text text-anchor="middle" x="97" y="-89.3" font-family="Arial" font-size="9.00">_9 = (int) ret_2</text>
</g>
<!-- Node_3 -->
<g id="node4" class="node"><title>Node_3</title>
<path fill="moccasin" stroke="moccasin" d="M77.5,-0.5C77.5,-0.5 116.5,-0.5 116.5,-0.5 122.5,-0.5 128.5,-6.5 128.5,-12.5 128.5,-12.5 128.5,-24.5 128.5,-24.5 128.5,-30.5 122.5,-36.5 116.5,-36.5 116.5,-36.5 77.5,-36.5 77.5,-36.5 71.5,-36.5 65.5,-30.5 65.5,-24.5 65.5,-24.5 65.5,-12.5 65.5,-12.5 65.5,-6.5 71.5,-0.5 77.5,-0.5"/>
<text text-anchor="middle" x="97" y="-16.3" font-family="Arial" font-size="9.00">_9: [&#45;inf, inf]</text>
</g>
<!-- Node_2&#45;&gt;Node_3 -->
<g id="edge2" class="edge"><title>Node_2&#45;&gt;Node_3</title>
<path fill="none" stroke="steelblue" d="M97,-73.3129C97,-65.2895 97,-55.5475 97,-46.5691"/>
<polygon fill="steelblue" stroke="steelblue" points="100.5,-46.5288 97,-36.5288 93.5001,-46.5289 100.5,-46.5288"/>
</g>
<!-- Node_4 -->
<g id="node5" class="node"><title>Node_4</title>
<path fill="lightblue" stroke="lightblue" d="M23.5,-511.5C23.5,-511.5 74.5,-511.5 74.5,-511.5 80.5,-511.5 86.5,-517.5 86.5,-523.5 86.5,-523.5 86.5,-535.5 86.5,-535.5 86.5,-541.5 80.5,-547.5 74.5,-547.5 74.5,-547.5 23.5,-547.5 23.5,-547.5 17.5,-547.5 11.5,-541.5 11.5,-535.5 11.5,-535.5 11.5,-523.5 11.5,-523.5 11.5,-517.5 17.5,-511.5 23.5,-511.5"/>
<text text-anchor="middle" x="49" y="-527.3" font-family="Arial" font-size="9.00">j_6 = (float) _5</text>
</g>
<!-- Node_5 -->
<g id="node6" class="node"><title>Node_5</title>
<path fill="moccasin" stroke="moccasin" d="M28.5,-438.5C28.5,-438.5 69.5,-438.5 69.5,-438.5 75.5,-438.5 81.5,-444.5 81.5,-450.5 81.5,-450.5 81.5,-462.5 81.5,-462.5 81.5,-468.5 75.5,-474.5 69.5,-474.5 69.5,-474.5 28.5,-474.5 28.5,-474.5 22.5,-474.5 16.5,-468.5 16.5,-462.5 16.5,-462.5 16.5,-450.5 16.5,-450.5 16.5,-444.5 22.5,-438.5 28.5,-438.5"/>
<text text-anchor="middle" x="49" y="-454.3" font-family="Arial" font-size="9.00">j_6: [&#45;inf, inf]</text>
</g>
<!-- Node_4&#45;&gt;Node_5 -->
<g id="edge3" class="edge"><title>Node_4&#45;&gt;Node_5</title>
<path fill="none" stroke="steelblue" d="M49,-511.313C49,-503.289 49,-493.547 49,-484.569"/>
<polygon fill="steelblue" stroke="steelblue" points="52.5001,-484.529 49,-474.529 45.5001,-484.529 52.5001,-484.529"/>
</g>
<!-- Node_10 -->
<g id="node11" class="node"><title>Node_10</title>
<path fill="lightblue" stroke="lightblue" d="M12,-365.5C12,-365.5 86,-365.5 86,-365.5 92,-365.5 98,-371.5 98,-377.5 98,-377.5 98,-389.5 98,-389.5 98,-395.5 92,-401.5 86,-401.5 86,-401.5 12,-401.5 12,-401.5 6,-401.5 0,-395.5 0,-389.5 0,-389.5 0,-377.5 0,-377.5 0,-371.5 6,-365.5 12,-365.5"/>
<text text-anchor="middle" x="49" y="-381.3" font-family="Arial" font-size="9.00">ret_7 = j_6 + 1.0e+1</text>
</g>
<!-- Node_5&#45;&gt;Node_10 -->
<g id="edge13" class="edge"><title>Node_5&#45;&gt;Node_10</title>
<path fill="none" stroke="tan" d="M49,-438.313C49,-430.289 49,-420.547 49,-411.569"/>
<polygon fill="tan" stroke="tan" points="52.5001,-411.529 49,-401.529 45.5001,-411.529 52.5001,-411.529"/>
</g>
<!-- Node_6 -->
<g id="node7" class="node"><title>Node_6</title>
<path fill="lightblue" stroke="lightblue" d="M33,-219.5C33,-219.5 161,-219.5 161,-219.5 167,-219.5 173,-225.5 173,-231.5 173,-231.5 173,-243.5 173,-243.5 173,-249.5 167,-255.5 161,-255.5 161,-255.5 33,-255.5 33,-255.5 27,-255.5 21,-249.5 21,-243.5 21,-243.5 21,-231.5 21,-231.5 21,-225.5 27,-219.5 33,-219.5"/>
<text text-anchor="middle" x="97" y="-235.3" font-family="Arial" font-size="9.00"># ret_2 = PHI &lt;ret_4(2), ret_7(3)&gt;</text>
</g>
<!-- Node_7 -->
<g id="node8" class="node"><title>Node_7</title>
<path fill="moccasin" stroke="moccasin" d="M72,-146.5C72,-146.5 122,-146.5 122,-146.5 128,-146.5 134,-152.5 134,-158.5 134,-158.5 134,-170.5 134,-170.5 134,-176.5 128,-182.5 122,-182.5 122,-182.5 72,-182.5 72,-182.5 66,-182.5 60,-176.5 60,-170.5 60,-170.5 60,-158.5 60,-158.5 60,-152.5 66,-146.5 72,-146.5"/>
<text text-anchor="middle" x="97" y="-162.3" font-family="Arial" font-size="9.00">ret_2: [&#45;inf, inf]</text>
</g>
<!-- Node_6&#45;&gt;Node_7 -->
<g id="edge4" class="edge"><title>Node_6&#45;&gt;Node_7</title>
<path fill="none" stroke="steelblue" d="M97,-219.313C97,-211.289 97,-201.547 97,-192.569"/>
<polygon fill="steelblue" stroke="steelblue" points="100.5,-192.529 97,-182.529 93.5001,-192.529 100.5,-192.529"/>
</g>
<!-- Node_7&#45;&gt;Node_2 -->
<g id="edge15" class="edge"><title>Node_7&#45;&gt;Node_2</title>
<path fill="none" stroke="tan" d="M97,-146.313C97,-138.289 97,-128.547 97,-119.569"/>
<polygon fill="tan" stroke="tan" points="100.5,-119.529 97,-109.529 93.5001,-119.529 100.5,-119.529"/>
</g>
<!-- Node_8 -->
<g id="node9" class="node"><title>Node_8</title>
<path fill="lightblue" stroke="lightblue" d="M136,-511.5C136,-511.5 246,-511.5 246,-511.5 252,-511.5 258,-517.5 258,-523.5 258,-523.5 258,-535.5 258,-535.5 258,-541.5 252,-547.5 246,-547.5 246,-547.5 136,-547.5 136,-547.5 130,-547.5 124,-541.5 124,-535.5 124,-535.5 124,-523.5 124,-523.5 124,-517.5 130,-511.5 136,-511.5"/>
<text text-anchor="middle" x="191" y="-527.3" font-family="Arial" font-size="9.00"># k_1 = PHI &lt;k_3(2), k_8(3)&gt;</text>
</g>
<!-- Node_9 -->
<g id="node10" class="node"><title>Node_9</title>
<path fill="moccasin" stroke="moccasin" d="M216,-438.5C216,-438.5 260,-438.5 260,-438.5 266,-438.5 272,-444.5 272,-450.5 272,-450.5 272,-462.5 272,-462.5 272,-468.5 266,-474.5 260,-474.5 260,-474.5 216,-474.5 216,-474.5 210,-474.5 204,-468.5 204,-462.5 204,-462.5 204,-450.5 204,-450.5 204,-444.5 210,-438.5 216,-438.5"/>
<text text-anchor="middle" x="238" y="-454.3" font-family="Arial" font-size="9.00">k_1: [&#45;inf, inf]</text>
</g>
<!-- Node_8&#45;&gt;Node_9 -->
<g id="edge5" class="edge"><title>Node_8&#45;&gt;Node_9</title>
<path fill="none" stroke="steelblue" d="M202.377,-511.313C207.977,-502.853 214.842,-492.484 221.045,-483.112"/>
<polygon fill="steelblue" stroke="steelblue" points="224.126,-484.799 226.727,-474.529 218.289,-480.935 224.126,-484.799"/>
</g>
<!-- Node_9&#45;&gt;Node_0 -->
<g id="edge20" class="edge"><title>Node_9&#45;&gt;Node_0</title>
<path fill="none" stroke="tan" d="M249.005,-474.729C255.09,-484.93 262.34,-498.305 267,-511 281.163,-549.581 286,-560.401 286,-601.5 286,-676.5 286,-676.5 286,-676.5 286,-718.138 272.369,-764.779 262.369,-793.394"/>
<polygon fill="tan" stroke="tan" points="258.976,-792.484 258.88,-803.079 265.562,-794.856 258.976,-792.484"/>
</g>
<!-- Node_11 -->
<g id="node12" class="node"><title>Node_11</title>
<path fill="moccasin" stroke="moccasin" d="M25,-292.5C25,-292.5 75,-292.5 75,-292.5 81,-292.5 87,-298.5 87,-304.5 87,-304.5 87,-316.5 87,-316.5 87,-322.5 81,-328.5 75,-328.5 75,-328.5 25,-328.5 25,-328.5 19,-328.5 13,-322.5 13,-316.5 13,-316.5 13,-304.5 13,-304.5 13,-298.5 19,-292.5 25,-292.5"/>
<text text-anchor="middle" x="50" y="-308.3" font-family="Arial" font-size="9.00">ret_7: [&#45;inf, inf]</text>
</g>
<!-- Node_10&#45;&gt;Node_11 -->
<g id="edge6" class="edge"><title>Node_10&#45;&gt;Node_11</title>
<path fill="none" stroke="steelblue" d="M49.2421,-365.313C49.3551,-357.289 49.4923,-347.547 49.6187,-338.569"/>
<polygon fill="steelblue" stroke="steelblue" points="53.1189,-338.577 49.7602,-328.529 46.1196,-338.479 53.1189,-338.577"/>
</g>
<!-- Node_11&#45;&gt;Node_6 -->
<g id="edge14" class="edge"><title>Node_11&#45;&gt;Node_6</title>
<path fill="none" stroke="tan" d="M61.3774,-292.313C66.9773,-283.853 73.8419,-273.484 80.0453,-264.112"/>
<polygon fill="tan" stroke="tan" points="83.126,-265.799 85.7274,-255.529 77.289,-261.935 83.126,-265.799"/>
</g>
<!-- Node_12 -->
<g id="node13" class="node"><title>Node_12</title>
<path fill="lightblue" stroke="lightblue" d="M128,-365.5C128,-365.5 164,-365.5 164,-365.5 170,-365.5 176,-371.5 176,-377.5 176,-377.5 176,-389.5 176,-389.5 176,-395.5 170,-401.5 164,-401.5 164,-401.5 128,-401.5 128,-401.5 122,-401.5 116,-395.5 116,-389.5 116,-389.5 116,-377.5 116,-377.5 116,-371.5 122,-365.5 128,-365.5"/>
<text text-anchor="middle" x="146" y="-381.3" font-family="Arial" font-size="9.00">ret_4 = 0.0</text>
</g>
<!-- Node_13 -->
<g id="node14" class="node"><title>Node_13</title>
<path fill="moccasin" stroke="moccasin" d="M119,-292.5C119,-292.5 169,-292.5 169,-292.5 175,-292.5 181,-298.5 181,-304.5 181,-304.5 181,-316.5 181,-316.5 181,-322.5 175,-328.5 169,-328.5 169,-328.5 119,-328.5 119,-328.5 113,-328.5 107,-322.5 107,-316.5 107,-316.5 107,-304.5 107,-304.5 107,-298.5 113,-292.5 119,-292.5"/>
<text text-anchor="middle" x="144" y="-308.3" font-family="Arial" font-size="9.00">ret_4: [&#45;inf, inf]</text>
</g>
<!-- Node_12&#45;&gt;Node_13 -->
<g id="edge7" class="edge"><title>Node_12&#45;&gt;Node_13</title>
<path fill="none" stroke="steelblue" d="M145.516,-365.313C145.29,-357.289 145.015,-347.547 144.763,-338.569"/>
<polygon fill="steelblue" stroke="steelblue" points="148.26,-338.426 144.48,-328.529 141.263,-338.623 148.26,-338.426"/>
</g>
<!-- Node_13&#45;&gt;Node_6 -->
<g id="edge16" class="edge"><title>Node_13&#45;&gt;Node_6</title>
<path fill="none" stroke="tan" d="M132.623,-292.313C127.023,-283.853 120.158,-273.484 113.955,-264.112"/>
<polygon fill="tan" stroke="tan" points="116.711,-261.935 108.273,-255.529 110.874,-265.799 116.711,-261.935"/>
</g>
<!-- Node_15 -->
<g id="node16" class="node"><title>Node_15</title>
<path fill="moccasin" stroke="moccasin" d="M197,-584.5C197,-584.5 241,-584.5 241,-584.5 247,-584.5 253,-590.5 253,-596.5 253,-596.5 253,-608.5 253,-608.5 253,-614.5 247,-620.5 241,-620.5 241,-620.5 197,-620.5 197,-620.5 191,-620.5 185,-614.5 185,-608.5 185,-608.5 185,-596.5 185,-596.5 185,-590.5 191,-584.5 197,-584.5"/>
<text text-anchor="middle" x="219" y="-600.3" font-family="Arial" font-size="9.00">k_8: [&#45;inf, inf]</text>
</g>
<!-- Node_14&#45;&gt;Node_15 -->
<g id="edge8" class="edge"><title>Node_14&#45;&gt;Node_15</title>
<path fill="none" stroke="steelblue" d="M218.242,-657.313C218.355,-649.289 218.492,-639.547 218.619,-630.569"/>
<polygon fill="steelblue" stroke="steelblue" points="222.119,-630.577 218.76,-620.529 215.12,-630.479 222.119,-630.577"/>
</g>
<!-- Node_15&#45;&gt;Node_8 -->
<g id="edge18" class="edge"><title>Node_15&#45;&gt;Node_8</title>
<path fill="none" stroke="tan" d="M212.222,-584.313C208.989,-576.115 205.049,-566.123 201.445,-556.985"/>
<polygon fill="tan" stroke="tan" points="204.64,-555.548 197.716,-547.529 198.128,-558.116 204.64,-555.548"/>
</g>
<!-- Node_16 -->
<g id="node17" class="node"><title>Node_16</title>
<path fill="lightblue" stroke="lightblue" d="M118,-657.5C118,-657.5 148,-657.5 148,-657.5 154,-657.5 160,-663.5 160,-669.5 160,-669.5 160,-681.5 160,-681.5 160,-687.5 154,-693.5 148,-693.5 148,-693.5 118,-693.5 118,-693.5 112,-693.5 106,-687.5 106,-681.5 106,-681.5 106,-669.5 106,-669.5 106,-663.5 112,-657.5 118,-657.5"/>
<text text-anchor="middle" x="133" y="-673.3" font-family="Arial" font-size="9.00">k_3 = 0</text>
</g>
<!-- Node_17 -->
<g id="node18" class="node"><title>Node_17</title>
<path fill="moccasin" stroke="moccasin" d="M111,-584.5C111,-584.5 155,-584.5 155,-584.5 161,-584.5 167,-590.5 167,-596.5 167,-596.5 167,-608.5 167,-608.5 167,-614.5 161,-620.5 155,-620.5 155,-620.5 111,-620.5 111,-620.5 105,-620.5 99,-614.5 99,-608.5 99,-608.5 99,-596.5 99,-596.5 99,-590.5 105,-584.5 111,-584.5"/>
<text text-anchor="middle" x="133" y="-600.3" font-family="Arial" font-size="9.00">k_3: [&#45;inf, inf]</text>
</g>
<!-- Node_16&#45;&gt;Node_17 -->
<g id="edge9" class="edge"><title>Node_16&#45;&gt;Node_17</title>
<path fill="none" stroke="steelblue" d="M133,-657.313C133,-649.289 133,-639.547 133,-630.569"/>
<polygon fill="steelblue" stroke="steelblue" points="136.5,-630.529 133,-620.529 129.5,-630.529 136.5,-630.529"/>
</g>
<!-- Node_17&#45;&gt;Node_8 -->
<g id="edge19" class="edge"><title>Node_17&#45;&gt;Node_8</title>
<path fill="none" stroke="tan" d="M147.04,-584.313C154.093,-575.679 162.772,-565.055 170.55,-555.534"/>
<polygon fill="tan" stroke="tan" points="173.473,-557.488 177.089,-547.529 168.052,-553.059 173.473,-557.488"/>
</g>
<!-- Node_19 -->
<g id="node20" class="node"><title>Node_19</title>
<path fill="moccasin" stroke="moccasin" d="M29.5,-584.5C29.5,-584.5 68.5,-584.5 68.5,-584.5 74.5,-584.5 80.5,-590.5 80.5,-596.5 80.5,-596.5 80.5,-608.5 80.5,-608.5 80.5,-614.5 74.5,-620.5 68.5,-620.5 68.5,-620.5 29.5,-620.5 29.5,-620.5 23.5,-620.5 17.5,-614.5 17.5,-608.5 17.5,-608.5 17.5,-596.5 17.5,-596.5 17.5,-590.5 23.5,-584.5 29.5,-584.5"/>
<text text-anchor="middle" x="49" y="-600.3" font-family="Arial" font-size="9.00">_5: [&#45;inf, inf]</text>
</g>
<!-- Node_18&#45;&gt;Node_19 -->
<g id="edge10" class="edge"><title>Node_18&#45;&gt;Node_19</title>
<path fill="none" stroke="steelblue" d="M49.7579,-657.313C49.6449,-649.289 49.5077,-639.547 49.3813,-630.569"/>
<polygon fill="steelblue" stroke="steelblue" points="52.8804,-630.479 49.2398,-620.529 45.8811,-630.577 52.8804,-630.479"/>
</g>
<!-- Node_19&#45;&gt;Node_4 -->
<g id="edge17" class="edge"><title>Node_19&#45;&gt;Node_4</title>
<path fill="none" stroke="tan" d="M49,-584.313C49,-576.289 49,-566.547 49,-557.569"/>
<polygon fill="tan" stroke="tan" points="52.5001,-557.529 49,-547.529 45.5001,-557.529 52.5001,-557.529"/>
</g>
</g>
</svg>
