<?xml version="1.0" encoding="UTF-8" standalone="no"?>
<!DOCTYPE svg PUBLIC "-//W3C//DTD SVG 1.1//EN"
 "http://www.w3.org/Graphics/SVG/1.1/DTD/svg11.dtd">
<!-- Generated by graphviz version 2.38.0 (20140413.2041)
 -->
<!-- Title: t5_foo_final_ConstraintGraph Pages: 1 -->
<svg width="416pt" height="796pt"
     viewBox="0.00 0.00 416.00 796.00" xmlns="http://www.w3.org/2000/svg">
<g id="graph0" class="graph" transform="scale(1 1) rotate(0) translate(4 792)">
<title>t5_foo_final_ConstraintGraph</title>
<polygon fill="white" stroke="none" points="-4,4 -4,-792 412,-792 412,4 -4,4"/>
<text text-anchor="middle" x="204" y="-774.4" font-family="Arial" font-size="12.00">t5_foo_final_ConstraintGraph</text>
<!-- Node_0 -->
<g id="node1" class="node"><title>Node_0</title>
<path fill="lightblue" stroke="lightblue" d="M20.5,-365.5C20.5,-365.5 56.5,-365.5 56.5,-365.5 62.5,-365.5 68.5,-371.5 68.5,-377.5 68.5,-377.5 68.5,-389.5 68.5,-389.5 68.5,-395.5 62.5,-401.5 56.5,-401.5 56.5,-401.5 20.5,-401.5 20.5,-401.5 14.5,-401.5 8.5,-395.5 8.5,-389.5 8.5,-389.5 8.5,-377.5 8.5,-377.5 8.5,-371.5 14.5,-365.5 20.5,-365.5"/>
<text text-anchor="middle" x="38.5" y="-381.3" font-family="Arial" font-size="9.00">ret_4 = 0.0</text>
</g>
<!-- Node_1 -->
<g id="node2" class="node"><title>Node_1</title>
<path fill="moccasin" stroke="moccasin" d="M12,-292.5C12,-292.5 65,-292.5 65,-292.5 71,-292.5 77,-298.5 77,-304.5 77,-304.5 77,-316.5 77,-316.5 77,-322.5 71,-328.5 65,-328.5 65,-328.5 12,-328.5 12,-328.5 6,-328.5 0,-322.5 0,-316.5 0,-316.5 0,-304.5 0,-304.5 0,-298.5 6,-292.5 12,-292.5"/>
<text text-anchor="middle" x="38.5" y="-308.3" font-family="Arial" font-size="9.00">ret_4: [0.0, 0.0]</text>
</g>
<!-- Node_0&#45;&gt;Node_1 -->
<g id="edge1" class="edge"><title>Node_0&#45;&gt;Node_1</title>
<path fill="none" stroke="steelblue" d="M38.5,-365.313C38.5,-357.289 38.5,-347.547 38.5,-338.569"/>
<polygon fill="steelblue" stroke="steelblue" points="42.0001,-338.529 38.5,-328.529 35.0001,-338.529 42.0001,-338.529"/>
</g>
<!-- Node_4 -->
<g id="node5" class="node"><title>Node_4</title>
<path fill="lightblue" stroke="lightblue" d="M25.5,-219.5C25.5,-219.5 153.5,-219.5 153.5,-219.5 159.5,-219.5 165.5,-225.5 165.5,-231.5 165.5,-231.5 165.5,-243.5 165.5,-243.5 165.5,-249.5 159.5,-255.5 153.5,-255.5 153.5,-255.5 25.5,-255.5 25.5,-255.5 19.5,-255.5 13.5,-249.5 13.5,-243.5 13.5,-243.5 13.5,-231.5 13.5,-231.5 13.5,-225.5 19.5,-219.5 25.5,-219.5"/>
<text text-anchor="middle" x="89.5" y="-235.3" font-family="Arial" font-size="9.00"># ret_2 = PHI &lt;ret_4(2), ret_7(3)&gt;</text>
</g>
<!-- Node_1&#45;&gt;Node_4 -->
<g id="edge17" class="edge"><title>Node_1&#45;&gt;Node_4</title>
<path fill="none" stroke="tan" d="M50.8457,-292.313C56.9848,-283.766 64.5247,-273.269 71.3103,-263.823"/>
<polygon fill="tan" stroke="tan" points="74.2766,-265.693 77.268,-255.529 68.5913,-261.609 74.2766,-265.693"/>
</g>
<!-- Node_2 -->
<g id="node3" class="node"><title>Node_2</title>
<path fill="lightblue" stroke="lightblue" d="M249.5,-511.5C249.5,-511.5 359.5,-511.5 359.5,-511.5 365.5,-511.5 371.5,-517.5 371.5,-523.5 371.5,-523.5 371.5,-535.5 371.5,-535.5 371.5,-541.5 365.5,-547.5 359.5,-547.5 359.5,-547.5 249.5,-547.5 249.5,-547.5 243.5,-547.5 237.5,-541.5 237.5,-535.5 237.5,-535.5 237.5,-523.5 237.5,-523.5 237.5,-517.5 243.5,-511.5 249.5,-511.5"/>
<text text-anchor="middle" x="304.5" y="-527.3" font-family="Arial" font-size="9.00"># k_1 = PHI &lt;k_3(2), k_8(3)&gt;</text>
</g>
<!-- Node_3 -->
<g id="node4" class="node"><title>Node_3</title>
<path fill="moccasin" stroke="moccasin" d="M263,-438.5C263,-438.5 320,-438.5 320,-438.5 326,-438.5 332,-444.5 332,-450.5 332,-450.5 332,-462.5 332,-462.5 332,-468.5 326,-474.5 320,-474.5 320,-474.5 263,-474.5 263,-474.5 257,-474.5 251,-468.5 251,-462.5 251,-462.5 251,-450.5 251,-450.5 251,-444.5 257,-438.5 263,-438.5"/>
<text text-anchor="middle" x="291.5" y="-454.3" font-family="Arial" font-size="9.00">k_1: [0.0, 101.0]</text>
</g>
<!-- Node_2&#45;&gt;Node_3 -->
<g id="edge2" class="edge"><title>Node_2&#45;&gt;Node_3</title>
<path fill="none" stroke="steelblue" d="M301.353,-511.313C299.884,-503.289 298.1,-493.547 296.456,-484.569"/>
<polygon fill="steelblue" stroke="steelblue" points="299.862,-483.735 294.618,-474.529 292.976,-484.996 299.862,-483.735"/>
</g>
<!-- Node_14 -->
<g id="node15" class="node"><title>Node_14</title>
<path fill="lightblue" stroke="lightblue" d="M243,-365.5C243,-365.5 294,-365.5 294,-365.5 300,-365.5 306,-371.5 306,-377.5 306,-377.5 306,-389.5 306,-389.5 306,-395.5 300,-401.5 294,-401.5 294,-401.5 243,-401.5 243,-401.5 237,-401.5 231,-395.5 231,-389.5 231,-389.5 231,-377.5 231,-377.5 231,-371.5 237,-365.5 243,-365.5"/>
<text text-anchor="middle" x="268.5" y="-381.3" font-family="Arial" font-size="9.00">if (k_1 &lt;= 100)</text>
</g>
<!-- Node_3&#45;&gt;Node_14 -->
<g id="edge13" class="edge"><title>Node_3&#45;&gt;Node_14</title>
<path fill="none" stroke="tan" d="M285.932,-438.313C283.305,-430.202 280.109,-420.336 277.174,-411.277"/>
<polygon fill="tan" stroke="tan" points="280.428,-409.963 274.016,-401.529 273.769,-412.121 280.428,-409.963"/>
</g>
<!-- Node_5 -->
<g id="node6" class="node"><title>Node_5</title>
<path fill="moccasin" stroke="moccasin" d="M58,-146.5C58,-146.5 121,-146.5 121,-146.5 127,-146.5 133,-152.5 133,-158.5 133,-158.5 133,-170.5 133,-170.5 133,-176.5 127,-182.5 121,-182.5 121,-182.5 58,-182.5 58,-182.5 52,-182.5 46,-176.5 46,-170.5 46,-170.5 46,-158.5 46,-158.5 46,-152.5 52,-146.5 58,-146.5"/>
<text text-anchor="middle" x="89.5" y="-162.3" font-family="Arial" font-size="9.00">ret_2: [0.0, 210.0]</text>
</g>
<!-- Node_4&#45;&gt;Node_5 -->
<g id="edge3" class="edge"><title>Node_4&#45;&gt;Node_5</title>
<path fill="none" stroke="steelblue" d="M89.5,-219.313C89.5,-211.289 89.5,-201.547 89.5,-192.569"/>
<polygon fill="steelblue" stroke="steelblue" points="93.0001,-192.529 89.5,-182.529 86.0001,-192.529 93.0001,-192.529"/>
</g>
<!-- Node_12 -->
<g id="node13" class="node"><title>Node_12</title>
<path fill="lightblue" stroke="lightblue" d="M63.5,-73.5C63.5,-73.5 115.5,-73.5 115.5,-73.5 121.5,-73.5 127.5,-79.5 127.5,-85.5 127.5,-85.5 127.5,-97.5 127.5,-97.5 127.5,-103.5 121.5,-109.5 115.5,-109.5 115.5,-109.5 63.5,-109.5 63.5,-109.5 57.5,-109.5 51.5,-103.5 51.5,-97.5 51.5,-97.5 51.5,-85.5 51.5,-85.5 51.5,-79.5 57.5,-73.5 63.5,-73.5"/>
<text text-anchor="middle" x="89.5" y="-89.3" font-family="Arial" font-size="9.00">_9 = (int) ret_2</text>
</g>
<!-- Node_5&#45;&gt;Node_12 -->
<g id="edge15" class="edge"><title>Node_5&#45;&gt;Node_12</title>
<path fill="none" stroke="tan" d="M89.5,-146.313C89.5,-138.289 89.5,-128.547 89.5,-119.569"/>
<polygon fill="tan" stroke="tan" points="93.0001,-119.529 89.5,-109.529 86.0001,-119.529 93.0001,-119.529"/>
</g>
<!-- Node_6 -->
<g id="node7" class="node"><title>Node_6</title>
<path fill="lightblue" stroke="lightblue" d="M119,-657.5C119,-657.5 168,-657.5 168,-657.5 174,-657.5 180,-663.5 180,-669.5 180,-669.5 180,-681.5 180,-681.5 180,-687.5 174,-693.5 168,-693.5 168,-693.5 119,-693.5 119,-693.5 113,-693.5 107,-687.5 107,-681.5 107,-681.5 107,-669.5 107,-669.5 107,-663.5 113,-657.5 119,-657.5"/>
<text text-anchor="middle" x="143.5" y="-673.3" font-family="Arial" font-size="9.00">_5 = k_1_t * 2</text>
</g>
<!-- Node_7 -->
<g id="node8" class="node"><title>Node_7</title>
<path fill="moccasin" stroke="moccasin" d="M115,-584.5C115,-584.5 168,-584.5 168,-584.5 174,-584.5 180,-590.5 180,-596.5 180,-596.5 180,-608.5 180,-608.5 180,-614.5 174,-620.5 168,-620.5 168,-620.5 115,-620.5 115,-620.5 109,-620.5 103,-614.5 103,-608.5 103,-608.5 103,-596.5 103,-596.5 103,-590.5 109,-584.5 115,-584.5"/>
<text text-anchor="middle" x="141.5" y="-600.3" font-family="Arial" font-size="9.00">_5: [0.0, 200.0]</text>
</g>
<!-- Node_6&#45;&gt;Node_7 -->
<g id="edge4" class="edge"><title>Node_6&#45;&gt;Node_7</title>
<path fill="none" stroke="steelblue" d="M143.016,-657.313C142.79,-649.289 142.515,-639.547 142.263,-630.569"/>
<polygon fill="steelblue" stroke="steelblue" points="145.76,-630.426 141.98,-620.529 138.763,-630.623 145.76,-630.426"/>
</g>
<!-- Node_8 -->
<g id="node9" class="node"><title>Node_8</title>
<path fill="lightblue" stroke="lightblue" d="M116,-511.5C116,-511.5 167,-511.5 167,-511.5 173,-511.5 179,-517.5 179,-523.5 179,-523.5 179,-535.5 179,-535.5 179,-541.5 173,-547.5 167,-547.5 167,-547.5 116,-547.5 116,-547.5 110,-547.5 104,-541.5 104,-535.5 104,-535.5 104,-523.5 104,-523.5 104,-517.5 110,-511.5 116,-511.5"/>
<text text-anchor="middle" x="141.5" y="-527.3" font-family="Arial" font-size="9.00">j_6 = (float) _5</text>
</g>
<!-- Node_7&#45;&gt;Node_8 -->
<g id="edge12" class="edge"><title>Node_7&#45;&gt;Node_8</title>
<path fill="none" stroke="tan" d="M141.5,-584.313C141.5,-576.289 141.5,-566.547 141.5,-557.569"/>
<polygon fill="tan" stroke="tan" points="145,-557.529 141.5,-547.529 138,-557.529 145,-557.529"/>
</g>
<!-- Node_9 -->
<g id="node10" class="node"><title>Node_9</title>
<path fill="moccasin" stroke="moccasin" d="M114,-438.5C114,-438.5 169,-438.5 169,-438.5 175,-438.5 181,-444.5 181,-450.5 181,-450.5 181,-462.5 181,-462.5 181,-468.5 175,-474.5 169,-474.5 169,-474.5 114,-474.5 114,-474.5 108,-474.5 102,-468.5 102,-462.5 102,-462.5 102,-450.5 102,-450.5 102,-444.5 108,-438.5 114,-438.5"/>
<text text-anchor="middle" x="141.5" y="-454.3" font-family="Arial" font-size="9.00">j_6: [0.0, 200.0]</text>
</g>
<!-- Node_8&#45;&gt;Node_9 -->
<g id="edge5" class="edge"><title>Node_8&#45;&gt;Node_9</title>
<path fill="none" stroke="steelblue" d="M141.5,-511.313C141.5,-503.289 141.5,-493.547 141.5,-484.569"/>
<polygon fill="steelblue" stroke="steelblue" points="145,-484.529 141.5,-474.529 138,-484.529 145,-484.529"/>
</g>
<!-- Node_18 -->
<g id="node19" class="node"><title>Node_18</title>
<path fill="lightblue" stroke="lightblue" d="M104.5,-365.5C104.5,-365.5 178.5,-365.5 178.5,-365.5 184.5,-365.5 190.5,-371.5 190.5,-377.5 190.5,-377.5 190.5,-389.5 190.5,-389.5 190.5,-395.5 184.5,-401.5 178.5,-401.5 178.5,-401.5 104.5,-401.5 104.5,-401.5 98.5,-401.5 92.5,-395.5 92.5,-389.5 92.5,-389.5 92.5,-377.5 92.5,-377.5 92.5,-371.5 98.5,-365.5 104.5,-365.5"/>
<text text-anchor="middle" x="141.5" y="-381.3" font-family="Arial" font-size="9.00">ret_7 = j_6 + 1.0e+1</text>
</g>
<!-- Node_9&#45;&gt;Node_18 -->
<g id="edge18" class="edge"><title>Node_9&#45;&gt;Node_18</title>
<path fill="none" stroke="tan" d="M141.5,-438.313C141.5,-430.289 141.5,-420.547 141.5,-411.569"/>
<polygon fill="tan" stroke="tan" points="145,-411.529 141.5,-401.529 138,-411.529 145,-411.529"/>
</g>
<!-- Node_10 -->
<g id="node11" class="node"><title>Node_10</title>
<path fill="lightblue" stroke="lightblue" d="M250,-657.5C250,-657.5 305,-657.5 305,-657.5 311,-657.5 317,-663.5 317,-669.5 317,-669.5 317,-681.5 317,-681.5 317,-687.5 311,-693.5 305,-693.5 305,-693.5 250,-693.5 250,-693.5 244,-693.5 238,-687.5 238,-681.5 238,-681.5 238,-669.5 238,-669.5 238,-663.5 244,-657.5 250,-657.5"/>
<text text-anchor="middle" x="277.5" y="-673.3" font-family="Arial" font-size="9.00">k_8 = k_1_t + 1</text>
</g>
<!-- Node_11 -->
<g id="node12" class="node"><title>Node_11</title>
<path fill="moccasin" stroke="moccasin" d="M250,-584.5C250,-584.5 307,-584.5 307,-584.5 313,-584.5 319,-590.5 319,-596.5 319,-596.5 319,-608.5 319,-608.5 319,-614.5 313,-620.5 307,-620.5 307,-620.5 250,-620.5 250,-620.5 244,-620.5 238,-614.5 238,-608.5 238,-608.5 238,-596.5 238,-596.5 238,-590.5 244,-584.5 250,-584.5"/>
<text text-anchor="middle" x="278.5" y="-600.3" font-family="Arial" font-size="9.00">k_8: [1.0, 101.0]</text>
</g>
<!-- Node_10&#45;&gt;Node_11 -->
<g id="edge6" class="edge"><title>Node_10&#45;&gt;Node_11</title>
<path fill="none" stroke="steelblue" d="M277.742,-657.313C277.855,-649.289 277.992,-639.547 278.119,-630.569"/>
<polygon fill="steelblue" stroke="steelblue" points="281.619,-630.577 278.26,-620.529 274.62,-630.479 281.619,-630.577"/>
</g>
<!-- Node_11&#45;&gt;Node_2 -->
<g id="edge16" class="edge"><title>Node_11&#45;&gt;Node_2</title>
<path fill="none" stroke="tan" d="M284.794,-584.313C287.796,-576.115 291.455,-566.123 294.801,-556.985"/>
<polygon fill="tan" stroke="tan" points="298.112,-558.123 298.264,-547.529 291.539,-555.715 298.112,-558.123"/>
</g>
<!-- Node_13 -->
<g id="node14" class="node"><title>Node_13</title>
<path fill="moccasin" stroke="moccasin" d="M54,-0.5C54,-0.5 125,-0.5 125,-0.5 131,-0.5 137,-6.5 137,-12.5 137,-12.5 137,-24.5 137,-24.5 137,-30.5 131,-36.5 125,-36.5 125,-36.5 54,-36.5 54,-36.5 48,-36.5 42,-30.5 42,-24.5 42,-24.5 42,-12.5 42,-12.5 42,-6.5 48,-0.5 54,-0.5"/>
<text text-anchor="middle" x="89.5" y="-16.3" font-family="Arial" font-size="9.00">_9: [&#45;Infinity, Infinity]</text>
</g>
<!-- Node_12&#45;&gt;Node_13 -->
<g id="edge7" class="edge"><title>Node_12&#45;&gt;Node_13</title>
<path fill="none" stroke="steelblue" d="M89.5,-73.3129C89.5,-65.2895 89.5,-55.5475 89.5,-46.5691"/>
<polygon fill="steelblue" stroke="steelblue" points="93.0001,-46.5288 89.5,-36.5288 86.0001,-46.5289 93.0001,-46.5288"/>
</g>
<!-- Node_15 -->
<g id="node16" class="node"><title>Node_15</title>
<path fill="moccasin" stroke="moccasin" d="M177,-730.5C177,-730.5 242,-730.5 242,-730.5 248,-730.5 254,-736.5 254,-742.5 254,-742.5 254,-754.5 254,-754.5 254,-760.5 248,-766.5 242,-766.5 242,-766.5 177,-766.5 177,-766.5 171,-766.5 165,-760.5 165,-754.5 165,-754.5 165,-742.5 165,-742.5 165,-736.5 171,-730.5 177,-730.5"/>
<text text-anchor="middle" x="209.5" y="-746.3" font-family="Arial" font-size="9.00">k_1_t: [0.0, 100.0]</text>
</g>
<!-- Node_14&#45;&gt;Node_15 -->
<g id="edge8" class="edge"><title>Node_14&#45;&gt;Node_15</title>
<path fill="none" stroke="steelblue" d="M256.275,-401.745C238.994,-427.863 209.5,-479.599 209.5,-528.5 209.5,-603.5 209.5,-603.5 209.5,-603.5 209.5,-644.067 209.5,-691.063 209.5,-720.039"/>
<polygon fill="steelblue" stroke="steelblue" points="206,-720.211 209.5,-730.211 213,-720.211 206,-720.211"/>
</g>
<!-- Node_15&#45;&gt;Node_6 -->
<g id="edge19" class="edge"><title>Node_15&#45;&gt;Node_6</title>
<path fill="none" stroke="tan" d="M193.523,-730.313C185.335,-721.505 175.222,-710.625 166.236,-700.958"/>
<polygon fill="tan" stroke="tan" points="168.702,-698.47 159.33,-693.529 163.575,-703.236 168.702,-698.47"/>
</g>
<!-- Node_15&#45;&gt;Node_10 -->
<g id="edge20" class="edge"><title>Node_15&#45;&gt;Node_10</title>
<path fill="none" stroke="tan" d="M225.961,-730.313C234.397,-721.505 244.817,-710.625 254.075,-700.958"/>
<polygon fill="tan" stroke="tan" points="256.802,-703.172 261.191,-693.529 251.746,-698.33 256.802,-703.172"/>
</g>
<!-- Node_16 -->
<g id="node17" class="node"><title>Node_16</title>
<path fill="lightblue" stroke="lightblue" d="M357.5,-657.5C357.5,-657.5 387.5,-657.5 387.5,-657.5 393.5,-657.5 399.5,-663.5 399.5,-669.5 399.5,-669.5 399.5,-681.5 399.5,-681.5 399.5,-687.5 393.5,-693.5 387.5,-693.5 387.5,-693.5 357.5,-693.5 357.5,-693.5 351.5,-693.5 345.5,-687.5 345.5,-681.5 345.5,-681.5 345.5,-669.5 345.5,-669.5 345.5,-663.5 351.5,-657.5 357.5,-657.5"/>
<text text-anchor="middle" x="372.5" y="-673.3" font-family="Arial" font-size="9.00">k_3 = 0</text>
</g>
<!-- Node_17 -->
<g id="node18" class="node"><title>Node_17</title>
<path fill="moccasin" stroke="moccasin" d="M349,-584.5C349,-584.5 396,-584.5 396,-584.5 402,-584.5 408,-590.5 408,-596.5 408,-596.5 408,-608.5 408,-608.5 408,-614.5 402,-620.5 396,-620.5 396,-620.5 349,-620.5 349,-620.5 343,-620.5 337,-614.5 337,-608.5 337,-608.5 337,-596.5 337,-596.5 337,-590.5 343,-584.5 349,-584.5"/>
<text text-anchor="middle" x="372.5" y="-600.3" font-family="Arial" font-size="9.00">k_3: [0.0, 0.0]</text>
</g>
<!-- Node_16&#45;&gt;Node_17 -->
<g id="edge9" class="edge"><title>Node_16&#45;&gt;Node_17</title>
<path fill="none" stroke="steelblue" d="M372.5,-657.313C372.5,-649.289 372.5,-639.547 372.5,-630.569"/>
<polygon fill="steelblue" stroke="steelblue" points="376,-630.529 372.5,-620.529 369,-630.529 376,-630.529"/>
</g>
<!-- Node_17&#45;&gt;Node_2 -->
<g id="edge11" class="edge"><title>Node_17&#45;&gt;Node_2</title>
<path fill="none" stroke="tan" d="M356.039,-584.313C347.603,-575.505 337.183,-564.625 327.925,-554.958"/>
<polygon fill="tan" stroke="tan" points="330.254,-552.33 320.809,-547.529 325.198,-557.172 330.254,-552.33"/>
</g>
<!-- Node_19 -->
<g id="node20" class="node"><title>Node_19</title>
<path fill="moccasin" stroke="moccasin" d="M107.5,-292.5C107.5,-292.5 175.5,-292.5 175.5,-292.5 181.5,-292.5 187.5,-298.5 187.5,-304.5 187.5,-304.5 187.5,-316.5 187.5,-316.5 187.5,-322.5 181.5,-328.5 175.5,-328.5 175.5,-328.5 107.5,-328.5 107.5,-328.5 101.5,-328.5 95.5,-322.5 95.5,-316.5 95.5,-316.5 95.5,-304.5 95.5,-304.5 95.5,-298.5 101.5,-292.5 107.5,-292.5"/>
<text text-anchor="middle" x="141.5" y="-308.3" font-family="Arial" font-size="9.00">ret_7: [10.0, 210.0]</text>
</g>
<!-- Node_18&#45;&gt;Node_19 -->
<g id="edge10" class="edge"><title>Node_18&#45;&gt;Node_19</title>
<path fill="none" stroke="steelblue" d="M141.5,-365.313C141.5,-357.289 141.5,-347.547 141.5,-338.569"/>
<polygon fill="steelblue" stroke="steelblue" points="145,-338.529 141.5,-328.529 138,-338.529 145,-338.529"/>
</g>
<!-- Node_19&#45;&gt;Node_4 -->
<g id="edge14" class="edge"><title>Node_19&#45;&gt;Node_4</title>
<path fill="none" stroke="tan" d="M128.912,-292.313C122.653,-283.766 114.965,-273.269 108.046,-263.823"/>
<polygon fill="tan" stroke="tan" points="110.704,-261.528 101.972,-255.529 105.057,-265.665 110.704,-261.528"/>
</g>
</g>
</svg>
