<?xml version="1.0" encoding="UTF-8" standalone="no"?>
<!DOCTYPE svg PUBLIC "-//W3C//DTD SVG 1.1//EN"
 "http://www.w3.org/Graphics/SVG/1.1/DTD/svg11.dtd">
<!-- Generated by graphviz version 2.38.0 (20140413.2041)
 -->
<!-- Title: t5_foo_ConstraintGraph Pages: 1 -->
<svg width="505pt" height="796pt"
     viewBox="0.00 0.00 505.00 796.00" xmlns="http://www.w3.org/2000/svg">
<g id="graph0" class="graph" transform="scale(1 1) rotate(0) translate(4 792)">
<title>t5_foo_ConstraintGraph</title>
<polygon fill="white" stroke="none" points="-4,4 -4,-792 501,-792 501,4 -4,4"/>
<text text-anchor="middle" x="248.5" y="-774.4" font-family="Arial" font-size="12.00">t5_foo_ConstraintGraph</text>
<!-- Node_0 -->
<g id="node1" class="node"><title>Node_0</title>
<path fill="lightblue" stroke="lightblue" d="M49.5,-219.5C49.5,-219.5 177.5,-219.5 177.5,-219.5 183.5,-219.5 189.5,-225.5 189.5,-231.5 189.5,-231.5 189.5,-243.5 189.5,-243.5 189.5,-249.5 183.5,-255.5 177.5,-255.5 177.5,-255.5 49.5,-255.5 49.5,-255.5 43.5,-255.5 37.5,-249.5 37.5,-243.5 37.5,-243.5 37.5,-231.5 37.5,-231.5 37.5,-225.5 43.5,-219.5 49.5,-219.5"/>
<text text-anchor="middle" x="113.5" y="-235.3" font-family="Arial" font-size="9.00"># ret_2 = PHI &lt;ret_4(2), ret_7(3)&gt;</text>
</g>
<!-- Node_1 -->
<g id="node2" class="node"><title>Node_1</title>
<path fill="moccasin" stroke="moccasin" d="M73,-146.5C73,-146.5 154,-146.5 154,-146.5 160,-146.5 166,-152.5 166,-158.5 166,-158.5 166,-170.5 166,-170.5 166,-176.5 160,-182.5 154,-182.5 154,-182.5 73,-182.5 73,-182.5 67,-182.5 61,-176.5 61,-170.5 61,-170.5 61,-158.5 61,-158.5 61,-152.5 67,-146.5 73,-146.5"/>
<text text-anchor="middle" x="113.5" y="-162.3" font-family="Arial" font-size="9.00">ret_2: [&#45;Infinity, Infinity]</text>
</g>
<!-- Node_0&#45;&gt;Node_1 -->
<g id="edge1" class="edge"><title>Node_0&#45;&gt;Node_1</title>
<path fill="none" stroke="steelblue" d="M113.5,-219.313C113.5,-211.289 113.5,-201.547 113.5,-192.569"/>
<polygon fill="steelblue" stroke="steelblue" points="117,-192.529 113.5,-182.529 110,-192.529 117,-192.529"/>
</g>
<!-- Node_18 -->
<g id="node19" class="node"><title>Node_18</title>
<path fill="lightblue" stroke="lightblue" d="M87.5,-73.5C87.5,-73.5 139.5,-73.5 139.5,-73.5 145.5,-73.5 151.5,-79.5 151.5,-85.5 151.5,-85.5 151.5,-97.5 151.5,-97.5 151.5,-103.5 145.5,-109.5 139.5,-109.5 139.5,-109.5 87.5,-109.5 87.5,-109.5 81.5,-109.5 75.5,-103.5 75.5,-97.5 75.5,-97.5 75.5,-85.5 75.5,-85.5 75.5,-79.5 81.5,-73.5 87.5,-73.5"/>
<text text-anchor="middle" x="113.5" y="-89.3" font-family="Arial" font-size="9.00">_9 = (int) ret_2</text>
</g>
<!-- Node_1&#45;&gt;Node_18 -->
<g id="edge13" class="edge"><title>Node_1&#45;&gt;Node_18</title>
<path fill="none" stroke="tan" d="M113.5,-146.313C113.5,-138.289 113.5,-128.547 113.5,-119.569"/>
<polygon fill="tan" stroke="tan" points="117,-119.529 113.5,-109.529 110,-119.529 117,-119.529"/>
</g>
<!-- Node_2 -->
<g id="node3" class="node"><title>Node_2</title>
<path fill="lightblue" stroke="lightblue" d="M432.5,-657.5C432.5,-657.5 462.5,-657.5 462.5,-657.5 468.5,-657.5 474.5,-663.5 474.5,-669.5 474.5,-669.5 474.5,-681.5 474.5,-681.5 474.5,-687.5 468.5,-693.5 462.5,-693.5 462.5,-693.5 432.5,-693.5 432.5,-693.5 426.5,-693.5 420.5,-687.5 420.5,-681.5 420.5,-681.5 420.5,-669.5 420.5,-669.5 420.5,-663.5 426.5,-657.5 432.5,-657.5"/>
<text text-anchor="middle" x="447.5" y="-673.3" font-family="Arial" font-size="9.00">k_3 = 0</text>
</g>
<!-- Node_3 -->
<g id="node4" class="node"><title>Node_3</title>
<path fill="moccasin" stroke="moccasin" d="M410,-584.5C410,-584.5 485,-584.5 485,-584.5 491,-584.5 497,-590.5 497,-596.5 497,-596.5 497,-608.5 497,-608.5 497,-614.5 491,-620.5 485,-620.5 485,-620.5 410,-620.5 410,-620.5 404,-620.5 398,-614.5 398,-608.5 398,-608.5 398,-596.5 398,-596.5 398,-590.5 404,-584.5 410,-584.5"/>
<text text-anchor="middle" x="447.5" y="-600.3" font-family="Arial" font-size="9.00">k_3: [&#45;Infinity, Infinity]</text>
</g>
<!-- Node_2&#45;&gt;Node_3 -->
<g id="edge2" class="edge"><title>Node_2&#45;&gt;Node_3</title>
<path fill="none" stroke="steelblue" d="M447.5,-657.313C447.5,-649.289 447.5,-639.547 447.5,-630.569"/>
<polygon fill="steelblue" stroke="steelblue" points="451,-630.529 447.5,-620.529 444,-630.529 451,-630.529"/>
</g>
<!-- Node_14 -->
<g id="node15" class="node"><title>Node_14</title>
<path fill="lightblue" stroke="lightblue" d="M292.5,-511.5C292.5,-511.5 402.5,-511.5 402.5,-511.5 408.5,-511.5 414.5,-517.5 414.5,-523.5 414.5,-523.5 414.5,-535.5 414.5,-535.5 414.5,-541.5 408.5,-547.5 402.5,-547.5 402.5,-547.5 292.5,-547.5 292.5,-547.5 286.5,-547.5 280.5,-541.5 280.5,-535.5 280.5,-535.5 280.5,-523.5 280.5,-523.5 280.5,-517.5 286.5,-511.5 292.5,-511.5"/>
<text text-anchor="middle" x="347.5" y="-527.3" font-family="Arial" font-size="9.00"># k_1 = PHI &lt;k_3(2), k_8(3)&gt;</text>
</g>
<!-- Node_3&#45;&gt;Node_14 -->
<g id="edge11" class="edge"><title>Node_3&#45;&gt;Node_14</title>
<path fill="none" stroke="tan" d="M423.548,-584.494C410.532,-575.253 394.25,-563.692 380.094,-553.642"/>
<polygon fill="tan" stroke="tan" points="381.784,-550.549 371.604,-547.614 377.731,-556.257 381.784,-550.549"/>
</g>
<!-- Node_4 -->
<g id="node5" class="node"><title>Node_4</title>
<path fill="lightblue" stroke="lightblue" d="M34.5,-365.5C34.5,-365.5 70.5,-365.5 70.5,-365.5 76.5,-365.5 82.5,-371.5 82.5,-377.5 82.5,-377.5 82.5,-389.5 82.5,-389.5 82.5,-395.5 76.5,-401.5 70.5,-401.5 70.5,-401.5 34.5,-401.5 34.5,-401.5 28.5,-401.5 22.5,-395.5 22.5,-389.5 22.5,-389.5 22.5,-377.5 22.5,-377.5 22.5,-371.5 28.5,-365.5 34.5,-365.5"/>
<text text-anchor="middle" x="52.5" y="-381.3" font-family="Arial" font-size="9.00">ret_4 = 0.0</text>
</g>
<!-- Node_5 -->
<g id="node6" class="node"><title>Node_5</title>
<path fill="moccasin" stroke="moccasin" d="M12,-292.5C12,-292.5 93,-292.5 93,-292.5 99,-292.5 105,-298.5 105,-304.5 105,-304.5 105,-316.5 105,-316.5 105,-322.5 99,-328.5 93,-328.5 93,-328.5 12,-328.5 12,-328.5 6,-328.5 0,-322.5 0,-316.5 0,-316.5 0,-304.5 0,-304.5 0,-298.5 6,-292.5 12,-292.5"/>
<text text-anchor="middle" x="52.5" y="-308.3" font-family="Arial" font-size="9.00">ret_4: [&#45;Infinity, Infinity]</text>
</g>
<!-- Node_4&#45;&gt;Node_5 -->
<g id="edge3" class="edge"><title>Node_4&#45;&gt;Node_5</title>
<path fill="none" stroke="steelblue" d="M52.5,-365.313C52.5,-357.289 52.5,-347.547 52.5,-338.569"/>
<polygon fill="steelblue" stroke="steelblue" points="56.0001,-338.529 52.5,-328.529 49.0001,-338.529 56.0001,-338.529"/>
</g>
<!-- Node_5&#45;&gt;Node_0 -->
<g id="edge14" class="edge"><title>Node_5&#45;&gt;Node_0</title>
<path fill="none" stroke="tan" d="M67.2664,-292.313C74.7591,-283.592 83.9964,-272.84 92.2394,-263.246"/>
<polygon fill="tan" stroke="tan" points="95.0076,-265.395 98.8696,-255.529 89.6981,-260.833 95.0076,-265.395"/>
</g>
<!-- Node_6 -->
<g id="node7" class="node"><title>Node_6</title>
<path fill="lightblue" stroke="lightblue" d="M150,-511.5C150,-511.5 201,-511.5 201,-511.5 207,-511.5 213,-517.5 213,-523.5 213,-523.5 213,-535.5 213,-535.5 213,-541.5 207,-547.5 201,-547.5 201,-547.5 150,-547.5 150,-547.5 144,-547.5 138,-541.5 138,-535.5 138,-535.5 138,-523.5 138,-523.5 138,-517.5 144,-511.5 150,-511.5"/>
<text text-anchor="middle" x="175.5" y="-527.3" font-family="Arial" font-size="9.00">j_6 = (float) _5</text>
</g>
<!-- Node_7 -->
<g id="node8" class="node"><title>Node_7</title>
<path fill="moccasin" stroke="moccasin" d="M139,-438.5C139,-438.5 212,-438.5 212,-438.5 218,-438.5 224,-444.5 224,-450.5 224,-450.5 224,-462.5 224,-462.5 224,-468.5 218,-474.5 212,-474.5 212,-474.5 139,-474.5 139,-474.5 133,-474.5 127,-468.5 127,-462.5 127,-462.5 127,-450.5 127,-450.5 127,-444.5 133,-438.5 139,-438.5"/>
<text text-anchor="middle" x="175.5" y="-454.3" font-family="Arial" font-size="9.00">j_6: [&#45;Infinity, Infinity]</text>
</g>
<!-- Node_6&#45;&gt;Node_7 -->
<g id="edge4" class="edge"><title>Node_6&#45;&gt;Node_7</title>
<path fill="none" stroke="steelblue" d="M175.5,-511.313C175.5,-503.289 175.5,-493.547 175.5,-484.569"/>
<polygon fill="steelblue" stroke="steelblue" points="179,-484.529 175.5,-474.529 172,-484.529 179,-484.529"/>
</g>
<!-- Node_10 -->
<g id="node11" class="node"><title>Node_10</title>
<path fill="lightblue" stroke="lightblue" d="M138.5,-365.5C138.5,-365.5 212.5,-365.5 212.5,-365.5 218.5,-365.5 224.5,-371.5 224.5,-377.5 224.5,-377.5 224.5,-389.5 224.5,-389.5 224.5,-395.5 218.5,-401.5 212.5,-401.5 212.5,-401.5 138.5,-401.5 138.5,-401.5 132.5,-401.5 126.5,-395.5 126.5,-389.5 126.5,-389.5 126.5,-377.5 126.5,-377.5 126.5,-371.5 132.5,-365.5 138.5,-365.5"/>
<text text-anchor="middle" x="175.5" y="-381.3" font-family="Arial" font-size="9.00">ret_7 = j_6 + 1.0e+1</text>
</g>
<!-- Node_7&#45;&gt;Node_10 -->
<g id="edge16" class="edge"><title>Node_7&#45;&gt;Node_10</title>
<path fill="none" stroke="tan" d="M175.5,-438.313C175.5,-430.289 175.5,-420.547 175.5,-411.569"/>
<polygon fill="tan" stroke="tan" points="179,-411.529 175.5,-401.529 172,-411.529 179,-411.529"/>
</g>
<!-- Node_8 -->
<g id="node9" class="node"><title>Node_8</title>
<path fill="lightblue" stroke="lightblue" d="M157,-657.5C157,-657.5 206,-657.5 206,-657.5 212,-657.5 218,-663.5 218,-669.5 218,-669.5 218,-681.5 218,-681.5 218,-687.5 212,-693.5 206,-693.5 206,-693.5 157,-693.5 157,-693.5 151,-693.5 145,-687.5 145,-681.5 145,-681.5 145,-669.5 145,-669.5 145,-663.5 151,-657.5 157,-657.5"/>
<text text-anchor="middle" x="181.5" y="-673.3" font-family="Arial" font-size="9.00">_5 = k_1_t * 2</text>
</g>
<!-- Node_9 -->
<g id="node10" class="node"><title>Node_9</title>
<path fill="moccasin" stroke="moccasin" d="M140,-584.5C140,-584.5 211,-584.5 211,-584.5 217,-584.5 223,-590.5 223,-596.5 223,-596.5 223,-608.5 223,-608.5 223,-614.5 217,-620.5 211,-620.5 211,-620.5 140,-620.5 140,-620.5 134,-620.5 128,-614.5 128,-608.5 128,-608.5 128,-596.5 128,-596.5 128,-590.5 134,-584.5 140,-584.5"/>
<text text-anchor="middle" x="175.5" y="-600.3" font-family="Arial" font-size="9.00">_5: [&#45;Infinity, Infinity]</text>
</g>
<!-- Node_8&#45;&gt;Node_9 -->
<g id="edge5" class="edge"><title>Node_8&#45;&gt;Node_9</title>
<path fill="none" stroke="steelblue" d="M180.048,-657.313C179.37,-649.289 178.546,-639.547 177.788,-630.569"/>
<polygon fill="steelblue" stroke="steelblue" points="181.269,-630.199 176.939,-620.529 174.294,-630.788 181.269,-630.199"/>
</g>
<!-- Node_9&#45;&gt;Node_6 -->
<g id="edge20" class="edge"><title>Node_9&#45;&gt;Node_6</title>
<path fill="none" stroke="tan" d="M175.5,-584.313C175.5,-576.289 175.5,-566.547 175.5,-557.569"/>
<polygon fill="tan" stroke="tan" points="179,-557.529 175.5,-547.529 172,-557.529 179,-557.529"/>
</g>
<!-- Node_11 -->
<g id="node12" class="node"><title>Node_11</title>
<path fill="moccasin" stroke="moccasin" d="M135,-292.5C135,-292.5 216,-292.5 216,-292.5 222,-292.5 228,-298.5 228,-304.5 228,-304.5 228,-316.5 228,-316.5 228,-322.5 222,-328.5 216,-328.5 216,-328.5 135,-328.5 135,-328.5 129,-328.5 123,-322.5 123,-316.5 123,-316.5 123,-304.5 123,-304.5 123,-298.5 129,-292.5 135,-292.5"/>
<text text-anchor="middle" x="175.5" y="-308.3" font-family="Arial" font-size="9.00">ret_7: [&#45;Infinity, Infinity]</text>
</g>
<!-- Node_10&#45;&gt;Node_11 -->
<g id="edge6" class="edge"><title>Node_10&#45;&gt;Node_11</title>
<path fill="none" stroke="steelblue" d="M175.5,-365.313C175.5,-357.289 175.5,-347.547 175.5,-338.569"/>
<polygon fill="steelblue" stroke="steelblue" points="179,-338.529 175.5,-328.529 172,-338.529 179,-338.529"/>
</g>
<!-- Node_11&#45;&gt;Node_0 -->
<g id="edge19" class="edge"><title>Node_11&#45;&gt;Node_0</title>
<path fill="none" stroke="tan" d="M160.492,-292.313C152.876,-283.592 143.487,-272.84 135.109,-263.246"/>
<polygon fill="tan" stroke="tan" points="137.584,-260.759 128.37,-255.529 132.311,-265.363 137.584,-260.759"/>
</g>
<!-- Node_12 -->
<g id="node13" class="node"><title>Node_12</title>
<path fill="lightblue" stroke="lightblue" d="M284,-365.5C284,-365.5 335,-365.5 335,-365.5 341,-365.5 347,-371.5 347,-377.5 347,-377.5 347,-389.5 347,-389.5 347,-395.5 341,-401.5 335,-401.5 335,-401.5 284,-401.5 284,-401.5 278,-401.5 272,-395.5 272,-389.5 272,-389.5 272,-377.5 272,-377.5 272,-371.5 278,-365.5 284,-365.5"/>
<text text-anchor="middle" x="309.5" y="-381.3" font-family="Arial" font-size="9.00">if (k_1 &lt;= 100)</text>
</g>
<!-- Node_13 -->
<g id="node14" class="node"><title>Node_13</title>
<path fill="moccasin" stroke="moccasin" d="M211,-730.5C211,-730.5 294,-730.5 294,-730.5 300,-730.5 306,-736.5 306,-742.5 306,-742.5 306,-754.5 306,-754.5 306,-760.5 300,-766.5 294,-766.5 294,-766.5 211,-766.5 211,-766.5 205,-766.5 199,-760.5 199,-754.5 199,-754.5 199,-742.5 199,-742.5 199,-736.5 205,-730.5 211,-730.5"/>
<text text-anchor="middle" x="252.5" y="-746.3" font-family="Arial" font-size="9.00">k_1_t: [&#45;Infinity, Infinity]</text>
</g>
<!-- Node_12&#45;&gt;Node_13 -->
<g id="edge7" class="edge"><title>Node_12&#45;&gt;Node_13</title>
<path fill="none" stroke="steelblue" d="M297.69,-401.806C280.994,-428 252.5,-479.834 252.5,-528.5 252.5,-603.5 252.5,-603.5 252.5,-603.5 252.5,-644.067 252.5,-691.063 252.5,-720.039"/>
<polygon fill="steelblue" stroke="steelblue" points="249,-720.211 252.5,-730.211 256,-720.211 249,-720.211"/>
</g>
<!-- Node_13&#45;&gt;Node_8 -->
<g id="edge17" class="edge"><title>Node_13&#45;&gt;Node_8</title>
<path fill="none" stroke="tan" d="M235.313,-730.313C226.417,-721.417 215.409,-710.409 205.672,-700.672"/>
<polygon fill="tan" stroke="tan" points="208.075,-698.125 198.529,-693.529 203.125,-703.075 208.075,-698.125"/>
</g>
<!-- Node_16 -->
<g id="node17" class="node"><title>Node_16</title>
<path fill="lightblue" stroke="lightblue" d="M298,-657.5C298,-657.5 353,-657.5 353,-657.5 359,-657.5 365,-663.5 365,-669.5 365,-669.5 365,-681.5 365,-681.5 365,-687.5 359,-693.5 353,-693.5 353,-693.5 298,-693.5 298,-693.5 292,-693.5 286,-687.5 286,-681.5 286,-681.5 286,-669.5 286,-669.5 286,-663.5 292,-657.5 298,-657.5"/>
<text text-anchor="middle" x="325.5" y="-673.3" font-family="Arial" font-size="9.00">k_8 = k_1_t + 1</text>
</g>
<!-- Node_13&#45;&gt;Node_16 -->
<g id="edge18" class="edge"><title>Node_13&#45;&gt;Node_16</title>
<path fill="none" stroke="tan" d="M270.171,-730.313C279.317,-721.417 290.635,-710.409 300.647,-700.672"/>
<polygon fill="tan" stroke="tan" points="303.263,-703.01 307.991,-693.529 298.383,-697.992 303.263,-703.01"/>
</g>
<!-- Node_15 -->
<g id="node16" class="node"><title>Node_15</title>
<path fill="moccasin" stroke="moccasin" d="M301,-438.5C301,-438.5 376,-438.5 376,-438.5 382,-438.5 388,-444.5 388,-450.5 388,-450.5 388,-462.5 388,-462.5 388,-468.5 382,-474.5 376,-474.5 376,-474.5 301,-474.5 301,-474.5 295,-474.5 289,-468.5 289,-462.5 289,-462.5 289,-450.5 289,-450.5 289,-444.5 295,-438.5 301,-438.5"/>
<text text-anchor="middle" x="338.5" y="-454.3" font-family="Arial" font-size="9.00">k_1: [&#45;Infinity, Infinity]</text>
</g>
<!-- Node_14&#45;&gt;Node_15 -->
<g id="edge8" class="edge"><title>Node_14&#45;&gt;Node_15</title>
<path fill="none" stroke="steelblue" d="M345.321,-511.313C344.304,-503.289 343.069,-493.547 341.931,-484.569"/>
<polygon fill="steelblue" stroke="steelblue" points="345.388,-484.009 340.659,-474.529 338.444,-484.89 345.388,-484.009"/>
</g>
<!-- Node_15&#45;&gt;Node_12 -->
<g id="edge12" class="edge"><title>Node_15&#45;&gt;Node_12</title>
<path fill="none" stroke="tan" d="M331.48,-438.313C328.132,-430.115 324.05,-420.123 320.318,-410.985"/>
<polygon fill="tan" stroke="tan" points="323.477,-409.463 316.455,-401.529 316.997,-412.11 323.477,-409.463"/>
</g>
<!-- Node_17 -->
<g id="node18" class="node"><title>Node_17</title>
<path fill="moccasin" stroke="moccasin" d="M293,-584.5C293,-584.5 368,-584.5 368,-584.5 374,-584.5 380,-590.5 380,-596.5 380,-596.5 380,-608.5 380,-608.5 380,-614.5 374,-620.5 368,-620.5 368,-620.5 293,-620.5 293,-620.5 287,-620.5 281,-614.5 281,-608.5 281,-608.5 281,-596.5 281,-596.5 281,-590.5 287,-584.5 293,-584.5"/>
<text text-anchor="middle" x="330.5" y="-600.3" font-family="Arial" font-size="9.00">k_8: [&#45;Infinity, Infinity]</text>
</g>
<!-- Node_16&#45;&gt;Node_17 -->
<g id="edge9" class="edge"><title>Node_16&#45;&gt;Node_17</title>
<path fill="none" stroke="steelblue" d="M326.71,-657.313C327.275,-649.289 327.961,-639.547 328.594,-630.569"/>
<polygon fill="steelblue" stroke="steelblue" points="332.09,-630.75 329.301,-620.529 325.107,-630.258 332.09,-630.75"/>
</g>
<!-- Node_17&#45;&gt;Node_14 -->
<g id="edge15" class="edge"><title>Node_17&#45;&gt;Node_14</title>
<path fill="none" stroke="tan" d="M334.615,-584.313C336.557,-576.202 338.92,-566.336 341.089,-557.277"/>
<polygon fill="tan" stroke="tan" points="344.498,-558.069 343.423,-547.529 337.69,-556.439 344.498,-558.069"/>
</g>
<!-- Node_19 -->
<g id="node20" class="node"><title>Node_19</title>
<path fill="moccasin" stroke="moccasin" d="M78,-0.5C78,-0.5 149,-0.5 149,-0.5 155,-0.5 161,-6.5 161,-12.5 161,-12.5 161,-24.5 161,-24.5 161,-30.5 155,-36.5 149,-36.5 149,-36.5 78,-36.5 78,-36.5 72,-36.5 66,-30.5 66,-24.5 66,-24.5 66,-12.5 66,-12.5 66,-6.5 72,-0.5 78,-0.5"/>
<text text-anchor="middle" x="113.5" y="-16.3" font-family="Arial" font-size="9.00">_9: [&#45;Infinity, Infinity]</text>
</g>
<!-- Node_18&#45;&gt;Node_19 -->
<g id="edge10" class="edge"><title>Node_18&#45;&gt;Node_19</title>
<path fill="none" stroke="steelblue" d="M113.5,-73.3129C113.5,-65.2895 113.5,-55.5475 113.5,-46.5691"/>
<polygon fill="steelblue" stroke="steelblue" points="117,-46.5288 113.5,-36.5288 110,-46.5289 117,-46.5288"/>
</g>
</g>
</svg>
