<?xml version="1.0" encoding="UTF-8" standalone="no"?>
<!DOCTYPE svg PUBLIC "-//W3C//DTD SVG 1.1//EN"
 "http://www.w3.org/Graphics/SVG/1.1/DTD/svg11.dtd">
<!-- Generated by graphviz version 2.38.0 (20140413.2041)
 -->
<!-- Title: t5_foo_ConstraintGraph Pages: 1 -->
<svg width="337pt" height="1161pt"
     viewBox="0.00 0.00 337.00 1161.00" xmlns="http://www.w3.org/2000/svg">
<g id="graph0" class="graph" transform="scale(1 1) rotate(0) translate(4 1157)">
<title>t5_foo_ConstraintGraph</title>
<polygon fill="white" stroke="none" points="-4,4 -4,-1157 333,-1157 333,4 -4,4"/>
<text text-anchor="middle" x="164.5" y="-1139.4" font-family="Arial" font-size="12.00">t5_foo_ConstraintGraph</text>
<!-- Node_0 -->
<g id="node1" class="node"><title>Node_0</title>
<path fill="lightblue" stroke="lightblue" d="M207,-949.5C207,-949.5 317,-949.5 317,-949.5 323,-949.5 329,-955.5 329,-961.5 329,-961.5 329,-973.5 329,-973.5 329,-979.5 323,-985.5 317,-985.5 317,-985.5 207,-985.5 207,-985.5 201,-985.5 195,-979.5 195,-973.5 195,-973.5 195,-961.5 195,-961.5 195,-955.5 201,-949.5 207,-949.5"/>
<text text-anchor="middle" x="262" y="-965.3" font-family="Arial" font-size="9.00"># k_1 = PHI &lt;k_3(2), k_8(3)&gt;</text>
</g>
<!-- Node_1 -->
<g id="node2" class="node"><title>Node_1</title>
<path fill="moccasin" stroke="moccasin" d="M207,-876.5C207,-876.5 251,-876.5 251,-876.5 257,-876.5 263,-882.5 263,-888.5 263,-888.5 263,-900.5 263,-900.5 263,-906.5 257,-912.5 251,-912.5 251,-912.5 207,-912.5 207,-912.5 201,-912.5 195,-906.5 195,-900.5 195,-900.5 195,-888.5 195,-888.5 195,-882.5 201,-876.5 207,-876.5"/>
<text text-anchor="middle" x="229" y="-892.3" font-family="Arial" font-size="9.00">k_1: [&#45;inf, inf]</text>
</g>
<!-- Node_0&#45;&gt;Node_1 -->
<g id="edge1" class="edge"><title>Node_0&#45;&gt;Node_1</title>
<path fill="none" stroke="steelblue" d="M254.012,-949.313C250.161,-941.028 245.458,-930.91 241.174,-921.693"/>
<polygon fill="steelblue" stroke="steelblue" points="244.304,-920.122 236.915,-912.529 237.956,-923.072 244.304,-920.122"/>
</g>
<!-- Node_18 -->
<g id="node19" class="node"><title>Node_18</title>
<path fill="lightblue" stroke="lightblue" d="M201.5,-803.5C201.5,-803.5 252.5,-803.5 252.5,-803.5 258.5,-803.5 264.5,-809.5 264.5,-815.5 264.5,-815.5 264.5,-827.5 264.5,-827.5 264.5,-833.5 258.5,-839.5 252.5,-839.5 252.5,-839.5 201.5,-839.5 201.5,-839.5 195.5,-839.5 189.5,-833.5 189.5,-827.5 189.5,-827.5 189.5,-815.5 189.5,-815.5 189.5,-809.5 195.5,-803.5 201.5,-803.5"/>
<text text-anchor="middle" x="227" y="-819.3" font-family="Arial" font-size="9.00">if (k_1 &lt;= 100)</text>
</g>
<!-- Node_1&#45;&gt;Node_18 -->
<g id="edge15" class="edge"><title>Node_1&#45;&gt;Node_18</title>
<path fill="none" stroke="tan" d="M228.516,-876.313C228.29,-868.289 228.015,-858.547 227.763,-849.569"/>
<polygon fill="tan" stroke="tan" points="231.26,-849.426 227.48,-839.529 224.263,-849.623 231.26,-849.426"/>
</g>
<!-- Node_2 -->
<g id="node3" class="node"><title>Node_2</title>
<path fill="lightblue" stroke="lightblue" d="M95,-365.5C95,-365.5 169,-365.5 169,-365.5 175,-365.5 181,-371.5 181,-377.5 181,-377.5 181,-389.5 181,-389.5 181,-395.5 175,-401.5 169,-401.5 169,-401.5 95,-401.5 95,-401.5 89,-401.5 83,-395.5 83,-389.5 83,-389.5 83,-377.5 83,-377.5 83,-371.5 89,-365.5 95,-365.5"/>
<text text-anchor="middle" x="132" y="-381.3" font-family="Arial" font-size="9.00">ret_7 = j_6 + 1.0e+1</text>
</g>
<!-- Node_3 -->
<g id="node4" class="node"><title>Node_3</title>
<path fill="moccasin" stroke="moccasin" d="M105,-292.5C105,-292.5 155,-292.5 155,-292.5 161,-292.5 167,-298.5 167,-304.5 167,-304.5 167,-316.5 167,-316.5 167,-322.5 161,-328.5 155,-328.5 155,-328.5 105,-328.5 105,-328.5 99,-328.5 93,-322.5 93,-316.5 93,-316.5 93,-304.5 93,-304.5 93,-298.5 99,-292.5 105,-292.5"/>
<text text-anchor="middle" x="130" y="-308.3" font-family="Arial" font-size="9.00">ret_7: [&#45;inf, inf]</text>
</g>
<!-- Node_2&#45;&gt;Node_3 -->
<g id="edge2" class="edge"><title>Node_2&#45;&gt;Node_3</title>
<path fill="none" stroke="steelblue" d="M131.516,-365.313C131.29,-357.289 131.015,-347.547 130.763,-338.569"/>
<polygon fill="steelblue" stroke="steelblue" points="134.26,-338.426 130.48,-328.529 127.263,-338.623 134.26,-338.426"/>
</g>
<!-- Node_4 -->
<g id="node5" class="node"><title>Node_4</title>
<path fill="lightblue" stroke="lightblue" d="M19,-219.5C19,-219.5 147,-219.5 147,-219.5 153,-219.5 159,-225.5 159,-231.5 159,-231.5 159,-243.5 159,-243.5 159,-249.5 153,-255.5 147,-255.5 147,-255.5 19,-255.5 19,-255.5 13,-255.5 7,-249.5 7,-243.5 7,-243.5 7,-231.5 7,-231.5 7,-225.5 13,-219.5 19,-219.5"/>
<text text-anchor="middle" x="83" y="-235.3" font-family="Arial" font-size="9.00"># ret_2 = PHI &lt;ret_4(2), ret_7(3)&gt;</text>
</g>
<!-- Node_3&#45;&gt;Node_4 -->
<g id="edge13" class="edge"><title>Node_3&#45;&gt;Node_4</title>
<path fill="none" stroke="tan" d="M118.623,-292.313C113.023,-283.853 106.158,-273.484 99.9547,-264.112"/>
<polygon fill="tan" stroke="tan" points="102.711,-261.935 94.2726,-255.529 96.874,-265.799 102.711,-261.935"/>
</g>
<!-- Node_5 -->
<g id="node6" class="node"><title>Node_5</title>
<path fill="moccasin" stroke="moccasin" d="M58,-146.5C58,-146.5 108,-146.5 108,-146.5 114,-146.5 120,-152.5 120,-158.5 120,-158.5 120,-170.5 120,-170.5 120,-176.5 114,-182.5 108,-182.5 108,-182.5 58,-182.5 58,-182.5 52,-182.5 46,-176.5 46,-170.5 46,-170.5 46,-158.5 46,-158.5 46,-152.5 52,-146.5 58,-146.5"/>
<text text-anchor="middle" x="83" y="-162.3" font-family="Arial" font-size="9.00">ret_2: [&#45;inf, inf]</text>
</g>
<!-- Node_4&#45;&gt;Node_5 -->
<g id="edge3" class="edge"><title>Node_4&#45;&gt;Node_5</title>
<path fill="none" stroke="steelblue" d="M83,-219.313C83,-211.289 83,-201.547 83,-192.569"/>
<polygon fill="steelblue" stroke="steelblue" points="86.5001,-192.529 83,-182.529 79.5001,-192.529 86.5001,-192.529"/>
</g>
<!-- Node_6 -->
<g id="node7" class="node"><title>Node_6</title>
<path fill="lightblue" stroke="lightblue" d="M57,-73.5C57,-73.5 109,-73.5 109,-73.5 115,-73.5 121,-79.5 121,-85.5 121,-85.5 121,-97.5 121,-97.5 121,-103.5 115,-109.5 109,-109.5 109,-109.5 57,-109.5 57,-109.5 51,-109.5 45,-103.5 45,-97.5 45,-97.5 45,-85.5 45,-85.5 45,-79.5 51,-73.5 57,-73.5"/>
<text text-anchor="middle" x="83" y="-89.3" font-family="Arial" font-size="9.00">_9 = (int) ret_2</text>
</g>
<!-- Node_5&#45;&gt;Node_6 -->
<g id="edge12" class="edge"><title>Node_5&#45;&gt;Node_6</title>
<path fill="none" stroke="tan" d="M83,-146.313C83,-138.289 83,-128.547 83,-119.569"/>
<polygon fill="tan" stroke="tan" points="86.5001,-119.529 83,-109.529 79.5001,-119.529 86.5001,-119.529"/>
</g>
<!-- Node_7 -->
<g id="node8" class="node"><title>Node_7</title>
<path fill="moccasin" stroke="moccasin" d="M63.5,-0.5C63.5,-0.5 102.5,-0.5 102.5,-0.5 108.5,-0.5 114.5,-6.5 114.5,-12.5 114.5,-12.5 114.5,-24.5 114.5,-24.5 114.5,-30.5 108.5,-36.5 102.5,-36.5 102.5,-36.5 63.5,-36.5 63.5,-36.5 57.5,-36.5 51.5,-30.5 51.5,-24.5 51.5,-24.5 51.5,-12.5 51.5,-12.5 51.5,-6.5 57.5,-0.5 63.5,-0.5"/>
<text text-anchor="middle" x="83" y="-16.3" font-family="Arial" font-size="9.00">_9: [&#45;inf, inf]</text>
</g>
<!-- Node_6&#45;&gt;Node_7 -->
<g id="edge4" class="edge"><title>Node_6&#45;&gt;Node_7</title>
<path fill="none" stroke="steelblue" d="M83,-73.3129C83,-65.2895 83,-55.5475 83,-46.5691"/>
<polygon fill="steelblue" stroke="steelblue" points="86.5001,-46.5288 83,-36.5288 79.5001,-46.5289 86.5001,-46.5288"/>
</g>
<!-- Node_8 -->
<g id="node9" class="node"><title>Node_8</title>
<path fill="lightblue" stroke="lightblue" d="M107.5,-657.5C107.5,-657.5 156.5,-657.5 156.5,-657.5 162.5,-657.5 168.5,-663.5 168.5,-669.5 168.5,-669.5 168.5,-681.5 168.5,-681.5 168.5,-687.5 162.5,-693.5 156.5,-693.5 156.5,-693.5 107.5,-693.5 107.5,-693.5 101.5,-693.5 95.5,-687.5 95.5,-681.5 95.5,-681.5 95.5,-669.5 95.5,-669.5 95.5,-663.5 101.5,-657.5 107.5,-657.5"/>
<text text-anchor="middle" x="132" y="-673.3" font-family="Arial" font-size="9.00">_5 = k_1_t * 2</text>
</g>
<!-- Node_9 -->
<g id="node10" class="node"><title>Node_9</title>
<path fill="moccasin" stroke="moccasin" d="M112.5,-584.5C112.5,-584.5 151.5,-584.5 151.5,-584.5 157.5,-584.5 163.5,-590.5 163.5,-596.5 163.5,-596.5 163.5,-608.5 163.5,-608.5 163.5,-614.5 157.5,-620.5 151.5,-620.5 151.5,-620.5 112.5,-620.5 112.5,-620.5 106.5,-620.5 100.5,-614.5 100.5,-608.5 100.5,-608.5 100.5,-596.5 100.5,-596.5 100.5,-590.5 106.5,-584.5 112.5,-584.5"/>
<text text-anchor="middle" x="132" y="-600.3" font-family="Arial" font-size="9.00">_5: [&#45;inf, inf]</text>
</g>
<!-- Node_8&#45;&gt;Node_9 -->
<g id="edge5" class="edge"><title>Node_8&#45;&gt;Node_9</title>
<path fill="none" stroke="steelblue" d="M132,-657.313C132,-649.289 132,-639.547 132,-630.569"/>
<polygon fill="steelblue" stroke="steelblue" points="135.5,-630.529 132,-620.529 128.5,-630.529 135.5,-630.529"/>
</g>
<!-- Node_10 -->
<g id="node11" class="node"><title>Node_10</title>
<path fill="lightblue" stroke="lightblue" d="M106.5,-511.5C106.5,-511.5 157.5,-511.5 157.5,-511.5 163.5,-511.5 169.5,-517.5 169.5,-523.5 169.5,-523.5 169.5,-535.5 169.5,-535.5 169.5,-541.5 163.5,-547.5 157.5,-547.5 157.5,-547.5 106.5,-547.5 106.5,-547.5 100.5,-547.5 94.5,-541.5 94.5,-535.5 94.5,-535.5 94.5,-523.5 94.5,-523.5 94.5,-517.5 100.5,-511.5 106.5,-511.5"/>
<text text-anchor="middle" x="132" y="-527.3" font-family="Arial" font-size="9.00">j_6 = (float) _5</text>
</g>
<!-- Node_9&#45;&gt;Node_10 -->
<g id="edge16" class="edge"><title>Node_9&#45;&gt;Node_10</title>
<path fill="none" stroke="tan" d="M132,-584.313C132,-576.289 132,-566.547 132,-557.569"/>
<polygon fill="tan" stroke="tan" points="135.5,-557.529 132,-547.529 128.5,-557.529 135.5,-557.529"/>
</g>
<!-- Node_11 -->
<g id="node12" class="node"><title>Node_11</title>
<path fill="moccasin" stroke="moccasin" d="M111.5,-438.5C111.5,-438.5 152.5,-438.5 152.5,-438.5 158.5,-438.5 164.5,-444.5 164.5,-450.5 164.5,-450.5 164.5,-462.5 164.5,-462.5 164.5,-468.5 158.5,-474.5 152.5,-474.5 152.5,-474.5 111.5,-474.5 111.5,-474.5 105.5,-474.5 99.5,-468.5 99.5,-462.5 99.5,-462.5 99.5,-450.5 99.5,-450.5 99.5,-444.5 105.5,-438.5 111.5,-438.5"/>
<text text-anchor="middle" x="132" y="-454.3" font-family="Arial" font-size="9.00">j_6: [&#45;inf, inf]</text>
</g>
<!-- Node_10&#45;&gt;Node_11 -->
<g id="edge6" class="edge"><title>Node_10&#45;&gt;Node_11</title>
<path fill="none" stroke="steelblue" d="M132,-511.313C132,-503.289 132,-493.547 132,-484.569"/>
<polygon fill="steelblue" stroke="steelblue" points="135.5,-484.529 132,-474.529 128.5,-484.529 135.5,-484.529"/>
</g>
<!-- Node_11&#45;&gt;Node_2 -->
<g id="edge17" class="edge"><title>Node_11&#45;&gt;Node_2</title>
<path fill="none" stroke="tan" d="M132,-438.313C132,-430.289 132,-420.547 132,-411.569"/>
<polygon fill="tan" stroke="tan" points="135.5,-411.529 132,-401.529 128.5,-411.529 135.5,-411.529"/>
</g>
<!-- Node_12 -->
<g id="node13" class="node"><title>Node_12</title>
<path fill="lightblue" stroke="lightblue" d="M198.5,-657.5C198.5,-657.5 253.5,-657.5 253.5,-657.5 259.5,-657.5 265.5,-663.5 265.5,-669.5 265.5,-669.5 265.5,-681.5 265.5,-681.5 265.5,-687.5 259.5,-693.5 253.5,-693.5 253.5,-693.5 198.5,-693.5 198.5,-693.5 192.5,-693.5 186.5,-687.5 186.5,-681.5 186.5,-681.5 186.5,-669.5 186.5,-669.5 186.5,-663.5 192.5,-657.5 198.5,-657.5"/>
<text text-anchor="middle" x="226" y="-673.3" font-family="Arial" font-size="9.00">k_8 = k_1_t + 1</text>
</g>
<!-- Node_13 -->
<g id="node14" class="node"><title>Node_13</title>
<path fill="moccasin" stroke="moccasin" d="M238,-584.5C238,-584.5 282,-584.5 282,-584.5 288,-584.5 294,-590.5 294,-596.5 294,-596.5 294,-608.5 294,-608.5 294,-614.5 288,-620.5 282,-620.5 282,-620.5 238,-620.5 238,-620.5 232,-620.5 226,-614.5 226,-608.5 226,-608.5 226,-596.5 226,-596.5 226,-590.5 232,-584.5 238,-584.5"/>
<text text-anchor="middle" x="260" y="-600.3" font-family="Arial" font-size="9.00">k_8: [&#45;inf, inf]</text>
</g>
<!-- Node_12&#45;&gt;Node_13 -->
<g id="edge7" class="edge"><title>Node_12&#45;&gt;Node_13</title>
<path fill="none" stroke="steelblue" d="M234.23,-657.313C238.198,-649.028 243.043,-638.91 247.457,-629.693"/>
<polygon fill="steelblue" stroke="steelblue" points="250.683,-631.06 251.845,-620.529 244.37,-628.036 250.683,-631.06"/>
</g>
<!-- Node_13&#45;&gt;Node_0 -->
<g id="edge11" class="edge"><title>Node_13&#45;&gt;Node_0</title>
<path fill="none" stroke="tan" d="M266.88,-620.921C276.815,-647.69 294,-700.749 294,-747.5 294,-822.5 294,-822.5 294,-822.5 294,-864.24 281.029,-911.2 271.604,-939.814"/>
<polygon fill="tan" stroke="tan" points="268.222,-938.888 268.322,-949.483 274.851,-941.138 268.222,-938.888"/>
</g>
<!-- Node_14 -->
<g id="node15" class="node"><title>Node_14</title>
<path fill="lightblue" stroke="lightblue" d="M17,-365.5C17,-365.5 53,-365.5 53,-365.5 59,-365.5 65,-371.5 65,-377.5 65,-377.5 65,-389.5 65,-389.5 65,-395.5 59,-401.5 53,-401.5 53,-401.5 17,-401.5 17,-401.5 11,-401.5 5,-395.5 5,-389.5 5,-389.5 5,-377.5 5,-377.5 5,-371.5 11,-365.5 17,-365.5"/>
<text text-anchor="middle" x="35" y="-381.3" font-family="Arial" font-size="9.00">ret_4 = 0.0</text>
</g>
<!-- Node_15 -->
<g id="node16" class="node"><title>Node_15</title>
<path fill="moccasin" stroke="moccasin" d="M12,-292.5C12,-292.5 62,-292.5 62,-292.5 68,-292.5 74,-298.5 74,-304.5 74,-304.5 74,-316.5 74,-316.5 74,-322.5 68,-328.5 62,-328.5 62,-328.5 12,-328.5 12,-328.5 6,-328.5 0,-322.5 0,-316.5 0,-316.5 0,-304.5 0,-304.5 0,-298.5 6,-292.5 12,-292.5"/>
<text text-anchor="middle" x="37" y="-308.3" font-family="Arial" font-size="9.00">ret_4: [&#45;inf, inf]</text>
</g>
<!-- Node_14&#45;&gt;Node_15 -->
<g id="edge8" class="edge"><title>Node_14&#45;&gt;Node_15</title>
<path fill="none" stroke="steelblue" d="M35.4841,-365.313C35.7102,-357.289 35.9846,-347.547 36.2375,-338.569"/>
<polygon fill="steelblue" stroke="steelblue" points="39.7373,-338.623 36.5203,-328.529 32.74,-338.426 39.7373,-338.623"/>
</g>
<!-- Node_15&#45;&gt;Node_4 -->
<g id="edge14" class="edge"><title>Node_15&#45;&gt;Node_4</title>
<path fill="none" stroke="tan" d="M48.1353,-292.313C53.6161,-283.853 60.3346,-273.484 66.406,-264.112"/>
<polygon fill="tan" stroke="tan" points="69.4672,-265.824 71.9672,-255.529 63.5924,-262.018 69.4672,-265.824"/>
</g>
<!-- Node_16 -->
<g id="node17" class="node"><title>Node_16</title>
<path fill="lightblue" stroke="lightblue" d="M247,-1095.5C247,-1095.5 277,-1095.5 277,-1095.5 283,-1095.5 289,-1101.5 289,-1107.5 289,-1107.5 289,-1119.5 289,-1119.5 289,-1125.5 283,-1131.5 277,-1131.5 277,-1131.5 247,-1131.5 247,-1131.5 241,-1131.5 235,-1125.5 235,-1119.5 235,-1119.5 235,-1107.5 235,-1107.5 235,-1101.5 241,-1095.5 247,-1095.5"/>
<text text-anchor="middle" x="262" y="-1111.3" font-family="Arial" font-size="9.00">k_3 = 0</text>
</g>
<!-- Node_17 -->
<g id="node18" class="node"><title>Node_17</title>
<path fill="moccasin" stroke="moccasin" d="M240,-1022.5C240,-1022.5 284,-1022.5 284,-1022.5 290,-1022.5 296,-1028.5 296,-1034.5 296,-1034.5 296,-1046.5 296,-1046.5 296,-1052.5 290,-1058.5 284,-1058.5 284,-1058.5 240,-1058.5 240,-1058.5 234,-1058.5 228,-1052.5 228,-1046.5 228,-1046.5 228,-1034.5 228,-1034.5 228,-1028.5 234,-1022.5 240,-1022.5"/>
<text text-anchor="middle" x="262" y="-1038.3" font-family="Arial" font-size="9.00">k_3: [&#45;inf, inf]</text>
</g>
<!-- Node_16&#45;&gt;Node_17 -->
<g id="edge9" class="edge"><title>Node_16&#45;&gt;Node_17</title>
<path fill="none" stroke="steelblue" d="M262,-1095.31C262,-1087.29 262,-1077.55 262,-1068.57"/>
<polygon fill="steelblue" stroke="steelblue" points="265.5,-1068.53 262,-1058.53 258.5,-1068.53 265.5,-1068.53"/>
</g>
<!-- Node_17&#45;&gt;Node_0 -->
<g id="edge20" class="edge"><title>Node_17&#45;&gt;Node_0</title>
<path fill="none" stroke="tan" d="M262,-1022.31C262,-1014.29 262,-1004.55 262,-995.569"/>
<polygon fill="tan" stroke="tan" points="265.5,-995.529 262,-985.529 258.5,-995.529 265.5,-995.529"/>
</g>
<!-- Node_19 -->
<g id="node20" class="node"><title>Node_19</title>
<path fill="moccasin" stroke="moccasin" d="M200.5,-730.5C200.5,-730.5 251.5,-730.5 251.5,-730.5 257.5,-730.5 263.5,-736.5 263.5,-742.5 263.5,-742.5 263.5,-754.5 263.5,-754.5 263.5,-760.5 257.5,-766.5 251.5,-766.5 251.5,-766.5 200.5,-766.5 200.5,-766.5 194.5,-766.5 188.5,-760.5 188.5,-754.5 188.5,-754.5 188.5,-742.5 188.5,-742.5 188.5,-736.5 194.5,-730.5 200.5,-730.5"/>
<text text-anchor="middle" x="226" y="-746.3" font-family="Arial" font-size="9.00">k_1_t: [&#45;inf, inf]</text>
</g>
<!-- Node_18&#45;&gt;Node_19 -->
<g id="edge10" class="edge"><title>Node_18&#45;&gt;Node_19</title>
<path fill="none" stroke="steelblue" d="M226.758,-803.313C226.645,-795.289 226.508,-785.547 226.381,-776.569"/>
<polygon fill="steelblue" stroke="steelblue" points="229.88,-776.479 226.24,-766.529 222.881,-776.577 229.88,-776.479"/>
</g>
<!-- Node_19&#45;&gt;Node_8 -->
<g id="edge18" class="edge"><title>Node_19&#45;&gt;Node_8</title>
<path fill="none" stroke="tan" d="M203.245,-730.313C191.122,-721.156 176.034,-709.76 162.869,-699.816"/>
<polygon fill="tan" stroke="tan" points="164.634,-696.763 154.545,-693.529 160.415,-702.349 164.634,-696.763"/>
</g>
<!-- Node_19&#45;&gt;Node_12 -->
<g id="edge19" class="edge"><title>Node_19&#45;&gt;Node_12</title>
<path fill="none" stroke="tan" d="M226,-730.313C226,-722.289 226,-712.547 226,-703.569"/>
<polygon fill="tan" stroke="tan" points="229.5,-703.529 226,-693.529 222.5,-703.529 229.5,-703.529"/>
</g>
</g>
</svg>
