<?xml version="1.0" encoding="UTF-8" standalone="no"?>
<!DOCTYPE svg PUBLIC "-//W3C//DTD SVG 1.1//EN"
 "http://www.w3.org/Graphics/SVG/1.1/DTD/svg11.dtd">
<!-- Generated by graphviz version 2.38.0 (20140413.2041)
 -->
<!-- Title: t6_foo_ConstraintGraph Pages: 1 -->
<svg width="870pt" height="577pt"
     viewBox="0.00 0.00 870.00 577.00" xmlns="http://www.w3.org/2000/svg">
<g id="graph0" class="graph" transform="scale(1 1) rotate(0) translate(4 573)">
<title>t6_foo_ConstraintGraph</title>
<polygon fill="white" stroke="none" points="-4,4 -4,-573 866,-573 866,4 -4,4"/>
<text text-anchor="middle" x="431" y="-555.4" font-family="Arial" font-size="12.00">t6_foo_ConstraintGraph</text>
<!-- Node_0 -->
<g id="node1" class="node"><title>Node_0</title>
<path fill="lightblue" stroke="lightblue" d="M438,-365.5C438,-365.5 503,-365.5 503,-365.5 509,-365.5 515,-371.5 515,-377.5 515,-377.5 515,-389.5 515,-389.5 515,-395.5 509,-401.5 503,-401.5 503,-401.5 438,-401.5 438,-401.5 432,-401.5 426,-395.5 426,-389.5 426,-389.5 426,-377.5 426,-377.5 426,-371.5 432,-365.5 438,-365.5"/>
<text text-anchor="middle" x="470.5" y="-381.3" font-family="Arial" font-size="9.00">sum_9 = i_8 &#45; j_3</text>
</g>
<!-- Node_1 -->
<g id="node2" class="node"><title>Node_1</title>
<path fill="moccasin" stroke="moccasin" d="M410,-292.5C410,-292.5 499,-292.5 499,-292.5 505,-292.5 511,-298.5 511,-304.5 511,-304.5 511,-316.5 511,-316.5 511,-322.5 505,-328.5 499,-328.5 499,-328.5 410,-328.5 410,-328.5 404,-328.5 398,-322.5 398,-316.5 398,-316.5 398,-304.5 398,-304.5 398,-298.5 404,-292.5 410,-292.5"/>
<text text-anchor="middle" x="454.5" y="-308.3" font-family="Arial" font-size="9.00">sum_9: [&#45;Infinity, Infinity]</text>
</g>
<!-- Node_0&#45;&gt;Node_1 -->
<g id="edge1" class="edge"><title>Node_0&#45;&gt;Node_1</title>
<path fill="none" stroke="steelblue" d="M466.627,-365.313C464.819,-357.289 462.623,-347.547 460.6,-338.569"/>
<polygon fill="steelblue" stroke="steelblue" points="463.95,-337.515 458.337,-328.529 457.122,-339.054 463.95,-337.515"/>
</g>
<!-- Node_10 -->
<g id="node11" class="node"><title>Node_10</title>
<path fill="lightblue" stroke="lightblue" d="M304.5,-219.5C304.5,-219.5 456.5,-219.5 456.5,-219.5 462.5,-219.5 468.5,-225.5 468.5,-231.5 468.5,-231.5 468.5,-243.5 468.5,-243.5 468.5,-249.5 462.5,-255.5 456.5,-255.5 456.5,-255.5 304.5,-255.5 304.5,-255.5 298.5,-255.5 292.5,-249.5 292.5,-243.5 292.5,-243.5 292.5,-231.5 292.5,-231.5 292.5,-225.5 298.5,-219.5 304.5,-219.5"/>
<text text-anchor="middle" x="380.5" y="-235.3" font-family="Arial" font-size="9.00"># sum_1 = PHI &lt;sum_7(3), sum_9(4)&gt;</text>
</g>
<!-- Node_1&#45;&gt;Node_10 -->
<g id="edge10" class="edge"><title>Node_1&#45;&gt;Node_10</title>
<path fill="none" stroke="tan" d="M436.587,-292.313C427.315,-283.417 415.842,-272.409 405.693,-262.672"/>
<polygon fill="tan" stroke="tan" points="407.887,-259.927 398.248,-255.529 403.041,-264.978 407.887,-259.927"/>
</g>
<!-- Node_2 -->
<g id="node3" class="node"><title>Node_2</title>
<path fill="lightblue" stroke="lightblue" d="M396,-511.5C396,-511.5 545,-511.5 545,-511.5 551,-511.5 557,-517.5 557,-523.5 557,-523.5 557,-535.5 557,-535.5 557,-541.5 551,-547.5 545,-547.5 545,-547.5 396,-547.5 396,-547.5 390,-547.5 384,-541.5 384,-535.5 384,-535.5 384,-523.5 384,-523.5 384,-517.5 390,-511.5 396,-511.5"/>
<text text-anchor="middle" x="470.5" y="-527.3" font-family="Arial" font-size="9.00">j_3 = 1.019999980926513671875e+1</text>
</g>
<!-- Node_3 -->
<g id="node4" class="node"><title>Node_3</title>
<path fill="moccasin" stroke="moccasin" d="M434,-438.5C434,-438.5 507,-438.5 507,-438.5 513,-438.5 519,-444.5 519,-450.5 519,-450.5 519,-462.5 519,-462.5 519,-468.5 513,-474.5 507,-474.5 507,-474.5 434,-474.5 434,-474.5 428,-474.5 422,-468.5 422,-462.5 422,-462.5 422,-450.5 422,-450.5 422,-444.5 428,-438.5 434,-438.5"/>
<text text-anchor="middle" x="470.5" y="-454.3" font-family="Arial" font-size="9.00">j_3: [&#45;Infinity, Infinity]</text>
</g>
<!-- Node_2&#45;&gt;Node_3 -->
<g id="edge2" class="edge"><title>Node_2&#45;&gt;Node_3</title>
<path fill="none" stroke="steelblue" d="M470.5,-511.313C470.5,-503.289 470.5,-493.547 470.5,-484.569"/>
<polygon fill="steelblue" stroke="steelblue" points="474,-484.529 470.5,-474.529 467,-484.529 474,-484.529"/>
</g>
<!-- Node_3&#45;&gt;Node_0 -->
<g id="edge15" class="edge"><title>Node_3&#45;&gt;Node_0</title>
<path fill="none" stroke="tan" d="M470.5,-438.313C470.5,-430.289 470.5,-420.547 470.5,-411.569"/>
<polygon fill="tan" stroke="tan" points="474,-411.529 470.5,-401.529 467,-411.529 474,-411.529"/>
</g>
<!-- Node_4 -->
<g id="node5" class="node"><title>Node_4</title>
<path fill="lightblue" stroke="lightblue" d="M242,-365.5C242,-365.5 309,-365.5 309,-365.5 315,-365.5 321,-371.5 321,-377.5 321,-377.5 321,-389.5 321,-389.5 321,-395.5 315,-401.5 309,-401.5 309,-401.5 242,-401.5 242,-401.5 236,-401.5 230,-395.5 230,-389.5 230,-389.5 230,-377.5 230,-377.5 230,-371.5 236,-365.5 242,-365.5"/>
<text text-anchor="middle" x="275.5" y="-381.3" font-family="Arial" font-size="9.00">sum_7 = i_2 + j_6</text>
</g>
<!-- Node_5 -->
<g id="node6" class="node"><title>Node_5</title>
<path fill="moccasin" stroke="moccasin" d="M263,-292.5C263,-292.5 352,-292.5 352,-292.5 358,-292.5 364,-298.5 364,-304.5 364,-304.5 364,-316.5 364,-316.5 364,-322.5 358,-328.5 352,-328.5 352,-328.5 263,-328.5 263,-328.5 257,-328.5 251,-322.5 251,-316.5 251,-316.5 251,-304.5 251,-304.5 251,-298.5 257,-292.5 263,-292.5"/>
<text text-anchor="middle" x="307.5" y="-308.3" font-family="Arial" font-size="9.00">sum_7: [&#45;Infinity, Infinity]</text>
</g>
<!-- Node_4&#45;&gt;Node_5 -->
<g id="edge3" class="edge"><title>Node_4&#45;&gt;Node_5</title>
<path fill="none" stroke="steelblue" d="M283.246,-365.313C286.98,-357.028 291.54,-346.91 295.695,-337.693"/>
<polygon fill="steelblue" stroke="steelblue" points="298.907,-339.084 299.825,-328.529 292.525,-336.207 298.907,-339.084"/>
</g>
<!-- Node_5&#45;&gt;Node_10 -->
<g id="edge16" class="edge"><title>Node_5&#45;&gt;Node_10</title>
<path fill="none" stroke="tan" d="M325.171,-292.313C334.317,-283.417 345.635,-272.409 355.647,-262.672"/>
<polygon fill="tan" stroke="tan" points="358.263,-265.01 362.991,-255.529 353.383,-259.992 358.263,-265.01"/>
</g>
<!-- Node_6 -->
<g id="node7" class="node"><title>Node_6</title>
<path fill="lightblue" stroke="lightblue" d="M12,-511.5C12,-511.5 155,-511.5 155,-511.5 161,-511.5 167,-517.5 167,-523.5 167,-523.5 167,-535.5 167,-535.5 167,-541.5 161,-547.5 155,-547.5 155,-547.5 12,-547.5 12,-547.5 6,-547.5 0,-541.5 0,-535.5 0,-535.5 0,-523.5 0,-523.5 0,-517.5 6,-511.5 12,-511.5"/>
<text text-anchor="middle" x="83.5" y="-527.3" font-family="Arial" font-size="9.00">j_6 = 9.19999980926513671875e+0</text>
</g>
<!-- Node_7 -->
<g id="node8" class="node"><title>Node_7</title>
<path fill="moccasin" stroke="moccasin" d="M86,-438.5C86,-438.5 159,-438.5 159,-438.5 165,-438.5 171,-444.5 171,-450.5 171,-450.5 171,-462.5 171,-462.5 171,-468.5 165,-474.5 159,-474.5 159,-474.5 86,-474.5 86,-474.5 80,-474.5 74,-468.5 74,-462.5 74,-462.5 74,-450.5 74,-450.5 74,-444.5 80,-438.5 86,-438.5"/>
<text text-anchor="middle" x="122.5" y="-454.3" font-family="Arial" font-size="9.00">j_6: [&#45;Infinity, Infinity]</text>
</g>
<!-- Node_6&#45;&gt;Node_7 -->
<g id="edge4" class="edge"><title>Node_6&#45;&gt;Node_7</title>
<path fill="none" stroke="steelblue" d="M92.9408,-511.313C97.5396,-502.941 103.166,-492.697 108.272,-483.403"/>
<polygon fill="steelblue" stroke="steelblue" points="111.399,-484.979 113.146,-474.529 105.264,-481.609 111.399,-484.979"/>
</g>
<!-- Node_7&#45;&gt;Node_4 -->
<g id="edge13" class="edge"><title>Node_7&#45;&gt;Node_4</title>
<path fill="none" stroke="tan" d="M159.147,-438.494C180.188,-428.73 206.809,-416.376 229.276,-405.951"/>
<polygon fill="tan" stroke="tan" points="231.024,-408.998 238.621,-401.614 228.077,-402.648 231.024,-408.998"/>
</g>
<!-- Node_8 -->
<g id="node9" class="node"><title>Node_8</title>
<path fill="lightblue" stroke="lightblue" d="M197,-511.5C197,-511.5 354,-511.5 354,-511.5 360,-511.5 366,-517.5 366,-523.5 366,-523.5 366,-535.5 366,-535.5 366,-541.5 360,-547.5 354,-547.5 354,-547.5 197,-547.5 197,-547.5 191,-547.5 185,-541.5 185,-535.5 185,-535.5 185,-523.5 185,-523.5 185,-517.5 191,-511.5 197,-511.5"/>
<text text-anchor="middle" x="275.5" y="-527.3" font-family="Arial" font-size="9.00">i_2 = 8.00000011920928955078125e&#45;1</text>
</g>
<!-- Node_9 -->
<g id="node10" class="node"><title>Node_9</title>
<path fill="moccasin" stroke="moccasin" d="M239,-438.5C239,-438.5 312,-438.5 312,-438.5 318,-438.5 324,-444.5 324,-450.5 324,-450.5 324,-462.5 324,-462.5 324,-468.5 318,-474.5 312,-474.5 312,-474.5 239,-474.5 239,-474.5 233,-474.5 227,-468.5 227,-462.5 227,-462.5 227,-450.5 227,-450.5 227,-444.5 233,-438.5 239,-438.5"/>
<text text-anchor="middle" x="275.5" y="-454.3" font-family="Arial" font-size="9.00">i_2: [&#45;Infinity, Infinity]</text>
</g>
<!-- Node_8&#45;&gt;Node_9 -->
<g id="edge5" class="edge"><title>Node_8&#45;&gt;Node_9</title>
<path fill="none" stroke="steelblue" d="M275.5,-511.313C275.5,-503.289 275.5,-493.547 275.5,-484.569"/>
<polygon fill="steelblue" stroke="steelblue" points="279,-484.529 275.5,-474.529 272,-484.529 279,-484.529"/>
</g>
<!-- Node_9&#45;&gt;Node_4 -->
<g id="edge14" class="edge"><title>Node_9&#45;&gt;Node_4</title>
<path fill="none" stroke="tan" d="M275.5,-438.313C275.5,-430.289 275.5,-420.547 275.5,-411.569"/>
<polygon fill="tan" stroke="tan" points="279,-411.529 275.5,-401.529 272,-411.529 279,-411.529"/>
</g>
<!-- Node_11 -->
<g id="node12" class="node"><title>Node_11</title>
<path fill="moccasin" stroke="moccasin" d="M336,-146.5C336,-146.5 425,-146.5 425,-146.5 431,-146.5 437,-152.5 437,-158.5 437,-158.5 437,-170.5 437,-170.5 437,-176.5 431,-182.5 425,-182.5 425,-182.5 336,-182.5 336,-182.5 330,-182.5 324,-176.5 324,-170.5 324,-170.5 324,-158.5 324,-158.5 324,-152.5 330,-146.5 336,-146.5"/>
<text text-anchor="middle" x="380.5" y="-162.3" font-family="Arial" font-size="9.00">sum_1: [&#45;Infinity, Infinity]</text>
</g>
<!-- Node_10&#45;&gt;Node_11 -->
<g id="edge6" class="edge"><title>Node_10&#45;&gt;Node_11</title>
<path fill="none" stroke="steelblue" d="M380.5,-219.313C380.5,-211.289 380.5,-201.547 380.5,-192.569"/>
<polygon fill="steelblue" stroke="steelblue" points="384,-192.529 380.5,-182.529 377,-192.529 384,-192.529"/>
</g>
<!-- Node_14 -->
<g id="node15" class="node"><title>Node_14</title>
<path fill="lightblue" stroke="lightblue" d="M348,-73.5C348,-73.5 413,-73.5 413,-73.5 419,-73.5 425,-79.5 425,-85.5 425,-85.5 425,-97.5 425,-97.5 425,-103.5 419,-109.5 413,-109.5 413,-109.5 348,-109.5 348,-109.5 342,-109.5 336,-103.5 336,-97.5 336,-97.5 336,-85.5 336,-85.5 336,-79.5 342,-73.5 348,-73.5"/>
<text text-anchor="middle" x="380.5" y="-89.3" font-family="Arial" font-size="9.00">_10 = (int) sum_1</text>
</g>
<!-- Node_11&#45;&gt;Node_14 -->
<g id="edge11" class="edge"><title>Node_11&#45;&gt;Node_14</title>
<path fill="none" stroke="tan" d="M380.5,-146.313C380.5,-138.289 380.5,-128.547 380.5,-119.569"/>
<polygon fill="tan" stroke="tan" points="384,-119.529 380.5,-109.529 377,-119.529 384,-119.529"/>
</g>
<!-- Node_12 -->
<g id="node13" class="node"><title>Node_12</title>
<path fill="lightblue" stroke="lightblue" d="M587.5,-511.5C587.5,-511.5 741.5,-511.5 741.5,-511.5 747.5,-511.5 753.5,-517.5 753.5,-523.5 753.5,-523.5 753.5,-535.5 753.5,-535.5 753.5,-541.5 747.5,-547.5 741.5,-547.5 741.5,-547.5 587.5,-547.5 587.5,-547.5 581.5,-547.5 575.5,-541.5 575.5,-535.5 575.5,-535.5 575.5,-523.5 575.5,-523.5 575.5,-517.5 581.5,-511.5 587.5,-511.5"/>
<text text-anchor="middle" x="664.5" y="-527.3" font-family="Arial" font-size="9.00">i_8 = 1.2000000476837158203125e+0</text>
</g>
<!-- Node_13 -->
<g id="node14" class="node"><title>Node_13</title>
<path fill="moccasin" stroke="moccasin" d="M588,-438.5C588,-438.5 661,-438.5 661,-438.5 667,-438.5 673,-444.5 673,-450.5 673,-450.5 673,-462.5 673,-462.5 673,-468.5 667,-474.5 661,-474.5 661,-474.5 588,-474.5 588,-474.5 582,-474.5 576,-468.5 576,-462.5 576,-462.5 576,-450.5 576,-450.5 576,-444.5 582,-438.5 588,-438.5"/>
<text text-anchor="middle" x="624.5" y="-454.3" font-family="Arial" font-size="9.00">i_8: [&#45;Infinity, Infinity]</text>
</g>
<!-- Node_12&#45;&gt;Node_13 -->
<g id="edge7" class="edge"><title>Node_12&#45;&gt;Node_13</title>
<path fill="none" stroke="steelblue" d="M654.817,-511.313C650.1,-502.941 644.329,-492.697 639.093,-483.403"/>
<polygon fill="steelblue" stroke="steelblue" points="642.052,-481.523 634.094,-474.529 635.953,-484.959 642.052,-481.523"/>
</g>
<!-- Node_13&#45;&gt;Node_0 -->
<g id="edge12" class="edge"><title>Node_13&#45;&gt;Node_0</title>
<path fill="none" stroke="tan" d="M587.613,-438.494C566.341,-428.686 539.401,-416.266 516.724,-405.811"/>
<polygon fill="tan" stroke="tan" points="518.166,-402.622 507.62,-401.614 515.236,-408.979 518.166,-402.622"/>
</g>
<!-- Node_15 -->
<g id="node16" class="node"><title>Node_15</title>
<path fill="moccasin" stroke="moccasin" d="M342.5,-0.5C342.5,-0.5 418.5,-0.5 418.5,-0.5 424.5,-0.5 430.5,-6.5 430.5,-12.5 430.5,-12.5 430.5,-24.5 430.5,-24.5 430.5,-30.5 424.5,-36.5 418.5,-36.5 418.5,-36.5 342.5,-36.5 342.5,-36.5 336.5,-36.5 330.5,-30.5 330.5,-24.5 330.5,-24.5 330.5,-12.5 330.5,-12.5 330.5,-6.5 336.5,-0.5 342.5,-0.5"/>
<text text-anchor="middle" x="380.5" y="-16.3" font-family="Arial" font-size="9.00">_10: [&#45;Infinity, Infinity]</text>
</g>
<!-- Node_14&#45;&gt;Node_15 -->
<g id="edge8" class="edge"><title>Node_14&#45;&gt;Node_15</title>
<path fill="none" stroke="steelblue" d="M380.5,-73.3129C380.5,-65.2895 380.5,-55.5475 380.5,-46.5691"/>
<polygon fill="steelblue" stroke="steelblue" points="384,-46.5288 380.5,-36.5288 377,-46.5289 384,-46.5288"/>
</g>
<!-- Node_16 -->
<g id="node17" class="node"><title>Node_16</title>
<path fill="lightblue" stroke="lightblue" d="M783.5,-511.5C783.5,-511.5 827.5,-511.5 827.5,-511.5 833.5,-511.5 839.5,-517.5 839.5,-523.5 839.5,-523.5 839.5,-535.5 839.5,-535.5 839.5,-541.5 833.5,-547.5 827.5,-547.5 827.5,-547.5 783.5,-547.5 783.5,-547.5 777.5,-547.5 771.5,-541.5 771.5,-535.5 771.5,-535.5 771.5,-523.5 771.5,-523.5 771.5,-517.5 777.5,-511.5 783.5,-511.5"/>
<text text-anchor="middle" x="805.5" y="-527.3" font-family="Arial" font-size="9.00">sum_4 = 0.0</text>
</g>
<!-- Node_17 -->
<g id="node18" class="node"><title>Node_17</title>
<path fill="moccasin" stroke="moccasin" d="M761,-438.5C761,-438.5 850,-438.5 850,-438.5 856,-438.5 862,-444.5 862,-450.5 862,-450.5 862,-462.5 862,-462.5 862,-468.5 856,-474.5 850,-474.5 850,-474.5 761,-474.5 761,-474.5 755,-474.5 749,-468.5 749,-462.5 749,-462.5 749,-450.5 749,-450.5 749,-444.5 755,-438.5 761,-438.5"/>
<text text-anchor="middle" x="805.5" y="-454.3" font-family="Arial" font-size="9.00">sum_4: [&#45;Infinity, Infinity]</text>
</g>
<!-- Node_16&#45;&gt;Node_17 -->
<g id="edge9" class="edge"><title>Node_16&#45;&gt;Node_17</title>
<path fill="none" stroke="steelblue" d="M805.5,-511.313C805.5,-503.289 805.5,-493.547 805.5,-484.569"/>
<polygon fill="steelblue" stroke="steelblue" points="809,-484.529 805.5,-474.529 802,-484.529 809,-484.529"/>
</g>
</g>
</svg>
