<?xml version="1.0" encoding="UTF-8" standalone="no"?>
<!DOCTYPE svg PUBLIC "-//W3C//DTD SVG 1.1//EN"
 "http://www.w3.org/Graphics/SVG/1.1/DTD/svg11.dtd">
<!-- Generated by graphviz version 2.38.0 (20140413.2041)
 -->
<!-- Title: t6_foo_ConstraintGraph Pages: 1 -->
<svg width="855pt" height="577pt"
     viewBox="0.00 0.00 854.50 577.00" xmlns="http://www.w3.org/2000/svg">
<g id="graph0" class="graph" transform="scale(1 1) rotate(0) translate(4 573)">
<title>t6_foo_ConstraintGraph</title>
<polygon fill="white" stroke="none" points="-4,4 -4,-573 850.5,-573 850.5,4 -4,4"/>
<text text-anchor="middle" x="423.25" y="-555.4" font-family="Arial" font-size="12.00">t6_foo_ConstraintGraph</text>
<!-- Node_0 -->
<g id="node1" class="node"><title>Node_0</title>
<path fill="lightblue" stroke="lightblue" d="M19,-511.5C19,-511.5 63,-511.5 63,-511.5 69,-511.5 75,-517.5 75,-523.5 75,-523.5 75,-535.5 75,-535.5 75,-541.5 69,-547.5 63,-547.5 63,-547.5 19,-547.5 19,-547.5 13,-547.5 7,-541.5 7,-535.5 7,-535.5 7,-523.5 7,-523.5 7,-517.5 13,-511.5 19,-511.5"/>
<text text-anchor="middle" x="41" y="-527.3" font-family="Arial" font-size="9.00">sum_4 = 0.0</text>
</g>
<!-- Node_1 -->
<g id="node2" class="node"><title>Node_1</title>
<path fill="moccasin" stroke="moccasin" d="M12,-438.5C12,-438.5 70,-438.5 70,-438.5 76,-438.5 82,-444.5 82,-450.5 82,-450.5 82,-462.5 82,-462.5 82,-468.5 76,-474.5 70,-474.5 70,-474.5 12,-474.5 12,-474.5 6,-474.5 0,-468.5 0,-462.5 0,-462.5 0,-450.5 0,-450.5 0,-444.5 6,-438.5 12,-438.5"/>
<text text-anchor="middle" x="41" y="-454.3" font-family="Arial" font-size="9.00">sum_4: [&#45;inf, inf]</text>
</g>
<!-- Node_0&#45;&gt;Node_1 -->
<g id="edge1" class="edge"><title>Node_0&#45;&gt;Node_1</title>
<path fill="none" stroke="steelblue" d="M41,-511.313C41,-503.289 41,-493.547 41,-484.569"/>
<polygon fill="steelblue" stroke="steelblue" points="44.5001,-484.529 41,-474.529 37.5001,-484.529 44.5001,-484.529"/>
</g>
<!-- Node_2 -->
<g id="node3" class="node"><title>Node_2</title>
<path fill="lightblue" stroke="lightblue" d="M105,-511.5C105,-511.5 259,-511.5 259,-511.5 265,-511.5 271,-517.5 271,-523.5 271,-523.5 271,-535.5 271,-535.5 271,-541.5 265,-547.5 259,-547.5 259,-547.5 105,-547.5 105,-547.5 99,-547.5 93,-541.5 93,-535.5 93,-535.5 93,-523.5 93,-523.5 93,-517.5 99,-511.5 105,-511.5"/>
<text text-anchor="middle" x="182" y="-527.3" font-family="Arial" font-size="9.00">i_8 = 1.2000000476837158203125e+0</text>
</g>
<!-- Node_3 -->
<g id="node4" class="node"><title>Node_3</title>
<path fill="moccasin" stroke="moccasin" d="M217.5,-438.5C217.5,-438.5 258.5,-438.5 258.5,-438.5 264.5,-438.5 270.5,-444.5 270.5,-450.5 270.5,-450.5 270.5,-462.5 270.5,-462.5 270.5,-468.5 264.5,-474.5 258.5,-474.5 258.5,-474.5 217.5,-474.5 217.5,-474.5 211.5,-474.5 205.5,-468.5 205.5,-462.5 205.5,-462.5 205.5,-450.5 205.5,-450.5 205.5,-444.5 211.5,-438.5 217.5,-438.5"/>
<text text-anchor="middle" x="238" y="-454.3" font-family="Arial" font-size="9.00">i_8: [&#45;inf, inf]</text>
</g>
<!-- Node_2&#45;&gt;Node_3 -->
<g id="edge2" class="edge"><title>Node_2&#45;&gt;Node_3</title>
<path fill="none" stroke="steelblue" d="M195.556,-511.313C202.366,-502.679 210.745,-492.055 218.255,-482.534"/>
<polygon fill="steelblue" stroke="steelblue" points="221.124,-484.548 224.569,-474.529 215.628,-480.213 221.124,-484.548"/>
</g>
<!-- Node_16 -->
<g id="node17" class="node"><title>Node_16</title>
<path fill="lightblue" stroke="lightblue" d="M343.5,-365.5C343.5,-365.5 408.5,-365.5 408.5,-365.5 414.5,-365.5 420.5,-371.5 420.5,-377.5 420.5,-377.5 420.5,-389.5 420.5,-389.5 420.5,-395.5 414.5,-401.5 408.5,-401.5 408.5,-401.5 343.5,-401.5 343.5,-401.5 337.5,-401.5 331.5,-395.5 331.5,-389.5 331.5,-389.5 331.5,-377.5 331.5,-377.5 331.5,-371.5 337.5,-365.5 343.5,-365.5"/>
<text text-anchor="middle" x="376" y="-381.3" font-family="Arial" font-size="9.00">sum_9 = i_8 &#45; j_3</text>
</g>
<!-- Node_3&#45;&gt;Node_16 -->
<g id="edge12" class="edge"><title>Node_3&#45;&gt;Node_16</title>
<path fill="none" stroke="tan" d="M270.704,-438.674C289.504,-429.001 313.33,-416.743 333.561,-406.335"/>
<polygon fill="tan" stroke="tan" points="335.281,-409.386 342.572,-401.698 332.079,-403.161 335.281,-409.386"/>
</g>
<!-- Node_4 -->
<g id="node5" class="node"><title>Node_4</title>
<path fill="lightblue" stroke="lightblue" d="M537.5,-365.5C537.5,-365.5 604.5,-365.5 604.5,-365.5 610.5,-365.5 616.5,-371.5 616.5,-377.5 616.5,-377.5 616.5,-389.5 616.5,-389.5 616.5,-395.5 610.5,-401.5 604.5,-401.5 604.5,-401.5 537.5,-401.5 537.5,-401.5 531.5,-401.5 525.5,-395.5 525.5,-389.5 525.5,-389.5 525.5,-377.5 525.5,-377.5 525.5,-371.5 531.5,-365.5 537.5,-365.5"/>
<text text-anchor="middle" x="571" y="-381.3" font-family="Arial" font-size="9.00">sum_7 = i_2 + j_6</text>
</g>
<!-- Node_5 -->
<g id="node6" class="node"><title>Node_5</title>
<path fill="moccasin" stroke="moccasin" d="M518,-292.5C518,-292.5 576,-292.5 576,-292.5 582,-292.5 588,-298.5 588,-304.5 588,-304.5 588,-316.5 588,-316.5 588,-322.5 582,-328.5 576,-328.5 576,-328.5 518,-328.5 518,-328.5 512,-328.5 506,-322.5 506,-316.5 506,-316.5 506,-304.5 506,-304.5 506,-298.5 512,-292.5 518,-292.5"/>
<text text-anchor="middle" x="547" y="-308.3" font-family="Arial" font-size="9.00">sum_7: [&#45;inf, inf]</text>
</g>
<!-- Node_4&#45;&gt;Node_5 -->
<g id="edge3" class="edge"><title>Node_4&#45;&gt;Node_5</title>
<path fill="none" stroke="steelblue" d="M565.19,-365.313C562.449,-357.202 559.113,-347.336 556.051,-338.277"/>
<polygon fill="steelblue" stroke="steelblue" points="559.274,-336.881 552.756,-328.529 552.643,-339.123 559.274,-336.881"/>
</g>
<!-- Node_14 -->
<g id="node15" class="node"><title>Node_14</title>
<path fill="lightblue" stroke="lightblue" d="M409,-219.5C409,-219.5 561,-219.5 561,-219.5 567,-219.5 573,-225.5 573,-231.5 573,-231.5 573,-243.5 573,-243.5 573,-249.5 567,-255.5 561,-255.5 561,-255.5 409,-255.5 409,-255.5 403,-255.5 397,-249.5 397,-243.5 397,-243.5 397,-231.5 397,-231.5 397,-225.5 403,-219.5 409,-219.5"/>
<text text-anchor="middle" x="485" y="-235.3" font-family="Arial" font-size="9.00"># sum_1 = PHI &lt;sum_7(3), sum_9(4)&gt;</text>
</g>
<!-- Node_5&#45;&gt;Node_14 -->
<g id="edge16" class="edge"><title>Node_5&#45;&gt;Node_14</title>
<path fill="none" stroke="tan" d="M531.992,-292.313C524.376,-283.592 514.987,-272.84 506.609,-263.246"/>
<polygon fill="tan" stroke="tan" points="509.084,-260.759 499.87,-255.529 503.811,-265.363 509.084,-260.759"/>
</g>
<!-- Node_6 -->
<g id="node7" class="node"><title>Node_6</title>
<path fill="lightblue" stroke="lightblue" d="M492.5,-511.5C492.5,-511.5 649.5,-511.5 649.5,-511.5 655.5,-511.5 661.5,-517.5 661.5,-523.5 661.5,-523.5 661.5,-535.5 661.5,-535.5 661.5,-541.5 655.5,-547.5 649.5,-547.5 649.5,-547.5 492.5,-547.5 492.5,-547.5 486.5,-547.5 480.5,-541.5 480.5,-535.5 480.5,-535.5 480.5,-523.5 480.5,-523.5 480.5,-517.5 486.5,-511.5 492.5,-511.5"/>
<text text-anchor="middle" x="571" y="-527.3" font-family="Arial" font-size="9.00">i_2 = 8.00000011920928955078125e&#45;1</text>
</g>
<!-- Node_7 -->
<g id="node8" class="node"><title>Node_7</title>
<path fill="moccasin" stroke="moccasin" d="M550.5,-438.5C550.5,-438.5 591.5,-438.5 591.5,-438.5 597.5,-438.5 603.5,-444.5 603.5,-450.5 603.5,-450.5 603.5,-462.5 603.5,-462.5 603.5,-468.5 597.5,-474.5 591.5,-474.5 591.5,-474.5 550.5,-474.5 550.5,-474.5 544.5,-474.5 538.5,-468.5 538.5,-462.5 538.5,-462.5 538.5,-450.5 538.5,-450.5 538.5,-444.5 544.5,-438.5 550.5,-438.5"/>
<text text-anchor="middle" x="571" y="-454.3" font-family="Arial" font-size="9.00">i_2: [&#45;inf, inf]</text>
</g>
<!-- Node_6&#45;&gt;Node_7 -->
<g id="edge4" class="edge"><title>Node_6&#45;&gt;Node_7</title>
<path fill="none" stroke="steelblue" d="M571,-511.313C571,-503.289 571,-493.547 571,-484.569"/>
<polygon fill="steelblue" stroke="steelblue" points="574.5,-484.529 571,-474.529 567.5,-484.529 574.5,-484.529"/>
</g>
<!-- Node_7&#45;&gt;Node_4 -->
<g id="edge11" class="edge"><title>Node_7&#45;&gt;Node_4</title>
<path fill="none" stroke="tan" d="M571,-438.313C571,-430.289 571,-420.547 571,-411.569"/>
<polygon fill="tan" stroke="tan" points="574.5,-411.529 571,-401.529 567.5,-411.529 574.5,-411.529"/>
</g>
<!-- Node_8 -->
<g id="node9" class="node"><title>Node_8</title>
<path fill="lightblue" stroke="lightblue" d="M301.5,-511.5C301.5,-511.5 450.5,-511.5 450.5,-511.5 456.5,-511.5 462.5,-517.5 462.5,-523.5 462.5,-523.5 462.5,-535.5 462.5,-535.5 462.5,-541.5 456.5,-547.5 450.5,-547.5 450.5,-547.5 301.5,-547.5 301.5,-547.5 295.5,-547.5 289.5,-541.5 289.5,-535.5 289.5,-535.5 289.5,-523.5 289.5,-523.5 289.5,-517.5 295.5,-511.5 301.5,-511.5"/>
<text text-anchor="middle" x="376" y="-527.3" font-family="Arial" font-size="9.00">j_3 = 1.019999980926513671875e+1</text>
</g>
<!-- Node_9 -->
<g id="node10" class="node"><title>Node_9</title>
<path fill="moccasin" stroke="moccasin" d="M355.5,-438.5C355.5,-438.5 396.5,-438.5 396.5,-438.5 402.5,-438.5 408.5,-444.5 408.5,-450.5 408.5,-450.5 408.5,-462.5 408.5,-462.5 408.5,-468.5 402.5,-474.5 396.5,-474.5 396.5,-474.5 355.5,-474.5 355.5,-474.5 349.5,-474.5 343.5,-468.5 343.5,-462.5 343.5,-462.5 343.5,-450.5 343.5,-450.5 343.5,-444.5 349.5,-438.5 355.5,-438.5"/>
<text text-anchor="middle" x="376" y="-454.3" font-family="Arial" font-size="9.00">j_3: [&#45;inf, inf]</text>
</g>
<!-- Node_8&#45;&gt;Node_9 -->
<g id="edge5" class="edge"><title>Node_8&#45;&gt;Node_9</title>
<path fill="none" stroke="steelblue" d="M376,-511.313C376,-503.289 376,-493.547 376,-484.569"/>
<polygon fill="steelblue" stroke="steelblue" points="379.5,-484.529 376,-474.529 372.5,-484.529 379.5,-484.529"/>
</g>
<!-- Node_9&#45;&gt;Node_16 -->
<g id="edge15" class="edge"><title>Node_9&#45;&gt;Node_16</title>
<path fill="none" stroke="tan" d="M376,-438.313C376,-430.289 376,-420.547 376,-411.569"/>
<polygon fill="tan" stroke="tan" points="379.5,-411.529 376,-401.529 372.5,-411.529 379.5,-411.529"/>
</g>
<!-- Node_10 -->
<g id="node11" class="node"><title>Node_10</title>
<path fill="lightblue" stroke="lightblue" d="M452.5,-73.5C452.5,-73.5 517.5,-73.5 517.5,-73.5 523.5,-73.5 529.5,-79.5 529.5,-85.5 529.5,-85.5 529.5,-97.5 529.5,-97.5 529.5,-103.5 523.5,-109.5 517.5,-109.5 517.5,-109.5 452.5,-109.5 452.5,-109.5 446.5,-109.5 440.5,-103.5 440.5,-97.5 440.5,-97.5 440.5,-85.5 440.5,-85.5 440.5,-79.5 446.5,-73.5 452.5,-73.5"/>
<text text-anchor="middle" x="485" y="-89.3" font-family="Arial" font-size="9.00">_10 = (int) sum_1</text>
</g>
<!-- Node_11 -->
<g id="node12" class="node"><title>Node_11</title>
<path fill="moccasin" stroke="moccasin" d="M463,-0.5C463,-0.5 507,-0.5 507,-0.5 513,-0.5 519,-6.5 519,-12.5 519,-12.5 519,-24.5 519,-24.5 519,-30.5 513,-36.5 507,-36.5 507,-36.5 463,-36.5 463,-36.5 457,-36.5 451,-30.5 451,-24.5 451,-24.5 451,-12.5 451,-12.5 451,-6.5 457,-0.5 463,-0.5"/>
<text text-anchor="middle" x="485" y="-16.3" font-family="Arial" font-size="9.00">_10: [&#45;inf, inf]</text>
</g>
<!-- Node_10&#45;&gt;Node_11 -->
<g id="edge6" class="edge"><title>Node_10&#45;&gt;Node_11</title>
<path fill="none" stroke="steelblue" d="M485,-73.3129C485,-65.2895 485,-55.5475 485,-46.5691"/>
<polygon fill="steelblue" stroke="steelblue" points="488.5,-46.5288 485,-36.5288 481.5,-46.5289 488.5,-46.5288"/>
</g>
<!-- Node_12 -->
<g id="node13" class="node"><title>Node_12</title>
<path fill="lightblue" stroke="lightblue" d="M691.5,-511.5C691.5,-511.5 834.5,-511.5 834.5,-511.5 840.5,-511.5 846.5,-517.5 846.5,-523.5 846.5,-523.5 846.5,-535.5 846.5,-535.5 846.5,-541.5 840.5,-547.5 834.5,-547.5 834.5,-547.5 691.5,-547.5 691.5,-547.5 685.5,-547.5 679.5,-541.5 679.5,-535.5 679.5,-535.5 679.5,-523.5 679.5,-523.5 679.5,-517.5 685.5,-511.5 691.5,-511.5"/>
<text text-anchor="middle" x="763" y="-527.3" font-family="Arial" font-size="9.00">j_6 = 9.19999980926513671875e+0</text>
</g>
<!-- Node_13 -->
<g id="node14" class="node"><title>Node_13</title>
<path fill="moccasin" stroke="moccasin" d="M687.5,-438.5C687.5,-438.5 728.5,-438.5 728.5,-438.5 734.5,-438.5 740.5,-444.5 740.5,-450.5 740.5,-450.5 740.5,-462.5 740.5,-462.5 740.5,-468.5 734.5,-474.5 728.5,-474.5 728.5,-474.5 687.5,-474.5 687.5,-474.5 681.5,-474.5 675.5,-468.5 675.5,-462.5 675.5,-462.5 675.5,-450.5 675.5,-450.5 675.5,-444.5 681.5,-438.5 687.5,-438.5"/>
<text text-anchor="middle" x="708" y="-454.3" font-family="Arial" font-size="9.00">j_6: [&#45;inf, inf]</text>
</g>
<!-- Node_12&#45;&gt;Node_13 -->
<g id="edge7" class="edge"><title>Node_12&#45;&gt;Node_13</title>
<path fill="none" stroke="steelblue" d="M749.686,-511.313C742.998,-502.679 734.768,-492.055 727.393,-482.534"/>
<polygon fill="steelblue" stroke="steelblue" points="730.082,-480.291 721.191,-474.529 724.548,-484.578 730.082,-480.291"/>
</g>
<!-- Node_13&#45;&gt;Node_4 -->
<g id="edge10" class="edge"><title>Node_13&#45;&gt;Node_4</title>
<path fill="none" stroke="tan" d="M675.185,-438.494C656.513,-428.817 632.933,-416.597 612.93,-406.23"/>
<polygon fill="tan" stroke="tan" points="614.511,-403.107 604.022,-401.614 611.29,-409.322 614.511,-403.107"/>
</g>
<!-- Node_15 -->
<g id="node16" class="node"><title>Node_15</title>
<path fill="moccasin" stroke="moccasin" d="M456,-146.5C456,-146.5 514,-146.5 514,-146.5 520,-146.5 526,-152.5 526,-158.5 526,-158.5 526,-170.5 526,-170.5 526,-176.5 520,-182.5 514,-182.5 514,-182.5 456,-182.5 456,-182.5 450,-182.5 444,-176.5 444,-170.5 444,-170.5 444,-158.5 444,-158.5 444,-152.5 450,-146.5 456,-146.5"/>
<text text-anchor="middle" x="485" y="-162.3" font-family="Arial" font-size="9.00">sum_1: [&#45;inf, inf]</text>
</g>
<!-- Node_14&#45;&gt;Node_15 -->
<g id="edge8" class="edge"><title>Node_14&#45;&gt;Node_15</title>
<path fill="none" stroke="steelblue" d="M485,-219.313C485,-211.289 485,-201.547 485,-192.569"/>
<polygon fill="steelblue" stroke="steelblue" points="488.5,-192.529 485,-182.529 481.5,-192.529 488.5,-192.529"/>
</g>
<!-- Node_15&#45;&gt;Node_10 -->
<g id="edge14" class="edge"><title>Node_15&#45;&gt;Node_10</title>
<path fill="none" stroke="tan" d="M485,-146.313C485,-138.289 485,-128.547 485,-119.569"/>
<polygon fill="tan" stroke="tan" points="488.5,-119.529 485,-109.529 481.5,-119.529 488.5,-119.529"/>
</g>
<!-- Node_17 -->
<g id="node18" class="node"><title>Node_17</title>
<path fill="moccasin" stroke="moccasin" d="M394,-292.5C394,-292.5 452,-292.5 452,-292.5 458,-292.5 464,-298.5 464,-304.5 464,-304.5 464,-316.5 464,-316.5 464,-322.5 458,-328.5 452,-328.5 452,-328.5 394,-328.5 394,-328.5 388,-328.5 382,-322.5 382,-316.5 382,-316.5 382,-304.5 382,-304.5 382,-298.5 388,-292.5 394,-292.5"/>
<text text-anchor="middle" x="423" y="-308.3" font-family="Arial" font-size="9.00">sum_9: [&#45;inf, inf]</text>
</g>
<!-- Node_16&#45;&gt;Node_17 -->
<g id="edge9" class="edge"><title>Node_16&#45;&gt;Node_17</title>
<path fill="none" stroke="steelblue" d="M387.377,-365.313C392.977,-356.853 399.842,-346.484 406.045,-337.112"/>
<polygon fill="steelblue" stroke="steelblue" points="409.126,-338.799 411.727,-328.529 403.289,-334.935 409.126,-338.799"/>
</g>
<!-- Node_17&#45;&gt;Node_14 -->
<g id="edge13" class="edge"><title>Node_17&#45;&gt;Node_14</title>
<path fill="none" stroke="tan" d="M438.008,-292.313C445.624,-283.592 455.013,-272.84 463.391,-263.246"/>
<polygon fill="tan" stroke="tan" points="466.189,-265.363 470.13,-255.529 460.916,-260.759 466.189,-265.363"/>
</g>
</g>
</svg>
