<?xml version="1.0" encoding="UTF-8" standalone="no"?>
<!DOCTYPE svg PUBLIC "-//W3C//DTD SVG 1.1//EN"
 "http://www.w3.org/Graphics/SVG/1.1/DTD/svg11.dtd">
<!-- Generated by graphviz version 2.38.0 (20140413.2041)
 -->
<!-- Title: t6_foo_ConstraintGraph Pages: 1 -->
<svg width="980pt" height="577pt"
     viewBox="0.00 0.00 979.50 577.00" xmlns="http://www.w3.org/2000/svg">
<g id="graph0" class="graph" transform="scale(1 1) rotate(0) translate(4 573)">
<title>t6_foo_ConstraintGraph</title>
<polygon fill="white" stroke="none" points="-4,4 -4,-573 975.5,-573 975.5,4 -4,4"/>
<text text-anchor="middle" x="485.75" y="-555.4" font-family="Arial" font-size="12.00">t6_foo_ConstraintGraph</text>
<!-- Node_0 -->
<g id="node1" class="node"><title>Node_0</title>
<path fill="lightblue" stroke="lightblue" d="M12,-511.5C12,-511.5 166,-511.5 166,-511.5 172,-511.5 178,-517.5 178,-523.5 178,-523.5 178,-535.5 178,-535.5 178,-541.5 172,-547.5 166,-547.5 166,-547.5 12,-547.5 12,-547.5 6,-547.5 0,-541.5 0,-535.5 0,-535.5 0,-523.5 0,-523.5 0,-517.5 6,-511.5 12,-511.5"/>
<text text-anchor="middle" x="89" y="-527.3" font-family="Arial" font-size="9.00">i_8 = 1.2000000476837158203125e+0</text>
</g>
<!-- Node_1 -->
<g id="node2" class="node"><title>Node_1</title>
<path fill="moccasin" stroke="moccasin" d="M92.5,-438.5C92.5,-438.5 165.5,-438.5 165.5,-438.5 171.5,-438.5 177.5,-444.5 177.5,-450.5 177.5,-450.5 177.5,-462.5 177.5,-462.5 177.5,-468.5 171.5,-474.5 165.5,-474.5 165.5,-474.5 92.5,-474.5 92.5,-474.5 86.5,-474.5 80.5,-468.5 80.5,-462.5 80.5,-462.5 80.5,-450.5 80.5,-450.5 80.5,-444.5 86.5,-438.5 92.5,-438.5"/>
<text text-anchor="middle" x="129" y="-454.3" font-family="Arial" font-size="9.00">i_8: [&#45;Infinity, Infinity]</text>
</g>
<!-- Node_0&#45;&gt;Node_1 -->
<g id="edge1" class="edge"><title>Node_0&#45;&gt;Node_1</title>
<path fill="none" stroke="steelblue" d="M98.6829,-511.313C103.4,-502.941 109.171,-492.697 114.407,-483.403"/>
<polygon fill="steelblue" stroke="steelblue" points="117.547,-484.959 119.406,-474.529 111.448,-481.523 117.547,-484.959"/>
</g>
<!-- Node_2 -->
<g id="node3" class="node"><title>Node_2</title>
<path fill="lightblue" stroke="lightblue" d="M250.5,-365.5C250.5,-365.5 315.5,-365.5 315.5,-365.5 321.5,-365.5 327.5,-371.5 327.5,-377.5 327.5,-377.5 327.5,-389.5 327.5,-389.5 327.5,-395.5 321.5,-401.5 315.5,-401.5 315.5,-401.5 250.5,-401.5 250.5,-401.5 244.5,-401.5 238.5,-395.5 238.5,-389.5 238.5,-389.5 238.5,-377.5 238.5,-377.5 238.5,-371.5 244.5,-365.5 250.5,-365.5"/>
<text text-anchor="middle" x="283" y="-381.3" font-family="Arial" font-size="9.00">sum_9 = i_8 &#45; j_3</text>
</g>
<!-- Node_1&#45;&gt;Node_2 -->
<g id="edge10" class="edge"><title>Node_1&#45;&gt;Node_2</title>
<path fill="none" stroke="tan" d="M165.887,-438.494C187.159,-428.686 214.099,-416.266 236.776,-405.811"/>
<polygon fill="tan" stroke="tan" points="238.264,-408.979 245.88,-401.614 235.334,-402.622 238.264,-408.979"/>
</g>
<!-- Node_3 -->
<g id="node4" class="node"><title>Node_3</title>
<path fill="moccasin" stroke="moccasin" d="M266.5,-292.5C266.5,-292.5 355.5,-292.5 355.5,-292.5 361.5,-292.5 367.5,-298.5 367.5,-304.5 367.5,-304.5 367.5,-316.5 367.5,-316.5 367.5,-322.5 361.5,-328.5 355.5,-328.5 355.5,-328.5 266.5,-328.5 266.5,-328.5 260.5,-328.5 254.5,-322.5 254.5,-316.5 254.5,-316.5 254.5,-304.5 254.5,-304.5 254.5,-298.5 260.5,-292.5 266.5,-292.5"/>
<text text-anchor="middle" x="311" y="-308.3" font-family="Arial" font-size="9.00">sum_9: [&#45;Infinity, Infinity]</text>
</g>
<!-- Node_2&#45;&gt;Node_3 -->
<g id="edge2" class="edge"><title>Node_2&#45;&gt;Node_3</title>
<path fill="none" stroke="steelblue" d="M289.778,-365.313C293.011,-357.115 296.951,-347.123 300.555,-337.985"/>
<polygon fill="steelblue" stroke="steelblue" points="303.872,-339.116 304.284,-328.529 297.36,-336.548 303.872,-339.116"/>
</g>
<!-- Node_4 -->
<g id="node5" class="node"><title>Node_4</title>
<path fill="lightblue" stroke="lightblue" d="M307,-219.5C307,-219.5 459,-219.5 459,-219.5 465,-219.5 471,-225.5 471,-231.5 471,-231.5 471,-243.5 471,-243.5 471,-249.5 465,-255.5 459,-255.5 459,-255.5 307,-255.5 307,-255.5 301,-255.5 295,-249.5 295,-243.5 295,-243.5 295,-231.5 295,-231.5 295,-225.5 301,-219.5 307,-219.5"/>
<text text-anchor="middle" x="383" y="-235.3" font-family="Arial" font-size="9.00"># sum_1 = PHI &lt;sum_7(3), sum_9(4)&gt;</text>
</g>
<!-- Node_3&#45;&gt;Node_4 -->
<g id="edge12" class="edge"><title>Node_3&#45;&gt;Node_4</title>
<path fill="none" stroke="tan" d="M328.429,-292.313C337.45,-283.417 348.613,-272.409 358.488,-262.672"/>
<polygon fill="tan" stroke="tan" points="361.068,-265.042 365.731,-255.529 356.153,-260.058 361.068,-265.042"/>
</g>
<!-- Node_5 -->
<g id="node6" class="node"><title>Node_5</title>
<path fill="moccasin" stroke="moccasin" d="M338.5,-146.5C338.5,-146.5 427.5,-146.5 427.5,-146.5 433.5,-146.5 439.5,-152.5 439.5,-158.5 439.5,-158.5 439.5,-170.5 439.5,-170.5 439.5,-176.5 433.5,-182.5 427.5,-182.5 427.5,-182.5 338.5,-182.5 338.5,-182.5 332.5,-182.5 326.5,-176.5 326.5,-170.5 326.5,-170.5 326.5,-158.5 326.5,-158.5 326.5,-152.5 332.5,-146.5 338.5,-146.5"/>
<text text-anchor="middle" x="383" y="-162.3" font-family="Arial" font-size="9.00">sum_1: [&#45;Infinity, Infinity]</text>
</g>
<!-- Node_4&#45;&gt;Node_5 -->
<g id="edge3" class="edge"><title>Node_4&#45;&gt;Node_5</title>
<path fill="none" stroke="steelblue" d="M383,-219.313C383,-211.289 383,-201.547 383,-192.569"/>
<polygon fill="steelblue" stroke="steelblue" points="386.5,-192.529 383,-182.529 379.5,-192.529 386.5,-192.529"/>
</g>
<!-- Node_12 -->
<g id="node13" class="node"><title>Node_12</title>
<path fill="lightblue" stroke="lightblue" d="M350.5,-73.5C350.5,-73.5 415.5,-73.5 415.5,-73.5 421.5,-73.5 427.5,-79.5 427.5,-85.5 427.5,-85.5 427.5,-97.5 427.5,-97.5 427.5,-103.5 421.5,-109.5 415.5,-109.5 415.5,-109.5 350.5,-109.5 350.5,-109.5 344.5,-109.5 338.5,-103.5 338.5,-97.5 338.5,-97.5 338.5,-85.5 338.5,-85.5 338.5,-79.5 344.5,-73.5 350.5,-73.5"/>
<text text-anchor="middle" x="383" y="-89.3" font-family="Arial" font-size="9.00">_10 = (int) sum_1</text>
</g>
<!-- Node_5&#45;&gt;Node_12 -->
<g id="edge16" class="edge"><title>Node_5&#45;&gt;Node_12</title>
<path fill="none" stroke="tan" d="M383,-146.313C383,-138.289 383,-128.547 383,-119.569"/>
<polygon fill="tan" stroke="tan" points="386.5,-119.529 383,-109.529 379.5,-119.529 386.5,-119.529"/>
</g>
<!-- Node_6 -->
<g id="node7" class="node"><title>Node_6</title>
<path fill="lightblue" stroke="lightblue" d="M784,-511.5C784,-511.5 828,-511.5 828,-511.5 834,-511.5 840,-517.5 840,-523.5 840,-523.5 840,-535.5 840,-535.5 840,-541.5 834,-547.5 828,-547.5 828,-547.5 784,-547.5 784,-547.5 778,-547.5 772,-541.5 772,-535.5 772,-535.5 772,-523.5 772,-523.5 772,-517.5 778,-511.5 784,-511.5"/>
<text text-anchor="middle" x="806" y="-527.3" font-family="Arial" font-size="9.00">sum_4 = 0.0</text>
</g>
<!-- Node_7 -->
<g id="node8" class="node"><title>Node_7</title>
<path fill="moccasin" stroke="moccasin" d="M761.5,-438.5C761.5,-438.5 850.5,-438.5 850.5,-438.5 856.5,-438.5 862.5,-444.5 862.5,-450.5 862.5,-450.5 862.5,-462.5 862.5,-462.5 862.5,-468.5 856.5,-474.5 850.5,-474.5 850.5,-474.5 761.5,-474.5 761.5,-474.5 755.5,-474.5 749.5,-468.5 749.5,-462.5 749.5,-462.5 749.5,-450.5 749.5,-450.5 749.5,-444.5 755.5,-438.5 761.5,-438.5"/>
<text text-anchor="middle" x="806" y="-454.3" font-family="Arial" font-size="9.00">sum_4: [&#45;Infinity, Infinity]</text>
</g>
<!-- Node_6&#45;&gt;Node_7 -->
<g id="edge4" class="edge"><title>Node_6&#45;&gt;Node_7</title>
<path fill="none" stroke="steelblue" d="M806,-511.313C806,-503.289 806,-493.547 806,-484.569"/>
<polygon fill="steelblue" stroke="steelblue" points="809.5,-484.529 806,-474.529 802.5,-484.529 809.5,-484.529"/>
</g>
<!-- Node_8 -->
<g id="node9" class="node"><title>Node_8</title>
<path fill="lightblue" stroke="lightblue" d="M399.5,-511.5C399.5,-511.5 542.5,-511.5 542.5,-511.5 548.5,-511.5 554.5,-517.5 554.5,-523.5 554.5,-523.5 554.5,-535.5 554.5,-535.5 554.5,-541.5 548.5,-547.5 542.5,-547.5 542.5,-547.5 399.5,-547.5 399.5,-547.5 393.5,-547.5 387.5,-541.5 387.5,-535.5 387.5,-535.5 387.5,-523.5 387.5,-523.5 387.5,-517.5 393.5,-511.5 399.5,-511.5"/>
<text text-anchor="middle" x="471" y="-527.3" font-family="Arial" font-size="9.00">j_6 = 9.19999980926513671875e+0</text>
</g>
<!-- Node_9 -->
<g id="node10" class="node"><title>Node_9</title>
<path fill="moccasin" stroke="moccasin" d="M434.5,-438.5C434.5,-438.5 507.5,-438.5 507.5,-438.5 513.5,-438.5 519.5,-444.5 519.5,-450.5 519.5,-450.5 519.5,-462.5 519.5,-462.5 519.5,-468.5 513.5,-474.5 507.5,-474.5 507.5,-474.5 434.5,-474.5 434.5,-474.5 428.5,-474.5 422.5,-468.5 422.5,-462.5 422.5,-462.5 422.5,-450.5 422.5,-450.5 422.5,-444.5 428.5,-438.5 434.5,-438.5"/>
<text text-anchor="middle" x="471" y="-454.3" font-family="Arial" font-size="9.00">j_6: [&#45;Infinity, Infinity]</text>
</g>
<!-- Node_8&#45;&gt;Node_9 -->
<g id="edge5" class="edge"><title>Node_8&#45;&gt;Node_9</title>
<path fill="none" stroke="steelblue" d="M471,-511.313C471,-503.289 471,-493.547 471,-484.569"/>
<polygon fill="steelblue" stroke="steelblue" points="474.5,-484.529 471,-474.529 467.5,-484.529 474.5,-484.529"/>
</g>
<!-- Node_16 -->
<g id="node17" class="node"><title>Node_16</title>
<path fill="lightblue" stroke="lightblue" d="M437.5,-365.5C437.5,-365.5 504.5,-365.5 504.5,-365.5 510.5,-365.5 516.5,-371.5 516.5,-377.5 516.5,-377.5 516.5,-389.5 516.5,-389.5 516.5,-395.5 510.5,-401.5 504.5,-401.5 504.5,-401.5 437.5,-401.5 437.5,-401.5 431.5,-401.5 425.5,-395.5 425.5,-389.5 425.5,-389.5 425.5,-377.5 425.5,-377.5 425.5,-371.5 431.5,-365.5 437.5,-365.5"/>
<text text-anchor="middle" x="471" y="-381.3" font-family="Arial" font-size="9.00">sum_7 = i_2 + j_6</text>
</g>
<!-- Node_9&#45;&gt;Node_16 -->
<g id="edge15" class="edge"><title>Node_9&#45;&gt;Node_16</title>
<path fill="none" stroke="tan" d="M471,-438.313C471,-430.289 471,-420.547 471,-411.569"/>
<polygon fill="tan" stroke="tan" points="474.5,-411.529 471,-401.529 467.5,-411.529 474.5,-411.529"/>
</g>
<!-- Node_10 -->
<g id="node11" class="node"><title>Node_10</title>
<path fill="lightblue" stroke="lightblue" d="M208.5,-511.5C208.5,-511.5 357.5,-511.5 357.5,-511.5 363.5,-511.5 369.5,-517.5 369.5,-523.5 369.5,-523.5 369.5,-535.5 369.5,-535.5 369.5,-541.5 363.5,-547.5 357.5,-547.5 357.5,-547.5 208.5,-547.5 208.5,-547.5 202.5,-547.5 196.5,-541.5 196.5,-535.5 196.5,-535.5 196.5,-523.5 196.5,-523.5 196.5,-517.5 202.5,-511.5 208.5,-511.5"/>
<text text-anchor="middle" x="283" y="-527.3" font-family="Arial" font-size="9.00">j_3 = 1.019999980926513671875e+1</text>
</g>
<!-- Node_11 -->
<g id="node12" class="node"><title>Node_11</title>
<path fill="moccasin" stroke="moccasin" d="M246.5,-438.5C246.5,-438.5 319.5,-438.5 319.5,-438.5 325.5,-438.5 331.5,-444.5 331.5,-450.5 331.5,-450.5 331.5,-462.5 331.5,-462.5 331.5,-468.5 325.5,-474.5 319.5,-474.5 319.5,-474.5 246.5,-474.5 246.5,-474.5 240.5,-474.5 234.5,-468.5 234.5,-462.5 234.5,-462.5 234.5,-450.5 234.5,-450.5 234.5,-444.5 240.5,-438.5 246.5,-438.5"/>
<text text-anchor="middle" x="283" y="-454.3" font-family="Arial" font-size="9.00">j_3: [&#45;Infinity, Infinity]</text>
</g>
<!-- Node_10&#45;&gt;Node_11 -->
<g id="edge6" class="edge"><title>Node_10&#45;&gt;Node_11</title>
<path fill="none" stroke="steelblue" d="M283,-511.313C283,-503.289 283,-493.547 283,-484.569"/>
<polygon fill="steelblue" stroke="steelblue" points="286.5,-484.529 283,-474.529 279.5,-484.529 286.5,-484.529"/>
</g>
<!-- Node_11&#45;&gt;Node_2 -->
<g id="edge14" class="edge"><title>Node_11&#45;&gt;Node_2</title>
<path fill="none" stroke="tan" d="M283,-438.313C283,-430.289 283,-420.547 283,-411.569"/>
<polygon fill="tan" stroke="tan" points="286.5,-411.529 283,-401.529 279.5,-411.529 286.5,-411.529"/>
</g>
<!-- Node_13 -->
<g id="node14" class="node"><title>Node_13</title>
<path fill="moccasin" stroke="moccasin" d="M345,-0.5C345,-0.5 421,-0.5 421,-0.5 427,-0.5 433,-6.5 433,-12.5 433,-12.5 433,-24.5 433,-24.5 433,-30.5 427,-36.5 421,-36.5 421,-36.5 345,-36.5 345,-36.5 339,-36.5 333,-30.5 333,-24.5 333,-24.5 333,-12.5 333,-12.5 333,-6.5 339,-0.5 345,-0.5"/>
<text text-anchor="middle" x="383" y="-16.3" font-family="Arial" font-size="9.00">_10: [&#45;Infinity, Infinity]</text>
</g>
<!-- Node_12&#45;&gt;Node_13 -->
<g id="edge7" class="edge"><title>Node_12&#45;&gt;Node_13</title>
<path fill="none" stroke="steelblue" d="M383,-73.3129C383,-65.2895 383,-55.5475 383,-46.5691"/>
<polygon fill="steelblue" stroke="steelblue" points="386.5,-46.5288 383,-36.5288 379.5,-46.5289 386.5,-46.5288"/>
</g>
<!-- Node_14 -->
<g id="node15" class="node"><title>Node_14</title>
<path fill="lightblue" stroke="lightblue" d="M584.5,-511.5C584.5,-511.5 741.5,-511.5 741.5,-511.5 747.5,-511.5 753.5,-517.5 753.5,-523.5 753.5,-523.5 753.5,-535.5 753.5,-535.5 753.5,-541.5 747.5,-547.5 741.5,-547.5 741.5,-547.5 584.5,-547.5 584.5,-547.5 578.5,-547.5 572.5,-541.5 572.5,-535.5 572.5,-535.5 572.5,-523.5 572.5,-523.5 572.5,-517.5 578.5,-511.5 584.5,-511.5"/>
<text text-anchor="middle" x="663" y="-527.3" font-family="Arial" font-size="9.00">i_2 = 8.00000011920928955078125e&#45;1</text>
</g>
<!-- Node_15 -->
<g id="node16" class="node"><title>Node_15</title>
<path fill="moccasin" stroke="moccasin" d="M587.5,-438.5C587.5,-438.5 660.5,-438.5 660.5,-438.5 666.5,-438.5 672.5,-444.5 672.5,-450.5 672.5,-450.5 672.5,-462.5 672.5,-462.5 672.5,-468.5 666.5,-474.5 660.5,-474.5 660.5,-474.5 587.5,-474.5 587.5,-474.5 581.5,-474.5 575.5,-468.5 575.5,-462.5 575.5,-462.5 575.5,-450.5 575.5,-450.5 575.5,-444.5 581.5,-438.5 587.5,-438.5"/>
<text text-anchor="middle" x="624" y="-454.3" font-family="Arial" font-size="9.00">i_2: [&#45;Infinity, Infinity]</text>
</g>
<!-- Node_14&#45;&gt;Node_15 -->
<g id="edge8" class="edge"><title>Node_14&#45;&gt;Node_15</title>
<path fill="none" stroke="steelblue" d="M653.559,-511.313C648.96,-502.941 643.334,-492.697 638.228,-483.403"/>
<polygon fill="steelblue" stroke="steelblue" points="641.236,-481.609 633.354,-474.529 635.101,-484.979 641.236,-481.609"/>
</g>
<!-- Node_15&#45;&gt;Node_16 -->
<g id="edge13" class="edge"><title>Node_15&#45;&gt;Node_16</title>
<path fill="none" stroke="tan" d="M587.353,-438.494C566.312,-428.73 539.691,-416.376 517.224,-405.951"/>
<polygon fill="tan" stroke="tan" points="518.423,-402.648 507.879,-401.614 515.476,-408.998 518.423,-402.648"/>
</g>
<!-- Node_17 -->
<g id="node18" class="node"><title>Node_17</title>
<path fill="moccasin" stroke="moccasin" d="M411.5,-292.5C411.5,-292.5 500.5,-292.5 500.5,-292.5 506.5,-292.5 512.5,-298.5 512.5,-304.5 512.5,-304.5 512.5,-316.5 512.5,-316.5 512.5,-322.5 506.5,-328.5 500.5,-328.5 500.5,-328.5 411.5,-328.5 411.5,-328.5 405.5,-328.5 399.5,-322.5 399.5,-316.5 399.5,-316.5 399.5,-304.5 399.5,-304.5 399.5,-298.5 405.5,-292.5 411.5,-292.5"/>
<text text-anchor="middle" x="456" y="-308.3" font-family="Arial" font-size="9.00">sum_7: [&#45;Infinity, Infinity]</text>
</g>
<!-- Node_16&#45;&gt;Node_17 -->
<g id="edge9" class="edge"><title>Node_16&#45;&gt;Node_17</title>
<path fill="none" stroke="steelblue" d="M467.369,-365.313C465.674,-357.289 463.616,-347.547 461.719,-338.569"/>
<polygon fill="steelblue" stroke="steelblue" points="465.089,-337.589 459.598,-328.529 458.24,-339.036 465.089,-337.589"/>
</g>
<!-- Node_17&#45;&gt;Node_4 -->
<g id="edge11" class="edge"><title>Node_17&#45;&gt;Node_4</title>
<path fill="none" stroke="tan" d="M438.329,-292.313C429.183,-283.417 417.865,-272.409 407.853,-262.672"/>
<polygon fill="tan" stroke="tan" points="410.117,-259.992 400.509,-255.529 405.237,-265.01 410.117,-259.992"/>
</g>
<!-- Node_18 -->
<g id="node19" class="node"><title>Node_18</title>
<path fill="moccasin" stroke="moccasin" d="M870.5,-511.5C870.5,-511.5 959.5,-511.5 959.5,-511.5 965.5,-511.5 971.5,-517.5 971.5,-523.5 971.5,-523.5 971.5,-535.5 971.5,-535.5 971.5,-541.5 965.5,-547.5 959.5,-547.5 959.5,-547.5 870.5,-547.5 870.5,-547.5 864.5,-547.5 858.5,-541.5 858.5,-535.5 858.5,-535.5 858.5,-523.5 858.5,-523.5 858.5,-517.5 864.5,-511.5 870.5,-511.5"/>
<text text-anchor="middle" x="915" y="-527.3" font-family="Arial" font-size="9.00">argc_5: [&#45;Infinity, Infinity]</text>
</g>
</g>
</svg>
