<?xml version="1.0" encoding="UTF-8" standalone="no"?>
<!DOCTYPE svg PUBLIC "-//W3C//DTD SVG 1.1//EN"
 "http://www.w3.org/Graphics/SVG/1.1/DTD/svg11.dtd">
<!-- Generated by graphviz version 2.38.0 (20140413.2041)
 -->
<!-- Title: t6_foo_final_ConstraintGraph Pages: 1 -->
<svg width="1178pt" height="577pt"
     viewBox="0.00 0.00 1177.50 577.00" xmlns="http://www.w3.org/2000/svg">
<g id="graph0" class="graph" transform="scale(1 1) rotate(0) translate(4 573)">
<title>t6_foo_final_ConstraintGraph</title>
<polygon fill="white" stroke="none" points="-4,4 -4,-573 1173.5,-573 1173.5,4 -4,4"/>
<text text-anchor="middle" x="584.75" y="-555.4" font-family="Arial" font-size="12.00">t6_foo_final_ConstraintGraph</text>
<!-- Node_0 -->
<g id="node1" class="node"><title>Node_0</title>
<path fill="lightblue" stroke="lightblue" d="M36,-511.5C36,-511.5 190,-511.5 190,-511.5 196,-511.5 202,-517.5 202,-523.5 202,-523.5 202,-535.5 202,-535.5 202,-541.5 196,-547.5 190,-547.5 190,-547.5 36,-547.5 36,-547.5 30,-547.5 24,-541.5 24,-535.5 24,-535.5 24,-523.5 24,-523.5 24,-517.5 30,-511.5 36,-511.5"/>
<text text-anchor="middle" x="113" y="-527.3" font-family="Arial" font-size="9.00">i_8 = 1.2000000476837158203125e+0</text>
</g>
<!-- Node_1 -->
<g id="node2" class="node"><title>Node_1</title>
<path fill="moccasin" stroke="moccasin" d="M12,-438.5C12,-438.5 214,-438.5 214,-438.5 220,-438.5 226,-444.5 226,-450.5 226,-450.5 226,-462.5 226,-462.5 226,-468.5 220,-474.5 214,-474.5 214,-474.5 12,-474.5 12,-474.5 6,-474.5 0,-468.5 0,-462.5 0,-462.5 0,-450.5 0,-450.5 0,-444.5 6,-438.5 12,-438.5"/>
<text text-anchor="middle" x="113" y="-454.3" font-family="Arial" font-size="9.00">i_8: [1.2000000476837158, 1.2000000476837158]</text>
</g>
<!-- Node_0&#45;&gt;Node_1 -->
<g id="edge1" class="edge"><title>Node_0&#45;&gt;Node_1</title>
<path fill="none" stroke="steelblue" d="M113,-511.313C113,-503.289 113,-493.547 113,-484.569"/>
<polygon fill="steelblue" stroke="steelblue" points="116.5,-484.529 113,-474.529 109.5,-484.529 116.5,-484.529"/>
</g>
<!-- Node_2 -->
<g id="node3" class="node"><title>Node_2</title>
<path fill="lightblue" stroke="lightblue" d="M320.5,-365.5C320.5,-365.5 385.5,-365.5 385.5,-365.5 391.5,-365.5 397.5,-371.5 397.5,-377.5 397.5,-377.5 397.5,-389.5 397.5,-389.5 397.5,-395.5 391.5,-401.5 385.5,-401.5 385.5,-401.5 320.5,-401.5 320.5,-401.5 314.5,-401.5 308.5,-395.5 308.5,-389.5 308.5,-389.5 308.5,-377.5 308.5,-377.5 308.5,-371.5 314.5,-365.5 320.5,-365.5"/>
<text text-anchor="middle" x="353" y="-381.3" font-family="Arial" font-size="9.00">sum_9 = i_8 &#45; j_3</text>
</g>
<!-- Node_1&#45;&gt;Node_2 -->
<g id="edge10" class="edge"><title>Node_1&#45;&gt;Node_2</title>
<path fill="none" stroke="tan" d="M170.486,-438.494C209.312,-427.008 260.253,-411.938 298.448,-400.638"/>
<polygon fill="tan" stroke="tan" points="299.768,-403.898 308.364,-397.705 297.782,-397.185 299.768,-403.898"/>
</g>
<!-- Node_3 -->
<g id="node4" class="node"><title>Node_3</title>
<path fill="moccasin" stroke="moccasin" d="M246,-292.5C246,-292.5 460,-292.5 460,-292.5 466,-292.5 472,-298.5 472,-304.5 472,-304.5 472,-316.5 472,-316.5 472,-322.5 466,-328.5 460,-328.5 460,-328.5 246,-328.5 246,-328.5 240,-328.5 234,-322.5 234,-316.5 234,-316.5 234,-304.5 234,-304.5 234,-298.5 240,-292.5 246,-292.5"/>
<text text-anchor="middle" x="353" y="-308.3" font-family="Arial" font-size="9.00">sum_9: [&#45;8.999999761581421, &#45;8.999999761581421]</text>
</g>
<!-- Node_2&#45;&gt;Node_3 -->
<g id="edge2" class="edge"><title>Node_2&#45;&gt;Node_3</title>
<path fill="none" stroke="steelblue" d="M353,-365.313C353,-357.289 353,-347.547 353,-338.569"/>
<polygon fill="steelblue" stroke="steelblue" points="356.5,-338.529 353,-328.529 349.5,-338.529 356.5,-338.529"/>
</g>
<!-- Node_4 -->
<g id="node5" class="node"><title>Node_4</title>
<path fill="lightblue" stroke="lightblue" d="M403,-219.5C403,-219.5 555,-219.5 555,-219.5 561,-219.5 567,-225.5 567,-231.5 567,-231.5 567,-243.5 567,-243.5 567,-249.5 561,-255.5 555,-255.5 555,-255.5 403,-255.5 403,-255.5 397,-255.5 391,-249.5 391,-243.5 391,-243.5 391,-231.5 391,-231.5 391,-225.5 397,-219.5 403,-219.5"/>
<text text-anchor="middle" x="479" y="-235.3" font-family="Arial" font-size="9.00"># sum_1 = PHI &lt;sum_7(3), sum_9(4)&gt;</text>
</g>
<!-- Node_3&#45;&gt;Node_4 -->
<g id="edge12" class="edge"><title>Node_3&#45;&gt;Node_4</title>
<path fill="none" stroke="tan" d="M383.18,-292.494C400.044,-282.991 421.26,-271.036 439.439,-260.792"/>
<polygon fill="tan" stroke="tan" points="441.636,-263.572 448.629,-255.614 438.199,-257.474 441.636,-263.572"/>
</g>
<!-- Node_5 -->
<g id="node6" class="node"><title>Node_5</title>
<path fill="moccasin" stroke="moccasin" d="M373.5,-146.5C373.5,-146.5 584.5,-146.5 584.5,-146.5 590.5,-146.5 596.5,-152.5 596.5,-158.5 596.5,-158.5 596.5,-170.5 596.5,-170.5 596.5,-176.5 590.5,-182.5 584.5,-182.5 584.5,-182.5 373.5,-182.5 373.5,-182.5 367.5,-182.5 361.5,-176.5 361.5,-170.5 361.5,-170.5 361.5,-158.5 361.5,-158.5 361.5,-152.5 367.5,-146.5 373.5,-146.5"/>
<text text-anchor="middle" x="479" y="-162.3" font-family="Arial" font-size="9.00">sum_1: [&#45;8.999999761581421, 9.999999821186066]</text>
</g>
<!-- Node_4&#45;&gt;Node_5 -->
<g id="edge3" class="edge"><title>Node_4&#45;&gt;Node_5</title>
<path fill="none" stroke="steelblue" d="M479,-219.313C479,-211.289 479,-201.547 479,-192.569"/>
<polygon fill="steelblue" stroke="steelblue" points="482.5,-192.529 479,-182.529 475.5,-192.529 482.5,-192.529"/>
</g>
<!-- Node_12 -->
<g id="node13" class="node"><title>Node_12</title>
<path fill="lightblue" stroke="lightblue" d="M446.5,-73.5C446.5,-73.5 511.5,-73.5 511.5,-73.5 517.5,-73.5 523.5,-79.5 523.5,-85.5 523.5,-85.5 523.5,-97.5 523.5,-97.5 523.5,-103.5 517.5,-109.5 511.5,-109.5 511.5,-109.5 446.5,-109.5 446.5,-109.5 440.5,-109.5 434.5,-103.5 434.5,-97.5 434.5,-97.5 434.5,-85.5 434.5,-85.5 434.5,-79.5 440.5,-73.5 446.5,-73.5"/>
<text text-anchor="middle" x="479" y="-89.3" font-family="Arial" font-size="9.00">_10 = (int) sum_1</text>
</g>
<!-- Node_5&#45;&gt;Node_12 -->
<g id="edge16" class="edge"><title>Node_5&#45;&gt;Node_12</title>
<path fill="none" stroke="tan" d="M479,-146.313C479,-138.289 479,-128.547 479,-119.569"/>
<polygon fill="tan" stroke="tan" points="482.5,-119.529 479,-109.529 475.5,-119.529 482.5,-119.529"/>
</g>
<!-- Node_6 -->
<g id="node7" class="node"><title>Node_6</title>
<path fill="lightblue" stroke="lightblue" d="M982,-511.5C982,-511.5 1026,-511.5 1026,-511.5 1032,-511.5 1038,-517.5 1038,-523.5 1038,-523.5 1038,-535.5 1038,-535.5 1038,-541.5 1032,-547.5 1026,-547.5 1026,-547.5 982,-547.5 982,-547.5 976,-547.5 970,-541.5 970,-535.5 970,-535.5 970,-523.5 970,-523.5 970,-517.5 976,-511.5 982,-511.5"/>
<text text-anchor="middle" x="1004" y="-527.3" font-family="Arial" font-size="9.00">sum_4 = 0.0</text>
</g>
<!-- Node_7 -->
<g id="node8" class="node"><title>Node_7</title>
<path fill="moccasin" stroke="moccasin" d="M973.5,-438.5C973.5,-438.5 1034.5,-438.5 1034.5,-438.5 1040.5,-438.5 1046.5,-444.5 1046.5,-450.5 1046.5,-450.5 1046.5,-462.5 1046.5,-462.5 1046.5,-468.5 1040.5,-474.5 1034.5,-474.5 1034.5,-474.5 973.5,-474.5 973.5,-474.5 967.5,-474.5 961.5,-468.5 961.5,-462.5 961.5,-462.5 961.5,-450.5 961.5,-450.5 961.5,-444.5 967.5,-438.5 973.5,-438.5"/>
<text text-anchor="middle" x="1004" y="-454.3" font-family="Arial" font-size="9.00">sum_4: [0.0, 0.0]</text>
</g>
<!-- Node_6&#45;&gt;Node_7 -->
<g id="edge4" class="edge"><title>Node_6&#45;&gt;Node_7</title>
<path fill="none" stroke="steelblue" d="M1004,-511.313C1004,-503.289 1004,-493.547 1004,-484.569"/>
<polygon fill="steelblue" stroke="steelblue" points="1007.5,-484.529 1004,-474.529 1000.5,-484.529 1007.5,-484.529"/>
</g>
<!-- Node_8 -->
<g id="node9" class="node"><title>Node_8</title>
<path fill="lightblue" stroke="lightblue" d="M531.5,-511.5C531.5,-511.5 674.5,-511.5 674.5,-511.5 680.5,-511.5 686.5,-517.5 686.5,-523.5 686.5,-523.5 686.5,-535.5 686.5,-535.5 686.5,-541.5 680.5,-547.5 674.5,-547.5 674.5,-547.5 531.5,-547.5 531.5,-547.5 525.5,-547.5 519.5,-541.5 519.5,-535.5 519.5,-535.5 519.5,-523.5 519.5,-523.5 519.5,-517.5 525.5,-511.5 531.5,-511.5"/>
<text text-anchor="middle" x="603" y="-527.3" font-family="Arial" font-size="9.00">j_6 = 9.19999980926513671875e+0</text>
</g>
<!-- Node_9 -->
<g id="node10" class="node"><title>Node_9</title>
<path fill="moccasin" stroke="moccasin" d="M507.5,-438.5C507.5,-438.5 698.5,-438.5 698.5,-438.5 704.5,-438.5 710.5,-444.5 710.5,-450.5 710.5,-450.5 710.5,-462.5 710.5,-462.5 710.5,-468.5 704.5,-474.5 698.5,-474.5 698.5,-474.5 507.5,-474.5 507.5,-474.5 501.5,-474.5 495.5,-468.5 495.5,-462.5 495.5,-462.5 495.5,-450.5 495.5,-450.5 495.5,-444.5 501.5,-438.5 507.5,-438.5"/>
<text text-anchor="middle" x="603" y="-454.3" font-family="Arial" font-size="9.00">j_6: [9.199999809265137, 9.199999809265137]</text>
</g>
<!-- Node_8&#45;&gt;Node_9 -->
<g id="edge5" class="edge"><title>Node_8&#45;&gt;Node_9</title>
<path fill="none" stroke="steelblue" d="M603,-511.313C603,-503.289 603,-493.547 603,-484.569"/>
<polygon fill="steelblue" stroke="steelblue" points="606.5,-484.529 603,-474.529 599.5,-484.529 606.5,-484.529"/>
</g>
<!-- Node_16 -->
<g id="node17" class="node"><title>Node_16</title>
<path fill="lightblue" stroke="lightblue" d="M572.5,-365.5C572.5,-365.5 639.5,-365.5 639.5,-365.5 645.5,-365.5 651.5,-371.5 651.5,-377.5 651.5,-377.5 651.5,-389.5 651.5,-389.5 651.5,-395.5 645.5,-401.5 639.5,-401.5 639.5,-401.5 572.5,-401.5 572.5,-401.5 566.5,-401.5 560.5,-395.5 560.5,-389.5 560.5,-389.5 560.5,-377.5 560.5,-377.5 560.5,-371.5 566.5,-365.5 572.5,-365.5"/>
<text text-anchor="middle" x="606" y="-381.3" font-family="Arial" font-size="9.00">sum_7 = i_2 + j_6</text>
</g>
<!-- Node_9&#45;&gt;Node_16 -->
<g id="edge15" class="edge"><title>Node_9&#45;&gt;Node_16</title>
<path fill="none" stroke="tan" d="M603.726,-438.313C604.065,-430.289 604.477,-420.547 604.856,-411.569"/>
<polygon fill="tan" stroke="tan" points="608.355,-411.668 605.28,-401.529 601.361,-411.372 608.355,-411.668"/>
</g>
<!-- Node_10 -->
<g id="node11" class="node"><title>Node_10</title>
<path fill="lightblue" stroke="lightblue" d="M282.5,-511.5C282.5,-511.5 431.5,-511.5 431.5,-511.5 437.5,-511.5 443.5,-517.5 443.5,-523.5 443.5,-523.5 443.5,-535.5 443.5,-535.5 443.5,-541.5 437.5,-547.5 431.5,-547.5 431.5,-547.5 282.5,-547.5 282.5,-547.5 276.5,-547.5 270.5,-541.5 270.5,-535.5 270.5,-535.5 270.5,-523.5 270.5,-523.5 270.5,-517.5 276.5,-511.5 282.5,-511.5"/>
<text text-anchor="middle" x="357" y="-527.3" font-family="Arial" font-size="9.00">j_3 = 1.019999980926513671875e+1</text>
</g>
<!-- Node_11 -->
<g id="node12" class="node"><title>Node_11</title>
<path fill="moccasin" stroke="moccasin" d="M256,-438.5C256,-438.5 458,-438.5 458,-438.5 464,-438.5 470,-444.5 470,-450.5 470,-450.5 470,-462.5 470,-462.5 470,-468.5 464,-474.5 458,-474.5 458,-474.5 256,-474.5 256,-474.5 250,-474.5 244,-468.5 244,-462.5 244,-462.5 244,-450.5 244,-450.5 244,-444.5 250,-438.5 256,-438.5"/>
<text text-anchor="middle" x="357" y="-454.3" font-family="Arial" font-size="9.00">j_3: [10.199999809265137, 10.199999809265137]</text>
</g>
<!-- Node_10&#45;&gt;Node_11 -->
<g id="edge6" class="edge"><title>Node_10&#45;&gt;Node_11</title>
<path fill="none" stroke="steelblue" d="M357,-511.313C357,-503.289 357,-493.547 357,-484.569"/>
<polygon fill="steelblue" stroke="steelblue" points="360.5,-484.529 357,-474.529 353.5,-484.529 360.5,-484.529"/>
</g>
<!-- Node_11&#45;&gt;Node_2 -->
<g id="edge14" class="edge"><title>Node_11&#45;&gt;Node_2</title>
<path fill="none" stroke="tan" d="M356.032,-438.313C355.58,-430.289 355.031,-420.547 354.525,-411.569"/>
<polygon fill="tan" stroke="tan" points="358.016,-411.316 353.959,-401.529 351.027,-411.71 358.016,-411.316"/>
</g>
<!-- Node_13 -->
<g id="node14" class="node"><title>Node_13</title>
<path fill="moccasin" stroke="moccasin" d="M441,-0.5C441,-0.5 517,-0.5 517,-0.5 523,-0.5 529,-6.5 529,-12.5 529,-12.5 529,-24.5 529,-24.5 529,-30.5 523,-36.5 517,-36.5 517,-36.5 441,-36.5 441,-36.5 435,-36.5 429,-30.5 429,-24.5 429,-24.5 429,-12.5 429,-12.5 429,-6.5 435,-0.5 441,-0.5"/>
<text text-anchor="middle" x="479" y="-16.3" font-family="Arial" font-size="9.00">_10: [&#45;Infinity, Infinity]</text>
</g>
<!-- Node_12&#45;&gt;Node_13 -->
<g id="edge7" class="edge"><title>Node_12&#45;&gt;Node_13</title>
<path fill="none" stroke="steelblue" d="M479,-73.3129C479,-65.2895 479,-55.5475 479,-46.5691"/>
<polygon fill="steelblue" stroke="steelblue" points="482.5,-46.5288 479,-36.5288 475.5,-46.5289 482.5,-46.5288"/>
</g>
<!-- Node_14 -->
<g id="node15" class="node"><title>Node_14</title>
<path fill="lightblue" stroke="lightblue" d="M757.5,-511.5C757.5,-511.5 914.5,-511.5 914.5,-511.5 920.5,-511.5 926.5,-517.5 926.5,-523.5 926.5,-523.5 926.5,-535.5 926.5,-535.5 926.5,-541.5 920.5,-547.5 914.5,-547.5 914.5,-547.5 757.5,-547.5 757.5,-547.5 751.5,-547.5 745.5,-541.5 745.5,-535.5 745.5,-535.5 745.5,-523.5 745.5,-523.5 745.5,-517.5 751.5,-511.5 757.5,-511.5"/>
<text text-anchor="middle" x="836" y="-527.3" font-family="Arial" font-size="9.00">i_2 = 8.00000011920928955078125e&#45;1</text>
</g>
<!-- Node_15 -->
<g id="node16" class="node"><title>Node_15</title>
<path fill="moccasin" stroke="moccasin" d="M740.5,-438.5C740.5,-438.5 931.5,-438.5 931.5,-438.5 937.5,-438.5 943.5,-444.5 943.5,-450.5 943.5,-450.5 943.5,-462.5 943.5,-462.5 943.5,-468.5 937.5,-474.5 931.5,-474.5 931.5,-474.5 740.5,-474.5 740.5,-474.5 734.5,-474.5 728.5,-468.5 728.5,-462.5 728.5,-462.5 728.5,-450.5 728.5,-450.5 728.5,-444.5 734.5,-438.5 740.5,-438.5"/>
<text text-anchor="middle" x="836" y="-454.3" font-family="Arial" font-size="9.00">i_2: [0.800000011920929, 0.800000011920929]</text>
</g>
<!-- Node_14&#45;&gt;Node_15 -->
<g id="edge8" class="edge"><title>Node_14&#45;&gt;Node_15</title>
<path fill="none" stroke="steelblue" d="M836,-511.313C836,-503.289 836,-493.547 836,-484.569"/>
<polygon fill="steelblue" stroke="steelblue" points="839.5,-484.529 836,-474.529 832.5,-484.529 839.5,-484.529"/>
</g>
<!-- Node_15&#45;&gt;Node_16 -->
<g id="edge13" class="edge"><title>Node_15&#45;&gt;Node_16</title>
<path fill="none" stroke="tan" d="M780.909,-438.494C744.831,-427.356 697.838,-412.85 661.648,-401.678"/>
<polygon fill="tan" stroke="tan" points="662.332,-398.227 651.745,-398.621 660.267,-404.915 662.332,-398.227"/>
</g>
<!-- Node_17 -->
<g id="node18" class="node"><title>Node_17</title>
<path fill="moccasin" stroke="moccasin" d="M502,-292.5C502,-292.5 710,-292.5 710,-292.5 716,-292.5 722,-298.5 722,-304.5 722,-304.5 722,-316.5 722,-316.5 722,-322.5 716,-328.5 710,-328.5 710,-328.5 502,-328.5 502,-328.5 496,-328.5 490,-322.5 490,-316.5 490,-316.5 490,-304.5 490,-304.5 490,-298.5 496,-292.5 502,-292.5"/>
<text text-anchor="middle" x="606" y="-308.3" font-family="Arial" font-size="9.00">sum_7: [9.999999821186066, 9.999999821186066]</text>
</g>
<!-- Node_16&#45;&gt;Node_17 -->
<g id="edge9" class="edge"><title>Node_16&#45;&gt;Node_17</title>
<path fill="none" stroke="steelblue" d="M606,-365.313C606,-357.289 606,-347.547 606,-338.569"/>
<polygon fill="steelblue" stroke="steelblue" points="609.5,-338.529 606,-328.529 602.5,-338.529 609.5,-338.529"/>
</g>
<!-- Node_17&#45;&gt;Node_4 -->
<g id="edge11" class="edge"><title>Node_17&#45;&gt;Node_4</title>
<path fill="none" stroke="tan" d="M575.58,-292.494C558.427,-282.904 536.806,-270.817 518.372,-260.511"/>
<polygon fill="tan" stroke="tan" points="520.048,-257.438 509.612,-255.614 516.632,-263.548 520.048,-257.438"/>
</g>
<!-- Node_18 -->
<g id="node19" class="node"><title>Node_18</title>
<path fill="moccasin" stroke="moccasin" d="M1068.5,-511.5C1068.5,-511.5 1157.5,-511.5 1157.5,-511.5 1163.5,-511.5 1169.5,-517.5 1169.5,-523.5 1169.5,-523.5 1169.5,-535.5 1169.5,-535.5 1169.5,-541.5 1163.5,-547.5 1157.5,-547.5 1157.5,-547.5 1068.5,-547.5 1068.5,-547.5 1062.5,-547.5 1056.5,-541.5 1056.5,-535.5 1056.5,-535.5 1056.5,-523.5 1056.5,-523.5 1056.5,-517.5 1062.5,-511.5 1068.5,-511.5"/>
<text text-anchor="middle" x="1113" y="-527.3" font-family="Arial" font-size="9.00">argc_5: [&#45;Infinity, Infinity]</text>
</g>
</g>
</svg>
