<?xml version="1.0" encoding="UTF-8" standalone="no"?>
<!DOCTYPE svg PUBLIC "-//W3C//DTD SVG 1.1//EN"
 "http://www.w3.org/Graphics/SVG/1.1/DTD/svg11.dtd">
<!-- Generated by graphviz version 2.38.0 (20140413.2041)
 -->
<!-- Title: t7_bar_final_ConstraintGraph Pages: 1 -->
<svg width="214pt" height="504pt"
     viewBox="0.00 0.00 214.00 504.00" xmlns="http://www.w3.org/2000/svg">
<g id="graph0" class="graph" transform="scale(1 1) rotate(0) translate(4 500)">
<title>t7_bar_final_ConstraintGraph</title>
<polygon fill="white" stroke="none" points="-4,4 -4,-500 210,-500 210,4 -4,4"/>
<text text-anchor="middle" x="103" y="-482.4" font-family="Arial" font-size="12.00">t7_bar_final_ConstraintGraph</text>
<!-- Node_0 -->
<g id="node1" class="node"><title>Node_0</title>
<path fill="lightblue" stroke="lightblue" d="M57,-73.5C57,-73.5 153,-73.5 153,-73.5 159,-73.5 165,-79.5 165,-85.5 165,-85.5 165,-97.5 165,-97.5 165,-103.5 159,-109.5 153,-109.5 153,-109.5 57,-109.5 57,-109.5 51,-109.5 45,-103.5 45,-97.5 45,-97.5 45,-85.5 45,-85.5 45,-79.5 51,-73.5 57,-73.5"/>
<text text-anchor="middle" x="105" y="-89.3" font-family="Arial" font-size="9.00"># _1 = PHI &lt;_3(3), _4(4)&gt;</text>
</g>
<!-- Node_1 -->
<g id="node2" class="node"><title>Node_1</title>
<path fill="moccasin" stroke="moccasin" d="M69.5,-0.5C69.5,-0.5 140.5,-0.5 140.5,-0.5 146.5,-0.5 152.5,-6.5 152.5,-12.5 152.5,-12.5 152.5,-24.5 152.5,-24.5 152.5,-30.5 146.5,-36.5 140.5,-36.5 140.5,-36.5 69.5,-36.5 69.5,-36.5 63.5,-36.5 57.5,-30.5 57.5,-24.5 57.5,-24.5 57.5,-12.5 57.5,-12.5 57.5,-6.5 63.5,-0.5 69.5,-0.5"/>
<text text-anchor="middle" x="105" y="-16.3" font-family="Arial" font-size="9.00">_1: [&#45;Infinity, Infinity]</text>
</g>
<!-- Node_0&#45;&gt;Node_1 -->
<g id="edge1" class="edge"><title>Node_0&#45;&gt;Node_1</title>
<path fill="none" stroke="steelblue" d="M105,-73.3129C105,-65.2895 105,-55.5475 105,-46.5691"/>
<polygon fill="steelblue" stroke="steelblue" points="108.5,-46.5288 105,-36.5288 101.5,-46.5289 108.5,-46.5288"/>
</g>
<!-- Node_2 -->
<g id="node3" class="node"><title>Node_2</title>
<path fill="lightblue" stroke="lightblue" d="M51.5,-365.5C51.5,-365.5 84.5,-365.5 84.5,-365.5 90.5,-365.5 96.5,-371.5 96.5,-377.5 96.5,-377.5 96.5,-389.5 96.5,-389.5 96.5,-395.5 90.5,-401.5 84.5,-401.5 84.5,-401.5 51.5,-401.5 51.5,-401.5 45.5,-401.5 39.5,-395.5 39.5,-389.5 39.5,-389.5 39.5,-377.5 39.5,-377.5 39.5,-371.5 45.5,-365.5 51.5,-365.5"/>
<text text-anchor="middle" x="68" y="-381.3" font-family="Arial" font-size="9.00">if (i_2 &lt; 0)</text>
</g>
<!-- Node_3 -->
<g id="node4" class="node"><title>Node_3</title>
<path fill="moccasin" stroke="moccasin" d="M12,-292.5C12,-292.5 92,-292.5 92,-292.5 98,-292.5 104,-298.5 104,-304.5 104,-304.5 104,-316.5 104,-316.5 104,-322.5 98,-328.5 92,-328.5 92,-328.5 12,-328.5 12,-328.5 6,-328.5 0,-322.5 0,-316.5 0,-316.5 0,-304.5 0,-304.5 0,-298.5 6,-292.5 12,-292.5"/>
<text text-anchor="middle" x="52" y="-308.3" font-family="Arial" font-size="9.00">i_2_f: [Infinity, &#45;Infinity]</text>
</g>
<!-- Node_2&#45;&gt;Node_3 -->
<g id="edge2" class="edge"><title>Node_2&#45;&gt;Node_3</title>
<path fill="none" stroke="steelblue" d="M64.1268,-365.313C62.3188,-357.289 60.1234,-347.547 58.1001,-338.569"/>
<polygon fill="steelblue" stroke="steelblue" points="61.4503,-337.515 55.8375,-328.529 54.6216,-339.054 61.4503,-337.515"/>
</g>
<!-- Node_8 -->
<g id="node9" class="node"><title>Node_8</title>
<path fill="lightblue" stroke="lightblue" d="M23.5,-219.5C23.5,-219.5 82.5,-219.5 82.5,-219.5 88.5,-219.5 94.5,-225.5 94.5,-231.5 94.5,-231.5 94.5,-243.5 94.5,-243.5 94.5,-249.5 88.5,-255.5 82.5,-255.5 82.5,-255.5 23.5,-255.5 23.5,-255.5 17.5,-255.5 11.5,-249.5 11.5,-243.5 11.5,-243.5 11.5,-231.5 11.5,-231.5 11.5,-225.5 17.5,-219.5 23.5,-219.5"/>
<text text-anchor="middle" x="53" y="-235.3" font-family="Arial" font-size="9.00">_4 = 5 &#45; i_2_f(D)</text>
</g>
<!-- Node_3&#45;&gt;Node_8 -->
<g id="edge10" class="edge"><title>Node_3&#45;&gt;Node_8</title>
<path fill="none" stroke="tan" d="M52.2421,-292.313C52.3551,-284.289 52.4923,-274.547 52.6187,-265.569"/>
<polygon fill="tan" stroke="tan" points="56.1189,-265.577 52.7602,-255.529 49.1196,-265.479 56.1189,-265.577"/>
</g>
<!-- Node_4 -->
<g id="node5" class="node"><title>Node_4</title>
<path fill="lightblue" stroke="lightblue" d="M135,-365.5C135,-365.5 173,-365.5 173,-365.5 179,-365.5 185,-371.5 185,-377.5 185,-377.5 185,-389.5 185,-389.5 185,-395.5 179,-401.5 173,-401.5 173,-401.5 135,-401.5 135,-401.5 129,-401.5 123,-395.5 123,-389.5 123,-389.5 123,-377.5 123,-377.5 123,-371.5 129,-365.5 135,-365.5"/>
<text text-anchor="middle" x="154" y="-381.3" font-family="Arial" font-size="9.00">if (i_2 &gt;= 0)</text>
</g>
<!-- Node_5 -->
<g id="node6" class="node"><title>Node_5</title>
<path fill="moccasin" stroke="moccasin" d="M134.5,-292.5C134.5,-292.5 191.5,-292.5 191.5,-292.5 197.5,-292.5 203.5,-298.5 203.5,-304.5 203.5,-304.5 203.5,-316.5 203.5,-316.5 203.5,-322.5 197.5,-328.5 191.5,-328.5 191.5,-328.5 134.5,-328.5 134.5,-328.5 128.5,-328.5 122.5,-322.5 122.5,-316.5 122.5,-316.5 122.5,-304.5 122.5,-304.5 122.5,-298.5 128.5,-292.5 134.5,-292.5"/>
<text text-anchor="middle" x="163" y="-308.3" font-family="Arial" font-size="9.00">i_2_t: [6.0, 20.0]</text>
</g>
<!-- Node_4&#45;&gt;Node_5 -->
<g id="edge3" class="edge"><title>Node_4&#45;&gt;Node_5</title>
<path fill="none" stroke="steelblue" d="M156.179,-365.313C157.196,-357.289 158.431,-347.547 159.569,-338.569"/>
<polygon fill="steelblue" stroke="steelblue" points="163.056,-338.89 160.841,-328.529 156.112,-338.009 163.056,-338.89"/>
</g>
<!-- Node_6 -->
<g id="node7" class="node"><title>Node_6</title>
<path fill="lightblue" stroke="lightblue" d="M128,-219.5C128,-219.5 194,-219.5 194,-219.5 200,-219.5 206,-225.5 206,-231.5 206,-231.5 206,-243.5 206,-243.5 206,-249.5 200,-255.5 194,-255.5 194,-255.5 128,-255.5 128,-255.5 122,-255.5 116,-249.5 116,-243.5 116,-243.5 116,-231.5 116,-231.5 116,-225.5 122,-219.5 128,-219.5"/>
<text text-anchor="middle" x="161" y="-235.3" font-family="Arial" font-size="9.00">_3 = i_2_t(D) + 10</text>
</g>
<!-- Node_5&#45;&gt;Node_6 -->
<g id="edge9" class="edge"><title>Node_5&#45;&gt;Node_6</title>
<path fill="none" stroke="tan" d="M162.516,-292.313C162.29,-284.289 162.015,-274.547 161.763,-265.569"/>
<polygon fill="tan" stroke="tan" points="165.26,-265.426 161.48,-255.529 158.263,-265.623 165.26,-265.426"/>
</g>
<!-- Node_7 -->
<g id="node8" class="node"><title>Node_7</title>
<path fill="moccasin" stroke="moccasin" d="M130.5,-146.5C130.5,-146.5 183.5,-146.5 183.5,-146.5 189.5,-146.5 195.5,-152.5 195.5,-158.5 195.5,-158.5 195.5,-170.5 195.5,-170.5 195.5,-176.5 189.5,-182.5 183.5,-182.5 183.5,-182.5 130.5,-182.5 130.5,-182.5 124.5,-182.5 118.5,-176.5 118.5,-170.5 118.5,-170.5 118.5,-158.5 118.5,-158.5 118.5,-152.5 124.5,-146.5 130.5,-146.5"/>
<text text-anchor="middle" x="157" y="-162.3" font-family="Arial" font-size="9.00">_3: [16.0, 30.0]</text>
</g>
<!-- Node_6&#45;&gt;Node_7 -->
<g id="edge4" class="edge"><title>Node_6&#45;&gt;Node_7</title>
<path fill="none" stroke="steelblue" d="M160.032,-219.313C159.58,-211.289 159.031,-201.547 158.525,-192.569"/>
<polygon fill="steelblue" stroke="steelblue" points="162.016,-192.316 157.959,-182.529 155.027,-192.71 162.016,-192.316"/>
</g>
<!-- Node_7&#45;&gt;Node_0 -->
<g id="edge11" class="edge"><title>Node_7&#45;&gt;Node_0</title>
<path fill="none" stroke="tan" d="M144.412,-146.313C138.153,-137.766 130.465,-127.269 123.546,-117.823"/>
<polygon fill="tan" stroke="tan" points="126.204,-115.528 117.472,-109.529 120.557,-119.665 126.204,-115.528"/>
</g>
<!-- Node_9 -->
<g id="node10" class="node"><title>Node_9</title>
<path fill="moccasin" stroke="moccasin" d="M17.5,-146.5C17.5,-146.5 88.5,-146.5 88.5,-146.5 94.5,-146.5 100.5,-152.5 100.5,-158.5 100.5,-158.5 100.5,-170.5 100.5,-170.5 100.5,-176.5 94.5,-182.5 88.5,-182.5 88.5,-182.5 17.5,-182.5 17.5,-182.5 11.5,-182.5 5.5,-176.5 5.5,-170.5 5.5,-170.5 5.5,-158.5 5.5,-158.5 5.5,-152.5 11.5,-146.5 17.5,-146.5"/>
<text text-anchor="middle" x="53" y="-162.3" font-family="Arial" font-size="9.00">_4: [Infinity, &#45;Infinity]</text>
</g>
<!-- Node_8&#45;&gt;Node_9 -->
<g id="edge5" class="edge"><title>Node_8&#45;&gt;Node_9</title>
<path fill="none" stroke="steelblue" d="M53,-219.313C53,-211.289 53,-201.547 53,-192.569"/>
<polygon fill="steelblue" stroke="steelblue" points="56.5001,-192.529 53,-182.529 49.5001,-192.529 56.5001,-192.529"/>
</g>
<!-- Node_9&#45;&gt;Node_0 -->
<g id="edge6" class="edge"><title>Node_9&#45;&gt;Node_0</title>
<path fill="none" stroke="tan" d="M65.5877,-146.313C71.8473,-137.766 79.535,-127.269 86.4536,-117.823"/>
<polygon fill="tan" stroke="tan" points="89.4431,-119.665 92.5282,-109.529 83.7957,-115.528 89.4431,-119.665"/>
</g>
<!-- Node_10 -->
<g id="node11" class="node"><title>Node_10</title>
<path fill="moccasin" stroke="moccasin" d="M86,-438.5C86,-438.5 136,-438.5 136,-438.5 142,-438.5 148,-444.5 148,-450.5 148,-450.5 148,-462.5 148,-462.5 148,-468.5 142,-474.5 136,-474.5 136,-474.5 86,-474.5 86,-474.5 80,-474.5 74,-468.5 74,-462.5 74,-462.5 74,-450.5 74,-450.5 74,-444.5 80,-438.5 86,-438.5"/>
<text text-anchor="middle" x="111" y="-454.3" font-family="Arial" font-size="9.00">i_2: [6.0, 20.0]</text>
</g>
<!-- Node_10&#45;&gt;Node_2 -->
<g id="edge7" class="edge"><title>Node_10&#45;&gt;Node_2</title>
<path fill="none" stroke="tan" d="M100.591,-438.313C95.4676,-429.853 89.1872,-419.484 83.5118,-410.112"/>
<polygon fill="tan" stroke="tan" points="86.4874,-408.269 78.3132,-401.529 80.4999,-411.896 86.4874,-408.269"/>
</g>
<!-- Node_10&#45;&gt;Node_4 -->
<g id="edge8" class="edge"><title>Node_10&#45;&gt;Node_4</title>
<path fill="none" stroke="tan" d="M121.409,-438.313C126.532,-429.853 132.813,-419.484 138.488,-410.112"/>
<polygon fill="tan" stroke="tan" points="141.5,-411.896 143.687,-401.529 135.513,-408.269 141.5,-411.896"/>
</g>
</g>
</svg>
