<?xml version="1.0" encoding="UTF-8" standalone="no"?>
<!DOCTYPE svg PUBLIC "-//W3C//DTD SVG 1.1//EN"
 "http://www.w3.org/Graphics/SVG/1.1/DTD/svg11.dtd">
<!-- Generated by graphviz version 2.38.0 (20140413.2041)
 -->
<!-- Title: t7_bar_ConstraintGraph Pages: 1 -->
<svg width="200pt" height="504pt"
     viewBox="0.00 0.00 199.50 504.00" xmlns="http://www.w3.org/2000/svg">
<g id="graph0" class="graph" transform="scale(1 1) rotate(0) translate(4 500)">
<title>t7_bar_ConstraintGraph</title>
<polygon fill="white" stroke="none" points="-4,4 -4,-500 195.5,-500 195.5,4 -4,4"/>
<text text-anchor="middle" x="95.75" y="-482.4" font-family="Arial" font-size="12.00">t7_bar_ConstraintGraph</text>
<!-- Node_0 -->
<g id="node1" class="node"><title>Node_0</title>
<path fill="lightblue" stroke="lightblue" d="M45.5,-73.5C45.5,-73.5 141.5,-73.5 141.5,-73.5 147.5,-73.5 153.5,-79.5 153.5,-85.5 153.5,-85.5 153.5,-97.5 153.5,-97.5 153.5,-103.5 147.5,-109.5 141.5,-109.5 141.5,-109.5 45.5,-109.5 45.5,-109.5 39.5,-109.5 33.5,-103.5 33.5,-97.5 33.5,-97.5 33.5,-85.5 33.5,-85.5 33.5,-79.5 39.5,-73.5 45.5,-73.5"/>
<text text-anchor="middle" x="93.5" y="-89.3" font-family="Arial" font-size="9.00"># _1 = PHI &lt;_3(3), _4(4)&gt;</text>
</g>
<!-- Node_1 -->
<g id="node2" class="node"><title>Node_1</title>
<path fill="moccasin" stroke="moccasin" d="M74,-0.5C74,-0.5 113,-0.5 113,-0.5 119,-0.5 125,-6.5 125,-12.5 125,-12.5 125,-24.5 125,-24.5 125,-30.5 119,-36.5 113,-36.5 113,-36.5 74,-36.5 74,-36.5 68,-36.5 62,-30.5 62,-24.5 62,-24.5 62,-12.5 62,-12.5 62,-6.5 68,-0.5 74,-0.5"/>
<text text-anchor="middle" x="93.5" y="-16.3" font-family="Arial" font-size="9.00">_1: [&#45;inf, inf]</text>
</g>
<!-- Node_0&#45;&gt;Node_1 -->
<g id="edge1" class="edge"><title>Node_0&#45;&gt;Node_1</title>
<path fill="none" stroke="steelblue" d="M93.5,-73.3129C93.5,-65.2895 93.5,-55.5475 93.5,-46.5691"/>
<polygon fill="steelblue" stroke="steelblue" points="97.0001,-46.5288 93.5,-36.5288 90.0001,-46.5289 97.0001,-46.5288"/>
</g>
<!-- Node_2 -->
<g id="node3" class="node"><title>Node_2</title>
<path fill="lightblue" stroke="lightblue" d="M40,-365.5C40,-365.5 73,-365.5 73,-365.5 79,-365.5 85,-371.5 85,-377.5 85,-377.5 85,-389.5 85,-389.5 85,-395.5 79,-401.5 73,-401.5 73,-401.5 40,-401.5 40,-401.5 34,-401.5 28,-395.5 28,-389.5 28,-389.5 28,-377.5 28,-377.5 28,-371.5 34,-365.5 40,-365.5"/>
<text text-anchor="middle" x="56.5" y="-381.3" font-family="Arial" font-size="9.00">if (i_2 &lt; 0)</text>
</g>
<!-- Node_3 -->
<g id="node4" class="node"><title>Node_3</title>
<path fill="moccasin" stroke="moccasin" d="M24,-292.5C24,-292.5 73,-292.5 73,-292.5 79,-292.5 85,-298.5 85,-304.5 85,-304.5 85,-316.5 85,-316.5 85,-322.5 79,-328.5 73,-328.5 73,-328.5 24,-328.5 24,-328.5 18,-328.5 12,-322.5 12,-316.5 12,-316.5 12,-304.5 12,-304.5 12,-298.5 18,-292.5 24,-292.5"/>
<text text-anchor="middle" x="48.5" y="-308.3" font-family="Arial" font-size="9.00">i_2_f: [&#45;inf, inf]</text>
</g>
<!-- Node_2&#45;&gt;Node_3 -->
<g id="edge2" class="edge"><title>Node_2&#45;&gt;Node_3</title>
<path fill="none" stroke="steelblue" d="M54.5634,-365.313C53.6594,-357.289 52.5617,-347.547 51.55,-338.569"/>
<polygon fill="steelblue" stroke="steelblue" points="55.0165,-338.074 50.4187,-328.529 48.0605,-338.858 55.0165,-338.074"/>
</g>
<!-- Node_8 -->
<g id="node9" class="node"><title>Node_8</title>
<path fill="lightblue" stroke="lightblue" d="M12,-219.5C12,-219.5 71,-219.5 71,-219.5 77,-219.5 83,-225.5 83,-231.5 83,-231.5 83,-243.5 83,-243.5 83,-249.5 77,-255.5 71,-255.5 71,-255.5 12,-255.5 12,-255.5 6,-255.5 0,-249.5 0,-243.5 0,-243.5 0,-231.5 0,-231.5 0,-225.5 6,-219.5 12,-219.5"/>
<text text-anchor="middle" x="41.5" y="-235.3" font-family="Arial" font-size="9.00">_4 = 5 &#45; i_2_f(D)</text>
</g>
<!-- Node_3&#45;&gt;Node_8 -->
<g id="edge6" class="edge"><title>Node_3&#45;&gt;Node_8</title>
<path fill="none" stroke="tan" d="M46.8055,-292.313C46.0145,-284.289 45.054,-274.547 44.1688,-265.569"/>
<polygon fill="tan" stroke="tan" points="47.6433,-265.137 43.1789,-255.529 40.677,-265.824 47.6433,-265.137"/>
</g>
<!-- Node_4 -->
<g id="node5" class="node"><title>Node_4</title>
<path fill="lightblue" stroke="lightblue" d="M113.5,-219.5C113.5,-219.5 179.5,-219.5 179.5,-219.5 185.5,-219.5 191.5,-225.5 191.5,-231.5 191.5,-231.5 191.5,-243.5 191.5,-243.5 191.5,-249.5 185.5,-255.5 179.5,-255.5 179.5,-255.5 113.5,-255.5 113.5,-255.5 107.5,-255.5 101.5,-249.5 101.5,-243.5 101.5,-243.5 101.5,-231.5 101.5,-231.5 101.5,-225.5 107.5,-219.5 113.5,-219.5"/>
<text text-anchor="middle" x="146.5" y="-235.3" font-family="Arial" font-size="9.00">_3 = i_2_t(D) + 10</text>
</g>
<!-- Node_5 -->
<g id="node6" class="node"><title>Node_5</title>
<path fill="moccasin" stroke="moccasin" d="M121,-146.5C121,-146.5 160,-146.5 160,-146.5 166,-146.5 172,-152.5 172,-158.5 172,-158.5 172,-170.5 172,-170.5 172,-176.5 166,-182.5 160,-182.5 160,-182.5 121,-182.5 121,-182.5 115,-182.5 109,-176.5 109,-170.5 109,-170.5 109,-158.5 109,-158.5 109,-152.5 115,-146.5 121,-146.5"/>
<text text-anchor="middle" x="140.5" y="-162.3" font-family="Arial" font-size="9.00">_3: [&#45;inf, inf]</text>
</g>
<!-- Node_4&#45;&gt;Node_5 -->
<g id="edge3" class="edge"><title>Node_4&#45;&gt;Node_5</title>
<path fill="none" stroke="steelblue" d="M145.048,-219.313C144.37,-211.289 143.546,-201.547 142.788,-192.569"/>
<polygon fill="steelblue" stroke="steelblue" points="146.269,-192.199 141.939,-182.529 139.294,-192.788 146.269,-192.199"/>
</g>
<!-- Node_5&#45;&gt;Node_0 -->
<g id="edge8" class="edge"><title>Node_5&#45;&gt;Node_0</title>
<path fill="none" stroke="tan" d="M129.123,-146.313C123.523,-137.853 116.658,-127.484 110.455,-118.112"/>
<polygon fill="tan" stroke="tan" points="113.211,-115.935 104.773,-109.529 107.374,-119.799 113.211,-115.935"/>
</g>
<!-- Node_6 -->
<g id="node7" class="node"><title>Node_6</title>
<path fill="lightblue" stroke="lightblue" d="M119.5,-365.5C119.5,-365.5 157.5,-365.5 157.5,-365.5 163.5,-365.5 169.5,-371.5 169.5,-377.5 169.5,-377.5 169.5,-389.5 169.5,-389.5 169.5,-395.5 163.5,-401.5 157.5,-401.5 157.5,-401.5 119.5,-401.5 119.5,-401.5 113.5,-401.5 107.5,-395.5 107.5,-389.5 107.5,-389.5 107.5,-377.5 107.5,-377.5 107.5,-371.5 113.5,-365.5 119.5,-365.5"/>
<text text-anchor="middle" x="138.5" y="-381.3" font-family="Arial" font-size="9.00">if (i_2 &gt;= 0)</text>
</g>
<!-- Node_7 -->
<g id="node8" class="node"><title>Node_7</title>
<path fill="moccasin" stroke="moccasin" d="M118,-292.5C118,-292.5 167,-292.5 167,-292.5 173,-292.5 179,-298.5 179,-304.5 179,-304.5 179,-316.5 179,-316.5 179,-322.5 173,-328.5 167,-328.5 167,-328.5 118,-328.5 118,-328.5 112,-328.5 106,-322.5 106,-316.5 106,-316.5 106,-304.5 106,-304.5 106,-298.5 112,-292.5 118,-292.5"/>
<text text-anchor="middle" x="142.5" y="-308.3" font-family="Arial" font-size="9.00">i_2_t: [&#45;inf, inf]</text>
</g>
<!-- Node_6&#45;&gt;Node_7 -->
<g id="edge4" class="edge"><title>Node_6&#45;&gt;Node_7</title>
<path fill="none" stroke="steelblue" d="M139.468,-365.313C139.92,-357.289 140.469,-347.547 140.975,-338.569"/>
<polygon fill="steelblue" stroke="steelblue" points="144.473,-338.71 141.541,-328.529 137.484,-338.316 144.473,-338.71"/>
</g>
<!-- Node_7&#45;&gt;Node_4 -->
<g id="edge11" class="edge"><title>Node_7&#45;&gt;Node_4</title>
<path fill="none" stroke="tan" d="M143.468,-292.313C143.92,-284.289 144.469,-274.547 144.975,-265.569"/>
<polygon fill="tan" stroke="tan" points="148.473,-265.71 145.541,-255.529 141.484,-265.316 148.473,-265.71"/>
</g>
<!-- Node_9 -->
<g id="node10" class="node"><title>Node_9</title>
<path fill="moccasin" stroke="moccasin" d="M28,-146.5C28,-146.5 67,-146.5 67,-146.5 73,-146.5 79,-152.5 79,-158.5 79,-158.5 79,-170.5 79,-170.5 79,-176.5 73,-182.5 67,-182.5 67,-182.5 28,-182.5 28,-182.5 22,-182.5 16,-176.5 16,-170.5 16,-170.5 16,-158.5 16,-158.5 16,-152.5 22,-146.5 28,-146.5"/>
<text text-anchor="middle" x="47.5" y="-162.3" font-family="Arial" font-size="9.00">_4: [&#45;inf, inf]</text>
</g>
<!-- Node_8&#45;&gt;Node_9 -->
<g id="edge5" class="edge"><title>Node_8&#45;&gt;Node_9</title>
<path fill="none" stroke="steelblue" d="M42.9524,-219.313C43.6305,-211.289 44.4537,-201.547 45.2125,-192.569"/>
<polygon fill="steelblue" stroke="steelblue" points="48.7064,-192.788 46.0609,-182.529 41.7312,-192.199 48.7064,-192.788"/>
</g>
<!-- Node_9&#45;&gt;Node_0 -->
<g id="edge7" class="edge"><title>Node_9&#45;&gt;Node_0</title>
<path fill="none" stroke="tan" d="M58.6353,-146.313C64.1161,-137.853 70.8346,-127.484 76.906,-118.112"/>
<polygon fill="tan" stroke="tan" points="79.9672,-119.824 82.4672,-109.529 74.0924,-116.018 79.9672,-119.824"/>
</g>
<!-- Node_10 -->
<g id="node11" class="node"><title>Node_10</title>
<path fill="moccasin" stroke="moccasin" d="M77,-438.5C77,-438.5 118,-438.5 118,-438.5 124,-438.5 130,-444.5 130,-450.5 130,-450.5 130,-462.5 130,-462.5 130,-468.5 124,-474.5 118,-474.5 118,-474.5 77,-474.5 77,-474.5 71,-474.5 65,-468.5 65,-462.5 65,-462.5 65,-450.5 65,-450.5 65,-444.5 71,-438.5 77,-438.5"/>
<text text-anchor="middle" x="97.5" y="-454.3" font-family="Arial" font-size="9.00">i_2: [&#45;inf, inf]</text>
</g>
<!-- Node_10&#45;&gt;Node_2 -->
<g id="edge9" class="edge"><title>Node_10&#45;&gt;Node_2</title>
<path fill="none" stroke="tan" d="M87.575,-438.313C82.7404,-429.941 76.8251,-419.697 71.4578,-410.403"/>
<polygon fill="tan" stroke="tan" points="74.3653,-408.438 66.3336,-401.529 68.3034,-411.939 74.3653,-408.438"/>
</g>
<!-- Node_10&#45;&gt;Node_6 -->
<g id="edge10" class="edge"><title>Node_10&#45;&gt;Node_6</title>
<path fill="none" stroke="tan" d="M107.425,-438.313C112.26,-429.941 118.175,-419.697 123.542,-410.403"/>
<polygon fill="tan" stroke="tan" points="126.697,-411.939 128.666,-401.529 120.635,-408.438 126.697,-411.939"/>
</g>
</g>
</svg>
