<?xml version="1.0" encoding="UTF-8" standalone="no"?>
<!DOCTYPE svg PUBLIC "-//W3C//DTD SVG 1.1//EN"
 "http://www.w3.org/Graphics/SVG/1.1/DTD/svg11.dtd">
<!-- Generated by graphviz version 2.38.0 (20140413.2041)
 -->
<!-- Title: t7_bar_ConstraintGraph Pages: 1 -->
<svg width="200pt" height="504pt"
     viewBox="0.00 0.00 199.50 504.00" xmlns="http://www.w3.org/2000/svg">
<g id="graph0" class="graph" transform="scale(1 1) rotate(0) translate(4 500)">
<title>t7_bar_ConstraintGraph</title>
<polygon fill="white" stroke="none" points="-4,4 -4,-500 195.5,-500 195.5,4 -4,4"/>
<text text-anchor="middle" x="95.75" y="-482.4" font-family="Arial" font-size="12.00">t7_bar_ConstraintGraph</text>
<!-- Node_0 -->
<g id="node1" class="node"><title>Node_0</title>
<path fill="lightblue" stroke="lightblue" d="M32,-365.5C32,-365.5 70,-365.5 70,-365.5 76,-365.5 82,-371.5 82,-377.5 82,-377.5 82,-389.5 82,-389.5 82,-395.5 76,-401.5 70,-401.5 70,-401.5 32,-401.5 32,-401.5 26,-401.5 20,-395.5 20,-389.5 20,-389.5 20,-377.5 20,-377.5 20,-371.5 26,-365.5 32,-365.5"/>
<text text-anchor="middle" x="51" y="-381.3" font-family="Arial" font-size="9.00">if (i_2 &gt;= 0)</text>
</g>
<!-- Node_1 -->
<g id="node2" class="node"><title>Node_1</title>
<path fill="moccasin" stroke="moccasin" d="M23.5,-292.5C23.5,-292.5 72.5,-292.5 72.5,-292.5 78.5,-292.5 84.5,-298.5 84.5,-304.5 84.5,-304.5 84.5,-316.5 84.5,-316.5 84.5,-322.5 78.5,-328.5 72.5,-328.5 72.5,-328.5 23.5,-328.5 23.5,-328.5 17.5,-328.5 11.5,-322.5 11.5,-316.5 11.5,-316.5 11.5,-304.5 11.5,-304.5 11.5,-298.5 17.5,-292.5 23.5,-292.5"/>
<text text-anchor="middle" x="48" y="-308.3" font-family="Arial" font-size="9.00">i_2_t: [&#45;inf, inf]</text>
</g>
<!-- Node_0&#45;&gt;Node_1 -->
<g id="edge1" class="edge"><title>Node_0&#45;&gt;Node_1</title>
<path fill="none" stroke="steelblue" d="M50.2738,-365.313C49.9348,-357.289 49.5231,-347.547 49.1438,-338.569"/>
<polygon fill="steelblue" stroke="steelblue" points="52.6387,-338.372 48.7195,-328.529 45.6449,-338.668 52.6387,-338.372"/>
</g>
<!-- Node_2 -->
<g id="node3" class="node"><title>Node_2</title>
<path fill="lightblue" stroke="lightblue" d="M12,-219.5C12,-219.5 78,-219.5 78,-219.5 84,-219.5 90,-225.5 90,-231.5 90,-231.5 90,-243.5 90,-243.5 90,-249.5 84,-255.5 78,-255.5 78,-255.5 12,-255.5 12,-255.5 6,-255.5 0,-249.5 0,-243.5 0,-243.5 0,-231.5 0,-231.5 0,-225.5 6,-219.5 12,-219.5"/>
<text text-anchor="middle" x="45" y="-235.3" font-family="Arial" font-size="9.00">_3 = i_2_t(D) + 10</text>
</g>
<!-- Node_1&#45;&gt;Node_2 -->
<g id="edge8" class="edge"><title>Node_1&#45;&gt;Node_2</title>
<path fill="none" stroke="tan" d="M47.2738,-292.313C46.9348,-284.289 46.5231,-274.547 46.1438,-265.569"/>
<polygon fill="tan" stroke="tan" points="49.6387,-265.372 45.7195,-255.529 42.6449,-265.668 49.6387,-265.372"/>
</g>
<!-- Node_3 -->
<g id="node4" class="node"><title>Node_3</title>
<path fill="moccasin" stroke="moccasin" d="M37.5,-146.5C37.5,-146.5 76.5,-146.5 76.5,-146.5 82.5,-146.5 88.5,-152.5 88.5,-158.5 88.5,-158.5 88.5,-170.5 88.5,-170.5 88.5,-176.5 82.5,-182.5 76.5,-182.5 76.5,-182.5 37.5,-182.5 37.5,-182.5 31.5,-182.5 25.5,-176.5 25.5,-170.5 25.5,-170.5 25.5,-158.5 25.5,-158.5 25.5,-152.5 31.5,-146.5 37.5,-146.5"/>
<text text-anchor="middle" x="57" y="-162.3" font-family="Arial" font-size="9.00">_3: [&#45;inf, inf]</text>
</g>
<!-- Node_2&#45;&gt;Node_3 -->
<g id="edge2" class="edge"><title>Node_2&#45;&gt;Node_3</title>
<path fill="none" stroke="steelblue" d="M47.9049,-219.313C49.2609,-211.289 50.9075,-201.547 52.4249,-192.569"/>
<polygon fill="steelblue" stroke="steelblue" points="55.9064,-192.972 54.1219,-182.529 49.0042,-191.806 55.9064,-192.972"/>
</g>
<!-- Node_8 -->
<g id="node9" class="node"><title>Node_8</title>
<path fill="lightblue" stroke="lightblue" d="M52,-73.5C52,-73.5 148,-73.5 148,-73.5 154,-73.5 160,-79.5 160,-85.5 160,-85.5 160,-97.5 160,-97.5 160,-103.5 154,-109.5 148,-109.5 148,-109.5 52,-109.5 52,-109.5 46,-109.5 40,-103.5 40,-97.5 40,-97.5 40,-85.5 40,-85.5 40,-79.5 46,-73.5 52,-73.5"/>
<text text-anchor="middle" x="100" y="-89.3" font-family="Arial" font-size="9.00"># _1 = PHI &lt;_3(3), _4(4)&gt;</text>
</g>
<!-- Node_3&#45;&gt;Node_8 -->
<g id="edge9" class="edge"><title>Node_3&#45;&gt;Node_8</title>
<path fill="none" stroke="tan" d="M67.4091,-146.313C72.5324,-137.853 78.8128,-127.484 84.4882,-118.112"/>
<polygon fill="tan" stroke="tan" points="87.5001,-119.896 89.6868,-109.529 81.5126,-116.269 87.5001,-119.896"/>
</g>
<!-- Node_4 -->
<g id="node5" class="node"><title>Node_4</title>
<path fill="lightblue" stroke="lightblue" d="M118.5,-365.5C118.5,-365.5 151.5,-365.5 151.5,-365.5 157.5,-365.5 163.5,-371.5 163.5,-377.5 163.5,-377.5 163.5,-389.5 163.5,-389.5 163.5,-395.5 157.5,-401.5 151.5,-401.5 151.5,-401.5 118.5,-401.5 118.5,-401.5 112.5,-401.5 106.5,-395.5 106.5,-389.5 106.5,-389.5 106.5,-377.5 106.5,-377.5 106.5,-371.5 112.5,-365.5 118.5,-365.5"/>
<text text-anchor="middle" x="135" y="-381.3" font-family="Arial" font-size="9.00">if (i_2 &lt; 0)</text>
</g>
<!-- Node_5 -->
<g id="node6" class="node"><title>Node_5</title>
<path fill="moccasin" stroke="moccasin" d="M121.5,-292.5C121.5,-292.5 170.5,-292.5 170.5,-292.5 176.5,-292.5 182.5,-298.5 182.5,-304.5 182.5,-304.5 182.5,-316.5 182.5,-316.5 182.5,-322.5 176.5,-328.5 170.5,-328.5 170.5,-328.5 121.5,-328.5 121.5,-328.5 115.5,-328.5 109.5,-322.5 109.5,-316.5 109.5,-316.5 109.5,-304.5 109.5,-304.5 109.5,-298.5 115.5,-292.5 121.5,-292.5"/>
<text text-anchor="middle" x="146" y="-308.3" font-family="Arial" font-size="9.00">i_2_f: [&#45;inf, inf]</text>
</g>
<!-- Node_4&#45;&gt;Node_5 -->
<g id="edge3" class="edge"><title>Node_4&#45;&gt;Node_5</title>
<path fill="none" stroke="steelblue" d="M137.663,-365.313C138.906,-357.289 140.415,-347.547 141.806,-338.569"/>
<polygon fill="steelblue" stroke="steelblue" points="145.289,-338.947 143.362,-328.529 138.372,-337.875 145.289,-338.947"/>
</g>
<!-- Node_6 -->
<g id="node7" class="node"><title>Node_6</title>
<path fill="lightblue" stroke="lightblue" d="M120.5,-219.5C120.5,-219.5 179.5,-219.5 179.5,-219.5 185.5,-219.5 191.5,-225.5 191.5,-231.5 191.5,-231.5 191.5,-243.5 191.5,-243.5 191.5,-249.5 185.5,-255.5 179.5,-255.5 179.5,-255.5 120.5,-255.5 120.5,-255.5 114.5,-255.5 108.5,-249.5 108.5,-243.5 108.5,-243.5 108.5,-231.5 108.5,-231.5 108.5,-225.5 114.5,-219.5 120.5,-219.5"/>
<text text-anchor="middle" x="150" y="-235.3" font-family="Arial" font-size="9.00">_4 = 5 &#45; i_2_f(D)</text>
</g>
<!-- Node_5&#45;&gt;Node_6 -->
<g id="edge10" class="edge"><title>Node_5&#45;&gt;Node_6</title>
<path fill="none" stroke="tan" d="M146.968,-292.313C147.42,-284.289 147.969,-274.547 148.475,-265.569"/>
<polygon fill="tan" stroke="tan" points="151.973,-265.71 149.041,-255.529 144.984,-265.316 151.973,-265.71"/>
</g>
<!-- Node_7 -->
<g id="node8" class="node"><title>Node_7</title>
<path fill="moccasin" stroke="moccasin" d="M124.5,-146.5C124.5,-146.5 163.5,-146.5 163.5,-146.5 169.5,-146.5 175.5,-152.5 175.5,-158.5 175.5,-158.5 175.5,-170.5 175.5,-170.5 175.5,-176.5 169.5,-182.5 163.5,-182.5 163.5,-182.5 124.5,-182.5 124.5,-182.5 118.5,-182.5 112.5,-176.5 112.5,-170.5 112.5,-170.5 112.5,-158.5 112.5,-158.5 112.5,-152.5 118.5,-146.5 124.5,-146.5"/>
<text text-anchor="middle" x="144" y="-162.3" font-family="Arial" font-size="9.00">_4: [&#45;inf, inf]</text>
</g>
<!-- Node_6&#45;&gt;Node_7 -->
<g id="edge4" class="edge"><title>Node_6&#45;&gt;Node_7</title>
<path fill="none" stroke="steelblue" d="M148.548,-219.313C147.87,-211.289 147.046,-201.547 146.288,-192.569"/>
<polygon fill="steelblue" stroke="steelblue" points="149.769,-192.199 145.439,-182.529 142.794,-192.788 149.769,-192.199"/>
</g>
<!-- Node_7&#45;&gt;Node_8 -->
<g id="edge11" class="edge"><title>Node_7&#45;&gt;Node_8</title>
<path fill="none" stroke="tan" d="M133.349,-146.313C128.106,-137.853 121.68,-127.484 115.873,-118.112"/>
<polygon fill="tan" stroke="tan" points="118.796,-116.185 110.553,-109.529 112.846,-119.873 118.796,-116.185"/>
</g>
<!-- Node_9 -->
<g id="node10" class="node"><title>Node_9</title>
<path fill="moccasin" stroke="moccasin" d="M80.5,-0.5C80.5,-0.5 119.5,-0.5 119.5,-0.5 125.5,-0.5 131.5,-6.5 131.5,-12.5 131.5,-12.5 131.5,-24.5 131.5,-24.5 131.5,-30.5 125.5,-36.5 119.5,-36.5 119.5,-36.5 80.5,-36.5 80.5,-36.5 74.5,-36.5 68.5,-30.5 68.5,-24.5 68.5,-24.5 68.5,-12.5 68.5,-12.5 68.5,-6.5 74.5,-0.5 80.5,-0.5"/>
<text text-anchor="middle" x="100" y="-16.3" font-family="Arial" font-size="9.00">_1: [&#45;inf, inf]</text>
</g>
<!-- Node_8&#45;&gt;Node_9 -->
<g id="edge5" class="edge"><title>Node_8&#45;&gt;Node_9</title>
<path fill="none" stroke="steelblue" d="M100,-73.3129C100,-65.2895 100,-55.5475 100,-46.5691"/>
<polygon fill="steelblue" stroke="steelblue" points="103.5,-46.5288 100,-36.5288 96.5001,-46.5289 103.5,-46.5288"/>
</g>
<!-- Node_10 -->
<g id="node11" class="node"><title>Node_10</title>
<path fill="moccasin" stroke="moccasin" d="M69.5,-438.5C69.5,-438.5 110.5,-438.5 110.5,-438.5 116.5,-438.5 122.5,-444.5 122.5,-450.5 122.5,-450.5 122.5,-462.5 122.5,-462.5 122.5,-468.5 116.5,-474.5 110.5,-474.5 110.5,-474.5 69.5,-474.5 69.5,-474.5 63.5,-474.5 57.5,-468.5 57.5,-462.5 57.5,-462.5 57.5,-450.5 57.5,-450.5 57.5,-444.5 63.5,-438.5 69.5,-438.5"/>
<text text-anchor="middle" x="90" y="-454.3" font-family="Arial" font-size="9.00">i_2: [&#45;inf, inf]</text>
</g>
<!-- Node_10&#45;&gt;Node_0 -->
<g id="edge6" class="edge"><title>Node_10&#45;&gt;Node_0</title>
<path fill="none" stroke="tan" d="M80.5592,-438.313C75.9604,-429.941 70.3336,-419.697 65.2282,-410.403"/>
<polygon fill="tan" stroke="tan" points="68.236,-408.609 60.3539,-401.529 62.1007,-411.979 68.236,-408.609"/>
</g>
<!-- Node_10&#45;&gt;Node_4 -->
<g id="edge7" class="edge"><title>Node_10&#45;&gt;Node_4</title>
<path fill="none" stroke="tan" d="M100.893,-438.313C106.255,-429.853 112.827,-419.484 118.767,-410.112"/>
<polygon fill="tan" stroke="tan" points="121.81,-411.849 124.207,-401.529 115.897,-408.102 121.81,-411.849"/>
</g>
</g>
</svg>
