<?xml version="1.0" encoding="UTF-8" standalone="no"?>
<!DOCTYPE svg PUBLIC "-//W3C//DTD SVG 1.1//EN"
 "http://www.w3.org/Graphics/SVG/1.1/DTD/svg11.dtd">
<!-- Generated by graphviz version 2.38.0 (20140413.2041)
 -->
<!-- Title: t7_bar_CFG Pages: 1 -->
<svg width="242pt" height="376pt"
     viewBox="0.00 0.00 241.50 376.00" xmlns="http://www.w3.org/2000/svg">
<g id="graph0" class="graph" transform="scale(1 1) rotate(0) translate(4 372)">
<title>t7_bar_CFG</title>
<polygon fill="white" stroke="none" points="-4,4 -4,-372 237.5,-372 237.5,4 -4,4"/>
<text text-anchor="middle" x="116.75" y="-354.4" font-family="Arial" font-size="12.00">t7_bar_CFG</text>
<!-- Node_0 -->
<g id="node1" class="node"><title>Node_0</title>
<path fill="mintcream" stroke="orange" d="M95.5,-310.5C95.5,-310.5 125.5,-310.5 125.5,-310.5 131.5,-310.5 137.5,-316.5 137.5,-322.5 137.5,-322.5 137.5,-334.5 137.5,-334.5 137.5,-340.5 131.5,-346.5 125.5,-346.5 125.5,-346.5 95.5,-346.5 95.5,-346.5 89.5,-346.5 83.5,-340.5 83.5,-334.5 83.5,-334.5 83.5,-322.5 83.5,-322.5 83.5,-316.5 89.5,-310.5 95.5,-310.5"/>
<text text-anchor="middle" x="110.5" y="-326.3" font-family="Arial" font-size="9.00">&lt;Entry&gt;</text>
</g>
<!-- Node_1 -->
<g id="node2" class="node"><title>Node_1</title>
<path fill="mintcream" stroke="black" d="M24,-237.5C24,-237.5 197,-237.5 197,-237.5 203,-237.5 209,-243.5 209,-249.5 209,-249.5 209,-261.5 209,-261.5 209,-267.5 203,-273.5 197,-273.5 197,-273.5 24,-273.5 24,-273.5 18,-273.5 12,-267.5 12,-261.5 12,-261.5 12,-249.5 12,-249.5 12,-243.5 18,-237.5 24,-237.5"/>
<text text-anchor="middle" x="110.5" y="-262.3" font-family="Arial" font-size="9.00">&lt;bb 2&gt;</text>
<polyline fill="none" stroke="black" points="12,-255.5 209,-255.5 "/>
<text text-anchor="middle" x="110.5" y="-244.3" font-family="Arial" font-size="9.00">if (i_2(D) &gt;= 0) goto &lt;bb 3&gt; else goto &lt;bb 4&gt;</text>
</g>
<!-- Node_0&#45;&gt;Node_1 -->
<g id="edge1" class="edge"><title>Node_0&#45;&gt;Node_1</title>
<path fill="none" stroke="black" d="M110.5,-310.313C110.5,-302.289 110.5,-292.547 110.5,-283.569"/>
<polygon fill="black" stroke="black" points="114,-283.529 110.5,-273.529 107,-283.529 114,-283.529"/>
</g>
<!-- Node_2 -->
<g id="node3" class="node"><title>Node_2</title>
<path fill="mintcream" stroke="black" d="M12,-146.5C12,-146.5 83,-146.5 83,-146.5 89,-146.5 95,-152.5 95,-158.5 95,-158.5 95,-188.5 95,-188.5 95,-194.5 89,-200.5 83,-200.5 83,-200.5 12,-200.5 12,-200.5 6,-200.5 0,-194.5 0,-188.5 0,-188.5 0,-158.5 0,-158.5 0,-152.5 6,-146.5 12,-146.5"/>
<text text-anchor="middle" x="47.5" y="-189.3" font-family="Arial" font-size="9.00">&lt;bb 3&gt;</text>
<polyline fill="none" stroke="black" points="0,-182.5 95,-182.5 "/>
<text text-anchor="middle" x="47.5" y="-171.3" font-family="Arial" font-size="9.00">_3 = i_2(D) + 10</text>
<polyline fill="none" stroke="black" points="0,-164.5 95,-164.5 "/>
<text text-anchor="middle" x="47.5" y="-153.3" font-family="Arial" font-size="9.00">goto &lt;bb 5&gt; (&lt;L2&gt;)</text>
</g>
<!-- Node_1&#45;&gt;Node_2 -->
<g id="edge2" class="edge"><title>Node_1&#45;&gt;Node_2</title>
<path fill="none" stroke="crimson" d="M96.8299,-237.141C90.2707,-228.812 82.1734,-218.53 74.4492,-208.721"/>
<polygon fill="crimson" stroke="crimson" points="77.0271,-206.338 68.0904,-200.647 71.5276,-210.668 77.0271,-206.338"/>
</g>
<!-- Node_5 -->
<g id="node6" class="node"><title>Node_5</title>
<path fill="mintcream" stroke="black" d="M125.5,-146.5C125.5,-146.5 221.5,-146.5 221.5,-146.5 227.5,-146.5 233.5,-152.5 233.5,-158.5 233.5,-158.5 233.5,-188.5 233.5,-188.5 233.5,-194.5 227.5,-200.5 221.5,-200.5 221.5,-200.5 125.5,-200.5 125.5,-200.5 119.5,-200.5 113.5,-194.5 113.5,-188.5 113.5,-188.5 113.5,-158.5 113.5,-158.5 113.5,-152.5 119.5,-146.5 125.5,-146.5"/>
<text text-anchor="middle" x="173.5" y="-189.3" font-family="Arial" font-size="9.00">&lt;bb 4&gt;</text>
<polyline fill="none" stroke="black" points="113.5,-182.5 233.5,-182.5 "/>
<text text-anchor="middle" x="173.5" y="-171.3" font-family="Arial" font-size="9.00">_4 = 5 &#45; i_2(D)</text>
<polyline fill="none" stroke="black" points="113.5,-164.5 233.5,-164.5 "/>
<text text-anchor="middle" x="173.5" y="-153.3" font-family="Arial" font-size="9.00"># _1 = PHI &lt;_3(3), _4(4)&gt;</text>
</g>
<!-- Node_1&#45;&gt;Node_5 -->
<g id="edge5" class="edge"><title>Node_1&#45;&gt;Node_5</title>
<path fill="none" stroke="teal" d="M124.17,-237.141C130.729,-228.812 138.827,-218.53 146.551,-208.721"/>
<polygon fill="teal" stroke="teal" points="149.472,-210.668 152.91,-200.647 143.973,-206.338 149.472,-210.668"/>
</g>
<!-- Node_3 -->
<g id="node4" class="node"><title>Node_3</title>
<path fill="mintcream" stroke="black" d="M95.5,-73.5C95.5,-73.5 125.5,-73.5 125.5,-73.5 131.5,-73.5 137.5,-79.5 137.5,-85.5 137.5,-85.5 137.5,-97.5 137.5,-97.5 137.5,-103.5 131.5,-109.5 125.5,-109.5 125.5,-109.5 95.5,-109.5 95.5,-109.5 89.5,-109.5 83.5,-103.5 83.5,-97.5 83.5,-97.5 83.5,-85.5 83.5,-85.5 83.5,-79.5 89.5,-73.5 95.5,-73.5"/>
<text text-anchor="middle" x="110.5" y="-98.3" font-family="Arial" font-size="9.00">&lt;L2&gt;</text>
<polyline fill="none" stroke="black" points="83.5,-91.5 137.5,-91.5 "/>
<text text-anchor="middle" x="110.5" y="-80.3" font-family="Arial" font-size="9.00">return _1</text>
</g>
<!-- Node_2&#45;&gt;Node_3 -->
<g id="edge3" class="edge"><title>Node_2&#45;&gt;Node_3</title>
<path fill="none" stroke="black" d="M68.1286,-146.305C75.3819,-137.094 83.5119,-126.771 90.6959,-117.648"/>
<polygon fill="black" stroke="black" points="93.5381,-119.696 96.9753,-109.674 88.0386,-115.365 93.5381,-119.696"/>
</g>
<!-- Node_4 -->
<g id="node5" class="node"><title>Node_4</title>
<path fill="mintcream" stroke="#1874cd" d="M95.5,-0.5C95.5,-0.5 125.5,-0.5 125.5,-0.5 131.5,-0.5 137.5,-6.5 137.5,-12.5 137.5,-12.5 137.5,-24.5 137.5,-24.5 137.5,-30.5 131.5,-36.5 125.5,-36.5 125.5,-36.5 95.5,-36.5 95.5,-36.5 89.5,-36.5 83.5,-30.5 83.5,-24.5 83.5,-24.5 83.5,-12.5 83.5,-12.5 83.5,-6.5 89.5,-0.5 95.5,-0.5"/>
<text text-anchor="middle" x="110.5" y="-16.3" font-family="Arial" font-size="9.00">&lt;Exit&gt;</text>
</g>
<!-- Node_3&#45;&gt;Node_4 -->
<g id="edge4" class="edge"><title>Node_3&#45;&gt;Node_4</title>
<path fill="none" stroke="black" d="M110.5,-73.3129C110.5,-65.2895 110.5,-55.5475 110.5,-46.5691"/>
<polygon fill="black" stroke="black" points="114,-46.5288 110.5,-36.5288 107,-46.5289 114,-46.5288"/>
</g>
<!-- Node_5&#45;&gt;Node_3 -->
<g id="edge6" class="edge"><title>Node_5&#45;&gt;Node_3</title>
<path fill="none" stroke="black" d="M152.871,-146.305C145.618,-137.094 137.488,-126.771 130.304,-117.648"/>
<polygon fill="black" stroke="black" points="132.961,-115.365 124.025,-109.674 127.462,-119.696 132.961,-115.365"/>
</g>
</g>
</svg>
