<?xml version="1.0" encoding="UTF-8" standalone="no"?>
<!DOCTYPE svg PUBLIC "-//W3C//DTD SVG 1.1//EN"
 "http://www.w3.org/Graphics/SVG/1.1/DTD/svg11.dtd">
<!-- Generated by graphviz version 2.38.0 (20140413.2041)
 -->
<!-- Title: t7_foo_CFG Pages: 1 -->
<svg width="94pt" height="321pt"
     viewBox="0.00 0.00 94.00 321.00" xmlns="http://www.w3.org/2000/svg">
<g id="graph0" class="graph" transform="scale(1 1) rotate(0) translate(4 317)">
<title>t7_foo_CFG</title>
<polygon fill="white" stroke="none" points="-4,4 -4,-317 90,-317 90,4 -4,4"/>
<text text-anchor="middle" x="43" y="-299.4" font-family="Arial" font-size="12.00">t7_foo_CFG</text>
<!-- Node_0 -->
<g id="node1" class="node"><title>Node_0</title>
<path fill="mintcream" stroke="orange" d="M28,-255.5C28,-255.5 58,-255.5 58,-255.5 64,-255.5 70,-261.5 70,-267.5 70,-267.5 70,-279.5 70,-279.5 70,-285.5 64,-291.5 58,-291.5 58,-291.5 28,-291.5 28,-291.5 22,-291.5 16,-285.5 16,-279.5 16,-279.5 16,-267.5 16,-267.5 16,-261.5 22,-255.5 28,-255.5"/>
<text text-anchor="middle" x="43" y="-271.3" font-family="Arial" font-size="9.00">&lt;Entry&gt;</text>
</g>
<!-- Node_1 -->
<g id="node2" class="node"><title>Node_1</title>
<path fill="mintcream" stroke="black" d="M12,-146.5C12,-146.5 74,-146.5 74,-146.5 80,-146.5 86,-152.5 86,-158.5 86,-158.5 86,-206.5 86,-206.5 86,-212.5 80,-218.5 74,-218.5 74,-218.5 12,-218.5 12,-218.5 6,-218.5 0,-212.5 0,-206.5 0,-206.5 0,-158.5 0,-158.5 0,-152.5 6,-146.5 12,-146.5"/>
<text text-anchor="middle" x="43" y="-207.3" font-family="Arial" font-size="9.00">&lt;bb 2&gt;</text>
<polyline fill="none" stroke="black" points="0,-200.5 86,-200.5 "/>
<text text-anchor="middle" x="43" y="-189.3" font-family="Arial" font-size="9.00">j_4 = bar (i_2(D))</text>
<polyline fill="none" stroke="black" points="0,-182.5 86,-182.5 "/>
<text text-anchor="middle" x="43" y="-171.3" font-family="Arial" font-size="9.00">k_6 = bar (j_4)</text>
<polyline fill="none" stroke="black" points="0,-164.5 86,-164.5 "/>
<text text-anchor="middle" x="43" y="-153.3" font-family="Arial" font-size="9.00">_7 = k_6</text>
</g>
<!-- Node_0&#45;&gt;Node_1 -->
<g id="edge1" class="edge"><title>Node_0&#45;&gt;Node_1</title>
<path fill="none" stroke="black" d="M43,-255.34C43,-247.698 43,-238.301 43,-228.852"/>
<polygon fill="black" stroke="black" points="46.5001,-228.659 43,-218.659 39.5001,-228.659 46.5001,-228.659"/>
</g>
<!-- Node_2 -->
<g id="node3" class="node"><title>Node_2</title>
<path fill="mintcream" stroke="black" d="M28,-73.5C28,-73.5 58,-73.5 58,-73.5 64,-73.5 70,-79.5 70,-85.5 70,-85.5 70,-97.5 70,-97.5 70,-103.5 64,-109.5 58,-109.5 58,-109.5 28,-109.5 28,-109.5 22,-109.5 16,-103.5 16,-97.5 16,-97.5 16,-85.5 16,-85.5 16,-79.5 22,-73.5 28,-73.5"/>
<text text-anchor="middle" x="43" y="-98.3" font-family="Arial" font-size="9.00">&lt;L0&gt;</text>
<polyline fill="none" stroke="black" points="16,-91.5 70,-91.5 "/>
<text text-anchor="middle" x="43" y="-80.3" font-family="Arial" font-size="9.00">return _7</text>
</g>
<!-- Node_1&#45;&gt;Node_2 -->
<g id="edge2" class="edge"><title>Node_1&#45;&gt;Node_2</title>
<path fill="none" stroke="black" d="M43,-146.325C43,-137.442 43,-128.041 43,-119.623"/>
<polygon fill="black" stroke="black" points="46.5001,-119.601 43,-109.601 39.5001,-119.601 46.5001,-119.601"/>
</g>
<!-- Node_3 -->
<g id="node4" class="node"><title>Node_3</title>
<path fill="mintcream" stroke="#1874cd" d="M28,-0.5C28,-0.5 58,-0.5 58,-0.5 64,-0.5 70,-6.5 70,-12.5 70,-12.5 70,-24.5 70,-24.5 70,-30.5 64,-36.5 58,-36.5 58,-36.5 28,-36.5 28,-36.5 22,-36.5 16,-30.5 16,-24.5 16,-24.5 16,-12.5 16,-12.5 16,-6.5 22,-0.5 28,-0.5"/>
<text text-anchor="middle" x="43" y="-16.3" font-family="Arial" font-size="9.00">&lt;Exit&gt;</text>
</g>
<!-- Node_2&#45;&gt;Node_3 -->
<g id="edge3" class="edge"><title>Node_2&#45;&gt;Node_3</title>
<path fill="none" stroke="black" d="M43,-73.3129C43,-65.2895 43,-55.5475 43,-46.5691"/>
<polygon fill="black" stroke="black" points="46.5001,-46.5288 43,-36.5288 39.5001,-46.5289 46.5001,-46.5288"/>
</g>
</g>
</svg>
