<?xml version="1.0" encoding="UTF-8" standalone="no"?>
<!DOCTYPE svg PUBLIC "-//W3C//DTD SVG 1.1//EN"
 "http://www.w3.org/Graphics/SVG/1.1/DTD/svg11.dtd">
<!-- Generated by graphviz version 2.38.0 (20140413.2041)
 -->
<!-- Title: t7_foo_final_ConstraintGraph Pages: 1 -->
<svg width="178pt" height="504pt"
     viewBox="0.00 0.00 178.00 504.00" xmlns="http://www.w3.org/2000/svg">
<g id="graph0" class="graph" transform="scale(1 1) rotate(0) translate(4 500)">
<title>t7_foo_final_ConstraintGraph</title>
<polygon fill="white" stroke="none" points="-4,4 -4,-500 174,-500 174,4 -4,4"/>
<text text-anchor="middle" x="85" y="-482.4" font-family="Arial" font-size="12.00">t7_foo_final_ConstraintGraph</text>
<!-- Node_0 -->
<g id="node1" class="node"><title>Node_0</title>
<path fill="lightblue" stroke="lightblue" d="M59,-219.5C59,-219.5 111,-219.5 111,-219.5 117,-219.5 123,-225.5 123,-231.5 123,-231.5 123,-243.5 123,-243.5 123,-249.5 117,-255.5 111,-255.5 111,-255.5 59,-255.5 59,-255.5 53,-255.5 47,-249.5 47,-243.5 47,-243.5 47,-231.5 47,-231.5 47,-225.5 53,-219.5 59,-219.5"/>
<text text-anchor="middle" x="85" y="-235.3" font-family="Arial" font-size="9.00">k_6 = bar (j_4)</text>
</g>
<!-- Node_1 -->
<g id="node2" class="node"><title>Node_1</title>
<path fill="moccasin" stroke="moccasin" d="M56.5,-146.5C56.5,-146.5 113.5,-146.5 113.5,-146.5 119.5,-146.5 125.5,-152.5 125.5,-158.5 125.5,-158.5 125.5,-170.5 125.5,-170.5 125.5,-176.5 119.5,-182.5 113.5,-182.5 113.5,-182.5 56.5,-182.5 56.5,-182.5 50.5,-182.5 44.5,-176.5 44.5,-170.5 44.5,-170.5 44.5,-158.5 44.5,-158.5 44.5,-152.5 50.5,-146.5 56.5,-146.5"/>
<text text-anchor="middle" x="85" y="-162.3" font-family="Arial" font-size="9.00">k_6: [16.0, 30.0]</text>
</g>
<!-- Node_0&#45;&gt;Node_1 -->
<g id="edge1" class="edge"><title>Node_0&#45;&gt;Node_1</title>
<path fill="none" stroke="steelblue" d="M85,-219.313C85,-211.289 85,-201.547 85,-192.569"/>
<polygon fill="steelblue" stroke="steelblue" points="88.5001,-192.529 85,-182.529 81.5001,-192.529 88.5001,-192.529"/>
</g>
<!-- Node_4 -->
<g id="node5" class="node"><title>Node_4</title>
<path fill="lightblue" stroke="lightblue" d="M70,-73.5C70,-73.5 100,-73.5 100,-73.5 106,-73.5 112,-79.5 112,-85.5 112,-85.5 112,-97.5 112,-97.5 112,-103.5 106,-109.5 100,-109.5 100,-109.5 70,-109.5 70,-109.5 64,-109.5 58,-103.5 58,-97.5 58,-97.5 58,-85.5 58,-85.5 58,-79.5 64,-73.5 70,-73.5"/>
<text text-anchor="middle" x="85" y="-89.3" font-family="Arial" font-size="9.00">_7 = k_6</text>
</g>
<!-- Node_1&#45;&gt;Node_4 -->
<g id="edge6" class="edge"><title>Node_1&#45;&gt;Node_4</title>
<path fill="none" stroke="tan" d="M85,-146.313C85,-138.289 85,-128.547 85,-119.569"/>
<polygon fill="tan" stroke="tan" points="88.5001,-119.529 85,-109.529 81.5001,-119.529 88.5001,-119.529"/>
</g>
<!-- Node_2 -->
<g id="node3" class="node"><title>Node_2</title>
<path fill="lightblue" stroke="lightblue" d="M54,-365.5C54,-365.5 116,-365.5 116,-365.5 122,-365.5 128,-371.5 128,-377.5 128,-377.5 128,-389.5 128,-389.5 128,-395.5 122,-401.5 116,-401.5 116,-401.5 54,-401.5 54,-401.5 48,-401.5 42,-395.5 42,-389.5 42,-389.5 42,-377.5 42,-377.5 42,-371.5 48,-365.5 54,-365.5"/>
<text text-anchor="middle" x="85" y="-381.3" font-family="Arial" font-size="9.00">j_4 = bar (i_2(D))</text>
</g>
<!-- Node_3 -->
<g id="node4" class="node"><title>Node_3</title>
<path fill="moccasin" stroke="moccasin" d="M60,-292.5C60,-292.5 110,-292.5 110,-292.5 116,-292.5 122,-298.5 122,-304.5 122,-304.5 122,-316.5 122,-316.5 122,-322.5 116,-328.5 110,-328.5 110,-328.5 60,-328.5 60,-328.5 54,-328.5 48,-322.5 48,-316.5 48,-316.5 48,-304.5 48,-304.5 48,-298.5 54,-292.5 60,-292.5"/>
<text text-anchor="middle" x="85" y="-308.3" font-family="Arial" font-size="9.00">j_4: [6.0, 20.0]</text>
</g>
<!-- Node_2&#45;&gt;Node_3 -->
<g id="edge2" class="edge"><title>Node_2&#45;&gt;Node_3</title>
<path fill="none" stroke="steelblue" d="M85,-365.313C85,-357.289 85,-347.547 85,-338.569"/>
<polygon fill="steelblue" stroke="steelblue" points="88.5001,-338.529 85,-328.529 81.5001,-338.529 88.5001,-338.529"/>
</g>
<!-- Node_3&#45;&gt;Node_0 -->
<g id="edge4" class="edge"><title>Node_3&#45;&gt;Node_0</title>
<path fill="none" stroke="tan" d="M85,-292.313C85,-284.289 85,-274.547 85,-265.569"/>
<polygon fill="tan" stroke="tan" points="88.5001,-265.529 85,-255.529 81.5001,-265.529 88.5001,-265.529"/>
</g>
<!-- Node_5 -->
<g id="node6" class="node"><title>Node_5</title>
<path fill="moccasin" stroke="moccasin" d="M49.5,-0.5C49.5,-0.5 120.5,-0.5 120.5,-0.5 126.5,-0.5 132.5,-6.5 132.5,-12.5 132.5,-12.5 132.5,-24.5 132.5,-24.5 132.5,-30.5 126.5,-36.5 120.5,-36.5 120.5,-36.5 49.5,-36.5 49.5,-36.5 43.5,-36.5 37.5,-30.5 37.5,-24.5 37.5,-24.5 37.5,-12.5 37.5,-12.5 37.5,-6.5 43.5,-0.5 49.5,-0.5"/>
<text text-anchor="middle" x="85" y="-16.3" font-family="Arial" font-size="9.00">_7: [&#45;Infinity, Infinity]</text>
</g>
<!-- Node_4&#45;&gt;Node_5 -->
<g id="edge3" class="edge"><title>Node_4&#45;&gt;Node_5</title>
<path fill="none" stroke="steelblue" d="M85,-73.3129C85,-65.2895 85,-55.5475 85,-46.5691"/>
<polygon fill="steelblue" stroke="steelblue" points="88.5001,-46.5288 85,-36.5288 81.5001,-46.5289 88.5001,-46.5288"/>
</g>
<!-- Node_6 -->
<g id="node7" class="node"><title>Node_6</title>
<path fill="moccasin" stroke="moccasin" d="M56,-438.5C56,-438.5 114,-438.5 114,-438.5 120,-438.5 126,-444.5 126,-450.5 126,-450.5 126,-462.5 126,-462.5 126,-468.5 120,-474.5 114,-474.5 114,-474.5 56,-474.5 56,-474.5 50,-474.5 44,-468.5 44,-462.5 44,-462.5 44,-450.5 44,-450.5 44,-444.5 50,-438.5 56,-438.5"/>
<text text-anchor="middle" x="85" y="-454.3" font-family="Arial" font-size="9.00">i_2: [&#45;10.0, 10.0]</text>
</g>
<!-- Node_6&#45;&gt;Node_2 -->
<g id="edge5" class="edge"><title>Node_6&#45;&gt;Node_2</title>
<path fill="none" stroke="tan" d="M85,-438.313C85,-430.289 85,-420.547 85,-411.569"/>
<polygon fill="tan" stroke="tan" points="88.5001,-411.529 85,-401.529 81.5001,-411.529 88.5001,-411.529"/>
</g>
</g>
</svg>
