<?xml version="1.0" encoding="UTF-8" standalone="no"?>
<!DOCTYPE svg PUBLIC "-//W3C//DTD SVG 1.1//EN"
 "http://www.w3.org/Graphics/SVG/1.1/DTD/svg11.dtd">
<!-- Generated by graphviz version 2.38.0 (20140413.2041)
 -->
<!-- Title: t7_foo_ConstraintGraph Pages: 1 -->
<svg width="150pt" height="504pt"
     viewBox="0.00 0.00 150.00 504.00" xmlns="http://www.w3.org/2000/svg">
<g id="graph0" class="graph" transform="scale(1 1) rotate(0) translate(4 500)">
<title>t7_foo_ConstraintGraph</title>
<polygon fill="white" stroke="none" points="-4,4 -4,-500 146,-500 146,4 -4,4"/>
<text text-anchor="middle" x="71" y="-482.4" font-family="Arial" font-size="12.00">t7_foo_ConstraintGraph</text>
<!-- Node_0 -->
<g id="node1" class="node"><title>Node_0</title>
<path fill="lightblue" stroke="lightblue" d="M45,-219.5C45,-219.5 97,-219.5 97,-219.5 103,-219.5 109,-225.5 109,-231.5 109,-231.5 109,-243.5 109,-243.5 109,-249.5 103,-255.5 97,-255.5 97,-255.5 45,-255.5 45,-255.5 39,-255.5 33,-249.5 33,-243.5 33,-243.5 33,-231.5 33,-231.5 33,-225.5 39,-219.5 45,-219.5"/>
<text text-anchor="middle" x="71" y="-235.3" font-family="Arial" font-size="9.00">k_6 = bar (j_4)</text>
</g>
<!-- Node_1 -->
<g id="node2" class="node"><title>Node_1</title>
<path fill="moccasin" stroke="moccasin" d="M33.5,-146.5C33.5,-146.5 108.5,-146.5 108.5,-146.5 114.5,-146.5 120.5,-152.5 120.5,-158.5 120.5,-158.5 120.5,-170.5 120.5,-170.5 120.5,-176.5 114.5,-182.5 108.5,-182.5 108.5,-182.5 33.5,-182.5 33.5,-182.5 27.5,-182.5 21.5,-176.5 21.5,-170.5 21.5,-170.5 21.5,-158.5 21.5,-158.5 21.5,-152.5 27.5,-146.5 33.5,-146.5"/>
<text text-anchor="middle" x="71" y="-162.3" font-family="Arial" font-size="9.00">k_6: [&#45;Infinity, Infinity]</text>
</g>
<!-- Node_0&#45;&gt;Node_1 -->
<g id="edge1" class="edge"><title>Node_0&#45;&gt;Node_1</title>
<path fill="none" stroke="steelblue" d="M71,-219.313C71,-211.289 71,-201.547 71,-192.569"/>
<polygon fill="steelblue" stroke="steelblue" points="74.5001,-192.529 71,-182.529 67.5001,-192.529 74.5001,-192.529"/>
</g>
<!-- Node_4 -->
<g id="node5" class="node"><title>Node_4</title>
<path fill="lightblue" stroke="lightblue" d="M56,-73.5C56,-73.5 86,-73.5 86,-73.5 92,-73.5 98,-79.5 98,-85.5 98,-85.5 98,-97.5 98,-97.5 98,-103.5 92,-109.5 86,-109.5 86,-109.5 56,-109.5 56,-109.5 50,-109.5 44,-103.5 44,-97.5 44,-97.5 44,-85.5 44,-85.5 44,-79.5 50,-73.5 56,-73.5"/>
<text text-anchor="middle" x="71" y="-89.3" font-family="Arial" font-size="9.00">_7 = k_6</text>
</g>
<!-- Node_1&#45;&gt;Node_4 -->
<g id="edge6" class="edge"><title>Node_1&#45;&gt;Node_4</title>
<path fill="none" stroke="tan" d="M71,-146.313C71,-138.289 71,-128.547 71,-119.569"/>
<polygon fill="tan" stroke="tan" points="74.5001,-119.529 71,-109.529 67.5001,-119.529 74.5001,-119.529"/>
</g>
<!-- Node_2 -->
<g id="node3" class="node"><title>Node_2</title>
<path fill="lightblue" stroke="lightblue" d="M40,-365.5C40,-365.5 102,-365.5 102,-365.5 108,-365.5 114,-371.5 114,-377.5 114,-377.5 114,-389.5 114,-389.5 114,-395.5 108,-401.5 102,-401.5 102,-401.5 40,-401.5 40,-401.5 34,-401.5 28,-395.5 28,-389.5 28,-389.5 28,-377.5 28,-377.5 28,-371.5 34,-365.5 40,-365.5"/>
<text text-anchor="middle" x="71" y="-381.3" font-family="Arial" font-size="9.00">j_4 = bar (i_2(D))</text>
</g>
<!-- Node_3 -->
<g id="node4" class="node"><title>Node_3</title>
<path fill="moccasin" stroke="moccasin" d="M34.5,-292.5C34.5,-292.5 107.5,-292.5 107.5,-292.5 113.5,-292.5 119.5,-298.5 119.5,-304.5 119.5,-304.5 119.5,-316.5 119.5,-316.5 119.5,-322.5 113.5,-328.5 107.5,-328.5 107.5,-328.5 34.5,-328.5 34.5,-328.5 28.5,-328.5 22.5,-322.5 22.5,-316.5 22.5,-316.5 22.5,-304.5 22.5,-304.5 22.5,-298.5 28.5,-292.5 34.5,-292.5"/>
<text text-anchor="middle" x="71" y="-308.3" font-family="Arial" font-size="9.00">j_4: [&#45;Infinity, Infinity]</text>
</g>
<!-- Node_2&#45;&gt;Node_3 -->
<g id="edge2" class="edge"><title>Node_2&#45;&gt;Node_3</title>
<path fill="none" stroke="steelblue" d="M71,-365.313C71,-357.289 71,-347.547 71,-338.569"/>
<polygon fill="steelblue" stroke="steelblue" points="74.5001,-338.529 71,-328.529 67.5001,-338.529 74.5001,-338.529"/>
</g>
<!-- Node_3&#45;&gt;Node_0 -->
<g id="edge4" class="edge"><title>Node_3&#45;&gt;Node_0</title>
<path fill="none" stroke="tan" d="M71,-292.313C71,-284.289 71,-274.547 71,-265.569"/>
<polygon fill="tan" stroke="tan" points="74.5001,-265.529 71,-255.529 67.5001,-265.529 74.5001,-265.529"/>
</g>
<!-- Node_5 -->
<g id="node6" class="node"><title>Node_5</title>
<path fill="moccasin" stroke="moccasin" d="M35.5,-0.5C35.5,-0.5 106.5,-0.5 106.5,-0.5 112.5,-0.5 118.5,-6.5 118.5,-12.5 118.5,-12.5 118.5,-24.5 118.5,-24.5 118.5,-30.5 112.5,-36.5 106.5,-36.5 106.5,-36.5 35.5,-36.5 35.5,-36.5 29.5,-36.5 23.5,-30.5 23.5,-24.5 23.5,-24.5 23.5,-12.5 23.5,-12.5 23.5,-6.5 29.5,-0.5 35.5,-0.5"/>
<text text-anchor="middle" x="71" y="-16.3" font-family="Arial" font-size="9.00">_7: [&#45;Infinity, Infinity]</text>
</g>
<!-- Node_4&#45;&gt;Node_5 -->
<g id="edge3" class="edge"><title>Node_4&#45;&gt;Node_5</title>
<path fill="none" stroke="steelblue" d="M71,-73.3129C71,-65.2895 71,-55.5475 71,-46.5691"/>
<polygon fill="steelblue" stroke="steelblue" points="74.5001,-46.5288 71,-36.5288 67.5001,-46.5289 74.5001,-46.5288"/>
</g>
<!-- Node_6 -->
<g id="node7" class="node"><title>Node_6</title>
<path fill="moccasin" stroke="moccasin" d="M34.5,-438.5C34.5,-438.5 107.5,-438.5 107.5,-438.5 113.5,-438.5 119.5,-444.5 119.5,-450.5 119.5,-450.5 119.5,-462.5 119.5,-462.5 119.5,-468.5 113.5,-474.5 107.5,-474.5 107.5,-474.5 34.5,-474.5 34.5,-474.5 28.5,-474.5 22.5,-468.5 22.5,-462.5 22.5,-462.5 22.5,-450.5 22.5,-450.5 22.5,-444.5 28.5,-438.5 34.5,-438.5"/>
<text text-anchor="middle" x="71" y="-454.3" font-family="Arial" font-size="9.00">i_2: [&#45;Infinity, Infinity]</text>
</g>
<!-- Node_6&#45;&gt;Node_2 -->
<g id="edge5" class="edge"><title>Node_6&#45;&gt;Node_2</title>
<path fill="none" stroke="tan" d="M71,-438.313C71,-430.289 71,-420.547 71,-411.569"/>
<polygon fill="tan" stroke="tan" points="74.5001,-411.529 71,-401.529 67.5001,-411.529 74.5001,-411.529"/>
</g>
</g>
</svg>
