<?xml version="1.0" encoding="UTF-8" standalone="no"?>
<!DOCTYPE svg PUBLIC "-//W3C//DTD SVG 1.1//EN"
 "http://www.w3.org/Graphics/SVG/1.1/DTD/svg11.dtd">
<!-- Generated by graphviz version 2.38.0 (20140413.2041)
 -->
<!-- Title: t8_foo_CFG Pages: 1 -->
<svg width="372pt" height="721pt"
     viewBox="0.00 0.00 372.00 721.00" xmlns="http://www.w3.org/2000/svg">
<g id="graph0" class="graph" transform="scale(1 1) rotate(0) translate(4 717)">
<title>t8_foo_CFG</title>
<polygon fill="white" stroke="none" points="-4,4 -4,-717 368,-717 368,4 -4,4"/>
<text text-anchor="middle" x="182" y="-699.4" font-family="Arial" font-size="12.00">t8_foo_CFG</text>
<!-- Node_0 -->
<g id="node1" class="node"><title>Node_0</title>
<path fill="mintcream" stroke="orange" d="M166.5,-655.5C166.5,-655.5 196.5,-655.5 196.5,-655.5 202.5,-655.5 208.5,-661.5 208.5,-667.5 208.5,-667.5 208.5,-679.5 208.5,-679.5 208.5,-685.5 202.5,-691.5 196.5,-691.5 196.5,-691.5 166.5,-691.5 166.5,-691.5 160.5,-691.5 154.5,-685.5 154.5,-679.5 154.5,-679.5 154.5,-667.5 154.5,-667.5 154.5,-661.5 160.5,-655.5 166.5,-655.5"/>
<text text-anchor="middle" x="181.5" y="-671.3" font-family="Arial" font-size="9.00">&lt;Entry&gt;</text>
</g>
<!-- Node_1 -->
<g id="node2" class="node"><title>Node_1</title>
<path fill="mintcream" stroke="black" d="M95,-582.5C95,-582.5 268,-582.5 268,-582.5 274,-582.5 280,-588.5 280,-594.5 280,-594.5 280,-606.5 280,-606.5 280,-612.5 274,-618.5 268,-618.5 268,-618.5 95,-618.5 95,-618.5 89,-618.5 83,-612.5 83,-606.5 83,-606.5 83,-594.5 83,-594.5 83,-588.5 89,-582.5 95,-582.5"/>
<text text-anchor="middle" x="181.5" y="-607.3" font-family="Arial" font-size="9.00">&lt;bb 2&gt;</text>
<polyline fill="none" stroke="black" points="83,-600.5 280,-600.5 "/>
<text text-anchor="middle" x="181.5" y="-589.3" font-family="Arial" font-size="9.00">if (a_4(D) != 0) goto &lt;bb 3&gt; else goto &lt;bb 4&gt;</text>
</g>
<!-- Node_0&#45;&gt;Node_1 -->
<g id="edge1" class="edge"><title>Node_0&#45;&gt;Node_1</title>
<path fill="none" stroke="black" d="M181.5,-655.313C181.5,-647.289 181.5,-637.547 181.5,-628.569"/>
<polygon fill="black" stroke="black" points="185,-628.529 181.5,-618.529 178,-628.529 185,-628.529"/>
</g>
<!-- Node_2 -->
<g id="node3" class="node"><title>Node_2</title>
<path fill="mintcream" stroke="black" d="M12,-455.5C12,-455.5 161,-455.5 161,-455.5 167,-455.5 173,-461.5 173,-467.5 173,-467.5 173,-533.5 173,-533.5 173,-539.5 167,-545.5 161,-545.5 161,-545.5 12,-545.5 12,-545.5 6,-545.5 0,-539.5 0,-533.5 0,-533.5 0,-467.5 0,-467.5 0,-461.5 6,-455.5 12,-455.5"/>
<text text-anchor="middle" x="86.5" y="-534.3" font-family="Arial" font-size="9.00">&lt;bb 3&gt;</text>
<polyline fill="none" stroke="black" points="0,-527.5 173,-527.5 "/>
<text text-anchor="middle" x="86.5" y="-516.3" font-family="Arial" font-size="9.00">i_5 = 1.030000019073486328125e+1</text>
<polyline fill="none" stroke="black" points="0,-509.5 173,-509.5 "/>
<text text-anchor="middle" x="86.5" y="-498.3" font-family="Arial" font-size="9.00">j_6 = 5.19999980926513671875e+0</text>
<polyline fill="none" stroke="black" points="0,-491.5 173,-491.5 "/>
<text text-anchor="middle" x="86.5" y="-480.3" font-family="Arial" font-size="9.00">k_7 = i_5 / j_6</text>
<polyline fill="none" stroke="black" points="0,-473.5 173,-473.5 "/>
<text text-anchor="middle" x="86.5" y="-462.3" font-family="Arial" font-size="9.00">goto &lt;bb 5&gt;</text>
</g>
<!-- Node_1&#45;&gt;Node_2 -->
<g id="edge2" class="edge"><title>Node_1&#45;&gt;Node_2</title>
<path fill="none" stroke="crimson" d="M164.952,-582.43C156.918,-574.142 146.792,-563.696 136.509,-553.088"/>
<polygon fill="crimson" stroke="crimson" points="138.861,-550.486 129.388,-545.742 133.835,-555.359 138.861,-550.486"/>
</g>
<!-- Node_9 -->
<g id="node10" class="node"><title>Node_9</title>
<path fill="mintcream" stroke="black" d="M203,-464.5C203,-464.5 352,-464.5 352,-464.5 358,-464.5 364,-470.5 364,-476.5 364,-476.5 364,-524.5 364,-524.5 364,-530.5 358,-536.5 352,-536.5 352,-536.5 203,-536.5 203,-536.5 197,-536.5 191,-530.5 191,-524.5 191,-524.5 191,-476.5 191,-476.5 191,-470.5 197,-464.5 203,-464.5"/>
<text text-anchor="middle" x="277.5" y="-525.3" font-family="Arial" font-size="9.00">&lt;bb 4&gt;</text>
<polyline fill="none" stroke="black" points="191,-518.5 364,-518.5 "/>
<text text-anchor="middle" x="277.5" y="-507.3" font-family="Arial" font-size="9.00">i_8 = 7.30000019073486328125e+0</text>
<polyline fill="none" stroke="black" points="191,-500.5 364,-500.5 "/>
<text text-anchor="middle" x="277.5" y="-489.3" font-family="Arial" font-size="9.00">j_9 = 2.400000095367431640625e+0</text>
<polyline fill="none" stroke="black" points="191,-482.5 364,-482.5 "/>
<text text-anchor="middle" x="277.5" y="-471.3" font-family="Arial" font-size="9.00">k_10 = i_8 &#45; j_9</text>
</g>
<!-- Node_1&#45;&gt;Node_9 -->
<g id="edge10" class="edge"><title>Node_1&#45;&gt;Node_9</title>
<path fill="none" stroke="teal" d="M198.222,-582.43C208.647,-571.787 222.559,-557.586 235.816,-544.052"/>
<polygon fill="teal" stroke="teal" points="238.59,-546.222 243.088,-536.629 233.589,-541.324 238.59,-546.222"/>
</g>
<!-- Node_3 -->
<g id="node4" class="node"><title>Node_3</title>
<path fill="mintcream" stroke="black" d="M92,-328.5C92,-328.5 271,-328.5 271,-328.5 277,-328.5 283,-334.5 283,-340.5 283,-340.5 283,-406.5 283,-406.5 283,-412.5 277,-418.5 271,-418.5 271,-418.5 92,-418.5 92,-418.5 86,-418.5 80,-412.5 80,-406.5 80,-406.5 80,-340.5 80,-340.5 80,-334.5 86,-328.5 92,-328.5"/>
<text text-anchor="middle" x="181.5" y="-407.3" font-family="Arial" font-size="9.00">&lt;bb 5&gt;</text>
<polyline fill="none" stroke="black" points="80,-400.5 283,-400.5 "/>
<text text-anchor="middle" x="181.5" y="-389.3" font-family="Arial" font-size="9.00"># j_1 = PHI &lt;j_6(3), j_9(4)&gt;</text>
<polyline fill="none" stroke="black" points="80,-382.5 283,-382.5 "/>
<text text-anchor="middle" x="181.5" y="-371.3" font-family="Arial" font-size="9.00"># k_2 = PHI &lt;k_7(3), k_10(4)&gt;</text>
<polyline fill="none" stroke="black" points="80,-364.5 283,-364.5 "/>
<text text-anchor="middle" x="181.5" y="-353.3" font-family="Arial" font-size="9.00">ret_11 = 0.0</text>
<polyline fill="none" stroke="black" points="80,-346.5 283,-346.5 "/>
<text text-anchor="middle" x="181.5" y="-335.3" font-family="Arial" font-size="9.00">if (b_12(D) != 0) goto &lt;bb 6&gt; else goto &lt;bb 7&gt;</text>
</g>
<!-- Node_2&#45;&gt;Node_3 -->
<g id="edge3" class="edge"><title>Node_2&#45;&gt;Node_3</title>
<path fill="none" stroke="black" d="M119.993,-455.43C127.088,-446.094 134.641,-436.157 141.937,-426.557"/>
<polygon fill="black" stroke="black" points="144.725,-428.673 147.989,-418.594 139.151,-424.438 144.725,-428.673"/>
</g>
<!-- Node_4 -->
<g id="node5" class="node"><title>Node_4</title>
<path fill="mintcream" stroke="black" d="M92.5,-237.5C92.5,-237.5 156.5,-237.5 156.5,-237.5 162.5,-237.5 168.5,-243.5 168.5,-249.5 168.5,-249.5 168.5,-279.5 168.5,-279.5 168.5,-285.5 162.5,-291.5 156.5,-291.5 156.5,-291.5 92.5,-291.5 92.5,-291.5 86.5,-291.5 80.5,-285.5 80.5,-279.5 80.5,-279.5 80.5,-249.5 80.5,-249.5 80.5,-243.5 86.5,-237.5 92.5,-237.5"/>
<text text-anchor="middle" x="124.5" y="-280.3" font-family="Arial" font-size="9.00">&lt;bb 6&gt;</text>
<polyline fill="none" stroke="black" points="80.5,-273.5 168.5,-273.5 "/>
<text text-anchor="middle" x="124.5" y="-262.3" font-family="Arial" font-size="9.00">ret_13 = k_2 &#45; j_1</text>
<polyline fill="none" stroke="black" points="80.5,-255.5 168.5,-255.5 "/>
<text text-anchor="middle" x="124.5" y="-244.3" font-family="Arial" font-size="9.00">goto &lt;bb 8&gt;</text>
</g>
<!-- Node_3&#45;&gt;Node_4 -->
<g id="edge4" class="edge"><title>Node_3&#45;&gt;Node_4</title>
<path fill="none" stroke="crimson" d="M157.987,-328.361C153.071,-319.133 147.95,-309.52 143.235,-300.669"/>
<polygon fill="crimson" stroke="crimson" points="146.285,-298.95 138.494,-291.769 140.107,-302.241 146.285,-298.95"/>
</g>
<!-- Node_8 -->
<g id="node9" class="node"><title>Node_8</title>
<path fill="mintcream" stroke="black" d="M198.5,-246.5C198.5,-246.5 278.5,-246.5 278.5,-246.5 284.5,-246.5 290.5,-252.5 290.5,-258.5 290.5,-258.5 290.5,-270.5 290.5,-270.5 290.5,-276.5 284.5,-282.5 278.5,-282.5 278.5,-282.5 198.5,-282.5 198.5,-282.5 192.5,-282.5 186.5,-276.5 186.5,-270.5 186.5,-270.5 186.5,-258.5 186.5,-258.5 186.5,-252.5 192.5,-246.5 198.5,-246.5"/>
<text text-anchor="middle" x="238.5" y="-271.3" font-family="Arial" font-size="9.00">&lt;bb 7&gt;</text>
<polyline fill="none" stroke="black" points="186.5,-264.5 290.5,-264.5 "/>
<text text-anchor="middle" x="238.5" y="-253.3" font-family="Arial" font-size="9.00">ret_14 = k_2 * 3.0e+0</text>
</g>
<!-- Node_3&#45;&gt;Node_8 -->
<g id="edge8" class="edge"><title>Node_3&#45;&gt;Node_8</title>
<path fill="none" stroke="teal" d="M205.013,-328.361C211.654,-315.894 218.669,-302.728 224.552,-291.683"/>
<polygon fill="teal" stroke="teal" points="227.781,-293.066 229.393,-282.595 221.603,-289.775 227.781,-293.066"/>
</g>
<!-- Node_5 -->
<g id="node6" class="node"><title>Node_5</title>
<path fill="mintcream" stroke="black" d="M112.5,-146.5C112.5,-146.5 250.5,-146.5 250.5,-146.5 256.5,-146.5 262.5,-152.5 262.5,-158.5 262.5,-158.5 262.5,-188.5 262.5,-188.5 262.5,-194.5 256.5,-200.5 250.5,-200.5 250.5,-200.5 112.5,-200.5 112.5,-200.5 106.5,-200.5 100.5,-194.5 100.5,-188.5 100.5,-188.5 100.5,-158.5 100.5,-158.5 100.5,-152.5 106.5,-146.5 112.5,-146.5"/>
<text text-anchor="middle" x="181.5" y="-189.3" font-family="Arial" font-size="9.00">&lt;bb 8&gt;</text>
<polyline fill="none" stroke="black" points="100.5,-182.5 262.5,-182.5 "/>
<text text-anchor="middle" x="181.5" y="-171.3" font-family="Arial" font-size="9.00"># ret_3 = PHI &lt;ret_13(6), ret_14(7)&gt;</text>
<polyline fill="none" stroke="black" points="100.5,-164.5 262.5,-164.5 "/>
<text text-anchor="middle" x="181.5" y="-153.3" font-family="Arial" font-size="9.00">_15 = ret_3</text>
</g>
<!-- Node_4&#45;&gt;Node_5 -->
<g id="edge5" class="edge"><title>Node_4&#45;&gt;Node_5</title>
<path fill="none" stroke="black" d="M141.294,-237.278C146.918,-228.497 153.278,-218.566 159.253,-209.237"/>
<polygon fill="black" stroke="black" points="162.381,-210.843 164.826,-200.534 156.486,-207.068 162.381,-210.843"/>
</g>
<!-- Node_6 -->
<g id="node7" class="node"><title>Node_6</title>
<path fill="mintcream" stroke="black" d="M164,-73.5C164,-73.5 199,-73.5 199,-73.5 205,-73.5 211,-79.5 211,-85.5 211,-85.5 211,-97.5 211,-97.5 211,-103.5 205,-109.5 199,-109.5 199,-109.5 164,-109.5 164,-109.5 158,-109.5 152,-103.5 152,-97.5 152,-97.5 152,-85.5 152,-85.5 152,-79.5 158,-73.5 164,-73.5"/>
<text text-anchor="middle" x="181.5" y="-98.3" font-family="Arial" font-size="9.00">&lt;L6&gt;</text>
<polyline fill="none" stroke="black" points="152,-91.5 211,-91.5 "/>
<text text-anchor="middle" x="181.5" y="-80.3" font-family="Arial" font-size="9.00">return _15</text>
</g>
<!-- Node_5&#45;&gt;Node_6 -->
<g id="edge6" class="edge"><title>Node_5&#45;&gt;Node_6</title>
<path fill="none" stroke="black" d="M181.5,-146.305C181.5,-137.846 181.5,-128.449 181.5,-119.905"/>
<polygon fill="black" stroke="black" points="185,-119.674 181.5,-109.674 178,-119.674 185,-119.674"/>
</g>
<!-- Node_7 -->
<g id="node8" class="node"><title>Node_7</title>
<path fill="mintcream" stroke="#1874cd" d="M166.5,-0.5C166.5,-0.5 196.5,-0.5 196.5,-0.5 202.5,-0.5 208.5,-6.5 208.5,-12.5 208.5,-12.5 208.5,-24.5 208.5,-24.5 208.5,-30.5 202.5,-36.5 196.5,-36.5 196.5,-36.5 166.5,-36.5 166.5,-36.5 160.5,-36.5 154.5,-30.5 154.5,-24.5 154.5,-24.5 154.5,-12.5 154.5,-12.5 154.5,-6.5 160.5,-0.5 166.5,-0.5"/>
<text text-anchor="middle" x="181.5" y="-16.3" font-family="Arial" font-size="9.00">&lt;Exit&gt;</text>
</g>
<!-- Node_6&#45;&gt;Node_7 -->
<g id="edge7" class="edge"><title>Node_6&#45;&gt;Node_7</title>
<path fill="none" stroke="black" d="M181.5,-73.3129C181.5,-65.2895 181.5,-55.5475 181.5,-46.5691"/>
<polygon fill="black" stroke="black" points="185,-46.5288 181.5,-36.5288 178,-46.5289 185,-46.5288"/>
</g>
<!-- Node_8&#45;&gt;Node_5 -->
<g id="edge9" class="edge"><title>Node_8&#45;&gt;Node_5</title>
<path fill="none" stroke="black" d="M227.51,-246.34C220.781,-235.833 211.926,-222.007 203.783,-209.292"/>
<polygon fill="black" stroke="black" points="206.634,-207.255 198.294,-200.722 200.739,-211.03 206.634,-207.255"/>
</g>
<!-- Node_9&#45;&gt;Node_3 -->
<g id="edge11" class="edge"><title>Node_9&#45;&gt;Node_3</title>
<path fill="none" stroke="black" d="M250.503,-464.348C241.587,-452.738 231.466,-439.559 221.776,-426.942"/>
<polygon fill="black" stroke="black" points="224.354,-424.554 215.487,-418.754 218.803,-428.817 224.354,-424.554"/>
</g>
</g>
</svg>
