<?xml version="1.0" encoding="UTF-8" standalone="no"?>
<!DOCTYPE svg PUBLIC "-//W3C//DTD SVG 1.1//EN"
 "http://www.w3.org/Graphics/SVG/1.1/DTD/svg11.dtd">
<!-- Generated by graphviz version 2.38.0 (20140413.2041)
 -->
<!-- Title: t8_foo_ConstraintGraph Pages: 1 -->
<svg width="1067pt" height="869pt"
     viewBox="0.00 0.00 1067.00 869.00" xmlns="http://www.w3.org/2000/svg">
<g id="graph0" class="graph" transform="scale(1 1) rotate(0) translate(4 865)">
<title>t8_foo_ConstraintGraph</title>
<polygon fill="white" stroke="none" points="-4,4 -4,-865 1063,-865 1063,4 -4,4"/>
<text text-anchor="middle" x="529.5" y="-847.4" font-family="Arial" font-size="12.00">t8_foo_ConstraintGraph</text>
<!-- Node_0 -->
<g id="node1" class="node"><title>Node_0</title>
<path fill="lightblue" stroke="lightblue" d="M203,-803.5C203,-803.5 346,-803.5 346,-803.5 352,-803.5 358,-809.5 358,-815.5 358,-815.5 358,-827.5 358,-827.5 358,-833.5 352,-839.5 346,-839.5 346,-839.5 203,-839.5 203,-839.5 197,-839.5 191,-833.5 191,-827.5 191,-827.5 191,-815.5 191,-815.5 191,-809.5 197,-803.5 203,-803.5"/>
<text text-anchor="middle" x="274.5" y="-819.3" font-family="Arial" font-size="9.00">j_6 = 5.19999980926513671875e+0</text>
</g>
<!-- Node_1 -->
<g id="node2" class="node"><title>Node_1</title>
<path fill="moccasin" stroke="moccasin" d="M238,-730.5C238,-730.5 311,-730.5 311,-730.5 317,-730.5 323,-736.5 323,-742.5 323,-742.5 323,-754.5 323,-754.5 323,-760.5 317,-766.5 311,-766.5 311,-766.5 238,-766.5 238,-766.5 232,-766.5 226,-760.5 226,-754.5 226,-754.5 226,-742.5 226,-742.5 226,-736.5 232,-730.5 238,-730.5"/>
<text text-anchor="middle" x="274.5" y="-746.3" font-family="Arial" font-size="9.00">j_6: [&#45;Infinity, Infinity]</text>
</g>
<!-- Node_0&#45;&gt;Node_1 -->
<g id="edge1" class="edge"><title>Node_0&#45;&gt;Node_1</title>
<path fill="none" stroke="steelblue" d="M274.5,-803.313C274.5,-795.289 274.5,-785.547 274.5,-776.569"/>
<polygon fill="steelblue" stroke="steelblue" points="278,-776.529 274.5,-766.529 271,-776.529 278,-776.529"/>
</g>
<!-- Node_8 -->
<g id="node9" class="node"><title>Node_8</title>
<path fill="lightblue" stroke="lightblue" d="M213.5,-657.5C213.5,-657.5 263.5,-657.5 263.5,-657.5 269.5,-657.5 275.5,-663.5 275.5,-669.5 275.5,-669.5 275.5,-681.5 275.5,-681.5 275.5,-687.5 269.5,-693.5 263.5,-693.5 263.5,-693.5 213.5,-693.5 213.5,-693.5 207.5,-693.5 201.5,-687.5 201.5,-681.5 201.5,-681.5 201.5,-669.5 201.5,-669.5 201.5,-663.5 207.5,-657.5 213.5,-657.5"/>
<text text-anchor="middle" x="238.5" y="-673.3" font-family="Arial" font-size="9.00">k_7 = i_5 / j_6</text>
</g>
<!-- Node_1&#45;&gt;Node_8 -->
<g id="edge23" class="edge"><title>Node_1&#45;&gt;Node_8</title>
<path fill="none" stroke="tan" d="M265.785,-730.313C261.585,-722.028 256.455,-711.91 251.781,-702.693"/>
<polygon fill="tan" stroke="tan" points="254.778,-700.865 247.134,-693.529 248.535,-704.031 254.778,-700.865"/>
</g>
<!-- Node_18 -->
<g id="node19" class="node"><title>Node_18</title>
<path fill="lightblue" stroke="lightblue" d="M314,-657.5C314,-657.5 417,-657.5 417,-657.5 423,-657.5 429,-663.5 429,-669.5 429,-669.5 429,-681.5 429,-681.5 429,-687.5 423,-693.5 417,-693.5 417,-693.5 314,-693.5 314,-693.5 308,-693.5 302,-687.5 302,-681.5 302,-681.5 302,-669.5 302,-669.5 302,-663.5 308,-657.5 314,-657.5"/>
<text text-anchor="middle" x="365.5" y="-673.3" font-family="Arial" font-size="9.00"># j_1 = PHI &lt;j_6(3), j_9(4)&gt;</text>
</g>
<!-- Node_1&#45;&gt;Node_18 -->
<g id="edge24" class="edge"><title>Node_1&#45;&gt;Node_18</title>
<path fill="none" stroke="tan" d="M296.529,-730.313C308.265,-721.156 322.871,-709.76 335.616,-699.816"/>
<polygon fill="tan" stroke="tan" points="337.943,-702.44 343.674,-693.529 333.637,-696.921 337.943,-702.44"/>
</g>
<!-- Node_2 -->
<g id="node3" class="node"><title>Node_2</title>
<path fill="lightblue" stroke="lightblue" d="M12,-803.5C12,-803.5 161,-803.5 161,-803.5 167,-803.5 173,-809.5 173,-815.5 173,-815.5 173,-827.5 173,-827.5 173,-833.5 167,-839.5 161,-839.5 161,-839.5 12,-839.5 12,-839.5 6,-839.5 0,-833.5 0,-827.5 0,-827.5 0,-815.5 0,-815.5 0,-809.5 6,-803.5 12,-803.5"/>
<text text-anchor="middle" x="86.5" y="-819.3" font-family="Arial" font-size="9.00">i_5 = 1.030000019073486328125e+1</text>
</g>
<!-- Node_3 -->
<g id="node4" class="node"><title>Node_3</title>
<path fill="moccasin" stroke="moccasin" d="M86,-730.5C86,-730.5 159,-730.5 159,-730.5 165,-730.5 171,-736.5 171,-742.5 171,-742.5 171,-754.5 171,-754.5 171,-760.5 165,-766.5 159,-766.5 159,-766.5 86,-766.5 86,-766.5 80,-766.5 74,-760.5 74,-754.5 74,-754.5 74,-742.5 74,-742.5 74,-736.5 80,-730.5 86,-730.5"/>
<text text-anchor="middle" x="122.5" y="-746.3" font-family="Arial" font-size="9.00">i_5: [&#45;Infinity, Infinity]</text>
</g>
<!-- Node_2&#45;&gt;Node_3 -->
<g id="edge2" class="edge"><title>Node_2&#45;&gt;Node_3</title>
<path fill="none" stroke="steelblue" d="M95.2146,-803.313C99.4154,-795.028 104.545,-784.91 109.219,-775.693"/>
<polygon fill="steelblue" stroke="steelblue" points="112.465,-777.031 113.866,-766.529 106.222,-773.865 112.465,-777.031"/>
</g>
<!-- Node_3&#45;&gt;Node_8 -->
<g id="edge14" class="edge"><title>Node_3&#45;&gt;Node_8</title>
<path fill="none" stroke="tan" d="M150.285,-730.494C165.667,-721.079 184.984,-709.255 201.617,-699.075"/>
<polygon fill="tan" stroke="tan" points="203.838,-701.819 210.54,-693.614 200.183,-695.849 203.838,-701.819"/>
</g>
<!-- Node_4 -->
<g id="node5" class="node"><title>Node_4</title>
<path fill="lightblue" stroke="lightblue" d="M764,-803.5C764,-803.5 805,-803.5 805,-803.5 811,-803.5 817,-809.5 817,-815.5 817,-815.5 817,-827.5 817,-827.5 817,-833.5 811,-839.5 805,-839.5 805,-839.5 764,-839.5 764,-839.5 758,-839.5 752,-833.5 752,-827.5 752,-827.5 752,-815.5 752,-815.5 752,-809.5 758,-803.5 764,-803.5"/>
<text text-anchor="middle" x="784.5" y="-819.3" font-family="Arial" font-size="9.00">ret_11 = 0.0</text>
</g>
<!-- Node_5 -->
<g id="node6" class="node"><title>Node_5</title>
<path fill="moccasin" stroke="moccasin" d="M741.5,-730.5C741.5,-730.5 827.5,-730.5 827.5,-730.5 833.5,-730.5 839.5,-736.5 839.5,-742.5 839.5,-742.5 839.5,-754.5 839.5,-754.5 839.5,-760.5 833.5,-766.5 827.5,-766.5 827.5,-766.5 741.5,-766.5 741.5,-766.5 735.5,-766.5 729.5,-760.5 729.5,-754.5 729.5,-754.5 729.5,-742.5 729.5,-742.5 729.5,-736.5 735.5,-730.5 741.5,-730.5"/>
<text text-anchor="middle" x="784.5" y="-746.3" font-family="Arial" font-size="9.00">ret_11: [&#45;Infinity, Infinity]</text>
</g>
<!-- Node_4&#45;&gt;Node_5 -->
<g id="edge3" class="edge"><title>Node_4&#45;&gt;Node_5</title>
<path fill="none" stroke="steelblue" d="M784.5,-803.313C784.5,-795.289 784.5,-785.547 784.5,-776.569"/>
<polygon fill="steelblue" stroke="steelblue" points="788,-776.529 784.5,-766.529 781,-776.529 788,-776.529"/>
</g>
<!-- Node_6 -->
<g id="node7" class="node"><title>Node_6</title>
<path fill="lightblue" stroke="lightblue" d="M237.5,-219.5C237.5,-219.5 375.5,-219.5 375.5,-219.5 381.5,-219.5 387.5,-225.5 387.5,-231.5 387.5,-231.5 387.5,-243.5 387.5,-243.5 387.5,-249.5 381.5,-255.5 375.5,-255.5 375.5,-255.5 237.5,-255.5 237.5,-255.5 231.5,-255.5 225.5,-249.5 225.5,-243.5 225.5,-243.5 225.5,-231.5 225.5,-231.5 225.5,-225.5 231.5,-219.5 237.5,-219.5"/>
<text text-anchor="middle" x="306.5" y="-235.3" font-family="Arial" font-size="9.00"># ret_3 = PHI &lt;ret_13(6), ret_14(7)&gt;</text>
</g>
<!-- Node_7 -->
<g id="node8" class="node"><title>Node_7</title>
<path fill="moccasin" stroke="moccasin" d="M266,-146.5C266,-146.5 347,-146.5 347,-146.5 353,-146.5 359,-152.5 359,-158.5 359,-158.5 359,-170.5 359,-170.5 359,-176.5 353,-182.5 347,-182.5 347,-182.5 266,-182.5 266,-182.5 260,-182.5 254,-176.5 254,-170.5 254,-170.5 254,-158.5 254,-158.5 254,-152.5 260,-146.5 266,-146.5"/>
<text text-anchor="middle" x="306.5" y="-162.3" font-family="Arial" font-size="9.00">ret_3: [&#45;Infinity, Infinity]</text>
</g>
<!-- Node_6&#45;&gt;Node_7 -->
<g id="edge4" class="edge"><title>Node_6&#45;&gt;Node_7</title>
<path fill="none" stroke="steelblue" d="M306.5,-219.313C306.5,-211.289 306.5,-201.547 306.5,-192.569"/>
<polygon fill="steelblue" stroke="steelblue" points="310,-192.529 306.5,-182.529 303,-192.529 310,-192.529"/>
</g>
<!-- Node_14 -->
<g id="node15" class="node"><title>Node_14</title>
<path fill="lightblue" stroke="lightblue" d="M287,-73.5C287,-73.5 326,-73.5 326,-73.5 332,-73.5 338,-79.5 338,-85.5 338,-85.5 338,-97.5 338,-97.5 338,-103.5 332,-109.5 326,-109.5 326,-109.5 287,-109.5 287,-109.5 281,-109.5 275,-103.5 275,-97.5 275,-97.5 275,-85.5 275,-85.5 275,-79.5 281,-73.5 287,-73.5"/>
<text text-anchor="middle" x="306.5" y="-89.3" font-family="Arial" font-size="9.00">_15 = ret_3</text>
</g>
<!-- Node_7&#45;&gt;Node_14 -->
<g id="edge17" class="edge"><title>Node_7&#45;&gt;Node_14</title>
<path fill="none" stroke="tan" d="M306.5,-146.313C306.5,-138.289 306.5,-128.547 306.5,-119.569"/>
<polygon fill="tan" stroke="tan" points="310,-119.529 306.5,-109.529 303,-119.529 310,-119.529"/>
</g>
<!-- Node_9 -->
<g id="node10" class="node"><title>Node_9</title>
<path fill="moccasin" stroke="moccasin" d="M201,-584.5C201,-584.5 276,-584.5 276,-584.5 282,-584.5 288,-590.5 288,-596.5 288,-596.5 288,-608.5 288,-608.5 288,-614.5 282,-620.5 276,-620.5 276,-620.5 201,-620.5 201,-620.5 195,-620.5 189,-614.5 189,-608.5 189,-608.5 189,-596.5 189,-596.5 189,-590.5 195,-584.5 201,-584.5"/>
<text text-anchor="middle" x="238.5" y="-600.3" font-family="Arial" font-size="9.00">k_7: [&#45;Infinity, Infinity]</text>
</g>
<!-- Node_8&#45;&gt;Node_9 -->
<g id="edge5" class="edge"><title>Node_8&#45;&gt;Node_9</title>
<path fill="none" stroke="steelblue" d="M238.5,-657.313C238.5,-649.289 238.5,-639.547 238.5,-630.569"/>
<polygon fill="steelblue" stroke="steelblue" points="242,-630.529 238.5,-620.529 235,-630.529 242,-630.529"/>
</g>
<!-- Node_10 -->
<g id="node11" class="node"><title>Node_10</title>
<path fill="lightblue" stroke="lightblue" d="M181,-511.5C181,-511.5 296,-511.5 296,-511.5 302,-511.5 308,-517.5 308,-523.5 308,-523.5 308,-535.5 308,-535.5 308,-541.5 302,-547.5 296,-547.5 296,-547.5 181,-547.5 181,-547.5 175,-547.5 169,-541.5 169,-535.5 169,-535.5 169,-523.5 169,-523.5 169,-517.5 175,-511.5 181,-511.5"/>
<text text-anchor="middle" x="238.5" y="-527.3" font-family="Arial" font-size="9.00"># k_2 = PHI &lt;k_7(3), k_10(4)&gt;</text>
</g>
<!-- Node_9&#45;&gt;Node_10 -->
<g id="edge15" class="edge"><title>Node_9&#45;&gt;Node_10</title>
<path fill="none" stroke="tan" d="M238.5,-584.313C238.5,-576.289 238.5,-566.547 238.5,-557.569"/>
<polygon fill="tan" stroke="tan" points="242,-557.529 238.5,-547.529 235,-557.529 242,-557.529"/>
</g>
<!-- Node_11 -->
<g id="node12" class="node"><title>Node_11</title>
<path fill="moccasin" stroke="moccasin" d="M205,-438.5C205,-438.5 280,-438.5 280,-438.5 286,-438.5 292,-444.5 292,-450.5 292,-450.5 292,-462.5 292,-462.5 292,-468.5 286,-474.5 280,-474.5 280,-474.5 205,-474.5 205,-474.5 199,-474.5 193,-468.5 193,-462.5 193,-462.5 193,-450.5 193,-450.5 193,-444.5 199,-438.5 205,-438.5"/>
<text text-anchor="middle" x="242.5" y="-454.3" font-family="Arial" font-size="9.00">k_2: [&#45;Infinity, Infinity]</text>
</g>
<!-- Node_10&#45;&gt;Node_11 -->
<g id="edge6" class="edge"><title>Node_10&#45;&gt;Node_11</title>
<path fill="none" stroke="steelblue" d="M239.468,-511.313C239.92,-503.289 240.469,-493.547 240.975,-484.569"/>
<polygon fill="steelblue" stroke="steelblue" points="244.473,-484.71 241.541,-474.529 237.484,-484.316 244.473,-484.71"/>
</g>
<!-- Node_22 -->
<g id="node23" class="node"><title>Node_22</title>
<path fill="lightblue" stroke="lightblue" d="M202.5,-365.5C202.5,-365.5 282.5,-365.5 282.5,-365.5 288.5,-365.5 294.5,-371.5 294.5,-377.5 294.5,-377.5 294.5,-389.5 294.5,-389.5 294.5,-395.5 288.5,-401.5 282.5,-401.5 282.5,-401.5 202.5,-401.5 202.5,-401.5 196.5,-401.5 190.5,-395.5 190.5,-389.5 190.5,-389.5 190.5,-377.5 190.5,-377.5 190.5,-371.5 196.5,-365.5 202.5,-365.5"/>
<text text-anchor="middle" x="242.5" y="-381.3" font-family="Arial" font-size="9.00">ret_14 = k_2 * 3.0e+0</text>
</g>
<!-- Node_11&#45;&gt;Node_22 -->
<g id="edge19" class="edge"><title>Node_11&#45;&gt;Node_22</title>
<path fill="none" stroke="tan" d="M242.5,-438.313C242.5,-430.289 242.5,-420.547 242.5,-411.569"/>
<polygon fill="tan" stroke="tan" points="246,-411.529 242.5,-401.529 239,-411.529 246,-411.529"/>
</g>
<!-- Node_24 -->
<g id="node25" class="node"><title>Node_24</title>
<path fill="lightblue" stroke="lightblue" d="M338.5,-365.5C338.5,-365.5 402.5,-365.5 402.5,-365.5 408.5,-365.5 414.5,-371.5 414.5,-377.5 414.5,-377.5 414.5,-389.5 414.5,-389.5 414.5,-395.5 408.5,-401.5 402.5,-401.5 402.5,-401.5 338.5,-401.5 338.5,-401.5 332.5,-401.5 326.5,-395.5 326.5,-389.5 326.5,-389.5 326.5,-377.5 326.5,-377.5 326.5,-371.5 332.5,-365.5 338.5,-365.5"/>
<text text-anchor="middle" x="370.5" y="-381.3" font-family="Arial" font-size="9.00">ret_13 = k_2 &#45; j_1</text>
</g>
<!-- Node_11&#45;&gt;Node_24 -->
<g id="edge20" class="edge"><title>Node_11&#45;&gt;Node_24</title>
<path fill="none" stroke="tan" d="M273.159,-438.494C290.447,-428.904 312.239,-416.817 330.818,-406.511"/>
<polygon fill="tan" stroke="tan" points="332.6,-409.525 339.647,-401.614 329.205,-403.404 332.6,-409.525"/>
</g>
<!-- Node_12 -->
<g id="node13" class="node"><title>Node_12</title>
<path fill="lightblue" stroke="lightblue" d="M388,-803.5C388,-803.5 531,-803.5 531,-803.5 537,-803.5 543,-809.5 543,-815.5 543,-815.5 543,-827.5 543,-827.5 543,-833.5 537,-839.5 531,-839.5 531,-839.5 388,-839.5 388,-839.5 382,-839.5 376,-833.5 376,-827.5 376,-827.5 376,-815.5 376,-815.5 376,-809.5 382,-803.5 388,-803.5"/>
<text text-anchor="middle" x="459.5" y="-819.3" font-family="Arial" font-size="9.00">i_8 = 7.30000019073486328125e+0</text>
</g>
<!-- Node_13 -->
<g id="node14" class="node"><title>Node_13</title>
<path fill="moccasin" stroke="moccasin" d="M423,-730.5C423,-730.5 496,-730.5 496,-730.5 502,-730.5 508,-736.5 508,-742.5 508,-742.5 508,-754.5 508,-754.5 508,-760.5 502,-766.5 496,-766.5 496,-766.5 423,-766.5 423,-766.5 417,-766.5 411,-760.5 411,-754.5 411,-754.5 411,-742.5 411,-742.5 411,-736.5 417,-730.5 423,-730.5"/>
<text text-anchor="middle" x="459.5" y="-746.3" font-family="Arial" font-size="9.00">i_8: [&#45;Infinity, Infinity]</text>
</g>
<!-- Node_12&#45;&gt;Node_13 -->
<g id="edge7" class="edge"><title>Node_12&#45;&gt;Node_13</title>
<path fill="none" stroke="steelblue" d="M459.5,-803.313C459.5,-795.289 459.5,-785.547 459.5,-776.569"/>
<polygon fill="steelblue" stroke="steelblue" points="463,-776.529 459.5,-766.529 456,-776.529 463,-776.529"/>
</g>
<!-- Node_20 -->
<g id="node21" class="node"><title>Node_20</title>
<path fill="lightblue" stroke="lightblue" d="M459.5,-657.5C459.5,-657.5 515.5,-657.5 515.5,-657.5 521.5,-657.5 527.5,-663.5 527.5,-669.5 527.5,-669.5 527.5,-681.5 527.5,-681.5 527.5,-687.5 521.5,-693.5 515.5,-693.5 515.5,-693.5 459.5,-693.5 459.5,-693.5 453.5,-693.5 447.5,-687.5 447.5,-681.5 447.5,-681.5 447.5,-669.5 447.5,-669.5 447.5,-663.5 453.5,-657.5 459.5,-657.5"/>
<text text-anchor="middle" x="487.5" y="-673.3" font-family="Arial" font-size="9.00">k_10 = i_8 &#45; j_9</text>
</g>
<!-- Node_13&#45;&gt;Node_20 -->
<g id="edge25" class="edge"><title>Node_13&#45;&gt;Node_20</title>
<path fill="none" stroke="tan" d="M466.278,-730.313C469.511,-722.115 473.451,-712.123 477.055,-702.985"/>
<polygon fill="tan" stroke="tan" points="480.372,-704.116 480.784,-693.529 473.86,-701.548 480.372,-704.116"/>
</g>
<!-- Node_15 -->
<g id="node16" class="node"><title>Node_15</title>
<path fill="moccasin" stroke="moccasin" d="M268.5,-0.5C268.5,-0.5 344.5,-0.5 344.5,-0.5 350.5,-0.5 356.5,-6.5 356.5,-12.5 356.5,-12.5 356.5,-24.5 356.5,-24.5 356.5,-30.5 350.5,-36.5 344.5,-36.5 344.5,-36.5 268.5,-36.5 268.5,-36.5 262.5,-36.5 256.5,-30.5 256.5,-24.5 256.5,-24.5 256.5,-12.5 256.5,-12.5 256.5,-6.5 262.5,-0.5 268.5,-0.5"/>
<text text-anchor="middle" x="306.5" y="-16.3" font-family="Arial" font-size="9.00">_15: [&#45;Infinity, Infinity]</text>
</g>
<!-- Node_14&#45;&gt;Node_15 -->
<g id="edge8" class="edge"><title>Node_14&#45;&gt;Node_15</title>
<path fill="none" stroke="steelblue" d="M306.5,-73.3129C306.5,-65.2895 306.5,-55.5475 306.5,-46.5691"/>
<polygon fill="steelblue" stroke="steelblue" points="310,-46.5288 306.5,-36.5288 303,-46.5289 310,-46.5288"/>
</g>
<!-- Node_16 -->
<g id="node17" class="node"><title>Node_16</title>
<path fill="lightblue" stroke="lightblue" d="M573,-803.5C573,-803.5 722,-803.5 722,-803.5 728,-803.5 734,-809.5 734,-815.5 734,-815.5 734,-827.5 734,-827.5 734,-833.5 728,-839.5 722,-839.5 722,-839.5 573,-839.5 573,-839.5 567,-839.5 561,-833.5 561,-827.5 561,-827.5 561,-815.5 561,-815.5 561,-809.5 567,-803.5 573,-803.5"/>
<text text-anchor="middle" x="647.5" y="-819.3" font-family="Arial" font-size="9.00">j_9 = 2.400000095367431640625e+0</text>
</g>
<!-- Node_17 -->
<g id="node18" class="node"><title>Node_17</title>
<path fill="moccasin" stroke="moccasin" d="M538,-730.5C538,-730.5 611,-730.5 611,-730.5 617,-730.5 623,-736.5 623,-742.5 623,-742.5 623,-754.5 623,-754.5 623,-760.5 617,-766.5 611,-766.5 611,-766.5 538,-766.5 538,-766.5 532,-766.5 526,-760.5 526,-754.5 526,-754.5 526,-742.5 526,-742.5 526,-736.5 532,-730.5 538,-730.5"/>
<text text-anchor="middle" x="574.5" y="-746.3" font-family="Arial" font-size="9.00">j_9: [&#45;Infinity, Infinity]</text>
</g>
<!-- Node_16&#45;&gt;Node_17 -->
<g id="edge9" class="edge"><title>Node_16&#45;&gt;Node_17</title>
<path fill="none" stroke="steelblue" d="M629.829,-803.313C620.683,-794.417 609.365,-783.409 599.353,-773.672"/>
<polygon fill="steelblue" stroke="steelblue" points="601.617,-770.992 592.009,-766.529 596.737,-776.01 601.617,-770.992"/>
</g>
<!-- Node_17&#45;&gt;Node_18 -->
<g id="edge26" class="edge"><title>Node_17&#45;&gt;Node_18</title>
<path fill="none" stroke="tan" d="M525.763,-730.943C495.811,-720.768 457.216,-707.657 425.406,-696.851"/>
<polygon fill="tan" stroke="tan" points="426.364,-693.48 415.769,-693.577 424.112,-700.108 426.364,-693.48"/>
</g>
<!-- Node_17&#45;&gt;Node_20 -->
<g id="edge27" class="edge"><title>Node_17&#45;&gt;Node_20</title>
<path fill="none" stroke="tan" d="M553.44,-730.313C542.326,-721.243 528.521,-709.977 516.419,-700.1"/>
<polygon fill="tan" stroke="tan" points="518.327,-697.14 508.366,-693.529 513.901,-702.563 518.327,-697.14"/>
</g>
<!-- Node_19 -->
<g id="node20" class="node"><title>Node_19</title>
<path fill="moccasin" stroke="moccasin" d="M338,-511.5C338,-511.5 411,-511.5 411,-511.5 417,-511.5 423,-517.5 423,-523.5 423,-523.5 423,-535.5 423,-535.5 423,-541.5 417,-547.5 411,-547.5 411,-547.5 338,-547.5 338,-547.5 332,-547.5 326,-541.5 326,-535.5 326,-535.5 326,-523.5 326,-523.5 326,-517.5 332,-511.5 338,-511.5"/>
<text text-anchor="middle" x="374.5" y="-527.3" font-family="Arial" font-size="9.00">j_1: [&#45;Infinity, Infinity]</text>
</g>
<!-- Node_18&#45;&gt;Node_19 -->
<g id="edge10" class="edge"><title>Node_18&#45;&gt;Node_19</title>
<path fill="none" stroke="steelblue" d="M366.568,-657.416C368.104,-632.841 370.953,-587.253 372.786,-557.927"/>
<polygon fill="steelblue" stroke="steelblue" points="376.303,-557.761 373.434,-547.562 369.317,-557.324 376.303,-557.761"/>
</g>
<!-- Node_19&#45;&gt;Node_24 -->
<g id="edge18" class="edge"><title>Node_19&#45;&gt;Node_24</title>
<path fill="none" stroke="tan" d="M374.025,-511.416C373.343,-486.841 372.076,-441.253 371.262,-411.927"/>
<polygon fill="tan" stroke="tan" points="374.75,-411.461 370.974,-401.562 367.753,-411.655 374.75,-411.461"/>
</g>
<!-- Node_21 -->
<g id="node22" class="node"><title>Node_21</title>
<path fill="moccasin" stroke="moccasin" d="M430.5,-584.5C430.5,-584.5 510.5,-584.5 510.5,-584.5 516.5,-584.5 522.5,-590.5 522.5,-596.5 522.5,-596.5 522.5,-608.5 522.5,-608.5 522.5,-614.5 516.5,-620.5 510.5,-620.5 510.5,-620.5 430.5,-620.5 430.5,-620.5 424.5,-620.5 418.5,-614.5 418.5,-608.5 418.5,-608.5 418.5,-596.5 418.5,-596.5 418.5,-590.5 424.5,-584.5 430.5,-584.5"/>
<text text-anchor="middle" x="470.5" y="-600.3" font-family="Arial" font-size="9.00">k_10: [&#45;Infinity, Infinity]</text>
</g>
<!-- Node_20&#45;&gt;Node_21 -->
<g id="edge11" class="edge"><title>Node_20&#45;&gt;Node_21</title>
<path fill="none" stroke="steelblue" d="M483.385,-657.313C481.443,-649.202 479.08,-639.336 476.911,-630.277"/>
<polygon fill="steelblue" stroke="steelblue" points="480.31,-629.439 474.577,-620.529 473.502,-631.069 480.31,-629.439"/>
</g>
<!-- Node_21&#45;&gt;Node_10 -->
<g id="edge16" class="edge"><title>Node_21&#45;&gt;Node_10</title>
<path fill="none" stroke="tan" d="M418.435,-585.566C384.731,-575.252 340.555,-561.732 304.41,-550.671"/>
<polygon fill="tan" stroke="tan" points="305.03,-547.2 294.444,-547.621 302.982,-553.894 305.03,-547.2"/>
</g>
<!-- Node_23 -->
<g id="node24" class="node"><title>Node_23</title>
<path fill="moccasin" stroke="moccasin" d="M199.5,-292.5C199.5,-292.5 285.5,-292.5 285.5,-292.5 291.5,-292.5 297.5,-298.5 297.5,-304.5 297.5,-304.5 297.5,-316.5 297.5,-316.5 297.5,-322.5 291.5,-328.5 285.5,-328.5 285.5,-328.5 199.5,-328.5 199.5,-328.5 193.5,-328.5 187.5,-322.5 187.5,-316.5 187.5,-316.5 187.5,-304.5 187.5,-304.5 187.5,-298.5 193.5,-292.5 199.5,-292.5"/>
<text text-anchor="middle" x="242.5" y="-308.3" font-family="Arial" font-size="9.00">ret_14: [&#45;Infinity, Infinity]</text>
</g>
<!-- Node_22&#45;&gt;Node_23 -->
<g id="edge12" class="edge"><title>Node_22&#45;&gt;Node_23</title>
<path fill="none" stroke="steelblue" d="M242.5,-365.313C242.5,-357.289 242.5,-347.547 242.5,-338.569"/>
<polygon fill="steelblue" stroke="steelblue" points="246,-338.529 242.5,-328.529 239,-338.529 246,-338.529"/>
</g>
<!-- Node_23&#45;&gt;Node_6 -->
<g id="edge22" class="edge"><title>Node_23&#45;&gt;Node_6</title>
<path fill="none" stroke="tan" d="M257.993,-292.313C265.932,-283.505 275.739,-272.625 284.453,-262.958"/>
<polygon fill="tan" stroke="tan" points="287.054,-265.3 291.15,-255.529 281.855,-260.613 287.054,-265.3"/>
</g>
<!-- Node_25 -->
<g id="node26" class="node"><title>Node_25</title>
<path fill="moccasin" stroke="moccasin" d="M327.5,-292.5C327.5,-292.5 413.5,-292.5 413.5,-292.5 419.5,-292.5 425.5,-298.5 425.5,-304.5 425.5,-304.5 425.5,-316.5 425.5,-316.5 425.5,-322.5 419.5,-328.5 413.5,-328.5 413.5,-328.5 327.5,-328.5 327.5,-328.5 321.5,-328.5 315.5,-322.5 315.5,-316.5 315.5,-316.5 315.5,-304.5 315.5,-304.5 315.5,-298.5 321.5,-292.5 327.5,-292.5"/>
<text text-anchor="middle" x="370.5" y="-308.3" font-family="Arial" font-size="9.00">ret_13: [&#45;Infinity, Infinity]</text>
</g>
<!-- Node_24&#45;&gt;Node_25 -->
<g id="edge13" class="edge"><title>Node_24&#45;&gt;Node_25</title>
<path fill="none" stroke="steelblue" d="M370.5,-365.313C370.5,-357.289 370.5,-347.547 370.5,-338.569"/>
<polygon fill="steelblue" stroke="steelblue" points="374,-338.529 370.5,-328.529 367,-338.529 374,-338.529"/>
</g>
<!-- Node_25&#45;&gt;Node_6 -->
<g id="edge21" class="edge"><title>Node_25&#45;&gt;Node_6</title>
<path fill="none" stroke="tan" d="M355.007,-292.313C347.068,-283.505 337.261,-272.625 328.547,-262.958"/>
<polygon fill="tan" stroke="tan" points="331.145,-260.613 321.85,-255.529 325.946,-265.3 331.145,-260.613"/>
</g>
<!-- Node_26 -->
<g id="node27" class="node"><title>Node_26</title>
<path fill="moccasin" stroke="moccasin" d="M847.5,-803.5C847.5,-803.5 923.5,-803.5 923.5,-803.5 929.5,-803.5 935.5,-809.5 935.5,-815.5 935.5,-815.5 935.5,-827.5 935.5,-827.5 935.5,-833.5 929.5,-839.5 923.5,-839.5 923.5,-839.5 847.5,-839.5 847.5,-839.5 841.5,-839.5 835.5,-833.5 835.5,-827.5 835.5,-827.5 835.5,-815.5 835.5,-815.5 835.5,-809.5 841.5,-803.5 847.5,-803.5"/>
<text text-anchor="middle" x="885.5" y="-819.3" font-family="Arial" font-size="9.00">a_4: [&#45;Infinity, Infinity]</text>
</g>
<!-- Node_27 -->
<g id="node28" class="node"><title>Node_27</title>
<path fill="moccasin" stroke="moccasin" d="M966,-803.5C966,-803.5 1047,-803.5 1047,-803.5 1053,-803.5 1059,-809.5 1059,-815.5 1059,-815.5 1059,-827.5 1059,-827.5 1059,-833.5 1053,-839.5 1047,-839.5 1047,-839.5 966,-839.5 966,-839.5 960,-839.5 954,-833.5 954,-827.5 954,-827.5 954,-815.5 954,-815.5 954,-809.5 960,-803.5 966,-803.5"/>
<text text-anchor="middle" x="1006.5" y="-819.3" font-family="Arial" font-size="9.00">b_12: [&#45;Infinity, Infinity]</text>
</g>
</g>
</svg>
