<?xml version="1.0" encoding="UTF-8" standalone="no"?>
<!DOCTYPE svg PUBLIC "-//W3C//DTD SVG 1.1//EN"
 "http://www.w3.org/Graphics/SVG/1.1/DTD/svg11.dtd">
<!-- Generated by graphviz version 2.38.0 (20140413.2041)
 -->
<!-- Title: t8_foo_final_ConstraintGraph Pages: 1 -->
<svg width="1235pt" height="869pt"
     viewBox="0.00 0.00 1235.00 869.00" xmlns="http://www.w3.org/2000/svg">
<g id="graph0" class="graph" transform="scale(1 1) rotate(0) translate(4 865)">
<title>t8_foo_final_ConstraintGraph</title>
<polygon fill="white" stroke="none" points="-4,4 -4,-865 1231,-865 1231,4 -4,4"/>
<text text-anchor="middle" x="613.5" y="-847.4" font-family="Arial" font-size="12.00">t8_foo_final_ConstraintGraph</text>
<!-- Node_0 -->
<g id="node1" class="node"><title>Node_0</title>
<path fill="lightblue" stroke="lightblue" d="M280.5,-803.5C280.5,-803.5 423.5,-803.5 423.5,-803.5 429.5,-803.5 435.5,-809.5 435.5,-815.5 435.5,-815.5 435.5,-827.5 435.5,-827.5 435.5,-833.5 429.5,-839.5 423.5,-839.5 423.5,-839.5 280.5,-839.5 280.5,-839.5 274.5,-839.5 268.5,-833.5 268.5,-827.5 268.5,-827.5 268.5,-815.5 268.5,-815.5 268.5,-809.5 274.5,-803.5 280.5,-803.5"/>
<text text-anchor="middle" x="352" y="-819.3" font-family="Arial" font-size="9.00">j_6 = 5.19999980926513671875e+0</text>
</g>
<!-- Node_1 -->
<g id="node2" class="node"><title>Node_1</title>
<path fill="moccasin" stroke="moccasin" d="M256.5,-730.5C256.5,-730.5 447.5,-730.5 447.5,-730.5 453.5,-730.5 459.5,-736.5 459.5,-742.5 459.5,-742.5 459.5,-754.5 459.5,-754.5 459.5,-760.5 453.5,-766.5 447.5,-766.5 447.5,-766.5 256.5,-766.5 256.5,-766.5 250.5,-766.5 244.5,-760.5 244.5,-754.5 244.5,-754.5 244.5,-742.5 244.5,-742.5 244.5,-736.5 250.5,-730.5 256.5,-730.5"/>
<text text-anchor="middle" x="352" y="-746.3" font-family="Arial" font-size="9.00">j_6: [5.199999809265137, 5.199999809265137]</text>
</g>
<!-- Node_0&#45;&gt;Node_1 -->
<g id="edge1" class="edge"><title>Node_0&#45;&gt;Node_1</title>
<path fill="none" stroke="steelblue" d="M352,-803.313C352,-795.289 352,-785.547 352,-776.569"/>
<polygon fill="steelblue" stroke="steelblue" points="355.5,-776.529 352,-766.529 348.5,-776.529 355.5,-776.529"/>
</g>
<!-- Node_8 -->
<g id="node9" class="node"><title>Node_8</title>
<path fill="lightblue" stroke="lightblue" d="M274,-657.5C274,-657.5 324,-657.5 324,-657.5 330,-657.5 336,-663.5 336,-669.5 336,-669.5 336,-681.5 336,-681.5 336,-687.5 330,-693.5 324,-693.5 324,-693.5 274,-693.5 274,-693.5 268,-693.5 262,-687.5 262,-681.5 262,-681.5 262,-669.5 262,-669.5 262,-663.5 268,-657.5 274,-657.5"/>
<text text-anchor="middle" x="299" y="-673.3" font-family="Arial" font-size="9.00">k_7 = i_5 / j_6</text>
</g>
<!-- Node_1&#45;&gt;Node_8 -->
<g id="edge23" class="edge"><title>Node_1&#45;&gt;Node_8</title>
<path fill="none" stroke="tan" d="M339.17,-730.313C332.79,-721.766 324.955,-711.269 317.903,-701.823"/>
<polygon fill="tan" stroke="tan" points="320.498,-699.449 311.712,-693.529 314.889,-703.636 320.498,-699.449"/>
</g>
<!-- Node_18 -->
<g id="node19" class="node"><title>Node_18</title>
<path fill="lightblue" stroke="lightblue" d="M417.5,-657.5C417.5,-657.5 520.5,-657.5 520.5,-657.5 526.5,-657.5 532.5,-663.5 532.5,-669.5 532.5,-669.5 532.5,-681.5 532.5,-681.5 532.5,-687.5 526.5,-693.5 520.5,-693.5 520.5,-693.5 417.5,-693.5 417.5,-693.5 411.5,-693.5 405.5,-687.5 405.5,-681.5 405.5,-681.5 405.5,-669.5 405.5,-669.5 405.5,-663.5 411.5,-657.5 417.5,-657.5"/>
<text text-anchor="middle" x="469" y="-673.3" font-family="Arial" font-size="9.00"># j_1 = PHI &lt;j_6(3), j_9(4)&gt;</text>
</g>
<!-- Node_1&#45;&gt;Node_18 -->
<g id="edge24" class="edge"><title>Node_1&#45;&gt;Node_18</title>
<path fill="none" stroke="tan" d="M380.024,-730.494C395.54,-721.079 415.023,-709.255 431.799,-699.075"/>
<polygon fill="tan" stroke="tan" points="434.065,-701.794 440.799,-693.614 430.434,-695.809 434.065,-701.794"/>
</g>
<!-- Node_2 -->
<g id="node3" class="node"><title>Node_2</title>
<path fill="lightblue" stroke="lightblue" d="M38.5,-803.5C38.5,-803.5 187.5,-803.5 187.5,-803.5 193.5,-803.5 199.5,-809.5 199.5,-815.5 199.5,-815.5 199.5,-827.5 199.5,-827.5 199.5,-833.5 193.5,-839.5 187.5,-839.5 187.5,-839.5 38.5,-839.5 38.5,-839.5 32.5,-839.5 26.5,-833.5 26.5,-827.5 26.5,-827.5 26.5,-815.5 26.5,-815.5 26.5,-809.5 32.5,-803.5 38.5,-803.5"/>
<text text-anchor="middle" x="113" y="-819.3" font-family="Arial" font-size="9.00">i_5 = 1.030000019073486328125e+1</text>
</g>
<!-- Node_3 -->
<g id="node4" class="node"><title>Node_3</title>
<path fill="moccasin" stroke="moccasin" d="M12,-730.5C12,-730.5 214,-730.5 214,-730.5 220,-730.5 226,-736.5 226,-742.5 226,-742.5 226,-754.5 226,-754.5 226,-760.5 220,-766.5 214,-766.5 214,-766.5 12,-766.5 12,-766.5 6,-766.5 0,-760.5 0,-754.5 0,-754.5 0,-742.5 0,-742.5 0,-736.5 6,-730.5 12,-730.5"/>
<text text-anchor="middle" x="113" y="-746.3" font-family="Arial" font-size="9.00">i_5: [10.299999237060547, 10.299999237060547]</text>
</g>
<!-- Node_2&#45;&gt;Node_3 -->
<g id="edge2" class="edge"><title>Node_2&#45;&gt;Node_3</title>
<path fill="none" stroke="steelblue" d="M113,-803.313C113,-795.289 113,-785.547 113,-776.569"/>
<polygon fill="steelblue" stroke="steelblue" points="116.5,-776.529 113,-766.529 109.5,-776.529 116.5,-776.529"/>
</g>
<!-- Node_3&#45;&gt;Node_8 -->
<g id="edge14" class="edge"><title>Node_3&#45;&gt;Node_8</title>
<path fill="none" stroke="tan" d="M157.552,-730.494C186.133,-719.584 223.184,-705.44 252.196,-694.366"/>
<polygon fill="tan" stroke="tan" points="253.608,-697.573 261.703,-690.737 251.112,-691.034 253.608,-697.573"/>
</g>
<!-- Node_4 -->
<g id="node5" class="node"><title>Node_4</title>
<path fill="lightblue" stroke="lightblue" d="M975.5,-803.5C975.5,-803.5 1016.5,-803.5 1016.5,-803.5 1022.5,-803.5 1028.5,-809.5 1028.5,-815.5 1028.5,-815.5 1028.5,-827.5 1028.5,-827.5 1028.5,-833.5 1022.5,-839.5 1016.5,-839.5 1016.5,-839.5 975.5,-839.5 975.5,-839.5 969.5,-839.5 963.5,-833.5 963.5,-827.5 963.5,-827.5 963.5,-815.5 963.5,-815.5 963.5,-809.5 969.5,-803.5 975.5,-803.5"/>
<text text-anchor="middle" x="996" y="-819.3" font-family="Arial" font-size="9.00">ret_11 = 0.0</text>
</g>
<!-- Node_5 -->
<g id="node6" class="node"><title>Node_5</title>
<path fill="moccasin" stroke="moccasin" d="M967,-730.5C967,-730.5 1025,-730.5 1025,-730.5 1031,-730.5 1037,-736.5 1037,-742.5 1037,-742.5 1037,-754.5 1037,-754.5 1037,-760.5 1031,-766.5 1025,-766.5 1025,-766.5 967,-766.5 967,-766.5 961,-766.5 955,-760.5 955,-754.5 955,-754.5 955,-742.5 955,-742.5 955,-736.5 961,-730.5 967,-730.5"/>
<text text-anchor="middle" x="996" y="-746.3" font-family="Arial" font-size="9.00">ret_11: [0.0, 0.0]</text>
</g>
<!-- Node_4&#45;&gt;Node_5 -->
<g id="edge3" class="edge"><title>Node_4&#45;&gt;Node_5</title>
<path fill="none" stroke="steelblue" d="M996,-803.313C996,-795.289 996,-785.547 996,-776.569"/>
<polygon fill="steelblue" stroke="steelblue" points="999.5,-776.529 996,-766.529 992.5,-776.529 999.5,-776.529"/>
</g>
<!-- Node_6 -->
<g id="node7" class="node"><title>Node_6</title>
<path fill="lightblue" stroke="lightblue" d="M325,-219.5C325,-219.5 463,-219.5 463,-219.5 469,-219.5 475,-225.5 475,-231.5 475,-231.5 475,-243.5 475,-243.5 475,-249.5 469,-255.5 463,-255.5 463,-255.5 325,-255.5 325,-255.5 319,-255.5 313,-249.5 313,-243.5 313,-243.5 313,-231.5 313,-231.5 313,-225.5 319,-219.5 325,-219.5"/>
<text text-anchor="middle" x="394" y="-235.3" font-family="Arial" font-size="9.00"># ret_3 = PHI &lt;ret_13(6), ret_14(7)&gt;</text>
</g>
<!-- Node_7 -->
<g id="node8" class="node"><title>Node_7</title>
<path fill="moccasin" stroke="moccasin" d="M290,-146.5C290,-146.5 498,-146.5 498,-146.5 504,-146.5 510,-152.5 510,-158.5 510,-158.5 510,-170.5 510,-170.5 510,-176.5 504,-182.5 498,-182.5 498,-182.5 290,-182.5 290,-182.5 284,-182.5 278,-176.5 278,-170.5 278,-170.5 278,-158.5 278,-158.5 278,-152.5 284,-146.5 290,-146.5"/>
<text text-anchor="middle" x="394" y="-162.3" font-family="Arial" font-size="9.00">ret_3: [&#45;3.219230652560852, 14.700000286102295]</text>
</g>
<!-- Node_6&#45;&gt;Node_7 -->
<g id="edge4" class="edge"><title>Node_6&#45;&gt;Node_7</title>
<path fill="none" stroke="steelblue" d="M394,-219.313C394,-211.289 394,-201.547 394,-192.569"/>
<polygon fill="steelblue" stroke="steelblue" points="397.5,-192.529 394,-182.529 390.5,-192.529 397.5,-192.529"/>
</g>
<!-- Node_14 -->
<g id="node15" class="node"><title>Node_14</title>
<path fill="lightblue" stroke="lightblue" d="M374.5,-73.5C374.5,-73.5 413.5,-73.5 413.5,-73.5 419.5,-73.5 425.5,-79.5 425.5,-85.5 425.5,-85.5 425.5,-97.5 425.5,-97.5 425.5,-103.5 419.5,-109.5 413.5,-109.5 413.5,-109.5 374.5,-109.5 374.5,-109.5 368.5,-109.5 362.5,-103.5 362.5,-97.5 362.5,-97.5 362.5,-85.5 362.5,-85.5 362.5,-79.5 368.5,-73.5 374.5,-73.5"/>
<text text-anchor="middle" x="394" y="-89.3" font-family="Arial" font-size="9.00">_15 = ret_3</text>
</g>
<!-- Node_7&#45;&gt;Node_14 -->
<g id="edge17" class="edge"><title>Node_7&#45;&gt;Node_14</title>
<path fill="none" stroke="tan" d="M394,-146.313C394,-138.289 394,-128.547 394,-119.569"/>
<polygon fill="tan" stroke="tan" points="397.5,-119.529 394,-109.529 390.5,-119.529 397.5,-119.529"/>
</g>
<!-- Node_9 -->
<g id="node10" class="node"><title>Node_9</title>
<path fill="moccasin" stroke="moccasin" d="M197,-584.5C197,-584.5 401,-584.5 401,-584.5 407,-584.5 413,-590.5 413,-596.5 413,-596.5 413,-608.5 413,-608.5 413,-614.5 407,-620.5 401,-620.5 401,-620.5 197,-620.5 197,-620.5 191,-620.5 185,-614.5 185,-608.5 185,-608.5 185,-596.5 185,-596.5 185,-590.5 191,-584.5 197,-584.5"/>
<text text-anchor="middle" x="299" y="-600.3" font-family="Arial" font-size="9.00">k_7: [1.9807691567042849, 1.9807691567042849]</text>
</g>
<!-- Node_8&#45;&gt;Node_9 -->
<g id="edge5" class="edge"><title>Node_8&#45;&gt;Node_9</title>
<path fill="none" stroke="steelblue" d="M299,-657.313C299,-649.289 299,-639.547 299,-630.569"/>
<polygon fill="steelblue" stroke="steelblue" points="302.5,-630.529 299,-620.529 295.5,-630.529 302.5,-630.529"/>
</g>
<!-- Node_10 -->
<g id="node11" class="node"><title>Node_10</title>
<path fill="lightblue" stroke="lightblue" d="M241.5,-511.5C241.5,-511.5 356.5,-511.5 356.5,-511.5 362.5,-511.5 368.5,-517.5 368.5,-523.5 368.5,-523.5 368.5,-535.5 368.5,-535.5 368.5,-541.5 362.5,-547.5 356.5,-547.5 356.5,-547.5 241.5,-547.5 241.5,-547.5 235.5,-547.5 229.5,-541.5 229.5,-535.5 229.5,-535.5 229.5,-523.5 229.5,-523.5 229.5,-517.5 235.5,-511.5 241.5,-511.5"/>
<text text-anchor="middle" x="299" y="-527.3" font-family="Arial" font-size="9.00"># k_2 = PHI &lt;k_7(3), k_10(4)&gt;</text>
</g>
<!-- Node_9&#45;&gt;Node_10 -->
<g id="edge15" class="edge"><title>Node_9&#45;&gt;Node_10</title>
<path fill="none" stroke="tan" d="M299,-584.313C299,-576.289 299,-566.547 299,-557.569"/>
<polygon fill="tan" stroke="tan" points="302.5,-557.529 299,-547.529 295.5,-557.529 302.5,-557.529"/>
</g>
<!-- Node_11 -->
<g id="node12" class="node"><title>Node_11</title>
<path fill="moccasin" stroke="moccasin" d="M199.5,-438.5C199.5,-438.5 398.5,-438.5 398.5,-438.5 404.5,-438.5 410.5,-444.5 410.5,-450.5 410.5,-450.5 410.5,-462.5 410.5,-462.5 410.5,-468.5 404.5,-474.5 398.5,-474.5 398.5,-474.5 199.5,-474.5 199.5,-474.5 193.5,-474.5 187.5,-468.5 187.5,-462.5 187.5,-462.5 187.5,-450.5 187.5,-450.5 187.5,-444.5 193.5,-438.5 199.5,-438.5"/>
<text text-anchor="middle" x="299" y="-454.3" font-family="Arial" font-size="9.00">k_2: [1.9807691567042849, 4.900000095367432]</text>
</g>
<!-- Node_10&#45;&gt;Node_11 -->
<g id="edge6" class="edge"><title>Node_10&#45;&gt;Node_11</title>
<path fill="none" stroke="steelblue" d="M299,-511.313C299,-503.289 299,-493.547 299,-484.569"/>
<polygon fill="steelblue" stroke="steelblue" points="302.5,-484.529 299,-474.529 295.5,-484.529 302.5,-484.529"/>
</g>
<!-- Node_22 -->
<g id="node23" class="node"><title>Node_22</title>
<path fill="lightblue" stroke="lightblue" d="M251,-365.5C251,-365.5 331,-365.5 331,-365.5 337,-365.5 343,-371.5 343,-377.5 343,-377.5 343,-389.5 343,-389.5 343,-395.5 337,-401.5 331,-401.5 331,-401.5 251,-401.5 251,-401.5 245,-401.5 239,-395.5 239,-389.5 239,-389.5 239,-377.5 239,-377.5 239,-371.5 245,-365.5 251,-365.5"/>
<text text-anchor="middle" x="291" y="-381.3" font-family="Arial" font-size="9.00">ret_14 = k_2 * 3.0e+0</text>
</g>
<!-- Node_11&#45;&gt;Node_22 -->
<g id="edge19" class="edge"><title>Node_11&#45;&gt;Node_22</title>
<path fill="none" stroke="tan" d="M297.063,-438.313C296.159,-430.289 295.062,-420.547 294.05,-411.569"/>
<polygon fill="tan" stroke="tan" points="297.516,-411.074 292.919,-401.529 290.561,-411.858 297.516,-411.074"/>
</g>
<!-- Node_24 -->
<g id="node25" class="node"><title>Node_24</title>
<path fill="lightblue" stroke="lightblue" d="M465,-365.5C465,-365.5 529,-365.5 529,-365.5 535,-365.5 541,-371.5 541,-377.5 541,-377.5 541,-389.5 541,-389.5 541,-395.5 535,-401.5 529,-401.5 529,-401.5 465,-401.5 465,-401.5 459,-401.5 453,-395.5 453,-389.5 453,-389.5 453,-377.5 453,-377.5 453,-371.5 459,-365.5 465,-365.5"/>
<text text-anchor="middle" x="497" y="-381.3" font-family="Arial" font-size="9.00">ret_13 = k_2 &#45; j_1</text>
</g>
<!-- Node_11&#45;&gt;Node_24 -->
<g id="edge20" class="edge"><title>Node_11&#45;&gt;Node_24</title>
<path fill="none" stroke="tan" d="M346.426,-438.494C375.538,-428.055 412.905,-414.655 443.132,-403.816"/>
<polygon fill="tan" stroke="tan" points="444.443,-407.064 452.675,-400.394 442.08,-400.475 444.443,-407.064"/>
</g>
<!-- Node_12 -->
<g id="node13" class="node"><title>Node_12</title>
<path fill="lightblue" stroke="lightblue" d="M513.5,-803.5C513.5,-803.5 656.5,-803.5 656.5,-803.5 662.5,-803.5 668.5,-809.5 668.5,-815.5 668.5,-815.5 668.5,-827.5 668.5,-827.5 668.5,-833.5 662.5,-839.5 656.5,-839.5 656.5,-839.5 513.5,-839.5 513.5,-839.5 507.5,-839.5 501.5,-833.5 501.5,-827.5 501.5,-827.5 501.5,-815.5 501.5,-815.5 501.5,-809.5 507.5,-803.5 513.5,-803.5"/>
<text text-anchor="middle" x="585" y="-819.3" font-family="Arial" font-size="9.00">i_8 = 7.30000019073486328125e+0</text>
</g>
<!-- Node_13 -->
<g id="node14" class="node"><title>Node_13</title>
<path fill="moccasin" stroke="moccasin" d="M489.5,-730.5C489.5,-730.5 680.5,-730.5 680.5,-730.5 686.5,-730.5 692.5,-736.5 692.5,-742.5 692.5,-742.5 692.5,-754.5 692.5,-754.5 692.5,-760.5 686.5,-766.5 680.5,-766.5 680.5,-766.5 489.5,-766.5 489.5,-766.5 483.5,-766.5 477.5,-760.5 477.5,-754.5 477.5,-754.5 477.5,-742.5 477.5,-742.5 477.5,-736.5 483.5,-730.5 489.5,-730.5"/>
<text text-anchor="middle" x="585" y="-746.3" font-family="Arial" font-size="9.00">i_8: [7.300000190734863, 7.300000190734863]</text>
</g>
<!-- Node_12&#45;&gt;Node_13 -->
<g id="edge7" class="edge"><title>Node_12&#45;&gt;Node_13</title>
<path fill="none" stroke="steelblue" d="M585,-803.313C585,-795.289 585,-785.547 585,-776.569"/>
<polygon fill="steelblue" stroke="steelblue" points="588.5,-776.529 585,-766.529 581.5,-776.529 588.5,-776.529"/>
</g>
<!-- Node_20 -->
<g id="node21" class="node"><title>Node_20</title>
<path fill="lightblue" stroke="lightblue" d="M581,-657.5C581,-657.5 637,-657.5 637,-657.5 643,-657.5 649,-663.5 649,-669.5 649,-669.5 649,-681.5 649,-681.5 649,-687.5 643,-693.5 637,-693.5 637,-693.5 581,-693.5 581,-693.5 575,-693.5 569,-687.5 569,-681.5 569,-681.5 569,-669.5 569,-669.5 569,-663.5 575,-657.5 581,-657.5"/>
<text text-anchor="middle" x="609" y="-673.3" font-family="Arial" font-size="9.00">k_10 = i_8 &#45; j_9</text>
</g>
<!-- Node_13&#45;&gt;Node_20 -->
<g id="edge25" class="edge"><title>Node_13&#45;&gt;Node_20</title>
<path fill="none" stroke="tan" d="M590.81,-730.313C593.551,-722.202 596.887,-712.336 599.949,-703.277"/>
<polygon fill="tan" stroke="tan" points="603.357,-704.123 603.244,-693.529 596.726,-701.881 603.357,-704.123"/>
</g>
<!-- Node_15 -->
<g id="node16" class="node"><title>Node_15</title>
<path fill="moccasin" stroke="moccasin" d="M356,-0.5C356,-0.5 432,-0.5 432,-0.5 438,-0.5 444,-6.5 444,-12.5 444,-12.5 444,-24.5 444,-24.5 444,-30.5 438,-36.5 432,-36.5 432,-36.5 356,-36.5 356,-36.5 350,-36.5 344,-30.5 344,-24.5 344,-24.5 344,-12.5 344,-12.5 344,-6.5 350,-0.5 356,-0.5"/>
<text text-anchor="middle" x="394" y="-16.3" font-family="Arial" font-size="9.00">_15: [&#45;Infinity, Infinity]</text>
</g>
<!-- Node_14&#45;&gt;Node_15 -->
<g id="edge8" class="edge"><title>Node_14&#45;&gt;Node_15</title>
<path fill="none" stroke="steelblue" d="M394,-73.3129C394,-65.2895 394,-55.5475 394,-46.5691"/>
<polygon fill="steelblue" stroke="steelblue" points="397.5,-46.5288 394,-36.5288 390.5,-46.5289 397.5,-46.5288"/>
</g>
<!-- Node_16 -->
<g id="node17" class="node"><title>Node_16</title>
<path fill="lightblue" stroke="lightblue" d="M749.5,-803.5C749.5,-803.5 898.5,-803.5 898.5,-803.5 904.5,-803.5 910.5,-809.5 910.5,-815.5 910.5,-815.5 910.5,-827.5 910.5,-827.5 910.5,-833.5 904.5,-839.5 898.5,-839.5 898.5,-839.5 749.5,-839.5 749.5,-839.5 743.5,-839.5 737.5,-833.5 737.5,-827.5 737.5,-827.5 737.5,-815.5 737.5,-815.5 737.5,-809.5 743.5,-803.5 749.5,-803.5"/>
<text text-anchor="middle" x="824" y="-819.3" font-family="Arial" font-size="9.00">j_9 = 2.400000095367431640625e+0</text>
</g>
<!-- Node_17 -->
<g id="node18" class="node"><title>Node_17</title>
<path fill="moccasin" stroke="moccasin" d="M723,-730.5C723,-730.5 925,-730.5 925,-730.5 931,-730.5 937,-736.5 937,-742.5 937,-742.5 937,-754.5 937,-754.5 937,-760.5 931,-766.5 925,-766.5 925,-766.5 723,-766.5 723,-766.5 717,-766.5 711,-760.5 711,-754.5 711,-754.5 711,-742.5 711,-742.5 711,-736.5 717,-730.5 723,-730.5"/>
<text text-anchor="middle" x="824" y="-746.3" font-family="Arial" font-size="9.00">j_9: [2.4000000953674316, 2.4000000953674316]</text>
</g>
<!-- Node_16&#45;&gt;Node_17 -->
<g id="edge9" class="edge"><title>Node_16&#45;&gt;Node_17</title>
<path fill="none" stroke="steelblue" d="M824,-803.313C824,-795.289 824,-785.547 824,-776.569"/>
<polygon fill="steelblue" stroke="steelblue" points="827.5,-776.529 824,-766.529 820.5,-776.529 827.5,-776.529"/>
</g>
<!-- Node_17&#45;&gt;Node_18 -->
<g id="edge26" class="edge"><title>Node_17&#45;&gt;Node_18</title>
<path fill="none" stroke="tan" d="M738.969,-730.494C679.175,-718.535 599.959,-702.692 542.818,-691.264"/>
<polygon fill="tan" stroke="tan" points="543.265,-687.784 532.773,-689.255 541.892,-694.648 543.265,-687.784"/>
</g>
<!-- Node_17&#45;&gt;Node_20 -->
<g id="edge27" class="edge"><title>Node_17&#45;&gt;Node_20</title>
<path fill="none" stroke="tan" d="M772.502,-730.494C738.129,-719.143 693.158,-704.292 659.082,-693.039"/>
<polygon fill="tan" stroke="tan" points="659.923,-689.63 649.329,-689.818 657.728,-696.277 659.923,-689.63"/>
</g>
<!-- Node_19 -->
<g id="node20" class="node"><title>Node_19</title>
<path fill="moccasin" stroke="moccasin" d="M398.5,-511.5C398.5,-511.5 595.5,-511.5 595.5,-511.5 601.5,-511.5 607.5,-517.5 607.5,-523.5 607.5,-523.5 607.5,-535.5 607.5,-535.5 607.5,-541.5 601.5,-547.5 595.5,-547.5 595.5,-547.5 398.5,-547.5 398.5,-547.5 392.5,-547.5 386.5,-541.5 386.5,-535.5 386.5,-535.5 386.5,-523.5 386.5,-523.5 386.5,-517.5 392.5,-511.5 398.5,-511.5"/>
<text text-anchor="middle" x="497" y="-527.3" font-family="Arial" font-size="9.00">j_1: [2.4000000953674316, 5.199999809265137]</text>
</g>
<!-- Node_18&#45;&gt;Node_19 -->
<g id="edge10" class="edge"><title>Node_18&#45;&gt;Node_19</title>
<path fill="none" stroke="steelblue" d="M472.322,-657.416C477.121,-632.733 486.043,-586.851 491.742,-557.541"/>
<polygon fill="steelblue" stroke="steelblue" points="495.209,-558.046 493.682,-547.562 488.338,-556.71 495.209,-558.046"/>
</g>
<!-- Node_19&#45;&gt;Node_24 -->
<g id="edge18" class="edge"><title>Node_19&#45;&gt;Node_24</title>
<path fill="none" stroke="tan" d="M497,-511.416C497,-486.841 497,-441.253 497,-411.927"/>
<polygon fill="tan" stroke="tan" points="500.5,-411.562 497,-401.562 493.5,-411.562 500.5,-411.562"/>
</g>
<!-- Node_21 -->
<g id="node22" class="node"><title>Node_21</title>
<path fill="moccasin" stroke="moccasin" d="M509.5,-584.5C509.5,-584.5 708.5,-584.5 708.5,-584.5 714.5,-584.5 720.5,-590.5 720.5,-596.5 720.5,-596.5 720.5,-608.5 720.5,-608.5 720.5,-614.5 714.5,-620.5 708.5,-620.5 708.5,-620.5 509.5,-620.5 509.5,-620.5 503.5,-620.5 497.5,-614.5 497.5,-608.5 497.5,-608.5 497.5,-596.5 497.5,-596.5 497.5,-590.5 503.5,-584.5 509.5,-584.5"/>
<text text-anchor="middle" x="609" y="-600.3" font-family="Arial" font-size="9.00">k_10: [4.900000095367432, 4.900000095367432]</text>
</g>
<!-- Node_20&#45;&gt;Node_21 -->
<g id="edge11" class="edge"><title>Node_20&#45;&gt;Node_21</title>
<path fill="none" stroke="steelblue" d="M609,-657.313C609,-649.289 609,-639.547 609,-630.569"/>
<polygon fill="steelblue" stroke="steelblue" points="612.5,-630.529 609,-620.529 605.5,-630.529 612.5,-630.529"/>
</g>
<!-- Node_21&#45;&gt;Node_10 -->
<g id="edge16" class="edge"><title>Node_21&#45;&gt;Node_10</title>
<path fill="none" stroke="tan" d="M534.747,-584.494C487.574,-573.69 426.557,-559.715 378.419,-548.689"/>
<polygon fill="tan" stroke="tan" points="379.19,-545.276 368.661,-546.455 377.628,-552.099 379.19,-545.276"/>
</g>
<!-- Node_23 -->
<g id="node24" class="node"><title>Node_23</title>
<path fill="moccasin" stroke="moccasin" d="M182,-292.5C182,-292.5 392,-292.5 392,-292.5 398,-292.5 404,-298.5 404,-304.5 404,-304.5 404,-316.5 404,-316.5 404,-322.5 398,-328.5 392,-328.5 392,-328.5 182,-328.5 182,-328.5 176,-328.5 170,-322.5 170,-316.5 170,-316.5 170,-304.5 170,-304.5 170,-298.5 176,-292.5 182,-292.5"/>
<text text-anchor="middle" x="287" y="-308.3" font-family="Arial" font-size="9.00">ret_14: [5.942307470112855, 14.700000286102295]</text>
</g>
<!-- Node_22&#45;&gt;Node_23 -->
<g id="edge12" class="edge"><title>Node_22&#45;&gt;Node_23</title>
<path fill="none" stroke="steelblue" d="M290.032,-365.313C289.58,-357.289 289.031,-347.547 288.525,-338.569"/>
<polygon fill="steelblue" stroke="steelblue" points="292.016,-338.316 287.959,-328.529 285.027,-338.71 292.016,-338.316"/>
</g>
<!-- Node_23&#45;&gt;Node_6 -->
<g id="edge22" class="edge"><title>Node_23&#45;&gt;Node_6</title>
<path fill="none" stroke="tan" d="M312.629,-292.494C326.687,-283.166 344.307,-271.474 359.552,-261.358"/>
<polygon fill="tan" stroke="tan" points="361.812,-264.059 368.209,-255.614 357.941,-258.226 361.812,-264.059"/>
</g>
<!-- Node_25 -->
<g id="node26" class="node"><title>Node_25</title>
<path fill="moccasin" stroke="moccasin" d="M434,-292.5C434,-292.5 568,-292.5 568,-292.5 574,-292.5 580,-298.5 580,-304.5 580,-304.5 580,-316.5 580,-316.5 580,-322.5 574,-328.5 568,-328.5 568,-328.5 434,-328.5 434,-328.5 428,-328.5 422,-322.5 422,-316.5 422,-316.5 422,-304.5 422,-304.5 422,-298.5 428,-292.5 434,-292.5"/>
<text text-anchor="middle" x="501" y="-308.3" font-family="Arial" font-size="9.00">ret_13: [&#45;3.219230652560852, 2.5]</text>
</g>
<!-- Node_24&#45;&gt;Node_25 -->
<g id="edge13" class="edge"><title>Node_24&#45;&gt;Node_25</title>
<path fill="none" stroke="steelblue" d="M497.968,-365.313C498.42,-357.289 498.969,-347.547 499.475,-338.569"/>
<polygon fill="steelblue" stroke="steelblue" points="502.973,-338.71 500.041,-328.529 495.984,-338.316 502.973,-338.71"/>
</g>
<!-- Node_25&#45;&gt;Node_6 -->
<g id="edge21" class="edge"><title>Node_25&#45;&gt;Node_6</title>
<path fill="none" stroke="tan" d="M475.371,-292.494C461.313,-283.166 443.693,-271.474 428.448,-261.358"/>
<polygon fill="tan" stroke="tan" points="430.059,-258.226 419.791,-255.614 426.188,-264.059 430.059,-258.226"/>
</g>
<!-- Node_26 -->
<g id="node27" class="node"><title>Node_26</title>
<path fill="moccasin" stroke="moccasin" d="M1059,-803.5C1059,-803.5 1117,-803.5 1117,-803.5 1123,-803.5 1129,-809.5 1129,-815.5 1129,-815.5 1129,-827.5 1129,-827.5 1129,-833.5 1123,-839.5 1117,-839.5 1117,-839.5 1059,-839.5 1059,-839.5 1053,-839.5 1047,-833.5 1047,-827.5 1047,-827.5 1047,-815.5 1047,-815.5 1047,-809.5 1053,-803.5 1059,-803.5"/>
<text text-anchor="middle" x="1088" y="-819.3" font-family="Arial" font-size="9.00">a_4: [1.0, 100.0]</text>
</g>
<!-- Node_27 -->
<g id="node28" class="node"><title>Node_27</title>
<path fill="moccasin" stroke="moccasin" d="M1159,-803.5C1159,-803.5 1215,-803.5 1215,-803.5 1221,-803.5 1227,-809.5 1227,-815.5 1227,-815.5 1227,-827.5 1227,-827.5 1227,-833.5 1221,-839.5 1215,-839.5 1215,-839.5 1159,-839.5 1159,-839.5 1153,-839.5 1147,-833.5 1147,-827.5 1147,-827.5 1147,-815.5 1147,-815.5 1147,-809.5 1153,-803.5 1159,-803.5"/>
<text text-anchor="middle" x="1187" y="-819.3" font-family="Arial" font-size="9.00">b_12: [&#45;2.0, 2.0]</text>
</g>
</g>
</svg>
