<?xml version="1.0" encoding="UTF-8" standalone="no"?>
<!DOCTYPE svg PUBLIC "-//W3C//DTD SVG 1.1//EN"
 "http://www.w3.org/Graphics/SVG/1.1/DTD/svg11.dtd">
<!-- Generated by graphviz version 2.38.0 (20140413.2041)
 -->
<!-- Title: t8_foo_ConstraintGraph Pages: 1 -->
<svg width="848pt" height="869pt"
     viewBox="0.00 0.00 847.50 869.00" xmlns="http://www.w3.org/2000/svg">
<g id="graph0" class="graph" transform="scale(1 1) rotate(0) translate(4 865)">
<title>t8_foo_ConstraintGraph</title>
<polygon fill="white" stroke="none" points="-4,4 -4,-865 843.5,-865 843.5,4 -4,4"/>
<text text-anchor="middle" x="419.75" y="-847.4" font-family="Arial" font-size="12.00">t8_foo_ConstraintGraph</text>
<!-- Node_0 -->
<g id="node1" class="node"><title>Node_0</title>
<path fill="lightblue" stroke="lightblue" d="M180,-511.5C180,-511.5 295,-511.5 295,-511.5 301,-511.5 307,-517.5 307,-523.5 307,-523.5 307,-535.5 307,-535.5 307,-541.5 301,-547.5 295,-547.5 295,-547.5 180,-547.5 180,-547.5 174,-547.5 168,-541.5 168,-535.5 168,-535.5 168,-523.5 168,-523.5 168,-517.5 174,-511.5 180,-511.5"/>
<text text-anchor="middle" x="237.5" y="-527.3" font-family="Arial" font-size="9.00"># k_2 = PHI &lt;k_7(3), k_10(4)&gt;</text>
</g>
<!-- Node_1 -->
<g id="node2" class="node"><title>Node_1</title>
<path fill="moccasin" stroke="moccasin" d="M204,-438.5C204,-438.5 279,-438.5 279,-438.5 285,-438.5 291,-444.5 291,-450.5 291,-450.5 291,-462.5 291,-462.5 291,-468.5 285,-474.5 279,-474.5 279,-474.5 204,-474.5 204,-474.5 198,-474.5 192,-468.5 192,-462.5 192,-462.5 192,-450.5 192,-450.5 192,-444.5 198,-438.5 204,-438.5"/>
<text text-anchor="middle" x="241.5" y="-454.3" font-family="Arial" font-size="9.00">k_2: [&#45;Infinity, Infinity]</text>
</g>
<!-- Node_0&#45;&gt;Node_1 -->
<g id="edge1" class="edge"><title>Node_0&#45;&gt;Node_1</title>
<path fill="none" stroke="steelblue" d="M238.468,-511.313C238.92,-503.289 239.469,-493.547 239.975,-484.569"/>
<polygon fill="steelblue" stroke="steelblue" points="243.473,-484.71 240.541,-474.529 236.484,-484.316 243.473,-484.71"/>
</g>
<!-- Node_16 -->
<g id="node17" class="node"><title>Node_16</title>
<path fill="lightblue" stroke="lightblue" d="M201.5,-365.5C201.5,-365.5 281.5,-365.5 281.5,-365.5 287.5,-365.5 293.5,-371.5 293.5,-377.5 293.5,-377.5 293.5,-389.5 293.5,-389.5 293.5,-395.5 287.5,-401.5 281.5,-401.5 281.5,-401.5 201.5,-401.5 201.5,-401.5 195.5,-401.5 189.5,-395.5 189.5,-389.5 189.5,-389.5 189.5,-377.5 189.5,-377.5 189.5,-371.5 195.5,-365.5 201.5,-365.5"/>
<text text-anchor="middle" x="241.5" y="-381.3" font-family="Arial" font-size="9.00">ret_14 = k_2 * 3.0e+0</text>
</g>
<!-- Node_1&#45;&gt;Node_16 -->
<g id="edge15" class="edge"><title>Node_1&#45;&gt;Node_16</title>
<path fill="none" stroke="tan" d="M241.5,-438.313C241.5,-430.289 241.5,-420.547 241.5,-411.569"/>
<polygon fill="tan" stroke="tan" points="245,-411.529 241.5,-401.529 238,-411.529 245,-411.529"/>
</g>
<!-- Node_24 -->
<g id="node25" class="node"><title>Node_24</title>
<path fill="lightblue" stroke="lightblue" d="M337.5,-365.5C337.5,-365.5 401.5,-365.5 401.5,-365.5 407.5,-365.5 413.5,-371.5 413.5,-377.5 413.5,-377.5 413.5,-389.5 413.5,-389.5 413.5,-395.5 407.5,-401.5 401.5,-401.5 401.5,-401.5 337.5,-401.5 337.5,-401.5 331.5,-401.5 325.5,-395.5 325.5,-389.5 325.5,-389.5 325.5,-377.5 325.5,-377.5 325.5,-371.5 331.5,-365.5 337.5,-365.5"/>
<text text-anchor="middle" x="369.5" y="-381.3" font-family="Arial" font-size="9.00">ret_13 = k_2 &#45; j_1</text>
</g>
<!-- Node_1&#45;&gt;Node_24 -->
<g id="edge16" class="edge"><title>Node_1&#45;&gt;Node_24</title>
<path fill="none" stroke="tan" d="M272.159,-438.494C289.447,-428.904 311.239,-416.817 329.818,-406.511"/>
<polygon fill="tan" stroke="tan" points="331.6,-409.525 338.647,-401.614 328.205,-403.404 331.6,-409.525"/>
</g>
<!-- Node_2 -->
<g id="node3" class="node"><title>Node_2</title>
<path fill="lightblue" stroke="lightblue" d="M764,-803.5C764,-803.5 805,-803.5 805,-803.5 811,-803.5 817,-809.5 817,-815.5 817,-815.5 817,-827.5 817,-827.5 817,-833.5 811,-839.5 805,-839.5 805,-839.5 764,-839.5 764,-839.5 758,-839.5 752,-833.5 752,-827.5 752,-827.5 752,-815.5 752,-815.5 752,-809.5 758,-803.5 764,-803.5"/>
<text text-anchor="middle" x="784.5" y="-819.3" font-family="Arial" font-size="9.00">ret_11 = 0.0</text>
</g>
<!-- Node_3 -->
<g id="node4" class="node"><title>Node_3</title>
<path fill="moccasin" stroke="moccasin" d="M741.5,-730.5C741.5,-730.5 827.5,-730.5 827.5,-730.5 833.5,-730.5 839.5,-736.5 839.5,-742.5 839.5,-742.5 839.5,-754.5 839.5,-754.5 839.5,-760.5 833.5,-766.5 827.5,-766.5 827.5,-766.5 741.5,-766.5 741.5,-766.5 735.5,-766.5 729.5,-760.5 729.5,-754.5 729.5,-754.5 729.5,-742.5 729.5,-742.5 729.5,-736.5 735.5,-730.5 741.5,-730.5"/>
<text text-anchor="middle" x="784.5" y="-746.3" font-family="Arial" font-size="9.00">ret_11: [&#45;Infinity, Infinity]</text>
</g>
<!-- Node_2&#45;&gt;Node_3 -->
<g id="edge2" class="edge"><title>Node_2&#45;&gt;Node_3</title>
<path fill="none" stroke="steelblue" d="M784.5,-803.313C784.5,-795.289 784.5,-785.547 784.5,-776.569"/>
<polygon fill="steelblue" stroke="steelblue" points="788,-776.529 784.5,-766.529 781,-776.529 788,-776.529"/>
</g>
<!-- Node_4 -->
<g id="node5" class="node"><title>Node_4</title>
<path fill="lightblue" stroke="lightblue" d="M286,-73.5C286,-73.5 325,-73.5 325,-73.5 331,-73.5 337,-79.5 337,-85.5 337,-85.5 337,-97.5 337,-97.5 337,-103.5 331,-109.5 325,-109.5 325,-109.5 286,-109.5 286,-109.5 280,-109.5 274,-103.5 274,-97.5 274,-97.5 274,-85.5 274,-85.5 274,-79.5 280,-73.5 286,-73.5"/>
<text text-anchor="middle" x="305.5" y="-89.3" font-family="Arial" font-size="9.00">_15 = ret_3</text>
</g>
<!-- Node_5 -->
<g id="node6" class="node"><title>Node_5</title>
<path fill="moccasin" stroke="moccasin" d="M267.5,-0.5C267.5,-0.5 343.5,-0.5 343.5,-0.5 349.5,-0.5 355.5,-6.5 355.5,-12.5 355.5,-12.5 355.5,-24.5 355.5,-24.5 355.5,-30.5 349.5,-36.5 343.5,-36.5 343.5,-36.5 267.5,-36.5 267.5,-36.5 261.5,-36.5 255.5,-30.5 255.5,-24.5 255.5,-24.5 255.5,-12.5 255.5,-12.5 255.5,-6.5 261.5,-0.5 267.5,-0.5"/>
<text text-anchor="middle" x="305.5" y="-16.3" font-family="Arial" font-size="9.00">_15: [&#45;Infinity, Infinity]</text>
</g>
<!-- Node_4&#45;&gt;Node_5 -->
<g id="edge3" class="edge"><title>Node_4&#45;&gt;Node_5</title>
<path fill="none" stroke="steelblue" d="M305.5,-73.3129C305.5,-65.2895 305.5,-55.5475 305.5,-46.5691"/>
<polygon fill="steelblue" stroke="steelblue" points="309,-46.5288 305.5,-36.5288 302,-46.5289 309,-46.5288"/>
</g>
<!-- Node_6 -->
<g id="node7" class="node"><title>Node_6</title>
<path fill="lightblue" stroke="lightblue" d="M12,-803.5C12,-803.5 155,-803.5 155,-803.5 161,-803.5 167,-809.5 167,-815.5 167,-815.5 167,-827.5 167,-827.5 167,-833.5 161,-839.5 155,-839.5 155,-839.5 12,-839.5 12,-839.5 6,-839.5 0,-833.5 0,-827.5 0,-827.5 0,-815.5 0,-815.5 0,-809.5 6,-803.5 12,-803.5"/>
<text text-anchor="middle" x="83.5" y="-819.3" font-family="Arial" font-size="9.00">i_8 = 7.30000019073486328125e+0</text>
</g>
<!-- Node_7 -->
<g id="node8" class="node"><title>Node_7</title>
<path fill="moccasin" stroke="moccasin" d="M83,-730.5C83,-730.5 156,-730.5 156,-730.5 162,-730.5 168,-736.5 168,-742.5 168,-742.5 168,-754.5 168,-754.5 168,-760.5 162,-766.5 156,-766.5 156,-766.5 83,-766.5 83,-766.5 77,-766.5 71,-760.5 71,-754.5 71,-754.5 71,-742.5 71,-742.5 71,-736.5 77,-730.5 83,-730.5"/>
<text text-anchor="middle" x="119.5" y="-746.3" font-family="Arial" font-size="9.00">i_8: [&#45;Infinity, Infinity]</text>
</g>
<!-- Node_6&#45;&gt;Node_7 -->
<g id="edge4" class="edge"><title>Node_6&#45;&gt;Node_7</title>
<path fill="none" stroke="steelblue" d="M92.2146,-803.313C96.4154,-795.028 101.545,-784.91 106.219,-775.693"/>
<polygon fill="steelblue" stroke="steelblue" points="109.465,-777.031 110.866,-766.529 103.222,-773.865 109.465,-777.031"/>
</g>
<!-- Node_8 -->
<g id="node9" class="node"><title>Node_8</title>
<path fill="lightblue" stroke="lightblue" d="M209.5,-657.5C209.5,-657.5 265.5,-657.5 265.5,-657.5 271.5,-657.5 277.5,-663.5 277.5,-669.5 277.5,-669.5 277.5,-681.5 277.5,-681.5 277.5,-687.5 271.5,-693.5 265.5,-693.5 265.5,-693.5 209.5,-693.5 209.5,-693.5 203.5,-693.5 197.5,-687.5 197.5,-681.5 197.5,-681.5 197.5,-669.5 197.5,-669.5 197.5,-663.5 203.5,-657.5 209.5,-657.5"/>
<text text-anchor="middle" x="237.5" y="-673.3" font-family="Arial" font-size="9.00">k_10 = i_8 &#45; j_9</text>
</g>
<!-- Node_7&#45;&gt;Node_8 -->
<g id="edge21" class="edge"><title>Node_7&#45;&gt;Node_8</title>
<path fill="none" stroke="tan" d="M147.764,-730.494C163.557,-720.991 183.426,-709.036 200.451,-698.792"/>
<polygon fill="tan" stroke="tan" points="202.294,-701.768 209.058,-693.614 198.685,-695.77 202.294,-701.768"/>
</g>
<!-- Node_9 -->
<g id="node10" class="node"><title>Node_9</title>
<path fill="moccasin" stroke="moccasin" d="M197.5,-584.5C197.5,-584.5 277.5,-584.5 277.5,-584.5 283.5,-584.5 289.5,-590.5 289.5,-596.5 289.5,-596.5 289.5,-608.5 289.5,-608.5 289.5,-614.5 283.5,-620.5 277.5,-620.5 277.5,-620.5 197.5,-620.5 197.5,-620.5 191.5,-620.5 185.5,-614.5 185.5,-608.5 185.5,-608.5 185.5,-596.5 185.5,-596.5 185.5,-590.5 191.5,-584.5 197.5,-584.5"/>
<text text-anchor="middle" x="237.5" y="-600.3" font-family="Arial" font-size="9.00">k_10: [&#45;Infinity, Infinity]</text>
</g>
<!-- Node_8&#45;&gt;Node_9 -->
<g id="edge5" class="edge"><title>Node_8&#45;&gt;Node_9</title>
<path fill="none" stroke="steelblue" d="M237.5,-657.313C237.5,-649.289 237.5,-639.547 237.5,-630.569"/>
<polygon fill="steelblue" stroke="steelblue" points="241,-630.529 237.5,-620.529 234,-630.529 241,-630.529"/>
</g>
<!-- Node_9&#45;&gt;Node_0 -->
<g id="edge23" class="edge"><title>Node_9&#45;&gt;Node_0</title>
<path fill="none" stroke="tan" d="M237.5,-584.313C237.5,-576.289 237.5,-566.547 237.5,-557.569"/>
<polygon fill="tan" stroke="tan" points="241,-557.529 237.5,-547.529 234,-557.529 241,-557.529"/>
</g>
<!-- Node_10 -->
<g id="node11" class="node"><title>Node_10</title>
<path fill="lightblue" stroke="lightblue" d="M315,-657.5C315,-657.5 418,-657.5 418,-657.5 424,-657.5 430,-663.5 430,-669.5 430,-669.5 430,-681.5 430,-681.5 430,-687.5 424,-693.5 418,-693.5 418,-693.5 315,-693.5 315,-693.5 309,-693.5 303,-687.5 303,-681.5 303,-681.5 303,-669.5 303,-669.5 303,-663.5 309,-657.5 315,-657.5"/>
<text text-anchor="middle" x="366.5" y="-673.3" font-family="Arial" font-size="9.00"># j_1 = PHI &lt;j_6(3), j_9(4)&gt;</text>
</g>
<!-- Node_11 -->
<g id="node12" class="node"><title>Node_11</title>
<path fill="moccasin" stroke="moccasin" d="M337,-511.5C337,-511.5 410,-511.5 410,-511.5 416,-511.5 422,-517.5 422,-523.5 422,-523.5 422,-535.5 422,-535.5 422,-541.5 416,-547.5 410,-547.5 410,-547.5 337,-547.5 337,-547.5 331,-547.5 325,-541.5 325,-535.5 325,-535.5 325,-523.5 325,-523.5 325,-517.5 331,-511.5 337,-511.5"/>
<text text-anchor="middle" x="373.5" y="-527.3" font-family="Arial" font-size="9.00">j_1: [&#45;Infinity, Infinity]</text>
</g>
<!-- Node_10&#45;&gt;Node_11 -->
<g id="edge6" class="edge"><title>Node_10&#45;&gt;Node_11</title>
<path fill="none" stroke="steelblue" d="M367.33,-657.416C368.525,-632.841 370.741,-587.253 372.167,-557.927"/>
<polygon fill="steelblue" stroke="steelblue" points="375.681,-557.72 372.671,-547.562 368.689,-557.38 375.681,-557.72"/>
</g>
<!-- Node_11&#45;&gt;Node_24 -->
<g id="edge24" class="edge"><title>Node_11&#45;&gt;Node_24</title>
<path fill="none" stroke="tan" d="M373.025,-511.416C372.343,-486.841 371.076,-441.253 370.262,-411.927"/>
<polygon fill="tan" stroke="tan" points="373.75,-411.461 369.974,-401.562 366.753,-411.655 373.75,-411.461"/>
</g>
<!-- Node_12 -->
<g id="node13" class="node"><title>Node_12</title>
<path fill="lightblue" stroke="lightblue" d="M388,-803.5C388,-803.5 531,-803.5 531,-803.5 537,-803.5 543,-809.5 543,-815.5 543,-815.5 543,-827.5 543,-827.5 543,-833.5 537,-839.5 531,-839.5 531,-839.5 388,-839.5 388,-839.5 382,-839.5 376,-833.5 376,-827.5 376,-827.5 376,-815.5 376,-815.5 376,-809.5 382,-803.5 388,-803.5"/>
<text text-anchor="middle" x="459.5" y="-819.3" font-family="Arial" font-size="9.00">j_6 = 5.19999980926513671875e+0</text>
</g>
<!-- Node_13 -->
<g id="node14" class="node"><title>Node_13</title>
<path fill="moccasin" stroke="moccasin" d="M423,-730.5C423,-730.5 496,-730.5 496,-730.5 502,-730.5 508,-736.5 508,-742.5 508,-742.5 508,-754.5 508,-754.5 508,-760.5 502,-766.5 496,-766.5 496,-766.5 423,-766.5 423,-766.5 417,-766.5 411,-760.5 411,-754.5 411,-754.5 411,-742.5 411,-742.5 411,-736.5 417,-730.5 423,-730.5"/>
<text text-anchor="middle" x="459.5" y="-746.3" font-family="Arial" font-size="9.00">j_6: [&#45;Infinity, Infinity]</text>
</g>
<!-- Node_12&#45;&gt;Node_13 -->
<g id="edge7" class="edge"><title>Node_12&#45;&gt;Node_13</title>
<path fill="none" stroke="steelblue" d="M459.5,-803.313C459.5,-795.289 459.5,-785.547 459.5,-776.569"/>
<polygon fill="steelblue" stroke="steelblue" points="463,-776.529 459.5,-766.529 456,-776.529 463,-776.529"/>
</g>
<!-- Node_13&#45;&gt;Node_10 -->
<g id="edge17" class="edge"><title>Node_13&#45;&gt;Node_10</title>
<path fill="none" stroke="tan" d="M436.987,-730.313C424.993,-721.156 410.066,-709.76 397.04,-699.816"/>
<polygon fill="tan" stroke="tan" points="398.878,-696.815 388.805,-693.529 394.63,-702.379 398.878,-696.815"/>
</g>
<!-- Node_22 -->
<g id="node23" class="node"><title>Node_22</title>
<path fill="lightblue" stroke="lightblue" d="M460.5,-657.5C460.5,-657.5 510.5,-657.5 510.5,-657.5 516.5,-657.5 522.5,-663.5 522.5,-669.5 522.5,-669.5 522.5,-681.5 522.5,-681.5 522.5,-687.5 516.5,-693.5 510.5,-693.5 510.5,-693.5 460.5,-693.5 460.5,-693.5 454.5,-693.5 448.5,-687.5 448.5,-681.5 448.5,-681.5 448.5,-669.5 448.5,-669.5 448.5,-663.5 454.5,-657.5 460.5,-657.5"/>
<text text-anchor="middle" x="485.5" y="-673.3" font-family="Arial" font-size="9.00">k_7 = i_5 / j_6</text>
</g>
<!-- Node_13&#45;&gt;Node_22 -->
<g id="edge18" class="edge"><title>Node_13&#45;&gt;Node_22</title>
<path fill="none" stroke="tan" d="M465.794,-730.313C468.796,-722.115 472.455,-712.123 475.801,-702.985"/>
<polygon fill="tan" stroke="tan" points="479.112,-704.123 479.264,-693.529 472.539,-701.715 479.112,-704.123"/>
</g>
<!-- Node_14 -->
<g id="node15" class="node"><title>Node_14</title>
<path fill="lightblue" stroke="lightblue" d="M573,-803.5C573,-803.5 722,-803.5 722,-803.5 728,-803.5 734,-809.5 734,-815.5 734,-815.5 734,-827.5 734,-827.5 734,-833.5 728,-839.5 722,-839.5 722,-839.5 573,-839.5 573,-839.5 567,-839.5 561,-833.5 561,-827.5 561,-827.5 561,-815.5 561,-815.5 561,-809.5 567,-803.5 573,-803.5"/>
<text text-anchor="middle" x="647.5" y="-819.3" font-family="Arial" font-size="9.00">i_5 = 1.030000019073486328125e+1</text>
</g>
<!-- Node_15 -->
<g id="node16" class="node"><title>Node_15</title>
<path fill="moccasin" stroke="moccasin" d="M574,-730.5C574,-730.5 647,-730.5 647,-730.5 653,-730.5 659,-736.5 659,-742.5 659,-742.5 659,-754.5 659,-754.5 659,-760.5 653,-766.5 647,-766.5 647,-766.5 574,-766.5 574,-766.5 568,-766.5 562,-760.5 562,-754.5 562,-754.5 562,-742.5 562,-742.5 562,-736.5 568,-730.5 574,-730.5"/>
<text text-anchor="middle" x="610.5" y="-746.3" font-family="Arial" font-size="9.00">i_5: [&#45;Infinity, Infinity]</text>
</g>
<!-- Node_14&#45;&gt;Node_15 -->
<g id="edge8" class="edge"><title>Node_14&#45;&gt;Node_15</title>
<path fill="none" stroke="steelblue" d="M638.543,-803.313C634.18,-794.941 628.842,-784.697 623.999,-775.403"/>
<polygon fill="steelblue" stroke="steelblue" points="627.099,-773.779 619.374,-766.529 620.892,-777.014 627.099,-773.779"/>
</g>
<!-- Node_15&#45;&gt;Node_22 -->
<g id="edge14" class="edge"><title>Node_15&#45;&gt;Node_22</title>
<path fill="none" stroke="tan" d="M580.559,-730.494C563.83,-720.991 542.782,-709.036 524.747,-698.792"/>
<polygon fill="tan" stroke="tan" points="526.053,-695.509 515.63,-693.614 522.596,-701.596 526.053,-695.509"/>
</g>
<!-- Node_17 -->
<g id="node18" class="node"><title>Node_17</title>
<path fill="moccasin" stroke="moccasin" d="M198.5,-292.5C198.5,-292.5 284.5,-292.5 284.5,-292.5 290.5,-292.5 296.5,-298.5 296.5,-304.5 296.5,-304.5 296.5,-316.5 296.5,-316.5 296.5,-322.5 290.5,-328.5 284.5,-328.5 284.5,-328.5 198.5,-328.5 198.5,-328.5 192.5,-328.5 186.5,-322.5 186.5,-316.5 186.5,-316.5 186.5,-304.5 186.5,-304.5 186.5,-298.5 192.5,-292.5 198.5,-292.5"/>
<text text-anchor="middle" x="241.5" y="-308.3" font-family="Arial" font-size="9.00">ret_14: [&#45;Infinity, Infinity]</text>
</g>
<!-- Node_16&#45;&gt;Node_17 -->
<g id="edge9" class="edge"><title>Node_16&#45;&gt;Node_17</title>
<path fill="none" stroke="steelblue" d="M241.5,-365.313C241.5,-357.289 241.5,-347.547 241.5,-338.569"/>
<polygon fill="steelblue" stroke="steelblue" points="245,-338.529 241.5,-328.529 238,-338.529 245,-338.529"/>
</g>
<!-- Node_18 -->
<g id="node19" class="node"><title>Node_18</title>
<path fill="lightblue" stroke="lightblue" d="M236.5,-219.5C236.5,-219.5 374.5,-219.5 374.5,-219.5 380.5,-219.5 386.5,-225.5 386.5,-231.5 386.5,-231.5 386.5,-243.5 386.5,-243.5 386.5,-249.5 380.5,-255.5 374.5,-255.5 374.5,-255.5 236.5,-255.5 236.5,-255.5 230.5,-255.5 224.5,-249.5 224.5,-243.5 224.5,-243.5 224.5,-231.5 224.5,-231.5 224.5,-225.5 230.5,-219.5 236.5,-219.5"/>
<text text-anchor="middle" x="305.5" y="-235.3" font-family="Arial" font-size="9.00"># ret_3 = PHI &lt;ret_13(6), ret_14(7)&gt;</text>
</g>
<!-- Node_17&#45;&gt;Node_18 -->
<g id="edge19" class="edge"><title>Node_17&#45;&gt;Node_18</title>
<path fill="none" stroke="tan" d="M256.993,-292.313C264.932,-283.505 274.739,-272.625 283.453,-262.958"/>
<polygon fill="tan" stroke="tan" points="286.054,-265.3 290.15,-255.529 280.855,-260.613 286.054,-265.3"/>
</g>
<!-- Node_19 -->
<g id="node20" class="node"><title>Node_19</title>
<path fill="moccasin" stroke="moccasin" d="M265,-146.5C265,-146.5 346,-146.5 346,-146.5 352,-146.5 358,-152.5 358,-158.5 358,-158.5 358,-170.5 358,-170.5 358,-176.5 352,-182.5 346,-182.5 346,-182.5 265,-182.5 265,-182.5 259,-182.5 253,-176.5 253,-170.5 253,-170.5 253,-158.5 253,-158.5 253,-152.5 259,-146.5 265,-146.5"/>
<text text-anchor="middle" x="305.5" y="-162.3" font-family="Arial" font-size="9.00">ret_3: [&#45;Infinity, Infinity]</text>
</g>
<!-- Node_18&#45;&gt;Node_19 -->
<g id="edge10" class="edge"><title>Node_18&#45;&gt;Node_19</title>
<path fill="none" stroke="steelblue" d="M305.5,-219.313C305.5,-211.289 305.5,-201.547 305.5,-192.569"/>
<polygon fill="steelblue" stroke="steelblue" points="309,-192.529 305.5,-182.529 302,-192.529 309,-192.529"/>
</g>
<!-- Node_19&#45;&gt;Node_4 -->
<g id="edge20" class="edge"><title>Node_19&#45;&gt;Node_4</title>
<path fill="none" stroke="tan" d="M305.5,-146.313C305.5,-138.289 305.5,-128.547 305.5,-119.569"/>
<polygon fill="tan" stroke="tan" points="309,-119.529 305.5,-109.529 302,-119.529 309,-119.529"/>
</g>
<!-- Node_20 -->
<g id="node21" class="node"><title>Node_20</title>
<path fill="lightblue" stroke="lightblue" d="M197,-803.5C197,-803.5 346,-803.5 346,-803.5 352,-803.5 358,-809.5 358,-815.5 358,-815.5 358,-827.5 358,-827.5 358,-833.5 352,-839.5 346,-839.5 346,-839.5 197,-839.5 197,-839.5 191,-839.5 185,-833.5 185,-827.5 185,-827.5 185,-815.5 185,-815.5 185,-809.5 191,-803.5 197,-803.5"/>
<text text-anchor="middle" x="271.5" y="-819.3" font-family="Arial" font-size="9.00">j_9 = 2.400000095367431640625e+0</text>
</g>
<!-- Node_21 -->
<g id="node22" class="node"><title>Node_21</title>
<path fill="moccasin" stroke="moccasin" d="M235,-730.5C235,-730.5 308,-730.5 308,-730.5 314,-730.5 320,-736.5 320,-742.5 320,-742.5 320,-754.5 320,-754.5 320,-760.5 314,-766.5 308,-766.5 308,-766.5 235,-766.5 235,-766.5 229,-766.5 223,-760.5 223,-754.5 223,-754.5 223,-742.5 223,-742.5 223,-736.5 229,-730.5 235,-730.5"/>
<text text-anchor="middle" x="271.5" y="-746.3" font-family="Arial" font-size="9.00">j_9: [&#45;Infinity, Infinity]</text>
</g>
<!-- Node_20&#45;&gt;Node_21 -->
<g id="edge11" class="edge"><title>Node_20&#45;&gt;Node_21</title>
<path fill="none" stroke="steelblue" d="M271.5,-803.313C271.5,-795.289 271.5,-785.547 271.5,-776.569"/>
<polygon fill="steelblue" stroke="steelblue" points="275,-776.529 271.5,-766.529 268,-776.529 275,-776.529"/>
</g>
<!-- Node_21&#45;&gt;Node_8 -->
<g id="edge26" class="edge"><title>Node_21&#45;&gt;Node_8</title>
<path fill="none" stroke="tan" d="M263.27,-730.313C259.302,-722.028 254.457,-711.91 250.043,-702.693"/>
<polygon fill="tan" stroke="tan" points="253.13,-701.036 245.655,-693.529 246.817,-704.06 253.13,-701.036"/>
</g>
<!-- Node_21&#45;&gt;Node_10 -->
<g id="edge27" class="edge"><title>Node_21&#45;&gt;Node_10</title>
<path fill="none" stroke="tan" d="M294.497,-730.313C306.866,-721.069 322.288,-709.543 335.682,-699.532"/>
<polygon fill="tan" stroke="tan" points="337.8,-702.319 343.715,-693.529 333.61,-696.712 337.8,-702.319"/>
</g>
<!-- Node_23 -->
<g id="node24" class="node"><title>Node_23</title>
<path fill="moccasin" stroke="moccasin" d="M430,-584.5C430,-584.5 505,-584.5 505,-584.5 511,-584.5 517,-590.5 517,-596.5 517,-596.5 517,-608.5 517,-608.5 517,-614.5 511,-620.5 505,-620.5 505,-620.5 430,-620.5 430,-620.5 424,-620.5 418,-614.5 418,-608.5 418,-608.5 418,-596.5 418,-596.5 418,-590.5 424,-584.5 430,-584.5"/>
<text text-anchor="middle" x="467.5" y="-600.3" font-family="Arial" font-size="9.00">k_7: [&#45;Infinity, Infinity]</text>
</g>
<!-- Node_22&#45;&gt;Node_23 -->
<g id="edge12" class="edge"><title>Node_22&#45;&gt;Node_23</title>
<path fill="none" stroke="steelblue" d="M481.143,-657.313C479.086,-649.202 476.585,-639.336 474.288,-630.277"/>
<polygon fill="steelblue" stroke="steelblue" points="477.667,-629.362 471.817,-620.529 470.882,-631.082 477.667,-629.362"/>
</g>
<!-- Node_23&#45;&gt;Node_0 -->
<g id="edge25" class="edge"><title>Node_23&#45;&gt;Node_0</title>
<path fill="none" stroke="tan" d="M417.877,-586.181C384.055,-575.741 338.936,-561.813 302.285,-550.499"/>
<polygon fill="tan" stroke="tan" points="303.263,-547.138 292.676,-547.533 301.199,-553.827 303.263,-547.138"/>
</g>
<!-- Node_25 -->
<g id="node26" class="node"><title>Node_25</title>
<path fill="moccasin" stroke="moccasin" d="M326.5,-292.5C326.5,-292.5 412.5,-292.5 412.5,-292.5 418.5,-292.5 424.5,-298.5 424.5,-304.5 424.5,-304.5 424.5,-316.5 424.5,-316.5 424.5,-322.5 418.5,-328.5 412.5,-328.5 412.5,-328.5 326.5,-328.5 326.5,-328.5 320.5,-328.5 314.5,-322.5 314.5,-316.5 314.5,-316.5 314.5,-304.5 314.5,-304.5 314.5,-298.5 320.5,-292.5 326.5,-292.5"/>
<text text-anchor="middle" x="369.5" y="-308.3" font-family="Arial" font-size="9.00">ret_13: [&#45;Infinity, Infinity]</text>
</g>
<!-- Node_24&#45;&gt;Node_25 -->
<g id="edge13" class="edge"><title>Node_24&#45;&gt;Node_25</title>
<path fill="none" stroke="steelblue" d="M369.5,-365.313C369.5,-357.289 369.5,-347.547 369.5,-338.569"/>
<polygon fill="steelblue" stroke="steelblue" points="373,-338.529 369.5,-328.529 366,-338.529 373,-338.529"/>
</g>
<!-- Node_25&#45;&gt;Node_18 -->
<g id="edge22" class="edge"><title>Node_25&#45;&gt;Node_18</title>
<path fill="none" stroke="tan" d="M354.007,-292.313C346.068,-283.505 336.261,-272.625 327.547,-262.958"/>
<polygon fill="tan" stroke="tan" points="330.145,-260.613 320.85,-255.529 324.946,-265.3 330.145,-260.613"/>
</g>
</g>
</svg>
