<?xml version="1.0" encoding="UTF-8" standalone="no"?>
<!DOCTYPE svg PUBLIC "-//W3C//DTD SVG 1.1//EN"
 "http://www.w3.org/Graphics/SVG/1.1/DTD/svg11.dtd">
<!-- Generated by graphviz version 2.38.0 (20140413.2041)
 -->
<!-- Title: t8_foo_ConstraintGraph Pages: 1 -->
<svg width="832pt" height="869pt"
     viewBox="0.00 0.00 832.00 869.00" xmlns="http://www.w3.org/2000/svg">
<g id="graph0" class="graph" transform="scale(1 1) rotate(0) translate(4 865)">
<title>t8_foo_ConstraintGraph</title>
<polygon fill="white" stroke="none" points="-4,4 -4,-865 828,-865 828,4 -4,4"/>
<text text-anchor="middle" x="412" y="-847.4" font-family="Arial" font-size="12.00">t8_foo_ConstraintGraph</text>
<!-- Node_0 -->
<g id="node1" class="node"><title>Node_0</title>
<path fill="lightblue" stroke="lightblue" d="M314,-657.5C314,-657.5 417,-657.5 417,-657.5 423,-657.5 429,-663.5 429,-669.5 429,-669.5 429,-681.5 429,-681.5 429,-687.5 423,-693.5 417,-693.5 417,-693.5 314,-693.5 314,-693.5 308,-693.5 302,-687.5 302,-681.5 302,-681.5 302,-669.5 302,-669.5 302,-663.5 308,-657.5 314,-657.5"/>
<text text-anchor="middle" x="365.5" y="-673.3" font-family="Arial" font-size="9.00"># j_1 = PHI &lt;j_6(3), j_9(4)&gt;</text>
</g>
<!-- Node_1 -->
<g id="node2" class="node"><title>Node_1</title>
<path fill="moccasin" stroke="moccasin" d="M345,-511.5C345,-511.5 386,-511.5 386,-511.5 392,-511.5 398,-517.5 398,-523.5 398,-523.5 398,-535.5 398,-535.5 398,-541.5 392,-547.5 386,-547.5 386,-547.5 345,-547.5 345,-547.5 339,-547.5 333,-541.5 333,-535.5 333,-535.5 333,-523.5 333,-523.5 333,-517.5 339,-511.5 345,-511.5"/>
<text text-anchor="middle" x="365.5" y="-527.3" font-family="Arial" font-size="9.00">j_1: [&#45;inf, inf]</text>
</g>
<!-- Node_0&#45;&gt;Node_1 -->
<g id="edge1" class="edge"><title>Node_0&#45;&gt;Node_1</title>
<path fill="none" stroke="steelblue" d="M365.5,-657.416C365.5,-632.841 365.5,-587.253 365.5,-557.927"/>
<polygon fill="steelblue" stroke="steelblue" points="369,-557.562 365.5,-547.562 362,-557.562 369,-557.562"/>
</g>
<!-- Node_20 -->
<g id="node21" class="node"><title>Node_20</title>
<path fill="lightblue" stroke="lightblue" d="M337.5,-365.5C337.5,-365.5 401.5,-365.5 401.5,-365.5 407.5,-365.5 413.5,-371.5 413.5,-377.5 413.5,-377.5 413.5,-389.5 413.5,-389.5 413.5,-395.5 407.5,-401.5 401.5,-401.5 401.5,-401.5 337.5,-401.5 337.5,-401.5 331.5,-401.5 325.5,-395.5 325.5,-389.5 325.5,-389.5 325.5,-377.5 325.5,-377.5 325.5,-371.5 331.5,-365.5 337.5,-365.5"/>
<text text-anchor="middle" x="369.5" y="-381.3" font-family="Arial" font-size="9.00">ret_13 = k_2 &#45; j_1</text>
</g>
<!-- Node_1&#45;&gt;Node_20 -->
<g id="edge24" class="edge"><title>Node_1&#45;&gt;Node_20</title>
<path fill="none" stroke="tan" d="M365.975,-511.416C366.657,-486.841 367.924,-441.253 368.738,-411.927"/>
<polygon fill="tan" stroke="tan" points="372.247,-411.655 369.026,-401.562 365.25,-411.461 372.247,-411.655"/>
</g>
<!-- Node_2 -->
<g id="node3" class="node"><title>Node_2</title>
<path fill="lightblue" stroke="lightblue" d="M764,-803.5C764,-803.5 805,-803.5 805,-803.5 811,-803.5 817,-809.5 817,-815.5 817,-815.5 817,-827.5 817,-827.5 817,-833.5 811,-839.5 805,-839.5 805,-839.5 764,-839.5 764,-839.5 758,-839.5 752,-833.5 752,-827.5 752,-827.5 752,-815.5 752,-815.5 752,-809.5 758,-803.5 764,-803.5"/>
<text text-anchor="middle" x="784.5" y="-819.3" font-family="Arial" font-size="9.00">ret_11 = 0.0</text>
</g>
<!-- Node_3 -->
<g id="node4" class="node"><title>Node_3</title>
<path fill="moccasin" stroke="moccasin" d="M757,-730.5C757,-730.5 812,-730.5 812,-730.5 818,-730.5 824,-736.5 824,-742.5 824,-742.5 824,-754.5 824,-754.5 824,-760.5 818,-766.5 812,-766.5 812,-766.5 757,-766.5 757,-766.5 751,-766.5 745,-760.5 745,-754.5 745,-754.5 745,-742.5 745,-742.5 745,-736.5 751,-730.5 757,-730.5"/>
<text text-anchor="middle" x="784.5" y="-746.3" font-family="Arial" font-size="9.00">ret_11: [&#45;inf, inf]</text>
</g>
<!-- Node_2&#45;&gt;Node_3 -->
<g id="edge2" class="edge"><title>Node_2&#45;&gt;Node_3</title>
<path fill="none" stroke="steelblue" d="M784.5,-803.313C784.5,-795.289 784.5,-785.547 784.5,-776.569"/>
<polygon fill="steelblue" stroke="steelblue" points="788,-776.529 784.5,-766.529 781,-776.529 788,-776.529"/>
</g>
<!-- Node_4 -->
<g id="node5" class="node"><title>Node_4</title>
<path fill="lightblue" stroke="lightblue" d="M358.5,-219.5C358.5,-219.5 496.5,-219.5 496.5,-219.5 502.5,-219.5 508.5,-225.5 508.5,-231.5 508.5,-231.5 508.5,-243.5 508.5,-243.5 508.5,-249.5 502.5,-255.5 496.5,-255.5 496.5,-255.5 358.5,-255.5 358.5,-255.5 352.5,-255.5 346.5,-249.5 346.5,-243.5 346.5,-243.5 346.5,-231.5 346.5,-231.5 346.5,-225.5 352.5,-219.5 358.5,-219.5"/>
<text text-anchor="middle" x="427.5" y="-235.3" font-family="Arial" font-size="9.00"># ret_3 = PHI &lt;ret_13(6), ret_14(7)&gt;</text>
</g>
<!-- Node_5 -->
<g id="node6" class="node"><title>Node_5</title>
<path fill="moccasin" stroke="moccasin" d="M402.5,-146.5C402.5,-146.5 452.5,-146.5 452.5,-146.5 458.5,-146.5 464.5,-152.5 464.5,-158.5 464.5,-158.5 464.5,-170.5 464.5,-170.5 464.5,-176.5 458.5,-182.5 452.5,-182.5 452.5,-182.5 402.5,-182.5 402.5,-182.5 396.5,-182.5 390.5,-176.5 390.5,-170.5 390.5,-170.5 390.5,-158.5 390.5,-158.5 390.5,-152.5 396.5,-146.5 402.5,-146.5"/>
<text text-anchor="middle" x="427.5" y="-162.3" font-family="Arial" font-size="9.00">ret_3: [&#45;inf, inf]</text>
</g>
<!-- Node_4&#45;&gt;Node_5 -->
<g id="edge3" class="edge"><title>Node_4&#45;&gt;Node_5</title>
<path fill="none" stroke="steelblue" d="M427.5,-219.313C427.5,-211.289 427.5,-201.547 427.5,-192.569"/>
<polygon fill="steelblue" stroke="steelblue" points="431,-192.529 427.5,-182.529 424,-192.529 431,-192.529"/>
</g>
<!-- Node_6 -->
<g id="node7" class="node"><title>Node_6</title>
<path fill="lightblue" stroke="lightblue" d="M408,-73.5C408,-73.5 447,-73.5 447,-73.5 453,-73.5 459,-79.5 459,-85.5 459,-85.5 459,-97.5 459,-97.5 459,-103.5 453,-109.5 447,-109.5 447,-109.5 408,-109.5 408,-109.5 402,-109.5 396,-103.5 396,-97.5 396,-97.5 396,-85.5 396,-85.5 396,-79.5 402,-73.5 408,-73.5"/>
<text text-anchor="middle" x="427.5" y="-89.3" font-family="Arial" font-size="9.00">_15 = ret_3</text>
</g>
<!-- Node_5&#45;&gt;Node_6 -->
<g id="edge18" class="edge"><title>Node_5&#45;&gt;Node_6</title>
<path fill="none" stroke="tan" d="M427.5,-146.313C427.5,-138.289 427.5,-128.547 427.5,-119.569"/>
<polygon fill="tan" stroke="tan" points="431,-119.529 427.5,-109.529 424,-119.529 431,-119.529"/>
</g>
<!-- Node_7 -->
<g id="node8" class="node"><title>Node_7</title>
<path fill="moccasin" stroke="moccasin" d="M405.5,-0.5C405.5,-0.5 449.5,-0.5 449.5,-0.5 455.5,-0.5 461.5,-6.5 461.5,-12.5 461.5,-12.5 461.5,-24.5 461.5,-24.5 461.5,-30.5 455.5,-36.5 449.5,-36.5 449.5,-36.5 405.5,-36.5 405.5,-36.5 399.5,-36.5 393.5,-30.5 393.5,-24.5 393.5,-24.5 393.5,-12.5 393.5,-12.5 393.5,-6.5 399.5,-0.5 405.5,-0.5"/>
<text text-anchor="middle" x="427.5" y="-16.3" font-family="Arial" font-size="9.00">_15: [&#45;inf, inf]</text>
</g>
<!-- Node_6&#45;&gt;Node_7 -->
<g id="edge4" class="edge"><title>Node_6&#45;&gt;Node_7</title>
<path fill="none" stroke="steelblue" d="M427.5,-73.3129C427.5,-65.2895 427.5,-55.5475 427.5,-46.5691"/>
<polygon fill="steelblue" stroke="steelblue" points="431,-46.5288 427.5,-36.5288 424,-46.5289 431,-46.5288"/>
</g>
<!-- Node_8 -->
<g id="node9" class="node"><title>Node_8</title>
<path fill="lightblue" stroke="lightblue" d="M221.5,-657.5C221.5,-657.5 271.5,-657.5 271.5,-657.5 277.5,-657.5 283.5,-663.5 283.5,-669.5 283.5,-669.5 283.5,-681.5 283.5,-681.5 283.5,-687.5 277.5,-693.5 271.5,-693.5 271.5,-693.5 221.5,-693.5 221.5,-693.5 215.5,-693.5 209.5,-687.5 209.5,-681.5 209.5,-681.5 209.5,-669.5 209.5,-669.5 209.5,-663.5 215.5,-657.5 221.5,-657.5"/>
<text text-anchor="middle" x="246.5" y="-673.3" font-family="Arial" font-size="9.00">k_7 = i_5 / j_6</text>
</g>
<!-- Node_9 -->
<g id="node10" class="node"><title>Node_9</title>
<path fill="moccasin" stroke="moccasin" d="M253.5,-584.5C253.5,-584.5 297.5,-584.5 297.5,-584.5 303.5,-584.5 309.5,-590.5 309.5,-596.5 309.5,-596.5 309.5,-608.5 309.5,-608.5 309.5,-614.5 303.5,-620.5 297.5,-620.5 297.5,-620.5 253.5,-620.5 253.5,-620.5 247.5,-620.5 241.5,-614.5 241.5,-608.5 241.5,-608.5 241.5,-596.5 241.5,-596.5 241.5,-590.5 247.5,-584.5 253.5,-584.5"/>
<text text-anchor="middle" x="275.5" y="-600.3" font-family="Arial" font-size="9.00">k_7: [&#45;inf, inf]</text>
</g>
<!-- Node_8&#45;&gt;Node_9 -->
<g id="edge5" class="edge"><title>Node_8&#45;&gt;Node_9</title>
<path fill="none" stroke="steelblue" d="M253.52,-657.313C256.868,-649.115 260.95,-639.123 264.682,-629.985"/>
<polygon fill="steelblue" stroke="steelblue" points="268.003,-631.11 268.545,-620.529 261.523,-628.463 268.003,-631.11"/>
</g>
<!-- Node_18 -->
<g id="node19" class="node"><title>Node_18</title>
<path fill="lightblue" stroke="lightblue" d="M428,-511.5C428,-511.5 543,-511.5 543,-511.5 549,-511.5 555,-517.5 555,-523.5 555,-523.5 555,-535.5 555,-535.5 555,-541.5 549,-547.5 543,-547.5 543,-547.5 428,-547.5 428,-547.5 422,-547.5 416,-541.5 416,-535.5 416,-535.5 416,-523.5 416,-523.5 416,-517.5 422,-511.5 428,-511.5"/>
<text text-anchor="middle" x="485.5" y="-527.3" font-family="Arial" font-size="9.00"># k_2 = PHI &lt;k_7(3), k_10(4)&gt;</text>
</g>
<!-- Node_9&#45;&gt;Node_18 -->
<g id="edge14" class="edge"><title>Node_9&#45;&gt;Node_18</title>
<path fill="none" stroke="tan" d="M309.708,-589.935C340.967,-579.366 387.896,-563.499 425.405,-550.818"/>
<polygon fill="tan" stroke="tan" points="426.865,-554.019 435.217,-547.5 424.623,-547.388 426.865,-554.019"/>
</g>
<!-- Node_10 -->
<g id="node11" class="node"><title>Node_10</title>
<path fill="lightblue" stroke="lightblue" d="M388,-803.5C388,-803.5 537,-803.5 537,-803.5 543,-803.5 549,-809.5 549,-815.5 549,-815.5 549,-827.5 549,-827.5 549,-833.5 543,-839.5 537,-839.5 537,-839.5 388,-839.5 388,-839.5 382,-839.5 376,-833.5 376,-827.5 376,-827.5 376,-815.5 376,-815.5 376,-809.5 382,-803.5 388,-803.5"/>
<text text-anchor="middle" x="462.5" y="-819.3" font-family="Arial" font-size="9.00">j_9 = 2.400000095367431640625e+0</text>
</g>
<!-- Node_11 -->
<g id="node12" class="node"><title>Node_11</title>
<path fill="moccasin" stroke="moccasin" d="M442,-730.5C442,-730.5 483,-730.5 483,-730.5 489,-730.5 495,-736.5 495,-742.5 495,-742.5 495,-754.5 495,-754.5 495,-760.5 489,-766.5 483,-766.5 483,-766.5 442,-766.5 442,-766.5 436,-766.5 430,-760.5 430,-754.5 430,-754.5 430,-742.5 430,-742.5 430,-736.5 436,-730.5 442,-730.5"/>
<text text-anchor="middle" x="462.5" y="-746.3" font-family="Arial" font-size="9.00">j_9: [&#45;inf, inf]</text>
</g>
<!-- Node_10&#45;&gt;Node_11 -->
<g id="edge6" class="edge"><title>Node_10&#45;&gt;Node_11</title>
<path fill="none" stroke="steelblue" d="M462.5,-803.313C462.5,-795.289 462.5,-785.547 462.5,-776.569"/>
<polygon fill="steelblue" stroke="steelblue" points="466,-776.529 462.5,-766.529 459,-776.529 466,-776.529"/>
</g>
<!-- Node_11&#45;&gt;Node_0 -->
<g id="edge15" class="edge"><title>Node_11&#45;&gt;Node_0</title>
<path fill="none" stroke="tan" d="M439.019,-730.313C426.389,-721.069 410.643,-709.543 396.966,-699.532"/>
<polygon fill="tan" stroke="tan" points="398.901,-696.611 388.765,-693.529 394.767,-702.26 398.901,-696.611"/>
</g>
<!-- Node_14 -->
<g id="node15" class="node"><title>Node_14</title>
<path fill="lightblue" stroke="lightblue" d="M459.5,-657.5C459.5,-657.5 515.5,-657.5 515.5,-657.5 521.5,-657.5 527.5,-663.5 527.5,-669.5 527.5,-669.5 527.5,-681.5 527.5,-681.5 527.5,-687.5 521.5,-693.5 515.5,-693.5 515.5,-693.5 459.5,-693.5 459.5,-693.5 453.5,-693.5 447.5,-687.5 447.5,-681.5 447.5,-681.5 447.5,-669.5 447.5,-669.5 447.5,-663.5 453.5,-657.5 459.5,-657.5"/>
<text text-anchor="middle" x="487.5" y="-673.3" font-family="Arial" font-size="9.00">k_10 = i_8 &#45; j_9</text>
</g>
<!-- Node_11&#45;&gt;Node_14 -->
<g id="edge16" class="edge"><title>Node_11&#45;&gt;Node_14</title>
<path fill="none" stroke="tan" d="M468.552,-730.313C471.438,-722.115 474.957,-712.123 478.174,-702.985"/>
<polygon fill="tan" stroke="tan" points="481.484,-704.124 481.504,-693.529 474.881,-701.799 481.484,-704.124"/>
</g>
<!-- Node_12 -->
<g id="node13" class="node"><title>Node_12</title>
<path fill="lightblue" stroke="lightblue" d="M579,-803.5C579,-803.5 722,-803.5 722,-803.5 728,-803.5 734,-809.5 734,-815.5 734,-815.5 734,-827.5 734,-827.5 734,-833.5 728,-839.5 722,-839.5 722,-839.5 579,-839.5 579,-839.5 573,-839.5 567,-833.5 567,-827.5 567,-827.5 567,-815.5 567,-815.5 567,-809.5 573,-803.5 579,-803.5"/>
<text text-anchor="middle" x="650.5" y="-819.3" font-family="Arial" font-size="9.00">i_8 = 7.30000019073486328125e+0</text>
</g>
<!-- Node_13 -->
<g id="node14" class="node"><title>Node_13</title>
<path fill="moccasin" stroke="moccasin" d="M577,-730.5C577,-730.5 618,-730.5 618,-730.5 624,-730.5 630,-736.5 630,-742.5 630,-742.5 630,-754.5 630,-754.5 630,-760.5 624,-766.5 618,-766.5 618,-766.5 577,-766.5 577,-766.5 571,-766.5 565,-760.5 565,-754.5 565,-754.5 565,-742.5 565,-742.5 565,-736.5 571,-730.5 577,-730.5"/>
<text text-anchor="middle" x="597.5" y="-746.3" font-family="Arial" font-size="9.00">i_8: [&#45;inf, inf]</text>
</g>
<!-- Node_12&#45;&gt;Node_13 -->
<g id="edge7" class="edge"><title>Node_12&#45;&gt;Node_13</title>
<path fill="none" stroke="steelblue" d="M637.67,-803.313C631.29,-794.766 623.455,-784.269 616.403,-774.823"/>
<polygon fill="steelblue" stroke="steelblue" points="618.998,-772.449 610.212,-766.529 613.389,-776.636 618.998,-772.449"/>
</g>
<!-- Node_13&#45;&gt;Node_14 -->
<g id="edge21" class="edge"><title>Node_13&#45;&gt;Node_14</title>
<path fill="none" stroke="tan" d="M571.152,-730.494C556.565,-721.079 538.248,-709.255 522.475,-699.075"/>
<polygon fill="tan" stroke="tan" points="524.314,-696.096 514.014,-693.614 520.518,-701.977 524.314,-696.096"/>
</g>
<!-- Node_15 -->
<g id="node16" class="node"><title>Node_15</title>
<path fill="moccasin" stroke="moccasin" d="M462,-584.5C462,-584.5 511,-584.5 511,-584.5 517,-584.5 523,-590.5 523,-596.5 523,-596.5 523,-608.5 523,-608.5 523,-614.5 517,-620.5 511,-620.5 511,-620.5 462,-620.5 462,-620.5 456,-620.5 450,-614.5 450,-608.5 450,-608.5 450,-596.5 450,-596.5 450,-590.5 456,-584.5 462,-584.5"/>
<text text-anchor="middle" x="486.5" y="-600.3" font-family="Arial" font-size="9.00">k_10: [&#45;inf, inf]</text>
</g>
<!-- Node_14&#45;&gt;Node_15 -->
<g id="edge8" class="edge"><title>Node_14&#45;&gt;Node_15</title>
<path fill="none" stroke="steelblue" d="M487.258,-657.313C487.145,-649.289 487.008,-639.547 486.881,-630.569"/>
<polygon fill="steelblue" stroke="steelblue" points="490.38,-630.479 486.74,-620.529 483.381,-630.577 490.38,-630.479"/>
</g>
<!-- Node_15&#45;&gt;Node_18 -->
<g id="edge25" class="edge"><title>Node_15&#45;&gt;Node_18</title>
<path fill="none" stroke="tan" d="M486.258,-584.313C486.145,-576.289 486.008,-566.547 485.881,-557.569"/>
<polygon fill="tan" stroke="tan" points="489.38,-557.479 485.74,-547.529 482.381,-557.577 489.38,-557.479"/>
</g>
<!-- Node_16 -->
<g id="node17" class="node"><title>Node_16</title>
<path fill="lightblue" stroke="lightblue" d="M12,-803.5C12,-803.5 155,-803.5 155,-803.5 161,-803.5 167,-809.5 167,-815.5 167,-815.5 167,-827.5 167,-827.5 167,-833.5 161,-839.5 155,-839.5 155,-839.5 12,-839.5 12,-839.5 6,-839.5 0,-833.5 0,-827.5 0,-827.5 0,-815.5 0,-815.5 0,-809.5 6,-803.5 12,-803.5"/>
<text text-anchor="middle" x="83.5" y="-819.3" font-family="Arial" font-size="9.00">j_6 = 5.19999980926513671875e+0</text>
</g>
<!-- Node_17 -->
<g id="node18" class="node"><title>Node_17</title>
<path fill="moccasin" stroke="moccasin" d="M168,-730.5C168,-730.5 209,-730.5 209,-730.5 215,-730.5 221,-736.5 221,-742.5 221,-742.5 221,-754.5 221,-754.5 221,-760.5 215,-766.5 209,-766.5 209,-766.5 168,-766.5 168,-766.5 162,-766.5 156,-760.5 156,-754.5 156,-754.5 156,-742.5 156,-742.5 156,-736.5 162,-730.5 168,-730.5"/>
<text text-anchor="middle" x="188.5" y="-746.3" font-family="Arial" font-size="9.00">j_6: [&#45;inf, inf]</text>
</g>
<!-- Node_16&#45;&gt;Node_17 -->
<g id="edge9" class="edge"><title>Node_16&#45;&gt;Node_17</title>
<path fill="none" stroke="steelblue" d="M108.65,-803.494C122.445,-794.166 139.735,-782.474 154.696,-772.358"/>
<polygon fill="steelblue" stroke="steelblue" points="156.868,-775.114 163.191,-766.614 152.947,-769.316 156.868,-775.114"/>
</g>
<!-- Node_17&#45;&gt;Node_0 -->
<g id="edge22" class="edge"><title>Node_17&#45;&gt;Node_0</title>
<path fill="none" stroke="tan" d="M221.138,-733.469C223.962,-732.286 226.779,-731.116 229.5,-730 256.561,-718.905 286.827,-706.954 311.924,-697.168"/>
<polygon fill="tan" stroke="tan" points="313.223,-700.418 321.273,-693.529 310.684,-693.895 313.223,-700.418"/>
</g>
<!-- Node_17&#45;&gt;Node_8 -->
<g id="edge23" class="edge"><title>Node_17&#45;&gt;Node_8</title>
<path fill="none" stroke="tan" d="M202.54,-730.313C209.593,-721.679 218.272,-711.055 226.05,-701.534"/>
<polygon fill="tan" stroke="tan" points="228.973,-703.488 232.589,-693.529 223.552,-699.059 228.973,-703.488"/>
</g>
<!-- Node_19 -->
<g id="node20" class="node"><title>Node_19</title>
<path fill="moccasin" stroke="moccasin" d="M461.5,-438.5C461.5,-438.5 505.5,-438.5 505.5,-438.5 511.5,-438.5 517.5,-444.5 517.5,-450.5 517.5,-450.5 517.5,-462.5 517.5,-462.5 517.5,-468.5 511.5,-474.5 505.5,-474.5 505.5,-474.5 461.5,-474.5 461.5,-474.5 455.5,-474.5 449.5,-468.5 449.5,-462.5 449.5,-462.5 449.5,-450.5 449.5,-450.5 449.5,-444.5 455.5,-438.5 461.5,-438.5"/>
<text text-anchor="middle" x="483.5" y="-454.3" font-family="Arial" font-size="9.00">k_2: [&#45;inf, inf]</text>
</g>
<!-- Node_18&#45;&gt;Node_19 -->
<g id="edge10" class="edge"><title>Node_18&#45;&gt;Node_19</title>
<path fill="none" stroke="steelblue" d="M485.016,-511.313C484.79,-503.289 484.515,-493.547 484.263,-484.569"/>
<polygon fill="steelblue" stroke="steelblue" points="487.76,-484.426 483.98,-474.529 480.763,-484.623 487.76,-484.426"/>
</g>
<!-- Node_19&#45;&gt;Node_20 -->
<g id="edge19" class="edge"><title>Node_19&#45;&gt;Node_20</title>
<path fill="none" stroke="tan" d="M456.194,-438.494C441.077,-429.079 422.093,-417.255 405.747,-407.075"/>
<polygon fill="tan" stroke="tan" points="407.317,-403.929 396.978,-401.614 403.616,-409.871 407.317,-403.929"/>
</g>
<!-- Node_22 -->
<g id="node23" class="node"><title>Node_22</title>
<path fill="lightblue" stroke="lightblue" d="M443.5,-365.5C443.5,-365.5 523.5,-365.5 523.5,-365.5 529.5,-365.5 535.5,-371.5 535.5,-377.5 535.5,-377.5 535.5,-389.5 535.5,-389.5 535.5,-395.5 529.5,-401.5 523.5,-401.5 523.5,-401.5 443.5,-401.5 443.5,-401.5 437.5,-401.5 431.5,-395.5 431.5,-389.5 431.5,-389.5 431.5,-377.5 431.5,-377.5 431.5,-371.5 437.5,-365.5 443.5,-365.5"/>
<text text-anchor="middle" x="483.5" y="-381.3" font-family="Arial" font-size="9.00">ret_14 = k_2 * 3.0e+0</text>
</g>
<!-- Node_19&#45;&gt;Node_22 -->
<g id="edge20" class="edge"><title>Node_19&#45;&gt;Node_22</title>
<path fill="none" stroke="tan" d="M483.5,-438.313C483.5,-430.289 483.5,-420.547 483.5,-411.569"/>
<polygon fill="tan" stroke="tan" points="487,-411.529 483.5,-401.529 480,-411.529 487,-411.529"/>
</g>
<!-- Node_21 -->
<g id="node22" class="node"><title>Node_21</title>
<path fill="moccasin" stroke="moccasin" d="M350,-292.5C350,-292.5 405,-292.5 405,-292.5 411,-292.5 417,-298.5 417,-304.5 417,-304.5 417,-316.5 417,-316.5 417,-322.5 411,-328.5 405,-328.5 405,-328.5 350,-328.5 350,-328.5 344,-328.5 338,-322.5 338,-316.5 338,-316.5 338,-304.5 338,-304.5 338,-298.5 344,-292.5 350,-292.5"/>
<text text-anchor="middle" x="377.5" y="-308.3" font-family="Arial" font-size="9.00">ret_13: [&#45;inf, inf]</text>
</g>
<!-- Node_20&#45;&gt;Node_21 -->
<g id="edge11" class="edge"><title>Node_20&#45;&gt;Node_21</title>
<path fill="none" stroke="steelblue" d="M371.437,-365.313C372.341,-357.289 373.438,-347.547 374.45,-338.569"/>
<polygon fill="steelblue" stroke="steelblue" points="377.939,-338.858 375.581,-328.529 370.984,-338.074 377.939,-338.858"/>
</g>
<!-- Node_21&#45;&gt;Node_4 -->
<g id="edge17" class="edge"><title>Node_21&#45;&gt;Node_4</title>
<path fill="none" stroke="tan" d="M389.604,-292.313C395.622,-283.766 403.014,-273.269 409.667,-263.823"/>
<polygon fill="tan" stroke="tan" points="412.612,-265.72 415.508,-255.529 406.888,-261.69 412.612,-265.72"/>
</g>
<!-- Node_23 -->
<g id="node24" class="node"><title>Node_23</title>
<path fill="moccasin" stroke="moccasin" d="M451,-292.5C451,-292.5 506,-292.5 506,-292.5 512,-292.5 518,-298.5 518,-304.5 518,-304.5 518,-316.5 518,-316.5 518,-322.5 512,-328.5 506,-328.5 506,-328.5 451,-328.5 451,-328.5 445,-328.5 439,-322.5 439,-316.5 439,-316.5 439,-304.5 439,-304.5 439,-298.5 445,-292.5 451,-292.5"/>
<text text-anchor="middle" x="478.5" y="-308.3" font-family="Arial" font-size="9.00">ret_14: [&#45;inf, inf]</text>
</g>
<!-- Node_22&#45;&gt;Node_23 -->
<g id="edge12" class="edge"><title>Node_22&#45;&gt;Node_23</title>
<path fill="none" stroke="steelblue" d="M482.29,-365.313C481.725,-357.289 481.039,-347.547 480.406,-338.569"/>
<polygon fill="steelblue" stroke="steelblue" points="483.893,-338.258 479.699,-328.529 476.91,-338.75 483.893,-338.258"/>
</g>
<!-- Node_23&#45;&gt;Node_4 -->
<g id="edge27" class="edge"><title>Node_23&#45;&gt;Node_4</title>
<path fill="none" stroke="tan" d="M466.154,-292.313C460.015,-283.766 452.475,-273.269 445.69,-263.823"/>
<polygon fill="tan" stroke="tan" points="448.409,-261.609 439.732,-255.529 442.723,-265.693 448.409,-261.609"/>
</g>
<!-- Node_24 -->
<g id="node25" class="node"><title>Node_24</title>
<path fill="lightblue" stroke="lightblue" d="M197,-803.5C197,-803.5 346,-803.5 346,-803.5 352,-803.5 358,-809.5 358,-815.5 358,-815.5 358,-827.5 358,-827.5 358,-833.5 352,-839.5 346,-839.5 346,-839.5 197,-839.5 197,-839.5 191,-839.5 185,-833.5 185,-827.5 185,-827.5 185,-815.5 185,-815.5 185,-809.5 191,-803.5 197,-803.5"/>
<text text-anchor="middle" x="271.5" y="-819.3" font-family="Arial" font-size="9.00">i_5 = 1.030000019073486328125e+1</text>
</g>
<!-- Node_25 -->
<g id="node26" class="node"><title>Node_25</title>
<path fill="moccasin" stroke="moccasin" d="M251,-730.5C251,-730.5 292,-730.5 292,-730.5 298,-730.5 304,-736.5 304,-742.5 304,-742.5 304,-754.5 304,-754.5 304,-760.5 298,-766.5 292,-766.5 292,-766.5 251,-766.5 251,-766.5 245,-766.5 239,-760.5 239,-754.5 239,-754.5 239,-742.5 239,-742.5 239,-736.5 245,-730.5 251,-730.5"/>
<text text-anchor="middle" x="271.5" y="-746.3" font-family="Arial" font-size="9.00">i_5: [&#45;inf, inf]</text>
</g>
<!-- Node_24&#45;&gt;Node_25 -->
<g id="edge13" class="edge"><title>Node_24&#45;&gt;Node_25</title>
<path fill="none" stroke="steelblue" d="M271.5,-803.313C271.5,-795.289 271.5,-785.547 271.5,-776.569"/>
<polygon fill="steelblue" stroke="steelblue" points="275,-776.529 271.5,-766.529 268,-776.529 275,-776.529"/>
</g>
<!-- Node_25&#45;&gt;Node_8 -->
<g id="edge26" class="edge"><title>Node_25&#45;&gt;Node_8</title>
<path fill="none" stroke="tan" d="M265.448,-730.313C262.562,-722.115 259.043,-712.123 255.826,-702.985"/>
<polygon fill="tan" stroke="tan" points="259.119,-701.799 252.496,-693.529 252.516,-704.124 259.119,-701.799"/>
</g>
</g>
</svg>
