<?xml version="1.0" encoding="UTF-8" standalone="no"?>
<!DOCTYPE svg PUBLIC "-//W3C//DTD SVG 1.1//EN"
 "http://www.w3.org/Graphics/SVG/1.1/DTD/svg11.dtd">
<!-- Generated by graphviz version 2.38.0 (20140413.2041)
 -->
<!-- Title: t8_foo_ConstraintGraph Pages: 1 -->
<svg width="832pt" height="848pt"
     viewBox="0.00 0.00 832.00 848.00" xmlns="http://www.w3.org/2000/svg">
<g id="graph0" class="graph" transform="scale(1 1) rotate(0) translate(4 844)">
<title>t8_foo_ConstraintGraph</title>
<polygon fill="white" stroke="none" points="-4,4 -4,-844 828,-844 828,4 -4,4"/>
<!-- Node_0 -->
<g id="node1" class="node"><title>Node_0</title>
<path fill="lightblue" stroke="lightblue" d="M388,-803.5C388,-803.5 537,-803.5 537,-803.5 543,-803.5 549,-809.5 549,-815.5 549,-815.5 549,-827.5 549,-827.5 549,-833.5 543,-839.5 537,-839.5 537,-839.5 388,-839.5 388,-839.5 382,-839.5 376,-833.5 376,-827.5 376,-827.5 376,-815.5 376,-815.5 376,-809.5 382,-803.5 388,-803.5"/>
<text text-anchor="middle" x="462.5" y="-819.3" font-family="Arial" font-size="9.00">j_9 = 2.400000095367431640625e+0</text>
</g>
<!-- Node_1 -->
<g id="node2" class="node"><title>Node_1</title>
<path fill="moccasin" stroke="moccasin" d="M442,-730.5C442,-730.5 483,-730.5 483,-730.5 489,-730.5 495,-736.5 495,-742.5 495,-742.5 495,-754.5 495,-754.5 495,-760.5 489,-766.5 483,-766.5 483,-766.5 442,-766.5 442,-766.5 436,-766.5 430,-760.5 430,-754.5 430,-754.5 430,-742.5 430,-742.5 430,-736.5 436,-730.5 442,-730.5"/>
<text text-anchor="middle" x="462.5" y="-746.3" font-family="Arial" font-size="9.00">j_9: [&#45;inf, inf]</text>
</g>
<!-- Node_0&#45;&gt;Node_1 -->
<g id="edge1" class="edge"><title>Node_0&#45;&gt;Node_1</title>
<path fill="none" stroke="steelblue" d="M462.5,-803.313C462.5,-795.289 462.5,-785.547 462.5,-776.569"/>
<polygon fill="steelblue" stroke="steelblue" points="466,-776.529 462.5,-766.529 459,-776.529 466,-776.529"/>
</g>
<!-- Node_18 -->
<g id="node19" class="node"><title>Node_18</title>
<path fill="lightblue" stroke="lightblue" d="M315,-657.5C315,-657.5 418,-657.5 418,-657.5 424,-657.5 430,-663.5 430,-669.5 430,-669.5 430,-681.5 430,-681.5 430,-687.5 424,-693.5 418,-693.5 418,-693.5 315,-693.5 315,-693.5 309,-693.5 303,-687.5 303,-681.5 303,-681.5 303,-669.5 303,-669.5 303,-663.5 309,-657.5 315,-657.5"/>
<text text-anchor="middle" x="366.5" y="-673.3" font-family="Arial" font-size="9.00"># j_1 = PHI &lt;j_6(3), j_9(4)&gt;</text>
</g>
<!-- Node_1&#45;&gt;Node_18 -->
<g id="edge20" class="edge"><title>Node_1&#45;&gt;Node_18</title>
<path fill="none" stroke="tan" d="M439.261,-730.313C426.762,-721.069 411.178,-709.543 397.642,-699.532"/>
<polygon fill="tan" stroke="tan" points="399.646,-696.661 389.525,-693.529 395.484,-702.289 399.646,-696.661"/>
</g>
<!-- Node_22 -->
<g id="node23" class="node"><title>Node_22</title>
<path fill="lightblue" stroke="lightblue" d="M460.5,-657.5C460.5,-657.5 516.5,-657.5 516.5,-657.5 522.5,-657.5 528.5,-663.5 528.5,-669.5 528.5,-669.5 528.5,-681.5 528.5,-681.5 528.5,-687.5 522.5,-693.5 516.5,-693.5 516.5,-693.5 460.5,-693.5 460.5,-693.5 454.5,-693.5 448.5,-687.5 448.5,-681.5 448.5,-681.5 448.5,-669.5 448.5,-669.5 448.5,-663.5 454.5,-657.5 460.5,-657.5"/>
<text text-anchor="middle" x="488.5" y="-673.3" font-family="Arial" font-size="9.00">k_10 = i_8 &#45; j_9</text>
</g>
<!-- Node_1&#45;&gt;Node_22 -->
<g id="edge21" class="edge"><title>Node_1&#45;&gt;Node_22</title>
<path fill="none" stroke="tan" d="M468.794,-730.313C471.796,-722.115 475.455,-712.123 478.801,-702.985"/>
<polygon fill="tan" stroke="tan" points="482.112,-704.123 482.264,-693.529 475.539,-701.715 482.112,-704.123"/>
</g>
<!-- Node_2 -->
<g id="node3" class="node"><title>Node_2</title>
<path fill="lightblue" stroke="lightblue" d="M210.5,-365.5C210.5,-365.5 290.5,-365.5 290.5,-365.5 296.5,-365.5 302.5,-371.5 302.5,-377.5 302.5,-377.5 302.5,-389.5 302.5,-389.5 302.5,-395.5 296.5,-401.5 290.5,-401.5 290.5,-401.5 210.5,-401.5 210.5,-401.5 204.5,-401.5 198.5,-395.5 198.5,-389.5 198.5,-389.5 198.5,-377.5 198.5,-377.5 198.5,-371.5 204.5,-365.5 210.5,-365.5"/>
<text text-anchor="middle" x="250.5" y="-381.3" font-family="Arial" font-size="9.00">ret_14 = k_2 * 3.0e+0</text>
</g>
<!-- Node_3 -->
<g id="node4" class="node"><title>Node_3</title>
<path fill="moccasin" stroke="moccasin" d="M231,-292.5C231,-292.5 286,-292.5 286,-292.5 292,-292.5 298,-298.5 298,-304.5 298,-304.5 298,-316.5 298,-316.5 298,-322.5 292,-328.5 286,-328.5 286,-328.5 231,-328.5 231,-328.5 225,-328.5 219,-322.5 219,-316.5 219,-316.5 219,-304.5 219,-304.5 219,-298.5 225,-292.5 231,-292.5"/>
<text text-anchor="middle" x="258.5" y="-308.3" font-family="Arial" font-size="9.00">ret_14: [&#45;inf, inf]</text>
</g>
<!-- Node_2&#45;&gt;Node_3 -->
<g id="edge2" class="edge"><title>Node_2&#45;&gt;Node_3</title>
<path fill="none" stroke="steelblue" d="M252.437,-365.313C253.341,-357.289 254.438,-347.547 255.45,-338.569"/>
<polygon fill="steelblue" stroke="steelblue" points="258.939,-338.858 256.581,-328.529 251.984,-338.074 258.939,-338.858"/>
</g>
<!-- Node_4 -->
<g id="node5" class="node"><title>Node_4</title>
<path fill="lightblue" stroke="lightblue" d="M239.5,-219.5C239.5,-219.5 377.5,-219.5 377.5,-219.5 383.5,-219.5 389.5,-225.5 389.5,-231.5 389.5,-231.5 389.5,-243.5 389.5,-243.5 389.5,-249.5 383.5,-255.5 377.5,-255.5 377.5,-255.5 239.5,-255.5 239.5,-255.5 233.5,-255.5 227.5,-249.5 227.5,-243.5 227.5,-243.5 227.5,-231.5 227.5,-231.5 227.5,-225.5 233.5,-219.5 239.5,-219.5"/>
<text text-anchor="middle" x="308.5" y="-235.3" font-family="Arial" font-size="9.00"># ret_3 = PHI &lt;ret_13(6), ret_14(7)&gt;</text>
</g>
<!-- Node_3&#45;&gt;Node_4 -->
<g id="edge14" class="edge"><title>Node_3&#45;&gt;Node_4</title>
<path fill="none" stroke="tan" d="M270.604,-292.313C276.622,-283.766 284.014,-273.269 290.667,-263.823"/>
<polygon fill="tan" stroke="tan" points="293.612,-265.72 296.508,-255.529 287.888,-261.69 293.612,-265.72"/>
</g>
<!-- Node_5 -->
<g id="node6" class="node"><title>Node_5</title>
<path fill="moccasin" stroke="moccasin" d="M283.5,-146.5C283.5,-146.5 333.5,-146.5 333.5,-146.5 339.5,-146.5 345.5,-152.5 345.5,-158.5 345.5,-158.5 345.5,-170.5 345.5,-170.5 345.5,-176.5 339.5,-182.5 333.5,-182.5 333.5,-182.5 283.5,-182.5 283.5,-182.5 277.5,-182.5 271.5,-176.5 271.5,-170.5 271.5,-170.5 271.5,-158.5 271.5,-158.5 271.5,-152.5 277.5,-146.5 283.5,-146.5"/>
<text text-anchor="middle" x="308.5" y="-162.3" font-family="Arial" font-size="9.00">ret_3: [&#45;inf, inf]</text>
</g>
<!-- Node_4&#45;&gt;Node_5 -->
<g id="edge3" class="edge"><title>Node_4&#45;&gt;Node_5</title>
<path fill="none" stroke="steelblue" d="M308.5,-219.313C308.5,-211.289 308.5,-201.547 308.5,-192.569"/>
<polygon fill="steelblue" stroke="steelblue" points="312,-192.529 308.5,-182.529 305,-192.529 312,-192.529"/>
</g>
<!-- Node_6 -->
<g id="node7" class="node"><title>Node_6</title>
<path fill="lightblue" stroke="lightblue" d="M289,-73.5C289,-73.5 328,-73.5 328,-73.5 334,-73.5 340,-79.5 340,-85.5 340,-85.5 340,-97.5 340,-97.5 340,-103.5 334,-109.5 328,-109.5 328,-109.5 289,-109.5 289,-109.5 283,-109.5 277,-103.5 277,-97.5 277,-97.5 277,-85.5 277,-85.5 277,-79.5 283,-73.5 289,-73.5"/>
<text text-anchor="middle" x="308.5" y="-89.3" font-family="Arial" font-size="9.00">_15 = ret_3</text>
</g>
<!-- Node_5&#45;&gt;Node_6 -->
<g id="edge27" class="edge"><title>Node_5&#45;&gt;Node_6</title>
<path fill="none" stroke="tan" d="M308.5,-146.313C308.5,-138.289 308.5,-128.547 308.5,-119.569"/>
<polygon fill="tan" stroke="tan" points="312,-119.529 308.5,-109.529 305,-119.529 312,-119.529"/>
</g>
<!-- Node_7 -->
<g id="node8" class="node"><title>Node_7</title>
<path fill="moccasin" stroke="moccasin" d="M286.5,-0.5C286.5,-0.5 330.5,-0.5 330.5,-0.5 336.5,-0.5 342.5,-6.5 342.5,-12.5 342.5,-12.5 342.5,-24.5 342.5,-24.5 342.5,-30.5 336.5,-36.5 330.5,-36.5 330.5,-36.5 286.5,-36.5 286.5,-36.5 280.5,-36.5 274.5,-30.5 274.5,-24.5 274.5,-24.5 274.5,-12.5 274.5,-12.5 274.5,-6.5 280.5,-0.5 286.5,-0.5"/>
<text text-anchor="middle" x="308.5" y="-16.3" font-family="Arial" font-size="9.00">_15: [&#45;inf, inf]</text>
</g>
<!-- Node_6&#45;&gt;Node_7 -->
<g id="edge4" class="edge"><title>Node_6&#45;&gt;Node_7</title>
<path fill="none" stroke="steelblue" d="M308.5,-73.3129C308.5,-65.2895 308.5,-55.5475 308.5,-46.5691"/>
<polygon fill="steelblue" stroke="steelblue" points="312,-46.5288 308.5,-36.5288 305,-46.5289 312,-46.5288"/>
</g>
<!-- Node_8 -->
<g id="node9" class="node"><title>Node_8</title>
<path fill="lightblue" stroke="lightblue" d="M190,-511.5C190,-511.5 305,-511.5 305,-511.5 311,-511.5 317,-517.5 317,-523.5 317,-523.5 317,-535.5 317,-535.5 317,-541.5 311,-547.5 305,-547.5 305,-547.5 190,-547.5 190,-547.5 184,-547.5 178,-541.5 178,-535.5 178,-535.5 178,-523.5 178,-523.5 178,-517.5 184,-511.5 190,-511.5"/>
<text text-anchor="middle" x="247.5" y="-527.3" font-family="Arial" font-size="9.00"># k_2 = PHI &lt;k_7(3), k_10(4)&gt;</text>
</g>
<!-- Node_9 -->
<g id="node10" class="node"><title>Node_9</title>
<path fill="moccasin" stroke="moccasin" d="M228.5,-438.5C228.5,-438.5 272.5,-438.5 272.5,-438.5 278.5,-438.5 284.5,-444.5 284.5,-450.5 284.5,-450.5 284.5,-462.5 284.5,-462.5 284.5,-468.5 278.5,-474.5 272.5,-474.5 272.5,-474.5 228.5,-474.5 228.5,-474.5 222.5,-474.5 216.5,-468.5 216.5,-462.5 216.5,-462.5 216.5,-450.5 216.5,-450.5 216.5,-444.5 222.5,-438.5 228.5,-438.5"/>
<text text-anchor="middle" x="250.5" y="-454.3" font-family="Arial" font-size="9.00">k_2: [&#45;inf, inf]</text>
</g>
<!-- Node_8&#45;&gt;Node_9 -->
<g id="edge5" class="edge"><title>Node_8&#45;&gt;Node_9</title>
<path fill="none" stroke="steelblue" d="M248.226,-511.313C248.565,-503.289 248.977,-493.547 249.356,-484.569"/>
<polygon fill="steelblue" stroke="steelblue" points="252.855,-484.668 249.78,-474.529 245.861,-484.372 252.855,-484.668"/>
</g>
<!-- Node_9&#45;&gt;Node_2 -->
<g id="edge16" class="edge"><title>Node_9&#45;&gt;Node_2</title>
<path fill="none" stroke="tan" d="M250.5,-438.313C250.5,-430.289 250.5,-420.547 250.5,-411.569"/>
<polygon fill="tan" stroke="tan" points="254,-411.529 250.5,-401.529 247,-411.529 254,-411.529"/>
</g>
<!-- Node_16 -->
<g id="node17" class="node"><title>Node_16</title>
<path fill="lightblue" stroke="lightblue" d="M332.5,-365.5C332.5,-365.5 396.5,-365.5 396.5,-365.5 402.5,-365.5 408.5,-371.5 408.5,-377.5 408.5,-377.5 408.5,-389.5 408.5,-389.5 408.5,-395.5 402.5,-401.5 396.5,-401.5 396.5,-401.5 332.5,-401.5 332.5,-401.5 326.5,-401.5 320.5,-395.5 320.5,-389.5 320.5,-389.5 320.5,-377.5 320.5,-377.5 320.5,-371.5 326.5,-365.5 332.5,-365.5"/>
<text text-anchor="middle" x="364.5" y="-381.3" font-family="Arial" font-size="9.00">ret_13 = k_2 &#45; j_1</text>
</g>
<!-- Node_9&#45;&gt;Node_16 -->
<g id="edge15" class="edge"><title>Node_9&#45;&gt;Node_16</title>
<path fill="none" stroke="tan" d="M277.806,-438.494C292.923,-429.079 311.907,-417.255 328.253,-407.075"/>
<polygon fill="tan" stroke="tan" points="330.384,-409.871 337.022,-401.614 326.683,-403.929 330.384,-409.871"/>
</g>
<!-- Node_10 -->
<g id="node11" class="node"><title>Node_10</title>
<path fill="lightblue" stroke="lightblue" d="M579,-803.5C579,-803.5 722,-803.5 722,-803.5 728,-803.5 734,-809.5 734,-815.5 734,-815.5 734,-827.5 734,-827.5 734,-833.5 728,-839.5 722,-839.5 722,-839.5 579,-839.5 579,-839.5 573,-839.5 567,-833.5 567,-827.5 567,-827.5 567,-815.5 567,-815.5 567,-809.5 573,-803.5 579,-803.5"/>
<text text-anchor="middle" x="650.5" y="-819.3" font-family="Arial" font-size="9.00">i_8 = 7.30000019073486328125e+0</text>
</g>
<!-- Node_11 -->
<g id="node12" class="node"><title>Node_11</title>
<path fill="moccasin" stroke="moccasin" d="M577,-730.5C577,-730.5 618,-730.5 618,-730.5 624,-730.5 630,-736.5 630,-742.5 630,-742.5 630,-754.5 630,-754.5 630,-760.5 624,-766.5 618,-766.5 618,-766.5 577,-766.5 577,-766.5 571,-766.5 565,-760.5 565,-754.5 565,-754.5 565,-742.5 565,-742.5 565,-736.5 571,-730.5 577,-730.5"/>
<text text-anchor="middle" x="597.5" y="-746.3" font-family="Arial" font-size="9.00">i_8: [&#45;inf, inf]</text>
</g>
<!-- Node_10&#45;&gt;Node_11 -->
<g id="edge6" class="edge"><title>Node_10&#45;&gt;Node_11</title>
<path fill="none" stroke="steelblue" d="M637.67,-803.313C631.29,-794.766 623.455,-784.269 616.403,-774.823"/>
<polygon fill="steelblue" stroke="steelblue" points="618.998,-772.449 610.212,-766.529 613.389,-776.636 618.998,-772.449"/>
</g>
<!-- Node_11&#45;&gt;Node_22 -->
<g id="edge25" class="edge"><title>Node_11&#45;&gt;Node_22</title>
<path fill="none" stroke="tan" d="M571.392,-730.494C556.937,-721.079 538.787,-709.255 523.157,-699.075"/>
<polygon fill="tan" stroke="tan" points="525.062,-696.139 514.773,-693.614 521.242,-702.004 525.062,-696.139"/>
</g>
<!-- Node_12 -->
<g id="node13" class="node"><title>Node_12</title>
<path fill="lightblue" stroke="lightblue" d="M12,-803.5C12,-803.5 161,-803.5 161,-803.5 167,-803.5 173,-809.5 173,-815.5 173,-815.5 173,-827.5 173,-827.5 173,-833.5 167,-839.5 161,-839.5 161,-839.5 12,-839.5 12,-839.5 6,-839.5 0,-833.5 0,-827.5 0,-827.5 0,-815.5 0,-815.5 0,-809.5 6,-803.5 12,-803.5"/>
<text text-anchor="middle" x="86.5" y="-819.3" font-family="Arial" font-size="9.00">i_5 = 1.030000019073486328125e+1</text>
</g>
<!-- Node_13 -->
<g id="node14" class="node"><title>Node_13</title>
<path fill="moccasin" stroke="moccasin" d="M118,-730.5C118,-730.5 159,-730.5 159,-730.5 165,-730.5 171,-736.5 171,-742.5 171,-742.5 171,-754.5 171,-754.5 171,-760.5 165,-766.5 159,-766.5 159,-766.5 118,-766.5 118,-766.5 112,-766.5 106,-760.5 106,-754.5 106,-754.5 106,-742.5 106,-742.5 106,-736.5 112,-730.5 118,-730.5"/>
<text text-anchor="middle" x="138.5" y="-746.3" font-family="Arial" font-size="9.00">i_5: [&#45;inf, inf]</text>
</g>
<!-- Node_12&#45;&gt;Node_13 -->
<g id="edge7" class="edge"><title>Node_12&#45;&gt;Node_13</title>
<path fill="none" stroke="steelblue" d="M99.0877,-803.313C105.347,-794.766 113.035,-784.269 119.954,-774.823"/>
<polygon fill="steelblue" stroke="steelblue" points="122.943,-776.665 126.028,-766.529 117.296,-772.528 122.943,-776.665"/>
</g>
<!-- Node_20 -->
<g id="node21" class="node"><title>Node_20</title>
<path fill="lightblue" stroke="lightblue" d="M222.5,-657.5C222.5,-657.5 272.5,-657.5 272.5,-657.5 278.5,-657.5 284.5,-663.5 284.5,-669.5 284.5,-669.5 284.5,-681.5 284.5,-681.5 284.5,-687.5 278.5,-693.5 272.5,-693.5 272.5,-693.5 222.5,-693.5 222.5,-693.5 216.5,-693.5 210.5,-687.5 210.5,-681.5 210.5,-681.5 210.5,-669.5 210.5,-669.5 210.5,-663.5 216.5,-657.5 222.5,-657.5"/>
<text text-anchor="middle" x="247.5" y="-673.3" font-family="Arial" font-size="9.00">k_7 = i_5 / j_6</text>
</g>
<!-- Node_13&#45;&gt;Node_20 -->
<g id="edge17" class="edge"><title>Node_13&#45;&gt;Node_20</title>
<path fill="none" stroke="tan" d="M164.608,-730.494C179.063,-721.079 197.213,-709.255 212.843,-699.075"/>
<polygon fill="tan" stroke="tan" points="214.758,-702.004 221.227,-693.614 210.938,-696.139 214.758,-702.004"/>
</g>
<!-- Node_14 -->
<g id="node15" class="node"><title>Node_14</title>
<path fill="lightblue" stroke="lightblue" d="M764,-803.5C764,-803.5 805,-803.5 805,-803.5 811,-803.5 817,-809.5 817,-815.5 817,-815.5 817,-827.5 817,-827.5 817,-833.5 811,-839.5 805,-839.5 805,-839.5 764,-839.5 764,-839.5 758,-839.5 752,-833.5 752,-827.5 752,-827.5 752,-815.5 752,-815.5 752,-809.5 758,-803.5 764,-803.5"/>
<text text-anchor="middle" x="784.5" y="-819.3" font-family="Arial" font-size="9.00">ret_11 = 0.0</text>
</g>
<!-- Node_15 -->
<g id="node16" class="node"><title>Node_15</title>
<path fill="moccasin" stroke="moccasin" d="M757,-730.5C757,-730.5 812,-730.5 812,-730.5 818,-730.5 824,-736.5 824,-742.5 824,-742.5 824,-754.5 824,-754.5 824,-760.5 818,-766.5 812,-766.5 812,-766.5 757,-766.5 757,-766.5 751,-766.5 745,-760.5 745,-754.5 745,-754.5 745,-742.5 745,-742.5 745,-736.5 751,-730.5 757,-730.5"/>
<text text-anchor="middle" x="784.5" y="-746.3" font-family="Arial" font-size="9.00">ret_11: [&#45;inf, inf]</text>
</g>
<!-- Node_14&#45;&gt;Node_15 -->
<g id="edge8" class="edge"><title>Node_14&#45;&gt;Node_15</title>
<path fill="none" stroke="steelblue" d="M784.5,-803.313C784.5,-795.289 784.5,-785.547 784.5,-776.569"/>
<polygon fill="steelblue" stroke="steelblue" points="788,-776.529 784.5,-766.529 781,-776.529 788,-776.529"/>
</g>
<!-- Node_17 -->
<g id="node18" class="node"><title>Node_17</title>
<path fill="moccasin" stroke="moccasin" d="M332,-292.5C332,-292.5 387,-292.5 387,-292.5 393,-292.5 399,-298.5 399,-304.5 399,-304.5 399,-316.5 399,-316.5 399,-322.5 393,-328.5 387,-328.5 387,-328.5 332,-328.5 332,-328.5 326,-328.5 320,-322.5 320,-316.5 320,-316.5 320,-304.5 320,-304.5 320,-298.5 326,-292.5 332,-292.5"/>
<text text-anchor="middle" x="359.5" y="-308.3" font-family="Arial" font-size="9.00">ret_13: [&#45;inf, inf]</text>
</g>
<!-- Node_16&#45;&gt;Node_17 -->
<g id="edge9" class="edge"><title>Node_16&#45;&gt;Node_17</title>
<path fill="none" stroke="steelblue" d="M363.29,-365.313C362.725,-357.289 362.039,-347.547 361.406,-338.569"/>
<polygon fill="steelblue" stroke="steelblue" points="364.893,-338.258 360.699,-328.529 357.91,-338.75 364.893,-338.258"/>
</g>
<!-- Node_17&#45;&gt;Node_4 -->
<g id="edge24" class="edge"><title>Node_17&#45;&gt;Node_4</title>
<path fill="none" stroke="tan" d="M347.154,-292.313C341.015,-283.766 333.475,-273.269 326.69,-263.823"/>
<polygon fill="tan" stroke="tan" points="329.409,-261.609 320.732,-255.529 323.723,-265.693 329.409,-261.609"/>
</g>
<!-- Node_19 -->
<g id="node20" class="node"><title>Node_19</title>
<path fill="moccasin" stroke="moccasin" d="M347,-511.5C347,-511.5 388,-511.5 388,-511.5 394,-511.5 400,-517.5 400,-523.5 400,-523.5 400,-535.5 400,-535.5 400,-541.5 394,-547.5 388,-547.5 388,-547.5 347,-547.5 347,-547.5 341,-547.5 335,-541.5 335,-535.5 335,-535.5 335,-523.5 335,-523.5 335,-517.5 341,-511.5 347,-511.5"/>
<text text-anchor="middle" x="367.5" y="-527.3" font-family="Arial" font-size="9.00">j_1: [&#45;inf, inf]</text>
</g>
<!-- Node_18&#45;&gt;Node_19 -->
<g id="edge10" class="edge"><title>Node_18&#45;&gt;Node_19</title>
<path fill="none" stroke="steelblue" d="M366.619,-657.416C366.789,-632.841 367.106,-587.253 367.31,-557.927"/>
<polygon fill="steelblue" stroke="steelblue" points="370.812,-557.586 367.382,-547.562 363.812,-557.537 370.812,-557.586"/>
</g>
<!-- Node_19&#45;&gt;Node_16 -->
<g id="edge22" class="edge"><title>Node_19&#45;&gt;Node_16</title>
<path fill="none" stroke="tan" d="M367.144,-511.416C366.632,-486.841 365.682,-441.253 365.071,-411.927"/>
<polygon fill="tan" stroke="tan" points="368.563,-411.487 364.855,-401.562 361.565,-411.633 368.563,-411.487"/>
</g>
<!-- Node_21 -->
<g id="node22" class="node"><title>Node_21</title>
<path fill="moccasin" stroke="moccasin" d="M225.5,-584.5C225.5,-584.5 269.5,-584.5 269.5,-584.5 275.5,-584.5 281.5,-590.5 281.5,-596.5 281.5,-596.5 281.5,-608.5 281.5,-608.5 281.5,-614.5 275.5,-620.5 269.5,-620.5 269.5,-620.5 225.5,-620.5 225.5,-620.5 219.5,-620.5 213.5,-614.5 213.5,-608.5 213.5,-608.5 213.5,-596.5 213.5,-596.5 213.5,-590.5 219.5,-584.5 225.5,-584.5"/>
<text text-anchor="middle" x="247.5" y="-600.3" font-family="Arial" font-size="9.00">k_7: [&#45;inf, inf]</text>
</g>
<!-- Node_20&#45;&gt;Node_21 -->
<g id="edge11" class="edge"><title>Node_20&#45;&gt;Node_21</title>
<path fill="none" stroke="steelblue" d="M247.5,-657.313C247.5,-649.289 247.5,-639.547 247.5,-630.569"/>
<polygon fill="steelblue" stroke="steelblue" points="251,-630.529 247.5,-620.529 244,-630.529 251,-630.529"/>
</g>
<!-- Node_21&#45;&gt;Node_8 -->
<g id="edge26" class="edge"><title>Node_21&#45;&gt;Node_8</title>
<path fill="none" stroke="tan" d="M247.5,-584.313C247.5,-576.289 247.5,-566.547 247.5,-557.569"/>
<polygon fill="tan" stroke="tan" points="251,-557.529 247.5,-547.529 244,-557.529 251,-557.529"/>
</g>
<!-- Node_23 -->
<g id="node24" class="node"><title>Node_23</title>
<path fill="moccasin" stroke="moccasin" d="M435,-584.5C435,-584.5 484,-584.5 484,-584.5 490,-584.5 496,-590.5 496,-596.5 496,-596.5 496,-608.5 496,-608.5 496,-614.5 490,-620.5 484,-620.5 484,-620.5 435,-620.5 435,-620.5 429,-620.5 423,-614.5 423,-608.5 423,-608.5 423,-596.5 423,-596.5 423,-590.5 429,-584.5 435,-584.5"/>
<text text-anchor="middle" x="459.5" y="-600.3" font-family="Arial" font-size="9.00">k_10: [&#45;inf, inf]</text>
</g>
<!-- Node_22&#45;&gt;Node_23 -->
<g id="edge12" class="edge"><title>Node_22&#45;&gt;Node_23</title>
<path fill="none" stroke="steelblue" d="M481.48,-657.313C478.132,-649.115 474.05,-639.123 470.318,-629.985"/>
<polygon fill="steelblue" stroke="steelblue" points="473.477,-628.463 466.455,-620.529 466.997,-631.11 473.477,-628.463"/>
</g>
<!-- Node_23&#45;&gt;Node_8 -->
<g id="edge23" class="edge"><title>Node_23&#45;&gt;Node_8</title>
<path fill="none" stroke="tan" d="M422.572,-589.133C390.991,-578.556 344.922,-563.127 307.968,-550.751"/>
<polygon fill="tan" stroke="tan" points="308.89,-547.369 298.296,-547.512 306.667,-554.006 308.89,-547.369"/>
</g>
<!-- Node_24 -->
<g id="node25" class="node"><title>Node_24</title>
<path fill="lightblue" stroke="lightblue" d="M203,-803.5C203,-803.5 346,-803.5 346,-803.5 352,-803.5 358,-809.5 358,-815.5 358,-815.5 358,-827.5 358,-827.5 358,-833.5 352,-839.5 346,-839.5 346,-839.5 203,-839.5 203,-839.5 197,-839.5 191,-833.5 191,-827.5 191,-827.5 191,-815.5 191,-815.5 191,-809.5 197,-803.5 203,-803.5"/>
<text text-anchor="middle" x="274.5" y="-819.3" font-family="Arial" font-size="9.00">j_6 = 5.19999980926513671875e+0</text>
</g>
<!-- Node_25 -->
<g id="node26" class="node"><title>Node_25</title>
<path fill="moccasin" stroke="moccasin" d="M254,-730.5C254,-730.5 295,-730.5 295,-730.5 301,-730.5 307,-736.5 307,-742.5 307,-742.5 307,-754.5 307,-754.5 307,-760.5 301,-766.5 295,-766.5 295,-766.5 254,-766.5 254,-766.5 248,-766.5 242,-760.5 242,-754.5 242,-754.5 242,-742.5 242,-742.5 242,-736.5 248,-730.5 254,-730.5"/>
<text text-anchor="middle" x="274.5" y="-746.3" font-family="Arial" font-size="9.00">j_6: [&#45;inf, inf]</text>
</g>
<!-- Node_24&#45;&gt;Node_25 -->
<g id="edge13" class="edge"><title>Node_24&#45;&gt;Node_25</title>
<path fill="none" stroke="steelblue" d="M274.5,-803.313C274.5,-795.289 274.5,-785.547 274.5,-776.569"/>
<polygon fill="steelblue" stroke="steelblue" points="278,-776.529 274.5,-766.529 271,-776.529 278,-776.529"/>
</g>
<!-- Node_25&#45;&gt;Node_18 -->
<g id="edge18" class="edge"><title>Node_25&#45;&gt;Node_18</title>
<path fill="none" stroke="tan" d="M296.771,-730.313C308.636,-721.156 323.403,-709.76 336.288,-699.816"/>
<polygon fill="tan" stroke="tan" points="338.656,-702.409 344.434,-693.529 334.379,-696.868 338.656,-702.409"/>
</g>
<!-- Node_25&#45;&gt;Node_20 -->
<g id="edge19" class="edge"><title>Node_25&#45;&gt;Node_20</title>
<path fill="none" stroke="tan" d="M267.964,-730.313C264.847,-722.115 261.047,-712.123 257.572,-702.985"/>
<polygon fill="tan" stroke="tan" points="260.802,-701.632 253.976,-693.529 254.259,-704.12 260.802,-701.632"/>
</g>
</g>
</svg>
