<?xml version="1.0" encoding="UTF-8" standalone="no"?>
<!DOCTYPE svg PUBLIC "-//W3C//DTD SVG 1.1//EN"
 "http://www.w3.org/Graphics/SVG/1.1/DTD/svg11.dtd">
<!-- Generated by graphviz version 2.38.0 (20140413.2041)
 -->
<!-- Title: t9_foo_ConstraintGraph Pages: 1 -->
<svg width="966pt" height="723pt"
     viewBox="0.00 0.00 966.00 723.00" xmlns="http://www.w3.org/2000/svg">
<g id="graph0" class="graph" transform="scale(1 1) rotate(0) translate(4 719)">
<title>t9_foo_ConstraintGraph</title>
<polygon fill="white" stroke="none" points="-4,4 -4,-719 962,-719 962,4 -4,4"/>
<text text-anchor="middle" x="479" y="-701.4" font-family="Arial" font-size="12.00">t9_foo_ConstraintGraph</text>
<!-- Node_0 -->
<g id="node1" class="node"><title>Node_0</title>
<path fill="lightblue" stroke="lightblue" d="M166,-438.5C166,-438.5 318,-438.5 318,-438.5 324,-438.5 330,-444.5 330,-450.5 330,-450.5 330,-462.5 330,-462.5 330,-468.5 324,-474.5 318,-474.5 318,-474.5 166,-474.5 166,-474.5 160,-474.5 154,-468.5 154,-462.5 154,-462.5 154,-450.5 154,-450.5 154,-444.5 160,-438.5 166,-438.5"/>
<text text-anchor="middle" x="242" y="-454.3" font-family="Arial" font-size="9.00"># sum_2 = PHI &lt;sum_3(3), sum_1(6)&gt;</text>
</g>
<!-- Node_1 -->
<g id="node2" class="node"><title>Node_1</title>
<path fill="moccasin" stroke="moccasin" d="M282.5,-365.5C282.5,-365.5 371.5,-365.5 371.5,-365.5 377.5,-365.5 383.5,-371.5 383.5,-377.5 383.5,-377.5 383.5,-389.5 383.5,-389.5 383.5,-395.5 377.5,-401.5 371.5,-401.5 371.5,-401.5 282.5,-401.5 282.5,-401.5 276.5,-401.5 270.5,-395.5 270.5,-389.5 270.5,-389.5 270.5,-377.5 270.5,-377.5 270.5,-371.5 276.5,-365.5 282.5,-365.5"/>
<text text-anchor="middle" x="327" y="-381.3" font-family="Arial" font-size="9.00">sum_2: [&#45;Infinity, Infinity]</text>
</g>
<!-- Node_0&#45;&gt;Node_1 -->
<g id="edge1" class="edge"><title>Node_0&#45;&gt;Node_1</title>
<path fill="none" stroke="steelblue" d="M262.576,-438.313C273.434,-429.243 286.922,-417.977 298.746,-408.1"/>
<polygon fill="steelblue" stroke="steelblue" points="301.182,-410.626 306.613,-401.529 296.695,-405.253 301.182,-410.626"/>
</g>
<!-- Node_2 -->
<g id="node3" class="node"><title>Node_2</title>
<path fill="lightblue" stroke="lightblue" d="M372,-292.5C372,-292.5 458,-292.5 458,-292.5 464,-292.5 470,-298.5 470,-304.5 470,-304.5 470,-316.5 470,-316.5 470,-322.5 464,-328.5 458,-328.5 458,-328.5 372,-328.5 372,-328.5 366,-328.5 360,-322.5 360,-316.5 360,-316.5 360,-304.5 360,-304.5 360,-298.5 366,-292.5 372,-292.5"/>
<text text-anchor="middle" x="415" y="-308.3" font-family="Arial" font-size="9.00">sum_10 = _9 + sum_2</text>
</g>
<!-- Node_1&#45;&gt;Node_2 -->
<g id="edge29" class="edge"><title>Node_1&#45;&gt;Node_2</title>
<path fill="none" stroke="tan" d="M348.302,-365.313C359.652,-356.156 373.776,-344.76 386.101,-334.816"/>
<polygon fill="tan" stroke="tan" points="388.309,-337.532 393.894,-328.529 383.913,-332.084 388.309,-337.532"/>
</g>
<!-- Node_24 -->
<g id="node25" class="node"><title>Node_24</title>
<path fill="lightblue" stroke="lightblue" d="M282,-146.5C282,-146.5 440,-146.5 440,-146.5 446,-146.5 452,-152.5 452,-158.5 452,-158.5 452,-170.5 452,-170.5 452,-176.5 446,-182.5 440,-182.5 440,-182.5 282,-182.5 282,-182.5 276,-182.5 270,-176.5 270,-170.5 270,-170.5 270,-158.5 270,-158.5 270,-152.5 276,-146.5 282,-146.5"/>
<text text-anchor="middle" x="361" y="-162.3" font-family="Arial" font-size="9.00"># sum_1 = PHI &lt;sum_2(4), sum_10(5)&gt;</text>
</g>
<!-- Node_1&#45;&gt;Node_24 -->
<g id="edge30" class="edge"><title>Node_1&#45;&gt;Node_24</title>
<path fill="none" stroke="tan" d="M328.111,-365.178C330.236,-335.179 335.615,-271.71 346,-219 347.723,-210.253 350.157,-200.848 352.564,-192.401"/>
<polygon fill="tan" stroke="tan" points="355.959,-193.263 355.437,-182.681 349.246,-191.279 355.959,-193.263"/>
</g>
<!-- Node_30 -->
<g id="node31" class="node"><title>Node_30</title>
<path fill="lightblue" stroke="lightblue" d="M12,-292.5C12,-292.5 164,-292.5 164,-292.5 170,-292.5 176,-298.5 176,-304.5 176,-304.5 176,-316.5 176,-316.5 176,-322.5 170,-328.5 164,-328.5 164,-328.5 12,-328.5 12,-328.5 6,-328.5 0,-322.5 0,-316.5 0,-316.5 0,-304.5 0,-304.5 0,-298.5 6,-292.5 12,-292.5"/>
<text text-anchor="middle" x="88" y="-308.3" font-family="Arial" font-size="9.00"># sum_3 = PHI &lt;sum_6(2), sum_2(8)&gt;</text>
</g>
<!-- Node_1&#45;&gt;Node_30 -->
<g id="edge31" class="edge"><title>Node_1&#45;&gt;Node_30</title>
<path fill="none" stroke="tan" d="M270.36,-365.674C235.914,-355.441 191.727,-342.314 155.476,-331.545"/>
<polygon fill="tan" stroke="tan" points="156.06,-328.067 145.477,-328.575 154.066,-334.778 156.06,-328.067"/>
</g>
<!-- Node_3 -->
<g id="node4" class="node"><title>Node_3</title>
<path fill="moccasin" stroke="moccasin" d="M367.5,-219.5C367.5,-219.5 462.5,-219.5 462.5,-219.5 468.5,-219.5 474.5,-225.5 474.5,-231.5 474.5,-231.5 474.5,-243.5 474.5,-243.5 474.5,-249.5 468.5,-255.5 462.5,-255.5 462.5,-255.5 367.5,-255.5 367.5,-255.5 361.5,-255.5 355.5,-249.5 355.5,-243.5 355.5,-243.5 355.5,-231.5 355.5,-231.5 355.5,-225.5 361.5,-219.5 367.5,-219.5"/>
<text text-anchor="middle" x="415" y="-235.3" font-family="Arial" font-size="9.00">sum_10: [&#45;Infinity, Infinity]</text>
</g>
<!-- Node_2&#45;&gt;Node_3 -->
<g id="edge2" class="edge"><title>Node_2&#45;&gt;Node_3</title>
<path fill="none" stroke="steelblue" d="M415,-292.313C415,-284.289 415,-274.547 415,-265.569"/>
<polygon fill="steelblue" stroke="steelblue" points="418.5,-265.529 415,-255.529 411.5,-265.529 418.5,-265.529"/>
</g>
<!-- Node_3&#45;&gt;Node_24 -->
<g id="edge39" class="edge"><title>Node_3&#45;&gt;Node_24</title>
<path fill="none" stroke="tan" d="M401.928,-219.313C395.362,-210.679 387.281,-200.055 380.04,-190.534"/>
<polygon fill="tan" stroke="tan" points="382.791,-188.37 373.952,-182.529 377.219,-192.607 382.791,-188.37"/>
</g>
<!-- Node_4 -->
<g id="node5" class="node"><title>Node_4</title>
<path fill="lightblue" stroke="lightblue" d="M826,-657.5C826,-657.5 856,-657.5 856,-657.5 862,-657.5 868,-663.5 868,-669.5 868,-669.5 868,-681.5 868,-681.5 868,-687.5 862,-693.5 856,-693.5 856,-693.5 826,-693.5 826,-693.5 820,-693.5 814,-687.5 814,-681.5 814,-681.5 814,-669.5 814,-669.5 814,-663.5 820,-657.5 826,-657.5"/>
<text text-anchor="middle" x="841" y="-673.3" font-family="Arial" font-size="9.00">i_7 = 0</text>
</g>
<!-- Node_5 -->
<g id="node6" class="node"><title>Node_5</title>
<path fill="moccasin" stroke="moccasin" d="M804.5,-584.5C804.5,-584.5 877.5,-584.5 877.5,-584.5 883.5,-584.5 889.5,-590.5 889.5,-596.5 889.5,-596.5 889.5,-608.5 889.5,-608.5 889.5,-614.5 883.5,-620.5 877.5,-620.5 877.5,-620.5 804.5,-620.5 804.5,-620.5 798.5,-620.5 792.5,-614.5 792.5,-608.5 792.5,-608.5 792.5,-596.5 792.5,-596.5 792.5,-590.5 798.5,-584.5 804.5,-584.5"/>
<text text-anchor="middle" x="841" y="-600.3" font-family="Arial" font-size="9.00">i_7: [&#45;Infinity, Infinity]</text>
</g>
<!-- Node_4&#45;&gt;Node_5 -->
<g id="edge3" class="edge"><title>Node_4&#45;&gt;Node_5</title>
<path fill="none" stroke="steelblue" d="M841,-657.313C841,-649.289 841,-639.547 841,-630.569"/>
<polygon fill="steelblue" stroke="steelblue" points="844.5,-630.529 841,-620.529 837.5,-630.529 844.5,-630.529"/>
</g>
<!-- Node_10 -->
<g id="node11" class="node"><title>Node_10</title>
<path fill="lightblue" stroke="lightblue" d="M787,-511.5C787,-511.5 895,-511.5 895,-511.5 901,-511.5 907,-517.5 907,-523.5 907,-523.5 907,-535.5 907,-535.5 907,-541.5 901,-547.5 895,-547.5 895,-547.5 787,-547.5 787,-547.5 781,-547.5 775,-541.5 775,-535.5 775,-535.5 775,-523.5 775,-523.5 775,-517.5 781,-511.5 787,-511.5"/>
<text text-anchor="middle" x="841" y="-527.3" font-family="Arial" font-size="9.00"># i_4 = PHI &lt;i_7(2), i_12(8)&gt;</text>
</g>
<!-- Node_5&#45;&gt;Node_10 -->
<g id="edge36" class="edge"><title>Node_5&#45;&gt;Node_10</title>
<path fill="none" stroke="tan" d="M841,-584.313C841,-576.289 841,-566.547 841,-557.569"/>
<polygon fill="tan" stroke="tan" points="844.5,-557.529 841,-547.529 837.5,-557.529 844.5,-557.529"/>
</g>
<!-- Node_6 -->
<g id="node7" class="node"><title>Node_6</title>
<path fill="lightblue" stroke="lightblue" d="M595,-438.5C595,-438.5 625,-438.5 625,-438.5 631,-438.5 637,-444.5 637,-450.5 637,-450.5 637,-462.5 637,-462.5 637,-468.5 631,-474.5 625,-474.5 625,-474.5 595,-474.5 595,-474.5 589,-474.5 583,-468.5 583,-462.5 583,-462.5 583,-450.5 583,-450.5 583,-444.5 589,-438.5 595,-438.5"/>
<text text-anchor="middle" x="610" y="-454.3" font-family="Arial" font-size="9.00">j_8 = 0</text>
</g>
<!-- Node_7 -->
<g id="node8" class="node"><title>Node_7</title>
<path fill="moccasin" stroke="moccasin" d="M573.5,-365.5C573.5,-365.5 646.5,-365.5 646.5,-365.5 652.5,-365.5 658.5,-371.5 658.5,-377.5 658.5,-377.5 658.5,-389.5 658.5,-389.5 658.5,-395.5 652.5,-401.5 646.5,-401.5 646.5,-401.5 573.5,-401.5 573.5,-401.5 567.5,-401.5 561.5,-395.5 561.5,-389.5 561.5,-389.5 561.5,-377.5 561.5,-377.5 561.5,-371.5 567.5,-365.5 573.5,-365.5"/>
<text text-anchor="middle" x="610" y="-381.3" font-family="Arial" font-size="9.00">j_8: [&#45;Infinity, Infinity]</text>
</g>
<!-- Node_6&#45;&gt;Node_7 -->
<g id="edge4" class="edge"><title>Node_6&#45;&gt;Node_7</title>
<path fill="none" stroke="steelblue" d="M610,-438.313C610,-430.289 610,-420.547 610,-411.569"/>
<polygon fill="steelblue" stroke="steelblue" points="613.5,-411.529 610,-401.529 606.5,-411.529 613.5,-411.529"/>
</g>
<!-- Node_16 -->
<g id="node17" class="node"><title>Node_16</title>
<path fill="lightblue" stroke="lightblue" d="M573,-292.5C573,-292.5 681,-292.5 681,-292.5 687,-292.5 693,-298.5 693,-304.5 693,-304.5 693,-316.5 693,-316.5 693,-322.5 687,-328.5 681,-328.5 681,-328.5 573,-328.5 573,-328.5 567,-328.5 561,-322.5 561,-316.5 561,-316.5 561,-304.5 561,-304.5 561,-298.5 567,-292.5 573,-292.5"/>
<text text-anchor="middle" x="627" y="-308.3" font-family="Arial" font-size="9.00"># j_5 = PHI &lt;j_8(3), j_11(6)&gt;</text>
</g>
<!-- Node_7&#45;&gt;Node_16 -->
<g id="edge32" class="edge"><title>Node_7&#45;&gt;Node_16</title>
<path fill="none" stroke="tan" d="M614.115,-365.313C616.057,-357.202 618.42,-347.336 620.589,-338.277"/>
<polygon fill="tan" stroke="tan" points="623.998,-339.069 622.923,-328.529 617.19,-337.439 623.998,-339.069"/>
</g>
<!-- Node_8 -->
<g id="node9" class="node"><title>Node_8</title>
<path fill="lightblue" stroke="lightblue" d="M864.5,-73.5C864.5,-73.5 927.5,-73.5 927.5,-73.5 933.5,-73.5 939.5,-79.5 939.5,-85.5 939.5,-85.5 939.5,-97.5 939.5,-97.5 939.5,-103.5 933.5,-109.5 927.5,-109.5 927.5,-109.5 864.5,-109.5 864.5,-109.5 858.5,-109.5 852.5,-103.5 852.5,-97.5 852.5,-97.5 852.5,-85.5 852.5,-85.5 852.5,-79.5 858.5,-73.5 864.5,-73.5"/>
<text text-anchor="middle" x="896" y="-89.3" font-family="Arial" font-size="9.00">i_12 = i_4_t_f + 1</text>
</g>
<!-- Node_9 -->
<g id="node10" class="node"><title>Node_9</title>
<path fill="moccasin" stroke="moccasin" d="M818,-0.5C818,-0.5 896,-0.5 896,-0.5 902,-0.5 908,-6.5 908,-12.5 908,-12.5 908,-24.5 908,-24.5 908,-30.5 902,-36.5 896,-36.5 896,-36.5 818,-36.5 818,-36.5 812,-36.5 806,-30.5 806,-24.5 806,-24.5 806,-12.5 806,-12.5 806,-6.5 812,-0.5 818,-0.5"/>
<text text-anchor="middle" x="857" y="-16.3" font-family="Arial" font-size="9.00">i_12: [&#45;Infinity, Infinity]</text>
</g>
<!-- Node_8&#45;&gt;Node_9 -->
<g id="edge5" class="edge"><title>Node_8&#45;&gt;Node_9</title>
<path fill="none" stroke="steelblue" d="M886.559,-73.3129C881.96,-64.9407 876.334,-54.6971 871.228,-45.4026"/>
<polygon fill="steelblue" stroke="steelblue" points="874.236,-43.6085 866.354,-36.5288 868.101,-46.9787 874.236,-43.6085"/>
</g>
<!-- Node_9&#45;&gt;Node_10 -->
<g id="edge27" class="edge"><title>Node_9&#45;&gt;Node_10</title>
<path fill="none" stroke="tan" d="M849.108,-36.8241C837.712,-63.4654 818,-116.361 818,-163.5 818,-384.5 818,-384.5 818,-384.5 818,-425.763 827.323,-472.853 834.097,-501.625"/>
<polygon fill="tan" stroke="tan" points="830.698,-502.459 836.456,-511.352 837.501,-500.809 830.698,-502.459"/>
</g>
<!-- Node_11 -->
<g id="node12" class="node"><title>Node_11</title>
<path fill="moccasin" stroke="moccasin" d="M859.5,-438.5C859.5,-438.5 932.5,-438.5 932.5,-438.5 938.5,-438.5 944.5,-444.5 944.5,-450.5 944.5,-450.5 944.5,-462.5 944.5,-462.5 944.5,-468.5 938.5,-474.5 932.5,-474.5 932.5,-474.5 859.5,-474.5 859.5,-474.5 853.5,-474.5 847.5,-468.5 847.5,-462.5 847.5,-462.5 847.5,-450.5 847.5,-450.5 847.5,-444.5 853.5,-438.5 859.5,-438.5"/>
<text text-anchor="middle" x="896" y="-454.3" font-family="Arial" font-size="9.00">i_4: [&#45;Infinity, Infinity]</text>
</g>
<!-- Node_10&#45;&gt;Node_11 -->
<g id="edge6" class="edge"><title>Node_10&#45;&gt;Node_11</title>
<path fill="none" stroke="steelblue" d="M854.314,-511.313C861.002,-502.679 869.232,-492.055 876.607,-482.534"/>
<polygon fill="steelblue" stroke="steelblue" points="879.452,-484.578 882.809,-474.529 873.918,-480.291 879.452,-484.578"/>
</g>
<!-- Node_32 -->
<g id="node33" class="node"><title>Node_32</title>
<path fill="lightblue" stroke="lightblue" d="M877,-365.5C877,-365.5 921,-365.5 921,-365.5 927,-365.5 933,-371.5 933,-377.5 933,-377.5 933,-389.5 933,-389.5 933,-395.5 927,-401.5 921,-401.5 921,-401.5 877,-401.5 877,-401.5 871,-401.5 865,-395.5 865,-389.5 865,-389.5 865,-377.5 865,-377.5 865,-371.5 871,-365.5 877,-365.5"/>
<text text-anchor="middle" x="899" y="-381.3" font-family="Arial" font-size="9.00">if (i_4 &lt;= 99)</text>
</g>
<!-- Node_11&#45;&gt;Node_32 -->
<g id="edge21" class="edge"><title>Node_11&#45;&gt;Node_32</title>
<path fill="none" stroke="tan" d="M896.726,-438.313C897.065,-430.289 897.477,-420.547 897.856,-411.569"/>
<polygon fill="tan" stroke="tan" points="901.355,-411.668 898.28,-401.529 894.361,-411.372 901.355,-411.668"/>
</g>
<!-- Node_12 -->
<g id="node13" class="node"><title>Node_12</title>
<path fill="lightblue" stroke="lightblue" d="M553,-146.5C553,-146.5 599,-146.5 599,-146.5 605,-146.5 611,-152.5 611,-158.5 611,-158.5 611,-170.5 611,-170.5 611,-176.5 605,-182.5 599,-182.5 599,-182.5 553,-182.5 553,-182.5 547,-182.5 541,-176.5 541,-170.5 541,-170.5 541,-158.5 541,-158.5 541,-152.5 547,-146.5 553,-146.5"/>
<text text-anchor="middle" x="576" y="-162.3" font-family="Arial" font-size="9.00">if (j_5 &lt;= i_4)</text>
</g>
<!-- Node_13 -->
<g id="node14" class="node"><title>Node_13</title>
<path fill="moccasin" stroke="moccasin" d="M493,-657.5C493,-657.5 573,-657.5 573,-657.5 579,-657.5 585,-663.5 585,-669.5 585,-669.5 585,-681.5 585,-681.5 585,-687.5 579,-693.5 573,-693.5 573,-693.5 493,-693.5 493,-693.5 487,-693.5 481,-687.5 481,-681.5 481,-681.5 481,-669.5 481,-669.5 481,-663.5 487,-657.5 493,-657.5"/>
<text text-anchor="middle" x="533" y="-673.3" font-family="Arial" font-size="9.00">j_5_t: [&#45;Infinity, Infinity]</text>
</g>
<!-- Node_12&#45;&gt;Node_13 -->
<g id="edge7" class="edge"><title>Node_12&#45;&gt;Node_13</title>
<path fill="none" stroke="steelblue" d="M567.298,-182.737C554.734,-209.265 533,-262.015 533,-309.5 533,-530.5 533,-530.5 533,-530.5 533,-571.067 533,-618.063 533,-647.039"/>
<polygon fill="steelblue" stroke="steelblue" points="529.5,-647.211 533,-657.211 536.5,-647.211 529.5,-647.211"/>
</g>
<!-- Node_26 -->
<g id="node27" class="node"><title>Node_26</title>
<path fill="lightblue" stroke="lightblue" d="M432.5,-584.5C432.5,-584.5 483.5,-584.5 483.5,-584.5 489.5,-584.5 495.5,-590.5 495.5,-596.5 495.5,-596.5 495.5,-608.5 495.5,-608.5 495.5,-614.5 489.5,-620.5 483.5,-620.5 483.5,-620.5 432.5,-620.5 432.5,-620.5 426.5,-620.5 420.5,-614.5 420.5,-608.5 420.5,-608.5 420.5,-596.5 420.5,-596.5 420.5,-590.5 426.5,-584.5 432.5,-584.5"/>
<text text-anchor="middle" x="458" y="-600.3" font-family="Arial" font-size="9.00">if (j_5_t == 99)</text>
</g>
<!-- Node_13&#45;&gt;Node_26 -->
<g id="edge24" class="edge"><title>Node_13&#45;&gt;Node_26</title>
<path fill="none" stroke="tan" d="M514.845,-657.313C505.448,-648.417 493.82,-637.409 483.533,-627.672"/>
<polygon fill="tan" stroke="tan" points="485.656,-624.862 475.988,-620.529 480.844,-629.945 485.656,-624.862"/>
</g>
<!-- Node_34 -->
<g id="node35" class="node"><title>Node_34</title>
<path fill="lightblue" stroke="lightblue" d="M604,-584.5C604,-584.5 652,-584.5 652,-584.5 658,-584.5 664,-590.5 664,-596.5 664,-596.5 664,-608.5 664,-608.5 664,-614.5 658,-620.5 652,-620.5 652,-620.5 604,-620.5 604,-620.5 598,-620.5 592,-614.5 592,-608.5 592,-608.5 592,-596.5 592,-596.5 592,-590.5 598,-584.5 604,-584.5"/>
<text text-anchor="middle" x="628" y="-600.3" font-family="Arial" font-size="9.00">if (j_5_t != 99)</text>
</g>
<!-- Node_13&#45;&gt;Node_34 -->
<g id="edge25" class="edge"><title>Node_13&#45;&gt;Node_34</title>
<path fill="none" stroke="tan" d="M555.997,-657.313C568.366,-648.069 583.788,-636.543 597.182,-626.532"/>
<polygon fill="tan" stroke="tan" points="599.3,-629.319 605.215,-620.529 595.11,-623.712 599.3,-629.319"/>
</g>
<!-- Node_14 -->
<g id="node15" class="node"><title>Node_14</title>
<path fill="lightblue" stroke="lightblue" d="M65.5,-438.5C65.5,-438.5 110.5,-438.5 110.5,-438.5 116.5,-438.5 122.5,-444.5 122.5,-450.5 122.5,-450.5 122.5,-462.5 122.5,-462.5 122.5,-468.5 116.5,-474.5 110.5,-474.5 110.5,-474.5 65.5,-474.5 65.5,-474.5 59.5,-474.5 53.5,-468.5 53.5,-462.5 53.5,-462.5 53.5,-450.5 53.5,-450.5 53.5,-444.5 59.5,-438.5 65.5,-438.5"/>
<text text-anchor="middle" x="88" y="-454.3" font-family="Arial" font-size="9.00">sum_6 = &#45;10</text>
</g>
<!-- Node_15 -->
<g id="node16" class="node"><title>Node_15</title>
<path fill="moccasin" stroke="moccasin" d="M43.5,-365.5C43.5,-365.5 132.5,-365.5 132.5,-365.5 138.5,-365.5 144.5,-371.5 144.5,-377.5 144.5,-377.5 144.5,-389.5 144.5,-389.5 144.5,-395.5 138.5,-401.5 132.5,-401.5 132.5,-401.5 43.5,-401.5 43.5,-401.5 37.5,-401.5 31.5,-395.5 31.5,-389.5 31.5,-389.5 31.5,-377.5 31.5,-377.5 31.5,-371.5 37.5,-365.5 43.5,-365.5"/>
<text text-anchor="middle" x="88" y="-381.3" font-family="Arial" font-size="9.00">sum_6: [&#45;Infinity, Infinity]</text>
</g>
<!-- Node_14&#45;&gt;Node_15 -->
<g id="edge8" class="edge"><title>Node_14&#45;&gt;Node_15</title>
<path fill="none" stroke="steelblue" d="M88,-438.313C88,-430.289 88,-420.547 88,-411.569"/>
<polygon fill="steelblue" stroke="steelblue" points="91.5001,-411.529 88,-401.529 84.5001,-411.529 91.5001,-411.529"/>
</g>
<!-- Node_15&#45;&gt;Node_30 -->
<g id="edge34" class="edge"><title>Node_15&#45;&gt;Node_30</title>
<path fill="none" stroke="tan" d="M88,-365.313C88,-357.289 88,-347.547 88,-338.569"/>
<polygon fill="tan" stroke="tan" points="91.5001,-338.529 88,-328.529 84.5001,-338.529 91.5001,-338.529"/>
</g>
<!-- Node_17 -->
<g id="node18" class="node"><title>Node_17</title>
<path fill="moccasin" stroke="moccasin" d="M582.5,-219.5C582.5,-219.5 655.5,-219.5 655.5,-219.5 661.5,-219.5 667.5,-225.5 667.5,-231.5 667.5,-231.5 667.5,-243.5 667.5,-243.5 667.5,-249.5 661.5,-255.5 655.5,-255.5 655.5,-255.5 582.5,-255.5 582.5,-255.5 576.5,-255.5 570.5,-249.5 570.5,-243.5 570.5,-243.5 570.5,-231.5 570.5,-231.5 570.5,-225.5 576.5,-219.5 582.5,-219.5"/>
<text text-anchor="middle" x="619" y="-235.3" font-family="Arial" font-size="9.00">j_5: [&#45;Infinity, Infinity]</text>
</g>
<!-- Node_16&#45;&gt;Node_17 -->
<g id="edge9" class="edge"><title>Node_16&#45;&gt;Node_17</title>
<path fill="none" stroke="steelblue" d="M625.063,-292.313C624.159,-284.289 623.062,-274.547 622.05,-265.569"/>
<polygon fill="steelblue" stroke="steelblue" points="625.516,-265.074 620.919,-255.529 618.561,-265.858 625.516,-265.074"/>
</g>
<!-- Node_17&#45;&gt;Node_12 -->
<g id="edge26" class="edge"><title>Node_17&#45;&gt;Node_12</title>
<path fill="none" stroke="tan" d="M608.591,-219.313C603.468,-210.853 597.187,-200.484 591.512,-191.112"/>
<polygon fill="tan" stroke="tan" points="594.487,-189.269 586.313,-182.529 588.5,-192.896 594.487,-189.269"/>
</g>
<!-- Node_18 -->
<g id="node19" class="node"><title>Node_18</title>
<path fill="lightblue" stroke="lightblue" d="M878,-219.5C878,-219.5 926,-219.5 926,-219.5 932,-219.5 938,-225.5 938,-231.5 938,-231.5 938,-243.5 938,-243.5 938,-249.5 932,-255.5 926,-255.5 926,-255.5 878,-255.5 878,-255.5 872,-255.5 866,-249.5 866,-243.5 866,-243.5 866,-231.5 866,-231.5 866,-225.5 872,-219.5 878,-219.5"/>
<text text-anchor="middle" x="902" y="-235.3" font-family="Arial" font-size="9.00">if (j_5 &gt; i_4_t)</text>
</g>
<!-- Node_19 -->
<g id="node20" class="node"><title>Node_19</title>
<path fill="moccasin" stroke="moccasin" d="M858,-146.5C858,-146.5 946,-146.5 946,-146.5 952,-146.5 958,-152.5 958,-158.5 958,-158.5 958,-170.5 958,-170.5 958,-176.5 952,-182.5 946,-182.5 946,-182.5 858,-182.5 858,-182.5 852,-182.5 846,-176.5 846,-170.5 846,-170.5 846,-158.5 846,-158.5 846,-152.5 852,-146.5 858,-146.5"/>
<text text-anchor="middle" x="902" y="-162.3" font-family="Arial" font-size="9.00">i_4_t_f: [&#45;Infinity, Infinity]</text>
</g>
<!-- Node_18&#45;&gt;Node_19 -->
<g id="edge10" class="edge"><title>Node_18&#45;&gt;Node_19</title>
<path fill="none" stroke="steelblue" d="M902,-219.313C902,-211.289 902,-201.547 902,-192.569"/>
<polygon fill="steelblue" stroke="steelblue" points="905.5,-192.529 902,-182.529 898.5,-192.529 905.5,-192.529"/>
</g>
<!-- Node_19&#45;&gt;Node_8 -->
<g id="edge19" class="edge"><title>Node_19&#45;&gt;Node_8</title>
<path fill="none" stroke="tan" d="M900.548,-146.313C899.87,-138.289 899.046,-128.547 898.288,-119.569"/>
<polygon fill="tan" stroke="tan" points="901.769,-119.199 897.439,-109.529 894.794,-119.788 901.769,-119.199"/>
</g>
<!-- Node_20 -->
<g id="node21" class="node"><title>Node_20</title>
<path fill="lightblue" stroke="lightblue" d="M681.5,-438.5C681.5,-438.5 744.5,-438.5 744.5,-438.5 750.5,-438.5 756.5,-444.5 756.5,-450.5 756.5,-450.5 756.5,-462.5 756.5,-462.5 756.5,-468.5 750.5,-474.5 744.5,-474.5 744.5,-474.5 681.5,-474.5 681.5,-474.5 675.5,-474.5 669.5,-468.5 669.5,-462.5 669.5,-462.5 669.5,-450.5 669.5,-450.5 669.5,-444.5 675.5,-438.5 681.5,-438.5"/>
<text text-anchor="middle" x="713" y="-454.3" font-family="Arial" font-size="9.00">j_11 = j_5_t_f + 1</text>
</g>
<!-- Node_21 -->
<g id="node22" class="node"><title>Node_21</title>
<path fill="moccasin" stroke="moccasin" d="M689,-365.5C689,-365.5 767,-365.5 767,-365.5 773,-365.5 779,-371.5 779,-377.5 779,-377.5 779,-389.5 779,-389.5 779,-395.5 773,-401.5 767,-401.5 767,-401.5 689,-401.5 689,-401.5 683,-401.5 677,-395.5 677,-389.5 677,-389.5 677,-377.5 677,-377.5 677,-371.5 683,-365.5 689,-365.5"/>
<text text-anchor="middle" x="728" y="-381.3" font-family="Arial" font-size="9.00">j_11: [&#45;Infinity, Infinity]</text>
</g>
<!-- Node_20&#45;&gt;Node_21 -->
<g id="edge11" class="edge"><title>Node_20&#45;&gt;Node_21</title>
<path fill="none" stroke="steelblue" d="M716.631,-438.313C718.326,-430.289 720.384,-420.547 722.281,-411.569"/>
<polygon fill="steelblue" stroke="steelblue" points="725.76,-412.036 724.402,-401.529 718.911,-410.589 725.76,-412.036"/>
</g>
<!-- Node_21&#45;&gt;Node_16 -->
<g id="edge35" class="edge"><title>Node_21&#45;&gt;Node_16</title>
<path fill="none" stroke="tan" d="M703.808,-365.494C690.663,-356.253 674.217,-344.692 659.92,-334.642"/>
<polygon fill="tan" stroke="tan" points="661.538,-331.501 651.345,-328.614 657.513,-337.228 661.538,-331.501"/>
</g>
<!-- Node_22 -->
<g id="node23" class="node"><title>Node_22</title>
<path fill="lightblue" stroke="lightblue" d="M410.5,-438.5C410.5,-438.5 487.5,-438.5 487.5,-438.5 493.5,-438.5 499.5,-444.5 499.5,-450.5 499.5,-450.5 499.5,-462.5 499.5,-462.5 499.5,-468.5 493.5,-474.5 487.5,-474.5 487.5,-474.5 410.5,-474.5 410.5,-474.5 404.5,-474.5 398.5,-468.5 398.5,-462.5 398.5,-462.5 398.5,-450.5 398.5,-450.5 398.5,-444.5 404.5,-438.5 410.5,-438.5"/>
<text text-anchor="middle" x="449" y="-454.3" font-family="Arial" font-size="9.00">_9 = j_5_t_t * j_5_t_t</text>
</g>
<!-- Node_23 -->
<g id="node24" class="node"><title>Node_23</title>
<path fill="moccasin" stroke="moccasin" d="M413.5,-365.5C413.5,-365.5 484.5,-365.5 484.5,-365.5 490.5,-365.5 496.5,-371.5 496.5,-377.5 496.5,-377.5 496.5,-389.5 496.5,-389.5 496.5,-395.5 490.5,-401.5 484.5,-401.5 484.5,-401.5 413.5,-401.5 413.5,-401.5 407.5,-401.5 401.5,-395.5 401.5,-389.5 401.5,-389.5 401.5,-377.5 401.5,-377.5 401.5,-371.5 407.5,-365.5 413.5,-365.5"/>
<text text-anchor="middle" x="449" y="-381.3" font-family="Arial" font-size="9.00">_9: [&#45;Infinity, Infinity]</text>
</g>
<!-- Node_22&#45;&gt;Node_23 -->
<g id="edge12" class="edge"><title>Node_22&#45;&gt;Node_23</title>
<path fill="none" stroke="steelblue" d="M449,-438.313C449,-430.289 449,-420.547 449,-411.569"/>
<polygon fill="steelblue" stroke="steelblue" points="452.5,-411.529 449,-401.529 445.5,-411.529 452.5,-411.529"/>
</g>
<!-- Node_23&#45;&gt;Node_2 -->
<g id="edge20" class="edge"><title>Node_23&#45;&gt;Node_2</title>
<path fill="none" stroke="tan" d="M440.77,-365.313C436.802,-357.028 431.957,-346.91 427.543,-337.693"/>
<polygon fill="tan" stroke="tan" points="430.63,-336.036 423.155,-328.529 424.317,-339.06 430.63,-336.036"/>
</g>
<!-- Node_25 -->
<g id="node26" class="node"><title>Node_25</title>
<path fill="moccasin" stroke="moccasin" d="M260.5,-73.5C260.5,-73.5 349.5,-73.5 349.5,-73.5 355.5,-73.5 361.5,-79.5 361.5,-85.5 361.5,-85.5 361.5,-97.5 361.5,-97.5 361.5,-103.5 355.5,-109.5 349.5,-109.5 349.5,-109.5 260.5,-109.5 260.5,-109.5 254.5,-109.5 248.5,-103.5 248.5,-97.5 248.5,-97.5 248.5,-85.5 248.5,-85.5 248.5,-79.5 254.5,-73.5 260.5,-73.5"/>
<text text-anchor="middle" x="305" y="-89.3" font-family="Arial" font-size="9.00">sum_1: [&#45;Infinity, Infinity]</text>
</g>
<!-- Node_24&#45;&gt;Node_25 -->
<g id="edge13" class="edge"><title>Node_24&#45;&gt;Node_25</title>
<path fill="none" stroke="steelblue" d="M347.444,-146.313C340.634,-137.679 332.255,-127.055 324.745,-117.534"/>
<polygon fill="steelblue" stroke="steelblue" points="327.372,-115.213 318.431,-109.529 321.876,-119.548 327.372,-115.213"/>
</g>
<!-- Node_25&#45;&gt;Node_0 -->
<g id="edge22" class="edge"><title>Node_25&#45;&gt;Node_0</title>
<path fill="none" stroke="tan" d="M287.117,-109.781C277.979,-119.585 267.454,-132.557 261,-146 243.212,-183.05 242,-195.401 242,-236.5 242,-311.5 242,-311.5 242,-311.5 242,-352.067 242,-399.063 242,-428.039"/>
<polygon fill="tan" stroke="tan" points="238.5,-428.211 242,-438.211 245.5,-428.211 238.5,-428.211"/>
</g>
<!-- Node_27 -->
<g id="node28" class="node"><title>Node_27</title>
<path fill="moccasin" stroke="moccasin" d="M405,-511.5C405,-511.5 493,-511.5 493,-511.5 499,-511.5 505,-517.5 505,-523.5 505,-523.5 505,-535.5 505,-535.5 505,-541.5 499,-547.5 493,-547.5 493,-547.5 405,-547.5 405,-547.5 399,-547.5 393,-541.5 393,-535.5 393,-535.5 393,-523.5 393,-523.5 393,-517.5 399,-511.5 405,-511.5"/>
<text text-anchor="middle" x="449" y="-527.3" font-family="Arial" font-size="9.00">j_5_t_t: [&#45;Infinity, Infinity]</text>
</g>
<!-- Node_26&#45;&gt;Node_27 -->
<g id="edge14" class="edge"><title>Node_26&#45;&gt;Node_27</title>
<path fill="none" stroke="steelblue" d="M455.821,-584.313C454.804,-576.289 453.569,-566.547 452.431,-557.569"/>
<polygon fill="steelblue" stroke="steelblue" points="455.888,-557.009 451.159,-547.529 448.944,-557.89 455.888,-557.009"/>
</g>
<!-- Node_27&#45;&gt;Node_22 -->
<g id="edge28" class="edge"><title>Node_27&#45;&gt;Node_22</title>
<path fill="none" stroke="tan" d="M449,-511.313C449,-503.289 449,-493.547 449,-484.569"/>
<polygon fill="tan" stroke="tan" points="452.5,-484.529 449,-474.529 445.5,-484.529 452.5,-484.529"/>
</g>
<!-- Node_28 -->
<g id="node29" class="node"><title>Node_28</title>
<path fill="lightblue" stroke="lightblue" d="M99.5,-146.5C99.5,-146.5 146.5,-146.5 146.5,-146.5 152.5,-146.5 158.5,-152.5 158.5,-158.5 158.5,-158.5 158.5,-170.5 158.5,-170.5 158.5,-176.5 152.5,-182.5 146.5,-182.5 146.5,-182.5 99.5,-182.5 99.5,-182.5 93.5,-182.5 87.5,-176.5 87.5,-170.5 87.5,-170.5 87.5,-158.5 87.5,-158.5 87.5,-152.5 93.5,-146.5 99.5,-146.5"/>
<text text-anchor="middle" x="123" y="-162.3" font-family="Arial" font-size="9.00">_13 = sum_3</text>
</g>
<!-- Node_29 -->
<g id="node30" class="node"><title>Node_29</title>
<path fill="moccasin" stroke="moccasin" d="M85,-73.5C85,-73.5 161,-73.5 161,-73.5 167,-73.5 173,-79.5 173,-85.5 173,-85.5 173,-97.5 173,-97.5 173,-103.5 167,-109.5 161,-109.5 161,-109.5 85,-109.5 85,-109.5 79,-109.5 73,-103.5 73,-97.5 73,-97.5 73,-85.5 73,-85.5 73,-79.5 79,-73.5 85,-73.5"/>
<text text-anchor="middle" x="123" y="-89.3" font-family="Arial" font-size="9.00">_13: [&#45;Infinity, Infinity]</text>
</g>
<!-- Node_28&#45;&gt;Node_29 -->
<g id="edge15" class="edge"><title>Node_28&#45;&gt;Node_29</title>
<path fill="none" stroke="steelblue" d="M123,-146.313C123,-138.289 123,-128.547 123,-119.569"/>
<polygon fill="steelblue" stroke="steelblue" points="126.5,-119.529 123,-109.529 119.5,-119.529 126.5,-119.529"/>
</g>
<!-- Node_31 -->
<g id="node32" class="node"><title>Node_31</title>
<path fill="moccasin" stroke="moccasin" d="M78.5,-219.5C78.5,-219.5 167.5,-219.5 167.5,-219.5 173.5,-219.5 179.5,-225.5 179.5,-231.5 179.5,-231.5 179.5,-243.5 179.5,-243.5 179.5,-249.5 173.5,-255.5 167.5,-255.5 167.5,-255.5 78.5,-255.5 78.5,-255.5 72.5,-255.5 66.5,-249.5 66.5,-243.5 66.5,-243.5 66.5,-231.5 66.5,-231.5 66.5,-225.5 72.5,-219.5 78.5,-219.5"/>
<text text-anchor="middle" x="123" y="-235.3" font-family="Arial" font-size="9.00">sum_3: [&#45;Infinity, Infinity]</text>
</g>
<!-- Node_30&#45;&gt;Node_31 -->
<g id="edge16" class="edge"><title>Node_30&#45;&gt;Node_31</title>
<path fill="none" stroke="steelblue" d="M96.4725,-292.313C100.557,-284.028 105.544,-273.91 110.088,-264.693"/>
<polygon fill="steelblue" stroke="steelblue" points="113.323,-266.046 114.605,-255.529 107.045,-262.951 113.323,-266.046"/>
</g>
<!-- Node_31&#45;&gt;Node_0 -->
<g id="edge37" class="edge"><title>Node_31&#45;&gt;Node_0</title>
<path fill="none" stroke="tan" d="M148.47,-255.574C160.947,-265.044 175.327,-277.774 185,-292 200.472,-314.754 222.964,-388.573 234.524,-428.789"/>
<polygon fill="tan" stroke="tan" points="231.176,-429.813 237.282,-438.471 237.908,-427.895 231.176,-429.813"/>
</g>
<!-- Node_31&#45;&gt;Node_28 -->
<g id="edge38" class="edge"><title>Node_31&#45;&gt;Node_28</title>
<path fill="none" stroke="tan" d="M123,-219.313C123,-211.289 123,-201.547 123,-192.569"/>
<polygon fill="tan" stroke="tan" points="126.5,-192.529 123,-182.529 119.5,-192.529 126.5,-192.529"/>
</g>
<!-- Node_33 -->
<g id="node34" class="node"><title>Node_33</title>
<path fill="moccasin" stroke="moccasin" d="M861,-292.5C861,-292.5 941,-292.5 941,-292.5 947,-292.5 953,-298.5 953,-304.5 953,-304.5 953,-316.5 953,-316.5 953,-322.5 947,-328.5 941,-328.5 941,-328.5 861,-328.5 861,-328.5 855,-328.5 849,-322.5 849,-316.5 849,-316.5 849,-304.5 849,-304.5 849,-298.5 855,-292.5 861,-292.5"/>
<text text-anchor="middle" x="901" y="-308.3" font-family="Arial" font-size="9.00">i_4_t: [&#45;Infinity, Infinity]</text>
</g>
<!-- Node_32&#45;&gt;Node_33 -->
<g id="edge17" class="edge"><title>Node_32&#45;&gt;Node_33</title>
<path fill="none" stroke="steelblue" d="M899.484,-365.313C899.71,-357.289 899.985,-347.547 900.237,-338.569"/>
<polygon fill="steelblue" stroke="steelblue" points="903.737,-338.623 900.52,-328.529 896.74,-338.426 903.737,-338.623"/>
</g>
<!-- Node_33&#45;&gt;Node_18 -->
<g id="edge23" class="edge"><title>Node_33&#45;&gt;Node_18</title>
<path fill="none" stroke="tan" d="M901.242,-292.313C901.355,-284.289 901.492,-274.547 901.619,-265.569"/>
<polygon fill="tan" stroke="tan" points="905.119,-265.577 901.76,-255.529 898.12,-265.479 905.119,-265.577"/>
</g>
<!-- Node_35 -->
<g id="node36" class="node"><title>Node_35</title>
<path fill="moccasin" stroke="moccasin" d="M615,-511.5C615,-511.5 703,-511.5 703,-511.5 709,-511.5 715,-517.5 715,-523.5 715,-523.5 715,-535.5 715,-535.5 715,-541.5 709,-547.5 703,-547.5 703,-547.5 615,-547.5 615,-547.5 609,-547.5 603,-541.5 603,-535.5 603,-535.5 603,-523.5 603,-523.5 603,-517.5 609,-511.5 615,-511.5"/>
<text text-anchor="middle" x="659" y="-527.3" font-family="Arial" font-size="9.00">j_5_t_f: [&#45;Infinity, Infinity]</text>
</g>
<!-- Node_34&#45;&gt;Node_35 -->
<g id="edge18" class="edge"><title>Node_34&#45;&gt;Node_35</title>
<path fill="none" stroke="steelblue" d="M635.504,-584.313C639.084,-576.115 643.446,-566.123 647.436,-556.985"/>
<polygon fill="steelblue" stroke="steelblue" points="650.771,-558.094 651.565,-547.529 644.356,-555.293 650.771,-558.094"/>
</g>
<!-- Node_35&#45;&gt;Node_20 -->
<g id="edge33" class="edge"><title>Node_35&#45;&gt;Node_20</title>
<path fill="none" stroke="tan" d="M672.072,-511.313C678.638,-502.679 686.719,-492.055 693.96,-482.534"/>
<polygon fill="tan" stroke="tan" points="696.781,-484.607 700.048,-474.529 691.209,-480.37 696.781,-484.607"/>
</g>
</g>
</svg>
