<?xml version="1.0" encoding="UTF-8" standalone="no"?>
<!DOCTYPE svg PUBLIC "-//W3C//DTD SVG 1.1//EN"
 "http://www.w3.org/Graphics/SVG/1.1/DTD/svg11.dtd">
<!-- Generated by graphviz version 2.38.0 (20140413.2041)
 -->
<!-- Title: t9_foo_ConstraintGraph Pages: 1 -->
<svg width="727pt" height="1161pt"
     viewBox="0.00 0.00 727.00 1161.00" xmlns="http://www.w3.org/2000/svg">
<g id="graph0" class="graph" transform="scale(1 1) rotate(0) translate(4 1157)">
<title>t9_foo_ConstraintGraph</title>
<polygon fill="white" stroke="none" points="-4,4 -4,-1157 723,-1157 723,4 -4,4"/>
<text text-anchor="middle" x="359.5" y="-1139.4" font-family="Arial" font-size="12.00">t9_foo_ConstraintGraph</text>
<!-- Node_0 -->
<g id="node1" class="node"><title>Node_0</title>
<path fill="lightblue" stroke="lightblue" d="M20.5,-1095.5C20.5,-1095.5 66.5,-1095.5 66.5,-1095.5 72.5,-1095.5 78.5,-1101.5 78.5,-1107.5 78.5,-1107.5 78.5,-1119.5 78.5,-1119.5 78.5,-1125.5 72.5,-1131.5 66.5,-1131.5 66.5,-1131.5 20.5,-1131.5 20.5,-1131.5 14.5,-1131.5 8.5,-1125.5 8.5,-1119.5 8.5,-1119.5 8.5,-1107.5 8.5,-1107.5 8.5,-1101.5 14.5,-1095.5 20.5,-1095.5"/>
<text text-anchor="middle" x="43.5" y="-1111.3" font-family="Arial" font-size="9.00">if (j_5 &lt;= i_4)</text>
</g>
<!-- Node_1 -->
<g id="node2" class="node"><title>Node_1</title>
<path fill="moccasin" stroke="moccasin" d="M45.5,-1022.5C45.5,-1022.5 125.5,-1022.5 125.5,-1022.5 131.5,-1022.5 137.5,-1028.5 137.5,-1034.5 137.5,-1034.5 137.5,-1046.5 137.5,-1046.5 137.5,-1052.5 131.5,-1058.5 125.5,-1058.5 125.5,-1058.5 45.5,-1058.5 45.5,-1058.5 39.5,-1058.5 33.5,-1052.5 33.5,-1046.5 33.5,-1046.5 33.5,-1034.5 33.5,-1034.5 33.5,-1028.5 39.5,-1022.5 45.5,-1022.5"/>
<text text-anchor="middle" x="85.5" y="-1038.3" font-family="Arial" font-size="9.00">j_5_t: [&#45;Infinity, Infinity]</text>
</g>
<!-- Node_0&#45;&gt;Node_1 -->
<g id="edge1" class="edge"><title>Node_0&#45;&gt;Node_1</title>
<path fill="none" stroke="steelblue" d="M53.667,-1095.31C58.6196,-1086.94 64.6792,-1076.7 70.1773,-1067.4"/>
<polygon fill="steelblue" stroke="steelblue" points="73.3476,-1068.92 75.4266,-1058.53 67.3228,-1065.35 73.3476,-1068.92"/>
</g>
<!-- Node_18 -->
<g id="node19" class="node"><title>Node_18</title>
<path fill="lightblue" stroke="lightblue" d="M182,-949.5C182,-949.5 233,-949.5 233,-949.5 239,-949.5 245,-955.5 245,-961.5 245,-961.5 245,-973.5 245,-973.5 245,-979.5 239,-985.5 233,-985.5 233,-985.5 182,-985.5 182,-985.5 176,-985.5 170,-979.5 170,-973.5 170,-973.5 170,-961.5 170,-961.5 170,-955.5 176,-949.5 182,-949.5"/>
<text text-anchor="middle" x="207.5" y="-965.3" font-family="Arial" font-size="9.00">if (j_5_t == 99)</text>
</g>
<!-- Node_1&#45;&gt;Node_18 -->
<g id="edge28" class="edge"><title>Node_1&#45;&gt;Node_18</title>
<path fill="none" stroke="tan" d="M114.722,-1022.49C131.05,-1012.99 151.593,-1001.04 169.195,-990.792"/>
<polygon fill="tan" stroke="tan" points="171.211,-993.669 178.094,-985.614 167.69,-987.618 171.211,-993.669"/>
</g>
<!-- Node_26 -->
<g id="node27" class="node"><title>Node_26</title>
<path fill="lightblue" stroke="lightblue" d="M61.5,-949.5C61.5,-949.5 109.5,-949.5 109.5,-949.5 115.5,-949.5 121.5,-955.5 121.5,-961.5 121.5,-961.5 121.5,-973.5 121.5,-973.5 121.5,-979.5 115.5,-985.5 109.5,-985.5 109.5,-985.5 61.5,-985.5 61.5,-985.5 55.5,-985.5 49.5,-979.5 49.5,-973.5 49.5,-973.5 49.5,-961.5 49.5,-961.5 49.5,-955.5 55.5,-949.5 61.5,-949.5"/>
<text text-anchor="middle" x="85.5" y="-965.3" font-family="Arial" font-size="9.00">if (j_5_t != 99)</text>
</g>
<!-- Node_1&#45;&gt;Node_26 -->
<g id="edge29" class="edge"><title>Node_1&#45;&gt;Node_26</title>
<path fill="none" stroke="tan" d="M85.5,-1022.31C85.5,-1014.29 85.5,-1004.55 85.5,-995.569"/>
<polygon fill="tan" stroke="tan" points="89.0001,-995.529 85.5,-985.529 82.0001,-995.529 89.0001,-995.529"/>
</g>
<!-- Node_2 -->
<g id="node3" class="node"><title>Node_2</title>
<path fill="lightblue" stroke="lightblue" d="M301.5,-511.5C301.5,-511.5 459.5,-511.5 459.5,-511.5 465.5,-511.5 471.5,-517.5 471.5,-523.5 471.5,-523.5 471.5,-535.5 471.5,-535.5 471.5,-541.5 465.5,-547.5 459.5,-547.5 459.5,-547.5 301.5,-547.5 301.5,-547.5 295.5,-547.5 289.5,-541.5 289.5,-535.5 289.5,-535.5 289.5,-523.5 289.5,-523.5 289.5,-517.5 295.5,-511.5 301.5,-511.5"/>
<text text-anchor="middle" x="380.5" y="-527.3" font-family="Arial" font-size="9.00"># sum_1 = PHI &lt;sum_2(4), sum_10(5)&gt;</text>
</g>
<!-- Node_3 -->
<g id="node4" class="node"><title>Node_3</title>
<path fill="moccasin" stroke="moccasin" d="M355,-438.5C355,-438.5 444,-438.5 444,-438.5 450,-438.5 456,-444.5 456,-450.5 456,-450.5 456,-462.5 456,-462.5 456,-468.5 450,-474.5 444,-474.5 444,-474.5 355,-474.5 355,-474.5 349,-474.5 343,-468.5 343,-462.5 343,-462.5 343,-450.5 343,-450.5 343,-444.5 349,-438.5 355,-438.5"/>
<text text-anchor="middle" x="399.5" y="-454.3" font-family="Arial" font-size="9.00">sum_1: [&#45;Infinity, Infinity]</text>
</g>
<!-- Node_2&#45;&gt;Node_3 -->
<g id="edge2" class="edge"><title>Node_2&#45;&gt;Node_3</title>
<path fill="none" stroke="steelblue" d="M385.099,-511.313C387.27,-503.202 389.91,-493.336 392.334,-484.277"/>
<polygon fill="steelblue" stroke="steelblue" points="395.739,-485.094 394.943,-474.529 388.977,-483.284 395.739,-485.094"/>
</g>
<!-- Node_4 -->
<g id="node5" class="node"><title>Node_4</title>
<path fill="lightblue" stroke="lightblue" d="M339.5,-365.5C339.5,-365.5 491.5,-365.5 491.5,-365.5 497.5,-365.5 503.5,-371.5 503.5,-377.5 503.5,-377.5 503.5,-389.5 503.5,-389.5 503.5,-395.5 497.5,-401.5 491.5,-401.5 491.5,-401.5 339.5,-401.5 339.5,-401.5 333.5,-401.5 327.5,-395.5 327.5,-389.5 327.5,-389.5 327.5,-377.5 327.5,-377.5 327.5,-371.5 333.5,-365.5 339.5,-365.5"/>
<text text-anchor="middle" x="415.5" y="-381.3" font-family="Arial" font-size="9.00"># sum_2 = PHI &lt;sum_3(3), sum_1(6)&gt;</text>
</g>
<!-- Node_3&#45;&gt;Node_4 -->
<g id="edge33" class="edge"><title>Node_3&#45;&gt;Node_4</title>
<path fill="none" stroke="tan" d="M403.373,-438.313C405.181,-430.289 407.377,-420.547 409.4,-411.569"/>
<polygon fill="tan" stroke="tan" points="412.878,-412.054 411.663,-401.529 406.05,-410.515 412.878,-412.054"/>
</g>
<!-- Node_5 -->
<g id="node6" class="node"><title>Node_5</title>
<path fill="moccasin" stroke="moccasin" d="M255,-292.5C255,-292.5 344,-292.5 344,-292.5 350,-292.5 356,-298.5 356,-304.5 356,-304.5 356,-316.5 356,-316.5 356,-322.5 350,-328.5 344,-328.5 344,-328.5 255,-328.5 255,-328.5 249,-328.5 243,-322.5 243,-316.5 243,-316.5 243,-304.5 243,-304.5 243,-298.5 249,-292.5 255,-292.5"/>
<text text-anchor="middle" x="299.5" y="-308.3" font-family="Arial" font-size="9.00">sum_2: [&#45;Infinity, Infinity]</text>
</g>
<!-- Node_4&#45;&gt;Node_5 -->
<g id="edge3" class="edge"><title>Node_4&#45;&gt;Node_5</title>
<path fill="none" stroke="steelblue" d="M387.715,-365.494C372.333,-356.079 353.016,-344.255 336.383,-334.075"/>
<polygon fill="steelblue" stroke="steelblue" points="337.817,-330.849 327.46,-328.614 334.162,-336.819 337.817,-330.849"/>
</g>
<!-- Node_5&#45;&gt;Node_2 -->
<g id="edge24" class="edge"><title>Node_5&#45;&gt;Node_2</title>
<path fill="none" stroke="tan" d="M300.209,-328.671C302.087,-359.523 308.901,-425.712 333.5,-475 338.741,-485.502 346.559,-495.573 354.322,-504.087"/>
<polygon fill="tan" stroke="tan" points="351.915,-506.635 361.359,-511.437 356.971,-501.794 351.915,-506.635"/>
</g>
<!-- Node_16 -->
<g id="node17" class="node"><title>Node_16</title>
<path fill="lightblue" stroke="lightblue" d="M323.5,-219.5C323.5,-219.5 475.5,-219.5 475.5,-219.5 481.5,-219.5 487.5,-225.5 487.5,-231.5 487.5,-231.5 487.5,-243.5 487.5,-243.5 487.5,-249.5 481.5,-255.5 475.5,-255.5 475.5,-255.5 323.5,-255.5 323.5,-255.5 317.5,-255.5 311.5,-249.5 311.5,-243.5 311.5,-243.5 311.5,-231.5 311.5,-231.5 311.5,-225.5 317.5,-219.5 323.5,-219.5"/>
<text text-anchor="middle" x="399.5" y="-235.3" font-family="Arial" font-size="9.00"># sum_3 = PHI &lt;sum_6(2), sum_2(8)&gt;</text>
</g>
<!-- Node_5&#45;&gt;Node_16 -->
<g id="edge25" class="edge"><title>Node_5&#45;&gt;Node_16</title>
<path fill="none" stroke="tan" d="M323.452,-292.494C336.468,-283.253 352.75,-271.692 366.906,-261.642"/>
<polygon fill="tan" stroke="tan" points="369.269,-264.257 375.396,-255.614 365.216,-258.549 369.269,-264.257"/>
</g>
<!-- Node_34 -->
<g id="node35" class="node"><title>Node_34</title>
<path fill="lightblue" stroke="lightblue" d="M270.5,-657.5C270.5,-657.5 356.5,-657.5 356.5,-657.5 362.5,-657.5 368.5,-663.5 368.5,-669.5 368.5,-669.5 368.5,-681.5 368.5,-681.5 368.5,-687.5 362.5,-693.5 356.5,-693.5 356.5,-693.5 270.5,-693.5 270.5,-693.5 264.5,-693.5 258.5,-687.5 258.5,-681.5 258.5,-681.5 258.5,-669.5 258.5,-669.5 258.5,-663.5 264.5,-657.5 270.5,-657.5"/>
<text text-anchor="middle" x="313.5" y="-673.3" font-family="Arial" font-size="9.00">sum_10 = _9 + sum_2</text>
</g>
<!-- Node_5&#45;&gt;Node_34 -->
<g id="edge26" class="edge"><title>Node_5&#45;&gt;Node_34</title>
<path fill="none" stroke="tan" d="M291.81,-328.845C280.706,-355.513 261.5,-408.442 261.5,-455.5 261.5,-530.5 261.5,-530.5 261.5,-530.5 261.5,-573.963 282.715,-620.652 298.043,-648.715"/>
<polygon fill="tan" stroke="tan" points="295.024,-650.486 302.977,-657.486 301.125,-647.054 295.024,-650.486"/>
</g>
<!-- Node_6 -->
<g id="node7" class="node"><title>Node_6</title>
<path fill="lightblue" stroke="lightblue" d="M41.5,-657.5C41.5,-657.5 149.5,-657.5 149.5,-657.5 155.5,-657.5 161.5,-663.5 161.5,-669.5 161.5,-669.5 161.5,-681.5 161.5,-681.5 161.5,-687.5 155.5,-693.5 149.5,-693.5 149.5,-693.5 41.5,-693.5 41.5,-693.5 35.5,-693.5 29.5,-687.5 29.5,-681.5 29.5,-681.5 29.5,-669.5 29.5,-669.5 29.5,-663.5 35.5,-657.5 41.5,-657.5"/>
<text text-anchor="middle" x="95.5" y="-673.3" font-family="Arial" font-size="9.00"># j_5 = PHI &lt;j_8(3), j_11(6)&gt;</text>
</g>
<!-- Node_7 -->
<g id="node8" class="node"><title>Node_7</title>
<path fill="moccasin" stroke="moccasin" d="M12,-584.5C12,-584.5 85,-584.5 85,-584.5 91,-584.5 97,-590.5 97,-596.5 97,-596.5 97,-608.5 97,-608.5 97,-614.5 91,-620.5 85,-620.5 85,-620.5 12,-620.5 12,-620.5 6,-620.5 0,-614.5 0,-608.5 0,-608.5 0,-596.5 0,-596.5 0,-590.5 6,-584.5 12,-584.5"/>
<text text-anchor="middle" x="48.5" y="-600.3" font-family="Arial" font-size="9.00">j_5: [&#45;Infinity, Infinity]</text>
</g>
<!-- Node_6&#45;&gt;Node_7 -->
<g id="edge4" class="edge"><title>Node_6&#45;&gt;Node_7</title>
<path fill="none" stroke="steelblue" d="M84.1226,-657.313C78.5227,-648.853 71.6581,-638.484 65.4547,-629.112"/>
<polygon fill="steelblue" stroke="steelblue" points="68.211,-626.935 59.7726,-620.529 62.374,-630.799 68.211,-626.935"/>
</g>
<!-- Node_7&#45;&gt;Node_0 -->
<g id="edge32" class="edge"><title>Node_7&#45;&gt;Node_0</title>
<path fill="none" stroke="tan" d="M37.8994,-620.777C32.0325,-630.995 25.0325,-644.37 20.5,-657 6.61776,-695.684 1.5,-706.401 1.5,-747.5 1.5,-968.5 1.5,-968.5 1.5,-968.5 1.5,-1010.9 18.4865,-1057.61 30.8541,-1086"/>
<polygon fill="tan" stroke="tan" points="27.7135,-1087.55 35.0007,-1095.24 34.1001,-1084.68 27.7135,-1087.55"/>
</g>
<!-- Node_8 -->
<g id="node9" class="node"><title>Node_8</title>
<path fill="lightblue" stroke="lightblue" d="M481,-1095.5C481,-1095.5 544,-1095.5 544,-1095.5 550,-1095.5 556,-1101.5 556,-1107.5 556,-1107.5 556,-1119.5 556,-1119.5 556,-1125.5 550,-1131.5 544,-1131.5 544,-1131.5 481,-1131.5 481,-1131.5 475,-1131.5 469,-1125.5 469,-1119.5 469,-1119.5 469,-1107.5 469,-1107.5 469,-1101.5 475,-1095.5 481,-1095.5"/>
<text text-anchor="middle" x="512.5" y="-1111.3" font-family="Arial" font-size="9.00">i_12 = i_4_t_f + 1</text>
</g>
<!-- Node_9 -->
<g id="node10" class="node"><title>Node_9</title>
<path fill="moccasin" stroke="moccasin" d="M513.5,-1022.5C513.5,-1022.5 591.5,-1022.5 591.5,-1022.5 597.5,-1022.5 603.5,-1028.5 603.5,-1034.5 603.5,-1034.5 603.5,-1046.5 603.5,-1046.5 603.5,-1052.5 597.5,-1058.5 591.5,-1058.5 591.5,-1058.5 513.5,-1058.5 513.5,-1058.5 507.5,-1058.5 501.5,-1052.5 501.5,-1046.5 501.5,-1046.5 501.5,-1034.5 501.5,-1034.5 501.5,-1028.5 507.5,-1022.5 513.5,-1022.5"/>
<text text-anchor="middle" x="552.5" y="-1038.3" font-family="Arial" font-size="9.00">i_12: [&#45;Infinity, Infinity]</text>
</g>
<!-- Node_8&#45;&gt;Node_9 -->
<g id="edge5" class="edge"><title>Node_8&#45;&gt;Node_9</title>
<path fill="none" stroke="steelblue" d="M522.183,-1095.31C526.9,-1086.94 532.671,-1076.7 537.907,-1067.4"/>
<polygon fill="steelblue" stroke="steelblue" points="541.047,-1068.96 542.906,-1058.53 534.948,-1065.52 541.047,-1068.96"/>
</g>
<!-- Node_30 -->
<g id="node31" class="node"><title>Node_30</title>
<path fill="lightblue" stroke="lightblue" d="M513.5,-949.5C513.5,-949.5 621.5,-949.5 621.5,-949.5 627.5,-949.5 633.5,-955.5 633.5,-961.5 633.5,-961.5 633.5,-973.5 633.5,-973.5 633.5,-979.5 627.5,-985.5 621.5,-985.5 621.5,-985.5 513.5,-985.5 513.5,-985.5 507.5,-985.5 501.5,-979.5 501.5,-973.5 501.5,-973.5 501.5,-961.5 501.5,-961.5 501.5,-955.5 507.5,-949.5 513.5,-949.5"/>
<text text-anchor="middle" x="567.5" y="-965.3" font-family="Arial" font-size="9.00"># i_4 = PHI &lt;i_7(2), i_12(8)&gt;</text>
</g>
<!-- Node_9&#45;&gt;Node_30 -->
<g id="edge38" class="edge"><title>Node_9&#45;&gt;Node_30</title>
<path fill="none" stroke="tan" d="M556.131,-1022.31C557.826,-1014.29 559.884,-1004.55 561.781,-995.569"/>
<polygon fill="tan" stroke="tan" points="565.26,-996.036 563.902,-985.529 558.411,-994.589 565.26,-996.036"/>
</g>
<!-- Node_10 -->
<g id="node11" class="node"><title>Node_10</title>
<path fill="lightblue" stroke="lightblue" d="M655.5,-1095.5C655.5,-1095.5 685.5,-1095.5 685.5,-1095.5 691.5,-1095.5 697.5,-1101.5 697.5,-1107.5 697.5,-1107.5 697.5,-1119.5 697.5,-1119.5 697.5,-1125.5 691.5,-1131.5 685.5,-1131.5 685.5,-1131.5 655.5,-1131.5 655.5,-1131.5 649.5,-1131.5 643.5,-1125.5 643.5,-1119.5 643.5,-1119.5 643.5,-1107.5 643.5,-1107.5 643.5,-1101.5 649.5,-1095.5 655.5,-1095.5"/>
<text text-anchor="middle" x="670.5" y="-1111.3" font-family="Arial" font-size="9.00">i_7 = 0</text>
</g>
<!-- Node_11 -->
<g id="node12" class="node"><title>Node_11</title>
<path fill="moccasin" stroke="moccasin" d="M634,-1022.5C634,-1022.5 707,-1022.5 707,-1022.5 713,-1022.5 719,-1028.5 719,-1034.5 719,-1034.5 719,-1046.5 719,-1046.5 719,-1052.5 713,-1058.5 707,-1058.5 707,-1058.5 634,-1058.5 634,-1058.5 628,-1058.5 622,-1052.5 622,-1046.5 622,-1046.5 622,-1034.5 622,-1034.5 622,-1028.5 628,-1022.5 634,-1022.5"/>
<text text-anchor="middle" x="670.5" y="-1038.3" font-family="Arial" font-size="9.00">i_7: [&#45;Infinity, Infinity]</text>
</g>
<!-- Node_10&#45;&gt;Node_11 -->
<g id="edge6" class="edge"><title>Node_10&#45;&gt;Node_11</title>
<path fill="none" stroke="steelblue" d="M670.5,-1095.31C670.5,-1087.29 670.5,-1077.55 670.5,-1068.57"/>
<polygon fill="steelblue" stroke="steelblue" points="674,-1068.53 670.5,-1058.53 667,-1068.53 674,-1068.53"/>
</g>
<!-- Node_11&#45;&gt;Node_30 -->
<g id="edge20" class="edge"><title>Node_11&#45;&gt;Node_30</title>
<path fill="none" stroke="tan" d="M645.829,-1022.49C632.297,-1013.17 615.336,-1001.47 600.66,-991.358"/>
<polygon fill="tan" stroke="tan" points="602.547,-988.407 592.327,-985.614 598.574,-994.171 602.547,-988.407"/>
</g>
<!-- Node_12 -->
<g id="node13" class="node"><title>Node_12</title>
<path fill="lightblue" stroke="lightblue" d="M434,-73.5C434,-73.5 481,-73.5 481,-73.5 487,-73.5 493,-79.5 493,-85.5 493,-85.5 493,-97.5 493,-97.5 493,-103.5 487,-109.5 481,-109.5 481,-109.5 434,-109.5 434,-109.5 428,-109.5 422,-103.5 422,-97.5 422,-97.5 422,-85.5 422,-85.5 422,-79.5 428,-73.5 434,-73.5"/>
<text text-anchor="middle" x="457.5" y="-89.3" font-family="Arial" font-size="9.00">_13 = sum_3</text>
</g>
<!-- Node_13 -->
<g id="node14" class="node"><title>Node_13</title>
<path fill="moccasin" stroke="moccasin" d="M419.5,-0.5C419.5,-0.5 495.5,-0.5 495.5,-0.5 501.5,-0.5 507.5,-6.5 507.5,-12.5 507.5,-12.5 507.5,-24.5 507.5,-24.5 507.5,-30.5 501.5,-36.5 495.5,-36.5 495.5,-36.5 419.5,-36.5 419.5,-36.5 413.5,-36.5 407.5,-30.5 407.5,-24.5 407.5,-24.5 407.5,-12.5 407.5,-12.5 407.5,-6.5 413.5,-0.5 419.5,-0.5"/>
<text text-anchor="middle" x="457.5" y="-16.3" font-family="Arial" font-size="9.00">_13: [&#45;Infinity, Infinity]</text>
</g>
<!-- Node_12&#45;&gt;Node_13 -->
<g id="edge7" class="edge"><title>Node_12&#45;&gt;Node_13</title>
<path fill="none" stroke="steelblue" d="M457.5,-73.3129C457.5,-65.2895 457.5,-55.5475 457.5,-46.5691"/>
<polygon fill="steelblue" stroke="steelblue" points="461,-46.5288 457.5,-36.5288 454,-46.5289 461,-46.5288"/>
</g>
<!-- Node_14 -->
<g id="node15" class="node"><title>Node_14</title>
<path fill="lightblue" stroke="lightblue" d="M184.5,-803.5C184.5,-803.5 214.5,-803.5 214.5,-803.5 220.5,-803.5 226.5,-809.5 226.5,-815.5 226.5,-815.5 226.5,-827.5 226.5,-827.5 226.5,-833.5 220.5,-839.5 214.5,-839.5 214.5,-839.5 184.5,-839.5 184.5,-839.5 178.5,-839.5 172.5,-833.5 172.5,-827.5 172.5,-827.5 172.5,-815.5 172.5,-815.5 172.5,-809.5 178.5,-803.5 184.5,-803.5"/>
<text text-anchor="middle" x="199.5" y="-819.3" font-family="Arial" font-size="9.00">j_8 = 0</text>
</g>
<!-- Node_15 -->
<g id="node16" class="node"><title>Node_15</title>
<path fill="moccasin" stroke="moccasin" d="M163,-730.5C163,-730.5 236,-730.5 236,-730.5 242,-730.5 248,-736.5 248,-742.5 248,-742.5 248,-754.5 248,-754.5 248,-760.5 242,-766.5 236,-766.5 236,-766.5 163,-766.5 163,-766.5 157,-766.5 151,-760.5 151,-754.5 151,-754.5 151,-742.5 151,-742.5 151,-736.5 157,-730.5 163,-730.5"/>
<text text-anchor="middle" x="199.5" y="-746.3" font-family="Arial" font-size="9.00">j_8: [&#45;Infinity, Infinity]</text>
</g>
<!-- Node_14&#45;&gt;Node_15 -->
<g id="edge8" class="edge"><title>Node_14&#45;&gt;Node_15</title>
<path fill="none" stroke="steelblue" d="M199.5,-803.313C199.5,-795.289 199.5,-785.547 199.5,-776.569"/>
<polygon fill="steelblue" stroke="steelblue" points="203,-776.529 199.5,-766.529 196,-776.529 203,-776.529"/>
</g>
<!-- Node_15&#45;&gt;Node_6 -->
<g id="edge22" class="edge"><title>Node_15&#45;&gt;Node_6</title>
<path fill="none" stroke="tan" d="M174.589,-730.494C160.926,-721.166 143.8,-709.474 128.982,-699.358"/>
<polygon fill="tan" stroke="tan" points="130.8,-696.361 120.568,-693.614 126.853,-702.143 130.8,-696.361"/>
</g>
<!-- Node_17 -->
<g id="node18" class="node"><title>Node_17</title>
<path fill="moccasin" stroke="moccasin" d="M413,-146.5C413,-146.5 502,-146.5 502,-146.5 508,-146.5 514,-152.5 514,-158.5 514,-158.5 514,-170.5 514,-170.5 514,-176.5 508,-182.5 502,-182.5 502,-182.5 413,-182.5 413,-182.5 407,-182.5 401,-176.5 401,-170.5 401,-170.5 401,-158.5 401,-158.5 401,-152.5 407,-146.5 413,-146.5"/>
<text text-anchor="middle" x="457.5" y="-162.3" font-family="Arial" font-size="9.00">sum_3: [&#45;Infinity, Infinity]</text>
</g>
<!-- Node_16&#45;&gt;Node_17 -->
<g id="edge9" class="edge"><title>Node_16&#45;&gt;Node_17</title>
<path fill="none" stroke="steelblue" d="M413.54,-219.313C420.593,-210.679 429.272,-200.055 437.05,-190.534"/>
<polygon fill="steelblue" stroke="steelblue" points="439.973,-192.488 443.589,-182.529 434.552,-188.059 439.973,-192.488"/>
</g>
<!-- Node_17&#45;&gt;Node_4 -->
<g id="edge37" class="edge"><title>Node_17&#45;&gt;Node_4</title>
<path fill="none" stroke="tan" d="M474.392,-182.695C482.797,-192.473 492.085,-205.448 496.5,-219 511.645,-265.486 518.833,-286.036 495.5,-329 488.57,-341.76 477.126,-352.023 465.03,-360.012"/>
<polygon fill="tan" stroke="tan" points="462.871,-357.23 456.164,-365.432 466.521,-363.203 462.871,-357.23"/>
</g>
<!-- Node_17&#45;&gt;Node_12 -->
<g id="edge36" class="edge"><title>Node_17&#45;&gt;Node_12</title>
<path fill="none" stroke="tan" d="M457.5,-146.313C457.5,-138.289 457.5,-128.547 457.5,-119.569"/>
<polygon fill="tan" stroke="tan" points="461,-119.529 457.5,-109.529 454,-119.529 461,-119.529"/>
</g>
<!-- Node_19 -->
<g id="node20" class="node"><title>Node_19</title>
<path fill="moccasin" stroke="moccasin" d="M230.5,-876.5C230.5,-876.5 318.5,-876.5 318.5,-876.5 324.5,-876.5 330.5,-882.5 330.5,-888.5 330.5,-888.5 330.5,-900.5 330.5,-900.5 330.5,-906.5 324.5,-912.5 318.5,-912.5 318.5,-912.5 230.5,-912.5 230.5,-912.5 224.5,-912.5 218.5,-906.5 218.5,-900.5 218.5,-900.5 218.5,-888.5 218.5,-888.5 218.5,-882.5 224.5,-876.5 230.5,-876.5"/>
<text text-anchor="middle" x="274.5" y="-892.3" font-family="Arial" font-size="9.00">j_5_t_t: [&#45;Infinity, Infinity]</text>
</g>
<!-- Node_18&#45;&gt;Node_19 -->
<g id="edge10" class="edge"><title>Node_18&#45;&gt;Node_19</title>
<path fill="none" stroke="steelblue" d="M223.719,-949.313C232.031,-940.505 242.298,-929.625 251.42,-919.958"/>
<polygon fill="steelblue" stroke="steelblue" points="254.113,-922.204 258.431,-912.529 249.022,-917.4 254.113,-922.204"/>
</g>
<!-- Node_32 -->
<g id="node33" class="node"><title>Node_32</title>
<path fill="lightblue" stroke="lightblue" d="M266,-803.5C266,-803.5 343,-803.5 343,-803.5 349,-803.5 355,-809.5 355,-815.5 355,-815.5 355,-827.5 355,-827.5 355,-833.5 349,-839.5 343,-839.5 343,-839.5 266,-839.5 266,-839.5 260,-839.5 254,-833.5 254,-827.5 254,-827.5 254,-815.5 254,-815.5 254,-809.5 260,-803.5 266,-803.5"/>
<text text-anchor="middle" x="304.5" y="-819.3" font-family="Arial" font-size="9.00">_9 = j_5_t_t * j_5_t_t</text>
</g>
<!-- Node_19&#45;&gt;Node_32 -->
<g id="edge21" class="edge"><title>Node_19&#45;&gt;Node_32</title>
<path fill="none" stroke="tan" d="M281.762,-876.313C285.226,-868.115 289.448,-858.123 293.309,-848.985"/>
<polygon fill="tan" stroke="tan" points="296.637,-850.103 297.305,-839.529 290.188,-847.378 296.637,-850.103"/>
</g>
<!-- Node_20 -->
<g id="node21" class="node"><title>Node_20</title>
<path fill="lightblue" stroke="lightblue" d="M52,-803.5C52,-803.5 115,-803.5 115,-803.5 121,-803.5 127,-809.5 127,-815.5 127,-815.5 127,-827.5 127,-827.5 127,-833.5 121,-839.5 115,-839.5 115,-839.5 52,-839.5 52,-839.5 46,-839.5 40,-833.5 40,-827.5 40,-827.5 40,-815.5 40,-815.5 40,-809.5 46,-803.5 52,-803.5"/>
<text text-anchor="middle" x="83.5" y="-819.3" font-family="Arial" font-size="9.00">j_11 = j_5_t_f + 1</text>
</g>
<!-- Node_21 -->
<g id="node22" class="node"><title>Node_21</title>
<path fill="moccasin" stroke="moccasin" d="M42.5,-730.5C42.5,-730.5 120.5,-730.5 120.5,-730.5 126.5,-730.5 132.5,-736.5 132.5,-742.5 132.5,-742.5 132.5,-754.5 132.5,-754.5 132.5,-760.5 126.5,-766.5 120.5,-766.5 120.5,-766.5 42.5,-766.5 42.5,-766.5 36.5,-766.5 30.5,-760.5 30.5,-754.5 30.5,-754.5 30.5,-742.5 30.5,-742.5 30.5,-736.5 36.5,-730.5 42.5,-730.5"/>
<text text-anchor="middle" x="81.5" y="-746.3" font-family="Arial" font-size="9.00">j_11: [&#45;Infinity, Infinity]</text>
</g>
<!-- Node_20&#45;&gt;Node_21 -->
<g id="edge11" class="edge"><title>Node_20&#45;&gt;Node_21</title>
<path fill="none" stroke="steelblue" d="M83.0159,-803.313C82.7898,-795.289 82.5154,-785.547 82.2625,-776.569"/>
<polygon fill="steelblue" stroke="steelblue" points="85.76,-776.426 81.9797,-766.529 78.7627,-776.623 85.76,-776.426"/>
</g>
<!-- Node_21&#45;&gt;Node_6 -->
<g id="edge34" class="edge"><title>Node_21&#45;&gt;Node_6</title>
<path fill="none" stroke="tan" d="M84.889,-730.313C86.4711,-722.289 88.392,-712.547 90.1624,-703.569"/>
<polygon fill="tan" stroke="tan" points="93.6414,-704.017 92.1422,-693.529 86.7737,-702.663 93.6414,-704.017"/>
</g>
<!-- Node_22 -->
<g id="node23" class="node"><title>Node_22</title>
<path fill="lightblue" stroke="lightblue" d="M522.5,-657.5C522.5,-657.5 570.5,-657.5 570.5,-657.5 576.5,-657.5 582.5,-663.5 582.5,-669.5 582.5,-669.5 582.5,-681.5 582.5,-681.5 582.5,-687.5 576.5,-693.5 570.5,-693.5 570.5,-693.5 522.5,-693.5 522.5,-693.5 516.5,-693.5 510.5,-687.5 510.5,-681.5 510.5,-681.5 510.5,-669.5 510.5,-669.5 510.5,-663.5 516.5,-657.5 522.5,-657.5"/>
<text text-anchor="middle" x="546.5" y="-673.3" font-family="Arial" font-size="9.00">if (j_5 &gt; i_4_t)</text>
</g>
<!-- Node_23 -->
<g id="node24" class="node"><title>Node_23</title>
<path fill="moccasin" stroke="moccasin" d="M454.5,-584.5C454.5,-584.5 542.5,-584.5 542.5,-584.5 548.5,-584.5 554.5,-590.5 554.5,-596.5 554.5,-596.5 554.5,-608.5 554.5,-608.5 554.5,-614.5 548.5,-620.5 542.5,-620.5 542.5,-620.5 454.5,-620.5 454.5,-620.5 448.5,-620.5 442.5,-614.5 442.5,-608.5 442.5,-608.5 442.5,-596.5 442.5,-596.5 442.5,-590.5 448.5,-584.5 454.5,-584.5"/>
<text text-anchor="middle" x="498.5" y="-600.3" font-family="Arial" font-size="9.00">i_4_t_f: [&#45;Infinity, Infinity]</text>
</g>
<!-- Node_22&#45;&gt;Node_23 -->
<g id="edge12" class="edge"><title>Node_22&#45;&gt;Node_23</title>
<path fill="none" stroke="steelblue" d="M534.881,-657.313C529.103,-648.766 522.006,-638.269 515.62,-628.823"/>
<polygon fill="steelblue" stroke="steelblue" points="518.513,-626.853 510.012,-620.529 512.714,-630.774 518.513,-626.853"/>
</g>
<!-- Node_23&#45;&gt;Node_8 -->
<g id="edge30" class="edge"><title>Node_23&#45;&gt;Node_8</title>
<path fill="none" stroke="tan" d="M493.561,-620.622C486.275,-647.434 473.5,-701.066 473.5,-747.5 473.5,-968.5 473.5,-968.5 473.5,-968.5 473.5,-1010.67 489.273,-1057.44 500.757,-1085.91"/>
<polygon fill="tan" stroke="tan" points="497.539,-1087.28 504.608,-1095.18 504.003,-1084.6 497.539,-1087.28"/>
</g>
<!-- Node_24 -->
<g id="node25" class="node"><title>Node_24</title>
<path fill="lightblue" stroke="lightblue" d="M534,-365.5C534,-365.5 579,-365.5 579,-365.5 585,-365.5 591,-371.5 591,-377.5 591,-377.5 591,-389.5 591,-389.5 591,-395.5 585,-401.5 579,-401.5 579,-401.5 534,-401.5 534,-401.5 528,-401.5 522,-395.5 522,-389.5 522,-389.5 522,-377.5 522,-377.5 522,-371.5 528,-365.5 534,-365.5"/>
<text text-anchor="middle" x="556.5" y="-381.3" font-family="Arial" font-size="9.00">sum_6 = &#45;10</text>
</g>
<!-- Node_25 -->
<g id="node26" class="node"><title>Node_25</title>
<path fill="moccasin" stroke="moccasin" d="M386,-292.5C386,-292.5 475,-292.5 475,-292.5 481,-292.5 487,-298.5 487,-304.5 487,-304.5 487,-316.5 487,-316.5 487,-322.5 481,-328.5 475,-328.5 475,-328.5 386,-328.5 386,-328.5 380,-328.5 374,-322.5 374,-316.5 374,-316.5 374,-304.5 374,-304.5 374,-298.5 380,-292.5 386,-292.5"/>
<text text-anchor="middle" x="430.5" y="-308.3" font-family="Arial" font-size="9.00">sum_6: [&#45;Infinity, Infinity]</text>
</g>
<!-- Node_24&#45;&gt;Node_25 -->
<g id="edge13" class="edge"><title>Node_24&#45;&gt;Node_25</title>
<path fill="none" stroke="steelblue" d="M526.32,-365.494C509.456,-355.991 488.24,-344.036 470.061,-333.792"/>
<polygon fill="steelblue" stroke="steelblue" points="471.301,-330.474 460.871,-328.614 467.864,-336.572 471.301,-330.474"/>
</g>
<!-- Node_25&#45;&gt;Node_16 -->
<g id="edge39" class="edge"><title>Node_25&#45;&gt;Node_16</title>
<path fill="none" stroke="tan" d="M422.996,-292.313C419.416,-284.115 415.054,-274.123 411.064,-264.985"/>
<polygon fill="tan" stroke="tan" points="414.144,-263.293 406.935,-255.529 407.729,-266.094 414.144,-263.293"/>
</g>
<!-- Node_27 -->
<g id="node28" class="node"><title>Node_27</title>
<path fill="moccasin" stroke="moccasin" d="M41.5,-876.5C41.5,-876.5 129.5,-876.5 129.5,-876.5 135.5,-876.5 141.5,-882.5 141.5,-888.5 141.5,-888.5 141.5,-900.5 141.5,-900.5 141.5,-906.5 135.5,-912.5 129.5,-912.5 129.5,-912.5 41.5,-912.5 41.5,-912.5 35.5,-912.5 29.5,-906.5 29.5,-900.5 29.5,-900.5 29.5,-888.5 29.5,-888.5 29.5,-882.5 35.5,-876.5 41.5,-876.5"/>
<text text-anchor="middle" x="85.5" y="-892.3" font-family="Arial" font-size="9.00">j_5_t_f: [&#45;Infinity, Infinity]</text>
</g>
<!-- Node_26&#45;&gt;Node_27 -->
<g id="edge14" class="edge"><title>Node_26&#45;&gt;Node_27</title>
<path fill="none" stroke="steelblue" d="M85.5,-949.313C85.5,-941.289 85.5,-931.547 85.5,-922.569"/>
<polygon fill="steelblue" stroke="steelblue" points="89.0001,-922.529 85.5,-912.529 82.0001,-922.529 89.0001,-922.529"/>
</g>
<!-- Node_27&#45;&gt;Node_20 -->
<g id="edge31" class="edge"><title>Node_27&#45;&gt;Node_20</title>
<path fill="none" stroke="tan" d="M85.0159,-876.313C84.7898,-868.289 84.5154,-858.547 84.2625,-849.569"/>
<polygon fill="tan" stroke="tan" points="87.76,-849.426 83.9797,-839.529 80.7627,-849.623 87.76,-849.426"/>
</g>
<!-- Node_28 -->
<g id="node29" class="node"><title>Node_28</title>
<path fill="lightblue" stroke="lightblue" d="M536.5,-803.5C536.5,-803.5 580.5,-803.5 580.5,-803.5 586.5,-803.5 592.5,-809.5 592.5,-815.5 592.5,-815.5 592.5,-827.5 592.5,-827.5 592.5,-833.5 586.5,-839.5 580.5,-839.5 580.5,-839.5 536.5,-839.5 536.5,-839.5 530.5,-839.5 524.5,-833.5 524.5,-827.5 524.5,-827.5 524.5,-815.5 524.5,-815.5 524.5,-809.5 530.5,-803.5 536.5,-803.5"/>
<text text-anchor="middle" x="558.5" y="-819.3" font-family="Arial" font-size="9.00">if (i_4 &lt;= 99)</text>
</g>
<!-- Node_29 -->
<g id="node30" class="node"><title>Node_29</title>
<path fill="moccasin" stroke="moccasin" d="M515.5,-730.5C515.5,-730.5 595.5,-730.5 595.5,-730.5 601.5,-730.5 607.5,-736.5 607.5,-742.5 607.5,-742.5 607.5,-754.5 607.5,-754.5 607.5,-760.5 601.5,-766.5 595.5,-766.5 595.5,-766.5 515.5,-766.5 515.5,-766.5 509.5,-766.5 503.5,-760.5 503.5,-754.5 503.5,-754.5 503.5,-742.5 503.5,-742.5 503.5,-736.5 509.5,-730.5 515.5,-730.5"/>
<text text-anchor="middle" x="555.5" y="-746.3" font-family="Arial" font-size="9.00">i_4_t: [&#45;Infinity, Infinity]</text>
</g>
<!-- Node_28&#45;&gt;Node_29 -->
<g id="edge15" class="edge"><title>Node_28&#45;&gt;Node_29</title>
<path fill="none" stroke="steelblue" d="M557.774,-803.313C557.435,-795.289 557.023,-785.547 556.644,-776.569"/>
<polygon fill="steelblue" stroke="steelblue" points="560.139,-776.372 556.22,-766.529 553.145,-776.668 560.139,-776.372"/>
</g>
<!-- Node_29&#45;&gt;Node_22 -->
<g id="edge35" class="edge"><title>Node_29&#45;&gt;Node_22</title>
<path fill="none" stroke="tan" d="M553.321,-730.313C552.304,-722.289 551.069,-712.547 549.931,-703.569"/>
<polygon fill="tan" stroke="tan" points="553.388,-703.009 548.659,-693.529 546.444,-703.89 553.388,-703.009"/>
</g>
<!-- Node_31 -->
<g id="node32" class="node"><title>Node_31</title>
<path fill="moccasin" stroke="moccasin" d="M529,-876.5C529,-876.5 602,-876.5 602,-876.5 608,-876.5 614,-882.5 614,-888.5 614,-888.5 614,-900.5 614,-900.5 614,-906.5 608,-912.5 602,-912.5 602,-912.5 529,-912.5 529,-912.5 523,-912.5 517,-906.5 517,-900.5 517,-900.5 517,-888.5 517,-888.5 517,-882.5 523,-876.5 529,-876.5"/>
<text text-anchor="middle" x="565.5" y="-892.3" font-family="Arial" font-size="9.00">i_4: [&#45;Infinity, Infinity]</text>
</g>
<!-- Node_30&#45;&gt;Node_31 -->
<g id="edge16" class="edge"><title>Node_30&#45;&gt;Node_31</title>
<path fill="none" stroke="steelblue" d="M567.016,-949.313C566.79,-941.289 566.515,-931.547 566.263,-922.569"/>
<polygon fill="steelblue" stroke="steelblue" points="569.76,-922.426 565.98,-912.529 562.763,-922.623 569.76,-922.426"/>
</g>
<!-- Node_31&#45;&gt;Node_28 -->
<g id="edge27" class="edge"><title>Node_31&#45;&gt;Node_28</title>
<path fill="none" stroke="tan" d="M563.805,-876.313C563.014,-868.289 562.054,-858.547 561.169,-849.569"/>
<polygon fill="tan" stroke="tan" points="564.643,-849.137 560.179,-839.529 557.677,-849.824 564.643,-849.137"/>
</g>
<!-- Node_33 -->
<g id="node34" class="node"><title>Node_33</title>
<path fill="moccasin" stroke="moccasin" d="M278,-730.5C278,-730.5 349,-730.5 349,-730.5 355,-730.5 361,-736.5 361,-742.5 361,-742.5 361,-754.5 361,-754.5 361,-760.5 355,-766.5 349,-766.5 349,-766.5 278,-766.5 278,-766.5 272,-766.5 266,-760.5 266,-754.5 266,-754.5 266,-742.5 266,-742.5 266,-736.5 272,-730.5 278,-730.5"/>
<text text-anchor="middle" x="313.5" y="-746.3" font-family="Arial" font-size="9.00">_9: [&#45;Infinity, Infinity]</text>
</g>
<!-- Node_32&#45;&gt;Node_33 -->
<g id="edge17" class="edge"><title>Node_32&#45;&gt;Node_33</title>
<path fill="none" stroke="steelblue" d="M306.679,-803.313C307.696,-795.289 308.931,-785.547 310.069,-776.569"/>
<polygon fill="steelblue" stroke="steelblue" points="313.556,-776.89 311.341,-766.529 306.612,-776.009 313.556,-776.89"/>
</g>
<!-- Node_33&#45;&gt;Node_34 -->
<g id="edge19" class="edge"><title>Node_33&#45;&gt;Node_34</title>
<path fill="none" stroke="tan" d="M313.5,-730.313C313.5,-722.289 313.5,-712.547 313.5,-703.569"/>
<polygon fill="tan" stroke="tan" points="317,-703.529 313.5,-693.529 310,-703.529 317,-703.529"/>
</g>
<!-- Node_35 -->
<g id="node36" class="node"><title>Node_35</title>
<path fill="moccasin" stroke="moccasin" d="M317,-584.5C317,-584.5 412,-584.5 412,-584.5 418,-584.5 424,-590.5 424,-596.5 424,-596.5 424,-608.5 424,-608.5 424,-614.5 418,-620.5 412,-620.5 412,-620.5 317,-620.5 317,-620.5 311,-620.5 305,-614.5 305,-608.5 305,-608.5 305,-596.5 305,-596.5 305,-590.5 311,-584.5 317,-584.5"/>
<text text-anchor="middle" x="364.5" y="-600.3" font-family="Arial" font-size="9.00">sum_10: [&#45;Infinity, Infinity]</text>
</g>
<!-- Node_34&#45;&gt;Node_35 -->
<g id="edge18" class="edge"><title>Node_34&#45;&gt;Node_35</title>
<path fill="none" stroke="steelblue" d="M325.846,-657.313C331.985,-648.766 339.525,-638.269 346.31,-628.823"/>
<polygon fill="steelblue" stroke="steelblue" points="349.277,-630.693 352.268,-620.529 343.591,-626.609 349.277,-630.693"/>
</g>
<!-- Node_35&#45;&gt;Node_2 -->
<g id="edge23" class="edge"><title>Node_35&#45;&gt;Node_2</title>
<path fill="none" stroke="tan" d="M368.373,-584.313C370.181,-576.289 372.377,-566.547 374.4,-557.569"/>
<polygon fill="tan" stroke="tan" points="377.878,-558.054 376.663,-547.529 371.05,-556.515 377.878,-558.054"/>
</g>
</g>
</svg>
