<?xml version="1.0" encoding="UTF-8" standalone="no"?>
<!DOCTYPE svg PUBLIC "-//W3C//DTD SVG 1.1//EN"
 "http://www.w3.org/Graphics/SVG/1.1/DTD/svg11.dtd">
<!-- Generated by graphviz version 2.38.0 (20140413.2041)
 -->
<!-- Title: t9_foo_final_ConstraintGraph Pages: 1 -->
<svg width="625pt" height="1161pt"
     viewBox="0.00 0.00 625.00 1161.00" xmlns="http://www.w3.org/2000/svg">
<g id="graph0" class="graph" transform="scale(1 1) rotate(0) translate(4 1157)">
<title>t9_foo_final_ConstraintGraph</title>
<polygon fill="white" stroke="none" points="-4,4 -4,-1157 621,-1157 621,4 -4,4"/>
<text text-anchor="middle" x="308.5" y="-1139.4" font-family="Arial" font-size="12.00">t9_foo_final_ConstraintGraph</text>
<!-- Node_0 -->
<g id="node1" class="node"><title>Node_0</title>
<path fill="lightblue" stroke="lightblue" d="M14,-1095.5C14,-1095.5 60,-1095.5 60,-1095.5 66,-1095.5 72,-1101.5 72,-1107.5 72,-1107.5 72,-1119.5 72,-1119.5 72,-1125.5 66,-1131.5 60,-1131.5 60,-1131.5 14,-1131.5 14,-1131.5 8,-1131.5 2,-1125.5 2,-1119.5 2,-1119.5 2,-1107.5 2,-1107.5 2,-1101.5 8,-1095.5 14,-1095.5"/>
<text text-anchor="middle" x="37" y="-1111.3" font-family="Arial" font-size="9.00">if (j_5 &lt;= i_4)</text>
</g>
<!-- Node_1 -->
<g id="node2" class="node"><title>Node_1</title>
<path fill="moccasin" stroke="moccasin" d="M44,-1022.5C44,-1022.5 106,-1022.5 106,-1022.5 112,-1022.5 118,-1028.5 118,-1034.5 118,-1034.5 118,-1046.5 118,-1046.5 118,-1052.5 112,-1058.5 106,-1058.5 106,-1058.5 44,-1058.5 44,-1058.5 38,-1058.5 32,-1052.5 32,-1046.5 32,-1046.5 32,-1034.5 32,-1034.5 32,-1028.5 38,-1022.5 44,-1022.5"/>
<text text-anchor="middle" x="75" y="-1038.3" font-family="Arial" font-size="9.00">j_5_t: [0.0, 100.0]</text>
</g>
<!-- Node_0&#45;&gt;Node_1 -->
<g id="edge1" class="edge"><title>Node_0&#45;&gt;Node_1</title>
<path fill="none" stroke="steelblue" d="M46.1987,-1095.31C50.6797,-1086.94 56.1621,-1076.7 61.1366,-1067.4"/>
<polygon fill="steelblue" stroke="steelblue" points="64.253,-1069 65.886,-1058.53 58.0813,-1065.69 64.253,-1069"/>
</g>
<!-- Node_18 -->
<g id="node19" class="node"><title>Node_18</title>
<path fill="lightblue" stroke="lightblue" d="M164.5,-949.5C164.5,-949.5 215.5,-949.5 215.5,-949.5 221.5,-949.5 227.5,-955.5 227.5,-961.5 227.5,-961.5 227.5,-973.5 227.5,-973.5 227.5,-979.5 221.5,-985.5 215.5,-985.5 215.5,-985.5 164.5,-985.5 164.5,-985.5 158.5,-985.5 152.5,-979.5 152.5,-973.5 152.5,-973.5 152.5,-961.5 152.5,-961.5 152.5,-955.5 158.5,-949.5 164.5,-949.5"/>
<text text-anchor="middle" x="190" y="-965.3" font-family="Arial" font-size="9.00">if (j_5_t == 99)</text>
</g>
<!-- Node_1&#45;&gt;Node_18 -->
<g id="edge28" class="edge"><title>Node_1&#45;&gt;Node_18</title>
<path fill="none" stroke="tan" d="M102.545,-1022.49C117.795,-1013.08 136.945,-1001.26 153.435,-991.075"/>
<polygon fill="tan" stroke="tan" points="155.611,-993.845 162.281,-985.614 151.933,-987.889 155.611,-993.845"/>
</g>
<!-- Node_26 -->
<g id="node27" class="node"><title>Node_26</title>
<path fill="lightblue" stroke="lightblue" d="M51,-949.5C51,-949.5 99,-949.5 99,-949.5 105,-949.5 111,-955.5 111,-961.5 111,-961.5 111,-973.5 111,-973.5 111,-979.5 105,-985.5 99,-985.5 99,-985.5 51,-985.5 51,-985.5 45,-985.5 39,-979.5 39,-973.5 39,-973.5 39,-961.5 39,-961.5 39,-955.5 45,-949.5 51,-949.5"/>
<text text-anchor="middle" x="75" y="-965.3" font-family="Arial" font-size="9.00">if (j_5_t != 99)</text>
</g>
<!-- Node_1&#45;&gt;Node_26 -->
<g id="edge29" class="edge"><title>Node_1&#45;&gt;Node_26</title>
<path fill="none" stroke="tan" d="M75,-1022.31C75,-1014.29 75,-1004.55 75,-995.569"/>
<polygon fill="tan" stroke="tan" points="78.5001,-995.529 75,-985.529 71.5001,-995.529 78.5001,-995.529"/>
</g>
<!-- Node_2 -->
<g id="node3" class="node"><title>Node_2</title>
<path fill="lightblue" stroke="lightblue" d="M253,-511.5C253,-511.5 411,-511.5 411,-511.5 417,-511.5 423,-517.5 423,-523.5 423,-523.5 423,-535.5 423,-535.5 423,-541.5 417,-547.5 411,-547.5 411,-547.5 253,-547.5 253,-547.5 247,-547.5 241,-541.5 241,-535.5 241,-535.5 241,-523.5 241,-523.5 241,-517.5 247,-511.5 253,-511.5"/>
<text text-anchor="middle" x="332" y="-527.3" font-family="Arial" font-size="9.00"># sum_1 = PHI &lt;sum_2(4), sum_10(5)&gt;</text>
</g>
<!-- Node_3 -->
<g id="node4" class="node"><title>Node_3</title>
<path fill="moccasin" stroke="moccasin" d="M306.5,-438.5C306.5,-438.5 395.5,-438.5 395.5,-438.5 401.5,-438.5 407.5,-444.5 407.5,-450.5 407.5,-450.5 407.5,-462.5 407.5,-462.5 407.5,-468.5 401.5,-474.5 395.5,-474.5 395.5,-474.5 306.5,-474.5 306.5,-474.5 300.5,-474.5 294.5,-468.5 294.5,-462.5 294.5,-462.5 294.5,-450.5 294.5,-450.5 294.5,-444.5 300.5,-438.5 306.5,-438.5"/>
<text text-anchor="middle" x="351" y="-454.3" font-family="Arial" font-size="9.00">sum_1: [&#45;Infinity, Infinity]</text>
</g>
<!-- Node_2&#45;&gt;Node_3 -->
<g id="edge2" class="edge"><title>Node_2&#45;&gt;Node_3</title>
<path fill="none" stroke="steelblue" d="M336.599,-511.313C338.77,-503.202 341.41,-493.336 343.834,-484.277"/>
<polygon fill="steelblue" stroke="steelblue" points="347.239,-485.094 346.443,-474.529 340.477,-483.284 347.239,-485.094"/>
</g>
<!-- Node_4 -->
<g id="node5" class="node"><title>Node_4</title>
<path fill="lightblue" stroke="lightblue" d="M291,-365.5C291,-365.5 443,-365.5 443,-365.5 449,-365.5 455,-371.5 455,-377.5 455,-377.5 455,-389.5 455,-389.5 455,-395.5 449,-401.5 443,-401.5 443,-401.5 291,-401.5 291,-401.5 285,-401.5 279,-395.5 279,-389.5 279,-389.5 279,-377.5 279,-377.5 279,-371.5 285,-365.5 291,-365.5"/>
<text text-anchor="middle" x="367" y="-381.3" font-family="Arial" font-size="9.00"># sum_2 = PHI &lt;sum_3(3), sum_1(6)&gt;</text>
</g>
<!-- Node_3&#45;&gt;Node_4 -->
<g id="edge33" class="edge"><title>Node_3&#45;&gt;Node_4</title>
<path fill="none" stroke="tan" d="M354.873,-438.313C356.681,-430.289 358.877,-420.547 360.9,-411.569"/>
<polygon fill="tan" stroke="tan" points="364.378,-412.054 363.163,-401.529 357.55,-410.515 364.378,-412.054"/>
</g>
<!-- Node_5 -->
<g id="node6" class="node"><title>Node_5</title>
<path fill="moccasin" stroke="moccasin" d="M206.5,-292.5C206.5,-292.5 295.5,-292.5 295.5,-292.5 301.5,-292.5 307.5,-298.5 307.5,-304.5 307.5,-304.5 307.5,-316.5 307.5,-316.5 307.5,-322.5 301.5,-328.5 295.5,-328.5 295.5,-328.5 206.5,-328.5 206.5,-328.5 200.5,-328.5 194.5,-322.5 194.5,-316.5 194.5,-316.5 194.5,-304.5 194.5,-304.5 194.5,-298.5 200.5,-292.5 206.5,-292.5"/>
<text text-anchor="middle" x="251" y="-308.3" font-family="Arial" font-size="9.00">sum_2: [&#45;Infinity, Infinity]</text>
</g>
<!-- Node_4&#45;&gt;Node_5 -->
<g id="edge3" class="edge"><title>Node_4&#45;&gt;Node_5</title>
<path fill="none" stroke="steelblue" d="M339.215,-365.494C323.833,-356.079 304.516,-344.255 287.883,-334.075"/>
<polygon fill="steelblue" stroke="steelblue" points="289.317,-330.849 278.96,-328.614 285.662,-336.819 289.317,-330.849"/>
</g>
<!-- Node_5&#45;&gt;Node_2 -->
<g id="edge24" class="edge"><title>Node_5&#45;&gt;Node_2</title>
<path fill="none" stroke="tan" d="M251.709,-328.671C253.587,-359.523 260.401,-425.712 285,-475 290.241,-485.502 298.059,-495.573 305.822,-504.087"/>
<polygon fill="tan" stroke="tan" points="303.415,-506.635 312.859,-511.437 308.471,-501.794 303.415,-506.635"/>
</g>
<!-- Node_16 -->
<g id="node17" class="node"><title>Node_16</title>
<path fill="lightblue" stroke="lightblue" d="M263,-219.5C263,-219.5 415,-219.5 415,-219.5 421,-219.5 427,-225.5 427,-231.5 427,-231.5 427,-243.5 427,-243.5 427,-249.5 421,-255.5 415,-255.5 415,-255.5 263,-255.5 263,-255.5 257,-255.5 251,-249.5 251,-243.5 251,-243.5 251,-231.5 251,-231.5 251,-225.5 257,-219.5 263,-219.5"/>
<text text-anchor="middle" x="339" y="-235.3" font-family="Arial" font-size="9.00"># sum_3 = PHI &lt;sum_6(2), sum_2(8)&gt;</text>
</g>
<!-- Node_5&#45;&gt;Node_16 -->
<g id="edge25" class="edge"><title>Node_5&#45;&gt;Node_16</title>
<path fill="none" stroke="tan" d="M272.302,-292.313C283.652,-283.156 297.776,-271.76 310.101,-261.816"/>
<polygon fill="tan" stroke="tan" points="312.309,-264.532 317.894,-255.529 307.913,-259.084 312.309,-264.532"/>
</g>
<!-- Node_34 -->
<g id="node35" class="node"><title>Node_34</title>
<path fill="lightblue" stroke="lightblue" d="M222,-657.5C222,-657.5 308,-657.5 308,-657.5 314,-657.5 320,-663.5 320,-669.5 320,-669.5 320,-681.5 320,-681.5 320,-687.5 314,-693.5 308,-693.5 308,-693.5 222,-693.5 222,-693.5 216,-693.5 210,-687.5 210,-681.5 210,-681.5 210,-669.5 210,-669.5 210,-663.5 216,-657.5 222,-657.5"/>
<text text-anchor="middle" x="265" y="-673.3" font-family="Arial" font-size="9.00">sum_10 = _9 + sum_2</text>
</g>
<!-- Node_5&#45;&gt;Node_34 -->
<g id="edge26" class="edge"><title>Node_5&#45;&gt;Node_34</title>
<path fill="none" stroke="tan" d="M243.31,-328.845C232.206,-355.513 213,-408.442 213,-455.5 213,-530.5 213,-530.5 213,-530.5 213,-573.963 234.215,-620.652 249.543,-648.715"/>
<polygon fill="tan" stroke="tan" points="246.524,-650.486 254.477,-657.486 252.625,-647.054 246.524,-650.486"/>
</g>
<!-- Node_6 -->
<g id="node7" class="node"><title>Node_6</title>
<path fill="lightblue" stroke="lightblue" d="M40,-657.5C40,-657.5 148,-657.5 148,-657.5 154,-657.5 160,-663.5 160,-669.5 160,-669.5 160,-681.5 160,-681.5 160,-687.5 154,-693.5 148,-693.5 148,-693.5 40,-693.5 40,-693.5 34,-693.5 28,-687.5 28,-681.5 28,-681.5 28,-669.5 28,-669.5 28,-663.5 34,-657.5 40,-657.5"/>
<text text-anchor="middle" x="94" y="-673.3" font-family="Arial" font-size="9.00"># j_5 = PHI &lt;j_8(3), j_11(6)&gt;</text>
</g>
<!-- Node_7 -->
<g id="node8" class="node"><title>Node_7</title>
<path fill="moccasin" stroke="moccasin" d="M19.5,-584.5C19.5,-584.5 74.5,-584.5 74.5,-584.5 80.5,-584.5 86.5,-590.5 86.5,-596.5 86.5,-596.5 86.5,-608.5 86.5,-608.5 86.5,-614.5 80.5,-620.5 74.5,-620.5 74.5,-620.5 19.5,-620.5 19.5,-620.5 13.5,-620.5 7.5,-614.5 7.5,-608.5 7.5,-608.5 7.5,-596.5 7.5,-596.5 7.5,-590.5 13.5,-584.5 19.5,-584.5"/>
<text text-anchor="middle" x="47" y="-600.3" font-family="Arial" font-size="9.00">j_5: [0.0, 101.0]</text>
</g>
<!-- Node_6&#45;&gt;Node_7 -->
<g id="edge4" class="edge"><title>Node_6&#45;&gt;Node_7</title>
<path fill="none" stroke="steelblue" d="M82.6226,-657.313C77.0227,-648.853 70.1581,-638.484 63.9547,-629.112"/>
<polygon fill="steelblue" stroke="steelblue" points="66.711,-626.935 58.2726,-620.529 60.874,-630.799 66.711,-626.935"/>
</g>
<!-- Node_7&#45;&gt;Node_0 -->
<g id="edge32" class="edge"><title>Node_7&#45;&gt;Node_0</title>
<path fill="none" stroke="tan" d="M36.3994,-620.777C30.5325,-630.995 23.5325,-644.37 19,-657 5.11776,-695.684 0,-706.401 0,-747.5 0,-968.5 0,-968.5 0,-968.5 0,-1010.34 14.8339,-1056.93 25.7166,-1085.48"/>
<polygon fill="tan" stroke="tan" points="22.5975,-1087.11 29.5125,-1095.14 29.1126,-1084.55 22.5975,-1087.11"/>
</g>
<!-- Node_8 -->
<g id="node9" class="node"><title>Node_8</title>
<path fill="lightblue" stroke="lightblue" d="M422.5,-1095.5C422.5,-1095.5 485.5,-1095.5 485.5,-1095.5 491.5,-1095.5 497.5,-1101.5 497.5,-1107.5 497.5,-1107.5 497.5,-1119.5 497.5,-1119.5 497.5,-1125.5 491.5,-1131.5 485.5,-1131.5 485.5,-1131.5 422.5,-1131.5 422.5,-1131.5 416.5,-1131.5 410.5,-1125.5 410.5,-1119.5 410.5,-1119.5 410.5,-1107.5 410.5,-1107.5 410.5,-1101.5 416.5,-1095.5 422.5,-1095.5"/>
<text text-anchor="middle" x="454" y="-1111.3" font-family="Arial" font-size="9.00">i_12 = i_4_t_f + 1</text>
</g>
<!-- Node_9 -->
<g id="node10" class="node"><title>Node_9</title>
<path fill="moccasin" stroke="moccasin" d="M459,-1022.5C459,-1022.5 519,-1022.5 519,-1022.5 525,-1022.5 531,-1028.5 531,-1034.5 531,-1034.5 531,-1046.5 531,-1046.5 531,-1052.5 525,-1058.5 519,-1058.5 519,-1058.5 459,-1058.5 459,-1058.5 453,-1058.5 447,-1052.5 447,-1046.5 447,-1046.5 447,-1034.5 447,-1034.5 447,-1028.5 453,-1022.5 459,-1022.5"/>
<text text-anchor="middle" x="489" y="-1038.3" font-family="Arial" font-size="9.00">i_12: [1.0, 100.0]</text>
</g>
<!-- Node_8&#45;&gt;Node_9 -->
<g id="edge5" class="edge"><title>Node_8&#45;&gt;Node_9</title>
<path fill="none" stroke="steelblue" d="M462.473,-1095.31C466.557,-1087.03 471.544,-1076.91 476.088,-1067.69"/>
<polygon fill="steelblue" stroke="steelblue" points="479.323,-1069.05 480.605,-1058.53 473.045,-1065.95 479.323,-1069.05"/>
</g>
<!-- Node_30 -->
<g id="node31" class="node"><title>Node_30</title>
<path fill="lightblue" stroke="lightblue" d="M459,-949.5C459,-949.5 567,-949.5 567,-949.5 573,-949.5 579,-955.5 579,-961.5 579,-961.5 579,-973.5 579,-973.5 579,-979.5 573,-985.5 567,-985.5 567,-985.5 459,-985.5 459,-985.5 453,-985.5 447,-979.5 447,-973.5 447,-973.5 447,-961.5 447,-961.5 447,-955.5 453,-949.5 459,-949.5"/>
<text text-anchor="middle" x="513" y="-965.3" font-family="Arial" font-size="9.00"># i_4 = PHI &lt;i_7(2), i_12(8)&gt;</text>
</g>
<!-- Node_9&#45;&gt;Node_30 -->
<g id="edge38" class="edge"><title>Node_9&#45;&gt;Node_30</title>
<path fill="none" stroke="tan" d="M494.81,-1022.31C497.551,-1014.2 500.887,-1004.34 503.949,-995.277"/>
<polygon fill="tan" stroke="tan" points="507.357,-996.123 507.244,-985.529 500.726,-993.881 507.357,-996.123"/>
</g>
<!-- Node_10 -->
<g id="node11" class="node"><title>Node_10</title>
<path fill="lightblue" stroke="lightblue" d="M568,-1095.5C568,-1095.5 598,-1095.5 598,-1095.5 604,-1095.5 610,-1101.5 610,-1107.5 610,-1107.5 610,-1119.5 610,-1119.5 610,-1125.5 604,-1131.5 598,-1131.5 598,-1131.5 568,-1131.5 568,-1131.5 562,-1131.5 556,-1125.5 556,-1119.5 556,-1119.5 556,-1107.5 556,-1107.5 556,-1101.5 562,-1095.5 568,-1095.5"/>
<text text-anchor="middle" x="583" y="-1111.3" font-family="Arial" font-size="9.00">i_7 = 0</text>
</g>
<!-- Node_11 -->
<g id="node12" class="node"><title>Node_11</title>
<path fill="moccasin" stroke="moccasin" d="M561,-1022.5C561,-1022.5 605,-1022.5 605,-1022.5 611,-1022.5 617,-1028.5 617,-1034.5 617,-1034.5 617,-1046.5 617,-1046.5 617,-1052.5 611,-1058.5 605,-1058.5 605,-1058.5 561,-1058.5 561,-1058.5 555,-1058.5 549,-1052.5 549,-1046.5 549,-1046.5 549,-1034.5 549,-1034.5 549,-1028.5 555,-1022.5 561,-1022.5"/>
<text text-anchor="middle" x="583" y="-1038.3" font-family="Arial" font-size="9.00">i_7: [0.0, 0.0]</text>
</g>
<!-- Node_10&#45;&gt;Node_11 -->
<g id="edge6" class="edge"><title>Node_10&#45;&gt;Node_11</title>
<path fill="none" stroke="steelblue" d="M583,-1095.31C583,-1087.29 583,-1077.55 583,-1068.57"/>
<polygon fill="steelblue" stroke="steelblue" points="586.5,-1068.53 583,-1058.53 579.5,-1068.53 586.5,-1068.53"/>
</g>
<!-- Node_11&#45;&gt;Node_30 -->
<g id="edge20" class="edge"><title>Node_11&#45;&gt;Node_30</title>
<path fill="none" stroke="tan" d="M566.055,-1022.31C557.285,-1013.42 546.432,-1002.41 536.831,-992.672"/>
<polygon fill="tan" stroke="tan" points="539.302,-990.193 529.789,-985.529 534.317,-995.107 539.302,-990.193"/>
</g>
<!-- Node_12 -->
<g id="node13" class="node"><title>Node_12</title>
<path fill="lightblue" stroke="lightblue" d="M373.5,-73.5C373.5,-73.5 420.5,-73.5 420.5,-73.5 426.5,-73.5 432.5,-79.5 432.5,-85.5 432.5,-85.5 432.5,-97.5 432.5,-97.5 432.5,-103.5 426.5,-109.5 420.5,-109.5 420.5,-109.5 373.5,-109.5 373.5,-109.5 367.5,-109.5 361.5,-103.5 361.5,-97.5 361.5,-97.5 361.5,-85.5 361.5,-85.5 361.5,-79.5 367.5,-73.5 373.5,-73.5"/>
<text text-anchor="middle" x="397" y="-89.3" font-family="Arial" font-size="9.00">_13 = sum_3</text>
</g>
<!-- Node_13 -->
<g id="node14" class="node"><title>Node_13</title>
<path fill="moccasin" stroke="moccasin" d="M359,-0.5C359,-0.5 435,-0.5 435,-0.5 441,-0.5 447,-6.5 447,-12.5 447,-12.5 447,-24.5 447,-24.5 447,-30.5 441,-36.5 435,-36.5 435,-36.5 359,-36.5 359,-36.5 353,-36.5 347,-30.5 347,-24.5 347,-24.5 347,-12.5 347,-12.5 347,-6.5 353,-0.5 359,-0.5"/>
<text text-anchor="middle" x="397" y="-16.3" font-family="Arial" font-size="9.00">_13: [&#45;Infinity, Infinity]</text>
</g>
<!-- Node_12&#45;&gt;Node_13 -->
<g id="edge7" class="edge"><title>Node_12&#45;&gt;Node_13</title>
<path fill="none" stroke="steelblue" d="M397,-73.3129C397,-65.2895 397,-55.5475 397,-46.5691"/>
<polygon fill="steelblue" stroke="steelblue" points="400.5,-46.5288 397,-36.5288 393.5,-46.5289 400.5,-46.5288"/>
</g>
<!-- Node_14 -->
<g id="node15" class="node"><title>Node_14</title>
<path fill="lightblue" stroke="lightblue" d="M149,-803.5C149,-803.5 179,-803.5 179,-803.5 185,-803.5 191,-809.5 191,-815.5 191,-815.5 191,-827.5 191,-827.5 191,-833.5 185,-839.5 179,-839.5 179,-839.5 149,-839.5 149,-839.5 143,-839.5 137,-833.5 137,-827.5 137,-827.5 137,-815.5 137,-815.5 137,-809.5 143,-803.5 149,-803.5"/>
<text text-anchor="middle" x="164" y="-819.3" font-family="Arial" font-size="9.00">j_8 = 0</text>
</g>
<!-- Node_15 -->
<g id="node16" class="node"><title>Node_15</title>
<path fill="moccasin" stroke="moccasin" d="M142,-730.5C142,-730.5 186,-730.5 186,-730.5 192,-730.5 198,-736.5 198,-742.5 198,-742.5 198,-754.5 198,-754.5 198,-760.5 192,-766.5 186,-766.5 186,-766.5 142,-766.5 142,-766.5 136,-766.5 130,-760.5 130,-754.5 130,-754.5 130,-742.5 130,-742.5 130,-736.5 136,-730.5 142,-730.5"/>
<text text-anchor="middle" x="164" y="-746.3" font-family="Arial" font-size="9.00">j_8: [0.0, 0.0]</text>
</g>
<!-- Node_14&#45;&gt;Node_15 -->
<g id="edge8" class="edge"><title>Node_14&#45;&gt;Node_15</title>
<path fill="none" stroke="steelblue" d="M164,-803.313C164,-795.289 164,-785.547 164,-776.569"/>
<polygon fill="steelblue" stroke="steelblue" points="167.5,-776.529 164,-766.529 160.5,-776.529 167.5,-776.529"/>
</g>
<!-- Node_15&#45;&gt;Node_6 -->
<g id="edge22" class="edge"><title>Node_15&#45;&gt;Node_6</title>
<path fill="none" stroke="tan" d="M147.055,-730.313C138.285,-721.417 127.432,-710.409 117.831,-700.672"/>
<polygon fill="tan" stroke="tan" points="120.302,-698.193 110.789,-693.529 115.317,-703.107 120.302,-698.193"/>
</g>
<!-- Node_17 -->
<g id="node18" class="node"><title>Node_17</title>
<path fill="moccasin" stroke="moccasin" d="M352.5,-146.5C352.5,-146.5 441.5,-146.5 441.5,-146.5 447.5,-146.5 453.5,-152.5 453.5,-158.5 453.5,-158.5 453.5,-170.5 453.5,-170.5 453.5,-176.5 447.5,-182.5 441.5,-182.5 441.5,-182.5 352.5,-182.5 352.5,-182.5 346.5,-182.5 340.5,-176.5 340.5,-170.5 340.5,-170.5 340.5,-158.5 340.5,-158.5 340.5,-152.5 346.5,-146.5 352.5,-146.5"/>
<text text-anchor="middle" x="397" y="-162.3" font-family="Arial" font-size="9.00">sum_3: [&#45;Infinity, Infinity]</text>
</g>
<!-- Node_16&#45;&gt;Node_17 -->
<g id="edge9" class="edge"><title>Node_16&#45;&gt;Node_17</title>
<path fill="none" stroke="steelblue" d="M353.04,-219.313C360.093,-210.679 368.772,-200.055 376.55,-190.534"/>
<polygon fill="steelblue" stroke="steelblue" points="379.473,-192.488 383.089,-182.529 374.052,-188.059 379.473,-192.488"/>
</g>
<!-- Node_17&#45;&gt;Node_4 -->
<g id="edge37" class="edge"><title>Node_17&#45;&gt;Node_4</title>
<path fill="none" stroke="tan" d="M413.892,-182.695C422.297,-192.473 431.585,-205.448 436,-219 451.145,-265.486 456.658,-285.168 435,-329 429.008,-341.127 418.818,-351.342 408.125,-359.489"/>
<polygon fill="tan" stroke="tan" points="406.043,-356.675 399.91,-365.314 410.092,-362.385 406.043,-356.675"/>
</g>
<!-- Node_17&#45;&gt;Node_12 -->
<g id="edge36" class="edge"><title>Node_17&#45;&gt;Node_12</title>
<path fill="none" stroke="tan" d="M397,-146.313C397,-138.289 397,-128.547 397,-119.569"/>
<polygon fill="tan" stroke="tan" points="400.5,-119.529 397,-109.529 393.5,-119.529 400.5,-119.529"/>
</g>
<!-- Node_19 -->
<g id="node20" class="node"><title>Node_19</title>
<path fill="moccasin" stroke="moccasin" d="M204,-876.5C204,-876.5 274,-876.5 274,-876.5 280,-876.5 286,-882.5 286,-888.5 286,-888.5 286,-900.5 286,-900.5 286,-906.5 280,-912.5 274,-912.5 274,-912.5 204,-912.5 204,-912.5 198,-912.5 192,-906.5 192,-900.5 192,-900.5 192,-888.5 192,-888.5 192,-882.5 198,-876.5 204,-876.5"/>
<text text-anchor="middle" x="239" y="-892.3" font-family="Arial" font-size="9.00">j_5_t_t: [99.0, 99.0]</text>
</g>
<!-- Node_18&#45;&gt;Node_19 -->
<g id="edge10" class="edge"><title>Node_18&#45;&gt;Node_19</title>
<path fill="none" stroke="steelblue" d="M201.862,-949.313C207.76,-940.766 215.004,-930.269 221.524,-920.823"/>
<polygon fill="steelblue" stroke="steelblue" points="224.448,-922.747 227.248,-912.529 218.687,-918.771 224.448,-922.747"/>
</g>
<!-- Node_32 -->
<g id="node33" class="node"><title>Node_32</title>
<path fill="lightblue" stroke="lightblue" d="M224.5,-803.5C224.5,-803.5 301.5,-803.5 301.5,-803.5 307.5,-803.5 313.5,-809.5 313.5,-815.5 313.5,-815.5 313.5,-827.5 313.5,-827.5 313.5,-833.5 307.5,-839.5 301.5,-839.5 301.5,-839.5 224.5,-839.5 224.5,-839.5 218.5,-839.5 212.5,-833.5 212.5,-827.5 212.5,-827.5 212.5,-815.5 212.5,-815.5 212.5,-809.5 218.5,-803.5 224.5,-803.5"/>
<text text-anchor="middle" x="263" y="-819.3" font-family="Arial" font-size="9.00">_9 = j_5_t_t * j_5_t_t</text>
</g>
<!-- Node_19&#45;&gt;Node_32 -->
<g id="edge21" class="edge"><title>Node_19&#45;&gt;Node_32</title>
<path fill="none" stroke="tan" d="M244.81,-876.313C247.551,-868.202 250.887,-858.336 253.949,-849.277"/>
<polygon fill="tan" stroke="tan" points="257.357,-850.123 257.244,-839.529 250.726,-847.881 257.357,-850.123"/>
</g>
<!-- Node_20 -->
<g id="node21" class="node"><title>Node_20</title>
<path fill="lightblue" stroke="lightblue" d="M42.5,-803.5C42.5,-803.5 105.5,-803.5 105.5,-803.5 111.5,-803.5 117.5,-809.5 117.5,-815.5 117.5,-815.5 117.5,-827.5 117.5,-827.5 117.5,-833.5 111.5,-839.5 105.5,-839.5 105.5,-839.5 42.5,-839.5 42.5,-839.5 36.5,-839.5 30.5,-833.5 30.5,-827.5 30.5,-827.5 30.5,-815.5 30.5,-815.5 30.5,-809.5 36.5,-803.5 42.5,-803.5"/>
<text text-anchor="middle" x="74" y="-819.3" font-family="Arial" font-size="9.00">j_11 = j_5_t_f + 1</text>
</g>
<!-- Node_21 -->
<g id="node22" class="node"><title>Node_21</title>
<path fill="moccasin" stroke="moccasin" d="M40,-730.5C40,-730.5 100,-730.5 100,-730.5 106,-730.5 112,-736.5 112,-742.5 112,-742.5 112,-754.5 112,-754.5 112,-760.5 106,-766.5 100,-766.5 100,-766.5 40,-766.5 40,-766.5 34,-766.5 28,-760.5 28,-754.5 28,-754.5 28,-742.5 28,-742.5 28,-736.5 34,-730.5 40,-730.5"/>
<text text-anchor="middle" x="70" y="-746.3" font-family="Arial" font-size="9.00">j_11: [1.0, 101.0]</text>
</g>
<!-- Node_20&#45;&gt;Node_21 -->
<g id="edge11" class="edge"><title>Node_20&#45;&gt;Node_21</title>
<path fill="none" stroke="steelblue" d="M73.0317,-803.313C72.5797,-795.289 72.0308,-785.547 71.525,-776.569"/>
<polygon fill="steelblue" stroke="steelblue" points="75.0164,-776.316 70.9594,-766.529 68.0275,-776.71 75.0164,-776.316"/>
</g>
<!-- Node_21&#45;&gt;Node_6 -->
<g id="edge34" class="edge"><title>Node_21&#45;&gt;Node_6</title>
<path fill="none" stroke="tan" d="M75.8097,-730.313C78.5513,-722.202 81.8866,-712.336 84.9487,-703.277"/>
<polygon fill="tan" stroke="tan" points="88.3571,-704.123 88.2438,-693.529 81.7257,-701.881 88.3571,-704.123"/>
</g>
<!-- Node_22 -->
<g id="node23" class="node"><title>Node_22</title>
<path fill="lightblue" stroke="lightblue" d="M463,-657.5C463,-657.5 511,-657.5 511,-657.5 517,-657.5 523,-663.5 523,-669.5 523,-669.5 523,-681.5 523,-681.5 523,-687.5 517,-693.5 511,-693.5 511,-693.5 463,-693.5 463,-693.5 457,-693.5 451,-687.5 451,-681.5 451,-681.5 451,-669.5 451,-669.5 451,-663.5 457,-657.5 463,-657.5"/>
<text text-anchor="middle" x="487" y="-673.3" font-family="Arial" font-size="9.00">if (j_5 &gt; i_4_t)</text>
</g>
<!-- Node_23 -->
<g id="node24" class="node"><title>Node_23</title>
<path fill="moccasin" stroke="moccasin" d="M405.5,-584.5C405.5,-584.5 470.5,-584.5 470.5,-584.5 476.5,-584.5 482.5,-590.5 482.5,-596.5 482.5,-596.5 482.5,-608.5 482.5,-608.5 482.5,-614.5 476.5,-620.5 470.5,-620.5 470.5,-620.5 405.5,-620.5 405.5,-620.5 399.5,-620.5 393.5,-614.5 393.5,-608.5 393.5,-608.5 393.5,-596.5 393.5,-596.5 393.5,-590.5 399.5,-584.5 405.5,-584.5"/>
<text text-anchor="middle" x="438" y="-600.3" font-family="Arial" font-size="9.00">i_4_t_f: [0.0, 99.0]</text>
</g>
<!-- Node_22&#45;&gt;Node_23 -->
<g id="edge12" class="edge"><title>Node_22&#45;&gt;Node_23</title>
<path fill="none" stroke="steelblue" d="M475.138,-657.313C469.24,-648.766 461.996,-638.269 455.476,-628.823"/>
<polygon fill="steelblue" stroke="steelblue" points="458.313,-626.771 449.752,-620.529 452.552,-630.747 458.313,-626.771"/>
</g>
<!-- Node_23&#45;&gt;Node_8 -->
<g id="edge30" class="edge"><title>Node_23&#45;&gt;Node_8</title>
<path fill="none" stroke="tan" d="M434.246,-620.693C428.709,-647.598 419,-701.353 419,-747.5 419,-968.5 419,-968.5 419,-968.5 419,-1010.2 433.032,-1056.83 443.327,-1085.42"/>
<polygon fill="tan" stroke="tan" points="440.157,-1086.94 446.917,-1095.1 446.72,-1084.5 440.157,-1086.94"/>
</g>
<!-- Node_24 -->
<g id="node25" class="node"><title>Node_24</title>
<path fill="lightblue" stroke="lightblue" d="M485.5,-365.5C485.5,-365.5 530.5,-365.5 530.5,-365.5 536.5,-365.5 542.5,-371.5 542.5,-377.5 542.5,-377.5 542.5,-389.5 542.5,-389.5 542.5,-395.5 536.5,-401.5 530.5,-401.5 530.5,-401.5 485.5,-401.5 485.5,-401.5 479.5,-401.5 473.5,-395.5 473.5,-389.5 473.5,-389.5 473.5,-377.5 473.5,-377.5 473.5,-371.5 479.5,-365.5 485.5,-365.5"/>
<text text-anchor="middle" x="508" y="-381.3" font-family="Arial" font-size="9.00">sum_6 = &#45;10</text>
</g>
<!-- Node_25 -->
<g id="node26" class="node"><title>Node_25</title>
<path fill="moccasin" stroke="moccasin" d="M337.5,-292.5C337.5,-292.5 414.5,-292.5 414.5,-292.5 420.5,-292.5 426.5,-298.5 426.5,-304.5 426.5,-304.5 426.5,-316.5 426.5,-316.5 426.5,-322.5 420.5,-328.5 414.5,-328.5 414.5,-328.5 337.5,-328.5 337.5,-328.5 331.5,-328.5 325.5,-322.5 325.5,-316.5 325.5,-316.5 325.5,-304.5 325.5,-304.5 325.5,-298.5 331.5,-292.5 337.5,-292.5"/>
<text text-anchor="middle" x="376" y="-308.3" font-family="Arial" font-size="9.00">sum_6: [&#45;10.0, &#45;10.0]</text>
</g>
<!-- Node_24&#45;&gt;Node_25 -->
<g id="edge13" class="edge"><title>Node_24&#45;&gt;Node_25</title>
<path fill="none" stroke="steelblue" d="M476.383,-365.494C458.473,-355.861 435.877,-343.707 416.661,-333.37"/>
<polygon fill="steelblue" stroke="steelblue" points="418.282,-330.268 407.817,-328.614 414.966,-336.433 418.282,-330.268"/>
</g>
<!-- Node_25&#45;&gt;Node_16 -->
<g id="edge39" class="edge"><title>Node_25&#45;&gt;Node_16</title>
<path fill="none" stroke="tan" d="M367.043,-292.313C362.68,-283.941 357.342,-273.697 352.499,-264.403"/>
<polygon fill="tan" stroke="tan" points="355.599,-262.779 347.874,-255.529 349.392,-266.014 355.599,-262.779"/>
</g>
<!-- Node_27 -->
<g id="node28" class="node"><title>Node_27</title>
<path fill="moccasin" stroke="moccasin" d="M40,-876.5C40,-876.5 110,-876.5 110,-876.5 116,-876.5 122,-882.5 122,-888.5 122,-888.5 122,-900.5 122,-900.5 122,-906.5 116,-912.5 110,-912.5 110,-912.5 40,-912.5 40,-912.5 34,-912.5 28,-906.5 28,-900.5 28,-900.5 28,-888.5 28,-888.5 28,-882.5 34,-876.5 40,-876.5"/>
<text text-anchor="middle" x="75" y="-892.3" font-family="Arial" font-size="9.00">j_5_t_f: [0.0, 100.0]</text>
</g>
<!-- Node_26&#45;&gt;Node_27 -->
<g id="edge14" class="edge"><title>Node_26&#45;&gt;Node_27</title>
<path fill="none" stroke="steelblue" d="M75,-949.313C75,-941.289 75,-931.547 75,-922.569"/>
<polygon fill="steelblue" stroke="steelblue" points="78.5001,-922.529 75,-912.529 71.5001,-922.529 78.5001,-922.529"/>
</g>
<!-- Node_27&#45;&gt;Node_20 -->
<g id="edge31" class="edge"><title>Node_27&#45;&gt;Node_20</title>
<path fill="none" stroke="tan" d="M74.7579,-876.313C74.6449,-868.289 74.5077,-858.547 74.3813,-849.569"/>
<polygon fill="tan" stroke="tan" points="77.8804,-849.479 74.2398,-839.529 70.8811,-849.577 77.8804,-849.479"/>
</g>
<!-- Node_28 -->
<g id="node29" class="node"><title>Node_28</title>
<path fill="lightblue" stroke="lightblue" d="M475,-803.5C475,-803.5 519,-803.5 519,-803.5 525,-803.5 531,-809.5 531,-815.5 531,-815.5 531,-827.5 531,-827.5 531,-833.5 525,-839.5 519,-839.5 519,-839.5 475,-839.5 475,-839.5 469,-839.5 463,-833.5 463,-827.5 463,-827.5 463,-815.5 463,-815.5 463,-809.5 469,-803.5 475,-803.5"/>
<text text-anchor="middle" x="497" y="-819.3" font-family="Arial" font-size="9.00">if (i_4 &lt;= 99)</text>
</g>
<!-- Node_29 -->
<g id="node30" class="node"><title>Node_29</title>
<path fill="moccasin" stroke="moccasin" d="M462.5,-730.5C462.5,-730.5 519.5,-730.5 519.5,-730.5 525.5,-730.5 531.5,-736.5 531.5,-742.5 531.5,-742.5 531.5,-754.5 531.5,-754.5 531.5,-760.5 525.5,-766.5 519.5,-766.5 519.5,-766.5 462.5,-766.5 462.5,-766.5 456.5,-766.5 450.5,-760.5 450.5,-754.5 450.5,-754.5 450.5,-742.5 450.5,-742.5 450.5,-736.5 456.5,-730.5 462.5,-730.5"/>
<text text-anchor="middle" x="491" y="-746.3" font-family="Arial" font-size="9.00">i_4_t: [0.0, 99.0]</text>
</g>
<!-- Node_28&#45;&gt;Node_29 -->
<g id="edge15" class="edge"><title>Node_28&#45;&gt;Node_29</title>
<path fill="none" stroke="steelblue" d="M495.548,-803.313C494.87,-795.289 494.046,-785.547 493.288,-776.569"/>
<polygon fill="steelblue" stroke="steelblue" points="496.769,-776.199 492.439,-766.529 489.794,-776.788 496.769,-776.199"/>
</g>
<!-- Node_29&#45;&gt;Node_22 -->
<g id="edge35" class="edge"><title>Node_29&#45;&gt;Node_22</title>
<path fill="none" stroke="tan" d="M490.032,-730.313C489.58,-722.289 489.031,-712.547 488.525,-703.569"/>
<polygon fill="tan" stroke="tan" points="492.016,-703.316 487.959,-693.529 485.027,-703.71 492.016,-703.316"/>
</g>
<!-- Node_31 -->
<g id="node32" class="node"><title>Node_31</title>
<path fill="moccasin" stroke="moccasin" d="M481.5,-876.5C481.5,-876.5 536.5,-876.5 536.5,-876.5 542.5,-876.5 548.5,-882.5 548.5,-888.5 548.5,-888.5 548.5,-900.5 548.5,-900.5 548.5,-906.5 542.5,-912.5 536.5,-912.5 536.5,-912.5 481.5,-912.5 481.5,-912.5 475.5,-912.5 469.5,-906.5 469.5,-900.5 469.5,-900.5 469.5,-888.5 469.5,-888.5 469.5,-882.5 475.5,-876.5 481.5,-876.5"/>
<text text-anchor="middle" x="509" y="-892.3" font-family="Arial" font-size="9.00">i_4: [0.0, 100.0]</text>
</g>
<!-- Node_30&#45;&gt;Node_31 -->
<g id="edge16" class="edge"><title>Node_30&#45;&gt;Node_31</title>
<path fill="none" stroke="steelblue" d="M512.032,-949.313C511.58,-941.289 511.031,-931.547 510.525,-922.569"/>
<polygon fill="steelblue" stroke="steelblue" points="514.016,-922.316 509.959,-912.529 507.027,-922.71 514.016,-922.316"/>
</g>
<!-- Node_31&#45;&gt;Node_28 -->
<g id="edge27" class="edge"><title>Node_31&#45;&gt;Node_28</title>
<path fill="none" stroke="tan" d="M506.095,-876.313C504.739,-868.289 503.093,-858.547 501.575,-849.569"/>
<polygon fill="tan" stroke="tan" points="504.996,-848.806 499.878,-839.529 498.094,-849.972 504.996,-848.806"/>
</g>
<!-- Node_33 -->
<g id="node34" class="node"><title>Node_33</title>
<path fill="moccasin" stroke="moccasin" d="M228,-730.5C228,-730.5 302,-730.5 302,-730.5 308,-730.5 314,-736.5 314,-742.5 314,-742.5 314,-754.5 314,-754.5 314,-760.5 308,-766.5 302,-766.5 302,-766.5 228,-766.5 228,-766.5 222,-766.5 216,-760.5 216,-754.5 216,-754.5 216,-742.5 216,-742.5 216,-736.5 222,-730.5 228,-730.5"/>
<text text-anchor="middle" x="265" y="-746.3" font-family="Arial" font-size="9.00">_9: [9801.0, 9801.0]</text>
</g>
<!-- Node_32&#45;&gt;Node_33 -->
<g id="edge17" class="edge"><title>Node_32&#45;&gt;Node_33</title>
<path fill="none" stroke="steelblue" d="M263.484,-803.313C263.71,-795.289 263.985,-785.547 264.237,-776.569"/>
<polygon fill="steelblue" stroke="steelblue" points="267.737,-776.623 264.52,-766.529 260.74,-776.426 267.737,-776.623"/>
</g>
<!-- Node_33&#45;&gt;Node_34 -->
<g id="edge19" class="edge"><title>Node_33&#45;&gt;Node_34</title>
<path fill="none" stroke="tan" d="M265,-730.313C265,-722.289 265,-712.547 265,-703.569"/>
<polygon fill="tan" stroke="tan" points="268.5,-703.529 265,-693.529 261.5,-703.529 268.5,-703.529"/>
</g>
<!-- Node_35 -->
<g id="node36" class="node"><title>Node_35</title>
<path fill="moccasin" stroke="moccasin" d="M268.5,-584.5C268.5,-584.5 363.5,-584.5 363.5,-584.5 369.5,-584.5 375.5,-590.5 375.5,-596.5 375.5,-596.5 375.5,-608.5 375.5,-608.5 375.5,-614.5 369.5,-620.5 363.5,-620.5 363.5,-620.5 268.5,-620.5 268.5,-620.5 262.5,-620.5 256.5,-614.5 256.5,-608.5 256.5,-608.5 256.5,-596.5 256.5,-596.5 256.5,-590.5 262.5,-584.5 268.5,-584.5"/>
<text text-anchor="middle" x="316" y="-600.3" font-family="Arial" font-size="9.00">sum_10: [&#45;Infinity, Infinity]</text>
</g>
<!-- Node_34&#45;&gt;Node_35 -->
<g id="edge18" class="edge"><title>Node_34&#45;&gt;Node_35</title>
<path fill="none" stroke="steelblue" d="M277.346,-657.313C283.485,-648.766 291.025,-638.269 297.81,-628.823"/>
<polygon fill="steelblue" stroke="steelblue" points="300.777,-630.693 303.768,-620.529 295.091,-626.609 300.777,-630.693"/>
</g>
<!-- Node_35&#45;&gt;Node_2 -->
<g id="edge23" class="edge"><title>Node_35&#45;&gt;Node_2</title>
<path fill="none" stroke="tan" d="M319.873,-584.313C321.681,-576.289 323.877,-566.547 325.9,-557.569"/>
<polygon fill="tan" stroke="tan" points="329.378,-558.054 328.163,-547.529 322.55,-556.515 329.378,-558.054"/>
</g>
</g>
</svg>
