<?xml version="1.0" encoding="UTF-8" standalone="no"?>
<!DOCTYPE svg PUBLIC "-//W3C//DTD SVG 1.1//EN"
 "http://www.w3.org/Graphics/SVG/1.1/DTD/svg11.dtd">
<!-- Generated by graphviz version 2.38.0 (20140413.2041)
 -->
<!-- Title: t9_foo_final_ConstraintGraph Pages: 1 -->
<svg width="954pt" height="650pt"
     viewBox="0.00 0.00 954.00 650.00" xmlns="http://www.w3.org/2000/svg">
<g id="graph0" class="graph" transform="scale(1 1) rotate(0) translate(4 646)">
<title>t9_foo_final_ConstraintGraph</title>
<polygon fill="white" stroke="none" points="-4,4 -4,-646 950,-646 950,4 -4,4"/>
<text text-anchor="middle" x="473" y="-628.4" font-family="Arial" font-size="12.00">t9_foo_final_ConstraintGraph</text>
<!-- Node_0 -->
<g id="node1" class="node"><title>Node_0</title>
<path fill="lightblue" stroke="lightblue" d="M166,-365.5C166,-365.5 318,-365.5 318,-365.5 324,-365.5 330,-371.5 330,-377.5 330,-377.5 330,-389.5 330,-389.5 330,-395.5 324,-401.5 318,-401.5 318,-401.5 166,-401.5 166,-401.5 160,-401.5 154,-395.5 154,-389.5 154,-389.5 154,-377.5 154,-377.5 154,-371.5 160,-365.5 166,-365.5"/>
<text text-anchor="middle" x="242" y="-381.3" font-family="Arial" font-size="9.00"># sum_2 = PHI &lt;sum_3(3), sum_1(6)&gt;</text>
</g>
<!-- Node_1 -->
<g id="node2" class="node"><title>Node_1</title>
<path fill="moccasin" stroke="moccasin" d="M282.5,-292.5C282.5,-292.5 371.5,-292.5 371.5,-292.5 377.5,-292.5 383.5,-298.5 383.5,-304.5 383.5,-304.5 383.5,-316.5 383.5,-316.5 383.5,-322.5 377.5,-328.5 371.5,-328.5 371.5,-328.5 282.5,-328.5 282.5,-328.5 276.5,-328.5 270.5,-322.5 270.5,-316.5 270.5,-316.5 270.5,-304.5 270.5,-304.5 270.5,-298.5 276.5,-292.5 282.5,-292.5"/>
<text text-anchor="middle" x="327" y="-308.3" font-family="Arial" font-size="9.00">sum_2: [&#45;Infinity, Infinity]</text>
</g>
<!-- Node_0&#45;&gt;Node_1 -->
<g id="edge1" class="edge"><title>Node_0&#45;&gt;Node_1</title>
<path fill="none" stroke="steelblue" d="M262.576,-365.313C273.434,-356.243 286.922,-344.977 298.746,-335.1"/>
<polygon fill="steelblue" stroke="steelblue" points="301.182,-337.626 306.613,-328.529 296.695,-332.253 301.182,-337.626"/>
</g>
<!-- Node_26 -->
<g id="node27" class="node"><title>Node_26</title>
<path fill="lightblue" stroke="lightblue" d="M12,-219.5C12,-219.5 164,-219.5 164,-219.5 170,-219.5 176,-225.5 176,-231.5 176,-231.5 176,-243.5 176,-243.5 176,-249.5 170,-255.5 164,-255.5 164,-255.5 12,-255.5 12,-255.5 6,-255.5 0,-249.5 0,-243.5 0,-243.5 0,-231.5 0,-231.5 0,-225.5 6,-219.5 12,-219.5"/>
<text text-anchor="middle" x="88" y="-235.3" font-family="Arial" font-size="9.00"># sum_3 = PHI &lt;sum_6(2), sum_2(8)&gt;</text>
</g>
<!-- Node_1&#45;&gt;Node_26 -->
<g id="edge30" class="edge"><title>Node_1&#45;&gt;Node_26</title>
<path fill="none" stroke="tan" d="M270.36,-292.674C235.914,-282.441 191.727,-269.314 155.476,-258.545"/>
<polygon fill="tan" stroke="tan" points="156.06,-255.067 145.477,-255.575 154.066,-261.778 156.06,-255.067"/>
</g>
<!-- Node_30 -->
<g id="node31" class="node"><title>Node_30</title>
<path fill="lightblue" stroke="lightblue" d="M372,-219.5C372,-219.5 458,-219.5 458,-219.5 464,-219.5 470,-225.5 470,-231.5 470,-231.5 470,-243.5 470,-243.5 470,-249.5 464,-255.5 458,-255.5 458,-255.5 372,-255.5 372,-255.5 366,-255.5 360,-249.5 360,-243.5 360,-243.5 360,-231.5 360,-231.5 360,-225.5 366,-219.5 372,-219.5"/>
<text text-anchor="middle" x="415" y="-235.3" font-family="Arial" font-size="9.00">sum_10 = _9 + sum_2</text>
</g>
<!-- Node_1&#45;&gt;Node_30 -->
<g id="edge31" class="edge"><title>Node_1&#45;&gt;Node_30</title>
<path fill="none" stroke="tan" d="M348.302,-292.313C359.652,-283.156 373.776,-271.76 386.101,-261.816"/>
<polygon fill="tan" stroke="tan" points="388.309,-264.532 393.894,-255.529 383.913,-259.084 388.309,-264.532"/>
</g>
<!-- Node_32 -->
<g id="node33" class="node"><title>Node_32</title>
<path fill="lightblue" stroke="lightblue" d="M282,-73.5C282,-73.5 440,-73.5 440,-73.5 446,-73.5 452,-79.5 452,-85.5 452,-85.5 452,-97.5 452,-97.5 452,-103.5 446,-109.5 440,-109.5 440,-109.5 282,-109.5 282,-109.5 276,-109.5 270,-103.5 270,-97.5 270,-97.5 270,-85.5 270,-85.5 270,-79.5 276,-73.5 282,-73.5"/>
<text text-anchor="middle" x="361" y="-89.3" font-family="Arial" font-size="9.00"># sum_1 = PHI &lt;sum_2(4), sum_10(5)&gt;</text>
</g>
<!-- Node_1&#45;&gt;Node_32 -->
<g id="edge32" class="edge"><title>Node_1&#45;&gt;Node_32</title>
<path fill="none" stroke="tan" d="M328.111,-292.178C330.236,-262.179 335.615,-198.71 346,-146 347.723,-137.253 350.157,-127.848 352.564,-119.401"/>
<polygon fill="tan" stroke="tan" points="355.959,-120.263 355.437,-109.681 349.246,-118.279 355.959,-120.263"/>
</g>
<!-- Node_2 -->
<g id="node3" class="node"><title>Node_2</title>
<path fill="lightblue" stroke="lightblue" d="M436.5,-511.5C436.5,-511.5 487.5,-511.5 487.5,-511.5 493.5,-511.5 499.5,-517.5 499.5,-523.5 499.5,-523.5 499.5,-535.5 499.5,-535.5 499.5,-541.5 493.5,-547.5 487.5,-547.5 487.5,-547.5 436.5,-547.5 436.5,-547.5 430.5,-547.5 424.5,-541.5 424.5,-535.5 424.5,-535.5 424.5,-523.5 424.5,-523.5 424.5,-517.5 430.5,-511.5 436.5,-511.5"/>
<text text-anchor="middle" x="462" y="-527.3" font-family="Arial" font-size="9.00">if (j_5_t == 99)</text>
</g>
<!-- Node_3 -->
<g id="node4" class="node"><title>Node_3</title>
<path fill="moccasin" stroke="moccasin" d="M416,-438.5C416,-438.5 486,-438.5 486,-438.5 492,-438.5 498,-444.5 498,-450.5 498,-450.5 498,-462.5 498,-462.5 498,-468.5 492,-474.5 486,-474.5 486,-474.5 416,-474.5 416,-474.5 410,-474.5 404,-468.5 404,-462.5 404,-462.5 404,-450.5 404,-450.5 404,-444.5 410,-438.5 416,-438.5"/>
<text text-anchor="middle" x="451" y="-454.3" font-family="Arial" font-size="9.00">j_5_t_t: [99.0, 99.0]</text>
</g>
<!-- Node_2&#45;&gt;Node_3 -->
<g id="edge2" class="edge"><title>Node_2&#45;&gt;Node_3</title>
<path fill="none" stroke="steelblue" d="M459.337,-511.313C458.094,-503.289 456.585,-493.547 455.194,-484.569"/>
<polygon fill="steelblue" stroke="steelblue" points="458.628,-483.875 453.638,-474.529 451.711,-484.947 458.628,-483.875"/>
</g>
<!-- Node_6 -->
<g id="node7" class="node"><title>Node_6</title>
<path fill="lightblue" stroke="lightblue" d="M412.5,-365.5C412.5,-365.5 489.5,-365.5 489.5,-365.5 495.5,-365.5 501.5,-371.5 501.5,-377.5 501.5,-377.5 501.5,-389.5 501.5,-389.5 501.5,-395.5 495.5,-401.5 489.5,-401.5 489.5,-401.5 412.5,-401.5 412.5,-401.5 406.5,-401.5 400.5,-395.5 400.5,-389.5 400.5,-389.5 400.5,-377.5 400.5,-377.5 400.5,-371.5 406.5,-365.5 412.5,-365.5"/>
<text text-anchor="middle" x="451" y="-381.3" font-family="Arial" font-size="9.00">_9 = j_5_t_t * j_5_t_t</text>
</g>
<!-- Node_3&#45;&gt;Node_6 -->
<g id="edge25" class="edge"><title>Node_3&#45;&gt;Node_6</title>
<path fill="none" stroke="tan" d="M451,-438.313C451,-430.289 451,-420.547 451,-411.569"/>
<polygon fill="tan" stroke="tan" points="454.5,-411.529 451,-401.529 447.5,-411.529 454.5,-411.529"/>
</g>
<!-- Node_4 -->
<g id="node5" class="node"><title>Node_4</title>
<path fill="lightblue" stroke="lightblue" d="M571,-219.5C571,-219.5 679,-219.5 679,-219.5 685,-219.5 691,-225.5 691,-231.5 691,-231.5 691,-243.5 691,-243.5 691,-249.5 685,-255.5 679,-255.5 679,-255.5 571,-255.5 571,-255.5 565,-255.5 559,-249.5 559,-243.5 559,-243.5 559,-231.5 559,-231.5 559,-225.5 565,-219.5 571,-219.5"/>
<text text-anchor="middle" x="625" y="-235.3" font-family="Arial" font-size="9.00"># j_5 = PHI &lt;j_8(3), j_11(6)&gt;</text>
</g>
<!-- Node_5 -->
<g id="node6" class="node"><title>Node_5</title>
<path fill="moccasin" stroke="moccasin" d="M609.5,-146.5C609.5,-146.5 666.5,-146.5 666.5,-146.5 672.5,-146.5 678.5,-152.5 678.5,-158.5 678.5,-158.5 678.5,-170.5 678.5,-170.5 678.5,-176.5 672.5,-182.5 666.5,-182.5 666.5,-182.5 609.5,-182.5 609.5,-182.5 603.5,-182.5 597.5,-176.5 597.5,-170.5 597.5,-170.5 597.5,-158.5 597.5,-158.5 597.5,-152.5 603.5,-146.5 609.5,-146.5"/>
<text text-anchor="middle" x="638" y="-162.3" font-family="Arial" font-size="9.00">j_5: [0.0, Infinity]</text>
</g>
<!-- Node_4&#45;&gt;Node_5 -->
<g id="edge3" class="edge"><title>Node_4&#45;&gt;Node_5</title>
<path fill="none" stroke="steelblue" d="M628.147,-219.313C629.616,-211.289 631.4,-201.547 633.044,-192.569"/>
<polygon fill="steelblue" stroke="steelblue" points="636.524,-192.996 634.882,-182.529 629.638,-191.735 636.524,-192.996"/>
</g>
<!-- Node_18 -->
<g id="node19" class="node"><title>Node_18</title>
<path fill="lightblue" stroke="lightblue" d="M655,-73.5C655,-73.5 701,-73.5 701,-73.5 707,-73.5 713,-79.5 713,-85.5 713,-85.5 713,-97.5 713,-97.5 713,-103.5 707,-109.5 701,-109.5 701,-109.5 655,-109.5 655,-109.5 649,-109.5 643,-103.5 643,-97.5 643,-97.5 643,-85.5 643,-85.5 643,-79.5 649,-73.5 655,-73.5"/>
<text text-anchor="middle" x="678" y="-89.3" font-family="Arial" font-size="9.00">if (j_5 &lt;= i_4)</text>
</g>
<!-- Node_5&#45;&gt;Node_18 -->
<g id="edge20" class="edge"><title>Node_5&#45;&gt;Node_18</title>
<path fill="none" stroke="tan" d="M647.683,-146.313C652.4,-137.941 658.171,-127.697 663.407,-118.403"/>
<polygon fill="tan" stroke="tan" points="666.547,-119.959 668.406,-109.529 660.448,-116.523 666.547,-119.959"/>
</g>
<!-- Node_7 -->
<g id="node8" class="node"><title>Node_7</title>
<path fill="moccasin" stroke="moccasin" d="M414,-292.5C414,-292.5 488,-292.5 488,-292.5 494,-292.5 500,-298.5 500,-304.5 500,-304.5 500,-316.5 500,-316.5 500,-322.5 494,-328.5 488,-328.5 488,-328.5 414,-328.5 414,-328.5 408,-328.5 402,-322.5 402,-316.5 402,-316.5 402,-304.5 402,-304.5 402,-298.5 408,-292.5 414,-292.5"/>
<text text-anchor="middle" x="451" y="-308.3" font-family="Arial" font-size="9.00">_9: [9801.0, 9801.0]</text>
</g>
<!-- Node_6&#45;&gt;Node_7 -->
<g id="edge4" class="edge"><title>Node_6&#45;&gt;Node_7</title>
<path fill="none" stroke="steelblue" d="M451,-365.313C451,-357.289 451,-347.547 451,-338.569"/>
<polygon fill="steelblue" stroke="steelblue" points="454.5,-338.529 451,-328.529 447.5,-338.529 454.5,-338.529"/>
</g>
<!-- Node_7&#45;&gt;Node_30 -->
<g id="edge33" class="edge"><title>Node_7&#45;&gt;Node_30</title>
<path fill="none" stroke="tan" d="M442.285,-292.313C438.085,-284.028 432.955,-273.91 428.281,-264.693"/>
<polygon fill="tan" stroke="tan" points="431.278,-262.865 423.634,-255.529 425.035,-266.031 431.278,-262.865"/>
</g>
<!-- Node_8 -->
<g id="node9" class="node"><title>Node_8</title>
<path fill="lightblue" stroke="lightblue" d="M879,-584.5C879,-584.5 923,-584.5 923,-584.5 929,-584.5 935,-590.5 935,-596.5 935,-596.5 935,-608.5 935,-608.5 935,-614.5 929,-620.5 923,-620.5 923,-620.5 879,-620.5 879,-620.5 873,-620.5 867,-614.5 867,-608.5 867,-608.5 867,-596.5 867,-596.5 867,-590.5 873,-584.5 879,-584.5"/>
<text text-anchor="middle" x="901" y="-600.3" font-family="Arial" font-size="9.00">if (i_4 &lt;= 99)</text>
</g>
<!-- Node_9 -->
<g id="node10" class="node"><title>Node_9</title>
<path fill="moccasin" stroke="moccasin" d="M827.5,-511.5C827.5,-511.5 884.5,-511.5 884.5,-511.5 890.5,-511.5 896.5,-517.5 896.5,-523.5 896.5,-523.5 896.5,-535.5 896.5,-535.5 896.5,-541.5 890.5,-547.5 884.5,-547.5 884.5,-547.5 827.5,-547.5 827.5,-547.5 821.5,-547.5 815.5,-541.5 815.5,-535.5 815.5,-535.5 815.5,-523.5 815.5,-523.5 815.5,-517.5 821.5,-511.5 827.5,-511.5"/>
<text text-anchor="middle" x="856" y="-527.3" font-family="Arial" font-size="9.00">i_4_t: [0.0, 99.0]</text>
</g>
<!-- Node_8&#45;&gt;Node_9 -->
<g id="edge5" class="edge"><title>Node_8&#45;&gt;Node_9</title>
<path fill="none" stroke="steelblue" d="M890.107,-584.313C884.745,-575.853 878.173,-565.484 872.233,-556.112"/>
<polygon fill="steelblue" stroke="steelblue" points="875.103,-554.102 866.793,-547.529 869.19,-557.849 875.103,-554.102"/>
</g>
<!-- Node_20 -->
<g id="node21" class="node"><title>Node_20</title>
<path fill="lightblue" stroke="lightblue" d="M811,-438.5C811,-438.5 859,-438.5 859,-438.5 865,-438.5 871,-444.5 871,-450.5 871,-450.5 871,-462.5 871,-462.5 871,-468.5 865,-474.5 859,-474.5 859,-474.5 811,-474.5 811,-474.5 805,-474.5 799,-468.5 799,-462.5 799,-462.5 799,-450.5 799,-450.5 799,-444.5 805,-438.5 811,-438.5"/>
<text text-anchor="middle" x="835" y="-454.3" font-family="Arial" font-size="9.00">if (j_5 &gt; i_4_t)</text>
</g>
<!-- Node_9&#45;&gt;Node_20 -->
<g id="edge34" class="edge"><title>Node_9&#45;&gt;Node_20</title>
<path fill="none" stroke="tan" d="M850.916,-511.313C848.518,-503.202 845.599,-493.336 842.92,-484.277"/>
<polygon fill="tan" stroke="tan" points="846.229,-483.125 840.037,-474.529 839.517,-485.111 846.229,-483.125"/>
</g>
<!-- Node_10 -->
<g id="node11" class="node"><title>Node_10</title>
<path fill="lightblue" stroke="lightblue" d="M760.5,-292.5C760.5,-292.5 823.5,-292.5 823.5,-292.5 829.5,-292.5 835.5,-298.5 835.5,-304.5 835.5,-304.5 835.5,-316.5 835.5,-316.5 835.5,-322.5 829.5,-328.5 823.5,-328.5 823.5,-328.5 760.5,-328.5 760.5,-328.5 754.5,-328.5 748.5,-322.5 748.5,-316.5 748.5,-316.5 748.5,-304.5 748.5,-304.5 748.5,-298.5 754.5,-292.5 760.5,-292.5"/>
<text text-anchor="middle" x="792" y="-308.3" font-family="Arial" font-size="9.00">i_12 = i_4_t_f + 1</text>
</g>
<!-- Node_11 -->
<g id="node12" class="node"><title>Node_11</title>
<path fill="moccasin" stroke="moccasin" d="M760,-219.5C760,-219.5 820,-219.5 820,-219.5 826,-219.5 832,-225.5 832,-231.5 832,-231.5 832,-243.5 832,-243.5 832,-249.5 826,-255.5 820,-255.5 820,-255.5 760,-255.5 760,-255.5 754,-255.5 748,-249.5 748,-243.5 748,-243.5 748,-231.5 748,-231.5 748,-225.5 754,-219.5 760,-219.5"/>
<text text-anchor="middle" x="790" y="-235.3" font-family="Arial" font-size="9.00">i_12: [1.0, 100.0]</text>
</g>
<!-- Node_10&#45;&gt;Node_11 -->
<g id="edge6" class="edge"><title>Node_10&#45;&gt;Node_11</title>
<path fill="none" stroke="steelblue" d="M791.516,-292.313C791.29,-284.289 791.015,-274.547 790.763,-265.569"/>
<polygon fill="steelblue" stroke="steelblue" points="794.26,-265.426 790.48,-255.529 787.263,-265.623 794.26,-265.426"/>
</g>
<!-- Node_14 -->
<g id="node15" class="node"><title>Node_14</title>
<path fill="lightblue" stroke="lightblue" d="M798,-146.5C798,-146.5 906,-146.5 906,-146.5 912,-146.5 918,-152.5 918,-158.5 918,-158.5 918,-170.5 918,-170.5 918,-176.5 912,-182.5 906,-182.5 906,-182.5 798,-182.5 798,-182.5 792,-182.5 786,-176.5 786,-170.5 786,-170.5 786,-158.5 786,-158.5 786,-152.5 792,-146.5 798,-146.5"/>
<text text-anchor="middle" x="852" y="-162.3" font-family="Arial" font-size="9.00"># i_4 = PHI &lt;i_7(2), i_12(8)&gt;</text>
</g>
<!-- Node_11&#45;&gt;Node_14 -->
<g id="edge37" class="edge"><title>Node_11&#45;&gt;Node_14</title>
<path fill="none" stroke="tan" d="M805.008,-219.313C812.624,-210.592 822.013,-199.84 830.391,-190.246"/>
<polygon fill="tan" stroke="tan" points="833.189,-192.363 837.13,-182.529 827.916,-187.759 833.189,-192.363"/>
</g>
<!-- Node_12 -->
<g id="node13" class="node"><title>Node_12</title>
<path fill="lightblue" stroke="lightblue" d="M113.5,-73.5C113.5,-73.5 160.5,-73.5 160.5,-73.5 166.5,-73.5 172.5,-79.5 172.5,-85.5 172.5,-85.5 172.5,-97.5 172.5,-97.5 172.5,-103.5 166.5,-109.5 160.5,-109.5 160.5,-109.5 113.5,-109.5 113.5,-109.5 107.5,-109.5 101.5,-103.5 101.5,-97.5 101.5,-97.5 101.5,-85.5 101.5,-85.5 101.5,-79.5 107.5,-73.5 113.5,-73.5"/>
<text text-anchor="middle" x="137" y="-89.3" font-family="Arial" font-size="9.00">_13 = sum_3</text>
</g>
<!-- Node_13 -->
<g id="node14" class="node"><title>Node_13</title>
<path fill="moccasin" stroke="moccasin" d="M99,-0.5C99,-0.5 175,-0.5 175,-0.5 181,-0.5 187,-6.5 187,-12.5 187,-12.5 187,-24.5 187,-24.5 187,-30.5 181,-36.5 175,-36.5 175,-36.5 99,-36.5 99,-36.5 93,-36.5 87,-30.5 87,-24.5 87,-24.5 87,-12.5 87,-12.5 87,-6.5 93,-0.5 99,-0.5"/>
<text text-anchor="middle" x="137" y="-16.3" font-family="Arial" font-size="9.00">_13: [&#45;Infinity, Infinity]</text>
</g>
<!-- Node_12&#45;&gt;Node_13 -->
<g id="edge7" class="edge"><title>Node_12&#45;&gt;Node_13</title>
<path fill="none" stroke="steelblue" d="M137,-73.3129C137,-65.2895 137,-55.5475 137,-46.5691"/>
<polygon fill="steelblue" stroke="steelblue" points="140.5,-46.5288 137,-36.5288 133.5,-46.5289 140.5,-46.5288"/>
</g>
<!-- Node_15 -->
<g id="node16" class="node"><title>Node_15</title>
<path fill="moccasin" stroke="moccasin" d="M871.5,-73.5C871.5,-73.5 926.5,-73.5 926.5,-73.5 932.5,-73.5 938.5,-79.5 938.5,-85.5 938.5,-85.5 938.5,-97.5 938.5,-97.5 938.5,-103.5 932.5,-109.5 926.5,-109.5 926.5,-109.5 871.5,-109.5 871.5,-109.5 865.5,-109.5 859.5,-103.5 859.5,-97.5 859.5,-97.5 859.5,-85.5 859.5,-85.5 859.5,-79.5 865.5,-73.5 871.5,-73.5"/>
<text text-anchor="middle" x="899" y="-89.3" font-family="Arial" font-size="9.00">i_4: [0.0, 100.0]</text>
</g>
<!-- Node_14&#45;&gt;Node_15 -->
<g id="edge8" class="edge"><title>Node_14&#45;&gt;Node_15</title>
<path fill="none" stroke="steelblue" d="M863.377,-146.313C868.977,-137.853 875.842,-127.484 882.045,-118.112"/>
<polygon fill="steelblue" stroke="steelblue" points="885.126,-119.799 887.727,-109.529 879.289,-115.935 885.126,-119.799"/>
</g>
<!-- Node_15&#45;&gt;Node_8 -->
<g id="edge27" class="edge"><title>Node_15&#45;&gt;Node_8</title>
<path fill="none" stroke="tan" d="M909.601,-109.777C915.467,-119.995 922.467,-133.37 927,-146 940.882,-184.684 946,-195.401 946,-236.5 946,-457.5 946,-457.5 946,-457.5 946,-500.142 927.8,-546.787 914.549,-575.097"/>
<polygon fill="tan" stroke="tan" points="911.298,-573.781 910.106,-584.309 917.603,-576.822 911.298,-573.781"/>
</g>
<!-- Node_16 -->
<g id="node17" class="node"><title>Node_16</title>
<path fill="lightblue" stroke="lightblue" d="M532.5,-365.5C532.5,-365.5 595.5,-365.5 595.5,-365.5 601.5,-365.5 607.5,-371.5 607.5,-377.5 607.5,-377.5 607.5,-389.5 607.5,-389.5 607.5,-395.5 601.5,-401.5 595.5,-401.5 595.5,-401.5 532.5,-401.5 532.5,-401.5 526.5,-401.5 520.5,-395.5 520.5,-389.5 520.5,-389.5 520.5,-377.5 520.5,-377.5 520.5,-371.5 526.5,-365.5 532.5,-365.5"/>
<text text-anchor="middle" x="564" y="-381.3" font-family="Arial" font-size="9.00">j_11 = j_5_t_f + 1</text>
</g>
<!-- Node_17 -->
<g id="node18" class="node"><title>Node_17</title>
<path fill="moccasin" stroke="moccasin" d="M531,-292.5C531,-292.5 593,-292.5 593,-292.5 599,-292.5 605,-298.5 605,-304.5 605,-304.5 605,-316.5 605,-316.5 605,-322.5 599,-328.5 593,-328.5 593,-328.5 531,-328.5 531,-328.5 525,-328.5 519,-322.5 519,-316.5 519,-316.5 519,-304.5 519,-304.5 519,-298.5 525,-292.5 531,-292.5"/>
<text text-anchor="middle" x="562" y="-308.3" font-family="Arial" font-size="9.00">j_11: [1.0, Infinity]</text>
</g>
<!-- Node_16&#45;&gt;Node_17 -->
<g id="edge9" class="edge"><title>Node_16&#45;&gt;Node_17</title>
<path fill="none" stroke="steelblue" d="M563.516,-365.313C563.29,-357.289 563.015,-347.547 562.763,-338.569"/>
<polygon fill="steelblue" stroke="steelblue" points="566.26,-338.426 562.48,-328.529 559.263,-338.623 566.26,-338.426"/>
</g>
<!-- Node_17&#45;&gt;Node_4 -->
<g id="edge35" class="edge"><title>Node_17&#45;&gt;Node_4</title>
<path fill="none" stroke="tan" d="M577.251,-292.313C584.989,-283.592 594.529,-272.84 603.042,-263.246"/>
<polygon fill="tan" stroke="tan" points="605.871,-265.332 609.89,-255.529 600.635,-260.686 605.871,-265.332"/>
</g>
<!-- Node_19 -->
<g id="node20" class="node"><title>Node_19</title>
<path fill="moccasin" stroke="moccasin" d="M531.5,-584.5C531.5,-584.5 596.5,-584.5 596.5,-584.5 602.5,-584.5 608.5,-590.5 608.5,-596.5 608.5,-596.5 608.5,-608.5 608.5,-608.5 608.5,-614.5 602.5,-620.5 596.5,-620.5 596.5,-620.5 531.5,-620.5 531.5,-620.5 525.5,-620.5 519.5,-614.5 519.5,-608.5 519.5,-608.5 519.5,-596.5 519.5,-596.5 519.5,-590.5 525.5,-584.5 531.5,-584.5"/>
<text text-anchor="middle" x="564" y="-600.3" font-family="Arial" font-size="9.00">j_5_t: [0.0, Infinity]</text>
</g>
<!-- Node_18&#45;&gt;Node_19 -->
<g id="edge10" class="edge"><title>Node_18&#45;&gt;Node_19</title>
<path fill="none" stroke="steelblue" d="M686.297,-109.782C698.277,-136.368 719,-189.192 719,-236.5 719,-457.5 719,-457.5 719,-457.5 719,-515.574 659.877,-556.841 614.661,-579.91"/>
<polygon fill="steelblue" stroke="steelblue" points="612.952,-576.85 605.537,-584.418 616.053,-583.126 612.952,-576.85"/>
</g>
<!-- Node_19&#45;&gt;Node_2 -->
<g id="edge38" class="edge"><title>Node_19&#45;&gt;Node_2</title>
<path fill="none" stroke="tan" d="M539.568,-584.494C526.168,-575.166 509.371,-563.474 494.838,-553.358"/>
<polygon fill="tan" stroke="tan" points="496.793,-550.454 486.586,-547.614 492.794,-556.199 496.793,-550.454"/>
</g>
<!-- Node_28 -->
<g id="node29" class="node"><title>Node_28</title>
<path fill="lightblue" stroke="lightblue" d="M540,-511.5C540,-511.5 588,-511.5 588,-511.5 594,-511.5 600,-517.5 600,-523.5 600,-523.5 600,-535.5 600,-535.5 600,-541.5 594,-547.5 588,-547.5 588,-547.5 540,-547.5 540,-547.5 534,-547.5 528,-541.5 528,-535.5 528,-535.5 528,-523.5 528,-523.5 528,-517.5 534,-511.5 540,-511.5"/>
<text text-anchor="middle" x="564" y="-527.3" font-family="Arial" font-size="9.00">if (j_5_t != 99)</text>
</g>
<!-- Node_19&#45;&gt;Node_28 -->
<g id="edge39" class="edge"><title>Node_19&#45;&gt;Node_28</title>
<path fill="none" stroke="tan" d="M564,-584.313C564,-576.289 564,-566.547 564,-557.569"/>
<polygon fill="tan" stroke="tan" points="567.5,-557.529 564,-547.529 560.5,-557.529 567.5,-557.529"/>
</g>
<!-- Node_21 -->
<g id="node22" class="node"><title>Node_21</title>
<path fill="moccasin" stroke="moccasin" d="M760.5,-365.5C760.5,-365.5 825.5,-365.5 825.5,-365.5 831.5,-365.5 837.5,-371.5 837.5,-377.5 837.5,-377.5 837.5,-389.5 837.5,-389.5 837.5,-395.5 831.5,-401.5 825.5,-401.5 825.5,-401.5 760.5,-401.5 760.5,-401.5 754.5,-401.5 748.5,-395.5 748.5,-389.5 748.5,-389.5 748.5,-377.5 748.5,-377.5 748.5,-371.5 754.5,-365.5 760.5,-365.5"/>
<text text-anchor="middle" x="793" y="-381.3" font-family="Arial" font-size="9.00">i_4_t_f: [0.0, 99.0]</text>
</g>
<!-- Node_20&#45;&gt;Node_21 -->
<g id="edge11" class="edge"><title>Node_20&#45;&gt;Node_21</title>
<path fill="none" stroke="steelblue" d="M824.833,-438.313C819.88,-429.941 813.821,-419.697 808.323,-410.403"/>
<polygon fill="steelblue" stroke="steelblue" points="811.177,-408.354 803.073,-401.529 805.152,-411.918 811.177,-408.354"/>
</g>
<!-- Node_21&#45;&gt;Node_10 -->
<g id="edge21" class="edge"><title>Node_21&#45;&gt;Node_10</title>
<path fill="none" stroke="tan" d="M792.758,-365.313C792.645,-357.289 792.508,-347.547 792.381,-338.569"/>
<polygon fill="tan" stroke="tan" points="795.88,-338.479 792.24,-328.529 788.881,-338.577 795.88,-338.479"/>
</g>
<!-- Node_22 -->
<g id="node23" class="node"><title>Node_22</title>
<path fill="lightblue" stroke="lightblue" d="M65.5,-365.5C65.5,-365.5 110.5,-365.5 110.5,-365.5 116.5,-365.5 122.5,-371.5 122.5,-377.5 122.5,-377.5 122.5,-389.5 122.5,-389.5 122.5,-395.5 116.5,-401.5 110.5,-401.5 110.5,-401.5 65.5,-401.5 65.5,-401.5 59.5,-401.5 53.5,-395.5 53.5,-389.5 53.5,-389.5 53.5,-377.5 53.5,-377.5 53.5,-371.5 59.5,-365.5 65.5,-365.5"/>
<text text-anchor="middle" x="88" y="-381.3" font-family="Arial" font-size="9.00">sum_6 = &#45;10</text>
</g>
<!-- Node_23 -->
<g id="node24" class="node"><title>Node_23</title>
<path fill="moccasin" stroke="moccasin" d="M49.5,-292.5C49.5,-292.5 126.5,-292.5 126.5,-292.5 132.5,-292.5 138.5,-298.5 138.5,-304.5 138.5,-304.5 138.5,-316.5 138.5,-316.5 138.5,-322.5 132.5,-328.5 126.5,-328.5 126.5,-328.5 49.5,-328.5 49.5,-328.5 43.5,-328.5 37.5,-322.5 37.5,-316.5 37.5,-316.5 37.5,-304.5 37.5,-304.5 37.5,-298.5 43.5,-292.5 49.5,-292.5"/>
<text text-anchor="middle" x="88" y="-308.3" font-family="Arial" font-size="9.00">sum_6: [&#45;10.0, &#45;10.0]</text>
</g>
<!-- Node_22&#45;&gt;Node_23 -->
<g id="edge12" class="edge"><title>Node_22&#45;&gt;Node_23</title>
<path fill="none" stroke="steelblue" d="M88,-365.313C88,-357.289 88,-347.547 88,-338.569"/>
<polygon fill="steelblue" stroke="steelblue" points="91.5001,-338.529 88,-328.529 84.5001,-338.529 91.5001,-338.529"/>
</g>
<!-- Node_23&#45;&gt;Node_26 -->
<g id="edge36" class="edge"><title>Node_23&#45;&gt;Node_26</title>
<path fill="none" stroke="tan" d="M88,-292.313C88,-284.289 88,-274.547 88,-265.569"/>
<polygon fill="tan" stroke="tan" points="91.5001,-265.529 88,-255.529 84.5001,-265.529 91.5001,-265.529"/>
</g>
<!-- Node_24 -->
<g id="node25" class="node"><title>Node_24</title>
<path fill="lightblue" stroke="lightblue" d="M642,-365.5C642,-365.5 672,-365.5 672,-365.5 678,-365.5 684,-371.5 684,-377.5 684,-377.5 684,-389.5 684,-389.5 684,-395.5 678,-401.5 672,-401.5 672,-401.5 642,-401.5 642,-401.5 636,-401.5 630,-395.5 630,-389.5 630,-389.5 630,-377.5 630,-377.5 630,-371.5 636,-365.5 642,-365.5"/>
<text text-anchor="middle" x="657" y="-381.3" font-family="Arial" font-size="9.00">j_8 = 0</text>
</g>
<!-- Node_25 -->
<g id="node26" class="node"><title>Node_25</title>
<path fill="moccasin" stroke="moccasin" d="M635,-292.5C635,-292.5 679,-292.5 679,-292.5 685,-292.5 691,-298.5 691,-304.5 691,-304.5 691,-316.5 691,-316.5 691,-322.5 685,-328.5 679,-328.5 679,-328.5 635,-328.5 635,-328.5 629,-328.5 623,-322.5 623,-316.5 623,-316.5 623,-304.5 623,-304.5 623,-298.5 629,-292.5 635,-292.5"/>
<text text-anchor="middle" x="657" y="-308.3" font-family="Arial" font-size="9.00">j_8: [0.0, 0.0]</text>
</g>
<!-- Node_24&#45;&gt;Node_25 -->
<g id="edge13" class="edge"><title>Node_24&#45;&gt;Node_25</title>
<path fill="none" stroke="steelblue" d="M657,-365.313C657,-357.289 657,-347.547 657,-338.569"/>
<polygon fill="steelblue" stroke="steelblue" points="660.5,-338.529 657,-328.529 653.5,-338.529 660.5,-338.529"/>
</g>
<!-- Node_25&#45;&gt;Node_4 -->
<g id="edge19" class="edge"><title>Node_25&#45;&gt;Node_4</title>
<path fill="none" stroke="tan" d="M649.254,-292.313C645.52,-284.028 640.96,-273.91 636.805,-264.693"/>
<polygon fill="tan" stroke="tan" points="639.975,-263.207 632.675,-255.529 633.593,-266.084 639.975,-263.207"/>
</g>
<!-- Node_27 -->
<g id="node28" class="node"><title>Node_27</title>
<path fill="moccasin" stroke="moccasin" d="M92.5,-146.5C92.5,-146.5 181.5,-146.5 181.5,-146.5 187.5,-146.5 193.5,-152.5 193.5,-158.5 193.5,-158.5 193.5,-170.5 193.5,-170.5 193.5,-176.5 187.5,-182.5 181.5,-182.5 181.5,-182.5 92.5,-182.5 92.5,-182.5 86.5,-182.5 80.5,-176.5 80.5,-170.5 80.5,-170.5 80.5,-158.5 80.5,-158.5 80.5,-152.5 86.5,-146.5 92.5,-146.5"/>
<text text-anchor="middle" x="137" y="-162.3" font-family="Arial" font-size="9.00">sum_3: [&#45;Infinity, Infinity]</text>
</g>
<!-- Node_26&#45;&gt;Node_27 -->
<g id="edge14" class="edge"><title>Node_26&#45;&gt;Node_27</title>
<path fill="none" stroke="steelblue" d="M99.8615,-219.313C105.76,-210.766 113.004,-200.269 119.524,-190.823"/>
<polygon fill="steelblue" stroke="steelblue" points="122.448,-192.747 125.248,-182.529 116.687,-188.771 122.448,-192.747"/>
</g>
<!-- Node_27&#45;&gt;Node_0 -->
<g id="edge22" class="edge"><title>Node_27&#45;&gt;Node_0</title>
<path fill="none" stroke="tan" d="M155.85,-182.876C165.625,-192.707 177.133,-205.676 185,-219 198.954,-242.634 222.003,-315.74 234.072,-355.716"/>
<polygon fill="tan" stroke="tan" points="230.735,-356.775 236.961,-365.348 237.44,-354.764 230.735,-356.775"/>
</g>
<!-- Node_27&#45;&gt;Node_12 -->
<g id="edge23" class="edge"><title>Node_27&#45;&gt;Node_12</title>
<path fill="none" stroke="tan" d="M137,-146.313C137,-138.289 137,-128.547 137,-119.569"/>
<polygon fill="tan" stroke="tan" points="140.5,-119.529 137,-109.529 133.5,-119.529 140.5,-119.529"/>
</g>
<!-- Node_29 -->
<g id="node30" class="node"><title>Node_29</title>
<path fill="moccasin" stroke="moccasin" d="M528,-438.5C528,-438.5 600,-438.5 600,-438.5 606,-438.5 612,-444.5 612,-450.5 612,-450.5 612,-462.5 612,-462.5 612,-468.5 606,-474.5 600,-474.5 600,-474.5 528,-474.5 528,-474.5 522,-474.5 516,-468.5 516,-462.5 516,-462.5 516,-450.5 516,-450.5 516,-444.5 522,-438.5 528,-438.5"/>
<text text-anchor="middle" x="564" y="-454.3" font-family="Arial" font-size="9.00">j_5_t_f: [0.0, Infinity]</text>
</g>
<!-- Node_28&#45;&gt;Node_29 -->
<g id="edge15" class="edge"><title>Node_28&#45;&gt;Node_29</title>
<path fill="none" stroke="steelblue" d="M564,-511.313C564,-503.289 564,-493.547 564,-484.569"/>
<polygon fill="steelblue" stroke="steelblue" points="567.5,-484.529 564,-474.529 560.5,-484.529 567.5,-484.529"/>
</g>
<!-- Node_29&#45;&gt;Node_16 -->
<g id="edge26" class="edge"><title>Node_29&#45;&gt;Node_16</title>
<path fill="none" stroke="tan" d="M564,-438.313C564,-430.289 564,-420.547 564,-411.569"/>
<polygon fill="tan" stroke="tan" points="567.5,-411.529 564,-401.529 560.5,-411.529 567.5,-411.529"/>
</g>
<!-- Node_31 -->
<g id="node32" class="node"><title>Node_31</title>
<path fill="moccasin" stroke="moccasin" d="M367.5,-146.5C367.5,-146.5 462.5,-146.5 462.5,-146.5 468.5,-146.5 474.5,-152.5 474.5,-158.5 474.5,-158.5 474.5,-170.5 474.5,-170.5 474.5,-176.5 468.5,-182.5 462.5,-182.5 462.5,-182.5 367.5,-182.5 367.5,-182.5 361.5,-182.5 355.5,-176.5 355.5,-170.5 355.5,-170.5 355.5,-158.5 355.5,-158.5 355.5,-152.5 361.5,-146.5 367.5,-146.5"/>
<text text-anchor="middle" x="415" y="-162.3" font-family="Arial" font-size="9.00">sum_10: [&#45;Infinity, Infinity]</text>
</g>
<!-- Node_30&#45;&gt;Node_31 -->
<g id="edge16" class="edge"><title>Node_30&#45;&gt;Node_31</title>
<path fill="none" stroke="steelblue" d="M415,-219.313C415,-211.289 415,-201.547 415,-192.569"/>
<polygon fill="steelblue" stroke="steelblue" points="418.5,-192.529 415,-182.529 411.5,-192.529 418.5,-192.529"/>
</g>
<!-- Node_31&#45;&gt;Node_32 -->
<g id="edge29" class="edge"><title>Node_31&#45;&gt;Node_32</title>
<path fill="none" stroke="tan" d="M401.928,-146.313C395.362,-137.679 387.281,-127.055 380.04,-117.534"/>
<polygon fill="tan" stroke="tan" points="382.791,-115.37 373.952,-109.529 377.219,-119.607 382.791,-115.37"/>
</g>
<!-- Node_33 -->
<g id="node34" class="node"><title>Node_33</title>
<path fill="moccasin" stroke="moccasin" d="M266.5,-0.5C266.5,-0.5 355.5,-0.5 355.5,-0.5 361.5,-0.5 367.5,-6.5 367.5,-12.5 367.5,-12.5 367.5,-24.5 367.5,-24.5 367.5,-30.5 361.5,-36.5 355.5,-36.5 355.5,-36.5 266.5,-36.5 266.5,-36.5 260.5,-36.5 254.5,-30.5 254.5,-24.5 254.5,-24.5 254.5,-12.5 254.5,-12.5 254.5,-6.5 260.5,-0.5 266.5,-0.5"/>
<text text-anchor="middle" x="311" y="-16.3" font-family="Arial" font-size="9.00">sum_1: [&#45;Infinity, Infinity]</text>
</g>
<!-- Node_32&#45;&gt;Node_33 -->
<g id="edge17" class="edge"><title>Node_32&#45;&gt;Node_33</title>
<path fill="none" stroke="steelblue" d="M348.896,-73.3129C342.878,-64.7662 335.486,-54.2695 328.833,-44.8229"/>
<polygon fill="steelblue" stroke="steelblue" points="331.612,-42.6897 322.992,-36.5288 325.888,-46.7202 331.612,-42.6897"/>
</g>
<!-- Node_33&#45;&gt;Node_0 -->
<g id="edge28" class="edge"><title>Node_33&#45;&gt;Node_0</title>
<path fill="none" stroke="tan" d="M290.375,-36.5812C280.035,-46.2322 268.211,-59.1247 261,-73 242.048,-109.469 242,-122.401 242,-163.5 242,-238.5 242,-238.5 242,-238.5 242,-279.067 242,-326.063 242,-355.039"/>
<polygon fill="tan" stroke="tan" points="238.5,-355.211 242,-365.211 245.5,-355.211 238.5,-355.211"/>
</g>
<!-- Node_34 -->
<g id="node35" class="node"><title>Node_34</title>
<path fill="lightblue" stroke="lightblue" d="M869,-292.5C869,-292.5 899,-292.5 899,-292.5 905,-292.5 911,-298.5 911,-304.5 911,-304.5 911,-316.5 911,-316.5 911,-322.5 905,-328.5 899,-328.5 899,-328.5 869,-328.5 869,-328.5 863,-328.5 857,-322.5 857,-316.5 857,-316.5 857,-304.5 857,-304.5 857,-298.5 863,-292.5 869,-292.5"/>
<text text-anchor="middle" x="884" y="-308.3" font-family="Arial" font-size="9.00">i_7 = 0</text>
</g>
<!-- Node_35 -->
<g id="node36" class="node"><title>Node_35</title>
<path fill="moccasin" stroke="moccasin" d="M862,-219.5C862,-219.5 906,-219.5 906,-219.5 912,-219.5 918,-225.5 918,-231.5 918,-231.5 918,-243.5 918,-243.5 918,-249.5 912,-255.5 906,-255.5 906,-255.5 862,-255.5 862,-255.5 856,-255.5 850,-249.5 850,-243.5 850,-243.5 850,-231.5 850,-231.5 850,-225.5 856,-219.5 862,-219.5"/>
<text text-anchor="middle" x="884" y="-235.3" font-family="Arial" font-size="9.00">i_7: [0.0, 0.0]</text>
</g>
<!-- Node_34&#45;&gt;Node_35 -->
<g id="edge18" class="edge"><title>Node_34&#45;&gt;Node_35</title>
<path fill="none" stroke="steelblue" d="M884,-292.313C884,-284.289 884,-274.547 884,-265.569"/>
<polygon fill="steelblue" stroke="steelblue" points="887.5,-265.529 884,-255.529 880.5,-265.529 887.5,-265.529"/>
</g>
<!-- Node_35&#45;&gt;Node_14 -->
<g id="edge24" class="edge"><title>Node_35&#45;&gt;Node_14</title>
<path fill="none" stroke="tan" d="M876.254,-219.313C872.52,-211.028 867.96,-200.91 863.805,-191.693"/>
<polygon fill="tan" stroke="tan" points="866.975,-190.207 859.675,-182.529 860.593,-193.084 866.975,-190.207"/>
</g>
</g>
</svg>
