<?xml version="1.0" encoding="UTF-8" standalone="no"?>
<!DOCTYPE svg PUBLIC "-//W3C//DTD SVG 1.1//EN"
 "http://www.w3.org/Graphics/SVG/1.1/DTD/svg11.dtd">
<!-- Generated by graphviz version 2.38.0 (20140413.2041)
 -->
<!-- Title: t9_foo_CFG Pages: 1 -->
<svg width="439pt" height="739pt"
     viewBox="0.00 0.00 438.50 739.00" xmlns="http://www.w3.org/2000/svg">
<g id="graph0" class="graph" transform="scale(1 1) rotate(0) translate(4 735)">
<title>t9_foo_CFG</title>
<polygon fill="white" stroke="none" points="-4,4 -4,-735 434.5,-735 434.5,4 -4,4"/>
<text text-anchor="middle" x="215.25" y="-717.4" font-family="Arial" font-size="12.00">t9_foo_CFG</text>
<!-- Node_0 -->
<g id="node1" class="node"><title>Node_0</title>
<path fill="mintcream" stroke="orange" d="M316,-673.5C316,-673.5 346,-673.5 346,-673.5 352,-673.5 358,-679.5 358,-685.5 358,-685.5 358,-697.5 358,-697.5 358,-703.5 352,-709.5 346,-709.5 346,-709.5 316,-709.5 316,-709.5 310,-709.5 304,-703.5 304,-697.5 304,-697.5 304,-685.5 304,-685.5 304,-679.5 310,-673.5 316,-673.5"/>
<text text-anchor="middle" x="331" y="-689.3" font-family="Arial" font-size="9.00">&lt;Entry&gt;</text>
</g>
<!-- Node_1 -->
<g id="node2" class="node"><title>Node_1</title>
<path fill="mintcream" stroke="black" d="M308.5,-564.5C308.5,-564.5 353.5,-564.5 353.5,-564.5 359.5,-564.5 365.5,-570.5 365.5,-576.5 365.5,-576.5 365.5,-624.5 365.5,-624.5 365.5,-630.5 359.5,-636.5 353.5,-636.5 353.5,-636.5 308.5,-636.5 308.5,-636.5 302.5,-636.5 296.5,-630.5 296.5,-624.5 296.5,-624.5 296.5,-576.5 296.5,-576.5 296.5,-570.5 302.5,-564.5 308.5,-564.5"/>
<text text-anchor="middle" x="331" y="-625.3" font-family="Arial" font-size="9.00">&lt;bb 2&gt;</text>
<polyline fill="none" stroke="black" points="296.5,-618.5 365.5,-618.5 "/>
<text text-anchor="middle" x="331" y="-607.3" font-family="Arial" font-size="9.00">sum_6 = &#45;10</text>
<polyline fill="none" stroke="black" points="296.5,-600.5 365.5,-600.5 "/>
<text text-anchor="middle" x="331" y="-589.3" font-family="Arial" font-size="9.00">i_7 = 0</text>
<polyline fill="none" stroke="black" points="296.5,-582.5 365.5,-582.5 "/>
<text text-anchor="middle" x="331" y="-571.3" font-family="Arial" font-size="9.00">goto &lt;bb 9&gt;</text>
</g>
<!-- Node_0&#45;&gt;Node_1 -->
<g id="edge1" class="edge"><title>Node_0&#45;&gt;Node_1</title>
<path fill="none" stroke="black" d="M331,-673.34C331,-665.698 331,-656.301 331,-646.852"/>
<polygon fill="black" stroke="black" points="334.5,-646.659 331,-636.659 327.5,-646.659 334.5,-646.659"/>
</g>
<!-- Node_2 -->
<g id="node3" class="node"><title>Node_2</title>
<path fill="mintcream" stroke="black" d="M245.5,-455.5C245.5,-455.5 416.5,-455.5 416.5,-455.5 422.5,-455.5 428.5,-461.5 428.5,-467.5 428.5,-467.5 428.5,-515.5 428.5,-515.5 428.5,-521.5 422.5,-527.5 416.5,-527.5 416.5,-527.5 245.5,-527.5 245.5,-527.5 239.5,-527.5 233.5,-521.5 233.5,-515.5 233.5,-515.5 233.5,-467.5 233.5,-467.5 233.5,-461.5 239.5,-455.5 245.5,-455.5"/>
<text text-anchor="middle" x="331" y="-516.3" font-family="Arial" font-size="9.00">&lt;bb 9&gt;</text>
<polyline fill="none" stroke="black" points="233.5,-509.5 428.5,-509.5 "/>
<text text-anchor="middle" x="331" y="-498.3" font-family="Arial" font-size="9.00"># sum_3 = PHI &lt;sum_6(2), sum_2(8)&gt;</text>
<polyline fill="none" stroke="black" points="233.5,-491.5 428.5,-491.5 "/>
<text text-anchor="middle" x="331" y="-480.3" font-family="Arial" font-size="9.00"># i_4 = PHI &lt;i_7(2), i_12(8)&gt;</text>
<polyline fill="none" stroke="black" points="233.5,-473.5 428.5,-473.5 "/>
<text text-anchor="middle" x="331" y="-462.3" font-family="Arial" font-size="9.00">if (i_4 &lt;= 99) goto &lt;bb 3&gt; else goto &lt;bb 10&gt;</text>
</g>
<!-- Node_1&#45;&gt;Node_2 -->
<g id="edge2" class="edge"><title>Node_1&#45;&gt;Node_2</title>
<path fill="none" stroke="black" d="M331,-564.464C331,-555.966 331,-546.759 331,-537.859"/>
<polygon fill="black" stroke="black" points="334.5,-537.614 331,-527.615 327.5,-537.615 334.5,-537.614"/>
</g>
<!-- Node_3 -->
<g id="node4" class="node"><title>Node_3</title>
<path fill="mintcream" stroke="black" d="M218.5,-364.5C218.5,-364.5 259.5,-364.5 259.5,-364.5 265.5,-364.5 271.5,-370.5 271.5,-376.5 271.5,-376.5 271.5,-406.5 271.5,-406.5 271.5,-412.5 265.5,-418.5 259.5,-418.5 259.5,-418.5 218.5,-418.5 218.5,-418.5 212.5,-418.5 206.5,-412.5 206.5,-406.5 206.5,-406.5 206.5,-376.5 206.5,-376.5 206.5,-370.5 212.5,-364.5 218.5,-364.5"/>
<text text-anchor="middle" x="239" y="-407.3" font-family="Arial" font-size="9.00">&lt;bb 3&gt;</text>
<polyline fill="none" stroke="black" points="206.5,-400.5 271.5,-400.5 "/>
<text text-anchor="middle" x="239" y="-389.3" font-family="Arial" font-size="9.00">j_8 = 0</text>
<polyline fill="none" stroke="black" points="206.5,-382.5 271.5,-382.5 "/>
<text text-anchor="middle" x="239" y="-371.3" font-family="Arial" font-size="9.00">goto &lt;bb 7&gt;</text>
</g>
<!-- Node_2&#45;&gt;Node_3 -->
<g id="edge3" class="edge"><title>Node_2&#45;&gt;Node_3</title>
<path fill="none" stroke="teal" d="M298.046,-455.397C289.095,-445.862 279.427,-435.563 270.556,-426.114"/>
<polygon fill="teal" stroke="teal" points="273.037,-423.643 263.641,-418.748 267.934,-428.434 273.037,-423.643"/>
</g>
<!-- Node_9 -->
<g id="node10" class="node"><title>Node_9</title>
<path fill="mintcream" stroke="black" d="M371.5,-373.5C371.5,-373.5 418.5,-373.5 418.5,-373.5 424.5,-373.5 430.5,-379.5 430.5,-385.5 430.5,-385.5 430.5,-397.5 430.5,-397.5 430.5,-403.5 424.5,-409.5 418.5,-409.5 418.5,-409.5 371.5,-409.5 371.5,-409.5 365.5,-409.5 359.5,-403.5 359.5,-397.5 359.5,-397.5 359.5,-385.5 359.5,-385.5 359.5,-379.5 365.5,-373.5 371.5,-373.5"/>
<text text-anchor="middle" x="395" y="-398.3" font-family="Arial" font-size="9.00">&lt;bb 10&gt;</text>
<polyline fill="none" stroke="black" points="359.5,-391.5 430.5,-391.5 "/>
<text text-anchor="middle" x="395" y="-380.3" font-family="Arial" font-size="9.00">_13 = sum_3</text>
</g>
<!-- Node_2&#45;&gt;Node_9 -->
<g id="edge12" class="edge"><title>Node_2&#45;&gt;Node_9</title>
<path fill="none" stroke="crimson" d="M353.925,-455.397C361.962,-443.089 370.833,-429.506 378.267,-418.122"/>
<polygon fill="crimson" stroke="crimson" points="381.341,-419.817 383.878,-409.53 375.48,-415.989 381.341,-419.817"/>
</g>
<!-- Node_4 -->
<g id="node5" class="node"><title>Node_4</title>
<path fill="mintcream" stroke="black" d="M123,-255.5C123,-255.5 291,-255.5 291,-255.5 297,-255.5 303,-261.5 303,-267.5 303,-267.5 303,-315.5 303,-315.5 303,-321.5 297,-327.5 291,-327.5 291,-327.5 123,-327.5 123,-327.5 117,-327.5 111,-321.5 111,-315.5 111,-315.5 111,-267.5 111,-267.5 111,-261.5 117,-255.5 123,-255.5"/>
<text text-anchor="middle" x="207" y="-316.3" font-family="Arial" font-size="9.00">&lt;bb 7&gt;</text>
<polyline fill="none" stroke="black" points="111,-309.5 303,-309.5 "/>
<text text-anchor="middle" x="207" y="-298.3" font-family="Arial" font-size="9.00"># sum_2 = PHI &lt;sum_3(3), sum_1(6)&gt;</text>
<polyline fill="none" stroke="black" points="111,-291.5 303,-291.5 "/>
<text text-anchor="middle" x="207" y="-280.3" font-family="Arial" font-size="9.00"># j_5 = PHI &lt;j_8(3), j_11(6)&gt;</text>
<polyline fill="none" stroke="black" points="111,-273.5 303,-273.5 "/>
<text text-anchor="middle" x="207" y="-262.3" font-family="Arial" font-size="9.00">if (j_5 &lt;= i_4) goto &lt;bb 4&gt; else goto &lt;bb 8&gt;</text>
</g>
<!-- Node_3&#45;&gt;Node_4 -->
<g id="edge4" class="edge"><title>Node_3&#45;&gt;Node_4</title>
<path fill="none" stroke="black" d="M230.509,-364.495C227.788,-356.162 224.692,-346.682 221.661,-337.399"/>
<polygon fill="black" stroke="black" points="224.975,-336.273 218.544,-327.853 218.321,-338.446 224.975,-336.273"/>
</g>
<!-- Node_5 -->
<g id="node6" class="node"><title>Node_5</title>
<path fill="mintcream" stroke="black" d="M12,-182.5C12,-182.5 178,-182.5 178,-182.5 184,-182.5 190,-188.5 190,-194.5 190,-194.5 190,-206.5 190,-206.5 190,-212.5 184,-218.5 178,-218.5 178,-218.5 12,-218.5 12,-218.5 6,-218.5 0,-212.5 0,-206.5 0,-206.5 0,-194.5 0,-194.5 0,-188.5 6,-182.5 12,-182.5"/>
<text text-anchor="middle" x="95" y="-207.3" font-family="Arial" font-size="9.00">&lt;bb 4&gt;</text>
<polyline fill="none" stroke="black" points="0,-200.5 190,-200.5 "/>
<text text-anchor="middle" x="95" y="-189.3" font-family="Arial" font-size="9.00">if (j_5 == 99) goto &lt;bb 5&gt; else goto &lt;bb 6&gt;</text>
</g>
<!-- Node_4&#45;&gt;Node_5 -->
<g id="edge5" class="edge"><title>Node_4&#45;&gt;Node_5</title>
<path fill="none" stroke="teal" d="M162.735,-255.325C149.942,-245.159 136.294,-234.314 124.626,-225.042"/>
<polygon fill="teal" stroke="teal" points="126.527,-222.082 116.52,-218.601 122.172,-227.562 126.527,-222.082"/>
</g>
<!-- Node_8 -->
<g id="node9" class="node"><title>Node_8</title>
<path fill="mintcream" stroke="black" d="M279,-182.5C279,-182.5 327,-182.5 327,-182.5 333,-182.5 339,-188.5 339,-194.5 339,-194.5 339,-206.5 339,-206.5 339,-212.5 333,-218.5 327,-218.5 327,-218.5 279,-218.5 279,-218.5 273,-218.5 267,-212.5 267,-206.5 267,-206.5 267,-194.5 267,-194.5 267,-188.5 273,-182.5 279,-182.5"/>
<text text-anchor="middle" x="303" y="-207.3" font-family="Arial" font-size="9.00">&lt;bb 8&gt;</text>
<polyline fill="none" stroke="black" points="267,-200.5 339,-200.5 "/>
<text text-anchor="middle" x="303" y="-189.3" font-family="Arial" font-size="9.00">i_12 = i_4 + 1</text>
</g>
<!-- Node_4&#45;&gt;Node_8 -->
<g id="edge10" class="edge"><title>Node_4&#45;&gt;Node_8</title>
<path fill="none" stroke="crimson" d="M244.942,-255.325C255.694,-245.357 267.151,-234.735 277.022,-225.584"/>
<polygon fill="crimson" stroke="crimson" points="279.6,-227.966 284.554,-218.601 274.841,-222.833 279.6,-227.966"/>
</g>
<!-- Node_6 -->
<g id="node7" class="node"><title>Node_6</title>
<path fill="mintcream" stroke="black" d="M92,-91.5C92,-91.5 178,-91.5 178,-91.5 184,-91.5 190,-97.5 190,-103.5 190,-103.5 190,-133.5 190,-133.5 190,-139.5 184,-145.5 178,-145.5 178,-145.5 92,-145.5 92,-145.5 86,-145.5 80,-139.5 80,-133.5 80,-133.5 80,-103.5 80,-103.5 80,-97.5 86,-91.5 92,-91.5"/>
<text text-anchor="middle" x="135" y="-134.3" font-family="Arial" font-size="9.00">&lt;bb 5&gt;</text>
<polyline fill="none" stroke="black" points="80,-127.5 190,-127.5 "/>
<text text-anchor="middle" x="135" y="-116.3" font-family="Arial" font-size="9.00">_9 = j_5 * j_5</text>
<polyline fill="none" stroke="black" points="80,-109.5 190,-109.5 "/>
<text text-anchor="middle" x="135" y="-98.3" font-family="Arial" font-size="9.00">sum_10 = _9 + sum_2</text>
</g>
<!-- Node_5&#45;&gt;Node_6 -->
<g id="edge6" class="edge"><title>Node_5&#45;&gt;Node_6</title>
<path fill="none" stroke="teal" d="M103.679,-182.141C107.719,-174.062 112.678,-164.145 117.447,-154.605"/>
<polygon fill="teal" stroke="teal" points="120.585,-156.156 121.927,-145.647 114.324,-153.026 120.585,-156.156"/>
</g>
<!-- Node_7 -->
<g id="node8" class="node"><title>Node_7</title>
<path fill="mintcream" stroke="black" d="M56,-0.5C56,-0.5 214,-0.5 214,-0.5 220,-0.5 226,-6.5 226,-12.5 226,-12.5 226,-42.5 226,-42.5 226,-48.5 220,-54.5 214,-54.5 214,-54.5 56,-54.5 56,-54.5 50,-54.5 44,-48.5 44,-42.5 44,-42.5 44,-12.5 44,-12.5 44,-6.5 50,-0.5 56,-0.5"/>
<text text-anchor="middle" x="135" y="-43.3" font-family="Arial" font-size="9.00">&lt;bb 6&gt;</text>
<polyline fill="none" stroke="black" points="44,-36.5 226,-36.5 "/>
<text text-anchor="middle" x="135" y="-25.3" font-family="Arial" font-size="9.00"># sum_1 = PHI &lt;sum_2(4), sum_10(5)&gt;</text>
<polyline fill="none" stroke="black" points="44,-18.5 226,-18.5 "/>
<text text-anchor="middle" x="135" y="-7.3" font-family="Arial" font-size="9.00">j_11 = j_5 + 1</text>
</g>
<!-- Node_5&#45;&gt;Node_7 -->
<g id="edge9" class="edge"><title>Node_5&#45;&gt;Node_7</title>
<path fill="none" stroke="crimson" d="M84.9821,-182.38C73.56,-160.495 58.0452,-121.759 71,-91 75.5692,-80.1514 83.0432,-70.2479 91.3013,-61.6809"/>
<polygon fill="crimson" stroke="crimson" points="93.9601,-63.9782 98.707,-54.5062 89.0894,-58.9506 93.9601,-63.9782"/>
</g>
<!-- Node_6&#45;&gt;Node_7 -->
<g id="edge7" class="edge"><title>Node_6&#45;&gt;Node_7</title>
<path fill="none" stroke="black" d="M135,-91.2784C135,-82.9495 135,-73.5865 135,-64.6839"/>
<polygon fill="black" stroke="black" points="138.5,-64.5341 135,-54.5341 131.5,-64.5342 138.5,-64.5341"/>
</g>
<!-- Node_7&#45;&gt;Node_4 -->
<g id="edge8" class="edge"><title>Node_7&#45;&gt;Node_4</title>
<path fill="none" stroke="black" d="M170.973,-54.6447C181.983,-64.6765 192.812,-77.0947 199,-91 220.89,-140.194 219.161,-203.141 214.416,-245.038"/>
<polygon fill="black" stroke="black" points="210.911,-244.861 213.157,-255.215 217.858,-245.72 210.911,-244.861"/>
</g>
<!-- Node_8&#45;&gt;Node_2 -->
<g id="edge11" class="edge"><title>Node_8&#45;&gt;Node_2</title>
<path fill="none" stroke="black" d="M306.298,-218.792C308.193,-229.243 310.491,-242.849 312,-255 320.179,-320.847 325.608,-397.511 328.497,-445.029"/>
<polygon fill="black" stroke="black" points="325.02,-445.519 329.109,-455.293 332.007,-445.102 325.02,-445.519"/>
</g>
<!-- Node_10 -->
<g id="node11" class="node"><title>Node_10</title>
<path fill="mintcream" stroke="black" d="M377.5,-273.5C377.5,-273.5 412.5,-273.5 412.5,-273.5 418.5,-273.5 424.5,-279.5 424.5,-285.5 424.5,-285.5 424.5,-297.5 424.5,-297.5 424.5,-303.5 418.5,-309.5 412.5,-309.5 412.5,-309.5 377.5,-309.5 377.5,-309.5 371.5,-309.5 365.5,-303.5 365.5,-297.5 365.5,-297.5 365.5,-285.5 365.5,-285.5 365.5,-279.5 371.5,-273.5 377.5,-273.5"/>
<text text-anchor="middle" x="395" y="-298.3" font-family="Arial" font-size="9.00">&lt;L8&gt;</text>
<polyline fill="none" stroke="black" points="365.5,-291.5 424.5,-291.5 "/>
<text text-anchor="middle" x="395" y="-280.3" font-family="Arial" font-size="9.00">return _13</text>
</g>
<!-- Node_9&#45;&gt;Node_10 -->
<g id="edge13" class="edge"><title>Node_9&#45;&gt;Node_10</title>
<path fill="none" stroke="black" d="M395,-373.43C395,-358.625 395,-336.932 395,-319.731"/>
<polygon fill="black" stroke="black" points="398.5,-319.703 395,-309.703 391.5,-319.704 398.5,-319.703"/>
</g>
<!-- Node_11 -->
<g id="node12" class="node"><title>Node_11</title>
<path fill="mintcream" stroke="#1874cd" d="M380,-182.5C380,-182.5 410,-182.5 410,-182.5 416,-182.5 422,-188.5 422,-194.5 422,-194.5 422,-206.5 422,-206.5 422,-212.5 416,-218.5 410,-218.5 410,-218.5 380,-218.5 380,-218.5 374,-218.5 368,-212.5 368,-206.5 368,-206.5 368,-194.5 368,-194.5 368,-188.5 374,-182.5 380,-182.5"/>
<text text-anchor="middle" x="395" y="-198.3" font-family="Arial" font-size="9.00">&lt;Exit&gt;</text>
</g>
<!-- Node_10&#45;&gt;Node_11 -->
<g id="edge14" class="edge"><title>Node_10&#45;&gt;Node_11</title>
<path fill="none" stroke="black" d="M395,-273.34C395,-260.781 395,-243.479 395,-229.002"/>
<polygon fill="black" stroke="black" points="398.5,-228.607 395,-218.607 391.5,-228.607 398.5,-228.607"/>
</g>
</g>
</svg>
