<?xml version="1.0" encoding="UTF-8" standalone="no"?>
<!DOCTYPE svg PUBLIC "-//W3C//DTD SVG 1.1//EN"
 "http://www.w3.org/Graphics/SVG/1.1/DTD/svg11.dtd">
<!-- Generated by graphviz version 2.38.0 (20140413.2041)
 -->
<!-- Title: t9_foo_ConstraintGraph Pages: 1 -->
<svg width="546pt" height="1088pt"
     viewBox="0.00 0.00 546.00 1088.00" xmlns="http://www.w3.org/2000/svg">
<g id="graph0" class="graph" transform="scale(1 1) rotate(0) translate(4 1084)">
<title>t9_foo_ConstraintGraph</title>
<polygon fill="white" stroke="none" points="-4,4 -4,-1084 542,-1084 542,4 -4,4"/>
<text text-anchor="middle" x="269" y="-1066.4" font-family="Arial" font-size="12.00">t9_foo_ConstraintGraph</text>
<!-- Node_0 -->
<g id="node1" class="node"><title>Node_0</title>
<path fill="lightblue" stroke="lightblue" d="M51,-1022.5C51,-1022.5 81,-1022.5 81,-1022.5 87,-1022.5 93,-1028.5 93,-1034.5 93,-1034.5 93,-1046.5 93,-1046.5 93,-1052.5 87,-1058.5 81,-1058.5 81,-1058.5 51,-1058.5 51,-1058.5 45,-1058.5 39,-1052.5 39,-1046.5 39,-1046.5 39,-1034.5 39,-1034.5 39,-1028.5 45,-1022.5 51,-1022.5"/>
<text text-anchor="middle" x="66" y="-1038.3" font-family="Arial" font-size="9.00">i_7 = 0</text>
</g>
<!-- Node_1 -->
<g id="node2" class="node"><title>Node_1</title>
<path fill="moccasin" stroke="moccasin" d="M45.5,-949.5C45.5,-949.5 86.5,-949.5 86.5,-949.5 92.5,-949.5 98.5,-955.5 98.5,-961.5 98.5,-961.5 98.5,-973.5 98.5,-973.5 98.5,-979.5 92.5,-985.5 86.5,-985.5 86.5,-985.5 45.5,-985.5 45.5,-985.5 39.5,-985.5 33.5,-979.5 33.5,-973.5 33.5,-973.5 33.5,-961.5 33.5,-961.5 33.5,-955.5 39.5,-949.5 45.5,-949.5"/>
<text text-anchor="middle" x="66" y="-965.3" font-family="Arial" font-size="9.00">i_7: [&#45;inf, inf]</text>
</g>
<!-- Node_0&#45;&gt;Node_1 -->
<g id="edge1" class="edge"><title>Node_0&#45;&gt;Node_1</title>
<path fill="none" stroke="steelblue" d="M66,-1022.31C66,-1014.29 66,-1004.55 66,-995.569"/>
<polygon fill="steelblue" stroke="steelblue" points="69.5001,-995.529 66,-985.529 62.5001,-995.529 69.5001,-995.529"/>
</g>
<!-- Node_28 -->
<g id="node29" class="node"><title>Node_28</title>
<path fill="lightblue" stroke="lightblue" d="M12,-876.5C12,-876.5 120,-876.5 120,-876.5 126,-876.5 132,-882.5 132,-888.5 132,-888.5 132,-900.5 132,-900.5 132,-906.5 126,-912.5 120,-912.5 120,-912.5 12,-912.5 12,-912.5 6,-912.5 0,-906.5 0,-900.5 0,-900.5 0,-888.5 0,-888.5 0,-882.5 6,-876.5 12,-876.5"/>
<text text-anchor="middle" x="66" y="-892.3" font-family="Arial" font-size="9.00"># i_4 = PHI &lt;i_7(2), i_12(8)&gt;</text>
</g>
<!-- Node_1&#45;&gt;Node_28 -->
<g id="edge22" class="edge"><title>Node_1&#45;&gt;Node_28</title>
<path fill="none" stroke="tan" d="M66,-949.313C66,-941.289 66,-931.547 66,-922.569"/>
<polygon fill="tan" stroke="tan" points="69.5001,-922.529 66,-912.529 62.5001,-922.529 69.5001,-922.529"/>
</g>
<!-- Node_2 -->
<g id="node3" class="node"><title>Node_2</title>
<path fill="lightblue" stroke="lightblue" d="M242.5,-803.5C242.5,-803.5 319.5,-803.5 319.5,-803.5 325.5,-803.5 331.5,-809.5 331.5,-815.5 331.5,-815.5 331.5,-827.5 331.5,-827.5 331.5,-833.5 325.5,-839.5 319.5,-839.5 319.5,-839.5 242.5,-839.5 242.5,-839.5 236.5,-839.5 230.5,-833.5 230.5,-827.5 230.5,-827.5 230.5,-815.5 230.5,-815.5 230.5,-809.5 236.5,-803.5 242.5,-803.5"/>
<text text-anchor="middle" x="281" y="-819.3" font-family="Arial" font-size="9.00">_9 = j_5_t_t * j_5_t_t</text>
</g>
<!-- Node_3 -->
<g id="node4" class="node"><title>Node_3</title>
<path fill="moccasin" stroke="moccasin" d="M261.5,-730.5C261.5,-730.5 300.5,-730.5 300.5,-730.5 306.5,-730.5 312.5,-736.5 312.5,-742.5 312.5,-742.5 312.5,-754.5 312.5,-754.5 312.5,-760.5 306.5,-766.5 300.5,-766.5 300.5,-766.5 261.5,-766.5 261.5,-766.5 255.5,-766.5 249.5,-760.5 249.5,-754.5 249.5,-754.5 249.5,-742.5 249.5,-742.5 249.5,-736.5 255.5,-730.5 261.5,-730.5"/>
<text text-anchor="middle" x="281" y="-746.3" font-family="Arial" font-size="9.00">_9: [&#45;inf, inf]</text>
</g>
<!-- Node_2&#45;&gt;Node_3 -->
<g id="edge2" class="edge"><title>Node_2&#45;&gt;Node_3</title>
<path fill="none" stroke="steelblue" d="M281,-803.313C281,-795.289 281,-785.547 281,-776.569"/>
<polygon fill="steelblue" stroke="steelblue" points="284.5,-776.529 281,-766.529 277.5,-776.529 284.5,-776.529"/>
</g>
<!-- Node_6 -->
<g id="node7" class="node"><title>Node_6</title>
<path fill="lightblue" stroke="lightblue" d="M238,-657.5C238,-657.5 324,-657.5 324,-657.5 330,-657.5 336,-663.5 336,-669.5 336,-669.5 336,-681.5 336,-681.5 336,-687.5 330,-693.5 324,-693.5 324,-693.5 238,-693.5 238,-693.5 232,-693.5 226,-687.5 226,-681.5 226,-681.5 226,-669.5 226,-669.5 226,-663.5 232,-657.5 238,-657.5"/>
<text text-anchor="middle" x="281" y="-673.3" font-family="Arial" font-size="9.00">sum_10 = _9 + sum_2</text>
</g>
<!-- Node_3&#45;&gt;Node_6 -->
<g id="edge33" class="edge"><title>Node_3&#45;&gt;Node_6</title>
<path fill="none" stroke="tan" d="M281,-730.313C281,-722.289 281,-712.547 281,-703.569"/>
<polygon fill="tan" stroke="tan" points="284.5,-703.529 281,-693.529 277.5,-703.529 284.5,-703.529"/>
</g>
<!-- Node_4 -->
<g id="node5" class="node"><title>Node_4</title>
<path fill="lightblue" stroke="lightblue" d="M74.5,-438.5C74.5,-438.5 137.5,-438.5 137.5,-438.5 143.5,-438.5 149.5,-444.5 149.5,-450.5 149.5,-450.5 149.5,-462.5 149.5,-462.5 149.5,-468.5 143.5,-474.5 137.5,-474.5 137.5,-474.5 74.5,-474.5 74.5,-474.5 68.5,-474.5 62.5,-468.5 62.5,-462.5 62.5,-462.5 62.5,-450.5 62.5,-450.5 62.5,-444.5 68.5,-438.5 74.5,-438.5"/>
<text text-anchor="middle" x="106" y="-454.3" font-family="Arial" font-size="9.00">i_12 = i_4_t_f + 1</text>
</g>
<!-- Node_5 -->
<g id="node6" class="node"><title>Node_5</title>
<path fill="moccasin" stroke="moccasin" d="M39.5,-365.5C39.5,-365.5 86.5,-365.5 86.5,-365.5 92.5,-365.5 98.5,-371.5 98.5,-377.5 98.5,-377.5 98.5,-389.5 98.5,-389.5 98.5,-395.5 92.5,-401.5 86.5,-401.5 86.5,-401.5 39.5,-401.5 39.5,-401.5 33.5,-401.5 27.5,-395.5 27.5,-389.5 27.5,-389.5 27.5,-377.5 27.5,-377.5 27.5,-371.5 33.5,-365.5 39.5,-365.5"/>
<text text-anchor="middle" x="63" y="-381.3" font-family="Arial" font-size="9.00">i_12: [&#45;inf, inf]</text>
</g>
<!-- Node_4&#45;&gt;Node_5 -->
<g id="edge3" class="edge"><title>Node_4&#45;&gt;Node_5</title>
<path fill="none" stroke="steelblue" d="M95.5909,-438.313C90.4676,-429.853 84.1872,-419.484 78.5118,-410.112"/>
<polygon fill="steelblue" stroke="steelblue" points="81.4874,-408.269 73.3132,-401.529 75.4999,-411.896 81.4874,-408.269"/>
</g>
<!-- Node_5&#45;&gt;Node_28 -->
<g id="edge28" class="edge"><title>Node_5&#45;&gt;Node_28</title>
<path fill="none" stroke="tan" d="M57.2705,-401.565C48.819,-428.3 34,-481.831 34,-528.5 34,-749.5 34,-749.5 34,-749.5 34,-791.24 46.9707,-838.2 56.3962,-866.814"/>
<polygon fill="tan" stroke="tan" points="53.1494,-868.138 59.6778,-876.483 59.778,-865.888 53.1494,-868.138"/>
</g>
<!-- Node_7 -->
<g id="node8" class="node"><title>Node_7</title>
<path fill="moccasin" stroke="moccasin" d="M240.5,-584.5C240.5,-584.5 303.5,-584.5 303.5,-584.5 309.5,-584.5 315.5,-590.5 315.5,-596.5 315.5,-596.5 315.5,-608.5 315.5,-608.5 315.5,-614.5 309.5,-620.5 303.5,-620.5 303.5,-620.5 240.5,-620.5 240.5,-620.5 234.5,-620.5 228.5,-614.5 228.5,-608.5 228.5,-608.5 228.5,-596.5 228.5,-596.5 228.5,-590.5 234.5,-584.5 240.5,-584.5"/>
<text text-anchor="middle" x="272" y="-600.3" font-family="Arial" font-size="9.00">sum_10: [&#45;inf, inf]</text>
</g>
<!-- Node_6&#45;&gt;Node_7 -->
<g id="edge4" class="edge"><title>Node_6&#45;&gt;Node_7</title>
<path fill="none" stroke="steelblue" d="M278.821,-657.313C277.804,-649.289 276.569,-639.547 275.431,-630.569"/>
<polygon fill="steelblue" stroke="steelblue" points="278.888,-630.009 274.159,-620.529 271.944,-630.89 278.888,-630.009"/>
</g>
<!-- Node_18 -->
<g id="node19" class="node"><title>Node_18</title>
<path fill="lightblue" stroke="lightblue" d="M189,-511.5C189,-511.5 347,-511.5 347,-511.5 353,-511.5 359,-517.5 359,-523.5 359,-523.5 359,-535.5 359,-535.5 359,-541.5 353,-547.5 347,-547.5 347,-547.5 189,-547.5 189,-547.5 183,-547.5 177,-541.5 177,-535.5 177,-535.5 177,-523.5 177,-523.5 177,-517.5 183,-511.5 189,-511.5"/>
<text text-anchor="middle" x="268" y="-527.3" font-family="Arial" font-size="9.00"># sum_1 = PHI &lt;sum_2(4), sum_10(5)&gt;</text>
</g>
<!-- Node_7&#45;&gt;Node_18 -->
<g id="edge29" class="edge"><title>Node_7&#45;&gt;Node_18</title>
<path fill="none" stroke="tan" d="M271.032,-584.313C270.58,-576.289 270.031,-566.547 269.525,-557.569"/>
<polygon fill="tan" stroke="tan" points="273.016,-557.316 268.959,-547.529 266.027,-557.71 273.016,-557.316"/>
</g>
<!-- Node_8 -->
<g id="node9" class="node"><title>Node_8</title>
<path fill="lightblue" stroke="lightblue" d="M157,-365.5C157,-365.5 309,-365.5 309,-365.5 315,-365.5 321,-371.5 321,-377.5 321,-377.5 321,-389.5 321,-389.5 321,-395.5 315,-401.5 309,-401.5 309,-401.5 157,-401.5 157,-401.5 151,-401.5 145,-395.5 145,-389.5 145,-389.5 145,-377.5 145,-377.5 145,-371.5 151,-365.5 157,-365.5"/>
<text text-anchor="middle" x="233" y="-381.3" font-family="Arial" font-size="9.00"># sum_2 = PHI &lt;sum_3(3), sum_1(6)&gt;</text>
</g>
<!-- Node_9 -->
<g id="node10" class="node"><title>Node_9</title>
<path fill="moccasin" stroke="moccasin" d="M320,-292.5C320,-292.5 378,-292.5 378,-292.5 384,-292.5 390,-298.5 390,-304.5 390,-304.5 390,-316.5 390,-316.5 390,-322.5 384,-328.5 378,-328.5 378,-328.5 320,-328.5 320,-328.5 314,-328.5 308,-322.5 308,-316.5 308,-316.5 308,-304.5 308,-304.5 308,-298.5 314,-292.5 320,-292.5"/>
<text text-anchor="middle" x="349" y="-308.3" font-family="Arial" font-size="9.00">sum_2: [&#45;inf, inf]</text>
</g>
<!-- Node_8&#45;&gt;Node_9 -->
<g id="edge5" class="edge"><title>Node_8&#45;&gt;Node_9</title>
<path fill="none" stroke="steelblue" d="M260.785,-365.494C276.167,-356.079 295.484,-344.255 312.117,-334.075"/>
<polygon fill="steelblue" stroke="steelblue" points="314.338,-336.819 321.04,-328.614 310.683,-330.849 314.338,-336.819"/>
</g>
<!-- Node_9&#45;&gt;Node_6 -->
<g id="edge34" class="edge"><title>Node_9&#45;&gt;Node_6</title>
<path fill="none" stroke="tan" d="M356.69,-328.845C367.794,-355.513 387,-408.442 387,-455.5 387,-530.5 387,-530.5 387,-530.5 387,-580.796 344.541,-625.108 313.367,-650.864"/>
<polygon fill="tan" stroke="tan" points="310.932,-648.33 305.319,-657.315 315.31,-653.792 310.932,-648.33"/>
</g>
<!-- Node_9&#45;&gt;Node_18 -->
<g id="edge35" class="edge"><title>Node_9&#45;&gt;Node_18</title>
<path fill="none" stroke="tan" d="M346.287,-328.733C343.186,-347.105 337.547,-376.943 330,-402 319.932,-435.428 316.668,-443.803 301,-475 296.347,-484.265 290.603,-494.021 285.219,-502.628"/>
<polygon fill="tan" stroke="tan" points="282.232,-500.801 279.798,-511.112 288.131,-504.569 282.232,-500.801"/>
</g>
<!-- Node_34 -->
<g id="node35" class="node"><title>Node_34</title>
<path fill="lightblue" stroke="lightblue" d="M273,-219.5C273,-219.5 425,-219.5 425,-219.5 431,-219.5 437,-225.5 437,-231.5 437,-231.5 437,-243.5 437,-243.5 437,-249.5 431,-255.5 425,-255.5 425,-255.5 273,-255.5 273,-255.5 267,-255.5 261,-249.5 261,-243.5 261,-243.5 261,-231.5 261,-231.5 261,-225.5 267,-219.5 273,-219.5"/>
<text text-anchor="middle" x="349" y="-235.3" font-family="Arial" font-size="9.00"># sum_3 = PHI &lt;sum_6(2), sum_2(8)&gt;</text>
</g>
<!-- Node_9&#45;&gt;Node_34 -->
<g id="edge36" class="edge"><title>Node_9&#45;&gt;Node_34</title>
<path fill="none" stroke="tan" d="M349,-292.313C349,-284.289 349,-274.547 349,-265.569"/>
<polygon fill="tan" stroke="tan" points="352.5,-265.529 349,-255.529 345.5,-265.529 352.5,-265.529"/>
</g>
<!-- Node_10 -->
<g id="node11" class="node"><title>Node_10</title>
<path fill="lightblue" stroke="lightblue" d="M323.5,-949.5C323.5,-949.5 374.5,-949.5 374.5,-949.5 380.5,-949.5 386.5,-955.5 386.5,-961.5 386.5,-961.5 386.5,-973.5 386.5,-973.5 386.5,-979.5 380.5,-985.5 374.5,-985.5 374.5,-985.5 323.5,-985.5 323.5,-985.5 317.5,-985.5 311.5,-979.5 311.5,-973.5 311.5,-973.5 311.5,-961.5 311.5,-961.5 311.5,-955.5 317.5,-949.5 323.5,-949.5"/>
<text text-anchor="middle" x="349" y="-965.3" font-family="Arial" font-size="9.00">if (j_5_t == 99)</text>
</g>
<!-- Node_11 -->
<g id="node12" class="node"><title>Node_11</title>
<path fill="moccasin" stroke="moccasin" d="M296,-876.5C296,-876.5 352,-876.5 352,-876.5 358,-876.5 364,-882.5 364,-888.5 364,-888.5 364,-900.5 364,-900.5 364,-906.5 358,-912.5 352,-912.5 352,-912.5 296,-912.5 296,-912.5 290,-912.5 284,-906.5 284,-900.5 284,-900.5 284,-888.5 284,-888.5 284,-882.5 290,-876.5 296,-876.5"/>
<text text-anchor="middle" x="324" y="-892.3" font-family="Arial" font-size="9.00">j_5_t_t: [&#45;inf, inf]</text>
</g>
<!-- Node_10&#45;&gt;Node_11 -->
<g id="edge6" class="edge"><title>Node_10&#45;&gt;Node_11</title>
<path fill="none" stroke="steelblue" d="M342.948,-949.313C340.062,-941.115 336.543,-931.123 333.326,-921.985"/>
<polygon fill="steelblue" stroke="steelblue" points="336.619,-920.799 329.996,-912.529 330.016,-923.124 336.619,-920.799"/>
</g>
<!-- Node_11&#45;&gt;Node_2 -->
<g id="edge24" class="edge"><title>Node_11&#45;&gt;Node_2</title>
<path fill="none" stroke="tan" d="M313.591,-876.313C308.468,-867.853 302.187,-857.484 296.512,-848.112"/>
<polygon fill="tan" stroke="tan" points="299.487,-846.269 291.313,-839.529 293.5,-849.896 299.487,-846.269"/>
</g>
<!-- Node_12 -->
<g id="node13" class="node"><title>Node_12</title>
<path fill="lightblue" stroke="lightblue" d="M442,-949.5C442,-949.5 490,-949.5 490,-949.5 496,-949.5 502,-955.5 502,-961.5 502,-961.5 502,-973.5 502,-973.5 502,-979.5 496,-985.5 490,-985.5 490,-985.5 442,-985.5 442,-985.5 436,-985.5 430,-979.5 430,-973.5 430,-973.5 430,-961.5 430,-961.5 430,-955.5 436,-949.5 442,-949.5"/>
<text text-anchor="middle" x="466" y="-965.3" font-family="Arial" font-size="9.00">if (j_5_t != 99)</text>
</g>
<!-- Node_13 -->
<g id="node14" class="node"><title>Node_13</title>
<path fill="moccasin" stroke="moccasin" d="M438,-876.5C438,-876.5 494,-876.5 494,-876.5 500,-876.5 506,-882.5 506,-888.5 506,-888.5 506,-900.5 506,-900.5 506,-906.5 500,-912.5 494,-912.5 494,-912.5 438,-912.5 438,-912.5 432,-912.5 426,-906.5 426,-900.5 426,-900.5 426,-888.5 426,-888.5 426,-882.5 432,-876.5 438,-876.5"/>
<text text-anchor="middle" x="466" y="-892.3" font-family="Arial" font-size="9.00">j_5_t_f: [&#45;inf, inf]</text>
</g>
<!-- Node_12&#45;&gt;Node_13 -->
<g id="edge7" class="edge"><title>Node_12&#45;&gt;Node_13</title>
<path fill="none" stroke="steelblue" d="M466,-949.313C466,-941.289 466,-931.547 466,-922.569"/>
<polygon fill="steelblue" stroke="steelblue" points="469.5,-922.529 466,-912.529 462.5,-922.529 469.5,-922.529"/>
</g>
<!-- Node_30 -->
<g id="node31" class="node"><title>Node_30</title>
<path fill="lightblue" stroke="lightblue" d="M434.5,-803.5C434.5,-803.5 497.5,-803.5 497.5,-803.5 503.5,-803.5 509.5,-809.5 509.5,-815.5 509.5,-815.5 509.5,-827.5 509.5,-827.5 509.5,-833.5 503.5,-839.5 497.5,-839.5 497.5,-839.5 434.5,-839.5 434.5,-839.5 428.5,-839.5 422.5,-833.5 422.5,-827.5 422.5,-827.5 422.5,-815.5 422.5,-815.5 422.5,-809.5 428.5,-803.5 434.5,-803.5"/>
<text text-anchor="middle" x="466" y="-819.3" font-family="Arial" font-size="9.00">j_11 = j_5_t_f + 1</text>
</g>
<!-- Node_13&#45;&gt;Node_30 -->
<g id="edge20" class="edge"><title>Node_13&#45;&gt;Node_30</title>
<path fill="none" stroke="tan" d="M466,-876.313C466,-868.289 466,-858.547 466,-849.569"/>
<polygon fill="tan" stroke="tan" points="469.5,-849.529 466,-839.529 462.5,-849.529 469.5,-849.529"/>
</g>
<!-- Node_14 -->
<g id="node15" class="node"><title>Node_14</title>
<path fill="lightblue" stroke="lightblue" d="M79,-584.5C79,-584.5 127,-584.5 127,-584.5 133,-584.5 139,-590.5 139,-596.5 139,-596.5 139,-608.5 139,-608.5 139,-614.5 133,-620.5 127,-620.5 127,-620.5 79,-620.5 79,-620.5 73,-620.5 67,-614.5 67,-608.5 67,-608.5 67,-596.5 67,-596.5 67,-590.5 73,-584.5 79,-584.5"/>
<text text-anchor="middle" x="103" y="-600.3" font-family="Arial" font-size="9.00">if (j_5 &gt; i_4_t)</text>
</g>
<!-- Node_15 -->
<g id="node16" class="node"><title>Node_15</title>
<path fill="moccasin" stroke="moccasin" d="M76,-511.5C76,-511.5 132,-511.5 132,-511.5 138,-511.5 144,-517.5 144,-523.5 144,-523.5 144,-535.5 144,-535.5 144,-541.5 138,-547.5 132,-547.5 132,-547.5 76,-547.5 76,-547.5 70,-547.5 64,-541.5 64,-535.5 64,-535.5 64,-523.5 64,-523.5 64,-517.5 70,-511.5 76,-511.5"/>
<text text-anchor="middle" x="104" y="-527.3" font-family="Arial" font-size="9.00">i_4_t_f: [&#45;inf, inf]</text>
</g>
<!-- Node_14&#45;&gt;Node_15 -->
<g id="edge8" class="edge"><title>Node_14&#45;&gt;Node_15</title>
<path fill="none" stroke="steelblue" d="M103.242,-584.313C103.355,-576.289 103.492,-566.547 103.619,-557.569"/>
<polygon fill="steelblue" stroke="steelblue" points="107.119,-557.577 103.76,-547.529 100.12,-557.479 107.119,-557.577"/>
</g>
<!-- Node_15&#45;&gt;Node_4 -->
<g id="edge37" class="edge"><title>Node_15&#45;&gt;Node_4</title>
<path fill="none" stroke="tan" d="M104.484,-511.313C104.71,-503.289 104.985,-493.547 105.237,-484.569"/>
<polygon fill="tan" stroke="tan" points="108.737,-484.623 105.52,-474.529 101.74,-484.426 108.737,-484.623"/>
</g>
<!-- Node_16 -->
<g id="node17" class="node"><title>Node_16</title>
<path fill="lightblue" stroke="lightblue" d="M267.5,-73.5C267.5,-73.5 314.5,-73.5 314.5,-73.5 320.5,-73.5 326.5,-79.5 326.5,-85.5 326.5,-85.5 326.5,-97.5 326.5,-97.5 326.5,-103.5 320.5,-109.5 314.5,-109.5 314.5,-109.5 267.5,-109.5 267.5,-109.5 261.5,-109.5 255.5,-103.5 255.5,-97.5 255.5,-97.5 255.5,-85.5 255.5,-85.5 255.5,-79.5 261.5,-73.5 267.5,-73.5"/>
<text text-anchor="middle" x="291" y="-89.3" font-family="Arial" font-size="9.00">_13 = sum_3</text>
</g>
<!-- Node_17 -->
<g id="node18" class="node"><title>Node_17</title>
<path fill="moccasin" stroke="moccasin" d="M269,-0.5C269,-0.5 313,-0.5 313,-0.5 319,-0.5 325,-6.5 325,-12.5 325,-12.5 325,-24.5 325,-24.5 325,-30.5 319,-36.5 313,-36.5 313,-36.5 269,-36.5 269,-36.5 263,-36.5 257,-30.5 257,-24.5 257,-24.5 257,-12.5 257,-12.5 257,-6.5 263,-0.5 269,-0.5"/>
<text text-anchor="middle" x="291" y="-16.3" font-family="Arial" font-size="9.00">_13: [&#45;inf, inf]</text>
</g>
<!-- Node_16&#45;&gt;Node_17 -->
<g id="edge9" class="edge"><title>Node_16&#45;&gt;Node_17</title>
<path fill="none" stroke="steelblue" d="M291,-73.3129C291,-65.2895 291,-55.5475 291,-46.5691"/>
<polygon fill="steelblue" stroke="steelblue" points="294.5,-46.5288 291,-36.5288 287.5,-46.5289 294.5,-46.5288"/>
</g>
<!-- Node_19 -->
<g id="node20" class="node"><title>Node_19</title>
<path fill="moccasin" stroke="moccasin" d="M222,-438.5C222,-438.5 280,-438.5 280,-438.5 286,-438.5 292,-444.5 292,-450.5 292,-450.5 292,-462.5 292,-462.5 292,-468.5 286,-474.5 280,-474.5 280,-474.5 222,-474.5 222,-474.5 216,-474.5 210,-468.5 210,-462.5 210,-462.5 210,-450.5 210,-450.5 210,-444.5 216,-438.5 222,-438.5"/>
<text text-anchor="middle" x="251" y="-454.3" font-family="Arial" font-size="9.00">sum_1: [&#45;inf, inf]</text>
</g>
<!-- Node_18&#45;&gt;Node_19 -->
<g id="edge10" class="edge"><title>Node_18&#45;&gt;Node_19</title>
<path fill="none" stroke="steelblue" d="M263.885,-511.313C261.943,-503.202 259.58,-493.336 257.411,-484.277"/>
<polygon fill="steelblue" stroke="steelblue" points="260.81,-483.439 255.077,-474.529 254.002,-485.069 260.81,-483.439"/>
</g>
<!-- Node_19&#45;&gt;Node_8 -->
<g id="edge21" class="edge"><title>Node_19&#45;&gt;Node_8</title>
<path fill="none" stroke="tan" d="M246.643,-438.313C244.586,-430.202 242.085,-420.336 239.788,-411.277"/>
<polygon fill="tan" stroke="tan" points="243.167,-410.362 237.317,-401.529 236.382,-412.082 243.167,-410.362"/>
</g>
<!-- Node_20 -->
<g id="node21" class="node"><title>Node_20</title>
<path fill="lightblue" stroke="lightblue" d="M79,-730.5C79,-730.5 123,-730.5 123,-730.5 129,-730.5 135,-736.5 135,-742.5 135,-742.5 135,-754.5 135,-754.5 135,-760.5 129,-766.5 123,-766.5 123,-766.5 79,-766.5 79,-766.5 73,-766.5 67,-760.5 67,-754.5 67,-754.5 67,-742.5 67,-742.5 67,-736.5 73,-730.5 79,-730.5"/>
<text text-anchor="middle" x="101" y="-746.3" font-family="Arial" font-size="9.00">if (i_4 &lt;= 99)</text>
</g>
<!-- Node_21 -->
<g id="node22" class="node"><title>Node_21</title>
<path fill="moccasin" stroke="moccasin" d="M78.5,-657.5C78.5,-657.5 127.5,-657.5 127.5,-657.5 133.5,-657.5 139.5,-663.5 139.5,-669.5 139.5,-669.5 139.5,-681.5 139.5,-681.5 139.5,-687.5 133.5,-693.5 127.5,-693.5 127.5,-693.5 78.5,-693.5 78.5,-693.5 72.5,-693.5 66.5,-687.5 66.5,-681.5 66.5,-681.5 66.5,-669.5 66.5,-669.5 66.5,-663.5 72.5,-657.5 78.5,-657.5"/>
<text text-anchor="middle" x="103" y="-673.3" font-family="Arial" font-size="9.00">i_4_t: [&#45;inf, inf]</text>
</g>
<!-- Node_20&#45;&gt;Node_21 -->
<g id="edge11" class="edge"><title>Node_20&#45;&gt;Node_21</title>
<path fill="none" stroke="steelblue" d="M101.484,-730.313C101.71,-722.289 101.985,-712.547 102.237,-703.569"/>
<polygon fill="steelblue" stroke="steelblue" points="105.737,-703.623 102.52,-693.529 98.74,-703.426 105.737,-703.623"/>
</g>
<!-- Node_21&#45;&gt;Node_14 -->
<g id="edge38" class="edge"><title>Node_21&#45;&gt;Node_14</title>
<path fill="none" stroke="tan" d="M103,-657.313C103,-649.289 103,-639.547 103,-630.569"/>
<polygon fill="tan" stroke="tan" points="106.5,-630.529 103,-620.529 99.5001,-630.529 106.5,-630.529"/>
</g>
<!-- Node_22 -->
<g id="node23" class="node"><title>Node_22</title>
<path fill="lightblue" stroke="lightblue" d="M390,-657.5C390,-657.5 498,-657.5 498,-657.5 504,-657.5 510,-663.5 510,-669.5 510,-669.5 510,-681.5 510,-681.5 510,-687.5 504,-693.5 498,-693.5 498,-693.5 390,-693.5 390,-693.5 384,-693.5 378,-687.5 378,-681.5 378,-681.5 378,-669.5 378,-669.5 378,-663.5 384,-657.5 390,-657.5"/>
<text text-anchor="middle" x="444" y="-673.3" font-family="Arial" font-size="9.00"># j_5 = PHI &lt;j_8(3), j_11(6)&gt;</text>
</g>
<!-- Node_23 -->
<g id="node24" class="node"><title>Node_23</title>
<path fill="moccasin" stroke="moccasin" d="M442.5,-584.5C442.5,-584.5 483.5,-584.5 483.5,-584.5 489.5,-584.5 495.5,-590.5 495.5,-596.5 495.5,-596.5 495.5,-608.5 495.5,-608.5 495.5,-614.5 489.5,-620.5 483.5,-620.5 483.5,-620.5 442.5,-620.5 442.5,-620.5 436.5,-620.5 430.5,-614.5 430.5,-608.5 430.5,-608.5 430.5,-596.5 430.5,-596.5 430.5,-590.5 436.5,-584.5 442.5,-584.5"/>
<text text-anchor="middle" x="463" y="-600.3" font-family="Arial" font-size="9.00">j_5: [&#45;inf, inf]</text>
</g>
<!-- Node_22&#45;&gt;Node_23 -->
<g id="edge12" class="edge"><title>Node_22&#45;&gt;Node_23</title>
<path fill="none" stroke="steelblue" d="M448.599,-657.313C450.77,-649.202 453.41,-639.336 455.834,-630.277"/>
<polygon fill="steelblue" stroke="steelblue" points="459.239,-631.094 458.443,-620.529 452.477,-629.284 459.239,-631.094"/>
</g>
<!-- Node_24 -->
<g id="node25" class="node"><title>Node_24</title>
<path fill="lightblue" stroke="lightblue" d="M441,-511.5C441,-511.5 487,-511.5 487,-511.5 493,-511.5 499,-517.5 499,-523.5 499,-523.5 499,-535.5 499,-535.5 499,-541.5 493,-547.5 487,-547.5 487,-547.5 441,-547.5 441,-547.5 435,-547.5 429,-541.5 429,-535.5 429,-535.5 429,-523.5 429,-523.5 429,-517.5 435,-511.5 441,-511.5"/>
<text text-anchor="middle" x="464" y="-527.3" font-family="Arial" font-size="9.00">if (j_5 &lt;= i_4)</text>
</g>
<!-- Node_23&#45;&gt;Node_24 -->
<g id="edge23" class="edge"><title>Node_23&#45;&gt;Node_24</title>
<path fill="none" stroke="tan" d="M463.242,-584.313C463.355,-576.289 463.492,-566.547 463.619,-557.569"/>
<polygon fill="tan" stroke="tan" points="467.119,-557.577 463.76,-547.529 460.12,-557.479 467.119,-557.577"/>
</g>
<!-- Node_25 -->
<g id="node26" class="node"><title>Node_25</title>
<path fill="moccasin" stroke="moccasin" d="M441.5,-1022.5C441.5,-1022.5 490.5,-1022.5 490.5,-1022.5 496.5,-1022.5 502.5,-1028.5 502.5,-1034.5 502.5,-1034.5 502.5,-1046.5 502.5,-1046.5 502.5,-1052.5 496.5,-1058.5 490.5,-1058.5 490.5,-1058.5 441.5,-1058.5 441.5,-1058.5 435.5,-1058.5 429.5,-1052.5 429.5,-1046.5 429.5,-1046.5 429.5,-1034.5 429.5,-1034.5 429.5,-1028.5 435.5,-1022.5 441.5,-1022.5"/>
<text text-anchor="middle" x="466" y="-1038.3" font-family="Arial" font-size="9.00">j_5_t: [&#45;inf, inf]</text>
</g>
<!-- Node_24&#45;&gt;Node_25 -->
<g id="edge13" class="edge"><title>Node_24&#45;&gt;Node_25</title>
<path fill="none" stroke="steelblue" d="M479.693,-547.661C501.416,-573.268 538,-623.906 538,-674.5 538,-895.5 538,-895.5 538,-895.5 538,-937.474 530.925,-949.057 511,-986 505.586,-996.038 498.083,-1005.92 490.755,-1014.4"/>
<polygon fill="steelblue" stroke="steelblue" points="487.945,-1012.29 483.856,-1022.06 493.148,-1016.97 487.945,-1012.29"/>
</g>
<!-- Node_25&#45;&gt;Node_10 -->
<g id="edge31" class="edge"><title>Node_25&#45;&gt;Node_10</title>
<path fill="none" stroke="tan" d="M437.976,-1022.49C422.46,-1013.08 402.977,-1001.26 386.201,-991.075"/>
<polygon fill="tan" stroke="tan" points="387.566,-987.809 377.201,-985.614 383.935,-993.794 387.566,-987.809"/>
</g>
<!-- Node_25&#45;&gt;Node_12 -->
<g id="edge32" class="edge"><title>Node_25&#45;&gt;Node_12</title>
<path fill="none" stroke="tan" d="M466,-1022.31C466,-1014.29 466,-1004.55 466,-995.569"/>
<polygon fill="tan" stroke="tan" points="469.5,-995.529 466,-985.529 462.5,-995.529 469.5,-995.529"/>
</g>
<!-- Node_26 -->
<g id="node27" class="node"><title>Node_26</title>
<path fill="lightblue" stroke="lightblue" d="M362,-803.5C362,-803.5 392,-803.5 392,-803.5 398,-803.5 404,-809.5 404,-815.5 404,-815.5 404,-827.5 404,-827.5 404,-833.5 398,-839.5 392,-839.5 392,-839.5 362,-839.5 362,-839.5 356,-839.5 350,-833.5 350,-827.5 350,-827.5 350,-815.5 350,-815.5 350,-809.5 356,-803.5 362,-803.5"/>
<text text-anchor="middle" x="377" y="-819.3" font-family="Arial" font-size="9.00">j_8 = 0</text>
</g>
<!-- Node_27 -->
<g id="node28" class="node"><title>Node_27</title>
<path fill="moccasin" stroke="moccasin" d="M357.5,-730.5C357.5,-730.5 398.5,-730.5 398.5,-730.5 404.5,-730.5 410.5,-736.5 410.5,-742.5 410.5,-742.5 410.5,-754.5 410.5,-754.5 410.5,-760.5 404.5,-766.5 398.5,-766.5 398.5,-766.5 357.5,-766.5 357.5,-766.5 351.5,-766.5 345.5,-760.5 345.5,-754.5 345.5,-754.5 345.5,-742.5 345.5,-742.5 345.5,-736.5 351.5,-730.5 357.5,-730.5"/>
<text text-anchor="middle" x="378" y="-746.3" font-family="Arial" font-size="9.00">j_8: [&#45;inf, inf]</text>
</g>
<!-- Node_26&#45;&gt;Node_27 -->
<g id="edge14" class="edge"><title>Node_26&#45;&gt;Node_27</title>
<path fill="none" stroke="steelblue" d="M377.242,-803.313C377.355,-795.289 377.492,-785.547 377.619,-776.569"/>
<polygon fill="steelblue" stroke="steelblue" points="381.119,-776.577 377.76,-766.529 374.12,-776.479 381.119,-776.577"/>
</g>
<!-- Node_27&#45;&gt;Node_22 -->
<g id="edge30" class="edge"><title>Node_27&#45;&gt;Node_22</title>
<path fill="none" stroke="tan" d="M393.977,-730.313C402.165,-721.505 412.278,-710.625 421.264,-700.958"/>
<polygon fill="tan" stroke="tan" points="423.925,-703.236 428.17,-693.529 418.798,-698.47 423.925,-703.236"/>
</g>
<!-- Node_29 -->
<g id="node30" class="node"><title>Node_29</title>
<path fill="moccasin" stroke="moccasin" d="M77.5,-803.5C77.5,-803.5 118.5,-803.5 118.5,-803.5 124.5,-803.5 130.5,-809.5 130.5,-815.5 130.5,-815.5 130.5,-827.5 130.5,-827.5 130.5,-833.5 124.5,-839.5 118.5,-839.5 118.5,-839.5 77.5,-839.5 77.5,-839.5 71.5,-839.5 65.5,-833.5 65.5,-827.5 65.5,-827.5 65.5,-815.5 65.5,-815.5 65.5,-809.5 71.5,-803.5 77.5,-803.5"/>
<text text-anchor="middle" x="98" y="-819.3" font-family="Arial" font-size="9.00">i_4: [&#45;inf, inf]</text>
</g>
<!-- Node_28&#45;&gt;Node_29 -->
<g id="edge15" class="edge"><title>Node_28&#45;&gt;Node_29</title>
<path fill="none" stroke="steelblue" d="M73.7463,-876.313C77.4804,-868.028 82.0404,-857.91 86.1945,-848.693"/>
<polygon fill="steelblue" stroke="steelblue" points="89.4069,-850.084 90.325,-839.529 83.0251,-847.207 89.4069,-850.084"/>
</g>
<!-- Node_29&#45;&gt;Node_20 -->
<g id="edge19" class="edge"><title>Node_29&#45;&gt;Node_20</title>
<path fill="none" stroke="tan" d="M98.7262,-803.313C99.0652,-795.289 99.4769,-785.547 99.8562,-776.569"/>
<polygon fill="tan" stroke="tan" points="103.355,-776.668 100.28,-766.529 96.3613,-776.372 103.355,-776.668"/>
</g>
<!-- Node_31 -->
<g id="node32" class="node"><title>Node_31</title>
<path fill="moccasin" stroke="moccasin" d="M441.5,-730.5C441.5,-730.5 488.5,-730.5 488.5,-730.5 494.5,-730.5 500.5,-736.5 500.5,-742.5 500.5,-742.5 500.5,-754.5 500.5,-754.5 500.5,-760.5 494.5,-766.5 488.5,-766.5 488.5,-766.5 441.5,-766.5 441.5,-766.5 435.5,-766.5 429.5,-760.5 429.5,-754.5 429.5,-754.5 429.5,-742.5 429.5,-742.5 429.5,-736.5 435.5,-730.5 441.5,-730.5"/>
<text text-anchor="middle" x="465" y="-746.3" font-family="Arial" font-size="9.00">j_11: [&#45;inf, inf]</text>
</g>
<!-- Node_30&#45;&gt;Node_31 -->
<g id="edge16" class="edge"><title>Node_30&#45;&gt;Node_31</title>
<path fill="none" stroke="steelblue" d="M465.758,-803.313C465.645,-795.289 465.508,-785.547 465.381,-776.569"/>
<polygon fill="steelblue" stroke="steelblue" points="468.88,-776.479 465.24,-766.529 461.881,-776.577 468.88,-776.479"/>
</g>
<!-- Node_31&#45;&gt;Node_22 -->
<g id="edge39" class="edge"><title>Node_31&#45;&gt;Node_22</title>
<path fill="none" stroke="tan" d="M459.916,-730.313C457.518,-722.202 454.599,-712.336 451.92,-703.277"/>
<polygon fill="tan" stroke="tan" points="455.229,-702.125 449.037,-693.529 448.517,-704.111 455.229,-702.125"/>
</g>
<!-- Node_32 -->
<g id="node33" class="node"><title>Node_32</title>
<path fill="lightblue" stroke="lightblue" d="M427.5,-365.5C427.5,-365.5 472.5,-365.5 472.5,-365.5 478.5,-365.5 484.5,-371.5 484.5,-377.5 484.5,-377.5 484.5,-389.5 484.5,-389.5 484.5,-395.5 478.5,-401.5 472.5,-401.5 472.5,-401.5 427.5,-401.5 427.5,-401.5 421.5,-401.5 415.5,-395.5 415.5,-389.5 415.5,-389.5 415.5,-377.5 415.5,-377.5 415.5,-371.5 421.5,-365.5 427.5,-365.5"/>
<text text-anchor="middle" x="450" y="-381.3" font-family="Arial" font-size="9.00">sum_6 = &#45;10</text>
</g>
<!-- Node_33 -->
<g id="node34" class="node"><title>Node_33</title>
<path fill="moccasin" stroke="moccasin" d="M420,-292.5C420,-292.5 478,-292.5 478,-292.5 484,-292.5 490,-298.5 490,-304.5 490,-304.5 490,-316.5 490,-316.5 490,-322.5 484,-328.5 478,-328.5 478,-328.5 420,-328.5 420,-328.5 414,-328.5 408,-322.5 408,-316.5 408,-316.5 408,-304.5 408,-304.5 408,-298.5 414,-292.5 420,-292.5"/>
<text text-anchor="middle" x="449" y="-308.3" font-family="Arial" font-size="9.00">sum_6: [&#45;inf, inf]</text>
</g>
<!-- Node_32&#45;&gt;Node_33 -->
<g id="edge17" class="edge"><title>Node_32&#45;&gt;Node_33</title>
<path fill="none" stroke="steelblue" d="M449.758,-365.313C449.645,-357.289 449.508,-347.547 449.381,-338.569"/>
<polygon fill="steelblue" stroke="steelblue" points="452.88,-338.479 449.24,-328.529 445.881,-338.577 452.88,-338.479"/>
</g>
<!-- Node_33&#45;&gt;Node_34 -->
<g id="edge27" class="edge"><title>Node_33&#45;&gt;Node_34</title>
<path fill="none" stroke="tan" d="M425.048,-292.494C412.032,-283.253 395.75,-271.692 381.594,-261.642"/>
<polygon fill="tan" stroke="tan" points="383.284,-258.549 373.104,-255.614 379.231,-264.257 383.284,-258.549"/>
</g>
<!-- Node_35 -->
<g id="node36" class="node"><title>Node_35</title>
<path fill="moccasin" stroke="moccasin" d="M262,-146.5C262,-146.5 320,-146.5 320,-146.5 326,-146.5 332,-152.5 332,-158.5 332,-158.5 332,-170.5 332,-170.5 332,-176.5 326,-182.5 320,-182.5 320,-182.5 262,-182.5 262,-182.5 256,-182.5 250,-176.5 250,-170.5 250,-170.5 250,-158.5 250,-158.5 250,-152.5 256,-146.5 262,-146.5"/>
<text text-anchor="middle" x="291" y="-162.3" font-family="Arial" font-size="9.00">sum_3: [&#45;inf, inf]</text>
</g>
<!-- Node_34&#45;&gt;Node_35 -->
<g id="edge18" class="edge"><title>Node_34&#45;&gt;Node_35</title>
<path fill="none" stroke="steelblue" d="M334.96,-219.313C327.907,-210.679 319.228,-200.055 311.45,-190.534"/>
<polygon fill="steelblue" stroke="steelblue" points="313.948,-188.059 304.911,-182.529 308.527,-192.488 313.948,-188.059"/>
</g>
<!-- Node_35&#45;&gt;Node_8 -->
<g id="edge25" class="edge"><title>Node_35&#45;&gt;Node_8</title>
<path fill="none" stroke="tan" d="M274.727,-182.916C266.504,-192.759 257.191,-205.726 252,-219 234.326,-264.191 231.739,-321.366 232.001,-354.745"/>
<polygon fill="tan" stroke="tan" points="228.507,-355.163 232.181,-365.101 235.506,-355.041 228.507,-355.163"/>
</g>
<!-- Node_35&#45;&gt;Node_16 -->
<g id="edge26" class="edge"><title>Node_35&#45;&gt;Node_16</title>
<path fill="none" stroke="tan" d="M291,-146.313C291,-138.289 291,-128.547 291,-119.569"/>
<polygon fill="tan" stroke="tan" points="294.5,-119.529 291,-109.529 287.5,-119.529 294.5,-119.529"/>
</g>
</g>
</svg>
