<?xml version="1.0" encoding="UTF-8" standalone="no"?>
<!DOCTYPE svg PUBLIC "-//W3C//DTD SVG 1.1//EN"
 "http://www.w3.org/Graphics/SVG/1.1/DTD/svg11.dtd">
<!-- Generated by graphviz version 2.38.0 (20140413.2041)
 -->
<!-- Title: t9_foo_ConstraintGraph Pages: 1 -->
<svg width="1053pt" height="650pt"
     viewBox="0.00 0.00 1052.50 650.00" xmlns="http://www.w3.org/2000/svg">
<g id="graph0" class="graph" transform="scale(1 1) rotate(0) translate(4 646)">
<title>t9_foo_ConstraintGraph</title>
<polygon fill="white" stroke="none" points="-4,4 -4,-646 1048.5,-646 1048.5,4 -4,4"/>
<text text-anchor="middle" x="522.25" y="-628.4" font-family="Arial" font-size="12.00">t9_foo_ConstraintGraph</text>
<!-- Node_0 -->
<g id="node1" class="node"><title>Node_0</title>
<path fill="lightblue" stroke="lightblue" d="M166,-365.5C166,-365.5 318,-365.5 318,-365.5 324,-365.5 330,-371.5 330,-377.5 330,-377.5 330,-389.5 330,-389.5 330,-395.5 324,-401.5 318,-401.5 318,-401.5 166,-401.5 166,-401.5 160,-401.5 154,-395.5 154,-389.5 154,-389.5 154,-377.5 154,-377.5 154,-371.5 160,-365.5 166,-365.5"/>
<text text-anchor="middle" x="242" y="-381.3" font-family="Arial" font-size="9.00"># sum_2 = PHI &lt;sum_3(3), sum_1(6)&gt;</text>
</g>
<!-- Node_1 -->
<g id="node2" class="node"><title>Node_1</title>
<path fill="moccasin" stroke="moccasin" d="M282.5,-292.5C282.5,-292.5 371.5,-292.5 371.5,-292.5 377.5,-292.5 383.5,-298.5 383.5,-304.5 383.5,-304.5 383.5,-316.5 383.5,-316.5 383.5,-322.5 377.5,-328.5 371.5,-328.5 371.5,-328.5 282.5,-328.5 282.5,-328.5 276.5,-328.5 270.5,-322.5 270.5,-316.5 270.5,-316.5 270.5,-304.5 270.5,-304.5 270.5,-298.5 276.5,-292.5 282.5,-292.5"/>
<text text-anchor="middle" x="327" y="-308.3" font-family="Arial" font-size="9.00">sum_2: [&#45;Infinity, Infinity]</text>
</g>
<!-- Node_0&#45;&gt;Node_1 -->
<g id="edge1" class="edge"><title>Node_0&#45;&gt;Node_1</title>
<path fill="none" stroke="steelblue" d="M262.576,-365.313C273.434,-356.243 286.922,-344.977 298.746,-335.1"/>
<polygon fill="steelblue" stroke="steelblue" points="301.182,-337.626 306.613,-328.529 296.695,-332.253 301.182,-337.626"/>
</g>
<!-- Node_26 -->
<g id="node27" class="node"><title>Node_26</title>
<path fill="lightblue" stroke="lightblue" d="M12,-219.5C12,-219.5 164,-219.5 164,-219.5 170,-219.5 176,-225.5 176,-231.5 176,-231.5 176,-243.5 176,-243.5 176,-249.5 170,-255.5 164,-255.5 164,-255.5 12,-255.5 12,-255.5 6,-255.5 0,-249.5 0,-243.5 0,-243.5 0,-231.5 0,-231.5 0,-225.5 6,-219.5 12,-219.5"/>
<text text-anchor="middle" x="88" y="-235.3" font-family="Arial" font-size="9.00"># sum_3 = PHI &lt;sum_6(2), sum_2(8)&gt;</text>
</g>
<!-- Node_1&#45;&gt;Node_26 -->
<g id="edge30" class="edge"><title>Node_1&#45;&gt;Node_26</title>
<path fill="none" stroke="tan" d="M270.36,-292.674C235.914,-282.441 191.727,-269.314 155.476,-258.545"/>
<polygon fill="tan" stroke="tan" points="156.06,-255.067 145.477,-255.575 154.066,-261.778 156.06,-255.067"/>
</g>
<!-- Node_30 -->
<g id="node31" class="node"><title>Node_30</title>
<path fill="lightblue" stroke="lightblue" d="M372,-219.5C372,-219.5 458,-219.5 458,-219.5 464,-219.5 470,-225.5 470,-231.5 470,-231.5 470,-243.5 470,-243.5 470,-249.5 464,-255.5 458,-255.5 458,-255.5 372,-255.5 372,-255.5 366,-255.5 360,-249.5 360,-243.5 360,-243.5 360,-231.5 360,-231.5 360,-225.5 366,-219.5 372,-219.5"/>
<text text-anchor="middle" x="415" y="-235.3" font-family="Arial" font-size="9.00">sum_10 = _9 + sum_2</text>
</g>
<!-- Node_1&#45;&gt;Node_30 -->
<g id="edge31" class="edge"><title>Node_1&#45;&gt;Node_30</title>
<path fill="none" stroke="tan" d="M348.302,-292.313C359.652,-283.156 373.776,-271.76 386.101,-261.816"/>
<polygon fill="tan" stroke="tan" points="388.309,-264.532 393.894,-255.529 383.913,-259.084 388.309,-264.532"/>
</g>
<!-- Node_32 -->
<g id="node33" class="node"><title>Node_32</title>
<path fill="lightblue" stroke="lightblue" d="M282,-73.5C282,-73.5 440,-73.5 440,-73.5 446,-73.5 452,-79.5 452,-85.5 452,-85.5 452,-97.5 452,-97.5 452,-103.5 446,-109.5 440,-109.5 440,-109.5 282,-109.5 282,-109.5 276,-109.5 270,-103.5 270,-97.5 270,-97.5 270,-85.5 270,-85.5 270,-79.5 276,-73.5 282,-73.5"/>
<text text-anchor="middle" x="361" y="-89.3" font-family="Arial" font-size="9.00"># sum_1 = PHI &lt;sum_2(4), sum_10(5)&gt;</text>
</g>
<!-- Node_1&#45;&gt;Node_32 -->
<g id="edge32" class="edge"><title>Node_1&#45;&gt;Node_32</title>
<path fill="none" stroke="tan" d="M328.111,-292.178C330.236,-262.179 335.615,-198.71 346,-146 347.723,-137.253 350.157,-127.848 352.564,-119.401"/>
<polygon fill="tan" stroke="tan" points="355.959,-120.263 355.437,-109.681 349.246,-118.279 355.959,-120.263"/>
</g>
<!-- Node_2 -->
<g id="node3" class="node"><title>Node_2</title>
<path fill="lightblue" stroke="lightblue" d="M442.5,-511.5C442.5,-511.5 493.5,-511.5 493.5,-511.5 499.5,-511.5 505.5,-517.5 505.5,-523.5 505.5,-523.5 505.5,-535.5 505.5,-535.5 505.5,-541.5 499.5,-547.5 493.5,-547.5 493.5,-547.5 442.5,-547.5 442.5,-547.5 436.5,-547.5 430.5,-541.5 430.5,-535.5 430.5,-535.5 430.5,-523.5 430.5,-523.5 430.5,-517.5 436.5,-511.5 442.5,-511.5"/>
<text text-anchor="middle" x="468" y="-527.3" font-family="Arial" font-size="9.00">if (j_5_t == 99)</text>
</g>
<!-- Node_3 -->
<g id="node4" class="node"><title>Node_3</title>
<path fill="moccasin" stroke="moccasin" d="M405,-438.5C405,-438.5 493,-438.5 493,-438.5 499,-438.5 505,-444.5 505,-450.5 505,-450.5 505,-462.5 505,-462.5 505,-468.5 499,-474.5 493,-474.5 493,-474.5 405,-474.5 405,-474.5 399,-474.5 393,-468.5 393,-462.5 393,-462.5 393,-450.5 393,-450.5 393,-444.5 399,-438.5 405,-438.5"/>
<text text-anchor="middle" x="449" y="-454.3" font-family="Arial" font-size="9.00">j_5_t_t: [&#45;Infinity, Infinity]</text>
</g>
<!-- Node_2&#45;&gt;Node_3 -->
<g id="edge2" class="edge"><title>Node_2&#45;&gt;Node_3</title>
<path fill="none" stroke="steelblue" d="M463.401,-511.313C461.23,-503.202 458.59,-493.336 456.166,-484.277"/>
<polygon fill="steelblue" stroke="steelblue" points="459.523,-483.284 453.557,-474.529 452.761,-485.094 459.523,-483.284"/>
</g>
<!-- Node_6 -->
<g id="node7" class="node"><title>Node_6</title>
<path fill="lightblue" stroke="lightblue" d="M410.5,-365.5C410.5,-365.5 487.5,-365.5 487.5,-365.5 493.5,-365.5 499.5,-371.5 499.5,-377.5 499.5,-377.5 499.5,-389.5 499.5,-389.5 499.5,-395.5 493.5,-401.5 487.5,-401.5 487.5,-401.5 410.5,-401.5 410.5,-401.5 404.5,-401.5 398.5,-395.5 398.5,-389.5 398.5,-389.5 398.5,-377.5 398.5,-377.5 398.5,-371.5 404.5,-365.5 410.5,-365.5"/>
<text text-anchor="middle" x="449" y="-381.3" font-family="Arial" font-size="9.00">_9 = j_5_t_t * j_5_t_t</text>
</g>
<!-- Node_3&#45;&gt;Node_6 -->
<g id="edge25" class="edge"><title>Node_3&#45;&gt;Node_6</title>
<path fill="none" stroke="tan" d="M449,-438.313C449,-430.289 449,-420.547 449,-411.569"/>
<polygon fill="tan" stroke="tan" points="452.5,-411.529 449,-401.529 445.5,-411.529 452.5,-411.529"/>
</g>
<!-- Node_4 -->
<g id="node5" class="node"><title>Node_4</title>
<path fill="lightblue" stroke="lightblue" d="M619,-219.5C619,-219.5 727,-219.5 727,-219.5 733,-219.5 739,-225.5 739,-231.5 739,-231.5 739,-243.5 739,-243.5 739,-249.5 733,-255.5 727,-255.5 727,-255.5 619,-255.5 619,-255.5 613,-255.5 607,-249.5 607,-243.5 607,-243.5 607,-231.5 607,-231.5 607,-225.5 613,-219.5 619,-219.5"/>
<text text-anchor="middle" x="673" y="-235.3" font-family="Arial" font-size="9.00"># j_5 = PHI &lt;j_8(3), j_11(6)&gt;</text>
</g>
<!-- Node_5 -->
<g id="node6" class="node"><title>Node_5</title>
<path fill="moccasin" stroke="moccasin" d="M645.5,-146.5C645.5,-146.5 718.5,-146.5 718.5,-146.5 724.5,-146.5 730.5,-152.5 730.5,-158.5 730.5,-158.5 730.5,-170.5 730.5,-170.5 730.5,-176.5 724.5,-182.5 718.5,-182.5 718.5,-182.5 645.5,-182.5 645.5,-182.5 639.5,-182.5 633.5,-176.5 633.5,-170.5 633.5,-170.5 633.5,-158.5 633.5,-158.5 633.5,-152.5 639.5,-146.5 645.5,-146.5"/>
<text text-anchor="middle" x="682" y="-162.3" font-family="Arial" font-size="9.00">j_5: [&#45;Infinity, Infinity]</text>
</g>
<!-- Node_4&#45;&gt;Node_5 -->
<g id="edge3" class="edge"><title>Node_4&#45;&gt;Node_5</title>
<path fill="none" stroke="steelblue" d="M675.179,-219.313C676.196,-211.289 677.431,-201.547 678.569,-192.569"/>
<polygon fill="steelblue" stroke="steelblue" points="682.056,-192.89 679.841,-182.529 675.112,-192.009 682.056,-192.89"/>
</g>
<!-- Node_18 -->
<g id="node19" class="node"><title>Node_18</title>
<path fill="lightblue" stroke="lightblue" d="M701,-73.5C701,-73.5 747,-73.5 747,-73.5 753,-73.5 759,-79.5 759,-85.5 759,-85.5 759,-97.5 759,-97.5 759,-103.5 753,-109.5 747,-109.5 747,-109.5 701,-109.5 701,-109.5 695,-109.5 689,-103.5 689,-97.5 689,-97.5 689,-85.5 689,-85.5 689,-79.5 695,-73.5 701,-73.5"/>
<text text-anchor="middle" x="724" y="-89.3" font-family="Arial" font-size="9.00">if (j_5 &lt;= i_4)</text>
</g>
<!-- Node_5&#45;&gt;Node_18 -->
<g id="edge20" class="edge"><title>Node_5&#45;&gt;Node_18</title>
<path fill="none" stroke="tan" d="M692.167,-146.313C697.12,-137.941 703.179,-127.697 708.677,-118.403"/>
<polygon fill="tan" stroke="tan" points="711.848,-119.918 713.927,-109.529 705.823,-116.354 711.848,-119.918"/>
</g>
<!-- Node_7 -->
<g id="node8" class="node"><title>Node_7</title>
<path fill="moccasin" stroke="moccasin" d="M413.5,-292.5C413.5,-292.5 484.5,-292.5 484.5,-292.5 490.5,-292.5 496.5,-298.5 496.5,-304.5 496.5,-304.5 496.5,-316.5 496.5,-316.5 496.5,-322.5 490.5,-328.5 484.5,-328.5 484.5,-328.5 413.5,-328.5 413.5,-328.5 407.5,-328.5 401.5,-322.5 401.5,-316.5 401.5,-316.5 401.5,-304.5 401.5,-304.5 401.5,-298.5 407.5,-292.5 413.5,-292.5"/>
<text text-anchor="middle" x="449" y="-308.3" font-family="Arial" font-size="9.00">_9: [&#45;Infinity, Infinity]</text>
</g>
<!-- Node_6&#45;&gt;Node_7 -->
<g id="edge4" class="edge"><title>Node_6&#45;&gt;Node_7</title>
<path fill="none" stroke="steelblue" d="M449,-365.313C449,-357.289 449,-347.547 449,-338.569"/>
<polygon fill="steelblue" stroke="steelblue" points="452.5,-338.529 449,-328.529 445.5,-338.529 452.5,-338.529"/>
</g>
<!-- Node_7&#45;&gt;Node_30 -->
<g id="edge33" class="edge"><title>Node_7&#45;&gt;Node_30</title>
<path fill="none" stroke="tan" d="M440.77,-292.313C436.802,-284.028 431.957,-273.91 427.543,-264.693"/>
<polygon fill="tan" stroke="tan" points="430.63,-263.036 423.155,-255.529 424.317,-266.06 430.63,-263.036"/>
</g>
<!-- Node_8 -->
<g id="node9" class="node"><title>Node_8</title>
<path fill="lightblue" stroke="lightblue" d="M968,-584.5C968,-584.5 1012,-584.5 1012,-584.5 1018,-584.5 1024,-590.5 1024,-596.5 1024,-596.5 1024,-608.5 1024,-608.5 1024,-614.5 1018,-620.5 1012,-620.5 1012,-620.5 968,-620.5 968,-620.5 962,-620.5 956,-614.5 956,-608.5 956,-608.5 956,-596.5 956,-596.5 956,-590.5 962,-584.5 968,-584.5"/>
<text text-anchor="middle" x="990" y="-600.3" font-family="Arial" font-size="9.00">if (i_4 &lt;= 99)</text>
</g>
<!-- Node_9 -->
<g id="node10" class="node"><title>Node_9</title>
<path fill="moccasin" stroke="moccasin" d="M898,-511.5C898,-511.5 978,-511.5 978,-511.5 984,-511.5 990,-517.5 990,-523.5 990,-523.5 990,-535.5 990,-535.5 990,-541.5 984,-547.5 978,-547.5 978,-547.5 898,-547.5 898,-547.5 892,-547.5 886,-541.5 886,-535.5 886,-535.5 886,-523.5 886,-523.5 886,-517.5 892,-511.5 898,-511.5"/>
<text text-anchor="middle" x="938" y="-527.3" font-family="Arial" font-size="9.00">i_4_t: [&#45;Infinity, Infinity]</text>
</g>
<!-- Node_8&#45;&gt;Node_9 -->
<g id="edge5" class="edge"><title>Node_8&#45;&gt;Node_9</title>
<path fill="none" stroke="steelblue" d="M977.412,-584.313C971.153,-575.766 963.465,-565.269 956.546,-555.823"/>
<polygon fill="steelblue" stroke="steelblue" points="959.204,-553.528 950.472,-547.529 953.557,-557.665 959.204,-553.528"/>
</g>
<!-- Node_20 -->
<g id="node21" class="node"><title>Node_20</title>
<path fill="lightblue" stroke="lightblue" d="M889,-438.5C889,-438.5 937,-438.5 937,-438.5 943,-438.5 949,-444.5 949,-450.5 949,-450.5 949,-462.5 949,-462.5 949,-468.5 943,-474.5 937,-474.5 937,-474.5 889,-474.5 889,-474.5 883,-474.5 877,-468.5 877,-462.5 877,-462.5 877,-450.5 877,-450.5 877,-444.5 883,-438.5 889,-438.5"/>
<text text-anchor="middle" x="913" y="-454.3" font-family="Arial" font-size="9.00">if (j_5 &gt; i_4_t)</text>
</g>
<!-- Node_9&#45;&gt;Node_20 -->
<g id="edge34" class="edge"><title>Node_9&#45;&gt;Node_20</title>
<path fill="none" stroke="tan" d="M931.948,-511.313C929.062,-503.115 925.543,-493.123 922.326,-483.985"/>
<polygon fill="tan" stroke="tan" points="925.619,-482.799 918.996,-474.529 919.016,-485.124 925.619,-482.799"/>
</g>
<!-- Node_10 -->
<g id="node11" class="node"><title>Node_10</title>
<path fill="lightblue" stroke="lightblue" d="M831.5,-292.5C831.5,-292.5 894.5,-292.5 894.5,-292.5 900.5,-292.5 906.5,-298.5 906.5,-304.5 906.5,-304.5 906.5,-316.5 906.5,-316.5 906.5,-322.5 900.5,-328.5 894.5,-328.5 894.5,-328.5 831.5,-328.5 831.5,-328.5 825.5,-328.5 819.5,-322.5 819.5,-316.5 819.5,-316.5 819.5,-304.5 819.5,-304.5 819.5,-298.5 825.5,-292.5 831.5,-292.5"/>
<text text-anchor="middle" x="863" y="-308.3" font-family="Arial" font-size="9.00">i_12 = i_4_t_f + 1</text>
</g>
<!-- Node_11 -->
<g id="node12" class="node"><title>Node_11</title>
<path fill="moccasin" stroke="moccasin" d="M809,-219.5C809,-219.5 887,-219.5 887,-219.5 893,-219.5 899,-225.5 899,-231.5 899,-231.5 899,-243.5 899,-243.5 899,-249.5 893,-255.5 887,-255.5 887,-255.5 809,-255.5 809,-255.5 803,-255.5 797,-249.5 797,-243.5 797,-243.5 797,-231.5 797,-231.5 797,-225.5 803,-219.5 809,-219.5"/>
<text text-anchor="middle" x="848" y="-235.3" font-family="Arial" font-size="9.00">i_12: [&#45;Infinity, Infinity]</text>
</g>
<!-- Node_10&#45;&gt;Node_11 -->
<g id="edge6" class="edge"><title>Node_10&#45;&gt;Node_11</title>
<path fill="none" stroke="steelblue" d="M859.369,-292.313C857.674,-284.289 855.616,-274.547 853.719,-265.569"/>
<polygon fill="steelblue" stroke="steelblue" points="857.089,-264.589 851.598,-255.529 850.24,-266.036 857.089,-264.589"/>
</g>
<!-- Node_14 -->
<g id="node15" class="node"><title>Node_14</title>
<path fill="lightblue" stroke="lightblue" d="M895,-146.5C895,-146.5 1003,-146.5 1003,-146.5 1009,-146.5 1015,-152.5 1015,-158.5 1015,-158.5 1015,-170.5 1015,-170.5 1015,-176.5 1009,-182.5 1003,-182.5 1003,-182.5 895,-182.5 895,-182.5 889,-182.5 883,-176.5 883,-170.5 883,-170.5 883,-158.5 883,-158.5 883,-152.5 889,-146.5 895,-146.5"/>
<text text-anchor="middle" x="949" y="-162.3" font-family="Arial" font-size="9.00"># i_4 = PHI &lt;i_7(2), i_12(8)&gt;</text>
</g>
<!-- Node_11&#45;&gt;Node_14 -->
<g id="edge37" class="edge"><title>Node_11&#45;&gt;Node_14</title>
<path fill="none" stroke="tan" d="M872.192,-219.494C885.337,-210.253 901.783,-198.692 916.08,-188.642"/>
<polygon fill="tan" stroke="tan" points="918.487,-191.228 924.655,-182.614 914.462,-185.501 918.487,-191.228"/>
</g>
<!-- Node_12 -->
<g id="node13" class="node"><title>Node_12</title>
<path fill="lightblue" stroke="lightblue" d="M113.5,-73.5C113.5,-73.5 160.5,-73.5 160.5,-73.5 166.5,-73.5 172.5,-79.5 172.5,-85.5 172.5,-85.5 172.5,-97.5 172.5,-97.5 172.5,-103.5 166.5,-109.5 160.5,-109.5 160.5,-109.5 113.5,-109.5 113.5,-109.5 107.5,-109.5 101.5,-103.5 101.5,-97.5 101.5,-97.5 101.5,-85.5 101.5,-85.5 101.5,-79.5 107.5,-73.5 113.5,-73.5"/>
<text text-anchor="middle" x="137" y="-89.3" font-family="Arial" font-size="9.00">_13 = sum_3</text>
</g>
<!-- Node_13 -->
<g id="node14" class="node"><title>Node_13</title>
<path fill="moccasin" stroke="moccasin" d="M99,-0.5C99,-0.5 175,-0.5 175,-0.5 181,-0.5 187,-6.5 187,-12.5 187,-12.5 187,-24.5 187,-24.5 187,-30.5 181,-36.5 175,-36.5 175,-36.5 99,-36.5 99,-36.5 93,-36.5 87,-30.5 87,-24.5 87,-24.5 87,-12.5 87,-12.5 87,-6.5 93,-0.5 99,-0.5"/>
<text text-anchor="middle" x="137" y="-16.3" font-family="Arial" font-size="9.00">_13: [&#45;Infinity, Infinity]</text>
</g>
<!-- Node_12&#45;&gt;Node_13 -->
<g id="edge7" class="edge"><title>Node_12&#45;&gt;Node_13</title>
<path fill="none" stroke="steelblue" d="M137,-73.3129C137,-65.2895 137,-55.5475 137,-46.5691"/>
<polygon fill="steelblue" stroke="steelblue" points="140.5,-46.5288 137,-36.5288 133.5,-46.5289 140.5,-46.5288"/>
</g>
<!-- Node_15 -->
<g id="node16" class="node"><title>Node_15</title>
<path fill="moccasin" stroke="moccasin" d="M959.5,-73.5C959.5,-73.5 1032.5,-73.5 1032.5,-73.5 1038.5,-73.5 1044.5,-79.5 1044.5,-85.5 1044.5,-85.5 1044.5,-97.5 1044.5,-97.5 1044.5,-103.5 1038.5,-109.5 1032.5,-109.5 1032.5,-109.5 959.5,-109.5 959.5,-109.5 953.5,-109.5 947.5,-103.5 947.5,-97.5 947.5,-97.5 947.5,-85.5 947.5,-85.5 947.5,-79.5 953.5,-73.5 959.5,-73.5"/>
<text text-anchor="middle" x="996" y="-89.3" font-family="Arial" font-size="9.00">i_4: [&#45;Infinity, Infinity]</text>
</g>
<!-- Node_14&#45;&gt;Node_15 -->
<g id="edge8" class="edge"><title>Node_14&#45;&gt;Node_15</title>
<path fill="none" stroke="steelblue" d="M960.377,-146.313C965.977,-137.853 972.842,-127.484 979.045,-118.112"/>
<polygon fill="steelblue" stroke="steelblue" points="982.126,-119.799 984.727,-109.529 976.289,-115.935 982.126,-119.799"/>
</g>
<!-- Node_15&#45;&gt;Node_8 -->
<g id="edge27" class="edge"><title>Node_15&#45;&gt;Node_8</title>
<path fill="none" stroke="tan" d="M1006.6,-109.777C1012.47,-119.995 1019.47,-133.37 1024,-146 1037.88,-184.684 1043,-195.401 1043,-236.5 1043,-457.5 1043,-457.5 1043,-457.5 1043,-500.82 1021.61,-547.21 1006.01,-575.289"/>
<polygon fill="tan" stroke="tan" points="1002.91,-573.661 1000.98,-584.079 1008.99,-577.138 1002.91,-573.661"/>
</g>
<!-- Node_16 -->
<g id="node17" class="node"><title>Node_16</title>
<path fill="lightblue" stroke="lightblue" d="M544.5,-365.5C544.5,-365.5 607.5,-365.5 607.5,-365.5 613.5,-365.5 619.5,-371.5 619.5,-377.5 619.5,-377.5 619.5,-389.5 619.5,-389.5 619.5,-395.5 613.5,-401.5 607.5,-401.5 607.5,-401.5 544.5,-401.5 544.5,-401.5 538.5,-401.5 532.5,-395.5 532.5,-389.5 532.5,-389.5 532.5,-377.5 532.5,-377.5 532.5,-371.5 538.5,-365.5 544.5,-365.5"/>
<text text-anchor="middle" x="576" y="-381.3" font-family="Arial" font-size="9.00">j_11 = j_5_t_f + 1</text>
</g>
<!-- Node_17 -->
<g id="node18" class="node"><title>Node_17</title>
<path fill="moccasin" stroke="moccasin" d="M533,-292.5C533,-292.5 611,-292.5 611,-292.5 617,-292.5 623,-298.5 623,-304.5 623,-304.5 623,-316.5 623,-316.5 623,-322.5 617,-328.5 611,-328.5 611,-328.5 533,-328.5 533,-328.5 527,-328.5 521,-322.5 521,-316.5 521,-316.5 521,-304.5 521,-304.5 521,-298.5 527,-292.5 533,-292.5"/>
<text text-anchor="middle" x="572" y="-308.3" font-family="Arial" font-size="9.00">j_11: [&#45;Infinity, Infinity]</text>
</g>
<!-- Node_16&#45;&gt;Node_17 -->
<g id="edge9" class="edge"><title>Node_16&#45;&gt;Node_17</title>
<path fill="none" stroke="steelblue" d="M575.032,-365.313C574.58,-357.289 574.031,-347.547 573.525,-338.569"/>
<polygon fill="steelblue" stroke="steelblue" points="577.016,-338.316 572.959,-328.529 570.027,-338.71 577.016,-338.316"/>
</g>
<!-- Node_17&#45;&gt;Node_4 -->
<g id="edge35" class="edge"><title>Node_17&#45;&gt;Node_4</title>
<path fill="none" stroke="tan" d="M596.192,-292.494C609.337,-283.253 625.783,-271.692 640.08,-261.642"/>
<polygon fill="tan" stroke="tan" points="642.487,-264.228 648.655,-255.614 638.462,-258.501 642.487,-264.228"/>
</g>
<!-- Node_19 -->
<g id="node20" class="node"><title>Node_19</title>
<path fill="moccasin" stroke="moccasin" d="M539,-584.5C539,-584.5 619,-584.5 619,-584.5 625,-584.5 631,-590.5 631,-596.5 631,-596.5 631,-608.5 631,-608.5 631,-614.5 625,-620.5 619,-620.5 619,-620.5 539,-620.5 539,-620.5 533,-620.5 527,-614.5 527,-608.5 527,-608.5 527,-596.5 527,-596.5 527,-590.5 533,-584.5 539,-584.5"/>
<text text-anchor="middle" x="579" y="-600.3" font-family="Arial" font-size="9.00">j_5_t: [&#45;Infinity, Infinity]</text>
</g>
<!-- Node_18&#45;&gt;Node_19 -->
<g id="edge10" class="edge"><title>Node_18&#45;&gt;Node_19</title>
<path fill="none" stroke="steelblue" d="M732.702,-109.737C745.266,-136.265 767,-189.015 767,-236.5 767,-457.5 767,-457.5 767,-457.5 767,-522.27 695.802,-561.856 641.036,-582.725"/>
<polygon fill="steelblue" stroke="steelblue" points="639.544,-579.545 631.368,-586.283 641.962,-586.114 639.544,-579.545"/>
</g>
<!-- Node_19&#45;&gt;Node_2 -->
<g id="edge38" class="edge"><title>Node_19&#45;&gt;Node_2</title>
<path fill="none" stroke="tan" d="M552.413,-584.494C537.693,-575.079 519.209,-563.255 503.293,-553.075"/>
<polygon fill="tan" stroke="tan" points="505.065,-550.054 494.755,-547.614 501.293,-555.95 505.065,-550.054"/>
</g>
<!-- Node_28 -->
<g id="node29" class="node"><title>Node_28</title>
<path fill="lightblue" stroke="lightblue" d="M555,-511.5C555,-511.5 603,-511.5 603,-511.5 609,-511.5 615,-517.5 615,-523.5 615,-523.5 615,-535.5 615,-535.5 615,-541.5 609,-547.5 603,-547.5 603,-547.5 555,-547.5 555,-547.5 549,-547.5 543,-541.5 543,-535.5 543,-535.5 543,-523.5 543,-523.5 543,-517.5 549,-511.5 555,-511.5"/>
<text text-anchor="middle" x="579" y="-527.3" font-family="Arial" font-size="9.00">if (j_5_t != 99)</text>
</g>
<!-- Node_19&#45;&gt;Node_28 -->
<g id="edge39" class="edge"><title>Node_19&#45;&gt;Node_28</title>
<path fill="none" stroke="tan" d="M579,-584.313C579,-576.289 579,-566.547 579,-557.569"/>
<polygon fill="tan" stroke="tan" points="582.5,-557.529 579,-547.529 575.5,-557.529 582.5,-557.529"/>
</g>
<!-- Node_21 -->
<g id="node22" class="node"><title>Node_21</title>
<path fill="moccasin" stroke="moccasin" d="M820,-365.5C820,-365.5 908,-365.5 908,-365.5 914,-365.5 920,-371.5 920,-377.5 920,-377.5 920,-389.5 920,-389.5 920,-395.5 914,-401.5 908,-401.5 908,-401.5 820,-401.5 820,-401.5 814,-401.5 808,-395.5 808,-389.5 808,-389.5 808,-377.5 808,-377.5 808,-371.5 814,-365.5 820,-365.5"/>
<text text-anchor="middle" x="864" y="-381.3" font-family="Arial" font-size="9.00">i_4_t_f: [&#45;Infinity, Infinity]</text>
</g>
<!-- Node_20&#45;&gt;Node_21 -->
<g id="edge11" class="edge"><title>Node_20&#45;&gt;Node_21</title>
<path fill="none" stroke="steelblue" d="M901.138,-438.313C895.24,-429.766 887.996,-419.269 881.476,-409.823"/>
<polygon fill="steelblue" stroke="steelblue" points="884.313,-407.771 875.752,-401.529 878.552,-411.747 884.313,-407.771"/>
</g>
<!-- Node_21&#45;&gt;Node_10 -->
<g id="edge21" class="edge"><title>Node_21&#45;&gt;Node_10</title>
<path fill="none" stroke="tan" d="M863.758,-365.313C863.645,-357.289 863.508,-347.547 863.381,-338.569"/>
<polygon fill="tan" stroke="tan" points="866.88,-338.479 863.24,-328.529 859.881,-338.577 866.88,-338.479"/>
</g>
<!-- Node_22 -->
<g id="node23" class="node"><title>Node_22</title>
<path fill="lightblue" stroke="lightblue" d="M65.5,-365.5C65.5,-365.5 110.5,-365.5 110.5,-365.5 116.5,-365.5 122.5,-371.5 122.5,-377.5 122.5,-377.5 122.5,-389.5 122.5,-389.5 122.5,-395.5 116.5,-401.5 110.5,-401.5 110.5,-401.5 65.5,-401.5 65.5,-401.5 59.5,-401.5 53.5,-395.5 53.5,-389.5 53.5,-389.5 53.5,-377.5 53.5,-377.5 53.5,-371.5 59.5,-365.5 65.5,-365.5"/>
<text text-anchor="middle" x="88" y="-381.3" font-family="Arial" font-size="9.00">sum_6 = &#45;10</text>
</g>
<!-- Node_23 -->
<g id="node24" class="node"><title>Node_23</title>
<path fill="moccasin" stroke="moccasin" d="M43.5,-292.5C43.5,-292.5 132.5,-292.5 132.5,-292.5 138.5,-292.5 144.5,-298.5 144.5,-304.5 144.5,-304.5 144.5,-316.5 144.5,-316.5 144.5,-322.5 138.5,-328.5 132.5,-328.5 132.5,-328.5 43.5,-328.5 43.5,-328.5 37.5,-328.5 31.5,-322.5 31.5,-316.5 31.5,-316.5 31.5,-304.5 31.5,-304.5 31.5,-298.5 37.5,-292.5 43.5,-292.5"/>
<text text-anchor="middle" x="88" y="-308.3" font-family="Arial" font-size="9.00">sum_6: [&#45;Infinity, Infinity]</text>
</g>
<!-- Node_22&#45;&gt;Node_23 -->
<g id="edge12" class="edge"><title>Node_22&#45;&gt;Node_23</title>
<path fill="none" stroke="steelblue" d="M88,-365.313C88,-357.289 88,-347.547 88,-338.569"/>
<polygon fill="steelblue" stroke="steelblue" points="91.5001,-338.529 88,-328.529 84.5001,-338.529 91.5001,-338.529"/>
</g>
<!-- Node_23&#45;&gt;Node_26 -->
<g id="edge36" class="edge"><title>Node_23&#45;&gt;Node_26</title>
<path fill="none" stroke="tan" d="M88,-292.313C88,-284.289 88,-274.547 88,-265.569"/>
<polygon fill="tan" stroke="tan" points="91.5001,-265.529 88,-255.529 84.5001,-265.529 91.5001,-265.529"/>
</g>
<!-- Node_24 -->
<g id="node25" class="node"><title>Node_24</title>
<path fill="lightblue" stroke="lightblue" d="M675,-365.5C675,-365.5 705,-365.5 705,-365.5 711,-365.5 717,-371.5 717,-377.5 717,-377.5 717,-389.5 717,-389.5 717,-395.5 711,-401.5 705,-401.5 705,-401.5 675,-401.5 675,-401.5 669,-401.5 663,-395.5 663,-389.5 663,-389.5 663,-377.5 663,-377.5 663,-371.5 669,-365.5 675,-365.5"/>
<text text-anchor="middle" x="690" y="-381.3" font-family="Arial" font-size="9.00">j_8 = 0</text>
</g>
<!-- Node_25 -->
<g id="node26" class="node"><title>Node_25</title>
<path fill="moccasin" stroke="moccasin" d="M653.5,-292.5C653.5,-292.5 726.5,-292.5 726.5,-292.5 732.5,-292.5 738.5,-298.5 738.5,-304.5 738.5,-304.5 738.5,-316.5 738.5,-316.5 738.5,-322.5 732.5,-328.5 726.5,-328.5 726.5,-328.5 653.5,-328.5 653.5,-328.5 647.5,-328.5 641.5,-322.5 641.5,-316.5 641.5,-316.5 641.5,-304.5 641.5,-304.5 641.5,-298.5 647.5,-292.5 653.5,-292.5"/>
<text text-anchor="middle" x="690" y="-308.3" font-family="Arial" font-size="9.00">j_8: [&#45;Infinity, Infinity]</text>
</g>
<!-- Node_24&#45;&gt;Node_25 -->
<g id="edge13" class="edge"><title>Node_24&#45;&gt;Node_25</title>
<path fill="none" stroke="steelblue" d="M690,-365.313C690,-357.289 690,-347.547 690,-338.569"/>
<polygon fill="steelblue" stroke="steelblue" points="693.5,-338.529 690,-328.529 686.5,-338.529 693.5,-338.529"/>
</g>
<!-- Node_25&#45;&gt;Node_4 -->
<g id="edge19" class="edge"><title>Node_25&#45;&gt;Node_4</title>
<path fill="none" stroke="tan" d="M685.885,-292.313C683.943,-284.202 681.58,-274.336 679.411,-265.277"/>
<polygon fill="tan" stroke="tan" points="682.81,-264.439 677.077,-255.529 676.002,-266.069 682.81,-264.439"/>
</g>
<!-- Node_27 -->
<g id="node28" class="node"><title>Node_27</title>
<path fill="moccasin" stroke="moccasin" d="M92.5,-146.5C92.5,-146.5 181.5,-146.5 181.5,-146.5 187.5,-146.5 193.5,-152.5 193.5,-158.5 193.5,-158.5 193.5,-170.5 193.5,-170.5 193.5,-176.5 187.5,-182.5 181.5,-182.5 181.5,-182.5 92.5,-182.5 92.5,-182.5 86.5,-182.5 80.5,-176.5 80.5,-170.5 80.5,-170.5 80.5,-158.5 80.5,-158.5 80.5,-152.5 86.5,-146.5 92.5,-146.5"/>
<text text-anchor="middle" x="137" y="-162.3" font-family="Arial" font-size="9.00">sum_3: [&#45;Infinity, Infinity]</text>
</g>
<!-- Node_26&#45;&gt;Node_27 -->
<g id="edge14" class="edge"><title>Node_26&#45;&gt;Node_27</title>
<path fill="none" stroke="steelblue" d="M99.8615,-219.313C105.76,-210.766 113.004,-200.269 119.524,-190.823"/>
<polygon fill="steelblue" stroke="steelblue" points="122.448,-192.747 125.248,-182.529 116.687,-188.771 122.448,-192.747"/>
</g>
<!-- Node_27&#45;&gt;Node_0 -->
<g id="edge22" class="edge"><title>Node_27&#45;&gt;Node_0</title>
<path fill="none" stroke="tan" d="M155.85,-182.876C165.625,-192.707 177.133,-205.676 185,-219 198.954,-242.634 222.003,-315.74 234.072,-355.716"/>
<polygon fill="tan" stroke="tan" points="230.735,-356.775 236.961,-365.348 237.44,-354.764 230.735,-356.775"/>
</g>
<!-- Node_27&#45;&gt;Node_12 -->
<g id="edge23" class="edge"><title>Node_27&#45;&gt;Node_12</title>
<path fill="none" stroke="tan" d="M137,-146.313C137,-138.289 137,-128.547 137,-119.569"/>
<polygon fill="tan" stroke="tan" points="140.5,-119.529 137,-109.529 133.5,-119.529 140.5,-119.529"/>
</g>
<!-- Node_29 -->
<g id="node30" class="node"><title>Node_29</title>
<path fill="moccasin" stroke="moccasin" d="M535,-438.5C535,-438.5 623,-438.5 623,-438.5 629,-438.5 635,-444.5 635,-450.5 635,-450.5 635,-462.5 635,-462.5 635,-468.5 629,-474.5 623,-474.5 623,-474.5 535,-474.5 535,-474.5 529,-474.5 523,-468.5 523,-462.5 523,-462.5 523,-450.5 523,-450.5 523,-444.5 529,-438.5 535,-438.5"/>
<text text-anchor="middle" x="579" y="-454.3" font-family="Arial" font-size="9.00">j_5_t_f: [&#45;Infinity, Infinity]</text>
</g>
<!-- Node_28&#45;&gt;Node_29 -->
<g id="edge15" class="edge"><title>Node_28&#45;&gt;Node_29</title>
<path fill="none" stroke="steelblue" d="M579,-511.313C579,-503.289 579,-493.547 579,-484.569"/>
<polygon fill="steelblue" stroke="steelblue" points="582.5,-484.529 579,-474.529 575.5,-484.529 582.5,-484.529"/>
</g>
<!-- Node_29&#45;&gt;Node_16 -->
<g id="edge26" class="edge"><title>Node_29&#45;&gt;Node_16</title>
<path fill="none" stroke="tan" d="M578.274,-438.313C577.935,-430.289 577.523,-420.547 577.144,-411.569"/>
<polygon fill="tan" stroke="tan" points="580.639,-411.372 576.72,-401.529 573.645,-411.668 580.639,-411.372"/>
</g>
<!-- Node_31 -->
<g id="node32" class="node"><title>Node_31</title>
<path fill="moccasin" stroke="moccasin" d="M367.5,-146.5C367.5,-146.5 462.5,-146.5 462.5,-146.5 468.5,-146.5 474.5,-152.5 474.5,-158.5 474.5,-158.5 474.5,-170.5 474.5,-170.5 474.5,-176.5 468.5,-182.5 462.5,-182.5 462.5,-182.5 367.5,-182.5 367.5,-182.5 361.5,-182.5 355.5,-176.5 355.5,-170.5 355.5,-170.5 355.5,-158.5 355.5,-158.5 355.5,-152.5 361.5,-146.5 367.5,-146.5"/>
<text text-anchor="middle" x="415" y="-162.3" font-family="Arial" font-size="9.00">sum_10: [&#45;Infinity, Infinity]</text>
</g>
<!-- Node_30&#45;&gt;Node_31 -->
<g id="edge16" class="edge"><title>Node_30&#45;&gt;Node_31</title>
<path fill="none" stroke="steelblue" d="M415,-219.313C415,-211.289 415,-201.547 415,-192.569"/>
<polygon fill="steelblue" stroke="steelblue" points="418.5,-192.529 415,-182.529 411.5,-192.529 418.5,-192.529"/>
</g>
<!-- Node_31&#45;&gt;Node_32 -->
<g id="edge29" class="edge"><title>Node_31&#45;&gt;Node_32</title>
<path fill="none" stroke="tan" d="M401.928,-146.313C395.362,-137.679 387.281,-127.055 380.04,-117.534"/>
<polygon fill="tan" stroke="tan" points="382.791,-115.37 373.952,-109.529 377.219,-119.607 382.791,-115.37"/>
</g>
<!-- Node_33 -->
<g id="node34" class="node"><title>Node_33</title>
<path fill="moccasin" stroke="moccasin" d="M266.5,-0.5C266.5,-0.5 355.5,-0.5 355.5,-0.5 361.5,-0.5 367.5,-6.5 367.5,-12.5 367.5,-12.5 367.5,-24.5 367.5,-24.5 367.5,-30.5 361.5,-36.5 355.5,-36.5 355.5,-36.5 266.5,-36.5 266.5,-36.5 260.5,-36.5 254.5,-30.5 254.5,-24.5 254.5,-24.5 254.5,-12.5 254.5,-12.5 254.5,-6.5 260.5,-0.5 266.5,-0.5"/>
<text text-anchor="middle" x="311" y="-16.3" font-family="Arial" font-size="9.00">sum_1: [&#45;Infinity, Infinity]</text>
</g>
<!-- Node_32&#45;&gt;Node_33 -->
<g id="edge17" class="edge"><title>Node_32&#45;&gt;Node_33</title>
<path fill="none" stroke="steelblue" d="M348.896,-73.3129C342.878,-64.7662 335.486,-54.2695 328.833,-44.8229"/>
<polygon fill="steelblue" stroke="steelblue" points="331.612,-42.6897 322.992,-36.5288 325.888,-46.7202 331.612,-42.6897"/>
</g>
<!-- Node_33&#45;&gt;Node_0 -->
<g id="edge28" class="edge"><title>Node_33&#45;&gt;Node_0</title>
<path fill="none" stroke="tan" d="M290.375,-36.5812C280.035,-46.2322 268.211,-59.1247 261,-73 242.048,-109.469 242,-122.401 242,-163.5 242,-238.5 242,-238.5 242,-238.5 242,-279.067 242,-326.063 242,-355.039"/>
<polygon fill="tan" stroke="tan" points="238.5,-355.211 242,-365.211 245.5,-355.211 238.5,-355.211"/>
</g>
<!-- Node_34 -->
<g id="node35" class="node"><title>Node_34</title>
<path fill="lightblue" stroke="lightblue" d="M951,-292.5C951,-292.5 981,-292.5 981,-292.5 987,-292.5 993,-298.5 993,-304.5 993,-304.5 993,-316.5 993,-316.5 993,-322.5 987,-328.5 981,-328.5 981,-328.5 951,-328.5 951,-328.5 945,-328.5 939,-322.5 939,-316.5 939,-316.5 939,-304.5 939,-304.5 939,-298.5 945,-292.5 951,-292.5"/>
<text text-anchor="middle" x="966" y="-308.3" font-family="Arial" font-size="9.00">i_7 = 0</text>
</g>
<!-- Node_35 -->
<g id="node36" class="node"><title>Node_35</title>
<path fill="moccasin" stroke="moccasin" d="M929.5,-219.5C929.5,-219.5 1002.5,-219.5 1002.5,-219.5 1008.5,-219.5 1014.5,-225.5 1014.5,-231.5 1014.5,-231.5 1014.5,-243.5 1014.5,-243.5 1014.5,-249.5 1008.5,-255.5 1002.5,-255.5 1002.5,-255.5 929.5,-255.5 929.5,-255.5 923.5,-255.5 917.5,-249.5 917.5,-243.5 917.5,-243.5 917.5,-231.5 917.5,-231.5 917.5,-225.5 923.5,-219.5 929.5,-219.5"/>
<text text-anchor="middle" x="966" y="-235.3" font-family="Arial" font-size="9.00">i_7: [&#45;Infinity, Infinity]</text>
</g>
<!-- Node_34&#45;&gt;Node_35 -->
<g id="edge18" class="edge"><title>Node_34&#45;&gt;Node_35</title>
<path fill="none" stroke="steelblue" d="M966,-292.313C966,-284.289 966,-274.547 966,-265.569"/>
<polygon fill="steelblue" stroke="steelblue" points="969.5,-265.529 966,-255.529 962.5,-265.529 969.5,-265.529"/>
</g>
<!-- Node_35&#45;&gt;Node_14 -->
<g id="edge24" class="edge"><title>Node_35&#45;&gt;Node_14</title>
<path fill="none" stroke="tan" d="M961.885,-219.313C959.943,-211.202 957.58,-201.336 955.411,-192.277"/>
<polygon fill="tan" stroke="tan" points="958.81,-191.439 953.077,-182.529 952.002,-193.069 958.81,-191.439"/>
</g>
</g>
</svg>
